G04 #@! TF.GenerationSoftware,KiCad,Pcbnew,5.1.5+dfsg1-2build2*
G04 #@! TF.CreationDate,2020-08-03T23:06:02+02:00*
G04 #@! TF.ProjectId,transistor_board,7472616e-7369-4737-946f-725f626f6172,rev?*
G04 #@! TF.SameCoordinates,Original*
G04 #@! TF.FileFunction,Copper,L2,Bot*
G04 #@! TF.FilePolarity,Positive*
%FSLAX46Y46*%
G04 Gerber Fmt 4.6, Leading zero omitted, Abs format (unit mm)*
G04 Created by KiCad (PCBNEW 5.1.5+dfsg1-2build2) date 2020-08-03 23:06:02*
%MOMM*%
%LPD*%
G04 APERTURE LIST*
%ADD10O,1.905000X2.000000*%
%ADD11R,1.905000X2.000000*%
%ADD12C,1.524000*%
%ADD13O,1.700000X1.700000*%
%ADD14R,1.700000X1.700000*%
%ADD15C,0.800000*%
%ADD16C,0.500000*%
%ADD17C,0.250000*%
%ADD18C,0.254000*%
G04 APERTURE END LIST*
D10*
X121920000Y-126365000D03*
X124460000Y-126365000D03*
D11*
X127000000Y-126365000D03*
D12*
X114300000Y-119380000D03*
X114300000Y-116840000D03*
X114300000Y-114300000D03*
X114300000Y-111760000D03*
X114300000Y-109220000D03*
X114300000Y-106680000D03*
X114300000Y-104140000D03*
X114300000Y-101600000D03*
X137160000Y-101600000D03*
X137160000Y-104140000D03*
X137160000Y-106680000D03*
X137160000Y-109220000D03*
X137160000Y-111760000D03*
X137160000Y-114300000D03*
X137160000Y-116840000D03*
X137160000Y-119380000D03*
D13*
X137160000Y-126365000D03*
D14*
X134620000Y-126365000D03*
D13*
X114300000Y-133985000D03*
X116840000Y-133985000D03*
X119380000Y-133985000D03*
X121920000Y-133985000D03*
X124460000Y-133985000D03*
X127000000Y-133985000D03*
X129540000Y-133985000D03*
X132080000Y-133985000D03*
X134620000Y-133985000D03*
D14*
X137160000Y-133985000D03*
D15*
X132080000Y-109855000D03*
X124206000Y-109220000D03*
X127508000Y-102616000D03*
X129286000Y-120650000D03*
X128360001Y-114844999D03*
X127762000Y-128778000D03*
X132080000Y-116205000D03*
X121920000Y-101600000D03*
X124460000Y-116840000D03*
X123190000Y-112903000D03*
X135763000Y-112776000D03*
X135636000Y-118109996D03*
X135255000Y-108839000D03*
X130048000Y-103378000D03*
X123190000Y-99060000D03*
D16*
X137160000Y-130810000D02*
X137160000Y-133985000D01*
X134620000Y-128270000D02*
X137160000Y-130810000D01*
X134620000Y-126365000D02*
X134620000Y-128270000D01*
D17*
X127000000Y-109220000D02*
X125730000Y-109220000D01*
X128905000Y-109220000D02*
X128905000Y-109220000D01*
D16*
X131445000Y-109220000D02*
X132080000Y-109855000D01*
D17*
X125730000Y-109220000D02*
X124206000Y-109220000D01*
X124206000Y-109220000D02*
X124206000Y-109220000D01*
X127508000Y-102616000D02*
X127508000Y-102616000D01*
X127508000Y-102616000D02*
X127508000Y-109093000D01*
X132080000Y-123444000D02*
X132080000Y-126238000D01*
D16*
X129286000Y-120650000D02*
X132080000Y-123444000D01*
X127000000Y-109220000D02*
X131445000Y-109220000D01*
X127000000Y-118364000D02*
X127000000Y-109220000D01*
X129286000Y-120650000D02*
X127000000Y-118364000D01*
X132080000Y-123444000D02*
X132080000Y-133985000D01*
D17*
X131535001Y-114844999D02*
X128360001Y-114844999D01*
X128360001Y-114844999D02*
X128360001Y-114844999D01*
X132588000Y-114808000D02*
X131535001Y-114844999D01*
X137160000Y-119380000D02*
X134747000Y-119380000D01*
X133858000Y-118491000D02*
X133858000Y-116078000D01*
X134747000Y-119380000D02*
X133858000Y-118491000D01*
X133858000Y-116078000D02*
X132588000Y-114808000D01*
X121158000Y-126365000D02*
X121920000Y-126365000D01*
X120650000Y-125857000D02*
X121158000Y-126365000D01*
X120650000Y-120650000D02*
X120650000Y-125857000D01*
X119380000Y-119380000D02*
X120650000Y-120650000D01*
X114300000Y-119380000D02*
X119380000Y-119380000D01*
X121920000Y-127615000D02*
X123083000Y-128778000D01*
X121920000Y-126365000D02*
X121920000Y-127615000D01*
X123083000Y-128778000D02*
X127196315Y-128778000D01*
X127196315Y-128778000D02*
X127762000Y-128778000D01*
D16*
X134620000Y-130429000D02*
X134620000Y-133985000D01*
X132969000Y-128778000D02*
X134620000Y-130429000D01*
X132969000Y-118999000D02*
X132969000Y-128778000D01*
X132080000Y-118110000D02*
X132969000Y-118999000D01*
X132080000Y-116205000D02*
X132080000Y-118110000D01*
D17*
X120650000Y-100330000D02*
X121920000Y-101600000D01*
X121920000Y-101600000D02*
X121920000Y-101600000D01*
X119380000Y-133985000D02*
X119380000Y-132782919D01*
X121666000Y-130048000D02*
X119824500Y-131889500D01*
X128524000Y-130048000D02*
X121666000Y-130048000D01*
X128778000Y-129794000D02*
X128524000Y-130048000D01*
X121920000Y-118110000D02*
X128778000Y-124968000D01*
X128778000Y-124968000D02*
X128778000Y-129794000D01*
X121920000Y-101600000D02*
X121920000Y-118110000D01*
X119380000Y-132334000D02*
X119380000Y-133985000D01*
X119824500Y-131889500D02*
X119380000Y-132334000D01*
D16*
X130175000Y-130810000D02*
X127000000Y-133985000D01*
D17*
X130302000Y-130683000D02*
X130175000Y-130810000D01*
D16*
X124460000Y-119126000D02*
X130302000Y-124968000D01*
X130302000Y-124968000D02*
X130302000Y-130683000D01*
X124460000Y-116840000D02*
X124460000Y-119126000D01*
X131191000Y-132334000D02*
X129540000Y-133985000D01*
X131191000Y-124712590D02*
X131191000Y-132334000D01*
X125730000Y-119251590D02*
X131191000Y-124712590D01*
X125730000Y-115385315D02*
X125730000Y-119251590D01*
X123247685Y-112903000D02*
X125730000Y-115385315D01*
D17*
X123247685Y-112903000D02*
X123190000Y-112903000D01*
X135509000Y-118110000D02*
X135509000Y-118110000D01*
X135763000Y-112776000D02*
X135763000Y-117982996D01*
X135763000Y-117982996D02*
X135636000Y-118109996D01*
X136082370Y-111760000D02*
X135255000Y-110932630D01*
X135255000Y-110932630D02*
X135255000Y-108839000D01*
X137160000Y-111760000D02*
X136082370Y-111760000D01*
X130613685Y-103378000D02*
X130048000Y-103378000D01*
X137160000Y-106680000D02*
X133858000Y-103378000D01*
X133858000Y-103378000D02*
X130613685Y-103378000D01*
X123190000Y-99060000D02*
X123190000Y-99060000D01*
X126492000Y-99060000D02*
X125730000Y-98298000D01*
X129032000Y-99060000D02*
X126492000Y-99060000D01*
X129032000Y-105410000D02*
X129032000Y-99060000D01*
X123952000Y-98298000D02*
X123190000Y-99060000D01*
X125730000Y-98298000D02*
X123952000Y-98298000D01*
X132080000Y-105410000D02*
X129032000Y-105410000D01*
X132080000Y-106680000D02*
X132080000Y-105410000D01*
X134620000Y-106680000D02*
X132080000Y-106680000D01*
X137160000Y-109220000D02*
X134620000Y-106680000D01*
D18*
G36*
X129417001Y-130316420D02*
G01*
X127218961Y-132514461D01*
X127146260Y-132500000D01*
X126853740Y-132500000D01*
X126566842Y-132557068D01*
X126296589Y-132669010D01*
X126053368Y-132831525D01*
X125846525Y-133038368D01*
X125724805Y-133220534D01*
X125655178Y-133103645D01*
X125460269Y-132887412D01*
X125226920Y-132713359D01*
X124964099Y-132588175D01*
X124816890Y-132543524D01*
X124587000Y-132664845D01*
X124587000Y-133858000D01*
X124607000Y-133858000D01*
X124607000Y-134112000D01*
X124587000Y-134112000D01*
X124587000Y-134132000D01*
X124333000Y-134132000D01*
X124333000Y-134112000D01*
X124313000Y-134112000D01*
X124313000Y-133858000D01*
X124333000Y-133858000D01*
X124333000Y-132664845D01*
X124103110Y-132543524D01*
X123955901Y-132588175D01*
X123693080Y-132713359D01*
X123459731Y-132887412D01*
X123264822Y-133103645D01*
X123195195Y-133220534D01*
X123073475Y-133038368D01*
X122866632Y-132831525D01*
X122623411Y-132669010D01*
X122353158Y-132557068D01*
X122066260Y-132500000D01*
X121773740Y-132500000D01*
X121486842Y-132557068D01*
X121216589Y-132669010D01*
X120973368Y-132831525D01*
X120766525Y-133038368D01*
X120650000Y-133212760D01*
X120533475Y-133038368D01*
X120326632Y-132831525D01*
X120140000Y-132706822D01*
X120140000Y-132648801D01*
X120388299Y-132400502D01*
X121980802Y-130808000D01*
X128486678Y-130808000D01*
X128524000Y-130811676D01*
X128561322Y-130808000D01*
X128561333Y-130808000D01*
X128672986Y-130797003D01*
X128816247Y-130753546D01*
X128948276Y-130682974D01*
X129064001Y-130588001D01*
X129087804Y-130558997D01*
X129288997Y-130357804D01*
X129318001Y-130334001D01*
X129412974Y-130218276D01*
X129417001Y-130210742D01*
X129417001Y-130316420D01*
G37*
X129417001Y-130316420D02*
X127218961Y-132514461D01*
X127146260Y-132500000D01*
X126853740Y-132500000D01*
X126566842Y-132557068D01*
X126296589Y-132669010D01*
X126053368Y-132831525D01*
X125846525Y-133038368D01*
X125724805Y-133220534D01*
X125655178Y-133103645D01*
X125460269Y-132887412D01*
X125226920Y-132713359D01*
X124964099Y-132588175D01*
X124816890Y-132543524D01*
X124587000Y-132664845D01*
X124587000Y-133858000D01*
X124607000Y-133858000D01*
X124607000Y-134112000D01*
X124587000Y-134112000D01*
X124587000Y-134132000D01*
X124333000Y-134132000D01*
X124333000Y-134112000D01*
X124313000Y-134112000D01*
X124313000Y-133858000D01*
X124333000Y-133858000D01*
X124333000Y-132664845D01*
X124103110Y-132543524D01*
X123955901Y-132588175D01*
X123693080Y-132713359D01*
X123459731Y-132887412D01*
X123264822Y-133103645D01*
X123195195Y-133220534D01*
X123073475Y-133038368D01*
X122866632Y-132831525D01*
X122623411Y-132669010D01*
X122353158Y-132557068D01*
X122066260Y-132500000D01*
X121773740Y-132500000D01*
X121486842Y-132557068D01*
X121216589Y-132669010D01*
X120973368Y-132831525D01*
X120766525Y-133038368D01*
X120650000Y-133212760D01*
X120533475Y-133038368D01*
X120326632Y-132831525D01*
X120140000Y-132706822D01*
X120140000Y-132648801D01*
X120388299Y-132400502D01*
X121980802Y-130808000D01*
X128486678Y-130808000D01*
X128524000Y-130811676D01*
X128561322Y-130808000D01*
X128561333Y-130808000D01*
X128672986Y-130797003D01*
X128816247Y-130753546D01*
X128948276Y-130682974D01*
X129064001Y-130588001D01*
X129087804Y-130558997D01*
X129288997Y-130357804D01*
X129318001Y-130334001D01*
X129412974Y-130218276D01*
X129417001Y-130210742D01*
X129417001Y-130316420D01*
G36*
X123150198Y-98025000D02*
G01*
X123088061Y-98025000D01*
X122888102Y-98064774D01*
X122699744Y-98142795D01*
X122530226Y-98256063D01*
X122386063Y-98400226D01*
X122272795Y-98569744D01*
X122194774Y-98758102D01*
X122155000Y-98958061D01*
X122155000Y-99161939D01*
X122194774Y-99361898D01*
X122272795Y-99550256D01*
X122386063Y-99719774D01*
X122530226Y-99863937D01*
X122699744Y-99977205D01*
X122888102Y-100055226D01*
X123088061Y-100095000D01*
X123291939Y-100095000D01*
X123491898Y-100055226D01*
X123680256Y-99977205D01*
X123849774Y-99863937D01*
X123993937Y-99719774D01*
X124107205Y-99550256D01*
X124185226Y-99361898D01*
X124225000Y-99161939D01*
X124225000Y-99099802D01*
X124266802Y-99058000D01*
X125415199Y-99058000D01*
X125928201Y-99571002D01*
X125951999Y-99600001D01*
X126067724Y-99694974D01*
X126199753Y-99765546D01*
X126343014Y-99809003D01*
X126454667Y-99820000D01*
X126454675Y-99820000D01*
X126492000Y-99823676D01*
X126529325Y-99820000D01*
X128272001Y-99820000D01*
X128272000Y-105372667D01*
X128268323Y-105410000D01*
X128282997Y-105558986D01*
X128326454Y-105702247D01*
X128397026Y-105834276D01*
X128491999Y-105950001D01*
X128607724Y-106044974D01*
X128739753Y-106115546D01*
X128883014Y-106159003D01*
X128984484Y-106168997D01*
X129032000Y-106173677D01*
X129069333Y-106170000D01*
X131320000Y-106170000D01*
X131320000Y-106642667D01*
X131316323Y-106680000D01*
X131330997Y-106828986D01*
X131374454Y-106972247D01*
X131445026Y-107104276D01*
X131516200Y-107191002D01*
X131539999Y-107220001D01*
X131655724Y-107314974D01*
X131787753Y-107385546D01*
X131931014Y-107429003D01*
X132080000Y-107443677D01*
X132117333Y-107440000D01*
X134305199Y-107440000D01*
X134780477Y-107915278D01*
X134764744Y-107921795D01*
X134595226Y-108035063D01*
X134451063Y-108179226D01*
X134337795Y-108348744D01*
X134259774Y-108537102D01*
X134220000Y-108737061D01*
X134220000Y-108940939D01*
X134259774Y-109140898D01*
X134337795Y-109329256D01*
X134451063Y-109498774D01*
X134495001Y-109542712D01*
X134495000Y-110895307D01*
X134491324Y-110932630D01*
X134495000Y-110969952D01*
X134495000Y-110969962D01*
X134505997Y-111081615D01*
X134547975Y-111219999D01*
X134549454Y-111224876D01*
X134620026Y-111356906D01*
X134659871Y-111405456D01*
X134714999Y-111472631D01*
X134744002Y-111496433D01*
X135173006Y-111925438D01*
X135103226Y-111972063D01*
X134959063Y-112116226D01*
X134845795Y-112285744D01*
X134767774Y-112474102D01*
X134728000Y-112674061D01*
X134728000Y-112877939D01*
X134767774Y-113077898D01*
X134845795Y-113266256D01*
X134959063Y-113435774D01*
X135003000Y-113479711D01*
X135003001Y-117288169D01*
X134976226Y-117306059D01*
X134832063Y-117450222D01*
X134718795Y-117619740D01*
X134640774Y-117808098D01*
X134618000Y-117922592D01*
X134618000Y-116115322D01*
X134621676Y-116077999D01*
X134618000Y-116040676D01*
X134618000Y-116040667D01*
X134607003Y-115929014D01*
X134563546Y-115785753D01*
X134492974Y-115653724D01*
X134398001Y-115537999D01*
X134369003Y-115514201D01*
X133142346Y-114287545D01*
X133108705Y-114249370D01*
X133059827Y-114212051D01*
X133012276Y-114173026D01*
X133000406Y-114166681D01*
X132989717Y-114158520D01*
X132934503Y-114131455D01*
X132880246Y-114102454D01*
X132867372Y-114098549D01*
X132855291Y-114092627D01*
X132795831Y-114076848D01*
X132736985Y-114058998D01*
X132723598Y-114057680D01*
X132710592Y-114054228D01*
X132649195Y-114050351D01*
X132588000Y-114044324D01*
X132537378Y-114049310D01*
X131521663Y-114084999D01*
X129063712Y-114084999D01*
X129019775Y-114041062D01*
X128850257Y-113927794D01*
X128661899Y-113849773D01*
X128461940Y-113809999D01*
X128258062Y-113809999D01*
X128058103Y-113849773D01*
X127869745Y-113927794D01*
X127700227Y-114041062D01*
X127556064Y-114185225D01*
X127442796Y-114354743D01*
X127364775Y-114543101D01*
X127325001Y-114743060D01*
X127325001Y-114946938D01*
X127364775Y-115146897D01*
X127442796Y-115335255D01*
X127556064Y-115504773D01*
X127700227Y-115648936D01*
X127869745Y-115762204D01*
X128058103Y-115840225D01*
X128258062Y-115879999D01*
X128461940Y-115879999D01*
X128661899Y-115840225D01*
X128850257Y-115762204D01*
X129019775Y-115648936D01*
X129063712Y-115604999D01*
X131236124Y-115604999D01*
X131162795Y-115714744D01*
X131084774Y-115903102D01*
X131045000Y-116103061D01*
X131045000Y-116306939D01*
X131084774Y-116506898D01*
X131162795Y-116695256D01*
X131195000Y-116743455D01*
X131195001Y-118066521D01*
X131190719Y-118110000D01*
X131207805Y-118283490D01*
X131258412Y-118450313D01*
X131340590Y-118604059D01*
X131423468Y-118705046D01*
X131423471Y-118705049D01*
X131451184Y-118738817D01*
X131484951Y-118766529D01*
X132084000Y-119365579D01*
X132084001Y-128734521D01*
X132079719Y-128778000D01*
X132096805Y-128951490D01*
X132147412Y-129118313D01*
X132229590Y-129272059D01*
X132312468Y-129373046D01*
X132312471Y-129373049D01*
X132340184Y-129406817D01*
X132373951Y-129434529D01*
X133735000Y-130795579D01*
X133735001Y-132790343D01*
X133673368Y-132831525D01*
X133466525Y-133038368D01*
X133344805Y-133220534D01*
X133275178Y-133103645D01*
X133080269Y-132887412D01*
X132846920Y-132713359D01*
X132584099Y-132588175D01*
X132436890Y-132543524D01*
X132207000Y-132664845D01*
X132207000Y-133858000D01*
X132227000Y-133858000D01*
X132227000Y-134112000D01*
X132207000Y-134112000D01*
X132207000Y-134132000D01*
X131953000Y-134132000D01*
X131953000Y-134112000D01*
X131933000Y-134112000D01*
X131933000Y-133858000D01*
X131953000Y-133858000D01*
X131953000Y-132785798D01*
X132012589Y-132674314D01*
X132063195Y-132507490D01*
X132064851Y-132490672D01*
X132076000Y-132377477D01*
X132076000Y-132377469D01*
X132080281Y-132334000D01*
X132076000Y-132290531D01*
X132076000Y-124756055D01*
X132080281Y-124712589D01*
X132076000Y-124669123D01*
X132076000Y-124669113D01*
X132063195Y-124539100D01*
X132012589Y-124372277D01*
X131930411Y-124218531D01*
X131819817Y-124083773D01*
X131786051Y-124056062D01*
X126615000Y-118885012D01*
X126615000Y-115428784D01*
X126619281Y-115385315D01*
X126615000Y-115341846D01*
X126615000Y-115341838D01*
X126602195Y-115211825D01*
X126579571Y-115137246D01*
X126551589Y-115045001D01*
X126469411Y-114891256D01*
X126386532Y-114790268D01*
X126386530Y-114790266D01*
X126358817Y-114756498D01*
X126325050Y-114728786D01*
X124176642Y-112580379D01*
X124107205Y-112412744D01*
X123993937Y-112243226D01*
X123849774Y-112099063D01*
X123680256Y-111985795D01*
X123491898Y-111907774D01*
X123291939Y-111868000D01*
X123088061Y-111868000D01*
X122888102Y-111907774D01*
X122699744Y-111985795D01*
X122680000Y-111998987D01*
X122680000Y-102303711D01*
X122723937Y-102259774D01*
X122837205Y-102090256D01*
X122915226Y-101901898D01*
X122955000Y-101701939D01*
X122955000Y-101498061D01*
X122915226Y-101298102D01*
X122837205Y-101109744D01*
X122723937Y-100940226D01*
X122579774Y-100796063D01*
X122410256Y-100682795D01*
X122221898Y-100604774D01*
X122021939Y-100565000D01*
X121959802Y-100565000D01*
X121161002Y-99766201D01*
X121074276Y-99695026D01*
X120942246Y-99624454D01*
X120798985Y-99580998D01*
X120650000Y-99566324D01*
X120501015Y-99580998D01*
X120357754Y-99624454D01*
X120225724Y-99695026D01*
X120109999Y-99789999D01*
X120015026Y-99905724D01*
X119944454Y-100037754D01*
X119900998Y-100181015D01*
X119886324Y-100330000D01*
X119900998Y-100478985D01*
X119944454Y-100622246D01*
X120015026Y-100754276D01*
X120086201Y-100841002D01*
X120885000Y-101639802D01*
X120885000Y-101701939D01*
X120924774Y-101901898D01*
X121002795Y-102090256D01*
X121116063Y-102259774D01*
X121160000Y-102303711D01*
X121160001Y-118072667D01*
X121156324Y-118110000D01*
X121160001Y-118147333D01*
X121170998Y-118258986D01*
X121178431Y-118283490D01*
X121214454Y-118402246D01*
X121285026Y-118534276D01*
X121334909Y-118595058D01*
X121380000Y-118650001D01*
X121408998Y-118673799D01*
X127462126Y-124726928D01*
X126047500Y-124726928D01*
X125923018Y-124739188D01*
X125803320Y-124775498D01*
X125693006Y-124834463D01*
X125596315Y-124913815D01*
X125516963Y-125010506D01*
X125472095Y-125094446D01*
X125346235Y-124991155D01*
X125070449Y-124843745D01*
X124771204Y-124752970D01*
X124460000Y-124722319D01*
X124148797Y-124752970D01*
X123849552Y-124843745D01*
X123573766Y-124991155D01*
X123332037Y-125189537D01*
X123190000Y-125362609D01*
X123047963Y-125189537D01*
X122806235Y-124991155D01*
X122530449Y-124843745D01*
X122231204Y-124752970D01*
X121920000Y-124722319D01*
X121608797Y-124752970D01*
X121410000Y-124813274D01*
X121410000Y-120687322D01*
X121413676Y-120649999D01*
X121410000Y-120612676D01*
X121410000Y-120612667D01*
X121399003Y-120501014D01*
X121355546Y-120357753D01*
X121284974Y-120225724D01*
X121190001Y-120109999D01*
X121161004Y-120086202D01*
X119943804Y-118869003D01*
X119920001Y-118839999D01*
X119804276Y-118745026D01*
X119672247Y-118674454D01*
X119528986Y-118630997D01*
X119417333Y-118620000D01*
X119417322Y-118620000D01*
X119380000Y-118616324D01*
X119342678Y-118620000D01*
X115472341Y-118620000D01*
X115385120Y-118489465D01*
X115190535Y-118294880D01*
X114961727Y-118141995D01*
X114884485Y-118110000D01*
X114961727Y-118078005D01*
X115190535Y-117925120D01*
X115385120Y-117730535D01*
X115538005Y-117501727D01*
X115643314Y-117247490D01*
X115697000Y-116977592D01*
X115697000Y-116702408D01*
X115643314Y-116432510D01*
X115538005Y-116178273D01*
X115385120Y-115949465D01*
X115190535Y-115754880D01*
X114961727Y-115601995D01*
X114884485Y-115570000D01*
X114961727Y-115538005D01*
X115190535Y-115385120D01*
X115385120Y-115190535D01*
X115538005Y-114961727D01*
X115643314Y-114707490D01*
X115697000Y-114437592D01*
X115697000Y-114162408D01*
X115643314Y-113892510D01*
X115538005Y-113638273D01*
X115385120Y-113409465D01*
X115190535Y-113214880D01*
X114961727Y-113061995D01*
X114884485Y-113030000D01*
X114961727Y-112998005D01*
X115190535Y-112845120D01*
X115385120Y-112650535D01*
X115538005Y-112421727D01*
X115643314Y-112167490D01*
X115697000Y-111897592D01*
X115697000Y-111622408D01*
X115643314Y-111352510D01*
X115538005Y-111098273D01*
X115385120Y-110869465D01*
X115190535Y-110674880D01*
X114961727Y-110521995D01*
X114884485Y-110490000D01*
X114961727Y-110458005D01*
X115190535Y-110305120D01*
X115385120Y-110110535D01*
X115538005Y-109881727D01*
X115643314Y-109627490D01*
X115697000Y-109357592D01*
X115697000Y-109082408D01*
X115643314Y-108812510D01*
X115538005Y-108558273D01*
X115385120Y-108329465D01*
X115190535Y-108134880D01*
X114961727Y-107981995D01*
X114884485Y-107950000D01*
X114961727Y-107918005D01*
X115190535Y-107765120D01*
X115385120Y-107570535D01*
X115538005Y-107341727D01*
X115643314Y-107087490D01*
X115697000Y-106817592D01*
X115697000Y-106542408D01*
X115643314Y-106272510D01*
X115538005Y-106018273D01*
X115385120Y-105789465D01*
X115190535Y-105594880D01*
X114961727Y-105441995D01*
X114884485Y-105410000D01*
X114961727Y-105378005D01*
X115190535Y-105225120D01*
X115385120Y-105030535D01*
X115538005Y-104801727D01*
X115643314Y-104547490D01*
X115697000Y-104277592D01*
X115697000Y-104002408D01*
X115643314Y-103732510D01*
X115538005Y-103478273D01*
X115385120Y-103249465D01*
X115190535Y-103054880D01*
X114961727Y-102901995D01*
X114884485Y-102870000D01*
X114961727Y-102838005D01*
X115190535Y-102685120D01*
X115385120Y-102490535D01*
X115538005Y-102261727D01*
X115643314Y-102007490D01*
X115697000Y-101737592D01*
X115697000Y-101462408D01*
X115643314Y-101192510D01*
X115538005Y-100938273D01*
X115385120Y-100709465D01*
X115190535Y-100514880D01*
X114961727Y-100361995D01*
X114707490Y-100256686D01*
X114437592Y-100203000D01*
X114162408Y-100203000D01*
X113892510Y-100256686D01*
X113690000Y-100340569D01*
X113690000Y-97942000D01*
X123233198Y-97942000D01*
X123150198Y-98025000D01*
G37*
X123150198Y-98025000D02*
X123088061Y-98025000D01*
X122888102Y-98064774D01*
X122699744Y-98142795D01*
X122530226Y-98256063D01*
X122386063Y-98400226D01*
X122272795Y-98569744D01*
X122194774Y-98758102D01*
X122155000Y-98958061D01*
X122155000Y-99161939D01*
X122194774Y-99361898D01*
X122272795Y-99550256D01*
X122386063Y-99719774D01*
X122530226Y-99863937D01*
X122699744Y-99977205D01*
X122888102Y-100055226D01*
X123088061Y-100095000D01*
X123291939Y-100095000D01*
X123491898Y-100055226D01*
X123680256Y-99977205D01*
X123849774Y-99863937D01*
X123993937Y-99719774D01*
X124107205Y-99550256D01*
X124185226Y-99361898D01*
X124225000Y-99161939D01*
X124225000Y-99099802D01*
X124266802Y-99058000D01*
X125415199Y-99058000D01*
X125928201Y-99571002D01*
X125951999Y-99600001D01*
X126067724Y-99694974D01*
X126199753Y-99765546D01*
X126343014Y-99809003D01*
X126454667Y-99820000D01*
X126454675Y-99820000D01*
X126492000Y-99823676D01*
X126529325Y-99820000D01*
X128272001Y-99820000D01*
X128272000Y-105372667D01*
X128268323Y-105410000D01*
X128282997Y-105558986D01*
X128326454Y-105702247D01*
X128397026Y-105834276D01*
X128491999Y-105950001D01*
X128607724Y-106044974D01*
X128739753Y-106115546D01*
X128883014Y-106159003D01*
X128984484Y-106168997D01*
X129032000Y-106173677D01*
X129069333Y-106170000D01*
X131320000Y-106170000D01*
X131320000Y-106642667D01*
X131316323Y-106680000D01*
X131330997Y-106828986D01*
X131374454Y-106972247D01*
X131445026Y-107104276D01*
X131516200Y-107191002D01*
X131539999Y-107220001D01*
X131655724Y-107314974D01*
X131787753Y-107385546D01*
X131931014Y-107429003D01*
X132080000Y-107443677D01*
X132117333Y-107440000D01*
X134305199Y-107440000D01*
X134780477Y-107915278D01*
X134764744Y-107921795D01*
X134595226Y-108035063D01*
X134451063Y-108179226D01*
X134337795Y-108348744D01*
X134259774Y-108537102D01*
X134220000Y-108737061D01*
X134220000Y-108940939D01*
X134259774Y-109140898D01*
X134337795Y-109329256D01*
X134451063Y-109498774D01*
X134495001Y-109542712D01*
X134495000Y-110895307D01*
X134491324Y-110932630D01*
X134495000Y-110969952D01*
X134495000Y-110969962D01*
X134505997Y-111081615D01*
X134547975Y-111219999D01*
X134549454Y-111224876D01*
X134620026Y-111356906D01*
X134659871Y-111405456D01*
X134714999Y-111472631D01*
X134744002Y-111496433D01*
X135173006Y-111925438D01*
X135103226Y-111972063D01*
X134959063Y-112116226D01*
X134845795Y-112285744D01*
X134767774Y-112474102D01*
X134728000Y-112674061D01*
X134728000Y-112877939D01*
X134767774Y-113077898D01*
X134845795Y-113266256D01*
X134959063Y-113435774D01*
X135003000Y-113479711D01*
X135003001Y-117288169D01*
X134976226Y-117306059D01*
X134832063Y-117450222D01*
X134718795Y-117619740D01*
X134640774Y-117808098D01*
X134618000Y-117922592D01*
X134618000Y-116115322D01*
X134621676Y-116077999D01*
X134618000Y-116040676D01*
X134618000Y-116040667D01*
X134607003Y-115929014D01*
X134563546Y-115785753D01*
X134492974Y-115653724D01*
X134398001Y-115537999D01*
X134369003Y-115514201D01*
X133142346Y-114287545D01*
X133108705Y-114249370D01*
X133059827Y-114212051D01*
X133012276Y-114173026D01*
X133000406Y-114166681D01*
X132989717Y-114158520D01*
X132934503Y-114131455D01*
X132880246Y-114102454D01*
X132867372Y-114098549D01*
X132855291Y-114092627D01*
X132795831Y-114076848D01*
X132736985Y-114058998D01*
X132723598Y-114057680D01*
X132710592Y-114054228D01*
X132649195Y-114050351D01*
X132588000Y-114044324D01*
X132537378Y-114049310D01*
X131521663Y-114084999D01*
X129063712Y-114084999D01*
X129019775Y-114041062D01*
X128850257Y-113927794D01*
X128661899Y-113849773D01*
X128461940Y-113809999D01*
X128258062Y-113809999D01*
X128058103Y-113849773D01*
X127869745Y-113927794D01*
X127700227Y-114041062D01*
X127556064Y-114185225D01*
X127442796Y-114354743D01*
X127364775Y-114543101D01*
X127325001Y-114743060D01*
X127325001Y-114946938D01*
X127364775Y-115146897D01*
X127442796Y-115335255D01*
X127556064Y-115504773D01*
X127700227Y-115648936D01*
X127869745Y-115762204D01*
X128058103Y-115840225D01*
X128258062Y-115879999D01*
X128461940Y-115879999D01*
X128661899Y-115840225D01*
X128850257Y-115762204D01*
X129019775Y-115648936D01*
X129063712Y-115604999D01*
X131236124Y-115604999D01*
X131162795Y-115714744D01*
X131084774Y-115903102D01*
X131045000Y-116103061D01*
X131045000Y-116306939D01*
X131084774Y-116506898D01*
X131162795Y-116695256D01*
X131195000Y-116743455D01*
X131195001Y-118066521D01*
X131190719Y-118110000D01*
X131207805Y-118283490D01*
X131258412Y-118450313D01*
X131340590Y-118604059D01*
X131423468Y-118705046D01*
X131423471Y-118705049D01*
X131451184Y-118738817D01*
X131484951Y-118766529D01*
X132084000Y-119365579D01*
X132084001Y-128734521D01*
X132079719Y-128778000D01*
X132096805Y-128951490D01*
X132147412Y-129118313D01*
X132229590Y-129272059D01*
X132312468Y-129373046D01*
X132312471Y-129373049D01*
X132340184Y-129406817D01*
X132373951Y-129434529D01*
X133735000Y-130795579D01*
X133735001Y-132790343D01*
X133673368Y-132831525D01*
X133466525Y-133038368D01*
X133344805Y-133220534D01*
X133275178Y-133103645D01*
X133080269Y-132887412D01*
X132846920Y-132713359D01*
X132584099Y-132588175D01*
X132436890Y-132543524D01*
X132207000Y-132664845D01*
X132207000Y-133858000D01*
X132227000Y-133858000D01*
X132227000Y-134112000D01*
X132207000Y-134112000D01*
X132207000Y-134132000D01*
X131953000Y-134132000D01*
X131953000Y-134112000D01*
X131933000Y-134112000D01*
X131933000Y-133858000D01*
X131953000Y-133858000D01*
X131953000Y-132785798D01*
X132012589Y-132674314D01*
X132063195Y-132507490D01*
X132064851Y-132490672D01*
X132076000Y-132377477D01*
X132076000Y-132377469D01*
X132080281Y-132334000D01*
X132076000Y-132290531D01*
X132076000Y-124756055D01*
X132080281Y-124712589D01*
X132076000Y-124669123D01*
X132076000Y-124669113D01*
X132063195Y-124539100D01*
X132012589Y-124372277D01*
X131930411Y-124218531D01*
X131819817Y-124083773D01*
X131786051Y-124056062D01*
X126615000Y-118885012D01*
X126615000Y-115428784D01*
X126619281Y-115385315D01*
X126615000Y-115341846D01*
X126615000Y-115341838D01*
X126602195Y-115211825D01*
X126579571Y-115137246D01*
X126551589Y-115045001D01*
X126469411Y-114891256D01*
X126386532Y-114790268D01*
X126386530Y-114790266D01*
X126358817Y-114756498D01*
X126325050Y-114728786D01*
X124176642Y-112580379D01*
X124107205Y-112412744D01*
X123993937Y-112243226D01*
X123849774Y-112099063D01*
X123680256Y-111985795D01*
X123491898Y-111907774D01*
X123291939Y-111868000D01*
X123088061Y-111868000D01*
X122888102Y-111907774D01*
X122699744Y-111985795D01*
X122680000Y-111998987D01*
X122680000Y-102303711D01*
X122723937Y-102259774D01*
X122837205Y-102090256D01*
X122915226Y-101901898D01*
X122955000Y-101701939D01*
X122955000Y-101498061D01*
X122915226Y-101298102D01*
X122837205Y-101109744D01*
X122723937Y-100940226D01*
X122579774Y-100796063D01*
X122410256Y-100682795D01*
X122221898Y-100604774D01*
X122021939Y-100565000D01*
X121959802Y-100565000D01*
X121161002Y-99766201D01*
X121074276Y-99695026D01*
X120942246Y-99624454D01*
X120798985Y-99580998D01*
X120650000Y-99566324D01*
X120501015Y-99580998D01*
X120357754Y-99624454D01*
X120225724Y-99695026D01*
X120109999Y-99789999D01*
X120015026Y-99905724D01*
X119944454Y-100037754D01*
X119900998Y-100181015D01*
X119886324Y-100330000D01*
X119900998Y-100478985D01*
X119944454Y-100622246D01*
X120015026Y-100754276D01*
X120086201Y-100841002D01*
X120885000Y-101639802D01*
X120885000Y-101701939D01*
X120924774Y-101901898D01*
X121002795Y-102090256D01*
X121116063Y-102259774D01*
X121160000Y-102303711D01*
X121160001Y-118072667D01*
X121156324Y-118110000D01*
X121160001Y-118147333D01*
X121170998Y-118258986D01*
X121178431Y-118283490D01*
X121214454Y-118402246D01*
X121285026Y-118534276D01*
X121334909Y-118595058D01*
X121380000Y-118650001D01*
X121408998Y-118673799D01*
X127462126Y-124726928D01*
X126047500Y-124726928D01*
X125923018Y-124739188D01*
X125803320Y-124775498D01*
X125693006Y-124834463D01*
X125596315Y-124913815D01*
X125516963Y-125010506D01*
X125472095Y-125094446D01*
X125346235Y-124991155D01*
X125070449Y-124843745D01*
X124771204Y-124752970D01*
X124460000Y-124722319D01*
X124148797Y-124752970D01*
X123849552Y-124843745D01*
X123573766Y-124991155D01*
X123332037Y-125189537D01*
X123190000Y-125362609D01*
X123047963Y-125189537D01*
X122806235Y-124991155D01*
X122530449Y-124843745D01*
X122231204Y-124752970D01*
X121920000Y-124722319D01*
X121608797Y-124752970D01*
X121410000Y-124813274D01*
X121410000Y-120687322D01*
X121413676Y-120649999D01*
X121410000Y-120612676D01*
X121410000Y-120612667D01*
X121399003Y-120501014D01*
X121355546Y-120357753D01*
X121284974Y-120225724D01*
X121190001Y-120109999D01*
X121161004Y-120086202D01*
X119943804Y-118869003D01*
X119920001Y-118839999D01*
X119804276Y-118745026D01*
X119672247Y-118674454D01*
X119528986Y-118630997D01*
X119417333Y-118620000D01*
X119417322Y-118620000D01*
X119380000Y-118616324D01*
X119342678Y-118620000D01*
X115472341Y-118620000D01*
X115385120Y-118489465D01*
X115190535Y-118294880D01*
X114961727Y-118141995D01*
X114884485Y-118110000D01*
X114961727Y-118078005D01*
X115190535Y-117925120D01*
X115385120Y-117730535D01*
X115538005Y-117501727D01*
X115643314Y-117247490D01*
X115697000Y-116977592D01*
X115697000Y-116702408D01*
X115643314Y-116432510D01*
X115538005Y-116178273D01*
X115385120Y-115949465D01*
X115190535Y-115754880D01*
X114961727Y-115601995D01*
X114884485Y-115570000D01*
X114961727Y-115538005D01*
X115190535Y-115385120D01*
X115385120Y-115190535D01*
X115538005Y-114961727D01*
X115643314Y-114707490D01*
X115697000Y-114437592D01*
X115697000Y-114162408D01*
X115643314Y-113892510D01*
X115538005Y-113638273D01*
X115385120Y-113409465D01*
X115190535Y-113214880D01*
X114961727Y-113061995D01*
X114884485Y-113030000D01*
X114961727Y-112998005D01*
X115190535Y-112845120D01*
X115385120Y-112650535D01*
X115538005Y-112421727D01*
X115643314Y-112167490D01*
X115697000Y-111897592D01*
X115697000Y-111622408D01*
X115643314Y-111352510D01*
X115538005Y-111098273D01*
X115385120Y-110869465D01*
X115190535Y-110674880D01*
X114961727Y-110521995D01*
X114884485Y-110490000D01*
X114961727Y-110458005D01*
X115190535Y-110305120D01*
X115385120Y-110110535D01*
X115538005Y-109881727D01*
X115643314Y-109627490D01*
X115697000Y-109357592D01*
X115697000Y-109082408D01*
X115643314Y-108812510D01*
X115538005Y-108558273D01*
X115385120Y-108329465D01*
X115190535Y-108134880D01*
X114961727Y-107981995D01*
X114884485Y-107950000D01*
X114961727Y-107918005D01*
X115190535Y-107765120D01*
X115385120Y-107570535D01*
X115538005Y-107341727D01*
X115643314Y-107087490D01*
X115697000Y-106817592D01*
X115697000Y-106542408D01*
X115643314Y-106272510D01*
X115538005Y-106018273D01*
X115385120Y-105789465D01*
X115190535Y-105594880D01*
X114961727Y-105441995D01*
X114884485Y-105410000D01*
X114961727Y-105378005D01*
X115190535Y-105225120D01*
X115385120Y-105030535D01*
X115538005Y-104801727D01*
X115643314Y-104547490D01*
X115697000Y-104277592D01*
X115697000Y-104002408D01*
X115643314Y-103732510D01*
X115538005Y-103478273D01*
X115385120Y-103249465D01*
X115190535Y-103054880D01*
X114961727Y-102901995D01*
X114884485Y-102870000D01*
X114961727Y-102838005D01*
X115190535Y-102685120D01*
X115385120Y-102490535D01*
X115538005Y-102261727D01*
X115643314Y-102007490D01*
X115697000Y-101737592D01*
X115697000Y-101462408D01*
X115643314Y-101192510D01*
X115538005Y-100938273D01*
X115385120Y-100709465D01*
X115190535Y-100514880D01*
X114961727Y-100361995D01*
X114707490Y-100256686D01*
X114437592Y-100203000D01*
X114162408Y-100203000D01*
X113892510Y-100256686D01*
X113690000Y-100340569D01*
X113690000Y-97942000D01*
X123233198Y-97942000D01*
X123150198Y-98025000D01*
M02*
