G04 #@! TF.GenerationSoftware,KiCad,Pcbnew,5.1.5+dfsg1-2build2*
G04 #@! TF.CreationDate,2020-08-03T23:06:02+02:00*
G04 #@! TF.ProjectId,transistor_board,7472616e-7369-4737-946f-725f626f6172,rev?*
G04 #@! TF.SameCoordinates,Original*
G04 #@! TF.FileFunction,Copper,L1,Top*
G04 #@! TF.FilePolarity,Positive*
%FSLAX46Y46*%
G04 Gerber Fmt 4.6, Leading zero omitted, Abs format (unit mm)*
G04 Created by KiCad (PCBNEW 5.1.5+dfsg1-2build2) date 2020-08-03 23:06:02*
%MOMM*%
%LPD*%
G04 APERTURE LIST*
%ADD10O,1.905000X2.000000*%
%ADD11R,1.905000X2.000000*%
%ADD12C,1.524000*%
%ADD13C,0.100000*%
%ADD14R,2.000000X1.500000*%
%ADD15O,1.700000X1.700000*%
%ADD16R,1.700000X1.700000*%
%ADD17R,0.900000X0.800000*%
%ADD18R,1.300000X0.600000*%
%ADD19C,0.800000*%
%ADD20C,0.250000*%
%ADD21C,0.500000*%
%ADD22C,0.254000*%
G04 APERTURE END LIST*
D10*
X121920000Y-126365000D03*
X124460000Y-126365000D03*
D11*
X127000000Y-126365000D03*
D12*
X114300000Y-119380000D03*
X114300000Y-116840000D03*
X114300000Y-114300000D03*
X114300000Y-111760000D03*
X114300000Y-109220000D03*
X114300000Y-106680000D03*
X114300000Y-104140000D03*
X114300000Y-101600000D03*
X137160000Y-101600000D03*
X137160000Y-104140000D03*
X137160000Y-106680000D03*
X137160000Y-109220000D03*
X137160000Y-111760000D03*
X137160000Y-114300000D03*
X137160000Y-116840000D03*
X137160000Y-119380000D03*
G04 #@! TA.AperFunction,SMDPad,CuDef*
D13*
G36*
X117772642Y-121856174D02*
G01*
X117796303Y-121859684D01*
X117819507Y-121865496D01*
X117842029Y-121873554D01*
X117863653Y-121883782D01*
X117884170Y-121896079D01*
X117903383Y-121910329D01*
X117921107Y-121926393D01*
X117937171Y-121944117D01*
X117951421Y-121963330D01*
X117963718Y-121983847D01*
X117973946Y-122005471D01*
X117982004Y-122027993D01*
X117987816Y-122051197D01*
X117991326Y-122074858D01*
X117992500Y-122098750D01*
X117992500Y-123011250D01*
X117991326Y-123035142D01*
X117987816Y-123058803D01*
X117982004Y-123082007D01*
X117973946Y-123104529D01*
X117963718Y-123126153D01*
X117951421Y-123146670D01*
X117937171Y-123165883D01*
X117921107Y-123183607D01*
X117903383Y-123199671D01*
X117884170Y-123213921D01*
X117863653Y-123226218D01*
X117842029Y-123236446D01*
X117819507Y-123244504D01*
X117796303Y-123250316D01*
X117772642Y-123253826D01*
X117748750Y-123255000D01*
X117261250Y-123255000D01*
X117237358Y-123253826D01*
X117213697Y-123250316D01*
X117190493Y-123244504D01*
X117167971Y-123236446D01*
X117146347Y-123226218D01*
X117125830Y-123213921D01*
X117106617Y-123199671D01*
X117088893Y-123183607D01*
X117072829Y-123165883D01*
X117058579Y-123146670D01*
X117046282Y-123126153D01*
X117036054Y-123104529D01*
X117027996Y-123082007D01*
X117022184Y-123058803D01*
X117018674Y-123035142D01*
X117017500Y-123011250D01*
X117017500Y-122098750D01*
X117018674Y-122074858D01*
X117022184Y-122051197D01*
X117027996Y-122027993D01*
X117036054Y-122005471D01*
X117046282Y-121983847D01*
X117058579Y-121963330D01*
X117072829Y-121944117D01*
X117088893Y-121926393D01*
X117106617Y-121910329D01*
X117125830Y-121896079D01*
X117146347Y-121883782D01*
X117167971Y-121873554D01*
X117190493Y-121865496D01*
X117213697Y-121859684D01*
X117237358Y-121856174D01*
X117261250Y-121855000D01*
X117748750Y-121855000D01*
X117772642Y-121856174D01*
G37*
G04 #@! TD.AperFunction*
G04 #@! TA.AperFunction,SMDPad,CuDef*
G36*
X119647642Y-121856174D02*
G01*
X119671303Y-121859684D01*
X119694507Y-121865496D01*
X119717029Y-121873554D01*
X119738653Y-121883782D01*
X119759170Y-121896079D01*
X119778383Y-121910329D01*
X119796107Y-121926393D01*
X119812171Y-121944117D01*
X119826421Y-121963330D01*
X119838718Y-121983847D01*
X119848946Y-122005471D01*
X119857004Y-122027993D01*
X119862816Y-122051197D01*
X119866326Y-122074858D01*
X119867500Y-122098750D01*
X119867500Y-123011250D01*
X119866326Y-123035142D01*
X119862816Y-123058803D01*
X119857004Y-123082007D01*
X119848946Y-123104529D01*
X119838718Y-123126153D01*
X119826421Y-123146670D01*
X119812171Y-123165883D01*
X119796107Y-123183607D01*
X119778383Y-123199671D01*
X119759170Y-123213921D01*
X119738653Y-123226218D01*
X119717029Y-123236446D01*
X119694507Y-123244504D01*
X119671303Y-123250316D01*
X119647642Y-123253826D01*
X119623750Y-123255000D01*
X119136250Y-123255000D01*
X119112358Y-123253826D01*
X119088697Y-123250316D01*
X119065493Y-123244504D01*
X119042971Y-123236446D01*
X119021347Y-123226218D01*
X119000830Y-123213921D01*
X118981617Y-123199671D01*
X118963893Y-123183607D01*
X118947829Y-123165883D01*
X118933579Y-123146670D01*
X118921282Y-123126153D01*
X118911054Y-123104529D01*
X118902996Y-123082007D01*
X118897184Y-123058803D01*
X118893674Y-123035142D01*
X118892500Y-123011250D01*
X118892500Y-122098750D01*
X118893674Y-122074858D01*
X118897184Y-122051197D01*
X118902996Y-122027993D01*
X118911054Y-122005471D01*
X118921282Y-121983847D01*
X118933579Y-121963330D01*
X118947829Y-121944117D01*
X118963893Y-121926393D01*
X118981617Y-121910329D01*
X119000830Y-121896079D01*
X119021347Y-121883782D01*
X119042971Y-121873554D01*
X119065493Y-121865496D01*
X119088697Y-121859684D01*
X119112358Y-121856174D01*
X119136250Y-121855000D01*
X119623750Y-121855000D01*
X119647642Y-121856174D01*
G37*
G04 #@! TD.AperFunction*
G04 #@! TA.AperFunction,SMDPad,CuDef*
G36*
X134252642Y-121856174D02*
G01*
X134276303Y-121859684D01*
X134299507Y-121865496D01*
X134322029Y-121873554D01*
X134343653Y-121883782D01*
X134364170Y-121896079D01*
X134383383Y-121910329D01*
X134401107Y-121926393D01*
X134417171Y-121944117D01*
X134431421Y-121963330D01*
X134443718Y-121983847D01*
X134453946Y-122005471D01*
X134462004Y-122027993D01*
X134467816Y-122051197D01*
X134471326Y-122074858D01*
X134472500Y-122098750D01*
X134472500Y-123011250D01*
X134471326Y-123035142D01*
X134467816Y-123058803D01*
X134462004Y-123082007D01*
X134453946Y-123104529D01*
X134443718Y-123126153D01*
X134431421Y-123146670D01*
X134417171Y-123165883D01*
X134401107Y-123183607D01*
X134383383Y-123199671D01*
X134364170Y-123213921D01*
X134343653Y-123226218D01*
X134322029Y-123236446D01*
X134299507Y-123244504D01*
X134276303Y-123250316D01*
X134252642Y-123253826D01*
X134228750Y-123255000D01*
X133741250Y-123255000D01*
X133717358Y-123253826D01*
X133693697Y-123250316D01*
X133670493Y-123244504D01*
X133647971Y-123236446D01*
X133626347Y-123226218D01*
X133605830Y-123213921D01*
X133586617Y-123199671D01*
X133568893Y-123183607D01*
X133552829Y-123165883D01*
X133538579Y-123146670D01*
X133526282Y-123126153D01*
X133516054Y-123104529D01*
X133507996Y-123082007D01*
X133502184Y-123058803D01*
X133498674Y-123035142D01*
X133497500Y-123011250D01*
X133497500Y-122098750D01*
X133498674Y-122074858D01*
X133502184Y-122051197D01*
X133507996Y-122027993D01*
X133516054Y-122005471D01*
X133526282Y-121983847D01*
X133538579Y-121963330D01*
X133552829Y-121944117D01*
X133568893Y-121926393D01*
X133586617Y-121910329D01*
X133605830Y-121896079D01*
X133626347Y-121883782D01*
X133647971Y-121873554D01*
X133670493Y-121865496D01*
X133693697Y-121859684D01*
X133717358Y-121856174D01*
X133741250Y-121855000D01*
X134228750Y-121855000D01*
X134252642Y-121856174D01*
G37*
G04 #@! TD.AperFunction*
G04 #@! TA.AperFunction,SMDPad,CuDef*
G36*
X132377642Y-121856174D02*
G01*
X132401303Y-121859684D01*
X132424507Y-121865496D01*
X132447029Y-121873554D01*
X132468653Y-121883782D01*
X132489170Y-121896079D01*
X132508383Y-121910329D01*
X132526107Y-121926393D01*
X132542171Y-121944117D01*
X132556421Y-121963330D01*
X132568718Y-121983847D01*
X132578946Y-122005471D01*
X132587004Y-122027993D01*
X132592816Y-122051197D01*
X132596326Y-122074858D01*
X132597500Y-122098750D01*
X132597500Y-123011250D01*
X132596326Y-123035142D01*
X132592816Y-123058803D01*
X132587004Y-123082007D01*
X132578946Y-123104529D01*
X132568718Y-123126153D01*
X132556421Y-123146670D01*
X132542171Y-123165883D01*
X132526107Y-123183607D01*
X132508383Y-123199671D01*
X132489170Y-123213921D01*
X132468653Y-123226218D01*
X132447029Y-123236446D01*
X132424507Y-123244504D01*
X132401303Y-123250316D01*
X132377642Y-123253826D01*
X132353750Y-123255000D01*
X131866250Y-123255000D01*
X131842358Y-123253826D01*
X131818697Y-123250316D01*
X131795493Y-123244504D01*
X131772971Y-123236446D01*
X131751347Y-123226218D01*
X131730830Y-123213921D01*
X131711617Y-123199671D01*
X131693893Y-123183607D01*
X131677829Y-123165883D01*
X131663579Y-123146670D01*
X131651282Y-123126153D01*
X131641054Y-123104529D01*
X131632996Y-123082007D01*
X131627184Y-123058803D01*
X131623674Y-123035142D01*
X131622500Y-123011250D01*
X131622500Y-122098750D01*
X131623674Y-122074858D01*
X131627184Y-122051197D01*
X131632996Y-122027993D01*
X131641054Y-122005471D01*
X131651282Y-121983847D01*
X131663579Y-121963330D01*
X131677829Y-121944117D01*
X131693893Y-121926393D01*
X131711617Y-121910329D01*
X131730830Y-121896079D01*
X131751347Y-121883782D01*
X131772971Y-121873554D01*
X131795493Y-121865496D01*
X131818697Y-121859684D01*
X131842358Y-121856174D01*
X131866250Y-121855000D01*
X132353750Y-121855000D01*
X132377642Y-121856174D01*
G37*
G04 #@! TD.AperFunction*
G04 #@! TA.AperFunction,SMDPad,CuDef*
G36*
X124395142Y-121856174D02*
G01*
X124418803Y-121859684D01*
X124442007Y-121865496D01*
X124464529Y-121873554D01*
X124486153Y-121883782D01*
X124506670Y-121896079D01*
X124525883Y-121910329D01*
X124543607Y-121926393D01*
X124559671Y-121944117D01*
X124573921Y-121963330D01*
X124586218Y-121983847D01*
X124596446Y-122005471D01*
X124604504Y-122027993D01*
X124610316Y-122051197D01*
X124613826Y-122074858D01*
X124615000Y-122098750D01*
X124615000Y-123011250D01*
X124613826Y-123035142D01*
X124610316Y-123058803D01*
X124604504Y-123082007D01*
X124596446Y-123104529D01*
X124586218Y-123126153D01*
X124573921Y-123146670D01*
X124559671Y-123165883D01*
X124543607Y-123183607D01*
X124525883Y-123199671D01*
X124506670Y-123213921D01*
X124486153Y-123226218D01*
X124464529Y-123236446D01*
X124442007Y-123244504D01*
X124418803Y-123250316D01*
X124395142Y-123253826D01*
X124371250Y-123255000D01*
X123883750Y-123255000D01*
X123859858Y-123253826D01*
X123836197Y-123250316D01*
X123812993Y-123244504D01*
X123790471Y-123236446D01*
X123768847Y-123226218D01*
X123748330Y-123213921D01*
X123729117Y-123199671D01*
X123711393Y-123183607D01*
X123695329Y-123165883D01*
X123681079Y-123146670D01*
X123668782Y-123126153D01*
X123658554Y-123104529D01*
X123650496Y-123082007D01*
X123644684Y-123058803D01*
X123641174Y-123035142D01*
X123640000Y-123011250D01*
X123640000Y-122098750D01*
X123641174Y-122074858D01*
X123644684Y-122051197D01*
X123650496Y-122027993D01*
X123658554Y-122005471D01*
X123668782Y-121983847D01*
X123681079Y-121963330D01*
X123695329Y-121944117D01*
X123711393Y-121926393D01*
X123729117Y-121910329D01*
X123748330Y-121896079D01*
X123768847Y-121883782D01*
X123790471Y-121873554D01*
X123812993Y-121865496D01*
X123836197Y-121859684D01*
X123859858Y-121856174D01*
X123883750Y-121855000D01*
X124371250Y-121855000D01*
X124395142Y-121856174D01*
G37*
G04 #@! TD.AperFunction*
G04 #@! TA.AperFunction,SMDPad,CuDef*
G36*
X122520142Y-121856174D02*
G01*
X122543803Y-121859684D01*
X122567007Y-121865496D01*
X122589529Y-121873554D01*
X122611153Y-121883782D01*
X122631670Y-121896079D01*
X122650883Y-121910329D01*
X122668607Y-121926393D01*
X122684671Y-121944117D01*
X122698921Y-121963330D01*
X122711218Y-121983847D01*
X122721446Y-122005471D01*
X122729504Y-122027993D01*
X122735316Y-122051197D01*
X122738826Y-122074858D01*
X122740000Y-122098750D01*
X122740000Y-123011250D01*
X122738826Y-123035142D01*
X122735316Y-123058803D01*
X122729504Y-123082007D01*
X122721446Y-123104529D01*
X122711218Y-123126153D01*
X122698921Y-123146670D01*
X122684671Y-123165883D01*
X122668607Y-123183607D01*
X122650883Y-123199671D01*
X122631670Y-123213921D01*
X122611153Y-123226218D01*
X122589529Y-123236446D01*
X122567007Y-123244504D01*
X122543803Y-123250316D01*
X122520142Y-123253826D01*
X122496250Y-123255000D01*
X122008750Y-123255000D01*
X121984858Y-123253826D01*
X121961197Y-123250316D01*
X121937993Y-123244504D01*
X121915471Y-123236446D01*
X121893847Y-123226218D01*
X121873330Y-123213921D01*
X121854117Y-123199671D01*
X121836393Y-123183607D01*
X121820329Y-123165883D01*
X121806079Y-123146670D01*
X121793782Y-123126153D01*
X121783554Y-123104529D01*
X121775496Y-123082007D01*
X121769684Y-123058803D01*
X121766174Y-123035142D01*
X121765000Y-123011250D01*
X121765000Y-122098750D01*
X121766174Y-122074858D01*
X121769684Y-122051197D01*
X121775496Y-122027993D01*
X121783554Y-122005471D01*
X121793782Y-121983847D01*
X121806079Y-121963330D01*
X121820329Y-121944117D01*
X121836393Y-121926393D01*
X121854117Y-121910329D01*
X121873330Y-121896079D01*
X121893847Y-121883782D01*
X121915471Y-121873554D01*
X121937993Y-121865496D01*
X121961197Y-121859684D01*
X121984858Y-121856174D01*
X122008750Y-121855000D01*
X122496250Y-121855000D01*
X122520142Y-121856174D01*
G37*
G04 #@! TD.AperFunction*
G04 #@! TA.AperFunction,SMDPad,CuDef*
G36*
X129475142Y-121856174D02*
G01*
X129498803Y-121859684D01*
X129522007Y-121865496D01*
X129544529Y-121873554D01*
X129566153Y-121883782D01*
X129586670Y-121896079D01*
X129605883Y-121910329D01*
X129623607Y-121926393D01*
X129639671Y-121944117D01*
X129653921Y-121963330D01*
X129666218Y-121983847D01*
X129676446Y-122005471D01*
X129684504Y-122027993D01*
X129690316Y-122051197D01*
X129693826Y-122074858D01*
X129695000Y-122098750D01*
X129695000Y-123011250D01*
X129693826Y-123035142D01*
X129690316Y-123058803D01*
X129684504Y-123082007D01*
X129676446Y-123104529D01*
X129666218Y-123126153D01*
X129653921Y-123146670D01*
X129639671Y-123165883D01*
X129623607Y-123183607D01*
X129605883Y-123199671D01*
X129586670Y-123213921D01*
X129566153Y-123226218D01*
X129544529Y-123236446D01*
X129522007Y-123244504D01*
X129498803Y-123250316D01*
X129475142Y-123253826D01*
X129451250Y-123255000D01*
X128963750Y-123255000D01*
X128939858Y-123253826D01*
X128916197Y-123250316D01*
X128892993Y-123244504D01*
X128870471Y-123236446D01*
X128848847Y-123226218D01*
X128828330Y-123213921D01*
X128809117Y-123199671D01*
X128791393Y-123183607D01*
X128775329Y-123165883D01*
X128761079Y-123146670D01*
X128748782Y-123126153D01*
X128738554Y-123104529D01*
X128730496Y-123082007D01*
X128724684Y-123058803D01*
X128721174Y-123035142D01*
X128720000Y-123011250D01*
X128720000Y-122098750D01*
X128721174Y-122074858D01*
X128724684Y-122051197D01*
X128730496Y-122027993D01*
X128738554Y-122005471D01*
X128748782Y-121983847D01*
X128761079Y-121963330D01*
X128775329Y-121944117D01*
X128791393Y-121926393D01*
X128809117Y-121910329D01*
X128828330Y-121896079D01*
X128848847Y-121883782D01*
X128870471Y-121873554D01*
X128892993Y-121865496D01*
X128916197Y-121859684D01*
X128939858Y-121856174D01*
X128963750Y-121855000D01*
X129451250Y-121855000D01*
X129475142Y-121856174D01*
G37*
G04 #@! TD.AperFunction*
G04 #@! TA.AperFunction,SMDPad,CuDef*
G36*
X127600142Y-121856174D02*
G01*
X127623803Y-121859684D01*
X127647007Y-121865496D01*
X127669529Y-121873554D01*
X127691153Y-121883782D01*
X127711670Y-121896079D01*
X127730883Y-121910329D01*
X127748607Y-121926393D01*
X127764671Y-121944117D01*
X127778921Y-121963330D01*
X127791218Y-121983847D01*
X127801446Y-122005471D01*
X127809504Y-122027993D01*
X127815316Y-122051197D01*
X127818826Y-122074858D01*
X127820000Y-122098750D01*
X127820000Y-123011250D01*
X127818826Y-123035142D01*
X127815316Y-123058803D01*
X127809504Y-123082007D01*
X127801446Y-123104529D01*
X127791218Y-123126153D01*
X127778921Y-123146670D01*
X127764671Y-123165883D01*
X127748607Y-123183607D01*
X127730883Y-123199671D01*
X127711670Y-123213921D01*
X127691153Y-123226218D01*
X127669529Y-123236446D01*
X127647007Y-123244504D01*
X127623803Y-123250316D01*
X127600142Y-123253826D01*
X127576250Y-123255000D01*
X127088750Y-123255000D01*
X127064858Y-123253826D01*
X127041197Y-123250316D01*
X127017993Y-123244504D01*
X126995471Y-123236446D01*
X126973847Y-123226218D01*
X126953330Y-123213921D01*
X126934117Y-123199671D01*
X126916393Y-123183607D01*
X126900329Y-123165883D01*
X126886079Y-123146670D01*
X126873782Y-123126153D01*
X126863554Y-123104529D01*
X126855496Y-123082007D01*
X126849684Y-123058803D01*
X126846174Y-123035142D01*
X126845000Y-123011250D01*
X126845000Y-122098750D01*
X126846174Y-122074858D01*
X126849684Y-122051197D01*
X126855496Y-122027993D01*
X126863554Y-122005471D01*
X126873782Y-121983847D01*
X126886079Y-121963330D01*
X126900329Y-121944117D01*
X126916393Y-121926393D01*
X126934117Y-121910329D01*
X126953330Y-121896079D01*
X126973847Y-121883782D01*
X126995471Y-121873554D01*
X127017993Y-121865496D01*
X127041197Y-121859684D01*
X127064858Y-121856174D01*
X127088750Y-121855000D01*
X127576250Y-121855000D01*
X127600142Y-121856174D01*
G37*
G04 #@! TD.AperFunction*
D14*
X118820000Y-117485000D03*
X118820000Y-112385000D03*
X127560000Y-112385000D03*
X127560000Y-117485000D03*
D15*
X137160000Y-126365000D03*
D16*
X134620000Y-126365000D03*
D15*
X114300000Y-133985000D03*
X116840000Y-133985000D03*
X119380000Y-133985000D03*
X121920000Y-133985000D03*
X124460000Y-133985000D03*
X127000000Y-133985000D03*
X129540000Y-133985000D03*
X132080000Y-133985000D03*
X134620000Y-133985000D03*
D16*
X137160000Y-133985000D03*
G04 #@! TA.AperFunction,SMDPad,CuDef*
D13*
G36*
X133529505Y-111361204D02*
G01*
X133553773Y-111364804D01*
X133577572Y-111370765D01*
X133600671Y-111379030D01*
X133622850Y-111389520D01*
X133643893Y-111402132D01*
X133663599Y-111416747D01*
X133681777Y-111433223D01*
X133698253Y-111451401D01*
X133712868Y-111471107D01*
X133725480Y-111492150D01*
X133735970Y-111514329D01*
X133744235Y-111537428D01*
X133750196Y-111561227D01*
X133753796Y-111585495D01*
X133755000Y-111609999D01*
X133755000Y-112460001D01*
X133753796Y-112484505D01*
X133750196Y-112508773D01*
X133744235Y-112532572D01*
X133735970Y-112555671D01*
X133725480Y-112577850D01*
X133712868Y-112598893D01*
X133698253Y-112618599D01*
X133681777Y-112636777D01*
X133663599Y-112653253D01*
X133643893Y-112667868D01*
X133622850Y-112680480D01*
X133600671Y-112690970D01*
X133577572Y-112699235D01*
X133553773Y-112705196D01*
X133529505Y-112708796D01*
X133505001Y-112710000D01*
X130654999Y-112710000D01*
X130630495Y-112708796D01*
X130606227Y-112705196D01*
X130582428Y-112699235D01*
X130559329Y-112690970D01*
X130537150Y-112680480D01*
X130516107Y-112667868D01*
X130496401Y-112653253D01*
X130478223Y-112636777D01*
X130461747Y-112618599D01*
X130447132Y-112598893D01*
X130434520Y-112577850D01*
X130424030Y-112555671D01*
X130415765Y-112532572D01*
X130409804Y-112508773D01*
X130406204Y-112484505D01*
X130405000Y-112460001D01*
X130405000Y-111609999D01*
X130406204Y-111585495D01*
X130409804Y-111561227D01*
X130415765Y-111537428D01*
X130424030Y-111514329D01*
X130434520Y-111492150D01*
X130447132Y-111471107D01*
X130461747Y-111451401D01*
X130478223Y-111433223D01*
X130496401Y-111416747D01*
X130516107Y-111402132D01*
X130537150Y-111389520D01*
X130559329Y-111379030D01*
X130582428Y-111370765D01*
X130606227Y-111364804D01*
X130630495Y-111361204D01*
X130654999Y-111360000D01*
X133505001Y-111360000D01*
X133529505Y-111361204D01*
G37*
G04 #@! TD.AperFunction*
G04 #@! TA.AperFunction,SMDPad,CuDef*
G36*
X133529505Y-117161204D02*
G01*
X133553773Y-117164804D01*
X133577572Y-117170765D01*
X133600671Y-117179030D01*
X133622850Y-117189520D01*
X133643893Y-117202132D01*
X133663599Y-117216747D01*
X133681777Y-117233223D01*
X133698253Y-117251401D01*
X133712868Y-117271107D01*
X133725480Y-117292150D01*
X133735970Y-117314329D01*
X133744235Y-117337428D01*
X133750196Y-117361227D01*
X133753796Y-117385495D01*
X133755000Y-117409999D01*
X133755000Y-118260001D01*
X133753796Y-118284505D01*
X133750196Y-118308773D01*
X133744235Y-118332572D01*
X133735970Y-118355671D01*
X133725480Y-118377850D01*
X133712868Y-118398893D01*
X133698253Y-118418599D01*
X133681777Y-118436777D01*
X133663599Y-118453253D01*
X133643893Y-118467868D01*
X133622850Y-118480480D01*
X133600671Y-118490970D01*
X133577572Y-118499235D01*
X133553773Y-118505196D01*
X133529505Y-118508796D01*
X133505001Y-118510000D01*
X130654999Y-118510000D01*
X130630495Y-118508796D01*
X130606227Y-118505196D01*
X130582428Y-118499235D01*
X130559329Y-118490970D01*
X130537150Y-118480480D01*
X130516107Y-118467868D01*
X130496401Y-118453253D01*
X130478223Y-118436777D01*
X130461747Y-118418599D01*
X130447132Y-118398893D01*
X130434520Y-118377850D01*
X130424030Y-118355671D01*
X130415765Y-118332572D01*
X130409804Y-118308773D01*
X130406204Y-118284505D01*
X130405000Y-118260001D01*
X130405000Y-117409999D01*
X130406204Y-117385495D01*
X130409804Y-117361227D01*
X130415765Y-117337428D01*
X130424030Y-117314329D01*
X130434520Y-117292150D01*
X130447132Y-117271107D01*
X130461747Y-117251401D01*
X130478223Y-117233223D01*
X130496401Y-117216747D01*
X130516107Y-117202132D01*
X130537150Y-117189520D01*
X130559329Y-117179030D01*
X130582428Y-117170765D01*
X130606227Y-117164804D01*
X130630495Y-117161204D01*
X130654999Y-117160000D01*
X133505001Y-117160000D01*
X133529505Y-117161204D01*
G37*
G04 #@! TD.AperFunction*
D17*
X120380000Y-100330000D03*
X118380000Y-101280000D03*
X118380000Y-99380000D03*
X120380000Y-106680000D03*
X118380000Y-107630000D03*
X118380000Y-105730000D03*
X131080000Y-100330000D03*
X133080000Y-99380000D03*
X133080000Y-101280000D03*
X131080000Y-106680000D03*
X133080000Y-105730000D03*
X133080000Y-107630000D03*
D18*
X126780000Y-107630000D03*
X126780000Y-105730000D03*
X124680000Y-106680000D03*
X124680000Y-99380000D03*
X124680000Y-101280000D03*
X126780000Y-100330000D03*
D19*
X132080000Y-109855000D03*
X124206000Y-109220000D03*
X127508000Y-102616000D03*
X129286000Y-120650000D03*
X128360001Y-114844999D03*
X127762000Y-128778000D03*
X132080000Y-116205000D03*
X121920000Y-101600000D03*
X124460000Y-116840000D03*
X123190000Y-112903000D03*
X135763000Y-112776000D03*
X135636000Y-118109996D03*
X135255000Y-108839000D03*
X130048000Y-103378000D03*
X123190000Y-99060000D03*
D20*
X129207500Y-123522500D02*
X129207500Y-122555000D01*
X128270000Y-124460000D02*
X129207500Y-123522500D01*
X133985000Y-122555000D02*
X133985000Y-120015000D01*
D21*
X130175000Y-120015000D02*
X129540000Y-119380000D01*
D20*
X127645000Y-112385000D02*
X128270000Y-111760000D01*
X127560000Y-112385000D02*
X127645000Y-112385000D01*
X117680000Y-107630000D02*
X118380000Y-107630000D01*
X117160000Y-101280000D02*
X118380000Y-101280000D01*
X116840000Y-101600000D02*
X117160000Y-101280000D01*
X116840000Y-97790000D02*
X116840000Y-101600000D01*
X132715000Y-98365000D02*
X132715000Y-97790000D01*
X133080000Y-98730000D02*
X132715000Y-98365000D01*
X133080000Y-99380000D02*
X133080000Y-98730000D01*
X132715000Y-97790000D02*
X116840000Y-97790000D01*
X132380000Y-99380000D02*
X132080000Y-99680000D01*
X133080000Y-99380000D02*
X132380000Y-99380000D01*
X132380000Y-105730000D02*
X133080000Y-105730000D01*
X132080000Y-105430000D02*
X132380000Y-105730000D01*
X132080000Y-99680000D02*
X132080000Y-105430000D01*
X115890000Y-107630000D02*
X118380000Y-107630000D01*
X115570000Y-107315000D02*
X115890000Y-107630000D01*
X115570000Y-102870000D02*
X115570000Y-107315000D01*
X116840000Y-101600000D02*
X115570000Y-102870000D01*
D21*
X128270000Y-124460000D02*
X130175000Y-124460000D01*
X130175000Y-124460000D02*
X130810000Y-123825000D01*
D20*
X132080000Y-107950000D02*
X130810000Y-109220000D01*
D21*
X134620000Y-124460000D02*
X134620000Y-126365000D01*
D20*
X121285000Y-124460000D02*
X119380000Y-122555000D01*
X124460000Y-122887500D02*
X124127500Y-122555000D01*
D21*
X124460000Y-124460000D02*
X124460000Y-126365000D01*
X128270000Y-124460000D02*
X124460000Y-124460000D01*
D20*
X124127500Y-122555000D02*
X124127500Y-124381500D01*
X124460000Y-124460000D02*
X124206000Y-124460000D01*
X129530000Y-112385000D02*
X129540000Y-112395000D01*
D21*
X127560000Y-112385000D02*
X129530000Y-112385000D01*
X129540000Y-119380000D02*
X129540000Y-112395000D01*
X130175000Y-120015000D02*
X130810000Y-120650000D01*
X130810000Y-120650000D02*
X130810000Y-123825000D01*
X133985000Y-120015000D02*
X130175000Y-120015000D01*
X130175000Y-124460000D02*
X121285000Y-124460000D01*
X135001000Y-116840000D02*
X137160000Y-116840000D01*
X134366000Y-117475000D02*
X135001000Y-116840000D01*
X134366000Y-119634000D02*
X134366000Y-117475000D01*
X133985000Y-120015000D02*
X134366000Y-119634000D01*
X129540000Y-110490000D02*
X129540000Y-112395000D01*
X132080000Y-107950000D02*
X129540000Y-110490000D01*
X132080000Y-99680000D02*
X132080000Y-107950000D01*
X135636000Y-121666000D02*
X133985000Y-120015000D01*
X135636000Y-123444000D02*
X135636000Y-121666000D01*
X134620000Y-124460000D02*
X135636000Y-123444000D01*
D20*
X127560000Y-122327500D02*
X127332500Y-122555000D01*
X127560000Y-117485000D02*
X127560000Y-122327500D01*
D21*
X132080000Y-109855000D02*
X132080000Y-112035000D01*
D20*
X124206000Y-106680000D02*
X124680000Y-106680000D01*
X123698000Y-107188000D02*
X124206000Y-106680000D01*
X123698000Y-108712000D02*
X123698000Y-107188000D01*
X124206000Y-109220000D02*
X123698000Y-108712000D01*
X127680000Y-100330000D02*
X128016000Y-100666000D01*
X126780000Y-100330000D02*
X127680000Y-100330000D01*
X128016000Y-102108000D02*
X127508000Y-102616000D01*
X128016000Y-100666000D02*
X128016000Y-102108000D01*
D21*
X131455999Y-133360999D02*
X132080000Y-133985000D01*
X129921000Y-131826000D02*
X131455999Y-133360999D01*
X126619000Y-131826000D02*
X129921000Y-131826000D01*
X124460000Y-133985000D02*
X126619000Y-131826000D01*
X127560000Y-118924000D02*
X127560000Y-117485000D01*
X129286000Y-120650000D02*
X127560000Y-118924000D01*
D20*
X122252500Y-122555000D02*
X122252500Y-120952500D01*
X122252500Y-120952500D02*
X125730000Y-117475000D01*
X125730000Y-116979998D02*
X127139998Y-115570000D01*
X125730000Y-117475000D02*
X125730000Y-116979998D01*
X127139998Y-115570000D02*
X127635000Y-115570000D01*
X127635000Y-115570000D02*
X128360001Y-114844999D01*
X132110000Y-123160000D02*
X132080000Y-123190000D01*
X132110000Y-122555000D02*
X132110000Y-123160000D01*
X132110000Y-124430000D02*
X128161999Y-128378001D01*
X128161999Y-128378001D02*
X127762000Y-128778000D01*
X132110000Y-122555000D02*
X132110000Y-124430000D01*
X132080000Y-117835000D02*
X132080000Y-118110000D01*
D21*
X132080000Y-117835000D02*
X132080000Y-116205000D01*
D20*
X132080000Y-116205000D02*
X132080000Y-116205000D01*
X126873000Y-130302000D02*
X126936500Y-130238500D01*
X119443500Y-130302000D02*
X126873000Y-130302000D01*
X118745000Y-129603500D02*
X119443500Y-130302000D01*
X118745000Y-123795000D02*
X118745000Y-129603500D01*
X117505000Y-122555000D02*
X118745000Y-123795000D01*
D21*
X130937000Y-130302000D02*
X134620000Y-133985000D01*
X127127000Y-130302000D02*
X130937000Y-130302000D01*
X126238000Y-129413000D02*
X127127000Y-130302000D01*
X126238000Y-127127000D02*
X126238000Y-129413000D01*
X127000000Y-126365000D02*
X126238000Y-127127000D01*
D20*
X118820000Y-117485000D02*
X118820000Y-118035000D01*
D21*
X115316000Y-125476000D02*
X116840000Y-127000000D01*
X116840000Y-127000000D02*
X116840000Y-133985000D01*
X115316000Y-121793000D02*
X115316000Y-125476000D01*
X118820000Y-118289000D02*
X115316000Y-121793000D01*
X118820000Y-118035000D02*
X118820000Y-118289000D01*
D20*
X118755000Y-112385000D02*
X118820000Y-112385000D01*
D21*
X114300000Y-121565036D02*
X114300000Y-133985000D01*
X116205000Y-119660036D02*
X114300000Y-121565036D01*
X116205000Y-113500000D02*
X116205000Y-119660036D01*
X117320000Y-112385000D02*
X116205000Y-113500000D01*
X118820000Y-112385000D02*
X117320000Y-112385000D01*
D20*
X120650000Y-100330000D02*
X120380000Y-100330000D01*
X121920000Y-101600000D02*
X120650000Y-100330000D01*
X124140000Y-99380000D02*
X124680000Y-99380000D01*
X121920000Y-101600000D02*
X124140000Y-99380000D01*
X116840000Y-106680000D02*
X120380000Y-106680000D01*
X116840000Y-104140000D02*
X116840000Y-106680000D01*
X123510000Y-101280000D02*
X120650000Y-104140000D01*
X120650000Y-104140000D02*
X116840000Y-104140000D01*
X124680000Y-101280000D02*
X123510000Y-101280000D01*
X116205000Y-121920000D02*
X116205000Y-124460000D01*
X116840000Y-121285000D02*
X116205000Y-121920000D01*
X119380000Y-121285000D02*
X116840000Y-121285000D01*
X117856000Y-129921000D02*
X121920000Y-133985000D01*
X116205000Y-124460000D02*
X117856000Y-126111000D01*
X121285000Y-106885000D02*
X121285000Y-119380000D01*
X117856000Y-126111000D02*
X117856000Y-129921000D01*
X121285000Y-119380000D02*
X119380000Y-121285000D01*
X121080000Y-106680000D02*
X121285000Y-106885000D01*
X120380000Y-106680000D02*
X121080000Y-106680000D01*
X126780000Y-107630000D02*
X126780000Y-109440000D01*
D21*
X126780000Y-109440000D02*
X124460000Y-111760000D01*
X124460000Y-111760000D02*
X124460000Y-116840000D01*
D20*
X124460000Y-116840000D02*
X124460000Y-116840000D01*
D21*
X124460000Y-111760000D02*
X129540000Y-106680000D01*
X129540000Y-106680000D02*
X130048000Y-106680000D01*
X130380000Y-106680000D02*
X130048000Y-106680000D01*
X131080000Y-106680000D02*
X130380000Y-106680000D01*
X123190000Y-112337315D02*
X123190000Y-112903000D01*
X122682000Y-111829315D02*
X123190000Y-112337315D01*
X122682000Y-106680000D02*
X122682000Y-111829315D01*
D20*
X125880000Y-105730000D02*
X123510000Y-105730000D01*
X126780000Y-105730000D02*
X125880000Y-105730000D01*
D21*
X131080000Y-101202000D02*
X131080000Y-100330000D01*
D20*
X131064000Y-101218000D02*
X131080000Y-101202000D01*
D21*
X131064000Y-104140000D02*
X131064000Y-101218000D01*
X130556000Y-104648000D02*
X131064000Y-104140000D01*
X128524000Y-104648000D02*
X130556000Y-104648000D01*
X128270000Y-104394000D02*
X128524000Y-104648000D01*
X124714000Y-104394000D02*
X128270000Y-104394000D01*
X122682000Y-106426000D02*
X124714000Y-104394000D01*
X122682000Y-106934000D02*
X122682000Y-106426000D01*
D20*
X135980001Y-105319999D02*
X135980001Y-112558999D01*
X137160000Y-104140000D02*
X135980001Y-105319999D01*
X135980001Y-112558999D02*
X135763000Y-112776000D01*
X135763000Y-112776000D02*
X135763000Y-112776000D01*
X135636000Y-120142000D02*
X135636000Y-118109996D01*
X137160000Y-121666000D02*
X135636000Y-120142000D01*
X137160000Y-126365000D02*
X137160000Y-121666000D01*
X136144000Y-114300000D02*
X137160000Y-114300000D01*
X135763000Y-114300000D02*
X136144000Y-114300000D01*
X134529999Y-113066999D02*
X135763000Y-114300000D01*
X134529999Y-110399999D02*
X134529999Y-113066999D01*
X133080000Y-108950000D02*
X134529999Y-110399999D01*
X133080000Y-107630000D02*
X133080000Y-108950000D01*
X133080000Y-101330000D02*
X133080000Y-101280000D01*
X135255000Y-108273315D02*
X135255000Y-108839000D01*
X135255000Y-102755000D02*
X135255000Y-108273315D01*
X133080000Y-101280000D02*
X133780000Y-101280000D01*
X133780000Y-101280000D02*
X135255000Y-102755000D01*
X123952000Y-103378000D02*
X129482315Y-103378000D01*
X121600000Y-105730000D02*
X123952000Y-103378000D01*
X118380000Y-105730000D02*
X121600000Y-105730000D01*
X129482315Y-103378000D02*
X130048000Y-103378000D01*
X118380000Y-99330000D02*
X118380000Y-99380000D01*
X118700000Y-99060000D02*
X118380000Y-99380000D01*
X123190000Y-99060000D02*
X118700000Y-99060000D01*
D22*
G36*
X131991928Y-108030000D02*
G01*
X132004188Y-108154482D01*
X132040498Y-108274180D01*
X132099463Y-108384494D01*
X132178815Y-108481185D01*
X132275506Y-108560537D01*
X132320001Y-108584320D01*
X132320001Y-108847462D01*
X132181939Y-108820000D01*
X131978061Y-108820000D01*
X131778102Y-108859774D01*
X131589744Y-108937795D01*
X131420226Y-109051063D01*
X131276063Y-109195226D01*
X131162795Y-109364744D01*
X131084774Y-109553102D01*
X131045000Y-109753061D01*
X131045000Y-109956939D01*
X131084774Y-110156898D01*
X131162795Y-110345256D01*
X131195000Y-110393455D01*
X131195000Y-110721928D01*
X130654999Y-110721928D01*
X130481745Y-110738992D01*
X130315149Y-110789528D01*
X130161613Y-110871595D01*
X130027038Y-110982038D01*
X129916595Y-111116613D01*
X129834528Y-111270149D01*
X129783992Y-111436745D01*
X129766928Y-111609999D01*
X129766928Y-112460001D01*
X129783992Y-112633255D01*
X129834528Y-112799851D01*
X129916595Y-112953387D01*
X130027038Y-113087962D01*
X130161613Y-113198405D01*
X130315149Y-113280472D01*
X130481745Y-113331008D01*
X130654999Y-113348072D01*
X133505001Y-113348072D01*
X133678255Y-113331008D01*
X133804291Y-113292776D01*
X133824453Y-113359245D01*
X133895025Y-113491275D01*
X133966200Y-113578001D01*
X133989999Y-113607000D01*
X134018997Y-113630798D01*
X135199201Y-114811003D01*
X135222999Y-114840001D01*
X135338724Y-114934974D01*
X135470753Y-115005546D01*
X135614014Y-115049003D01*
X135725667Y-115060000D01*
X135725675Y-115060000D01*
X135763000Y-115063676D01*
X135800325Y-115060000D01*
X135987659Y-115060000D01*
X136074880Y-115190535D01*
X136269465Y-115385120D01*
X136498273Y-115538005D01*
X136569943Y-115567692D01*
X136556977Y-115572364D01*
X136441020Y-115634344D01*
X136374040Y-115874435D01*
X137160000Y-116660395D01*
X137174143Y-116646253D01*
X137353748Y-116825858D01*
X137339605Y-116840000D01*
X137353748Y-116854143D01*
X137174143Y-117033748D01*
X137160000Y-117019605D01*
X137145858Y-117033748D01*
X136966253Y-116854143D01*
X136980395Y-116840000D01*
X136194435Y-116054040D01*
X135954344Y-116121020D01*
X135837244Y-116370048D01*
X135770977Y-116637135D01*
X135758090Y-116912017D01*
X135784020Y-117084162D01*
X135737939Y-117074996D01*
X135534061Y-117074996D01*
X135334102Y-117114770D01*
X135145744Y-117192791D01*
X134976226Y-117306059D01*
X134832063Y-117450222D01*
X134718795Y-117619740D01*
X134640774Y-117808098D01*
X134601000Y-118008057D01*
X134601000Y-118211935D01*
X134640774Y-118411894D01*
X134718795Y-118600252D01*
X134832063Y-118769770D01*
X134876001Y-118813708D01*
X134876000Y-120104677D01*
X134872324Y-120142000D01*
X134876000Y-120179322D01*
X134876000Y-120179332D01*
X134886997Y-120290985D01*
X134919898Y-120399447D01*
X134930454Y-120434246D01*
X135001026Y-120566276D01*
X135040871Y-120614826D01*
X135095999Y-120682001D01*
X135125002Y-120705803D01*
X136400001Y-121980804D01*
X136400000Y-125086821D01*
X136213368Y-125211525D01*
X136081513Y-125343380D01*
X136059502Y-125270820D01*
X136000537Y-125160506D01*
X135921185Y-125063815D01*
X135824494Y-124984463D01*
X135714180Y-124925498D01*
X135594482Y-124889188D01*
X135470000Y-124876928D01*
X134905750Y-124880000D01*
X134747000Y-125038750D01*
X134747000Y-126238000D01*
X134767000Y-126238000D01*
X134767000Y-126492000D01*
X134747000Y-126492000D01*
X134747000Y-127691250D01*
X134905750Y-127850000D01*
X135470000Y-127853072D01*
X135594482Y-127840812D01*
X135714180Y-127804502D01*
X135824494Y-127745537D01*
X135921185Y-127666185D01*
X136000537Y-127569494D01*
X136059502Y-127459180D01*
X136081513Y-127386620D01*
X136213368Y-127518475D01*
X136456589Y-127680990D01*
X136726842Y-127792932D01*
X137013740Y-127850000D01*
X137306260Y-127850000D01*
X137593158Y-127792932D01*
X137770001Y-127719682D01*
X137770001Y-132498235D01*
X137445750Y-132500000D01*
X137287000Y-132658750D01*
X137287000Y-133858000D01*
X137307000Y-133858000D01*
X137307000Y-134112000D01*
X137287000Y-134112000D01*
X137287000Y-134132000D01*
X137033000Y-134132000D01*
X137033000Y-134112000D01*
X137013000Y-134112000D01*
X137013000Y-133858000D01*
X137033000Y-133858000D01*
X137033000Y-132658750D01*
X136874250Y-132500000D01*
X136310000Y-132496928D01*
X136185518Y-132509188D01*
X136065820Y-132545498D01*
X135955506Y-132604463D01*
X135858815Y-132683815D01*
X135779463Y-132780506D01*
X135720498Y-132890820D01*
X135698487Y-132963380D01*
X135566632Y-132831525D01*
X135323411Y-132669010D01*
X135053158Y-132557068D01*
X134766260Y-132500000D01*
X134473740Y-132500000D01*
X134401040Y-132514461D01*
X131593534Y-129706956D01*
X131565817Y-129673183D01*
X131431059Y-129562589D01*
X131277313Y-129480411D01*
X131110490Y-129429805D01*
X130980477Y-129417000D01*
X130980469Y-129417000D01*
X130937000Y-129412719D01*
X130893531Y-129417000D01*
X128579818Y-129417000D01*
X128679205Y-129268256D01*
X128757226Y-129079898D01*
X128797000Y-128879939D01*
X128797000Y-128817801D01*
X130399801Y-127215000D01*
X133131928Y-127215000D01*
X133144188Y-127339482D01*
X133180498Y-127459180D01*
X133239463Y-127569494D01*
X133318815Y-127666185D01*
X133415506Y-127745537D01*
X133525820Y-127804502D01*
X133645518Y-127840812D01*
X133770000Y-127853072D01*
X134334250Y-127850000D01*
X134493000Y-127691250D01*
X134493000Y-126492000D01*
X133293750Y-126492000D01*
X133135000Y-126650750D01*
X133131928Y-127215000D01*
X130399801Y-127215000D01*
X132099801Y-125515000D01*
X133131928Y-125515000D01*
X133135000Y-126079250D01*
X133293750Y-126238000D01*
X134493000Y-126238000D01*
X134493000Y-125038750D01*
X134334250Y-124880000D01*
X133770000Y-124876928D01*
X133645518Y-124889188D01*
X133525820Y-124925498D01*
X133415506Y-124984463D01*
X133318815Y-125063815D01*
X133239463Y-125160506D01*
X133180498Y-125270820D01*
X133144188Y-125390518D01*
X133131928Y-125515000D01*
X132099801Y-125515000D01*
X132621003Y-124993799D01*
X132650001Y-124970001D01*
X132744974Y-124854276D01*
X132815546Y-124722247D01*
X132859003Y-124578986D01*
X132870000Y-124467333D01*
X132873677Y-124430000D01*
X132870000Y-124392667D01*
X132870000Y-123722845D01*
X132977292Y-123634792D01*
X132982508Y-123628436D01*
X133046315Y-123706185D01*
X133143006Y-123785537D01*
X133253320Y-123844502D01*
X133373018Y-123880812D01*
X133497500Y-123893072D01*
X133699250Y-123890000D01*
X133858000Y-123731250D01*
X133858000Y-122682000D01*
X134112000Y-122682000D01*
X134112000Y-123731250D01*
X134270750Y-123890000D01*
X134472500Y-123893072D01*
X134596982Y-123880812D01*
X134716680Y-123844502D01*
X134826994Y-123785537D01*
X134923685Y-123706185D01*
X135003037Y-123609494D01*
X135062002Y-123499180D01*
X135098312Y-123379482D01*
X135110572Y-123255000D01*
X135107500Y-122840750D01*
X134948750Y-122682000D01*
X134112000Y-122682000D01*
X133858000Y-122682000D01*
X133838000Y-122682000D01*
X133838000Y-122428000D01*
X133858000Y-122428000D01*
X133858000Y-121378750D01*
X134112000Y-121378750D01*
X134112000Y-122428000D01*
X134948750Y-122428000D01*
X135107500Y-122269250D01*
X135110572Y-121855000D01*
X135098312Y-121730518D01*
X135062002Y-121610820D01*
X135003037Y-121500506D01*
X134923685Y-121403815D01*
X134826994Y-121324463D01*
X134716680Y-121265498D01*
X134596982Y-121229188D01*
X134472500Y-121216928D01*
X134270750Y-121220000D01*
X134112000Y-121378750D01*
X133858000Y-121378750D01*
X133699250Y-121220000D01*
X133497500Y-121216928D01*
X133373018Y-121229188D01*
X133253320Y-121265498D01*
X133143006Y-121324463D01*
X133046315Y-121403815D01*
X132982508Y-121481564D01*
X132977292Y-121475208D01*
X132843664Y-121365542D01*
X132691209Y-121284053D01*
X132525785Y-121233872D01*
X132353750Y-121216928D01*
X131866250Y-121216928D01*
X131694215Y-121233872D01*
X131528791Y-121284053D01*
X131376336Y-121365542D01*
X131242708Y-121475208D01*
X131133042Y-121608836D01*
X131051553Y-121761291D01*
X131001372Y-121926715D01*
X130984428Y-122098750D01*
X130984428Y-123011250D01*
X131001372Y-123183285D01*
X131051553Y-123348709D01*
X131133042Y-123501164D01*
X131242708Y-123634792D01*
X131350001Y-123722845D01*
X131350001Y-124115197D01*
X128590572Y-126874627D01*
X128590572Y-125365000D01*
X128578312Y-125240518D01*
X128542002Y-125120820D01*
X128483037Y-125010506D01*
X128403685Y-124913815D01*
X128306994Y-124834463D01*
X128196680Y-124775498D01*
X128076982Y-124739188D01*
X127952500Y-124726928D01*
X126047500Y-124726928D01*
X125923018Y-124739188D01*
X125803320Y-124775498D01*
X125693006Y-124834463D01*
X125596315Y-124913815D01*
X125516963Y-125010506D01*
X125467941Y-125102219D01*
X125326923Y-124989031D01*
X125051094Y-124845429D01*
X124832980Y-124774437D01*
X124587000Y-124894406D01*
X124587000Y-126238000D01*
X124607000Y-126238000D01*
X124607000Y-126492000D01*
X124587000Y-126492000D01*
X124587000Y-127835594D01*
X124832980Y-127955563D01*
X125051094Y-127884571D01*
X125326923Y-127740969D01*
X125353000Y-127720038D01*
X125353001Y-129369521D01*
X125348719Y-129413000D01*
X125361423Y-129542000D01*
X119758302Y-129542000D01*
X119505000Y-129288699D01*
X119505000Y-126239514D01*
X120332500Y-126239514D01*
X120332500Y-126490485D01*
X120355470Y-126723703D01*
X120446245Y-127022948D01*
X120593655Y-127298734D01*
X120792037Y-127540463D01*
X121033765Y-127738845D01*
X121309551Y-127886255D01*
X121608796Y-127977030D01*
X121920000Y-128007681D01*
X122231203Y-127977030D01*
X122530448Y-127886255D01*
X122806234Y-127738845D01*
X123047963Y-127540463D01*
X123195163Y-127361101D01*
X123350563Y-127546315D01*
X123593077Y-127740969D01*
X123868906Y-127884571D01*
X124087020Y-127955563D01*
X124333000Y-127835594D01*
X124333000Y-126492000D01*
X124313000Y-126492000D01*
X124313000Y-126238000D01*
X124333000Y-126238000D01*
X124333000Y-124894406D01*
X124087020Y-124774437D01*
X123868906Y-124845429D01*
X123593077Y-124989031D01*
X123350563Y-125183685D01*
X123195162Y-125368900D01*
X123047963Y-125189537D01*
X122806235Y-124991155D01*
X122530449Y-124843745D01*
X122231204Y-124752970D01*
X121920000Y-124722319D01*
X121608797Y-124752970D01*
X121309552Y-124843745D01*
X121033766Y-124991155D01*
X120792037Y-125189537D01*
X120593655Y-125431265D01*
X120446245Y-125707051D01*
X120355470Y-126006296D01*
X120332500Y-126239514D01*
X119505000Y-126239514D01*
X119505000Y-123890000D01*
X119507002Y-123890000D01*
X119507002Y-123811996D01*
X119508676Y-123795000D01*
X119507002Y-123778004D01*
X119507002Y-123731252D01*
X119665750Y-123890000D01*
X119867500Y-123893072D01*
X119991982Y-123880812D01*
X120111680Y-123844502D01*
X120221994Y-123785537D01*
X120318685Y-123706185D01*
X120398037Y-123609494D01*
X120457002Y-123499180D01*
X120493312Y-123379482D01*
X120505572Y-123255000D01*
X120502500Y-122840750D01*
X120343750Y-122682000D01*
X119507000Y-122682000D01*
X119507000Y-122702000D01*
X119253000Y-122702000D01*
X119253000Y-122682000D01*
X119233000Y-122682000D01*
X119233000Y-122428000D01*
X119253000Y-122428000D01*
X119253000Y-122408000D01*
X119507000Y-122408000D01*
X119507000Y-122428000D01*
X120343750Y-122428000D01*
X120502500Y-122269250D01*
X120505572Y-121855000D01*
X120493312Y-121730518D01*
X120457002Y-121610820D01*
X120398037Y-121500506D01*
X120326484Y-121413318D01*
X121796003Y-119943799D01*
X121825001Y-119920001D01*
X121919974Y-119804276D01*
X121990546Y-119672247D01*
X122034003Y-119528986D01*
X122045000Y-119417333D01*
X122045000Y-119417323D01*
X122048676Y-119380000D01*
X122045000Y-119342677D01*
X122045000Y-112448160D01*
X122053184Y-112458132D01*
X122086952Y-112485845D01*
X122196952Y-112595845D01*
X122194774Y-112601102D01*
X122155000Y-112801061D01*
X122155000Y-113004939D01*
X122194774Y-113204898D01*
X122272795Y-113393256D01*
X122386063Y-113562774D01*
X122530226Y-113706937D01*
X122699744Y-113820205D01*
X122888102Y-113898226D01*
X123088061Y-113938000D01*
X123291939Y-113938000D01*
X123491898Y-113898226D01*
X123575000Y-113863804D01*
X123575001Y-116301544D01*
X123542795Y-116349744D01*
X123464774Y-116538102D01*
X123425000Y-116738061D01*
X123425000Y-116941939D01*
X123464774Y-117141898D01*
X123542795Y-117330256D01*
X123656063Y-117499774D01*
X123800226Y-117643937D01*
X123969744Y-117757205D01*
X124158102Y-117835226D01*
X124272264Y-117857934D01*
X121741498Y-120388701D01*
X121712500Y-120412499D01*
X121688702Y-120441497D01*
X121688701Y-120441498D01*
X121617526Y-120528224D01*
X121546954Y-120660254D01*
X121528467Y-120721201D01*
X121512452Y-120773998D01*
X121503498Y-120803515D01*
X121488824Y-120952500D01*
X121492501Y-120989832D01*
X121492501Y-121387155D01*
X121385208Y-121475208D01*
X121275542Y-121608836D01*
X121194053Y-121761291D01*
X121143872Y-121926715D01*
X121126928Y-122098750D01*
X121126928Y-123011250D01*
X121143872Y-123183285D01*
X121194053Y-123348709D01*
X121275542Y-123501164D01*
X121385208Y-123634792D01*
X121518836Y-123744458D01*
X121671291Y-123825947D01*
X121836715Y-123876128D01*
X122008750Y-123893072D01*
X122496250Y-123893072D01*
X122668285Y-123876128D01*
X122833709Y-123825947D01*
X122986164Y-123744458D01*
X123119792Y-123634792D01*
X123125008Y-123628436D01*
X123188815Y-123706185D01*
X123285506Y-123785537D01*
X123395820Y-123844502D01*
X123515518Y-123880812D01*
X123640000Y-123893072D01*
X123841750Y-123890000D01*
X124000500Y-123731250D01*
X124000500Y-122682000D01*
X124254500Y-122682000D01*
X124254500Y-123731250D01*
X124413250Y-123890000D01*
X124615000Y-123893072D01*
X124739482Y-123880812D01*
X124859180Y-123844502D01*
X124969494Y-123785537D01*
X125066185Y-123706185D01*
X125145537Y-123609494D01*
X125204502Y-123499180D01*
X125240812Y-123379482D01*
X125253072Y-123255000D01*
X125250000Y-122840750D01*
X125091250Y-122682000D01*
X124254500Y-122682000D01*
X124000500Y-122682000D01*
X123980500Y-122682000D01*
X123980500Y-122428000D01*
X124000500Y-122428000D01*
X124000500Y-121378750D01*
X124254500Y-121378750D01*
X124254500Y-122428000D01*
X125091250Y-122428000D01*
X125250000Y-122269250D01*
X125253072Y-121855000D01*
X125240812Y-121730518D01*
X125204502Y-121610820D01*
X125145537Y-121500506D01*
X125066185Y-121403815D01*
X124969494Y-121324463D01*
X124859180Y-121265498D01*
X124739482Y-121229188D01*
X124615000Y-121216928D01*
X124413250Y-121220000D01*
X124254500Y-121378750D01*
X124000500Y-121378750D01*
X123841750Y-121220000D01*
X123640000Y-121216928D01*
X123515518Y-121229188D01*
X123395820Y-121265498D01*
X123285506Y-121324463D01*
X123188815Y-121403815D01*
X123125008Y-121481564D01*
X123119792Y-121475208D01*
X123012500Y-121387155D01*
X123012500Y-121267301D01*
X125932945Y-118346857D01*
X125934188Y-118359482D01*
X125970498Y-118479180D01*
X126029463Y-118589494D01*
X126108815Y-118686185D01*
X126205506Y-118765537D01*
X126315820Y-118824502D01*
X126435518Y-118860812D01*
X126560000Y-118873072D01*
X126675000Y-118873072D01*
X126675000Y-118880530D01*
X126670719Y-118924000D01*
X126675000Y-118967469D01*
X126675000Y-118967476D01*
X126687805Y-119097489D01*
X126738411Y-119264312D01*
X126800000Y-119379539D01*
X126800001Y-121269277D01*
X126751291Y-121284053D01*
X126598836Y-121365542D01*
X126465208Y-121475208D01*
X126355542Y-121608836D01*
X126274053Y-121761291D01*
X126223872Y-121926715D01*
X126206928Y-122098750D01*
X126206928Y-123011250D01*
X126223872Y-123183285D01*
X126274053Y-123348709D01*
X126355542Y-123501164D01*
X126465208Y-123634792D01*
X126598836Y-123744458D01*
X126751291Y-123825947D01*
X126916715Y-123876128D01*
X127088750Y-123893072D01*
X127576250Y-123893072D01*
X127748285Y-123876128D01*
X127913709Y-123825947D01*
X128066164Y-123744458D01*
X128199792Y-123634792D01*
X128205008Y-123628436D01*
X128268815Y-123706185D01*
X128365506Y-123785537D01*
X128475820Y-123844502D01*
X128595518Y-123880812D01*
X128720000Y-123893072D01*
X128921750Y-123890000D01*
X129080500Y-123731250D01*
X129080500Y-122682000D01*
X129334500Y-122682000D01*
X129334500Y-123731250D01*
X129493250Y-123890000D01*
X129695000Y-123893072D01*
X129819482Y-123880812D01*
X129939180Y-123844502D01*
X130049494Y-123785537D01*
X130146185Y-123706185D01*
X130225537Y-123609494D01*
X130284502Y-123499180D01*
X130320812Y-123379482D01*
X130333072Y-123255000D01*
X130330000Y-122840750D01*
X130171250Y-122682000D01*
X129334500Y-122682000D01*
X129080500Y-122682000D01*
X129060500Y-122682000D01*
X129060500Y-122428000D01*
X129080500Y-122428000D01*
X129080500Y-122408000D01*
X129334500Y-122408000D01*
X129334500Y-122428000D01*
X130171250Y-122428000D01*
X130330000Y-122269250D01*
X130333072Y-121855000D01*
X130320812Y-121730518D01*
X130284502Y-121610820D01*
X130225537Y-121500506D01*
X130146185Y-121403815D01*
X130063639Y-121336072D01*
X130089937Y-121309774D01*
X130203205Y-121140256D01*
X130281226Y-120951898D01*
X130321000Y-120751939D01*
X130321000Y-120548061D01*
X130281226Y-120348102D01*
X130203205Y-120159744D01*
X130089937Y-119990226D01*
X129945774Y-119846063D01*
X129776256Y-119732795D01*
X129587898Y-119654774D01*
X129531044Y-119643465D01*
X128733516Y-118845938D01*
X128804180Y-118824502D01*
X128914494Y-118765537D01*
X129011185Y-118686185D01*
X129090537Y-118589494D01*
X129149502Y-118479180D01*
X129185812Y-118359482D01*
X129198072Y-118235000D01*
X129198072Y-117409999D01*
X129766928Y-117409999D01*
X129766928Y-118260001D01*
X129783992Y-118433255D01*
X129834528Y-118599851D01*
X129916595Y-118753387D01*
X130027038Y-118887962D01*
X130161613Y-118998405D01*
X130315149Y-119080472D01*
X130481745Y-119131008D01*
X130654999Y-119148072D01*
X133505001Y-119148072D01*
X133678255Y-119131008D01*
X133844851Y-119080472D01*
X133998387Y-118998405D01*
X134132962Y-118887962D01*
X134243405Y-118753387D01*
X134325472Y-118599851D01*
X134376008Y-118433255D01*
X134393072Y-118260001D01*
X134393072Y-117409999D01*
X134376008Y-117236745D01*
X134325472Y-117070149D01*
X134243405Y-116916613D01*
X134132962Y-116782038D01*
X133998387Y-116671595D01*
X133844851Y-116589528D01*
X133678255Y-116538992D01*
X133505001Y-116521928D01*
X133069000Y-116521928D01*
X133075226Y-116506898D01*
X133115000Y-116306939D01*
X133115000Y-116103061D01*
X133075226Y-115903102D01*
X132997205Y-115714744D01*
X132883937Y-115545226D01*
X132739774Y-115401063D01*
X132570256Y-115287795D01*
X132381898Y-115209774D01*
X132181939Y-115170000D01*
X131978061Y-115170000D01*
X131778102Y-115209774D01*
X131589744Y-115287795D01*
X131420226Y-115401063D01*
X131276063Y-115545226D01*
X131162795Y-115714744D01*
X131084774Y-115903102D01*
X131045000Y-116103061D01*
X131045000Y-116306939D01*
X131084774Y-116506898D01*
X131091000Y-116521928D01*
X130654999Y-116521928D01*
X130481745Y-116538992D01*
X130315149Y-116589528D01*
X130161613Y-116671595D01*
X130027038Y-116782038D01*
X129916595Y-116916613D01*
X129834528Y-117070149D01*
X129783992Y-117236745D01*
X129766928Y-117409999D01*
X129198072Y-117409999D01*
X129198072Y-116735000D01*
X129185812Y-116610518D01*
X129149502Y-116490820D01*
X129090537Y-116380506D01*
X129011185Y-116283815D01*
X128914494Y-116204463D01*
X128804180Y-116145498D01*
X128684482Y-116109188D01*
X128560000Y-116096928D01*
X128185730Y-116096928D01*
X128198803Y-116080998D01*
X128399802Y-115879999D01*
X128461940Y-115879999D01*
X128661899Y-115840225D01*
X128850257Y-115762204D01*
X129019775Y-115648936D01*
X129163938Y-115504773D01*
X129277206Y-115335255D01*
X129355227Y-115146897D01*
X129395001Y-114946938D01*
X129395001Y-114743060D01*
X129355227Y-114543101D01*
X129277206Y-114354743D01*
X129163938Y-114185225D01*
X129019775Y-114041062D01*
X128850257Y-113927794D01*
X128661899Y-113849773D01*
X128461940Y-113809999D01*
X128258062Y-113809999D01*
X128058103Y-113849773D01*
X127869745Y-113927794D01*
X127700227Y-114041062D01*
X127556064Y-114185225D01*
X127442796Y-114354743D01*
X127364775Y-114543101D01*
X127325001Y-114743060D01*
X127325001Y-114805198D01*
X127320199Y-114810000D01*
X127177320Y-114810000D01*
X127139997Y-114806324D01*
X127102674Y-114810000D01*
X127102665Y-114810000D01*
X126991012Y-114820997D01*
X126847751Y-114864454D01*
X126715722Y-114935026D01*
X126599997Y-115029999D01*
X126576199Y-115058997D01*
X125345000Y-116290197D01*
X125345000Y-113135000D01*
X125921928Y-113135000D01*
X125934188Y-113259482D01*
X125970498Y-113379180D01*
X126029463Y-113489494D01*
X126108815Y-113586185D01*
X126205506Y-113665537D01*
X126315820Y-113724502D01*
X126435518Y-113760812D01*
X126560000Y-113773072D01*
X127274250Y-113770000D01*
X127433000Y-113611250D01*
X127433000Y-112512000D01*
X127687000Y-112512000D01*
X127687000Y-113611250D01*
X127845750Y-113770000D01*
X128560000Y-113773072D01*
X128684482Y-113760812D01*
X128804180Y-113724502D01*
X128914494Y-113665537D01*
X129011185Y-113586185D01*
X129090537Y-113489494D01*
X129149502Y-113379180D01*
X129185812Y-113259482D01*
X129198072Y-113135000D01*
X129195000Y-112670750D01*
X129036250Y-112512000D01*
X127687000Y-112512000D01*
X127433000Y-112512000D01*
X126083750Y-112512000D01*
X125925000Y-112670750D01*
X125921928Y-113135000D01*
X125345000Y-113135000D01*
X125345000Y-112126578D01*
X125931252Y-111540326D01*
X125921928Y-111635000D01*
X125925000Y-112099250D01*
X126083750Y-112258000D01*
X127433000Y-112258000D01*
X127433000Y-111158750D01*
X127687000Y-111158750D01*
X127687000Y-112258000D01*
X129036250Y-112258000D01*
X129195000Y-112099250D01*
X129198072Y-111635000D01*
X129185812Y-111510518D01*
X129149502Y-111390820D01*
X129090537Y-111280506D01*
X129011185Y-111183815D01*
X128914494Y-111104463D01*
X128804180Y-111045498D01*
X128684482Y-111009188D01*
X128560000Y-110996928D01*
X127845750Y-111000000D01*
X127687000Y-111158750D01*
X127433000Y-111158750D01*
X127274250Y-111000000D01*
X126560000Y-110996928D01*
X126465326Y-111006252D01*
X127436532Y-110035047D01*
X127436534Y-110035044D01*
X129906579Y-107565000D01*
X130220019Y-107565000D01*
X130275506Y-107610537D01*
X130385820Y-107669502D01*
X130505518Y-107705812D01*
X130630000Y-107718072D01*
X131530000Y-107718072D01*
X131654482Y-107705812D01*
X131774180Y-107669502D01*
X131884494Y-107610537D01*
X131981185Y-107531185D01*
X131991928Y-107518095D01*
X131991928Y-108030000D01*
G37*
X131991928Y-108030000D02*
X132004188Y-108154482D01*
X132040498Y-108274180D01*
X132099463Y-108384494D01*
X132178815Y-108481185D01*
X132275506Y-108560537D01*
X132320001Y-108584320D01*
X132320001Y-108847462D01*
X132181939Y-108820000D01*
X131978061Y-108820000D01*
X131778102Y-108859774D01*
X131589744Y-108937795D01*
X131420226Y-109051063D01*
X131276063Y-109195226D01*
X131162795Y-109364744D01*
X131084774Y-109553102D01*
X131045000Y-109753061D01*
X131045000Y-109956939D01*
X131084774Y-110156898D01*
X131162795Y-110345256D01*
X131195000Y-110393455D01*
X131195000Y-110721928D01*
X130654999Y-110721928D01*
X130481745Y-110738992D01*
X130315149Y-110789528D01*
X130161613Y-110871595D01*
X130027038Y-110982038D01*
X129916595Y-111116613D01*
X129834528Y-111270149D01*
X129783992Y-111436745D01*
X129766928Y-111609999D01*
X129766928Y-112460001D01*
X129783992Y-112633255D01*
X129834528Y-112799851D01*
X129916595Y-112953387D01*
X130027038Y-113087962D01*
X130161613Y-113198405D01*
X130315149Y-113280472D01*
X130481745Y-113331008D01*
X130654999Y-113348072D01*
X133505001Y-113348072D01*
X133678255Y-113331008D01*
X133804291Y-113292776D01*
X133824453Y-113359245D01*
X133895025Y-113491275D01*
X133966200Y-113578001D01*
X133989999Y-113607000D01*
X134018997Y-113630798D01*
X135199201Y-114811003D01*
X135222999Y-114840001D01*
X135338724Y-114934974D01*
X135470753Y-115005546D01*
X135614014Y-115049003D01*
X135725667Y-115060000D01*
X135725675Y-115060000D01*
X135763000Y-115063676D01*
X135800325Y-115060000D01*
X135987659Y-115060000D01*
X136074880Y-115190535D01*
X136269465Y-115385120D01*
X136498273Y-115538005D01*
X136569943Y-115567692D01*
X136556977Y-115572364D01*
X136441020Y-115634344D01*
X136374040Y-115874435D01*
X137160000Y-116660395D01*
X137174143Y-116646253D01*
X137353748Y-116825858D01*
X137339605Y-116840000D01*
X137353748Y-116854143D01*
X137174143Y-117033748D01*
X137160000Y-117019605D01*
X137145858Y-117033748D01*
X136966253Y-116854143D01*
X136980395Y-116840000D01*
X136194435Y-116054040D01*
X135954344Y-116121020D01*
X135837244Y-116370048D01*
X135770977Y-116637135D01*
X135758090Y-116912017D01*
X135784020Y-117084162D01*
X135737939Y-117074996D01*
X135534061Y-117074996D01*
X135334102Y-117114770D01*
X135145744Y-117192791D01*
X134976226Y-117306059D01*
X134832063Y-117450222D01*
X134718795Y-117619740D01*
X134640774Y-117808098D01*
X134601000Y-118008057D01*
X134601000Y-118211935D01*
X134640774Y-118411894D01*
X134718795Y-118600252D01*
X134832063Y-118769770D01*
X134876001Y-118813708D01*
X134876000Y-120104677D01*
X134872324Y-120142000D01*
X134876000Y-120179322D01*
X134876000Y-120179332D01*
X134886997Y-120290985D01*
X134919898Y-120399447D01*
X134930454Y-120434246D01*
X135001026Y-120566276D01*
X135040871Y-120614826D01*
X135095999Y-120682001D01*
X135125002Y-120705803D01*
X136400001Y-121980804D01*
X136400000Y-125086821D01*
X136213368Y-125211525D01*
X136081513Y-125343380D01*
X136059502Y-125270820D01*
X136000537Y-125160506D01*
X135921185Y-125063815D01*
X135824494Y-124984463D01*
X135714180Y-124925498D01*
X135594482Y-124889188D01*
X135470000Y-124876928D01*
X134905750Y-124880000D01*
X134747000Y-125038750D01*
X134747000Y-126238000D01*
X134767000Y-126238000D01*
X134767000Y-126492000D01*
X134747000Y-126492000D01*
X134747000Y-127691250D01*
X134905750Y-127850000D01*
X135470000Y-127853072D01*
X135594482Y-127840812D01*
X135714180Y-127804502D01*
X135824494Y-127745537D01*
X135921185Y-127666185D01*
X136000537Y-127569494D01*
X136059502Y-127459180D01*
X136081513Y-127386620D01*
X136213368Y-127518475D01*
X136456589Y-127680990D01*
X136726842Y-127792932D01*
X137013740Y-127850000D01*
X137306260Y-127850000D01*
X137593158Y-127792932D01*
X137770001Y-127719682D01*
X137770001Y-132498235D01*
X137445750Y-132500000D01*
X137287000Y-132658750D01*
X137287000Y-133858000D01*
X137307000Y-133858000D01*
X137307000Y-134112000D01*
X137287000Y-134112000D01*
X137287000Y-134132000D01*
X137033000Y-134132000D01*
X137033000Y-134112000D01*
X137013000Y-134112000D01*
X137013000Y-133858000D01*
X137033000Y-133858000D01*
X137033000Y-132658750D01*
X136874250Y-132500000D01*
X136310000Y-132496928D01*
X136185518Y-132509188D01*
X136065820Y-132545498D01*
X135955506Y-132604463D01*
X135858815Y-132683815D01*
X135779463Y-132780506D01*
X135720498Y-132890820D01*
X135698487Y-132963380D01*
X135566632Y-132831525D01*
X135323411Y-132669010D01*
X135053158Y-132557068D01*
X134766260Y-132500000D01*
X134473740Y-132500000D01*
X134401040Y-132514461D01*
X131593534Y-129706956D01*
X131565817Y-129673183D01*
X131431059Y-129562589D01*
X131277313Y-129480411D01*
X131110490Y-129429805D01*
X130980477Y-129417000D01*
X130980469Y-129417000D01*
X130937000Y-129412719D01*
X130893531Y-129417000D01*
X128579818Y-129417000D01*
X128679205Y-129268256D01*
X128757226Y-129079898D01*
X128797000Y-128879939D01*
X128797000Y-128817801D01*
X130399801Y-127215000D01*
X133131928Y-127215000D01*
X133144188Y-127339482D01*
X133180498Y-127459180D01*
X133239463Y-127569494D01*
X133318815Y-127666185D01*
X133415506Y-127745537D01*
X133525820Y-127804502D01*
X133645518Y-127840812D01*
X133770000Y-127853072D01*
X134334250Y-127850000D01*
X134493000Y-127691250D01*
X134493000Y-126492000D01*
X133293750Y-126492000D01*
X133135000Y-126650750D01*
X133131928Y-127215000D01*
X130399801Y-127215000D01*
X132099801Y-125515000D01*
X133131928Y-125515000D01*
X133135000Y-126079250D01*
X133293750Y-126238000D01*
X134493000Y-126238000D01*
X134493000Y-125038750D01*
X134334250Y-124880000D01*
X133770000Y-124876928D01*
X133645518Y-124889188D01*
X133525820Y-124925498D01*
X133415506Y-124984463D01*
X133318815Y-125063815D01*
X133239463Y-125160506D01*
X133180498Y-125270820D01*
X133144188Y-125390518D01*
X133131928Y-125515000D01*
X132099801Y-125515000D01*
X132621003Y-124993799D01*
X132650001Y-124970001D01*
X132744974Y-124854276D01*
X132815546Y-124722247D01*
X132859003Y-124578986D01*
X132870000Y-124467333D01*
X132873677Y-124430000D01*
X132870000Y-124392667D01*
X132870000Y-123722845D01*
X132977292Y-123634792D01*
X132982508Y-123628436D01*
X133046315Y-123706185D01*
X133143006Y-123785537D01*
X133253320Y-123844502D01*
X133373018Y-123880812D01*
X133497500Y-123893072D01*
X133699250Y-123890000D01*
X133858000Y-123731250D01*
X133858000Y-122682000D01*
X134112000Y-122682000D01*
X134112000Y-123731250D01*
X134270750Y-123890000D01*
X134472500Y-123893072D01*
X134596982Y-123880812D01*
X134716680Y-123844502D01*
X134826994Y-123785537D01*
X134923685Y-123706185D01*
X135003037Y-123609494D01*
X135062002Y-123499180D01*
X135098312Y-123379482D01*
X135110572Y-123255000D01*
X135107500Y-122840750D01*
X134948750Y-122682000D01*
X134112000Y-122682000D01*
X133858000Y-122682000D01*
X133838000Y-122682000D01*
X133838000Y-122428000D01*
X133858000Y-122428000D01*
X133858000Y-121378750D01*
X134112000Y-121378750D01*
X134112000Y-122428000D01*
X134948750Y-122428000D01*
X135107500Y-122269250D01*
X135110572Y-121855000D01*
X135098312Y-121730518D01*
X135062002Y-121610820D01*
X135003037Y-121500506D01*
X134923685Y-121403815D01*
X134826994Y-121324463D01*
X134716680Y-121265498D01*
X134596982Y-121229188D01*
X134472500Y-121216928D01*
X134270750Y-121220000D01*
X134112000Y-121378750D01*
X133858000Y-121378750D01*
X133699250Y-121220000D01*
X133497500Y-121216928D01*
X133373018Y-121229188D01*
X133253320Y-121265498D01*
X133143006Y-121324463D01*
X133046315Y-121403815D01*
X132982508Y-121481564D01*
X132977292Y-121475208D01*
X132843664Y-121365542D01*
X132691209Y-121284053D01*
X132525785Y-121233872D01*
X132353750Y-121216928D01*
X131866250Y-121216928D01*
X131694215Y-121233872D01*
X131528791Y-121284053D01*
X131376336Y-121365542D01*
X131242708Y-121475208D01*
X131133042Y-121608836D01*
X131051553Y-121761291D01*
X131001372Y-121926715D01*
X130984428Y-122098750D01*
X130984428Y-123011250D01*
X131001372Y-123183285D01*
X131051553Y-123348709D01*
X131133042Y-123501164D01*
X131242708Y-123634792D01*
X131350001Y-123722845D01*
X131350001Y-124115197D01*
X128590572Y-126874627D01*
X128590572Y-125365000D01*
X128578312Y-125240518D01*
X128542002Y-125120820D01*
X128483037Y-125010506D01*
X128403685Y-124913815D01*
X128306994Y-124834463D01*
X128196680Y-124775498D01*
X128076982Y-124739188D01*
X127952500Y-124726928D01*
X126047500Y-124726928D01*
X125923018Y-124739188D01*
X125803320Y-124775498D01*
X125693006Y-124834463D01*
X125596315Y-124913815D01*
X125516963Y-125010506D01*
X125467941Y-125102219D01*
X125326923Y-124989031D01*
X125051094Y-124845429D01*
X124832980Y-124774437D01*
X124587000Y-124894406D01*
X124587000Y-126238000D01*
X124607000Y-126238000D01*
X124607000Y-126492000D01*
X124587000Y-126492000D01*
X124587000Y-127835594D01*
X124832980Y-127955563D01*
X125051094Y-127884571D01*
X125326923Y-127740969D01*
X125353000Y-127720038D01*
X125353001Y-129369521D01*
X125348719Y-129413000D01*
X125361423Y-129542000D01*
X119758302Y-129542000D01*
X119505000Y-129288699D01*
X119505000Y-126239514D01*
X120332500Y-126239514D01*
X120332500Y-126490485D01*
X120355470Y-126723703D01*
X120446245Y-127022948D01*
X120593655Y-127298734D01*
X120792037Y-127540463D01*
X121033765Y-127738845D01*
X121309551Y-127886255D01*
X121608796Y-127977030D01*
X121920000Y-128007681D01*
X122231203Y-127977030D01*
X122530448Y-127886255D01*
X122806234Y-127738845D01*
X123047963Y-127540463D01*
X123195163Y-127361101D01*
X123350563Y-127546315D01*
X123593077Y-127740969D01*
X123868906Y-127884571D01*
X124087020Y-127955563D01*
X124333000Y-127835594D01*
X124333000Y-126492000D01*
X124313000Y-126492000D01*
X124313000Y-126238000D01*
X124333000Y-126238000D01*
X124333000Y-124894406D01*
X124087020Y-124774437D01*
X123868906Y-124845429D01*
X123593077Y-124989031D01*
X123350563Y-125183685D01*
X123195162Y-125368900D01*
X123047963Y-125189537D01*
X122806235Y-124991155D01*
X122530449Y-124843745D01*
X122231204Y-124752970D01*
X121920000Y-124722319D01*
X121608797Y-124752970D01*
X121309552Y-124843745D01*
X121033766Y-124991155D01*
X120792037Y-125189537D01*
X120593655Y-125431265D01*
X120446245Y-125707051D01*
X120355470Y-126006296D01*
X120332500Y-126239514D01*
X119505000Y-126239514D01*
X119505000Y-123890000D01*
X119507002Y-123890000D01*
X119507002Y-123811996D01*
X119508676Y-123795000D01*
X119507002Y-123778004D01*
X119507002Y-123731252D01*
X119665750Y-123890000D01*
X119867500Y-123893072D01*
X119991982Y-123880812D01*
X120111680Y-123844502D01*
X120221994Y-123785537D01*
X120318685Y-123706185D01*
X120398037Y-123609494D01*
X120457002Y-123499180D01*
X120493312Y-123379482D01*
X120505572Y-123255000D01*
X120502500Y-122840750D01*
X120343750Y-122682000D01*
X119507000Y-122682000D01*
X119507000Y-122702000D01*
X119253000Y-122702000D01*
X119253000Y-122682000D01*
X119233000Y-122682000D01*
X119233000Y-122428000D01*
X119253000Y-122428000D01*
X119253000Y-122408000D01*
X119507000Y-122408000D01*
X119507000Y-122428000D01*
X120343750Y-122428000D01*
X120502500Y-122269250D01*
X120505572Y-121855000D01*
X120493312Y-121730518D01*
X120457002Y-121610820D01*
X120398037Y-121500506D01*
X120326484Y-121413318D01*
X121796003Y-119943799D01*
X121825001Y-119920001D01*
X121919974Y-119804276D01*
X121990546Y-119672247D01*
X122034003Y-119528986D01*
X122045000Y-119417333D01*
X122045000Y-119417323D01*
X122048676Y-119380000D01*
X122045000Y-119342677D01*
X122045000Y-112448160D01*
X122053184Y-112458132D01*
X122086952Y-112485845D01*
X122196952Y-112595845D01*
X122194774Y-112601102D01*
X122155000Y-112801061D01*
X122155000Y-113004939D01*
X122194774Y-113204898D01*
X122272795Y-113393256D01*
X122386063Y-113562774D01*
X122530226Y-113706937D01*
X122699744Y-113820205D01*
X122888102Y-113898226D01*
X123088061Y-113938000D01*
X123291939Y-113938000D01*
X123491898Y-113898226D01*
X123575000Y-113863804D01*
X123575001Y-116301544D01*
X123542795Y-116349744D01*
X123464774Y-116538102D01*
X123425000Y-116738061D01*
X123425000Y-116941939D01*
X123464774Y-117141898D01*
X123542795Y-117330256D01*
X123656063Y-117499774D01*
X123800226Y-117643937D01*
X123969744Y-117757205D01*
X124158102Y-117835226D01*
X124272264Y-117857934D01*
X121741498Y-120388701D01*
X121712500Y-120412499D01*
X121688702Y-120441497D01*
X121688701Y-120441498D01*
X121617526Y-120528224D01*
X121546954Y-120660254D01*
X121528467Y-120721201D01*
X121512452Y-120773998D01*
X121503498Y-120803515D01*
X121488824Y-120952500D01*
X121492501Y-120989832D01*
X121492501Y-121387155D01*
X121385208Y-121475208D01*
X121275542Y-121608836D01*
X121194053Y-121761291D01*
X121143872Y-121926715D01*
X121126928Y-122098750D01*
X121126928Y-123011250D01*
X121143872Y-123183285D01*
X121194053Y-123348709D01*
X121275542Y-123501164D01*
X121385208Y-123634792D01*
X121518836Y-123744458D01*
X121671291Y-123825947D01*
X121836715Y-123876128D01*
X122008750Y-123893072D01*
X122496250Y-123893072D01*
X122668285Y-123876128D01*
X122833709Y-123825947D01*
X122986164Y-123744458D01*
X123119792Y-123634792D01*
X123125008Y-123628436D01*
X123188815Y-123706185D01*
X123285506Y-123785537D01*
X123395820Y-123844502D01*
X123515518Y-123880812D01*
X123640000Y-123893072D01*
X123841750Y-123890000D01*
X124000500Y-123731250D01*
X124000500Y-122682000D01*
X124254500Y-122682000D01*
X124254500Y-123731250D01*
X124413250Y-123890000D01*
X124615000Y-123893072D01*
X124739482Y-123880812D01*
X124859180Y-123844502D01*
X124969494Y-123785537D01*
X125066185Y-123706185D01*
X125145537Y-123609494D01*
X125204502Y-123499180D01*
X125240812Y-123379482D01*
X125253072Y-123255000D01*
X125250000Y-122840750D01*
X125091250Y-122682000D01*
X124254500Y-122682000D01*
X124000500Y-122682000D01*
X123980500Y-122682000D01*
X123980500Y-122428000D01*
X124000500Y-122428000D01*
X124000500Y-121378750D01*
X124254500Y-121378750D01*
X124254500Y-122428000D01*
X125091250Y-122428000D01*
X125250000Y-122269250D01*
X125253072Y-121855000D01*
X125240812Y-121730518D01*
X125204502Y-121610820D01*
X125145537Y-121500506D01*
X125066185Y-121403815D01*
X124969494Y-121324463D01*
X124859180Y-121265498D01*
X124739482Y-121229188D01*
X124615000Y-121216928D01*
X124413250Y-121220000D01*
X124254500Y-121378750D01*
X124000500Y-121378750D01*
X123841750Y-121220000D01*
X123640000Y-121216928D01*
X123515518Y-121229188D01*
X123395820Y-121265498D01*
X123285506Y-121324463D01*
X123188815Y-121403815D01*
X123125008Y-121481564D01*
X123119792Y-121475208D01*
X123012500Y-121387155D01*
X123012500Y-121267301D01*
X125932945Y-118346857D01*
X125934188Y-118359482D01*
X125970498Y-118479180D01*
X126029463Y-118589494D01*
X126108815Y-118686185D01*
X126205506Y-118765537D01*
X126315820Y-118824502D01*
X126435518Y-118860812D01*
X126560000Y-118873072D01*
X126675000Y-118873072D01*
X126675000Y-118880530D01*
X126670719Y-118924000D01*
X126675000Y-118967469D01*
X126675000Y-118967476D01*
X126687805Y-119097489D01*
X126738411Y-119264312D01*
X126800000Y-119379539D01*
X126800001Y-121269277D01*
X126751291Y-121284053D01*
X126598836Y-121365542D01*
X126465208Y-121475208D01*
X126355542Y-121608836D01*
X126274053Y-121761291D01*
X126223872Y-121926715D01*
X126206928Y-122098750D01*
X126206928Y-123011250D01*
X126223872Y-123183285D01*
X126274053Y-123348709D01*
X126355542Y-123501164D01*
X126465208Y-123634792D01*
X126598836Y-123744458D01*
X126751291Y-123825947D01*
X126916715Y-123876128D01*
X127088750Y-123893072D01*
X127576250Y-123893072D01*
X127748285Y-123876128D01*
X127913709Y-123825947D01*
X128066164Y-123744458D01*
X128199792Y-123634792D01*
X128205008Y-123628436D01*
X128268815Y-123706185D01*
X128365506Y-123785537D01*
X128475820Y-123844502D01*
X128595518Y-123880812D01*
X128720000Y-123893072D01*
X128921750Y-123890000D01*
X129080500Y-123731250D01*
X129080500Y-122682000D01*
X129334500Y-122682000D01*
X129334500Y-123731250D01*
X129493250Y-123890000D01*
X129695000Y-123893072D01*
X129819482Y-123880812D01*
X129939180Y-123844502D01*
X130049494Y-123785537D01*
X130146185Y-123706185D01*
X130225537Y-123609494D01*
X130284502Y-123499180D01*
X130320812Y-123379482D01*
X130333072Y-123255000D01*
X130330000Y-122840750D01*
X130171250Y-122682000D01*
X129334500Y-122682000D01*
X129080500Y-122682000D01*
X129060500Y-122682000D01*
X129060500Y-122428000D01*
X129080500Y-122428000D01*
X129080500Y-122408000D01*
X129334500Y-122408000D01*
X129334500Y-122428000D01*
X130171250Y-122428000D01*
X130330000Y-122269250D01*
X130333072Y-121855000D01*
X130320812Y-121730518D01*
X130284502Y-121610820D01*
X130225537Y-121500506D01*
X130146185Y-121403815D01*
X130063639Y-121336072D01*
X130089937Y-121309774D01*
X130203205Y-121140256D01*
X130281226Y-120951898D01*
X130321000Y-120751939D01*
X130321000Y-120548061D01*
X130281226Y-120348102D01*
X130203205Y-120159744D01*
X130089937Y-119990226D01*
X129945774Y-119846063D01*
X129776256Y-119732795D01*
X129587898Y-119654774D01*
X129531044Y-119643465D01*
X128733516Y-118845938D01*
X128804180Y-118824502D01*
X128914494Y-118765537D01*
X129011185Y-118686185D01*
X129090537Y-118589494D01*
X129149502Y-118479180D01*
X129185812Y-118359482D01*
X129198072Y-118235000D01*
X129198072Y-117409999D01*
X129766928Y-117409999D01*
X129766928Y-118260001D01*
X129783992Y-118433255D01*
X129834528Y-118599851D01*
X129916595Y-118753387D01*
X130027038Y-118887962D01*
X130161613Y-118998405D01*
X130315149Y-119080472D01*
X130481745Y-119131008D01*
X130654999Y-119148072D01*
X133505001Y-119148072D01*
X133678255Y-119131008D01*
X133844851Y-119080472D01*
X133998387Y-118998405D01*
X134132962Y-118887962D01*
X134243405Y-118753387D01*
X134325472Y-118599851D01*
X134376008Y-118433255D01*
X134393072Y-118260001D01*
X134393072Y-117409999D01*
X134376008Y-117236745D01*
X134325472Y-117070149D01*
X134243405Y-116916613D01*
X134132962Y-116782038D01*
X133998387Y-116671595D01*
X133844851Y-116589528D01*
X133678255Y-116538992D01*
X133505001Y-116521928D01*
X133069000Y-116521928D01*
X133075226Y-116506898D01*
X133115000Y-116306939D01*
X133115000Y-116103061D01*
X133075226Y-115903102D01*
X132997205Y-115714744D01*
X132883937Y-115545226D01*
X132739774Y-115401063D01*
X132570256Y-115287795D01*
X132381898Y-115209774D01*
X132181939Y-115170000D01*
X131978061Y-115170000D01*
X131778102Y-115209774D01*
X131589744Y-115287795D01*
X131420226Y-115401063D01*
X131276063Y-115545226D01*
X131162795Y-115714744D01*
X131084774Y-115903102D01*
X131045000Y-116103061D01*
X131045000Y-116306939D01*
X131084774Y-116506898D01*
X131091000Y-116521928D01*
X130654999Y-116521928D01*
X130481745Y-116538992D01*
X130315149Y-116589528D01*
X130161613Y-116671595D01*
X130027038Y-116782038D01*
X129916595Y-116916613D01*
X129834528Y-117070149D01*
X129783992Y-117236745D01*
X129766928Y-117409999D01*
X129198072Y-117409999D01*
X129198072Y-116735000D01*
X129185812Y-116610518D01*
X129149502Y-116490820D01*
X129090537Y-116380506D01*
X129011185Y-116283815D01*
X128914494Y-116204463D01*
X128804180Y-116145498D01*
X128684482Y-116109188D01*
X128560000Y-116096928D01*
X128185730Y-116096928D01*
X128198803Y-116080998D01*
X128399802Y-115879999D01*
X128461940Y-115879999D01*
X128661899Y-115840225D01*
X128850257Y-115762204D01*
X129019775Y-115648936D01*
X129163938Y-115504773D01*
X129277206Y-115335255D01*
X129355227Y-115146897D01*
X129395001Y-114946938D01*
X129395001Y-114743060D01*
X129355227Y-114543101D01*
X129277206Y-114354743D01*
X129163938Y-114185225D01*
X129019775Y-114041062D01*
X128850257Y-113927794D01*
X128661899Y-113849773D01*
X128461940Y-113809999D01*
X128258062Y-113809999D01*
X128058103Y-113849773D01*
X127869745Y-113927794D01*
X127700227Y-114041062D01*
X127556064Y-114185225D01*
X127442796Y-114354743D01*
X127364775Y-114543101D01*
X127325001Y-114743060D01*
X127325001Y-114805198D01*
X127320199Y-114810000D01*
X127177320Y-114810000D01*
X127139997Y-114806324D01*
X127102674Y-114810000D01*
X127102665Y-114810000D01*
X126991012Y-114820997D01*
X126847751Y-114864454D01*
X126715722Y-114935026D01*
X126599997Y-115029999D01*
X126576199Y-115058997D01*
X125345000Y-116290197D01*
X125345000Y-113135000D01*
X125921928Y-113135000D01*
X125934188Y-113259482D01*
X125970498Y-113379180D01*
X126029463Y-113489494D01*
X126108815Y-113586185D01*
X126205506Y-113665537D01*
X126315820Y-113724502D01*
X126435518Y-113760812D01*
X126560000Y-113773072D01*
X127274250Y-113770000D01*
X127433000Y-113611250D01*
X127433000Y-112512000D01*
X127687000Y-112512000D01*
X127687000Y-113611250D01*
X127845750Y-113770000D01*
X128560000Y-113773072D01*
X128684482Y-113760812D01*
X128804180Y-113724502D01*
X128914494Y-113665537D01*
X129011185Y-113586185D01*
X129090537Y-113489494D01*
X129149502Y-113379180D01*
X129185812Y-113259482D01*
X129198072Y-113135000D01*
X129195000Y-112670750D01*
X129036250Y-112512000D01*
X127687000Y-112512000D01*
X127433000Y-112512000D01*
X126083750Y-112512000D01*
X125925000Y-112670750D01*
X125921928Y-113135000D01*
X125345000Y-113135000D01*
X125345000Y-112126578D01*
X125931252Y-111540326D01*
X125921928Y-111635000D01*
X125925000Y-112099250D01*
X126083750Y-112258000D01*
X127433000Y-112258000D01*
X127433000Y-111158750D01*
X127687000Y-111158750D01*
X127687000Y-112258000D01*
X129036250Y-112258000D01*
X129195000Y-112099250D01*
X129198072Y-111635000D01*
X129185812Y-111510518D01*
X129149502Y-111390820D01*
X129090537Y-111280506D01*
X129011185Y-111183815D01*
X128914494Y-111104463D01*
X128804180Y-111045498D01*
X128684482Y-111009188D01*
X128560000Y-110996928D01*
X127845750Y-111000000D01*
X127687000Y-111158750D01*
X127433000Y-111158750D01*
X127274250Y-111000000D01*
X126560000Y-110996928D01*
X126465326Y-111006252D01*
X127436532Y-110035047D01*
X127436534Y-110035044D01*
X129906579Y-107565000D01*
X130220019Y-107565000D01*
X130275506Y-107610537D01*
X130385820Y-107669502D01*
X130505518Y-107705812D01*
X130630000Y-107718072D01*
X131530000Y-107718072D01*
X131654482Y-107705812D01*
X131774180Y-107669502D01*
X131884494Y-107610537D01*
X131981185Y-107531185D01*
X131991928Y-107518095D01*
X131991928Y-108030000D01*
G36*
X137770000Y-100340569D02*
G01*
X137567490Y-100256686D01*
X137297592Y-100203000D01*
X137022408Y-100203000D01*
X136752510Y-100256686D01*
X136498273Y-100361995D01*
X136269465Y-100514880D01*
X136074880Y-100709465D01*
X135921995Y-100938273D01*
X135816686Y-101192510D01*
X135763000Y-101462408D01*
X135763000Y-101737592D01*
X135816686Y-102007490D01*
X135921995Y-102261727D01*
X136074880Y-102490535D01*
X136269465Y-102685120D01*
X136498273Y-102838005D01*
X136575515Y-102870000D01*
X136498273Y-102901995D01*
X136269465Y-103054880D01*
X136074880Y-103249465D01*
X136015000Y-103339082D01*
X136015000Y-102792322D01*
X136018676Y-102754999D01*
X136015000Y-102717677D01*
X136015000Y-102717667D01*
X136004003Y-102606014D01*
X135960546Y-102462753D01*
X135929108Y-102403937D01*
X135889974Y-102330723D01*
X135818799Y-102243997D01*
X135795001Y-102214999D01*
X135766004Y-102191202D01*
X134343804Y-100769003D01*
X134320001Y-100739999D01*
X134204276Y-100645026D01*
X134092482Y-100585270D01*
X134060537Y-100525506D01*
X133981185Y-100428815D01*
X133884494Y-100349463D01*
X133848082Y-100330000D01*
X133884494Y-100310537D01*
X133981185Y-100231185D01*
X134060537Y-100134494D01*
X134119502Y-100024180D01*
X134155812Y-99904482D01*
X134168072Y-99780000D01*
X134165000Y-99665750D01*
X134006250Y-99507000D01*
X133207000Y-99507000D01*
X133207000Y-99527000D01*
X132953000Y-99527000D01*
X132953000Y-99507000D01*
X132153750Y-99507000D01*
X132069143Y-99591607D01*
X132060537Y-99575506D01*
X131981185Y-99478815D01*
X131884494Y-99399463D01*
X131774180Y-99340498D01*
X131654482Y-99304188D01*
X131530000Y-99291928D01*
X130630000Y-99291928D01*
X130505518Y-99304188D01*
X130385820Y-99340498D01*
X130275506Y-99399463D01*
X130178815Y-99478815D01*
X130099463Y-99575506D01*
X130040498Y-99685820D01*
X130004188Y-99805518D01*
X129991928Y-99930000D01*
X129991928Y-100730000D01*
X130004188Y-100854482D01*
X130040498Y-100974180D01*
X130099463Y-101084494D01*
X130178815Y-101181185D01*
X130179001Y-101181338D01*
X130179001Y-102348781D01*
X130149939Y-102343000D01*
X129946061Y-102343000D01*
X129746102Y-102382774D01*
X129557744Y-102460795D01*
X129388226Y-102574063D01*
X129344289Y-102618000D01*
X128580622Y-102618000D01*
X128650974Y-102532276D01*
X128721546Y-102400247D01*
X128765003Y-102256986D01*
X128776000Y-102145333D01*
X128776000Y-102145324D01*
X128779676Y-102108001D01*
X128776000Y-102070678D01*
X128776000Y-100703325D01*
X128779676Y-100666000D01*
X128776000Y-100628675D01*
X128776000Y-100628667D01*
X128765003Y-100517014D01*
X128721546Y-100373753D01*
X128650974Y-100241724D01*
X128556001Y-100125999D01*
X128526998Y-100102197D01*
X128243804Y-99819003D01*
X128220001Y-99789999D01*
X128104276Y-99695026D01*
X127972247Y-99624454D01*
X127900871Y-99602803D01*
X127881185Y-99578815D01*
X127784494Y-99499463D01*
X127674180Y-99440498D01*
X127554482Y-99404188D01*
X127430000Y-99391928D01*
X126130000Y-99391928D01*
X126005518Y-99404188D01*
X125968072Y-99415547D01*
X125968072Y-99080000D01*
X125958224Y-98980000D01*
X131991928Y-98980000D01*
X131995000Y-99094250D01*
X132153750Y-99253000D01*
X132953000Y-99253000D01*
X132953000Y-98503750D01*
X133207000Y-98503750D01*
X133207000Y-99253000D01*
X134006250Y-99253000D01*
X134165000Y-99094250D01*
X134168072Y-98980000D01*
X134155812Y-98855518D01*
X134119502Y-98735820D01*
X134060537Y-98625506D01*
X133981185Y-98528815D01*
X133884494Y-98449463D01*
X133774180Y-98390498D01*
X133654482Y-98354188D01*
X133530000Y-98341928D01*
X133365750Y-98345000D01*
X133207000Y-98503750D01*
X132953000Y-98503750D01*
X132794250Y-98345000D01*
X132630000Y-98341928D01*
X132505518Y-98354188D01*
X132385820Y-98390498D01*
X132275506Y-98449463D01*
X132178815Y-98528815D01*
X132099463Y-98625506D01*
X132040498Y-98735820D01*
X132004188Y-98855518D01*
X131991928Y-98980000D01*
X125958224Y-98980000D01*
X125955812Y-98955518D01*
X125919502Y-98835820D01*
X125860537Y-98725506D01*
X125781185Y-98628815D01*
X125684494Y-98549463D01*
X125574180Y-98490498D01*
X125454482Y-98454188D01*
X125330000Y-98441928D01*
X124030000Y-98441928D01*
X124022308Y-98442686D01*
X123993937Y-98400226D01*
X123849774Y-98256063D01*
X123680256Y-98142795D01*
X123491898Y-98064774D01*
X123291939Y-98025000D01*
X123088061Y-98025000D01*
X122888102Y-98064774D01*
X122699744Y-98142795D01*
X122530226Y-98256063D01*
X122486289Y-98300000D01*
X118737322Y-98300000D01*
X118699999Y-98296324D01*
X118662676Y-98300000D01*
X118662667Y-98300000D01*
X118551014Y-98310997D01*
X118449046Y-98341928D01*
X117930000Y-98341928D01*
X117805518Y-98354188D01*
X117685820Y-98390498D01*
X117575506Y-98449463D01*
X117478815Y-98528815D01*
X117399463Y-98625506D01*
X117340498Y-98735820D01*
X117304188Y-98855518D01*
X117291928Y-98980000D01*
X117291928Y-99780000D01*
X117304188Y-99904482D01*
X117340498Y-100024180D01*
X117399463Y-100134494D01*
X117478815Y-100231185D01*
X117575506Y-100310537D01*
X117611918Y-100330000D01*
X117575506Y-100349463D01*
X117478815Y-100428815D01*
X117399463Y-100525506D01*
X117340498Y-100635820D01*
X117304188Y-100755518D01*
X117291928Y-100880000D01*
X117295000Y-100994250D01*
X117453750Y-101153000D01*
X118253000Y-101153000D01*
X118253000Y-101133000D01*
X118507000Y-101133000D01*
X118507000Y-101153000D01*
X119306250Y-101153000D01*
X119390857Y-101068393D01*
X119399463Y-101084494D01*
X119478815Y-101181185D01*
X119575506Y-101260537D01*
X119685820Y-101319502D01*
X119805518Y-101355812D01*
X119930000Y-101368072D01*
X120613271Y-101368072D01*
X120885000Y-101639802D01*
X120885000Y-101701939D01*
X120924774Y-101901898D01*
X121002795Y-102090256D01*
X121116063Y-102259774D01*
X121260226Y-102403937D01*
X121290820Y-102424379D01*
X120335199Y-103380000D01*
X116877333Y-103380000D01*
X116840000Y-103376323D01*
X116802667Y-103380000D01*
X116691014Y-103390997D01*
X116547753Y-103434454D01*
X116415724Y-103505026D01*
X116299999Y-103599999D01*
X116205026Y-103715724D01*
X116134454Y-103847753D01*
X116090997Y-103991014D01*
X116076323Y-104140000D01*
X116080000Y-104177333D01*
X116080001Y-106642657D01*
X116076323Y-106680000D01*
X116090997Y-106828986D01*
X116134454Y-106972247D01*
X116205026Y-107104276D01*
X116299999Y-107220001D01*
X116415724Y-107314974D01*
X116547753Y-107385546D01*
X116691014Y-107429003D01*
X116802667Y-107440000D01*
X116840000Y-107443677D01*
X116877333Y-107440000D01*
X117390750Y-107440000D01*
X117453750Y-107503000D01*
X118253000Y-107503000D01*
X118253000Y-107483000D01*
X118507000Y-107483000D01*
X118507000Y-107503000D01*
X119306250Y-107503000D01*
X119369250Y-107440000D01*
X119403982Y-107440000D01*
X119478815Y-107531185D01*
X119575506Y-107610537D01*
X119685820Y-107669502D01*
X119805518Y-107705812D01*
X119930000Y-107718072D01*
X120525000Y-107718072D01*
X120525001Y-119065197D01*
X119065199Y-120525000D01*
X117835579Y-120525000D01*
X119415049Y-118945530D01*
X119448817Y-118917817D01*
X119485539Y-118873072D01*
X119820000Y-118873072D01*
X119944482Y-118860812D01*
X120064180Y-118824502D01*
X120174494Y-118765537D01*
X120271185Y-118686185D01*
X120350537Y-118589494D01*
X120409502Y-118479180D01*
X120445812Y-118359482D01*
X120458072Y-118235000D01*
X120458072Y-116735000D01*
X120445812Y-116610518D01*
X120409502Y-116490820D01*
X120350537Y-116380506D01*
X120271185Y-116283815D01*
X120174494Y-116204463D01*
X120064180Y-116145498D01*
X119944482Y-116109188D01*
X119820000Y-116096928D01*
X117820000Y-116096928D01*
X117695518Y-116109188D01*
X117575820Y-116145498D01*
X117465506Y-116204463D01*
X117368815Y-116283815D01*
X117289463Y-116380506D01*
X117230498Y-116490820D01*
X117194188Y-116610518D01*
X117181928Y-116735000D01*
X117181928Y-118235000D01*
X117194188Y-118359482D01*
X117230498Y-118479180D01*
X117281961Y-118575460D01*
X117090000Y-118767421D01*
X117090000Y-113866578D01*
X117369682Y-113586897D01*
X117465506Y-113665537D01*
X117575820Y-113724502D01*
X117695518Y-113760812D01*
X117820000Y-113773072D01*
X119820000Y-113773072D01*
X119944482Y-113760812D01*
X120064180Y-113724502D01*
X120174494Y-113665537D01*
X120271185Y-113586185D01*
X120350537Y-113489494D01*
X120409502Y-113379180D01*
X120445812Y-113259482D01*
X120458072Y-113135000D01*
X120458072Y-111635000D01*
X120445812Y-111510518D01*
X120409502Y-111390820D01*
X120350537Y-111280506D01*
X120271185Y-111183815D01*
X120174494Y-111104463D01*
X120064180Y-111045498D01*
X119944482Y-111009188D01*
X119820000Y-110996928D01*
X117820000Y-110996928D01*
X117695518Y-111009188D01*
X117575820Y-111045498D01*
X117465506Y-111104463D01*
X117368815Y-111183815D01*
X117289463Y-111280506D01*
X117230498Y-111390820D01*
X117194941Y-111508035D01*
X117146510Y-111512805D01*
X116979687Y-111563411D01*
X116825941Y-111645589D01*
X116825939Y-111645590D01*
X116825940Y-111645590D01*
X116724953Y-111728468D01*
X116724951Y-111728470D01*
X116691183Y-111756183D01*
X116663470Y-111789951D01*
X115609956Y-112843466D01*
X115576183Y-112871183D01*
X115465589Y-113005942D01*
X115383411Y-113159688D01*
X115332805Y-113326511D01*
X115330058Y-113354403D01*
X115190535Y-113214880D01*
X114961727Y-113061995D01*
X114884485Y-113030000D01*
X114961727Y-112998005D01*
X115190535Y-112845120D01*
X115385120Y-112650535D01*
X115538005Y-112421727D01*
X115643314Y-112167490D01*
X115697000Y-111897592D01*
X115697000Y-111622408D01*
X115643314Y-111352510D01*
X115538005Y-111098273D01*
X115385120Y-110869465D01*
X115190535Y-110674880D01*
X114961727Y-110521995D01*
X114884485Y-110490000D01*
X114961727Y-110458005D01*
X115190535Y-110305120D01*
X115385120Y-110110535D01*
X115538005Y-109881727D01*
X115643314Y-109627490D01*
X115697000Y-109357592D01*
X115697000Y-109082408D01*
X115643314Y-108812510D01*
X115538005Y-108558273D01*
X115385120Y-108329465D01*
X115190535Y-108134880D01*
X115033572Y-108030000D01*
X117291928Y-108030000D01*
X117304188Y-108154482D01*
X117340498Y-108274180D01*
X117399463Y-108384494D01*
X117478815Y-108481185D01*
X117575506Y-108560537D01*
X117685820Y-108619502D01*
X117805518Y-108655812D01*
X117930000Y-108668072D01*
X118094250Y-108665000D01*
X118253000Y-108506250D01*
X118253000Y-107757000D01*
X118507000Y-107757000D01*
X118507000Y-108506250D01*
X118665750Y-108665000D01*
X118830000Y-108668072D01*
X118954482Y-108655812D01*
X119074180Y-108619502D01*
X119184494Y-108560537D01*
X119281185Y-108481185D01*
X119360537Y-108384494D01*
X119419502Y-108274180D01*
X119455812Y-108154482D01*
X119468072Y-108030000D01*
X119465000Y-107915750D01*
X119306250Y-107757000D01*
X118507000Y-107757000D01*
X118253000Y-107757000D01*
X117453750Y-107757000D01*
X117295000Y-107915750D01*
X117291928Y-108030000D01*
X115033572Y-108030000D01*
X114961727Y-107981995D01*
X114884485Y-107950000D01*
X114961727Y-107918005D01*
X115190535Y-107765120D01*
X115385120Y-107570535D01*
X115538005Y-107341727D01*
X115643314Y-107087490D01*
X115697000Y-106817592D01*
X115697000Y-106542408D01*
X115643314Y-106272510D01*
X115538005Y-106018273D01*
X115385120Y-105789465D01*
X115190535Y-105594880D01*
X114961727Y-105441995D01*
X114884485Y-105410000D01*
X114961727Y-105378005D01*
X115190535Y-105225120D01*
X115385120Y-105030535D01*
X115538005Y-104801727D01*
X115643314Y-104547490D01*
X115697000Y-104277592D01*
X115697000Y-104002408D01*
X115643314Y-103732510D01*
X115538005Y-103478273D01*
X115385120Y-103249465D01*
X115190535Y-103054880D01*
X114961727Y-102901995D01*
X114884485Y-102870000D01*
X114961727Y-102838005D01*
X115190535Y-102685120D01*
X115385120Y-102490535D01*
X115538005Y-102261727D01*
X115643314Y-102007490D01*
X115697000Y-101737592D01*
X115697000Y-101680000D01*
X117291928Y-101680000D01*
X117304188Y-101804482D01*
X117340498Y-101924180D01*
X117399463Y-102034494D01*
X117478815Y-102131185D01*
X117575506Y-102210537D01*
X117685820Y-102269502D01*
X117805518Y-102305812D01*
X117930000Y-102318072D01*
X118094250Y-102315000D01*
X118253000Y-102156250D01*
X118253000Y-101407000D01*
X118507000Y-101407000D01*
X118507000Y-102156250D01*
X118665750Y-102315000D01*
X118830000Y-102318072D01*
X118954482Y-102305812D01*
X119074180Y-102269502D01*
X119184494Y-102210537D01*
X119281185Y-102131185D01*
X119360537Y-102034494D01*
X119419502Y-101924180D01*
X119455812Y-101804482D01*
X119468072Y-101680000D01*
X119465000Y-101565750D01*
X119306250Y-101407000D01*
X118507000Y-101407000D01*
X118253000Y-101407000D01*
X117453750Y-101407000D01*
X117295000Y-101565750D01*
X117291928Y-101680000D01*
X115697000Y-101680000D01*
X115697000Y-101462408D01*
X115643314Y-101192510D01*
X115538005Y-100938273D01*
X115385120Y-100709465D01*
X115190535Y-100514880D01*
X114961727Y-100361995D01*
X114707490Y-100256686D01*
X114437592Y-100203000D01*
X114162408Y-100203000D01*
X113892510Y-100256686D01*
X113690000Y-100340569D01*
X113690000Y-97942000D01*
X137770000Y-97942000D01*
X137770000Y-100340569D01*
G37*
X137770000Y-100340569D02*
X137567490Y-100256686D01*
X137297592Y-100203000D01*
X137022408Y-100203000D01*
X136752510Y-100256686D01*
X136498273Y-100361995D01*
X136269465Y-100514880D01*
X136074880Y-100709465D01*
X135921995Y-100938273D01*
X135816686Y-101192510D01*
X135763000Y-101462408D01*
X135763000Y-101737592D01*
X135816686Y-102007490D01*
X135921995Y-102261727D01*
X136074880Y-102490535D01*
X136269465Y-102685120D01*
X136498273Y-102838005D01*
X136575515Y-102870000D01*
X136498273Y-102901995D01*
X136269465Y-103054880D01*
X136074880Y-103249465D01*
X136015000Y-103339082D01*
X136015000Y-102792322D01*
X136018676Y-102754999D01*
X136015000Y-102717677D01*
X136015000Y-102717667D01*
X136004003Y-102606014D01*
X135960546Y-102462753D01*
X135929108Y-102403937D01*
X135889974Y-102330723D01*
X135818799Y-102243997D01*
X135795001Y-102214999D01*
X135766004Y-102191202D01*
X134343804Y-100769003D01*
X134320001Y-100739999D01*
X134204276Y-100645026D01*
X134092482Y-100585270D01*
X134060537Y-100525506D01*
X133981185Y-100428815D01*
X133884494Y-100349463D01*
X133848082Y-100330000D01*
X133884494Y-100310537D01*
X133981185Y-100231185D01*
X134060537Y-100134494D01*
X134119502Y-100024180D01*
X134155812Y-99904482D01*
X134168072Y-99780000D01*
X134165000Y-99665750D01*
X134006250Y-99507000D01*
X133207000Y-99507000D01*
X133207000Y-99527000D01*
X132953000Y-99527000D01*
X132953000Y-99507000D01*
X132153750Y-99507000D01*
X132069143Y-99591607D01*
X132060537Y-99575506D01*
X131981185Y-99478815D01*
X131884494Y-99399463D01*
X131774180Y-99340498D01*
X131654482Y-99304188D01*
X131530000Y-99291928D01*
X130630000Y-99291928D01*
X130505518Y-99304188D01*
X130385820Y-99340498D01*
X130275506Y-99399463D01*
X130178815Y-99478815D01*
X130099463Y-99575506D01*
X130040498Y-99685820D01*
X130004188Y-99805518D01*
X129991928Y-99930000D01*
X129991928Y-100730000D01*
X130004188Y-100854482D01*
X130040498Y-100974180D01*
X130099463Y-101084494D01*
X130178815Y-101181185D01*
X130179001Y-101181338D01*
X130179001Y-102348781D01*
X130149939Y-102343000D01*
X129946061Y-102343000D01*
X129746102Y-102382774D01*
X129557744Y-102460795D01*
X129388226Y-102574063D01*
X129344289Y-102618000D01*
X128580622Y-102618000D01*
X128650974Y-102532276D01*
X128721546Y-102400247D01*
X128765003Y-102256986D01*
X128776000Y-102145333D01*
X128776000Y-102145324D01*
X128779676Y-102108001D01*
X128776000Y-102070678D01*
X128776000Y-100703325D01*
X128779676Y-100666000D01*
X128776000Y-100628675D01*
X128776000Y-100628667D01*
X128765003Y-100517014D01*
X128721546Y-100373753D01*
X128650974Y-100241724D01*
X128556001Y-100125999D01*
X128526998Y-100102197D01*
X128243804Y-99819003D01*
X128220001Y-99789999D01*
X128104276Y-99695026D01*
X127972247Y-99624454D01*
X127900871Y-99602803D01*
X127881185Y-99578815D01*
X127784494Y-99499463D01*
X127674180Y-99440498D01*
X127554482Y-99404188D01*
X127430000Y-99391928D01*
X126130000Y-99391928D01*
X126005518Y-99404188D01*
X125968072Y-99415547D01*
X125968072Y-99080000D01*
X125958224Y-98980000D01*
X131991928Y-98980000D01*
X131995000Y-99094250D01*
X132153750Y-99253000D01*
X132953000Y-99253000D01*
X132953000Y-98503750D01*
X133207000Y-98503750D01*
X133207000Y-99253000D01*
X134006250Y-99253000D01*
X134165000Y-99094250D01*
X134168072Y-98980000D01*
X134155812Y-98855518D01*
X134119502Y-98735820D01*
X134060537Y-98625506D01*
X133981185Y-98528815D01*
X133884494Y-98449463D01*
X133774180Y-98390498D01*
X133654482Y-98354188D01*
X133530000Y-98341928D01*
X133365750Y-98345000D01*
X133207000Y-98503750D01*
X132953000Y-98503750D01*
X132794250Y-98345000D01*
X132630000Y-98341928D01*
X132505518Y-98354188D01*
X132385820Y-98390498D01*
X132275506Y-98449463D01*
X132178815Y-98528815D01*
X132099463Y-98625506D01*
X132040498Y-98735820D01*
X132004188Y-98855518D01*
X131991928Y-98980000D01*
X125958224Y-98980000D01*
X125955812Y-98955518D01*
X125919502Y-98835820D01*
X125860537Y-98725506D01*
X125781185Y-98628815D01*
X125684494Y-98549463D01*
X125574180Y-98490498D01*
X125454482Y-98454188D01*
X125330000Y-98441928D01*
X124030000Y-98441928D01*
X124022308Y-98442686D01*
X123993937Y-98400226D01*
X123849774Y-98256063D01*
X123680256Y-98142795D01*
X123491898Y-98064774D01*
X123291939Y-98025000D01*
X123088061Y-98025000D01*
X122888102Y-98064774D01*
X122699744Y-98142795D01*
X122530226Y-98256063D01*
X122486289Y-98300000D01*
X118737322Y-98300000D01*
X118699999Y-98296324D01*
X118662676Y-98300000D01*
X118662667Y-98300000D01*
X118551014Y-98310997D01*
X118449046Y-98341928D01*
X117930000Y-98341928D01*
X117805518Y-98354188D01*
X117685820Y-98390498D01*
X117575506Y-98449463D01*
X117478815Y-98528815D01*
X117399463Y-98625506D01*
X117340498Y-98735820D01*
X117304188Y-98855518D01*
X117291928Y-98980000D01*
X117291928Y-99780000D01*
X117304188Y-99904482D01*
X117340498Y-100024180D01*
X117399463Y-100134494D01*
X117478815Y-100231185D01*
X117575506Y-100310537D01*
X117611918Y-100330000D01*
X117575506Y-100349463D01*
X117478815Y-100428815D01*
X117399463Y-100525506D01*
X117340498Y-100635820D01*
X117304188Y-100755518D01*
X117291928Y-100880000D01*
X117295000Y-100994250D01*
X117453750Y-101153000D01*
X118253000Y-101153000D01*
X118253000Y-101133000D01*
X118507000Y-101133000D01*
X118507000Y-101153000D01*
X119306250Y-101153000D01*
X119390857Y-101068393D01*
X119399463Y-101084494D01*
X119478815Y-101181185D01*
X119575506Y-101260537D01*
X119685820Y-101319502D01*
X119805518Y-101355812D01*
X119930000Y-101368072D01*
X120613271Y-101368072D01*
X120885000Y-101639802D01*
X120885000Y-101701939D01*
X120924774Y-101901898D01*
X121002795Y-102090256D01*
X121116063Y-102259774D01*
X121260226Y-102403937D01*
X121290820Y-102424379D01*
X120335199Y-103380000D01*
X116877333Y-103380000D01*
X116840000Y-103376323D01*
X116802667Y-103380000D01*
X116691014Y-103390997D01*
X116547753Y-103434454D01*
X116415724Y-103505026D01*
X116299999Y-103599999D01*
X116205026Y-103715724D01*
X116134454Y-103847753D01*
X116090997Y-103991014D01*
X116076323Y-104140000D01*
X116080000Y-104177333D01*
X116080001Y-106642657D01*
X116076323Y-106680000D01*
X116090997Y-106828986D01*
X116134454Y-106972247D01*
X116205026Y-107104276D01*
X116299999Y-107220001D01*
X116415724Y-107314974D01*
X116547753Y-107385546D01*
X116691014Y-107429003D01*
X116802667Y-107440000D01*
X116840000Y-107443677D01*
X116877333Y-107440000D01*
X117390750Y-107440000D01*
X117453750Y-107503000D01*
X118253000Y-107503000D01*
X118253000Y-107483000D01*
X118507000Y-107483000D01*
X118507000Y-107503000D01*
X119306250Y-107503000D01*
X119369250Y-107440000D01*
X119403982Y-107440000D01*
X119478815Y-107531185D01*
X119575506Y-107610537D01*
X119685820Y-107669502D01*
X119805518Y-107705812D01*
X119930000Y-107718072D01*
X120525000Y-107718072D01*
X120525001Y-119065197D01*
X119065199Y-120525000D01*
X117835579Y-120525000D01*
X119415049Y-118945530D01*
X119448817Y-118917817D01*
X119485539Y-118873072D01*
X119820000Y-118873072D01*
X119944482Y-118860812D01*
X120064180Y-118824502D01*
X120174494Y-118765537D01*
X120271185Y-118686185D01*
X120350537Y-118589494D01*
X120409502Y-118479180D01*
X120445812Y-118359482D01*
X120458072Y-118235000D01*
X120458072Y-116735000D01*
X120445812Y-116610518D01*
X120409502Y-116490820D01*
X120350537Y-116380506D01*
X120271185Y-116283815D01*
X120174494Y-116204463D01*
X120064180Y-116145498D01*
X119944482Y-116109188D01*
X119820000Y-116096928D01*
X117820000Y-116096928D01*
X117695518Y-116109188D01*
X117575820Y-116145498D01*
X117465506Y-116204463D01*
X117368815Y-116283815D01*
X117289463Y-116380506D01*
X117230498Y-116490820D01*
X117194188Y-116610518D01*
X117181928Y-116735000D01*
X117181928Y-118235000D01*
X117194188Y-118359482D01*
X117230498Y-118479180D01*
X117281961Y-118575460D01*
X117090000Y-118767421D01*
X117090000Y-113866578D01*
X117369682Y-113586897D01*
X117465506Y-113665537D01*
X117575820Y-113724502D01*
X117695518Y-113760812D01*
X117820000Y-113773072D01*
X119820000Y-113773072D01*
X119944482Y-113760812D01*
X120064180Y-113724502D01*
X120174494Y-113665537D01*
X120271185Y-113586185D01*
X120350537Y-113489494D01*
X120409502Y-113379180D01*
X120445812Y-113259482D01*
X120458072Y-113135000D01*
X120458072Y-111635000D01*
X120445812Y-111510518D01*
X120409502Y-111390820D01*
X120350537Y-111280506D01*
X120271185Y-111183815D01*
X120174494Y-111104463D01*
X120064180Y-111045498D01*
X119944482Y-111009188D01*
X119820000Y-110996928D01*
X117820000Y-110996928D01*
X117695518Y-111009188D01*
X117575820Y-111045498D01*
X117465506Y-111104463D01*
X117368815Y-111183815D01*
X117289463Y-111280506D01*
X117230498Y-111390820D01*
X117194941Y-111508035D01*
X117146510Y-111512805D01*
X116979687Y-111563411D01*
X116825941Y-111645589D01*
X116825939Y-111645590D01*
X116825940Y-111645590D01*
X116724953Y-111728468D01*
X116724951Y-111728470D01*
X116691183Y-111756183D01*
X116663470Y-111789951D01*
X115609956Y-112843466D01*
X115576183Y-112871183D01*
X115465589Y-113005942D01*
X115383411Y-113159688D01*
X115332805Y-113326511D01*
X115330058Y-113354403D01*
X115190535Y-113214880D01*
X114961727Y-113061995D01*
X114884485Y-113030000D01*
X114961727Y-112998005D01*
X115190535Y-112845120D01*
X115385120Y-112650535D01*
X115538005Y-112421727D01*
X115643314Y-112167490D01*
X115697000Y-111897592D01*
X115697000Y-111622408D01*
X115643314Y-111352510D01*
X115538005Y-111098273D01*
X115385120Y-110869465D01*
X115190535Y-110674880D01*
X114961727Y-110521995D01*
X114884485Y-110490000D01*
X114961727Y-110458005D01*
X115190535Y-110305120D01*
X115385120Y-110110535D01*
X115538005Y-109881727D01*
X115643314Y-109627490D01*
X115697000Y-109357592D01*
X115697000Y-109082408D01*
X115643314Y-108812510D01*
X115538005Y-108558273D01*
X115385120Y-108329465D01*
X115190535Y-108134880D01*
X115033572Y-108030000D01*
X117291928Y-108030000D01*
X117304188Y-108154482D01*
X117340498Y-108274180D01*
X117399463Y-108384494D01*
X117478815Y-108481185D01*
X117575506Y-108560537D01*
X117685820Y-108619502D01*
X117805518Y-108655812D01*
X117930000Y-108668072D01*
X118094250Y-108665000D01*
X118253000Y-108506250D01*
X118253000Y-107757000D01*
X118507000Y-107757000D01*
X118507000Y-108506250D01*
X118665750Y-108665000D01*
X118830000Y-108668072D01*
X118954482Y-108655812D01*
X119074180Y-108619502D01*
X119184494Y-108560537D01*
X119281185Y-108481185D01*
X119360537Y-108384494D01*
X119419502Y-108274180D01*
X119455812Y-108154482D01*
X119468072Y-108030000D01*
X119465000Y-107915750D01*
X119306250Y-107757000D01*
X118507000Y-107757000D01*
X118253000Y-107757000D01*
X117453750Y-107757000D01*
X117295000Y-107915750D01*
X117291928Y-108030000D01*
X115033572Y-108030000D01*
X114961727Y-107981995D01*
X114884485Y-107950000D01*
X114961727Y-107918005D01*
X115190535Y-107765120D01*
X115385120Y-107570535D01*
X115538005Y-107341727D01*
X115643314Y-107087490D01*
X115697000Y-106817592D01*
X115697000Y-106542408D01*
X115643314Y-106272510D01*
X115538005Y-106018273D01*
X115385120Y-105789465D01*
X115190535Y-105594880D01*
X114961727Y-105441995D01*
X114884485Y-105410000D01*
X114961727Y-105378005D01*
X115190535Y-105225120D01*
X115385120Y-105030535D01*
X115538005Y-104801727D01*
X115643314Y-104547490D01*
X115697000Y-104277592D01*
X115697000Y-104002408D01*
X115643314Y-103732510D01*
X115538005Y-103478273D01*
X115385120Y-103249465D01*
X115190535Y-103054880D01*
X114961727Y-102901995D01*
X114884485Y-102870000D01*
X114961727Y-102838005D01*
X115190535Y-102685120D01*
X115385120Y-102490535D01*
X115538005Y-102261727D01*
X115643314Y-102007490D01*
X115697000Y-101737592D01*
X115697000Y-101680000D01*
X117291928Y-101680000D01*
X117304188Y-101804482D01*
X117340498Y-101924180D01*
X117399463Y-102034494D01*
X117478815Y-102131185D01*
X117575506Y-102210537D01*
X117685820Y-102269502D01*
X117805518Y-102305812D01*
X117930000Y-102318072D01*
X118094250Y-102315000D01*
X118253000Y-102156250D01*
X118253000Y-101407000D01*
X118507000Y-101407000D01*
X118507000Y-102156250D01*
X118665750Y-102315000D01*
X118830000Y-102318072D01*
X118954482Y-102305812D01*
X119074180Y-102269502D01*
X119184494Y-102210537D01*
X119281185Y-102131185D01*
X119360537Y-102034494D01*
X119419502Y-101924180D01*
X119455812Y-101804482D01*
X119468072Y-101680000D01*
X119465000Y-101565750D01*
X119306250Y-101407000D01*
X118507000Y-101407000D01*
X118253000Y-101407000D01*
X117453750Y-101407000D01*
X117295000Y-101565750D01*
X117291928Y-101680000D01*
X115697000Y-101680000D01*
X115697000Y-101462408D01*
X115643314Y-101192510D01*
X115538005Y-100938273D01*
X115385120Y-100709465D01*
X115190535Y-100514880D01*
X114961727Y-100361995D01*
X114707490Y-100256686D01*
X114437592Y-100203000D01*
X114162408Y-100203000D01*
X113892510Y-100256686D01*
X113690000Y-100340569D01*
X113690000Y-97942000D01*
X137770000Y-97942000D01*
X137770000Y-100340569D01*
G36*
X131991928Y-101680000D02*
G01*
X132004188Y-101804482D01*
X132040498Y-101924180D01*
X132099463Y-102034494D01*
X132178815Y-102131185D01*
X132275506Y-102210537D01*
X132385820Y-102269502D01*
X132505518Y-102305812D01*
X132630000Y-102318072D01*
X133530000Y-102318072D01*
X133654482Y-102305812D01*
X133713199Y-102288000D01*
X134495000Y-103069802D01*
X134495001Y-108135288D01*
X134451063Y-108179226D01*
X134337795Y-108348744D01*
X134259774Y-108537102D01*
X134220000Y-108737061D01*
X134220000Y-108940939D01*
X134238439Y-109033637D01*
X133840000Y-108635199D01*
X133840000Y-108584320D01*
X133884494Y-108560537D01*
X133981185Y-108481185D01*
X134060537Y-108384494D01*
X134119502Y-108274180D01*
X134155812Y-108154482D01*
X134168072Y-108030000D01*
X134168072Y-107230000D01*
X134155812Y-107105518D01*
X134119502Y-106985820D01*
X134060537Y-106875506D01*
X133981185Y-106778815D01*
X133884494Y-106699463D01*
X133848082Y-106680000D01*
X133884494Y-106660537D01*
X133981185Y-106581185D01*
X134060537Y-106484494D01*
X134119502Y-106374180D01*
X134155812Y-106254482D01*
X134168072Y-106130000D01*
X134165000Y-106015750D01*
X134006250Y-105857000D01*
X133207000Y-105857000D01*
X133207000Y-105877000D01*
X132953000Y-105877000D01*
X132953000Y-105857000D01*
X132153750Y-105857000D01*
X132069143Y-105941607D01*
X132060537Y-105925506D01*
X131981185Y-105828815D01*
X131884494Y-105749463D01*
X131774180Y-105690498D01*
X131654482Y-105654188D01*
X131530000Y-105641928D01*
X130630000Y-105641928D01*
X130505518Y-105654188D01*
X130385820Y-105690498D01*
X130275506Y-105749463D01*
X130220019Y-105795000D01*
X129583469Y-105795000D01*
X129540000Y-105790719D01*
X129496531Y-105795000D01*
X129496523Y-105795000D01*
X129366510Y-105807805D01*
X129199687Y-105858411D01*
X129045941Y-105940589D01*
X128944953Y-106023468D01*
X128944951Y-106023470D01*
X128911183Y-106051183D01*
X128883470Y-106084951D01*
X127971815Y-106996606D01*
X127960537Y-106975506D01*
X127881185Y-106878815D01*
X127784494Y-106799463D01*
X127674180Y-106740498D01*
X127554482Y-106704188D01*
X127430000Y-106691928D01*
X126130000Y-106691928D01*
X126005518Y-106704188D01*
X125968072Y-106715547D01*
X125968072Y-106644453D01*
X126005518Y-106655812D01*
X126130000Y-106668072D01*
X127430000Y-106668072D01*
X127554482Y-106655812D01*
X127674180Y-106619502D01*
X127784494Y-106560537D01*
X127881185Y-106481185D01*
X127960537Y-106384494D01*
X128019502Y-106274180D01*
X128055812Y-106154482D01*
X128068072Y-106030000D01*
X128068072Y-105430000D01*
X128065763Y-105406558D01*
X128183687Y-105469589D01*
X128350510Y-105520195D01*
X128480523Y-105533000D01*
X128480533Y-105533000D01*
X128523999Y-105537281D01*
X128567465Y-105533000D01*
X130512531Y-105533000D01*
X130556000Y-105537281D01*
X130599469Y-105533000D01*
X130599477Y-105533000D01*
X130729490Y-105520195D01*
X130896313Y-105469589D01*
X131050059Y-105387411D01*
X131120013Y-105330000D01*
X131991928Y-105330000D01*
X131995000Y-105444250D01*
X132153750Y-105603000D01*
X132953000Y-105603000D01*
X132953000Y-104853750D01*
X133207000Y-104853750D01*
X133207000Y-105603000D01*
X134006250Y-105603000D01*
X134165000Y-105444250D01*
X134168072Y-105330000D01*
X134155812Y-105205518D01*
X134119502Y-105085820D01*
X134060537Y-104975506D01*
X133981185Y-104878815D01*
X133884494Y-104799463D01*
X133774180Y-104740498D01*
X133654482Y-104704188D01*
X133530000Y-104691928D01*
X133365750Y-104695000D01*
X133207000Y-104853750D01*
X132953000Y-104853750D01*
X132794250Y-104695000D01*
X132630000Y-104691928D01*
X132505518Y-104704188D01*
X132385820Y-104740498D01*
X132275506Y-104799463D01*
X132178815Y-104878815D01*
X132099463Y-104975506D01*
X132040498Y-105085820D01*
X132004188Y-105205518D01*
X131991928Y-105330000D01*
X131120013Y-105330000D01*
X131184817Y-105276817D01*
X131212534Y-105243044D01*
X131659045Y-104796533D01*
X131692817Y-104768817D01*
X131803411Y-104634059D01*
X131885589Y-104480313D01*
X131936195Y-104313490D01*
X131949000Y-104183477D01*
X131949000Y-104183467D01*
X131953281Y-104140001D01*
X131949000Y-104096535D01*
X131949000Y-101386022D01*
X131952195Y-101375490D01*
X131965000Y-101245477D01*
X131965000Y-101194468D01*
X131981185Y-101181185D01*
X131991928Y-101168095D01*
X131991928Y-101680000D01*
G37*
X131991928Y-101680000D02*
X132004188Y-101804482D01*
X132040498Y-101924180D01*
X132099463Y-102034494D01*
X132178815Y-102131185D01*
X132275506Y-102210537D01*
X132385820Y-102269502D01*
X132505518Y-102305812D01*
X132630000Y-102318072D01*
X133530000Y-102318072D01*
X133654482Y-102305812D01*
X133713199Y-102288000D01*
X134495000Y-103069802D01*
X134495001Y-108135288D01*
X134451063Y-108179226D01*
X134337795Y-108348744D01*
X134259774Y-108537102D01*
X134220000Y-108737061D01*
X134220000Y-108940939D01*
X134238439Y-109033637D01*
X133840000Y-108635199D01*
X133840000Y-108584320D01*
X133884494Y-108560537D01*
X133981185Y-108481185D01*
X134060537Y-108384494D01*
X134119502Y-108274180D01*
X134155812Y-108154482D01*
X134168072Y-108030000D01*
X134168072Y-107230000D01*
X134155812Y-107105518D01*
X134119502Y-106985820D01*
X134060537Y-106875506D01*
X133981185Y-106778815D01*
X133884494Y-106699463D01*
X133848082Y-106680000D01*
X133884494Y-106660537D01*
X133981185Y-106581185D01*
X134060537Y-106484494D01*
X134119502Y-106374180D01*
X134155812Y-106254482D01*
X134168072Y-106130000D01*
X134165000Y-106015750D01*
X134006250Y-105857000D01*
X133207000Y-105857000D01*
X133207000Y-105877000D01*
X132953000Y-105877000D01*
X132953000Y-105857000D01*
X132153750Y-105857000D01*
X132069143Y-105941607D01*
X132060537Y-105925506D01*
X131981185Y-105828815D01*
X131884494Y-105749463D01*
X131774180Y-105690498D01*
X131654482Y-105654188D01*
X131530000Y-105641928D01*
X130630000Y-105641928D01*
X130505518Y-105654188D01*
X130385820Y-105690498D01*
X130275506Y-105749463D01*
X130220019Y-105795000D01*
X129583469Y-105795000D01*
X129540000Y-105790719D01*
X129496531Y-105795000D01*
X129496523Y-105795000D01*
X129366510Y-105807805D01*
X129199687Y-105858411D01*
X129045941Y-105940589D01*
X128944953Y-106023468D01*
X128944951Y-106023470D01*
X128911183Y-106051183D01*
X128883470Y-106084951D01*
X127971815Y-106996606D01*
X127960537Y-106975506D01*
X127881185Y-106878815D01*
X127784494Y-106799463D01*
X127674180Y-106740498D01*
X127554482Y-106704188D01*
X127430000Y-106691928D01*
X126130000Y-106691928D01*
X126005518Y-106704188D01*
X125968072Y-106715547D01*
X125968072Y-106644453D01*
X126005518Y-106655812D01*
X126130000Y-106668072D01*
X127430000Y-106668072D01*
X127554482Y-106655812D01*
X127674180Y-106619502D01*
X127784494Y-106560537D01*
X127881185Y-106481185D01*
X127960537Y-106384494D01*
X128019502Y-106274180D01*
X128055812Y-106154482D01*
X128068072Y-106030000D01*
X128068072Y-105430000D01*
X128065763Y-105406558D01*
X128183687Y-105469589D01*
X128350510Y-105520195D01*
X128480523Y-105533000D01*
X128480533Y-105533000D01*
X128523999Y-105537281D01*
X128567465Y-105533000D01*
X130512531Y-105533000D01*
X130556000Y-105537281D01*
X130599469Y-105533000D01*
X130599477Y-105533000D01*
X130729490Y-105520195D01*
X130896313Y-105469589D01*
X131050059Y-105387411D01*
X131120013Y-105330000D01*
X131991928Y-105330000D01*
X131995000Y-105444250D01*
X132153750Y-105603000D01*
X132953000Y-105603000D01*
X132953000Y-104853750D01*
X133207000Y-104853750D01*
X133207000Y-105603000D01*
X134006250Y-105603000D01*
X134165000Y-105444250D01*
X134168072Y-105330000D01*
X134155812Y-105205518D01*
X134119502Y-105085820D01*
X134060537Y-104975506D01*
X133981185Y-104878815D01*
X133884494Y-104799463D01*
X133774180Y-104740498D01*
X133654482Y-104704188D01*
X133530000Y-104691928D01*
X133365750Y-104695000D01*
X133207000Y-104853750D01*
X132953000Y-104853750D01*
X132794250Y-104695000D01*
X132630000Y-104691928D01*
X132505518Y-104704188D01*
X132385820Y-104740498D01*
X132275506Y-104799463D01*
X132178815Y-104878815D01*
X132099463Y-104975506D01*
X132040498Y-105085820D01*
X132004188Y-105205518D01*
X131991928Y-105330000D01*
X131120013Y-105330000D01*
X131184817Y-105276817D01*
X131212534Y-105243044D01*
X131659045Y-104796533D01*
X131692817Y-104768817D01*
X131803411Y-104634059D01*
X131885589Y-104480313D01*
X131936195Y-104313490D01*
X131949000Y-104183477D01*
X131949000Y-104183467D01*
X131953281Y-104140001D01*
X131949000Y-104096535D01*
X131949000Y-101386022D01*
X131952195Y-101375490D01*
X131965000Y-101245477D01*
X131965000Y-101194468D01*
X131981185Y-101181185D01*
X131991928Y-101168095D01*
X131991928Y-101680000D01*
M02*
