G04 #@! TF.GenerationSoftware,KiCad,Pcbnew,5.1.5+dfsg1-2build2*
G04 #@! TF.CreationDate,2020-08-03T23:06:02+02:00*
G04 #@! TF.ProjectId,transistor_board,7472616e-7369-4737-946f-725f626f6172,rev?*
G04 #@! TF.SameCoordinates,Original*
G04 #@! TF.FileFunction,Paste,Top*
G04 #@! TF.FilePolarity,Positive*
%FSLAX46Y46*%
G04 Gerber Fmt 4.6, Leading zero omitted, Abs format (unit mm)*
G04 Created by KiCad (PCBNEW 5.1.5+dfsg1-2build2) date 2020-08-03 23:06:02*
%MOMM*%
%LPD*%
G04 APERTURE LIST*
%ADD10C,0.100000*%
%ADD11R,2.000000X1.500000*%
%ADD12R,0.900000X0.800000*%
%ADD13R,1.300000X0.600000*%
G04 APERTURE END LIST*
D10*
G36*
X117772642Y-121856174D02*
G01*
X117796303Y-121859684D01*
X117819507Y-121865496D01*
X117842029Y-121873554D01*
X117863653Y-121883782D01*
X117884170Y-121896079D01*
X117903383Y-121910329D01*
X117921107Y-121926393D01*
X117937171Y-121944117D01*
X117951421Y-121963330D01*
X117963718Y-121983847D01*
X117973946Y-122005471D01*
X117982004Y-122027993D01*
X117987816Y-122051197D01*
X117991326Y-122074858D01*
X117992500Y-122098750D01*
X117992500Y-123011250D01*
X117991326Y-123035142D01*
X117987816Y-123058803D01*
X117982004Y-123082007D01*
X117973946Y-123104529D01*
X117963718Y-123126153D01*
X117951421Y-123146670D01*
X117937171Y-123165883D01*
X117921107Y-123183607D01*
X117903383Y-123199671D01*
X117884170Y-123213921D01*
X117863653Y-123226218D01*
X117842029Y-123236446D01*
X117819507Y-123244504D01*
X117796303Y-123250316D01*
X117772642Y-123253826D01*
X117748750Y-123255000D01*
X117261250Y-123255000D01*
X117237358Y-123253826D01*
X117213697Y-123250316D01*
X117190493Y-123244504D01*
X117167971Y-123236446D01*
X117146347Y-123226218D01*
X117125830Y-123213921D01*
X117106617Y-123199671D01*
X117088893Y-123183607D01*
X117072829Y-123165883D01*
X117058579Y-123146670D01*
X117046282Y-123126153D01*
X117036054Y-123104529D01*
X117027996Y-123082007D01*
X117022184Y-123058803D01*
X117018674Y-123035142D01*
X117017500Y-123011250D01*
X117017500Y-122098750D01*
X117018674Y-122074858D01*
X117022184Y-122051197D01*
X117027996Y-122027993D01*
X117036054Y-122005471D01*
X117046282Y-121983847D01*
X117058579Y-121963330D01*
X117072829Y-121944117D01*
X117088893Y-121926393D01*
X117106617Y-121910329D01*
X117125830Y-121896079D01*
X117146347Y-121883782D01*
X117167971Y-121873554D01*
X117190493Y-121865496D01*
X117213697Y-121859684D01*
X117237358Y-121856174D01*
X117261250Y-121855000D01*
X117748750Y-121855000D01*
X117772642Y-121856174D01*
G37*
G36*
X119647642Y-121856174D02*
G01*
X119671303Y-121859684D01*
X119694507Y-121865496D01*
X119717029Y-121873554D01*
X119738653Y-121883782D01*
X119759170Y-121896079D01*
X119778383Y-121910329D01*
X119796107Y-121926393D01*
X119812171Y-121944117D01*
X119826421Y-121963330D01*
X119838718Y-121983847D01*
X119848946Y-122005471D01*
X119857004Y-122027993D01*
X119862816Y-122051197D01*
X119866326Y-122074858D01*
X119867500Y-122098750D01*
X119867500Y-123011250D01*
X119866326Y-123035142D01*
X119862816Y-123058803D01*
X119857004Y-123082007D01*
X119848946Y-123104529D01*
X119838718Y-123126153D01*
X119826421Y-123146670D01*
X119812171Y-123165883D01*
X119796107Y-123183607D01*
X119778383Y-123199671D01*
X119759170Y-123213921D01*
X119738653Y-123226218D01*
X119717029Y-123236446D01*
X119694507Y-123244504D01*
X119671303Y-123250316D01*
X119647642Y-123253826D01*
X119623750Y-123255000D01*
X119136250Y-123255000D01*
X119112358Y-123253826D01*
X119088697Y-123250316D01*
X119065493Y-123244504D01*
X119042971Y-123236446D01*
X119021347Y-123226218D01*
X119000830Y-123213921D01*
X118981617Y-123199671D01*
X118963893Y-123183607D01*
X118947829Y-123165883D01*
X118933579Y-123146670D01*
X118921282Y-123126153D01*
X118911054Y-123104529D01*
X118902996Y-123082007D01*
X118897184Y-123058803D01*
X118893674Y-123035142D01*
X118892500Y-123011250D01*
X118892500Y-122098750D01*
X118893674Y-122074858D01*
X118897184Y-122051197D01*
X118902996Y-122027993D01*
X118911054Y-122005471D01*
X118921282Y-121983847D01*
X118933579Y-121963330D01*
X118947829Y-121944117D01*
X118963893Y-121926393D01*
X118981617Y-121910329D01*
X119000830Y-121896079D01*
X119021347Y-121883782D01*
X119042971Y-121873554D01*
X119065493Y-121865496D01*
X119088697Y-121859684D01*
X119112358Y-121856174D01*
X119136250Y-121855000D01*
X119623750Y-121855000D01*
X119647642Y-121856174D01*
G37*
G36*
X134252642Y-121856174D02*
G01*
X134276303Y-121859684D01*
X134299507Y-121865496D01*
X134322029Y-121873554D01*
X134343653Y-121883782D01*
X134364170Y-121896079D01*
X134383383Y-121910329D01*
X134401107Y-121926393D01*
X134417171Y-121944117D01*
X134431421Y-121963330D01*
X134443718Y-121983847D01*
X134453946Y-122005471D01*
X134462004Y-122027993D01*
X134467816Y-122051197D01*
X134471326Y-122074858D01*
X134472500Y-122098750D01*
X134472500Y-123011250D01*
X134471326Y-123035142D01*
X134467816Y-123058803D01*
X134462004Y-123082007D01*
X134453946Y-123104529D01*
X134443718Y-123126153D01*
X134431421Y-123146670D01*
X134417171Y-123165883D01*
X134401107Y-123183607D01*
X134383383Y-123199671D01*
X134364170Y-123213921D01*
X134343653Y-123226218D01*
X134322029Y-123236446D01*
X134299507Y-123244504D01*
X134276303Y-123250316D01*
X134252642Y-123253826D01*
X134228750Y-123255000D01*
X133741250Y-123255000D01*
X133717358Y-123253826D01*
X133693697Y-123250316D01*
X133670493Y-123244504D01*
X133647971Y-123236446D01*
X133626347Y-123226218D01*
X133605830Y-123213921D01*
X133586617Y-123199671D01*
X133568893Y-123183607D01*
X133552829Y-123165883D01*
X133538579Y-123146670D01*
X133526282Y-123126153D01*
X133516054Y-123104529D01*
X133507996Y-123082007D01*
X133502184Y-123058803D01*
X133498674Y-123035142D01*
X133497500Y-123011250D01*
X133497500Y-122098750D01*
X133498674Y-122074858D01*
X133502184Y-122051197D01*
X133507996Y-122027993D01*
X133516054Y-122005471D01*
X133526282Y-121983847D01*
X133538579Y-121963330D01*
X133552829Y-121944117D01*
X133568893Y-121926393D01*
X133586617Y-121910329D01*
X133605830Y-121896079D01*
X133626347Y-121883782D01*
X133647971Y-121873554D01*
X133670493Y-121865496D01*
X133693697Y-121859684D01*
X133717358Y-121856174D01*
X133741250Y-121855000D01*
X134228750Y-121855000D01*
X134252642Y-121856174D01*
G37*
G36*
X132377642Y-121856174D02*
G01*
X132401303Y-121859684D01*
X132424507Y-121865496D01*
X132447029Y-121873554D01*
X132468653Y-121883782D01*
X132489170Y-121896079D01*
X132508383Y-121910329D01*
X132526107Y-121926393D01*
X132542171Y-121944117D01*
X132556421Y-121963330D01*
X132568718Y-121983847D01*
X132578946Y-122005471D01*
X132587004Y-122027993D01*
X132592816Y-122051197D01*
X132596326Y-122074858D01*
X132597500Y-122098750D01*
X132597500Y-123011250D01*
X132596326Y-123035142D01*
X132592816Y-123058803D01*
X132587004Y-123082007D01*
X132578946Y-123104529D01*
X132568718Y-123126153D01*
X132556421Y-123146670D01*
X132542171Y-123165883D01*
X132526107Y-123183607D01*
X132508383Y-123199671D01*
X132489170Y-123213921D01*
X132468653Y-123226218D01*
X132447029Y-123236446D01*
X132424507Y-123244504D01*
X132401303Y-123250316D01*
X132377642Y-123253826D01*
X132353750Y-123255000D01*
X131866250Y-123255000D01*
X131842358Y-123253826D01*
X131818697Y-123250316D01*
X131795493Y-123244504D01*
X131772971Y-123236446D01*
X131751347Y-123226218D01*
X131730830Y-123213921D01*
X131711617Y-123199671D01*
X131693893Y-123183607D01*
X131677829Y-123165883D01*
X131663579Y-123146670D01*
X131651282Y-123126153D01*
X131641054Y-123104529D01*
X131632996Y-123082007D01*
X131627184Y-123058803D01*
X131623674Y-123035142D01*
X131622500Y-123011250D01*
X131622500Y-122098750D01*
X131623674Y-122074858D01*
X131627184Y-122051197D01*
X131632996Y-122027993D01*
X131641054Y-122005471D01*
X131651282Y-121983847D01*
X131663579Y-121963330D01*
X131677829Y-121944117D01*
X131693893Y-121926393D01*
X131711617Y-121910329D01*
X131730830Y-121896079D01*
X131751347Y-121883782D01*
X131772971Y-121873554D01*
X131795493Y-121865496D01*
X131818697Y-121859684D01*
X131842358Y-121856174D01*
X131866250Y-121855000D01*
X132353750Y-121855000D01*
X132377642Y-121856174D01*
G37*
G36*
X124395142Y-121856174D02*
G01*
X124418803Y-121859684D01*
X124442007Y-121865496D01*
X124464529Y-121873554D01*
X124486153Y-121883782D01*
X124506670Y-121896079D01*
X124525883Y-121910329D01*
X124543607Y-121926393D01*
X124559671Y-121944117D01*
X124573921Y-121963330D01*
X124586218Y-121983847D01*
X124596446Y-122005471D01*
X124604504Y-122027993D01*
X124610316Y-122051197D01*
X124613826Y-122074858D01*
X124615000Y-122098750D01*
X124615000Y-123011250D01*
X124613826Y-123035142D01*
X124610316Y-123058803D01*
X124604504Y-123082007D01*
X124596446Y-123104529D01*
X124586218Y-123126153D01*
X124573921Y-123146670D01*
X124559671Y-123165883D01*
X124543607Y-123183607D01*
X124525883Y-123199671D01*
X124506670Y-123213921D01*
X124486153Y-123226218D01*
X124464529Y-123236446D01*
X124442007Y-123244504D01*
X124418803Y-123250316D01*
X124395142Y-123253826D01*
X124371250Y-123255000D01*
X123883750Y-123255000D01*
X123859858Y-123253826D01*
X123836197Y-123250316D01*
X123812993Y-123244504D01*
X123790471Y-123236446D01*
X123768847Y-123226218D01*
X123748330Y-123213921D01*
X123729117Y-123199671D01*
X123711393Y-123183607D01*
X123695329Y-123165883D01*
X123681079Y-123146670D01*
X123668782Y-123126153D01*
X123658554Y-123104529D01*
X123650496Y-123082007D01*
X123644684Y-123058803D01*
X123641174Y-123035142D01*
X123640000Y-123011250D01*
X123640000Y-122098750D01*
X123641174Y-122074858D01*
X123644684Y-122051197D01*
X123650496Y-122027993D01*
X123658554Y-122005471D01*
X123668782Y-121983847D01*
X123681079Y-121963330D01*
X123695329Y-121944117D01*
X123711393Y-121926393D01*
X123729117Y-121910329D01*
X123748330Y-121896079D01*
X123768847Y-121883782D01*
X123790471Y-121873554D01*
X123812993Y-121865496D01*
X123836197Y-121859684D01*
X123859858Y-121856174D01*
X123883750Y-121855000D01*
X124371250Y-121855000D01*
X124395142Y-121856174D01*
G37*
G36*
X122520142Y-121856174D02*
G01*
X122543803Y-121859684D01*
X122567007Y-121865496D01*
X122589529Y-121873554D01*
X122611153Y-121883782D01*
X122631670Y-121896079D01*
X122650883Y-121910329D01*
X122668607Y-121926393D01*
X122684671Y-121944117D01*
X122698921Y-121963330D01*
X122711218Y-121983847D01*
X122721446Y-122005471D01*
X122729504Y-122027993D01*
X122735316Y-122051197D01*
X122738826Y-122074858D01*
X122740000Y-122098750D01*
X122740000Y-123011250D01*
X122738826Y-123035142D01*
X122735316Y-123058803D01*
X122729504Y-123082007D01*
X122721446Y-123104529D01*
X122711218Y-123126153D01*
X122698921Y-123146670D01*
X122684671Y-123165883D01*
X122668607Y-123183607D01*
X122650883Y-123199671D01*
X122631670Y-123213921D01*
X122611153Y-123226218D01*
X122589529Y-123236446D01*
X122567007Y-123244504D01*
X122543803Y-123250316D01*
X122520142Y-123253826D01*
X122496250Y-123255000D01*
X122008750Y-123255000D01*
X121984858Y-123253826D01*
X121961197Y-123250316D01*
X121937993Y-123244504D01*
X121915471Y-123236446D01*
X121893847Y-123226218D01*
X121873330Y-123213921D01*
X121854117Y-123199671D01*
X121836393Y-123183607D01*
X121820329Y-123165883D01*
X121806079Y-123146670D01*
X121793782Y-123126153D01*
X121783554Y-123104529D01*
X121775496Y-123082007D01*
X121769684Y-123058803D01*
X121766174Y-123035142D01*
X121765000Y-123011250D01*
X121765000Y-122098750D01*
X121766174Y-122074858D01*
X121769684Y-122051197D01*
X121775496Y-122027993D01*
X121783554Y-122005471D01*
X121793782Y-121983847D01*
X121806079Y-121963330D01*
X121820329Y-121944117D01*
X121836393Y-121926393D01*
X121854117Y-121910329D01*
X121873330Y-121896079D01*
X121893847Y-121883782D01*
X121915471Y-121873554D01*
X121937993Y-121865496D01*
X121961197Y-121859684D01*
X121984858Y-121856174D01*
X122008750Y-121855000D01*
X122496250Y-121855000D01*
X122520142Y-121856174D01*
G37*
G36*
X129475142Y-121856174D02*
G01*
X129498803Y-121859684D01*
X129522007Y-121865496D01*
X129544529Y-121873554D01*
X129566153Y-121883782D01*
X129586670Y-121896079D01*
X129605883Y-121910329D01*
X129623607Y-121926393D01*
X129639671Y-121944117D01*
X129653921Y-121963330D01*
X129666218Y-121983847D01*
X129676446Y-122005471D01*
X129684504Y-122027993D01*
X129690316Y-122051197D01*
X129693826Y-122074858D01*
X129695000Y-122098750D01*
X129695000Y-123011250D01*
X129693826Y-123035142D01*
X129690316Y-123058803D01*
X129684504Y-123082007D01*
X129676446Y-123104529D01*
X129666218Y-123126153D01*
X129653921Y-123146670D01*
X129639671Y-123165883D01*
X129623607Y-123183607D01*
X129605883Y-123199671D01*
X129586670Y-123213921D01*
X129566153Y-123226218D01*
X129544529Y-123236446D01*
X129522007Y-123244504D01*
X129498803Y-123250316D01*
X129475142Y-123253826D01*
X129451250Y-123255000D01*
X128963750Y-123255000D01*
X128939858Y-123253826D01*
X128916197Y-123250316D01*
X128892993Y-123244504D01*
X128870471Y-123236446D01*
X128848847Y-123226218D01*
X128828330Y-123213921D01*
X128809117Y-123199671D01*
X128791393Y-123183607D01*
X128775329Y-123165883D01*
X128761079Y-123146670D01*
X128748782Y-123126153D01*
X128738554Y-123104529D01*
X128730496Y-123082007D01*
X128724684Y-123058803D01*
X128721174Y-123035142D01*
X128720000Y-123011250D01*
X128720000Y-122098750D01*
X128721174Y-122074858D01*
X128724684Y-122051197D01*
X128730496Y-122027993D01*
X128738554Y-122005471D01*
X128748782Y-121983847D01*
X128761079Y-121963330D01*
X128775329Y-121944117D01*
X128791393Y-121926393D01*
X128809117Y-121910329D01*
X128828330Y-121896079D01*
X128848847Y-121883782D01*
X128870471Y-121873554D01*
X128892993Y-121865496D01*
X128916197Y-121859684D01*
X128939858Y-121856174D01*
X128963750Y-121855000D01*
X129451250Y-121855000D01*
X129475142Y-121856174D01*
G37*
G36*
X127600142Y-121856174D02*
G01*
X127623803Y-121859684D01*
X127647007Y-121865496D01*
X127669529Y-121873554D01*
X127691153Y-121883782D01*
X127711670Y-121896079D01*
X127730883Y-121910329D01*
X127748607Y-121926393D01*
X127764671Y-121944117D01*
X127778921Y-121963330D01*
X127791218Y-121983847D01*
X127801446Y-122005471D01*
X127809504Y-122027993D01*
X127815316Y-122051197D01*
X127818826Y-122074858D01*
X127820000Y-122098750D01*
X127820000Y-123011250D01*
X127818826Y-123035142D01*
X127815316Y-123058803D01*
X127809504Y-123082007D01*
X127801446Y-123104529D01*
X127791218Y-123126153D01*
X127778921Y-123146670D01*
X127764671Y-123165883D01*
X127748607Y-123183607D01*
X127730883Y-123199671D01*
X127711670Y-123213921D01*
X127691153Y-123226218D01*
X127669529Y-123236446D01*
X127647007Y-123244504D01*
X127623803Y-123250316D01*
X127600142Y-123253826D01*
X127576250Y-123255000D01*
X127088750Y-123255000D01*
X127064858Y-123253826D01*
X127041197Y-123250316D01*
X127017993Y-123244504D01*
X126995471Y-123236446D01*
X126973847Y-123226218D01*
X126953330Y-123213921D01*
X126934117Y-123199671D01*
X126916393Y-123183607D01*
X126900329Y-123165883D01*
X126886079Y-123146670D01*
X126873782Y-123126153D01*
X126863554Y-123104529D01*
X126855496Y-123082007D01*
X126849684Y-123058803D01*
X126846174Y-123035142D01*
X126845000Y-123011250D01*
X126845000Y-122098750D01*
X126846174Y-122074858D01*
X126849684Y-122051197D01*
X126855496Y-122027993D01*
X126863554Y-122005471D01*
X126873782Y-121983847D01*
X126886079Y-121963330D01*
X126900329Y-121944117D01*
X126916393Y-121926393D01*
X126934117Y-121910329D01*
X126953330Y-121896079D01*
X126973847Y-121883782D01*
X126995471Y-121873554D01*
X127017993Y-121865496D01*
X127041197Y-121859684D01*
X127064858Y-121856174D01*
X127088750Y-121855000D01*
X127576250Y-121855000D01*
X127600142Y-121856174D01*
G37*
D11*
X118820000Y-117485000D03*
X118820000Y-112385000D03*
X127560000Y-112385000D03*
X127560000Y-117485000D03*
D10*
G36*
X133529505Y-111361204D02*
G01*
X133553773Y-111364804D01*
X133577572Y-111370765D01*
X133600671Y-111379030D01*
X133622850Y-111389520D01*
X133643893Y-111402132D01*
X133663599Y-111416747D01*
X133681777Y-111433223D01*
X133698253Y-111451401D01*
X133712868Y-111471107D01*
X133725480Y-111492150D01*
X133735970Y-111514329D01*
X133744235Y-111537428D01*
X133750196Y-111561227D01*
X133753796Y-111585495D01*
X133755000Y-111609999D01*
X133755000Y-112460001D01*
X133753796Y-112484505D01*
X133750196Y-112508773D01*
X133744235Y-112532572D01*
X133735970Y-112555671D01*
X133725480Y-112577850D01*
X133712868Y-112598893D01*
X133698253Y-112618599D01*
X133681777Y-112636777D01*
X133663599Y-112653253D01*
X133643893Y-112667868D01*
X133622850Y-112680480D01*
X133600671Y-112690970D01*
X133577572Y-112699235D01*
X133553773Y-112705196D01*
X133529505Y-112708796D01*
X133505001Y-112710000D01*
X130654999Y-112710000D01*
X130630495Y-112708796D01*
X130606227Y-112705196D01*
X130582428Y-112699235D01*
X130559329Y-112690970D01*
X130537150Y-112680480D01*
X130516107Y-112667868D01*
X130496401Y-112653253D01*
X130478223Y-112636777D01*
X130461747Y-112618599D01*
X130447132Y-112598893D01*
X130434520Y-112577850D01*
X130424030Y-112555671D01*
X130415765Y-112532572D01*
X130409804Y-112508773D01*
X130406204Y-112484505D01*
X130405000Y-112460001D01*
X130405000Y-111609999D01*
X130406204Y-111585495D01*
X130409804Y-111561227D01*
X130415765Y-111537428D01*
X130424030Y-111514329D01*
X130434520Y-111492150D01*
X130447132Y-111471107D01*
X130461747Y-111451401D01*
X130478223Y-111433223D01*
X130496401Y-111416747D01*
X130516107Y-111402132D01*
X130537150Y-111389520D01*
X130559329Y-111379030D01*
X130582428Y-111370765D01*
X130606227Y-111364804D01*
X130630495Y-111361204D01*
X130654999Y-111360000D01*
X133505001Y-111360000D01*
X133529505Y-111361204D01*
G37*
G36*
X133529505Y-117161204D02*
G01*
X133553773Y-117164804D01*
X133577572Y-117170765D01*
X133600671Y-117179030D01*
X133622850Y-117189520D01*
X133643893Y-117202132D01*
X133663599Y-117216747D01*
X133681777Y-117233223D01*
X133698253Y-117251401D01*
X133712868Y-117271107D01*
X133725480Y-117292150D01*
X133735970Y-117314329D01*
X133744235Y-117337428D01*
X133750196Y-117361227D01*
X133753796Y-117385495D01*
X133755000Y-117409999D01*
X133755000Y-118260001D01*
X133753796Y-118284505D01*
X133750196Y-118308773D01*
X133744235Y-118332572D01*
X133735970Y-118355671D01*
X133725480Y-118377850D01*
X133712868Y-118398893D01*
X133698253Y-118418599D01*
X133681777Y-118436777D01*
X133663599Y-118453253D01*
X133643893Y-118467868D01*
X133622850Y-118480480D01*
X133600671Y-118490970D01*
X133577572Y-118499235D01*
X133553773Y-118505196D01*
X133529505Y-118508796D01*
X133505001Y-118510000D01*
X130654999Y-118510000D01*
X130630495Y-118508796D01*
X130606227Y-118505196D01*
X130582428Y-118499235D01*
X130559329Y-118490970D01*
X130537150Y-118480480D01*
X130516107Y-118467868D01*
X130496401Y-118453253D01*
X130478223Y-118436777D01*
X130461747Y-118418599D01*
X130447132Y-118398893D01*
X130434520Y-118377850D01*
X130424030Y-118355671D01*
X130415765Y-118332572D01*
X130409804Y-118308773D01*
X130406204Y-118284505D01*
X130405000Y-118260001D01*
X130405000Y-117409999D01*
X130406204Y-117385495D01*
X130409804Y-117361227D01*
X130415765Y-117337428D01*
X130424030Y-117314329D01*
X130434520Y-117292150D01*
X130447132Y-117271107D01*
X130461747Y-117251401D01*
X130478223Y-117233223D01*
X130496401Y-117216747D01*
X130516107Y-117202132D01*
X130537150Y-117189520D01*
X130559329Y-117179030D01*
X130582428Y-117170765D01*
X130606227Y-117164804D01*
X130630495Y-117161204D01*
X130654999Y-117160000D01*
X133505001Y-117160000D01*
X133529505Y-117161204D01*
G37*
D12*
X120380000Y-100330000D03*
X118380000Y-101280000D03*
X118380000Y-99380000D03*
X120380000Y-106680000D03*
X118380000Y-107630000D03*
X118380000Y-105730000D03*
X131080000Y-100330000D03*
X133080000Y-99380000D03*
X133080000Y-101280000D03*
X131080000Y-106680000D03*
X133080000Y-105730000D03*
X133080000Y-107630000D03*
D13*
X126780000Y-107630000D03*
X126780000Y-105730000D03*
X124680000Y-106680000D03*
X124680000Y-99380000D03*
X124680000Y-101280000D03*
X126780000Y-100330000D03*
M02*
