G04 #@! TF.GenerationSoftware,KiCad,Pcbnew,5.1.5+dfsg1-2build2*
G04 #@! TF.CreationDate,2021-04-05T13:49:58+02:00*
G04 #@! TF.ProjectId,transistor_board,7472616e-7369-4737-946f-725f626f6172,rev?*
G04 #@! TF.SameCoordinates,Original*
G04 #@! TF.FileFunction,Copper,L1,Top*
G04 #@! TF.FilePolarity,Positive*
%FSLAX46Y46*%
G04 Gerber Fmt 4.6, Leading zero omitted, Abs format (unit mm)*
G04 Created by KiCad (PCBNEW 5.1.5+dfsg1-2build2) date 2021-04-05 13:49:58*
%MOMM*%
%LPD*%
G04 APERTURE LIST*
%ADD10C,1.800000*%
%ADD11R,1.800000X1.800000*%
%ADD12C,1.700000*%
%ADD13O,1.905000X2.000000*%
%ADD14R,1.905000X2.000000*%
%ADD15O,1.700000X1.700000*%
%ADD16R,1.700000X1.700000*%
%ADD17C,0.800000*%
%ADD18C,0.500000*%
%ADD19C,0.250000*%
%ADD20C,0.254000*%
G04 APERTURE END LIST*
D10*
X114300000Y-128980000D03*
D11*
X114300000Y-126440000D03*
D12*
X114300000Y-119253000D03*
X114300000Y-116713000D03*
X137160000Y-101473000D03*
X137160000Y-104013000D03*
X137160000Y-106553000D03*
X137160000Y-109093000D03*
X137160000Y-111633000D03*
X137160000Y-114173000D03*
X137160000Y-116713000D03*
X137160000Y-119253000D03*
D13*
X123170000Y-126365000D03*
X125710000Y-126365000D03*
D14*
X128250000Y-126365000D03*
D15*
X114300000Y-133985000D03*
X116840000Y-133985000D03*
X119380000Y-133985000D03*
X121920000Y-133985000D03*
X124460000Y-133985000D03*
X127000000Y-133985000D03*
X129540000Y-133985000D03*
X132080000Y-133985000D03*
X134620000Y-133985000D03*
D16*
X137160000Y-133985000D03*
D17*
X134175500Y-114109500D03*
X121475500Y-113157000D03*
X120269000Y-115824000D03*
X130556000Y-109855000D03*
X135763002Y-121856500D03*
X116586000Y-121602500D03*
X133159500Y-131000500D03*
X128206500Y-130619500D03*
X121412000Y-128714500D03*
X128079500Y-100774500D03*
X118110000Y-110680500D03*
X135128000Y-125984000D03*
X122110500Y-103632000D03*
X118110000Y-103568500D03*
X122110500Y-98996500D03*
X118110000Y-98996500D03*
X118160000Y-101300000D03*
X122130000Y-101260000D03*
X126492000Y-110490000D03*
X133858000Y-103632000D03*
X130111500Y-103632000D03*
X133794500Y-99060000D03*
X130111500Y-99060000D03*
X130150000Y-101250000D03*
X133810000Y-101250000D03*
X131572000Y-117856000D03*
X132905500Y-118110000D03*
X124650500Y-110363004D03*
X135476999Y-110903001D03*
X120332500Y-118427500D03*
X125984000Y-100774500D03*
X129413000Y-113982500D03*
X122555000Y-123507500D03*
X124984001Y-131143501D03*
X129667000Y-115506500D03*
D18*
X137160000Y-117094000D02*
X137160000Y-116713000D01*
D19*
X136779000Y-116713000D02*
X137160000Y-116713000D01*
D18*
X121475500Y-113157000D02*
X121475500Y-114617500D01*
X121475500Y-114617500D02*
X120668999Y-115424001D01*
X120668999Y-115424001D02*
X120269000Y-115824000D01*
X137160000Y-123253498D02*
X136163001Y-122256499D01*
X137160000Y-133985000D02*
X137160000Y-123253498D01*
X136163001Y-122256499D02*
X135763002Y-121856500D01*
X135763002Y-121290815D02*
X135763002Y-121856500D01*
X135509000Y-121036813D02*
X135763002Y-121290815D01*
X135509000Y-118364000D02*
X135509000Y-121036813D01*
X137160000Y-116713000D02*
X135509000Y-118364000D01*
X130556000Y-110490000D02*
X134175500Y-114109500D01*
X130556000Y-109855000D02*
X130556000Y-110490000D01*
D19*
X128079500Y-107378500D02*
X130556000Y-109855000D01*
X128079500Y-100774500D02*
X128079500Y-107378500D01*
D18*
X119564685Y-110680500D02*
X118675685Y-110680500D01*
X121475500Y-112591315D02*
X119564685Y-110680500D01*
X118675685Y-110680500D02*
X118110000Y-110680500D01*
X121475500Y-113157000D02*
X121475500Y-112591315D01*
D19*
X135128000Y-125984000D02*
X135128000Y-125984000D01*
D18*
X135128000Y-130937000D02*
X132080000Y-133985000D01*
X135128000Y-125984000D02*
X135128000Y-130937000D01*
D19*
X115149999Y-122149501D02*
X115125500Y-122174000D01*
D18*
X115149999Y-120102999D02*
X115149999Y-122149501D01*
X114300000Y-119253000D02*
X115149999Y-120102999D01*
X115125500Y-122174000D02*
X119327000Y-126492000D01*
X115000000Y-122165000D02*
X115125500Y-122174000D01*
D19*
X116839000Y-128980000D02*
X114300000Y-128980000D01*
X119327000Y-126492000D02*
X116839000Y-128980000D01*
D18*
X119507000Y-126365000D02*
X123170000Y-126365000D01*
X114300000Y-133985000D02*
X113850000Y-133535000D01*
D19*
X126492000Y-110490000D02*
X126492000Y-110490000D01*
X126492000Y-110490000D02*
X126492000Y-110490000D01*
D18*
X131160000Y-129825000D02*
X127000000Y-133985000D01*
X131160000Y-120386000D02*
X131160000Y-129825000D01*
X130302000Y-119528000D02*
X131160000Y-120386000D01*
X130302000Y-116967000D02*
X130302000Y-119528000D01*
X130721999Y-116547001D02*
X130302000Y-116967000D01*
X130721999Y-113562501D02*
X130721999Y-116547001D01*
X128206500Y-112204500D02*
X129363998Y-112204500D01*
X129363998Y-112204500D02*
X130721999Y-113562501D01*
X126492000Y-110490000D02*
X128206500Y-112204500D01*
D19*
X131572000Y-118110000D02*
X131572000Y-117856000D01*
X131572000Y-117856000D02*
X131572000Y-117856000D01*
D18*
X129540000Y-133477000D02*
X129540000Y-133985000D01*
X132180000Y-118718000D02*
X132180000Y-130837000D01*
X132180000Y-130837000D02*
X129540000Y-133477000D01*
X131572000Y-118110000D02*
X132180000Y-118718000D01*
D19*
X132905500Y-118110000D02*
X132905500Y-118110000D01*
X125050499Y-109963005D02*
X124650500Y-110363004D01*
X132905500Y-118110000D02*
X132905500Y-114057478D01*
X125341494Y-109672010D02*
X125050499Y-109963005D01*
X132905500Y-114057478D02*
X128520032Y-109672010D01*
X128520032Y-109672010D02*
X125341494Y-109672010D01*
X136310001Y-107402999D02*
X137160000Y-106553000D01*
X135984999Y-107728001D02*
X136310001Y-107402999D01*
X135984999Y-110903001D02*
X135476999Y-110903001D01*
X135984999Y-110903001D02*
X135984999Y-107728001D01*
X135476999Y-110903001D02*
X135476999Y-110903001D01*
X120332500Y-118427500D02*
X120332500Y-118427500D01*
X125984000Y-106934000D02*
X125984000Y-100774500D01*
X123698000Y-109220000D02*
X125984000Y-106934000D01*
X123698000Y-115062000D02*
X123698000Y-109220000D01*
X120332500Y-118427500D02*
X123698000Y-115062000D01*
X122555000Y-120840500D02*
X122555000Y-123507500D01*
X129413000Y-113982500D02*
X122555000Y-120840500D01*
X129267001Y-115906499D02*
X129667000Y-115506500D01*
X129203501Y-115969999D02*
X129267001Y-115906499D01*
X129203501Y-121296499D02*
X129203501Y-115969999D01*
X130110000Y-122202998D02*
X129203501Y-121296499D01*
X130110000Y-127350000D02*
X130110000Y-122202998D01*
X126316499Y-131143501D02*
X130110000Y-127350000D01*
X124984001Y-131143501D02*
X126316499Y-131143501D01*
D20*
G36*
X136006525Y-113226368D02*
G01*
X135844010Y-113469589D01*
X135732068Y-113739842D01*
X135675000Y-114026740D01*
X135675000Y-114319260D01*
X135732068Y-114606158D01*
X135844010Y-114876411D01*
X136006525Y-115119632D01*
X136213368Y-115326475D01*
X136386729Y-115442311D01*
X136311208Y-115684603D01*
X137160000Y-116533395D01*
X137174143Y-116519253D01*
X137353748Y-116698858D01*
X137339605Y-116713000D01*
X137353748Y-116727143D01*
X137174143Y-116906748D01*
X137160000Y-116892605D01*
X136311208Y-117741397D01*
X136386729Y-117983689D01*
X136213368Y-118099525D01*
X136006525Y-118306368D01*
X135844010Y-118549589D01*
X135732068Y-118819842D01*
X135675000Y-119106740D01*
X135675000Y-119399260D01*
X135732068Y-119686158D01*
X135844010Y-119956411D01*
X136006525Y-120199632D01*
X136213368Y-120406475D01*
X136456589Y-120568990D01*
X136726842Y-120680932D01*
X137013740Y-120738000D01*
X137306260Y-120738000D01*
X137593158Y-120680932D01*
X137770001Y-120607682D01*
X137770001Y-132498235D01*
X137445750Y-132500000D01*
X137287000Y-132658750D01*
X137287000Y-133858000D01*
X137307000Y-133858000D01*
X137307000Y-134112000D01*
X137287000Y-134112000D01*
X137287000Y-134132000D01*
X137033000Y-134132000D01*
X137033000Y-134112000D01*
X137013000Y-134112000D01*
X137013000Y-133858000D01*
X137033000Y-133858000D01*
X137033000Y-132658750D01*
X136874250Y-132500000D01*
X136310000Y-132496928D01*
X136185518Y-132509188D01*
X136065820Y-132545498D01*
X135955506Y-132604463D01*
X135858815Y-132683815D01*
X135779463Y-132780506D01*
X135720498Y-132890820D01*
X135698487Y-132963380D01*
X135566632Y-132831525D01*
X135323411Y-132669010D01*
X135053158Y-132557068D01*
X134808230Y-132508348D01*
X135723049Y-131593530D01*
X135756817Y-131565817D01*
X135867411Y-131431059D01*
X135949589Y-131277313D01*
X136000195Y-131110490D01*
X136013000Y-130980477D01*
X136013000Y-130980469D01*
X136017281Y-130937000D01*
X136013000Y-130893531D01*
X136013000Y-126522454D01*
X136045205Y-126474256D01*
X136123226Y-126285898D01*
X136163000Y-126085939D01*
X136163000Y-125882061D01*
X136123226Y-125682102D01*
X136045205Y-125493744D01*
X135931937Y-125324226D01*
X135787774Y-125180063D01*
X135618256Y-125066795D01*
X135429898Y-124988774D01*
X135229939Y-124949000D01*
X135026061Y-124949000D01*
X134826102Y-124988774D01*
X134637744Y-125066795D01*
X134468226Y-125180063D01*
X134324063Y-125324226D01*
X134210795Y-125493744D01*
X134132774Y-125682102D01*
X134093000Y-125882061D01*
X134093000Y-126085939D01*
X134132774Y-126285898D01*
X134210795Y-126474256D01*
X134243000Y-126522454D01*
X134243001Y-130570420D01*
X132298961Y-132514461D01*
X132226260Y-132500000D01*
X131933740Y-132500000D01*
X131727568Y-132541010D01*
X132775049Y-131493530D01*
X132808817Y-131465817D01*
X132837343Y-131431059D01*
X132919411Y-131331059D01*
X132948138Y-131277314D01*
X133001589Y-131177313D01*
X133052195Y-131010490D01*
X133065000Y-130880477D01*
X133065000Y-130880469D01*
X133069281Y-130837000D01*
X133065000Y-130793531D01*
X133065000Y-119133550D01*
X133207398Y-119105226D01*
X133395756Y-119027205D01*
X133565274Y-118913937D01*
X133709437Y-118769774D01*
X133822705Y-118600256D01*
X133900726Y-118411898D01*
X133940500Y-118211939D01*
X133940500Y-118008061D01*
X133900726Y-117808102D01*
X133822705Y-117619744D01*
X133709437Y-117450226D01*
X133665500Y-117406289D01*
X133665500Y-116781531D01*
X135669389Y-116781531D01*
X135711401Y-117071019D01*
X135809081Y-117346747D01*
X135882528Y-117484157D01*
X136131603Y-117561792D01*
X136980395Y-116713000D01*
X136131603Y-115864208D01*
X135882528Y-115941843D01*
X135756629Y-116205883D01*
X135684661Y-116489411D01*
X135669389Y-116781531D01*
X133665500Y-116781531D01*
X133665500Y-114094800D01*
X133669176Y-114057477D01*
X133665500Y-114020154D01*
X133665500Y-114020145D01*
X133654503Y-113908492D01*
X133611046Y-113765231D01*
X133540474Y-113633202D01*
X133445501Y-113517477D01*
X133416503Y-113493679D01*
X132968096Y-113045272D01*
X136197090Y-113035803D01*
X136006525Y-113226368D01*
G37*
X136006525Y-113226368D02*
X135844010Y-113469589D01*
X135732068Y-113739842D01*
X135675000Y-114026740D01*
X135675000Y-114319260D01*
X135732068Y-114606158D01*
X135844010Y-114876411D01*
X136006525Y-115119632D01*
X136213368Y-115326475D01*
X136386729Y-115442311D01*
X136311208Y-115684603D01*
X137160000Y-116533395D01*
X137174143Y-116519253D01*
X137353748Y-116698858D01*
X137339605Y-116713000D01*
X137353748Y-116727143D01*
X137174143Y-116906748D01*
X137160000Y-116892605D01*
X136311208Y-117741397D01*
X136386729Y-117983689D01*
X136213368Y-118099525D01*
X136006525Y-118306368D01*
X135844010Y-118549589D01*
X135732068Y-118819842D01*
X135675000Y-119106740D01*
X135675000Y-119399260D01*
X135732068Y-119686158D01*
X135844010Y-119956411D01*
X136006525Y-120199632D01*
X136213368Y-120406475D01*
X136456589Y-120568990D01*
X136726842Y-120680932D01*
X137013740Y-120738000D01*
X137306260Y-120738000D01*
X137593158Y-120680932D01*
X137770001Y-120607682D01*
X137770001Y-132498235D01*
X137445750Y-132500000D01*
X137287000Y-132658750D01*
X137287000Y-133858000D01*
X137307000Y-133858000D01*
X137307000Y-134112000D01*
X137287000Y-134112000D01*
X137287000Y-134132000D01*
X137033000Y-134132000D01*
X137033000Y-134112000D01*
X137013000Y-134112000D01*
X137013000Y-133858000D01*
X137033000Y-133858000D01*
X137033000Y-132658750D01*
X136874250Y-132500000D01*
X136310000Y-132496928D01*
X136185518Y-132509188D01*
X136065820Y-132545498D01*
X135955506Y-132604463D01*
X135858815Y-132683815D01*
X135779463Y-132780506D01*
X135720498Y-132890820D01*
X135698487Y-132963380D01*
X135566632Y-132831525D01*
X135323411Y-132669010D01*
X135053158Y-132557068D01*
X134808230Y-132508348D01*
X135723049Y-131593530D01*
X135756817Y-131565817D01*
X135867411Y-131431059D01*
X135949589Y-131277313D01*
X136000195Y-131110490D01*
X136013000Y-130980477D01*
X136013000Y-130980469D01*
X136017281Y-130937000D01*
X136013000Y-130893531D01*
X136013000Y-126522454D01*
X136045205Y-126474256D01*
X136123226Y-126285898D01*
X136163000Y-126085939D01*
X136163000Y-125882061D01*
X136123226Y-125682102D01*
X136045205Y-125493744D01*
X135931937Y-125324226D01*
X135787774Y-125180063D01*
X135618256Y-125066795D01*
X135429898Y-124988774D01*
X135229939Y-124949000D01*
X135026061Y-124949000D01*
X134826102Y-124988774D01*
X134637744Y-125066795D01*
X134468226Y-125180063D01*
X134324063Y-125324226D01*
X134210795Y-125493744D01*
X134132774Y-125682102D01*
X134093000Y-125882061D01*
X134093000Y-126085939D01*
X134132774Y-126285898D01*
X134210795Y-126474256D01*
X134243000Y-126522454D01*
X134243001Y-130570420D01*
X132298961Y-132514461D01*
X132226260Y-132500000D01*
X131933740Y-132500000D01*
X131727568Y-132541010D01*
X132775049Y-131493530D01*
X132808817Y-131465817D01*
X132837343Y-131431059D01*
X132919411Y-131331059D01*
X132948138Y-131277314D01*
X133001589Y-131177313D01*
X133052195Y-131010490D01*
X133065000Y-130880477D01*
X133065000Y-130880469D01*
X133069281Y-130837000D01*
X133065000Y-130793531D01*
X133065000Y-119133550D01*
X133207398Y-119105226D01*
X133395756Y-119027205D01*
X133565274Y-118913937D01*
X133709437Y-118769774D01*
X133822705Y-118600256D01*
X133900726Y-118411898D01*
X133940500Y-118211939D01*
X133940500Y-118008061D01*
X133900726Y-117808102D01*
X133822705Y-117619744D01*
X133709437Y-117450226D01*
X133665500Y-117406289D01*
X133665500Y-116781531D01*
X135669389Y-116781531D01*
X135711401Y-117071019D01*
X135809081Y-117346747D01*
X135882528Y-117484157D01*
X136131603Y-117561792D01*
X136980395Y-116713000D01*
X136131603Y-115864208D01*
X135882528Y-115941843D01*
X135756629Y-116205883D01*
X135684661Y-116489411D01*
X135669389Y-116781531D01*
X133665500Y-116781531D01*
X133665500Y-114094800D01*
X133669176Y-114057477D01*
X133665500Y-114020154D01*
X133665500Y-114020145D01*
X133654503Y-113908492D01*
X133611046Y-113765231D01*
X133540474Y-113633202D01*
X133445501Y-113517477D01*
X133416503Y-113493679D01*
X132968096Y-113045272D01*
X136197090Y-113035803D01*
X136006525Y-113226368D01*
G36*
X128033010Y-113076695D02*
G01*
X128163023Y-113089500D01*
X128163033Y-113089500D01*
X128206499Y-113093781D01*
X128249965Y-113089500D01*
X128886519Y-113089500D01*
X128753226Y-113178563D01*
X128609063Y-113322726D01*
X128495795Y-113492244D01*
X128417774Y-113680602D01*
X128378000Y-113880561D01*
X128378000Y-113942698D01*
X122044003Y-120276696D01*
X122014999Y-120300499D01*
X121959871Y-120367674D01*
X121920026Y-120416224D01*
X121905547Y-120443312D01*
X121849454Y-120548254D01*
X121805997Y-120691515D01*
X121795000Y-120803168D01*
X121795000Y-120803178D01*
X121791324Y-120840500D01*
X121795000Y-120877823D01*
X121795001Y-122803788D01*
X121751063Y-122847726D01*
X121637795Y-123017244D01*
X121559774Y-123205602D01*
X121520000Y-123405561D01*
X121520000Y-123609439D01*
X121559774Y-123809398D01*
X121637795Y-123997756D01*
X121751063Y-124167274D01*
X121895226Y-124311437D01*
X122064744Y-124424705D01*
X122253102Y-124502726D01*
X122453061Y-124542500D01*
X122656939Y-124542500D01*
X122856898Y-124502726D01*
X123045256Y-124424705D01*
X123214774Y-124311437D01*
X123358937Y-124167274D01*
X123472205Y-123997756D01*
X123550226Y-123809398D01*
X123590000Y-123609439D01*
X123590000Y-123405561D01*
X123550226Y-123205602D01*
X123472205Y-123017244D01*
X123358937Y-122847726D01*
X123315000Y-122803789D01*
X123315000Y-121155301D01*
X128443502Y-116026800D01*
X128443501Y-121259176D01*
X128439825Y-121296499D01*
X128443501Y-121333821D01*
X128443501Y-121333831D01*
X128454498Y-121445484D01*
X128497032Y-121585702D01*
X128497955Y-121588745D01*
X128568527Y-121720775D01*
X128592285Y-121749724D01*
X128663500Y-121836500D01*
X128692503Y-121860302D01*
X129350001Y-122517801D01*
X129350001Y-124746171D01*
X129326982Y-124739188D01*
X129202500Y-124726928D01*
X127297500Y-124726928D01*
X127173018Y-124739188D01*
X127053320Y-124775498D01*
X126943006Y-124834463D01*
X126846315Y-124913815D01*
X126766963Y-125010506D01*
X126717941Y-125102219D01*
X126576923Y-124989031D01*
X126301094Y-124845429D01*
X126082980Y-124774437D01*
X125837000Y-124894406D01*
X125837000Y-126238000D01*
X125857000Y-126238000D01*
X125857000Y-126492000D01*
X125837000Y-126492000D01*
X125837000Y-127835594D01*
X126082980Y-127955563D01*
X126301094Y-127884571D01*
X126576923Y-127740969D01*
X126717941Y-127627781D01*
X126766963Y-127719494D01*
X126846315Y-127816185D01*
X126943006Y-127895537D01*
X127053320Y-127954502D01*
X127173018Y-127990812D01*
X127297500Y-128003072D01*
X128382126Y-128003072D01*
X126001698Y-130383501D01*
X125687712Y-130383501D01*
X125643775Y-130339564D01*
X125474257Y-130226296D01*
X125285899Y-130148275D01*
X125085940Y-130108501D01*
X124882062Y-130108501D01*
X124682103Y-130148275D01*
X124493745Y-130226296D01*
X124324227Y-130339564D01*
X124180064Y-130483727D01*
X124066796Y-130653245D01*
X123988775Y-130841603D01*
X123949001Y-131041562D01*
X123949001Y-131245440D01*
X123988775Y-131445399D01*
X124066796Y-131633757D01*
X124180064Y-131803275D01*
X124324227Y-131947438D01*
X124493745Y-132060706D01*
X124682103Y-132138727D01*
X124882062Y-132178501D01*
X125085940Y-132178501D01*
X125285899Y-132138727D01*
X125474257Y-132060706D01*
X125643775Y-131947438D01*
X125687712Y-131903501D01*
X126279177Y-131903501D01*
X126316499Y-131907177D01*
X126353821Y-131903501D01*
X126353832Y-131903501D01*
X126465485Y-131892504D01*
X126608746Y-131849047D01*
X126740775Y-131778475D01*
X126856500Y-131683502D01*
X126880303Y-131654498D01*
X130275001Y-128259801D01*
X130275001Y-129458420D01*
X127218961Y-132514461D01*
X127146260Y-132500000D01*
X126853740Y-132500000D01*
X126566842Y-132557068D01*
X126296589Y-132669010D01*
X126053368Y-132831525D01*
X125846525Y-133038368D01*
X125730000Y-133212760D01*
X125613475Y-133038368D01*
X125406632Y-132831525D01*
X125163411Y-132669010D01*
X124893158Y-132557068D01*
X124606260Y-132500000D01*
X124313740Y-132500000D01*
X124026842Y-132557068D01*
X123756589Y-132669010D01*
X123513368Y-132831525D01*
X123306525Y-133038368D01*
X123190000Y-133212760D01*
X123073475Y-133038368D01*
X122866632Y-132831525D01*
X122623411Y-132669010D01*
X122353158Y-132557068D01*
X122066260Y-132500000D01*
X121773740Y-132500000D01*
X121486842Y-132557068D01*
X121216589Y-132669010D01*
X120973368Y-132831525D01*
X120766525Y-133038368D01*
X120650000Y-133212760D01*
X120533475Y-133038368D01*
X120326632Y-132831525D01*
X120083411Y-132669010D01*
X119813158Y-132557068D01*
X119526260Y-132500000D01*
X119233740Y-132500000D01*
X118946842Y-132557068D01*
X118676589Y-132669010D01*
X118433368Y-132831525D01*
X118226525Y-133038368D01*
X118110000Y-133212760D01*
X117993475Y-133038368D01*
X117786632Y-132831525D01*
X117543411Y-132669010D01*
X117273158Y-132557068D01*
X116986260Y-132500000D01*
X116693740Y-132500000D01*
X116406842Y-132557068D01*
X116136589Y-132669010D01*
X115893368Y-132831525D01*
X115686525Y-133038368D01*
X115570000Y-133212760D01*
X115453475Y-133038368D01*
X115246632Y-132831525D01*
X115003411Y-132669010D01*
X114733158Y-132557068D01*
X114446260Y-132500000D01*
X114153740Y-132500000D01*
X113866842Y-132557068D01*
X113690000Y-132630318D01*
X113690000Y-130388802D01*
X113852257Y-130456011D01*
X114148816Y-130515000D01*
X114451184Y-130515000D01*
X114747743Y-130456011D01*
X115027095Y-130340299D01*
X115278505Y-130172312D01*
X115492312Y-129958505D01*
X115638313Y-129740000D01*
X116801678Y-129740000D01*
X116839000Y-129743676D01*
X116876322Y-129740000D01*
X116876333Y-129740000D01*
X116987986Y-129729003D01*
X117131247Y-129685546D01*
X117263276Y-129614974D01*
X117379001Y-129520001D01*
X117402804Y-129490997D01*
X119543036Y-127350766D01*
X119656047Y-127318164D01*
X119787879Y-127250000D01*
X121817606Y-127250000D01*
X121843655Y-127298734D01*
X122042037Y-127540463D01*
X122283765Y-127738845D01*
X122559551Y-127886255D01*
X122858796Y-127977030D01*
X123170000Y-128007681D01*
X123481203Y-127977030D01*
X123780448Y-127886255D01*
X124056234Y-127738845D01*
X124297963Y-127540463D01*
X124445163Y-127361101D01*
X124600563Y-127546315D01*
X124843077Y-127740969D01*
X125118906Y-127884571D01*
X125337020Y-127955563D01*
X125583000Y-127835594D01*
X125583000Y-126492000D01*
X125563000Y-126492000D01*
X125563000Y-126238000D01*
X125583000Y-126238000D01*
X125583000Y-124894406D01*
X125337020Y-124774437D01*
X125118906Y-124845429D01*
X124843077Y-124989031D01*
X124600563Y-125183685D01*
X124445162Y-125368900D01*
X124297963Y-125189537D01*
X124056235Y-124991155D01*
X123780449Y-124843745D01*
X123481204Y-124752970D01*
X123170000Y-124722319D01*
X122858797Y-124752970D01*
X122559552Y-124843745D01*
X122283766Y-124991155D01*
X122042037Y-125189537D01*
X121843655Y-125431265D01*
X121817606Y-125480000D01*
X119577114Y-125480000D01*
X116034999Y-121839670D01*
X116034999Y-120146464D01*
X116039280Y-120102998D01*
X116034999Y-120059532D01*
X116034999Y-120059522D01*
X116022194Y-119929509D01*
X115971588Y-119762686D01*
X115889410Y-119608940D01*
X115778816Y-119474182D01*
X115771321Y-119468031D01*
X115785000Y-119399260D01*
X115785000Y-119106740D01*
X115727932Y-118819842D01*
X115615990Y-118549589D01*
X115453475Y-118306368D01*
X115246632Y-118099525D01*
X115072240Y-117983000D01*
X115246632Y-117866475D01*
X115453475Y-117659632D01*
X115615990Y-117416411D01*
X115727932Y-117146158D01*
X115785000Y-116859260D01*
X115785000Y-116566740D01*
X115743877Y-116360000D01*
X116267581Y-116360000D01*
X116300000Y-116363193D01*
X116332419Y-116360000D01*
X116429383Y-116350450D01*
X116553793Y-116312710D01*
X116668450Y-116251425D01*
X116768948Y-116168948D01*
X116851425Y-116068450D01*
X116912710Y-115953793D01*
X116950450Y-115829383D01*
X116963193Y-115700000D01*
X116960000Y-115667581D01*
X116960000Y-113092217D01*
X122938000Y-113074686D01*
X122938000Y-114747198D01*
X120292699Y-117392500D01*
X120230561Y-117392500D01*
X120030602Y-117432274D01*
X119842244Y-117510295D01*
X119672726Y-117623563D01*
X119528563Y-117767726D01*
X119415295Y-117937244D01*
X119337274Y-118125602D01*
X119297500Y-118325561D01*
X119297500Y-118529439D01*
X119337274Y-118729398D01*
X119415295Y-118917756D01*
X119528563Y-119087274D01*
X119672726Y-119231437D01*
X119842244Y-119344705D01*
X120030602Y-119422726D01*
X120230561Y-119462500D01*
X120434439Y-119462500D01*
X120634398Y-119422726D01*
X120822756Y-119344705D01*
X120992274Y-119231437D01*
X121136437Y-119087274D01*
X121249705Y-118917756D01*
X121327726Y-118729398D01*
X121367500Y-118529439D01*
X121367500Y-118467301D01*
X124209004Y-115625798D01*
X124238001Y-115602001D01*
X124332974Y-115486276D01*
X124403546Y-115354247D01*
X124447003Y-115210986D01*
X124458000Y-115099333D01*
X124458000Y-115099325D01*
X124461676Y-115062000D01*
X124458000Y-115024675D01*
X124458000Y-113070229D01*
X127977669Y-113059907D01*
X128033010Y-113076695D01*
G37*
X128033010Y-113076695D02*
X128163023Y-113089500D01*
X128163033Y-113089500D01*
X128206499Y-113093781D01*
X128249965Y-113089500D01*
X128886519Y-113089500D01*
X128753226Y-113178563D01*
X128609063Y-113322726D01*
X128495795Y-113492244D01*
X128417774Y-113680602D01*
X128378000Y-113880561D01*
X128378000Y-113942698D01*
X122044003Y-120276696D01*
X122014999Y-120300499D01*
X121959871Y-120367674D01*
X121920026Y-120416224D01*
X121905547Y-120443312D01*
X121849454Y-120548254D01*
X121805997Y-120691515D01*
X121795000Y-120803168D01*
X121795000Y-120803178D01*
X121791324Y-120840500D01*
X121795000Y-120877823D01*
X121795001Y-122803788D01*
X121751063Y-122847726D01*
X121637795Y-123017244D01*
X121559774Y-123205602D01*
X121520000Y-123405561D01*
X121520000Y-123609439D01*
X121559774Y-123809398D01*
X121637795Y-123997756D01*
X121751063Y-124167274D01*
X121895226Y-124311437D01*
X122064744Y-124424705D01*
X122253102Y-124502726D01*
X122453061Y-124542500D01*
X122656939Y-124542500D01*
X122856898Y-124502726D01*
X123045256Y-124424705D01*
X123214774Y-124311437D01*
X123358937Y-124167274D01*
X123472205Y-123997756D01*
X123550226Y-123809398D01*
X123590000Y-123609439D01*
X123590000Y-123405561D01*
X123550226Y-123205602D01*
X123472205Y-123017244D01*
X123358937Y-122847726D01*
X123315000Y-122803789D01*
X123315000Y-121155301D01*
X128443502Y-116026800D01*
X128443501Y-121259176D01*
X128439825Y-121296499D01*
X128443501Y-121333821D01*
X128443501Y-121333831D01*
X128454498Y-121445484D01*
X128497032Y-121585702D01*
X128497955Y-121588745D01*
X128568527Y-121720775D01*
X128592285Y-121749724D01*
X128663500Y-121836500D01*
X128692503Y-121860302D01*
X129350001Y-122517801D01*
X129350001Y-124746171D01*
X129326982Y-124739188D01*
X129202500Y-124726928D01*
X127297500Y-124726928D01*
X127173018Y-124739188D01*
X127053320Y-124775498D01*
X126943006Y-124834463D01*
X126846315Y-124913815D01*
X126766963Y-125010506D01*
X126717941Y-125102219D01*
X126576923Y-124989031D01*
X126301094Y-124845429D01*
X126082980Y-124774437D01*
X125837000Y-124894406D01*
X125837000Y-126238000D01*
X125857000Y-126238000D01*
X125857000Y-126492000D01*
X125837000Y-126492000D01*
X125837000Y-127835594D01*
X126082980Y-127955563D01*
X126301094Y-127884571D01*
X126576923Y-127740969D01*
X126717941Y-127627781D01*
X126766963Y-127719494D01*
X126846315Y-127816185D01*
X126943006Y-127895537D01*
X127053320Y-127954502D01*
X127173018Y-127990812D01*
X127297500Y-128003072D01*
X128382126Y-128003072D01*
X126001698Y-130383501D01*
X125687712Y-130383501D01*
X125643775Y-130339564D01*
X125474257Y-130226296D01*
X125285899Y-130148275D01*
X125085940Y-130108501D01*
X124882062Y-130108501D01*
X124682103Y-130148275D01*
X124493745Y-130226296D01*
X124324227Y-130339564D01*
X124180064Y-130483727D01*
X124066796Y-130653245D01*
X123988775Y-130841603D01*
X123949001Y-131041562D01*
X123949001Y-131245440D01*
X123988775Y-131445399D01*
X124066796Y-131633757D01*
X124180064Y-131803275D01*
X124324227Y-131947438D01*
X124493745Y-132060706D01*
X124682103Y-132138727D01*
X124882062Y-132178501D01*
X125085940Y-132178501D01*
X125285899Y-132138727D01*
X125474257Y-132060706D01*
X125643775Y-131947438D01*
X125687712Y-131903501D01*
X126279177Y-131903501D01*
X126316499Y-131907177D01*
X126353821Y-131903501D01*
X126353832Y-131903501D01*
X126465485Y-131892504D01*
X126608746Y-131849047D01*
X126740775Y-131778475D01*
X126856500Y-131683502D01*
X126880303Y-131654498D01*
X130275001Y-128259801D01*
X130275001Y-129458420D01*
X127218961Y-132514461D01*
X127146260Y-132500000D01*
X126853740Y-132500000D01*
X126566842Y-132557068D01*
X126296589Y-132669010D01*
X126053368Y-132831525D01*
X125846525Y-133038368D01*
X125730000Y-133212760D01*
X125613475Y-133038368D01*
X125406632Y-132831525D01*
X125163411Y-132669010D01*
X124893158Y-132557068D01*
X124606260Y-132500000D01*
X124313740Y-132500000D01*
X124026842Y-132557068D01*
X123756589Y-132669010D01*
X123513368Y-132831525D01*
X123306525Y-133038368D01*
X123190000Y-133212760D01*
X123073475Y-133038368D01*
X122866632Y-132831525D01*
X122623411Y-132669010D01*
X122353158Y-132557068D01*
X122066260Y-132500000D01*
X121773740Y-132500000D01*
X121486842Y-132557068D01*
X121216589Y-132669010D01*
X120973368Y-132831525D01*
X120766525Y-133038368D01*
X120650000Y-133212760D01*
X120533475Y-133038368D01*
X120326632Y-132831525D01*
X120083411Y-132669010D01*
X119813158Y-132557068D01*
X119526260Y-132500000D01*
X119233740Y-132500000D01*
X118946842Y-132557068D01*
X118676589Y-132669010D01*
X118433368Y-132831525D01*
X118226525Y-133038368D01*
X118110000Y-133212760D01*
X117993475Y-133038368D01*
X117786632Y-132831525D01*
X117543411Y-132669010D01*
X117273158Y-132557068D01*
X116986260Y-132500000D01*
X116693740Y-132500000D01*
X116406842Y-132557068D01*
X116136589Y-132669010D01*
X115893368Y-132831525D01*
X115686525Y-133038368D01*
X115570000Y-133212760D01*
X115453475Y-133038368D01*
X115246632Y-132831525D01*
X115003411Y-132669010D01*
X114733158Y-132557068D01*
X114446260Y-132500000D01*
X114153740Y-132500000D01*
X113866842Y-132557068D01*
X113690000Y-132630318D01*
X113690000Y-130388802D01*
X113852257Y-130456011D01*
X114148816Y-130515000D01*
X114451184Y-130515000D01*
X114747743Y-130456011D01*
X115027095Y-130340299D01*
X115278505Y-130172312D01*
X115492312Y-129958505D01*
X115638313Y-129740000D01*
X116801678Y-129740000D01*
X116839000Y-129743676D01*
X116876322Y-129740000D01*
X116876333Y-129740000D01*
X116987986Y-129729003D01*
X117131247Y-129685546D01*
X117263276Y-129614974D01*
X117379001Y-129520001D01*
X117402804Y-129490997D01*
X119543036Y-127350766D01*
X119656047Y-127318164D01*
X119787879Y-127250000D01*
X121817606Y-127250000D01*
X121843655Y-127298734D01*
X122042037Y-127540463D01*
X122283765Y-127738845D01*
X122559551Y-127886255D01*
X122858796Y-127977030D01*
X123170000Y-128007681D01*
X123481203Y-127977030D01*
X123780448Y-127886255D01*
X124056234Y-127738845D01*
X124297963Y-127540463D01*
X124445163Y-127361101D01*
X124600563Y-127546315D01*
X124843077Y-127740969D01*
X125118906Y-127884571D01*
X125337020Y-127955563D01*
X125583000Y-127835594D01*
X125583000Y-126492000D01*
X125563000Y-126492000D01*
X125563000Y-126238000D01*
X125583000Y-126238000D01*
X125583000Y-124894406D01*
X125337020Y-124774437D01*
X125118906Y-124845429D01*
X124843077Y-124989031D01*
X124600563Y-125183685D01*
X124445162Y-125368900D01*
X124297963Y-125189537D01*
X124056235Y-124991155D01*
X123780449Y-124843745D01*
X123481204Y-124752970D01*
X123170000Y-124722319D01*
X122858797Y-124752970D01*
X122559552Y-124843745D01*
X122283766Y-124991155D01*
X122042037Y-125189537D01*
X121843655Y-125431265D01*
X121817606Y-125480000D01*
X119577114Y-125480000D01*
X116034999Y-121839670D01*
X116034999Y-120146464D01*
X116039280Y-120102998D01*
X116034999Y-120059532D01*
X116034999Y-120059522D01*
X116022194Y-119929509D01*
X115971588Y-119762686D01*
X115889410Y-119608940D01*
X115778816Y-119474182D01*
X115771321Y-119468031D01*
X115785000Y-119399260D01*
X115785000Y-119106740D01*
X115727932Y-118819842D01*
X115615990Y-118549589D01*
X115453475Y-118306368D01*
X115246632Y-118099525D01*
X115072240Y-117983000D01*
X115246632Y-117866475D01*
X115453475Y-117659632D01*
X115615990Y-117416411D01*
X115727932Y-117146158D01*
X115785000Y-116859260D01*
X115785000Y-116566740D01*
X115743877Y-116360000D01*
X116267581Y-116360000D01*
X116300000Y-116363193D01*
X116332419Y-116360000D01*
X116429383Y-116350450D01*
X116553793Y-116312710D01*
X116668450Y-116251425D01*
X116768948Y-116168948D01*
X116851425Y-116068450D01*
X116912710Y-115953793D01*
X116950450Y-115829383D01*
X116963193Y-115700000D01*
X116960000Y-115667581D01*
X116960000Y-113092217D01*
X122938000Y-113074686D01*
X122938000Y-114747198D01*
X120292699Y-117392500D01*
X120230561Y-117392500D01*
X120030602Y-117432274D01*
X119842244Y-117510295D01*
X119672726Y-117623563D01*
X119528563Y-117767726D01*
X119415295Y-117937244D01*
X119337274Y-118125602D01*
X119297500Y-118325561D01*
X119297500Y-118529439D01*
X119337274Y-118729398D01*
X119415295Y-118917756D01*
X119528563Y-119087274D01*
X119672726Y-119231437D01*
X119842244Y-119344705D01*
X120030602Y-119422726D01*
X120230561Y-119462500D01*
X120434439Y-119462500D01*
X120634398Y-119422726D01*
X120822756Y-119344705D01*
X120992274Y-119231437D01*
X121136437Y-119087274D01*
X121249705Y-118917756D01*
X121327726Y-118729398D01*
X121367500Y-118529439D01*
X121367500Y-118467301D01*
X124209004Y-115625798D01*
X124238001Y-115602001D01*
X124332974Y-115486276D01*
X124403546Y-115354247D01*
X124447003Y-115210986D01*
X124458000Y-115099333D01*
X124458000Y-115099325D01*
X124461676Y-115062000D01*
X124458000Y-115024675D01*
X124458000Y-113070229D01*
X127977669Y-113059907D01*
X128033010Y-113076695D01*
G36*
X113866842Y-120680932D02*
G01*
X114153740Y-120738000D01*
X114264999Y-120738000D01*
X114265000Y-121671386D01*
X114204858Y-121766791D01*
X114142449Y-121929567D01*
X114112996Y-122101391D01*
X114117630Y-122275657D01*
X114156174Y-122445673D01*
X114227144Y-122604903D01*
X114327815Y-122747227D01*
X114454317Y-122867177D01*
X114601791Y-122960142D01*
X114687653Y-122993062D01*
X118171100Y-126573099D01*
X116524199Y-128220000D01*
X115638313Y-128220000D01*
X115492312Y-128001495D01*
X115425873Y-127935056D01*
X115444180Y-127929502D01*
X115554494Y-127870537D01*
X115651185Y-127791185D01*
X115730537Y-127694494D01*
X115789502Y-127584180D01*
X115825812Y-127464482D01*
X115838072Y-127340000D01*
X115835000Y-126725750D01*
X115676250Y-126567000D01*
X114427000Y-126567000D01*
X114427000Y-126587000D01*
X114173000Y-126587000D01*
X114173000Y-126567000D01*
X114153000Y-126567000D01*
X114153000Y-126313000D01*
X114173000Y-126313000D01*
X114173000Y-125063750D01*
X114427000Y-125063750D01*
X114427000Y-126313000D01*
X115676250Y-126313000D01*
X115835000Y-126154250D01*
X115838072Y-125540000D01*
X115825812Y-125415518D01*
X115789502Y-125295820D01*
X115730537Y-125185506D01*
X115651185Y-125088815D01*
X115554494Y-125009463D01*
X115444180Y-124950498D01*
X115324482Y-124914188D01*
X115200000Y-124901928D01*
X114585750Y-124905000D01*
X114427000Y-125063750D01*
X114173000Y-125063750D01*
X114014250Y-124905000D01*
X113690000Y-124903378D01*
X113690000Y-120607682D01*
X113866842Y-120680932D01*
G37*
X113866842Y-120680932D02*
X114153740Y-120738000D01*
X114264999Y-120738000D01*
X114265000Y-121671386D01*
X114204858Y-121766791D01*
X114142449Y-121929567D01*
X114112996Y-122101391D01*
X114117630Y-122275657D01*
X114156174Y-122445673D01*
X114227144Y-122604903D01*
X114327815Y-122747227D01*
X114454317Y-122867177D01*
X114601791Y-122960142D01*
X114687653Y-122993062D01*
X118171100Y-126573099D01*
X116524199Y-128220000D01*
X115638313Y-128220000D01*
X115492312Y-128001495D01*
X115425873Y-127935056D01*
X115444180Y-127929502D01*
X115554494Y-127870537D01*
X115651185Y-127791185D01*
X115730537Y-127694494D01*
X115789502Y-127584180D01*
X115825812Y-127464482D01*
X115838072Y-127340000D01*
X115835000Y-126725750D01*
X115676250Y-126567000D01*
X114427000Y-126567000D01*
X114427000Y-126587000D01*
X114173000Y-126587000D01*
X114173000Y-126567000D01*
X114153000Y-126567000D01*
X114153000Y-126313000D01*
X114173000Y-126313000D01*
X114173000Y-125063750D01*
X114427000Y-125063750D01*
X114427000Y-126313000D01*
X115676250Y-126313000D01*
X115835000Y-126154250D01*
X115838072Y-125540000D01*
X115825812Y-125415518D01*
X115789502Y-125295820D01*
X115730537Y-125185506D01*
X115651185Y-125088815D01*
X115554494Y-125009463D01*
X115444180Y-124950498D01*
X115324482Y-124914188D01*
X115200000Y-124901928D01*
X114585750Y-124905000D01*
X114427000Y-125063750D01*
X114173000Y-125063750D01*
X114014250Y-124905000D01*
X113690000Y-124903378D01*
X113690000Y-120607682D01*
X113866842Y-120680932D01*
G36*
X126492000Y-112013199D02*
G01*
X124458000Y-112000407D01*
X124458000Y-111379990D01*
X124548561Y-111398004D01*
X124752439Y-111398004D01*
X124952398Y-111358230D01*
X125140756Y-111280209D01*
X125310274Y-111166941D01*
X125454437Y-111022778D01*
X125567705Y-110853260D01*
X125645726Y-110664902D01*
X125685500Y-110464943D01*
X125685500Y-110432010D01*
X126492000Y-110432010D01*
X126492000Y-112013199D01*
G37*
X126492000Y-112013199D02*
X124458000Y-112000407D01*
X124458000Y-111379990D01*
X124548561Y-111398004D01*
X124752439Y-111398004D01*
X124952398Y-111358230D01*
X125140756Y-111280209D01*
X125310274Y-111166941D01*
X125454437Y-111022778D01*
X125567705Y-110853260D01*
X125645726Y-110664902D01*
X125685500Y-110464943D01*
X125685500Y-110432010D01*
X126492000Y-110432010D01*
X126492000Y-112013199D01*
G36*
X126492000Y-99869151D02*
G01*
X126474256Y-99857295D01*
X126285898Y-99779274D01*
X126085939Y-99739500D01*
X125882061Y-99739500D01*
X125682102Y-99779274D01*
X125493744Y-99857295D01*
X125324226Y-99970563D01*
X125180063Y-100114726D01*
X125066795Y-100284244D01*
X124988774Y-100472602D01*
X124949000Y-100672561D01*
X124949000Y-100876439D01*
X124988774Y-101076398D01*
X125066795Y-101264756D01*
X125180063Y-101434274D01*
X125224001Y-101478212D01*
X125224000Y-106619198D01*
X123186998Y-108656201D01*
X123158000Y-108679999D01*
X123134202Y-108708997D01*
X123134201Y-108708998D01*
X123063026Y-108795724D01*
X122992454Y-108927754D01*
X122980712Y-108966464D01*
X122948998Y-109071014D01*
X122938001Y-109182667D01*
X122934324Y-109220000D01*
X122938001Y-109257332D01*
X122938001Y-111990847D01*
X122123378Y-111985724D01*
X122104317Y-111962498D01*
X122070549Y-111934785D01*
X120221219Y-110085456D01*
X120193502Y-110051683D01*
X120058744Y-109941089D01*
X119904998Y-109858911D01*
X119738175Y-109808305D01*
X119608162Y-109795500D01*
X119608154Y-109795500D01*
X119564685Y-109791219D01*
X119521216Y-109795500D01*
X118648454Y-109795500D01*
X118600256Y-109763295D01*
X118411898Y-109685274D01*
X118211939Y-109645500D01*
X118008061Y-109645500D01*
X117808102Y-109685274D01*
X117619744Y-109763295D01*
X117450226Y-109876563D01*
X117306063Y-110020726D01*
X117192795Y-110190244D01*
X117114774Y-110378602D01*
X117075000Y-110578561D01*
X117075000Y-110782439D01*
X117114774Y-110982398D01*
X117192795Y-111170756D01*
X117306063Y-111340274D01*
X117450226Y-111484437D01*
X117619744Y-111597705D01*
X117808102Y-111675726D01*
X118008061Y-111715500D01*
X118211939Y-111715500D01*
X118411898Y-111675726D01*
X118600256Y-111597705D01*
X118648454Y-111565500D01*
X119198107Y-111565500D01*
X119602476Y-111969869D01*
X116960000Y-111953250D01*
X116960000Y-97942000D01*
X126492000Y-97942000D01*
X126492000Y-99869151D01*
G37*
X126492000Y-99869151D02*
X126474256Y-99857295D01*
X126285898Y-99779274D01*
X126085939Y-99739500D01*
X125882061Y-99739500D01*
X125682102Y-99779274D01*
X125493744Y-99857295D01*
X125324226Y-99970563D01*
X125180063Y-100114726D01*
X125066795Y-100284244D01*
X124988774Y-100472602D01*
X124949000Y-100672561D01*
X124949000Y-100876439D01*
X124988774Y-101076398D01*
X125066795Y-101264756D01*
X125180063Y-101434274D01*
X125224001Y-101478212D01*
X125224000Y-106619198D01*
X123186998Y-108656201D01*
X123158000Y-108679999D01*
X123134202Y-108708997D01*
X123134201Y-108708998D01*
X123063026Y-108795724D01*
X122992454Y-108927754D01*
X122980712Y-108966464D01*
X122948998Y-109071014D01*
X122938001Y-109182667D01*
X122934324Y-109220000D01*
X122938001Y-109257332D01*
X122938001Y-111990847D01*
X122123378Y-111985724D01*
X122104317Y-111962498D01*
X122070549Y-111934785D01*
X120221219Y-110085456D01*
X120193502Y-110051683D01*
X120058744Y-109941089D01*
X119904998Y-109858911D01*
X119738175Y-109808305D01*
X119608162Y-109795500D01*
X119608154Y-109795500D01*
X119564685Y-109791219D01*
X119521216Y-109795500D01*
X118648454Y-109795500D01*
X118600256Y-109763295D01*
X118411898Y-109685274D01*
X118211939Y-109645500D01*
X118008061Y-109645500D01*
X117808102Y-109685274D01*
X117619744Y-109763295D01*
X117450226Y-109876563D01*
X117306063Y-110020726D01*
X117192795Y-110190244D01*
X117114774Y-110378602D01*
X117075000Y-110578561D01*
X117075000Y-110782439D01*
X117114774Y-110982398D01*
X117192795Y-111170756D01*
X117306063Y-111340274D01*
X117450226Y-111484437D01*
X117619744Y-111597705D01*
X117808102Y-111675726D01*
X118008061Y-111715500D01*
X118211939Y-111715500D01*
X118411898Y-111675726D01*
X118600256Y-111597705D01*
X118648454Y-111565500D01*
X119198107Y-111565500D01*
X119602476Y-111969869D01*
X116960000Y-111953250D01*
X116960000Y-97942000D01*
X126492000Y-97942000D01*
X126492000Y-99869151D01*
G36*
X137770000Y-100118318D02*
G01*
X137593158Y-100045068D01*
X137306260Y-99988000D01*
X137013740Y-99988000D01*
X136726842Y-100045068D01*
X136456589Y-100157010D01*
X136213368Y-100319525D01*
X136006525Y-100526368D01*
X135844010Y-100769589D01*
X135732068Y-101039842D01*
X135675000Y-101326740D01*
X135675000Y-101619260D01*
X135732068Y-101906158D01*
X135844010Y-102176411D01*
X136006525Y-102419632D01*
X136213368Y-102626475D01*
X136387760Y-102743000D01*
X136213368Y-102859525D01*
X136006525Y-103066368D01*
X135844010Y-103309589D01*
X135732068Y-103579842D01*
X135675000Y-103866740D01*
X135675000Y-104159260D01*
X135732068Y-104446158D01*
X135844010Y-104716411D01*
X136006525Y-104959632D01*
X136213368Y-105166475D01*
X136387760Y-105283000D01*
X136213368Y-105399525D01*
X136006525Y-105606368D01*
X135844010Y-105849589D01*
X135732068Y-106119842D01*
X135675000Y-106406740D01*
X135675000Y-106699260D01*
X135718791Y-106919408D01*
X135473997Y-107164202D01*
X135444999Y-107188000D01*
X135421201Y-107216998D01*
X135421200Y-107216999D01*
X135350025Y-107303725D01*
X135279453Y-107435755D01*
X135235997Y-107579016D01*
X135221323Y-107728001D01*
X135225000Y-107765333D01*
X135224999Y-109897850D01*
X135175101Y-109907775D01*
X134986743Y-109985796D01*
X134817225Y-110099064D01*
X134673062Y-110243227D01*
X134559794Y-110412745D01*
X134481773Y-110601103D01*
X134441999Y-110801062D01*
X134441999Y-111004940D01*
X134481773Y-111204899D01*
X134559794Y-111393257D01*
X134673062Y-111562775D01*
X134817225Y-111706938D01*
X134986743Y-111820206D01*
X135175101Y-111898227D01*
X135375060Y-111938001D01*
X135578938Y-111938001D01*
X135701718Y-111913579D01*
X135721693Y-112014000D01*
X133331579Y-112014000D01*
X131528746Y-110211168D01*
X131551226Y-110156898D01*
X131591000Y-109956939D01*
X131591000Y-109753061D01*
X131551226Y-109553102D01*
X131473205Y-109364744D01*
X131359937Y-109195226D01*
X131215774Y-109051063D01*
X131046256Y-108937795D01*
X130857898Y-108859774D01*
X130657939Y-108820000D01*
X130595802Y-108820000D01*
X128839500Y-107063699D01*
X128839500Y-101478211D01*
X128883437Y-101434274D01*
X128996705Y-101264756D01*
X129074726Y-101076398D01*
X129114500Y-100876439D01*
X129114500Y-100672561D01*
X129074726Y-100472602D01*
X128996705Y-100284244D01*
X128883437Y-100114726D01*
X128739274Y-99970563D01*
X128569756Y-99857295D01*
X128381398Y-99779274D01*
X128181439Y-99739500D01*
X127977561Y-99739500D01*
X127777602Y-99779274D01*
X127589244Y-99857295D01*
X127419726Y-99970563D01*
X127317500Y-100072789D01*
X127317500Y-97942000D01*
X137770000Y-97942000D01*
X137770000Y-100118318D01*
G37*
X137770000Y-100118318D02*
X137593158Y-100045068D01*
X137306260Y-99988000D01*
X137013740Y-99988000D01*
X136726842Y-100045068D01*
X136456589Y-100157010D01*
X136213368Y-100319525D01*
X136006525Y-100526368D01*
X135844010Y-100769589D01*
X135732068Y-101039842D01*
X135675000Y-101326740D01*
X135675000Y-101619260D01*
X135732068Y-101906158D01*
X135844010Y-102176411D01*
X136006525Y-102419632D01*
X136213368Y-102626475D01*
X136387760Y-102743000D01*
X136213368Y-102859525D01*
X136006525Y-103066368D01*
X135844010Y-103309589D01*
X135732068Y-103579842D01*
X135675000Y-103866740D01*
X135675000Y-104159260D01*
X135732068Y-104446158D01*
X135844010Y-104716411D01*
X136006525Y-104959632D01*
X136213368Y-105166475D01*
X136387760Y-105283000D01*
X136213368Y-105399525D01*
X136006525Y-105606368D01*
X135844010Y-105849589D01*
X135732068Y-106119842D01*
X135675000Y-106406740D01*
X135675000Y-106699260D01*
X135718791Y-106919408D01*
X135473997Y-107164202D01*
X135444999Y-107188000D01*
X135421201Y-107216998D01*
X135421200Y-107216999D01*
X135350025Y-107303725D01*
X135279453Y-107435755D01*
X135235997Y-107579016D01*
X135221323Y-107728001D01*
X135225000Y-107765333D01*
X135224999Y-109897850D01*
X135175101Y-109907775D01*
X134986743Y-109985796D01*
X134817225Y-110099064D01*
X134673062Y-110243227D01*
X134559794Y-110412745D01*
X134481773Y-110601103D01*
X134441999Y-110801062D01*
X134441999Y-111004940D01*
X134481773Y-111204899D01*
X134559794Y-111393257D01*
X134673062Y-111562775D01*
X134817225Y-111706938D01*
X134986743Y-111820206D01*
X135175101Y-111898227D01*
X135375060Y-111938001D01*
X135578938Y-111938001D01*
X135701718Y-111913579D01*
X135721693Y-112014000D01*
X133331579Y-112014000D01*
X131528746Y-110211168D01*
X131551226Y-110156898D01*
X131591000Y-109956939D01*
X131591000Y-109753061D01*
X131551226Y-109553102D01*
X131473205Y-109364744D01*
X131359937Y-109195226D01*
X131215774Y-109051063D01*
X131046256Y-108937795D01*
X130857898Y-108859774D01*
X130657939Y-108820000D01*
X130595802Y-108820000D01*
X128839500Y-107063699D01*
X128839500Y-101478211D01*
X128883437Y-101434274D01*
X128996705Y-101264756D01*
X129074726Y-101076398D01*
X129114500Y-100876439D01*
X129114500Y-100672561D01*
X129074726Y-100472602D01*
X128996705Y-100284244D01*
X128883437Y-100114726D01*
X128739274Y-99970563D01*
X128569756Y-99857295D01*
X128381398Y-99779274D01*
X128181439Y-99739500D01*
X127977561Y-99739500D01*
X127777602Y-99779274D01*
X127589244Y-99857295D01*
X127419726Y-99970563D01*
X127317500Y-100072789D01*
X127317500Y-97942000D01*
X137770000Y-97942000D01*
X137770000Y-100118318D01*
M02*
