G04 #@! TF.GenerationSoftware,KiCad,Pcbnew,5.1.5+dfsg1-2build2*
G04 #@! TF.CreationDate,2021-04-05T13:49:58+02:00*
G04 #@! TF.ProjectId,transistor_board,7472616e-7369-4737-946f-725f626f6172,rev?*
G04 #@! TF.SameCoordinates,Original*
G04 #@! TF.FileFunction,Copper,L2,Bot*
G04 #@! TF.FilePolarity,Positive*
%FSLAX46Y46*%
G04 Gerber Fmt 4.6, Leading zero omitted, Abs format (unit mm)*
G04 Created by KiCad (PCBNEW 5.1.5+dfsg1-2build2) date 2021-04-05 13:49:58*
%MOMM*%
%LPD*%
G04 APERTURE LIST*
%ADD10R,5.800000X6.400000*%
%ADD11R,1.200000X2.200000*%
%ADD12C,1.800000*%
%ADD13R,1.800000X1.800000*%
%ADD14C,1.700000*%
%ADD15C,0.100000*%
%ADD16R,0.900000X0.800000*%
%ADD17R,0.600000X1.300000*%
%ADD18R,1.500000X2.000000*%
%ADD19O,1.905000X2.000000*%
%ADD20R,1.905000X2.000000*%
%ADD21O,1.700000X1.700000*%
%ADD22R,1.700000X1.700000*%
%ADD23C,0.800000*%
%ADD24C,0.500000*%
%ADD25C,0.250000*%
%ADD26C,0.254000*%
G04 APERTURE END LIST*
D10*
X120396000Y-101214500D03*
D11*
X118116000Y-107514500D03*
X120396000Y-107514500D03*
X122676000Y-107514500D03*
D10*
X132080000Y-101278000D03*
D11*
X129800000Y-107578000D03*
X132080000Y-107578000D03*
X134360000Y-107578000D03*
D12*
X114300000Y-128980000D03*
D13*
X114300000Y-126440000D03*
D14*
X114300000Y-119253000D03*
X114300000Y-116713000D03*
X137160000Y-101473000D03*
X137160000Y-104013000D03*
X137160000Y-106553000D03*
X137160000Y-109093000D03*
X137160000Y-111633000D03*
X137160000Y-114173000D03*
X137160000Y-116713000D03*
X137160000Y-119253000D03*
G04 #@! TA.AperFunction,SMDPad,CuDef*
D15*
G36*
X136704505Y-122918204D02*
G01*
X136728773Y-122921804D01*
X136752572Y-122927765D01*
X136775671Y-122936030D01*
X136797850Y-122946520D01*
X136818893Y-122959132D01*
X136838599Y-122973747D01*
X136856777Y-122990223D01*
X136873253Y-123008401D01*
X136887868Y-123028107D01*
X136900480Y-123049150D01*
X136910970Y-123071329D01*
X136919235Y-123094428D01*
X136925196Y-123118227D01*
X136928796Y-123142495D01*
X136930000Y-123166999D01*
X136930000Y-124017001D01*
X136928796Y-124041505D01*
X136925196Y-124065773D01*
X136919235Y-124089572D01*
X136910970Y-124112671D01*
X136900480Y-124134850D01*
X136887868Y-124155893D01*
X136873253Y-124175599D01*
X136856777Y-124193777D01*
X136838599Y-124210253D01*
X136818893Y-124224868D01*
X136797850Y-124237480D01*
X136775671Y-124247970D01*
X136752572Y-124256235D01*
X136728773Y-124262196D01*
X136704505Y-124265796D01*
X136680001Y-124267000D01*
X133829999Y-124267000D01*
X133805495Y-124265796D01*
X133781227Y-124262196D01*
X133757428Y-124256235D01*
X133734329Y-124247970D01*
X133712150Y-124237480D01*
X133691107Y-124224868D01*
X133671401Y-124210253D01*
X133653223Y-124193777D01*
X133636747Y-124175599D01*
X133622132Y-124155893D01*
X133609520Y-124134850D01*
X133599030Y-124112671D01*
X133590765Y-124089572D01*
X133584804Y-124065773D01*
X133581204Y-124041505D01*
X133580000Y-124017001D01*
X133580000Y-123166999D01*
X133581204Y-123142495D01*
X133584804Y-123118227D01*
X133590765Y-123094428D01*
X133599030Y-123071329D01*
X133609520Y-123049150D01*
X133622132Y-123028107D01*
X133636747Y-123008401D01*
X133653223Y-122990223D01*
X133671401Y-122973747D01*
X133691107Y-122959132D01*
X133712150Y-122946520D01*
X133734329Y-122936030D01*
X133757428Y-122927765D01*
X133781227Y-122921804D01*
X133805495Y-122918204D01*
X133829999Y-122917000D01*
X136680001Y-122917000D01*
X136704505Y-122918204D01*
G37*
G04 #@! TD.AperFunction*
G04 #@! TA.AperFunction,SMDPad,CuDef*
G36*
X136704505Y-128718204D02*
G01*
X136728773Y-128721804D01*
X136752572Y-128727765D01*
X136775671Y-128736030D01*
X136797850Y-128746520D01*
X136818893Y-128759132D01*
X136838599Y-128773747D01*
X136856777Y-128790223D01*
X136873253Y-128808401D01*
X136887868Y-128828107D01*
X136900480Y-128849150D01*
X136910970Y-128871329D01*
X136919235Y-128894428D01*
X136925196Y-128918227D01*
X136928796Y-128942495D01*
X136930000Y-128966999D01*
X136930000Y-129817001D01*
X136928796Y-129841505D01*
X136925196Y-129865773D01*
X136919235Y-129889572D01*
X136910970Y-129912671D01*
X136900480Y-129934850D01*
X136887868Y-129955893D01*
X136873253Y-129975599D01*
X136856777Y-129993777D01*
X136838599Y-130010253D01*
X136818893Y-130024868D01*
X136797850Y-130037480D01*
X136775671Y-130047970D01*
X136752572Y-130056235D01*
X136728773Y-130062196D01*
X136704505Y-130065796D01*
X136680001Y-130067000D01*
X133829999Y-130067000D01*
X133805495Y-130065796D01*
X133781227Y-130062196D01*
X133757428Y-130056235D01*
X133734329Y-130047970D01*
X133712150Y-130037480D01*
X133691107Y-130024868D01*
X133671401Y-130010253D01*
X133653223Y-129993777D01*
X133636747Y-129975599D01*
X133622132Y-129955893D01*
X133609520Y-129934850D01*
X133599030Y-129912671D01*
X133590765Y-129889572D01*
X133584804Y-129865773D01*
X133581204Y-129841505D01*
X133580000Y-129817001D01*
X133580000Y-128966999D01*
X133581204Y-128942495D01*
X133584804Y-128918227D01*
X133590765Y-128894428D01*
X133599030Y-128871329D01*
X133609520Y-128849150D01*
X133622132Y-128828107D01*
X133636747Y-128808401D01*
X133653223Y-128790223D01*
X133671401Y-128773747D01*
X133691107Y-128759132D01*
X133712150Y-128746520D01*
X133734329Y-128736030D01*
X133757428Y-128727765D01*
X133781227Y-128721804D01*
X133805495Y-128718204D01*
X133829999Y-128717000D01*
X136680001Y-128717000D01*
X136704505Y-128718204D01*
G37*
G04 #@! TD.AperFunction*
D16*
X132223000Y-111760000D03*
X134223000Y-112710000D03*
X134223000Y-110810000D03*
X132223000Y-116586000D03*
X134223000Y-117536000D03*
X134223000Y-115636000D03*
D17*
X125150000Y-105750000D03*
X127050000Y-105750000D03*
X126100000Y-107850000D03*
D18*
X118735000Y-121845000D03*
X123835000Y-121845000D03*
X123835000Y-113105000D03*
X118735000Y-113105000D03*
G04 #@! TA.AperFunction,SMDPad,CuDef*
D15*
G36*
X134724505Y-119697204D02*
G01*
X134748773Y-119700804D01*
X134772572Y-119706765D01*
X134795671Y-119715030D01*
X134817850Y-119725520D01*
X134838893Y-119738132D01*
X134858599Y-119752747D01*
X134876777Y-119769223D01*
X134893253Y-119787401D01*
X134907868Y-119807107D01*
X134920480Y-119828150D01*
X134930970Y-119850329D01*
X134939235Y-119873428D01*
X134945196Y-119897227D01*
X134948796Y-119921495D01*
X134950000Y-119945999D01*
X134950000Y-120846001D01*
X134948796Y-120870505D01*
X134945196Y-120894773D01*
X134939235Y-120918572D01*
X134930970Y-120941671D01*
X134920480Y-120963850D01*
X134907868Y-120984893D01*
X134893253Y-121004599D01*
X134876777Y-121022777D01*
X134858599Y-121039253D01*
X134838893Y-121053868D01*
X134817850Y-121066480D01*
X134795671Y-121076970D01*
X134772572Y-121085235D01*
X134748773Y-121091196D01*
X134724505Y-121094796D01*
X134700001Y-121096000D01*
X134049999Y-121096000D01*
X134025495Y-121094796D01*
X134001227Y-121091196D01*
X133977428Y-121085235D01*
X133954329Y-121076970D01*
X133932150Y-121066480D01*
X133911107Y-121053868D01*
X133891401Y-121039253D01*
X133873223Y-121022777D01*
X133856747Y-121004599D01*
X133842132Y-120984893D01*
X133829520Y-120963850D01*
X133819030Y-120941671D01*
X133810765Y-120918572D01*
X133804804Y-120894773D01*
X133801204Y-120870505D01*
X133800000Y-120846001D01*
X133800000Y-119945999D01*
X133801204Y-119921495D01*
X133804804Y-119897227D01*
X133810765Y-119873428D01*
X133819030Y-119850329D01*
X133829520Y-119828150D01*
X133842132Y-119807107D01*
X133856747Y-119787401D01*
X133873223Y-119769223D01*
X133891401Y-119752747D01*
X133911107Y-119738132D01*
X133932150Y-119725520D01*
X133954329Y-119715030D01*
X133977428Y-119706765D01*
X134001227Y-119700804D01*
X134025495Y-119697204D01*
X134049999Y-119696000D01*
X134700001Y-119696000D01*
X134724505Y-119697204D01*
G37*
G04 #@! TD.AperFunction*
G04 #@! TA.AperFunction,SMDPad,CuDef*
G36*
X132674505Y-119697204D02*
G01*
X132698773Y-119700804D01*
X132722572Y-119706765D01*
X132745671Y-119715030D01*
X132767850Y-119725520D01*
X132788893Y-119738132D01*
X132808599Y-119752747D01*
X132826777Y-119769223D01*
X132843253Y-119787401D01*
X132857868Y-119807107D01*
X132870480Y-119828150D01*
X132880970Y-119850329D01*
X132889235Y-119873428D01*
X132895196Y-119897227D01*
X132898796Y-119921495D01*
X132900000Y-119945999D01*
X132900000Y-120846001D01*
X132898796Y-120870505D01*
X132895196Y-120894773D01*
X132889235Y-120918572D01*
X132880970Y-120941671D01*
X132870480Y-120963850D01*
X132857868Y-120984893D01*
X132843253Y-121004599D01*
X132826777Y-121022777D01*
X132808599Y-121039253D01*
X132788893Y-121053868D01*
X132767850Y-121066480D01*
X132745671Y-121076970D01*
X132722572Y-121085235D01*
X132698773Y-121091196D01*
X132674505Y-121094796D01*
X132650001Y-121096000D01*
X131999999Y-121096000D01*
X131975495Y-121094796D01*
X131951227Y-121091196D01*
X131927428Y-121085235D01*
X131904329Y-121076970D01*
X131882150Y-121066480D01*
X131861107Y-121053868D01*
X131841401Y-121039253D01*
X131823223Y-121022777D01*
X131806747Y-121004599D01*
X131792132Y-120984893D01*
X131779520Y-120963850D01*
X131769030Y-120941671D01*
X131760765Y-120918572D01*
X131754804Y-120894773D01*
X131751204Y-120870505D01*
X131750000Y-120846001D01*
X131750000Y-119945999D01*
X131751204Y-119921495D01*
X131754804Y-119897227D01*
X131760765Y-119873428D01*
X131769030Y-119850329D01*
X131779520Y-119828150D01*
X131792132Y-119807107D01*
X131806747Y-119787401D01*
X131823223Y-119769223D01*
X131841401Y-119752747D01*
X131861107Y-119738132D01*
X131882150Y-119725520D01*
X131904329Y-119715030D01*
X131927428Y-119706765D01*
X131951227Y-119700804D01*
X131975495Y-119697204D01*
X131999999Y-119696000D01*
X132650001Y-119696000D01*
X132674505Y-119697204D01*
G37*
G04 #@! TD.AperFunction*
G04 #@! TA.AperFunction,SMDPad,CuDef*
G36*
X114764505Y-123281204D02*
G01*
X114788773Y-123284804D01*
X114812572Y-123290765D01*
X114835671Y-123299030D01*
X114857850Y-123309520D01*
X114878893Y-123322132D01*
X114898599Y-123336747D01*
X114916777Y-123353223D01*
X114933253Y-123371401D01*
X114947868Y-123391107D01*
X114960480Y-123412150D01*
X114970970Y-123434329D01*
X114979235Y-123457428D01*
X114985196Y-123481227D01*
X114988796Y-123505495D01*
X114990000Y-123529999D01*
X114990000Y-124180001D01*
X114988796Y-124204505D01*
X114985196Y-124228773D01*
X114979235Y-124252572D01*
X114970970Y-124275671D01*
X114960480Y-124297850D01*
X114947868Y-124318893D01*
X114933253Y-124338599D01*
X114916777Y-124356777D01*
X114898599Y-124373253D01*
X114878893Y-124387868D01*
X114857850Y-124400480D01*
X114835671Y-124410970D01*
X114812572Y-124419235D01*
X114788773Y-124425196D01*
X114764505Y-124428796D01*
X114740001Y-124430000D01*
X113839999Y-124430000D01*
X113815495Y-124428796D01*
X113791227Y-124425196D01*
X113767428Y-124419235D01*
X113744329Y-124410970D01*
X113722150Y-124400480D01*
X113701107Y-124387868D01*
X113681401Y-124373253D01*
X113663223Y-124356777D01*
X113646747Y-124338599D01*
X113632132Y-124318893D01*
X113619520Y-124297850D01*
X113609030Y-124275671D01*
X113600765Y-124252572D01*
X113594804Y-124228773D01*
X113591204Y-124204505D01*
X113590000Y-124180001D01*
X113590000Y-123529999D01*
X113591204Y-123505495D01*
X113594804Y-123481227D01*
X113600765Y-123457428D01*
X113609030Y-123434329D01*
X113619520Y-123412150D01*
X113632132Y-123391107D01*
X113646747Y-123371401D01*
X113663223Y-123353223D01*
X113681401Y-123336747D01*
X113701107Y-123322132D01*
X113722150Y-123309520D01*
X113744329Y-123299030D01*
X113767428Y-123290765D01*
X113791227Y-123284804D01*
X113815495Y-123281204D01*
X113839999Y-123280000D01*
X114740001Y-123280000D01*
X114764505Y-123281204D01*
G37*
G04 #@! TD.AperFunction*
G04 #@! TA.AperFunction,SMDPad,CuDef*
G36*
X114764505Y-121231204D02*
G01*
X114788773Y-121234804D01*
X114812572Y-121240765D01*
X114835671Y-121249030D01*
X114857850Y-121259520D01*
X114878893Y-121272132D01*
X114898599Y-121286747D01*
X114916777Y-121303223D01*
X114933253Y-121321401D01*
X114947868Y-121341107D01*
X114960480Y-121362150D01*
X114970970Y-121384329D01*
X114979235Y-121407428D01*
X114985196Y-121431227D01*
X114988796Y-121455495D01*
X114990000Y-121479999D01*
X114990000Y-122130001D01*
X114988796Y-122154505D01*
X114985196Y-122178773D01*
X114979235Y-122202572D01*
X114970970Y-122225671D01*
X114960480Y-122247850D01*
X114947868Y-122268893D01*
X114933253Y-122288599D01*
X114916777Y-122306777D01*
X114898599Y-122323253D01*
X114878893Y-122337868D01*
X114857850Y-122350480D01*
X114835671Y-122360970D01*
X114812572Y-122369235D01*
X114788773Y-122375196D01*
X114764505Y-122378796D01*
X114740001Y-122380000D01*
X113839999Y-122380000D01*
X113815495Y-122378796D01*
X113791227Y-122375196D01*
X113767428Y-122369235D01*
X113744329Y-122360970D01*
X113722150Y-122350480D01*
X113701107Y-122337868D01*
X113681401Y-122323253D01*
X113663223Y-122306777D01*
X113646747Y-122288599D01*
X113632132Y-122268893D01*
X113619520Y-122247850D01*
X113609030Y-122225671D01*
X113600765Y-122202572D01*
X113594804Y-122178773D01*
X113591204Y-122154505D01*
X113590000Y-122130001D01*
X113590000Y-121479999D01*
X113591204Y-121455495D01*
X113594804Y-121431227D01*
X113600765Y-121407428D01*
X113609030Y-121384329D01*
X113619520Y-121362150D01*
X113632132Y-121341107D01*
X113646747Y-121321401D01*
X113663223Y-121303223D01*
X113681401Y-121286747D01*
X113701107Y-121272132D01*
X113722150Y-121259520D01*
X113744329Y-121249030D01*
X113767428Y-121240765D01*
X113791227Y-121234804D01*
X113815495Y-121231204D01*
X113839999Y-121230000D01*
X114740001Y-121230000D01*
X114764505Y-121231204D01*
G37*
G04 #@! TD.AperFunction*
G04 #@! TA.AperFunction,SMDPad,CuDef*
G36*
X129904505Y-119871204D02*
G01*
X129928773Y-119874804D01*
X129952572Y-119880765D01*
X129975671Y-119889030D01*
X129997850Y-119899520D01*
X130018893Y-119912132D01*
X130038599Y-119926747D01*
X130056777Y-119943223D01*
X130073253Y-119961401D01*
X130087868Y-119981107D01*
X130100480Y-120002150D01*
X130110970Y-120024329D01*
X130119235Y-120047428D01*
X130125196Y-120071227D01*
X130128796Y-120095495D01*
X130130000Y-120119999D01*
X130130000Y-120770001D01*
X130128796Y-120794505D01*
X130125196Y-120818773D01*
X130119235Y-120842572D01*
X130110970Y-120865671D01*
X130100480Y-120887850D01*
X130087868Y-120908893D01*
X130073253Y-120928599D01*
X130056777Y-120946777D01*
X130038599Y-120963253D01*
X130018893Y-120977868D01*
X129997850Y-120990480D01*
X129975671Y-121000970D01*
X129952572Y-121009235D01*
X129928773Y-121015196D01*
X129904505Y-121018796D01*
X129880001Y-121020000D01*
X128979999Y-121020000D01*
X128955495Y-121018796D01*
X128931227Y-121015196D01*
X128907428Y-121009235D01*
X128884329Y-121000970D01*
X128862150Y-120990480D01*
X128841107Y-120977868D01*
X128821401Y-120963253D01*
X128803223Y-120946777D01*
X128786747Y-120928599D01*
X128772132Y-120908893D01*
X128759520Y-120887850D01*
X128749030Y-120865671D01*
X128740765Y-120842572D01*
X128734804Y-120818773D01*
X128731204Y-120794505D01*
X128730000Y-120770001D01*
X128730000Y-120119999D01*
X128731204Y-120095495D01*
X128734804Y-120071227D01*
X128740765Y-120047428D01*
X128749030Y-120024329D01*
X128759520Y-120002150D01*
X128772132Y-119981107D01*
X128786747Y-119961401D01*
X128803223Y-119943223D01*
X128821401Y-119926747D01*
X128841107Y-119912132D01*
X128862150Y-119899520D01*
X128884329Y-119889030D01*
X128907428Y-119880765D01*
X128931227Y-119874804D01*
X128955495Y-119871204D01*
X128979999Y-119870000D01*
X129880001Y-119870000D01*
X129904505Y-119871204D01*
G37*
G04 #@! TD.AperFunction*
G04 #@! TA.AperFunction,SMDPad,CuDef*
G36*
X129904505Y-121921204D02*
G01*
X129928773Y-121924804D01*
X129952572Y-121930765D01*
X129975671Y-121939030D01*
X129997850Y-121949520D01*
X130018893Y-121962132D01*
X130038599Y-121976747D01*
X130056777Y-121993223D01*
X130073253Y-122011401D01*
X130087868Y-122031107D01*
X130100480Y-122052150D01*
X130110970Y-122074329D01*
X130119235Y-122097428D01*
X130125196Y-122121227D01*
X130128796Y-122145495D01*
X130130000Y-122169999D01*
X130130000Y-122820001D01*
X130128796Y-122844505D01*
X130125196Y-122868773D01*
X130119235Y-122892572D01*
X130110970Y-122915671D01*
X130100480Y-122937850D01*
X130087868Y-122958893D01*
X130073253Y-122978599D01*
X130056777Y-122996777D01*
X130038599Y-123013253D01*
X130018893Y-123027868D01*
X129997850Y-123040480D01*
X129975671Y-123050970D01*
X129952572Y-123059235D01*
X129928773Y-123065196D01*
X129904505Y-123068796D01*
X129880001Y-123070000D01*
X128979999Y-123070000D01*
X128955495Y-123068796D01*
X128931227Y-123065196D01*
X128907428Y-123059235D01*
X128884329Y-123050970D01*
X128862150Y-123040480D01*
X128841107Y-123027868D01*
X128821401Y-123013253D01*
X128803223Y-122996777D01*
X128786747Y-122978599D01*
X128772132Y-122958893D01*
X128759520Y-122937850D01*
X128749030Y-122915671D01*
X128740765Y-122892572D01*
X128734804Y-122868773D01*
X128731204Y-122844505D01*
X128730000Y-122820001D01*
X128730000Y-122169999D01*
X128731204Y-122145495D01*
X128734804Y-122121227D01*
X128740765Y-122097428D01*
X128749030Y-122074329D01*
X128759520Y-122052150D01*
X128772132Y-122031107D01*
X128786747Y-122011401D01*
X128803223Y-121993223D01*
X128821401Y-121976747D01*
X128841107Y-121962132D01*
X128862150Y-121949520D01*
X128884329Y-121939030D01*
X128907428Y-121930765D01*
X128931227Y-121924804D01*
X128955495Y-121921204D01*
X128979999Y-121920000D01*
X129880001Y-121920000D01*
X129904505Y-121921204D01*
G37*
G04 #@! TD.AperFunction*
G04 #@! TA.AperFunction,SMDPad,CuDef*
G36*
X127252642Y-98678674D02*
G01*
X127276303Y-98682184D01*
X127299507Y-98687996D01*
X127322029Y-98696054D01*
X127343653Y-98706282D01*
X127364170Y-98718579D01*
X127383383Y-98732829D01*
X127401107Y-98748893D01*
X127417171Y-98766617D01*
X127431421Y-98785830D01*
X127443718Y-98806347D01*
X127453946Y-98827971D01*
X127462004Y-98850493D01*
X127467816Y-98873697D01*
X127471326Y-98897358D01*
X127472500Y-98921250D01*
X127472500Y-99833750D01*
X127471326Y-99857642D01*
X127467816Y-99881303D01*
X127462004Y-99904507D01*
X127453946Y-99927029D01*
X127443718Y-99948653D01*
X127431421Y-99969170D01*
X127417171Y-99988383D01*
X127401107Y-100006107D01*
X127383383Y-100022171D01*
X127364170Y-100036421D01*
X127343653Y-100048718D01*
X127322029Y-100058946D01*
X127299507Y-100067004D01*
X127276303Y-100072816D01*
X127252642Y-100076326D01*
X127228750Y-100077500D01*
X126741250Y-100077500D01*
X126717358Y-100076326D01*
X126693697Y-100072816D01*
X126670493Y-100067004D01*
X126647971Y-100058946D01*
X126626347Y-100048718D01*
X126605830Y-100036421D01*
X126586617Y-100022171D01*
X126568893Y-100006107D01*
X126552829Y-99988383D01*
X126538579Y-99969170D01*
X126526282Y-99948653D01*
X126516054Y-99927029D01*
X126507996Y-99904507D01*
X126502184Y-99881303D01*
X126498674Y-99857642D01*
X126497500Y-99833750D01*
X126497500Y-98921250D01*
X126498674Y-98897358D01*
X126502184Y-98873697D01*
X126507996Y-98850493D01*
X126516054Y-98827971D01*
X126526282Y-98806347D01*
X126538579Y-98785830D01*
X126552829Y-98766617D01*
X126568893Y-98748893D01*
X126586617Y-98732829D01*
X126605830Y-98718579D01*
X126626347Y-98706282D01*
X126647971Y-98696054D01*
X126670493Y-98687996D01*
X126693697Y-98682184D01*
X126717358Y-98678674D01*
X126741250Y-98677500D01*
X127228750Y-98677500D01*
X127252642Y-98678674D01*
G37*
G04 #@! TD.AperFunction*
G04 #@! TA.AperFunction,SMDPad,CuDef*
G36*
X125377642Y-98678674D02*
G01*
X125401303Y-98682184D01*
X125424507Y-98687996D01*
X125447029Y-98696054D01*
X125468653Y-98706282D01*
X125489170Y-98718579D01*
X125508383Y-98732829D01*
X125526107Y-98748893D01*
X125542171Y-98766617D01*
X125556421Y-98785830D01*
X125568718Y-98806347D01*
X125578946Y-98827971D01*
X125587004Y-98850493D01*
X125592816Y-98873697D01*
X125596326Y-98897358D01*
X125597500Y-98921250D01*
X125597500Y-99833750D01*
X125596326Y-99857642D01*
X125592816Y-99881303D01*
X125587004Y-99904507D01*
X125578946Y-99927029D01*
X125568718Y-99948653D01*
X125556421Y-99969170D01*
X125542171Y-99988383D01*
X125526107Y-100006107D01*
X125508383Y-100022171D01*
X125489170Y-100036421D01*
X125468653Y-100048718D01*
X125447029Y-100058946D01*
X125424507Y-100067004D01*
X125401303Y-100072816D01*
X125377642Y-100076326D01*
X125353750Y-100077500D01*
X124866250Y-100077500D01*
X124842358Y-100076326D01*
X124818697Y-100072816D01*
X124795493Y-100067004D01*
X124772971Y-100058946D01*
X124751347Y-100048718D01*
X124730830Y-100036421D01*
X124711617Y-100022171D01*
X124693893Y-100006107D01*
X124677829Y-99988383D01*
X124663579Y-99969170D01*
X124651282Y-99948653D01*
X124641054Y-99927029D01*
X124632996Y-99904507D01*
X124627184Y-99881303D01*
X124623674Y-99857642D01*
X124622500Y-99833750D01*
X124622500Y-98921250D01*
X124623674Y-98897358D01*
X124627184Y-98873697D01*
X124632996Y-98850493D01*
X124641054Y-98827971D01*
X124651282Y-98806347D01*
X124663579Y-98785830D01*
X124677829Y-98766617D01*
X124693893Y-98748893D01*
X124711617Y-98732829D01*
X124730830Y-98718579D01*
X124751347Y-98706282D01*
X124772971Y-98696054D01*
X124795493Y-98687996D01*
X124818697Y-98682184D01*
X124842358Y-98678674D01*
X124866250Y-98677500D01*
X125353750Y-98677500D01*
X125377642Y-98678674D01*
G37*
G04 #@! TD.AperFunction*
G04 #@! TA.AperFunction,SMDPad,CuDef*
G36*
X125377642Y-101726674D02*
G01*
X125401303Y-101730184D01*
X125424507Y-101735996D01*
X125447029Y-101744054D01*
X125468653Y-101754282D01*
X125489170Y-101766579D01*
X125508383Y-101780829D01*
X125526107Y-101796893D01*
X125542171Y-101814617D01*
X125556421Y-101833830D01*
X125568718Y-101854347D01*
X125578946Y-101875971D01*
X125587004Y-101898493D01*
X125592816Y-101921697D01*
X125596326Y-101945358D01*
X125597500Y-101969250D01*
X125597500Y-102881750D01*
X125596326Y-102905642D01*
X125592816Y-102929303D01*
X125587004Y-102952507D01*
X125578946Y-102975029D01*
X125568718Y-102996653D01*
X125556421Y-103017170D01*
X125542171Y-103036383D01*
X125526107Y-103054107D01*
X125508383Y-103070171D01*
X125489170Y-103084421D01*
X125468653Y-103096718D01*
X125447029Y-103106946D01*
X125424507Y-103115004D01*
X125401303Y-103120816D01*
X125377642Y-103124326D01*
X125353750Y-103125500D01*
X124866250Y-103125500D01*
X124842358Y-103124326D01*
X124818697Y-103120816D01*
X124795493Y-103115004D01*
X124772971Y-103106946D01*
X124751347Y-103096718D01*
X124730830Y-103084421D01*
X124711617Y-103070171D01*
X124693893Y-103054107D01*
X124677829Y-103036383D01*
X124663579Y-103017170D01*
X124651282Y-102996653D01*
X124641054Y-102975029D01*
X124632996Y-102952507D01*
X124627184Y-102929303D01*
X124623674Y-102905642D01*
X124622500Y-102881750D01*
X124622500Y-101969250D01*
X124623674Y-101945358D01*
X124627184Y-101921697D01*
X124632996Y-101898493D01*
X124641054Y-101875971D01*
X124651282Y-101854347D01*
X124663579Y-101833830D01*
X124677829Y-101814617D01*
X124693893Y-101796893D01*
X124711617Y-101780829D01*
X124730830Y-101766579D01*
X124751347Y-101754282D01*
X124772971Y-101744054D01*
X124795493Y-101735996D01*
X124818697Y-101730184D01*
X124842358Y-101726674D01*
X124866250Y-101725500D01*
X125353750Y-101725500D01*
X125377642Y-101726674D01*
G37*
G04 #@! TD.AperFunction*
G04 #@! TA.AperFunction,SMDPad,CuDef*
G36*
X127252642Y-101726674D02*
G01*
X127276303Y-101730184D01*
X127299507Y-101735996D01*
X127322029Y-101744054D01*
X127343653Y-101754282D01*
X127364170Y-101766579D01*
X127383383Y-101780829D01*
X127401107Y-101796893D01*
X127417171Y-101814617D01*
X127431421Y-101833830D01*
X127443718Y-101854347D01*
X127453946Y-101875971D01*
X127462004Y-101898493D01*
X127467816Y-101921697D01*
X127471326Y-101945358D01*
X127472500Y-101969250D01*
X127472500Y-102881750D01*
X127471326Y-102905642D01*
X127467816Y-102929303D01*
X127462004Y-102952507D01*
X127453946Y-102975029D01*
X127443718Y-102996653D01*
X127431421Y-103017170D01*
X127417171Y-103036383D01*
X127401107Y-103054107D01*
X127383383Y-103070171D01*
X127364170Y-103084421D01*
X127343653Y-103096718D01*
X127322029Y-103106946D01*
X127299507Y-103115004D01*
X127276303Y-103120816D01*
X127252642Y-103124326D01*
X127228750Y-103125500D01*
X126741250Y-103125500D01*
X126717358Y-103124326D01*
X126693697Y-103120816D01*
X126670493Y-103115004D01*
X126647971Y-103106946D01*
X126626347Y-103096718D01*
X126605830Y-103084421D01*
X126586617Y-103070171D01*
X126568893Y-103054107D01*
X126552829Y-103036383D01*
X126538579Y-103017170D01*
X126526282Y-102996653D01*
X126516054Y-102975029D01*
X126507996Y-102952507D01*
X126502184Y-102929303D01*
X126498674Y-102905642D01*
X126497500Y-102881750D01*
X126497500Y-101969250D01*
X126498674Y-101945358D01*
X126502184Y-101921697D01*
X126507996Y-101898493D01*
X126516054Y-101875971D01*
X126526282Y-101854347D01*
X126538579Y-101833830D01*
X126552829Y-101814617D01*
X126568893Y-101796893D01*
X126586617Y-101780829D01*
X126605830Y-101766579D01*
X126626347Y-101754282D01*
X126647971Y-101744054D01*
X126670493Y-101735996D01*
X126693697Y-101730184D01*
X126717358Y-101726674D01*
X126741250Y-101725500D01*
X127228750Y-101725500D01*
X127252642Y-101726674D01*
G37*
G04 #@! TD.AperFunction*
D19*
X123170000Y-126365000D03*
X125710000Y-126365000D03*
D20*
X128250000Y-126365000D03*
D21*
X114300000Y-133985000D03*
X116840000Y-133985000D03*
X119380000Y-133985000D03*
X121920000Y-133985000D03*
X124460000Y-133985000D03*
X127000000Y-133985000D03*
X129540000Y-133985000D03*
X132080000Y-133985000D03*
X134620000Y-133985000D03*
D22*
X137160000Y-133985000D03*
D23*
X134175500Y-114109500D03*
X121475500Y-113157000D03*
X120269000Y-115824000D03*
X130556000Y-109855000D03*
X135763002Y-121856500D03*
X116586000Y-121602500D03*
X133159500Y-131000500D03*
X128206500Y-130619500D03*
X121412000Y-128714500D03*
X128079500Y-100774500D03*
X118110000Y-110680500D03*
X135128000Y-125984000D03*
X122110500Y-103632000D03*
X118110000Y-103568500D03*
X122110500Y-98996500D03*
X118110000Y-98996500D03*
X118160000Y-101300000D03*
X122130000Y-101260000D03*
X126492000Y-110490000D03*
X133858000Y-103632000D03*
X130111500Y-103632000D03*
X133794500Y-99060000D03*
X130111500Y-99060000D03*
X130150000Y-101250000D03*
X133810000Y-101250000D03*
X131572000Y-117856000D03*
X132905500Y-118110000D03*
X124650500Y-110363004D03*
X135476999Y-110903001D03*
X120332500Y-118427500D03*
X125984000Y-100774500D03*
X129413000Y-113982500D03*
X122555000Y-123507500D03*
X124984001Y-131143501D03*
X129667000Y-115506500D03*
D24*
X123835000Y-114605000D02*
X123835000Y-113105000D01*
X123835000Y-115426963D02*
X123835000Y-114605000D01*
X128804037Y-120396000D02*
X123835000Y-115426963D01*
X132325000Y-120396000D02*
X128804037Y-120396000D01*
X121475500Y-113157000D02*
X122872500Y-113157000D01*
D25*
X134175500Y-112757500D02*
X134223000Y-112710000D01*
X134175500Y-114109500D02*
X134175500Y-112757500D01*
X133223000Y-111760000D02*
X133223000Y-110162000D01*
X134173000Y-112710000D02*
X133223000Y-111760000D01*
X134223000Y-112710000D02*
X134173000Y-112710000D01*
X134173000Y-117536000D02*
X133223000Y-116586000D01*
X134223000Y-117536000D02*
X134173000Y-117536000D01*
X133223000Y-115062000D02*
X134175500Y-114109500D01*
X133223000Y-116586000D02*
X133223000Y-115062000D01*
D24*
X132325000Y-120396000D02*
X132325000Y-121096000D01*
X133085500Y-121856500D02*
X135197317Y-121856500D01*
X132325000Y-121096000D02*
X133085500Y-121856500D01*
X135197317Y-121856500D02*
X135763002Y-121856500D01*
X129674000Y-108043000D02*
X129674000Y-107543000D01*
X129730500Y-108099500D02*
X129674000Y-108043000D01*
D25*
X126985000Y-99680000D02*
X128079500Y-100774500D01*
X126985000Y-99377500D02*
X126985000Y-99680000D01*
D24*
X129800000Y-109099000D02*
X130556000Y-109855000D01*
X129800000Y-107578000D02*
X129800000Y-109099000D01*
X118116000Y-109912500D02*
X118116000Y-107514500D01*
X118110000Y-110680500D02*
X118116000Y-109912500D01*
D25*
X118797000Y-113105000D02*
X118735000Y-113105000D01*
X135128000Y-123719000D02*
X135255000Y-123592000D01*
D24*
X135128000Y-125984000D02*
X135128000Y-124206000D01*
D25*
X135128000Y-124206000D02*
X135128000Y-123719000D01*
X126900000Y-107850000D02*
X126100000Y-107850000D01*
X126900001Y-111340001D02*
X127342001Y-110898001D01*
X121749999Y-111340001D02*
X126900001Y-111340001D01*
X127342001Y-108292001D02*
X126900000Y-107850000D01*
X127342001Y-110898001D02*
X127342001Y-108292001D01*
X119985000Y-113105000D02*
X121749999Y-111340001D01*
D24*
X118735000Y-113105000D02*
X119985000Y-113105000D01*
X125309999Y-133135001D02*
X124460000Y-133985000D01*
X125760001Y-132684999D02*
X125309999Y-133135001D01*
X130779999Y-132684999D02*
X125760001Y-132684999D01*
X132080000Y-133985000D02*
X130779999Y-132684999D01*
X135255000Y-123592000D02*
X130132500Y-123592000D01*
X130132500Y-123592000D02*
X129980000Y-123550000D01*
X119985000Y-113444500D02*
X119985000Y-113105000D01*
X128030775Y-121579225D02*
X119985000Y-113444500D01*
X128030775Y-123150775D02*
X128030775Y-121579225D01*
X128430000Y-123550000D02*
X128030775Y-123150775D01*
X129980000Y-123550000D02*
X128430000Y-123550000D01*
D25*
X129430000Y-123550000D02*
X129980000Y-123550000D01*
X129430000Y-122495000D02*
X129430000Y-123550000D01*
D24*
X114300000Y-122165000D02*
X114300000Y-119253000D01*
D25*
X134620000Y-130027000D02*
X135255000Y-129392000D01*
D24*
X134620000Y-133985000D02*
X134620000Y-130027000D01*
D25*
X137922000Y-122428000D02*
X137922000Y-126725000D01*
D24*
X135951000Y-128717000D02*
X137922000Y-126746000D01*
X135930000Y-128717000D02*
X135951000Y-128717000D01*
X135255000Y-129392000D02*
X135930000Y-128717000D01*
D25*
X137922000Y-126725000D02*
X137922000Y-126746000D01*
D24*
X137922000Y-126725000D02*
X137922000Y-124460000D01*
X137922000Y-124460000D02*
X137922000Y-122428000D01*
X137922000Y-122428000D02*
X135890000Y-120396000D01*
X135890000Y-120396000D02*
X134375000Y-120396000D01*
D25*
X134375000Y-119696000D02*
X134375000Y-120396000D01*
X134366000Y-119687000D02*
X134375000Y-119696000D01*
X127063500Y-102425500D02*
X127569498Y-102931498D01*
X127569498Y-102931498D02*
X127569498Y-103695500D01*
X134366000Y-118872000D02*
X134366000Y-119687000D01*
X127569498Y-103695500D02*
X126238000Y-105026998D01*
X126238000Y-105026998D02*
X126238000Y-106473002D01*
X128079500Y-107251500D02*
X128270000Y-107442000D01*
X126238000Y-106473002D02*
X127016498Y-107251500D01*
X127016498Y-107251500D02*
X128079500Y-107251500D01*
X128270000Y-118872000D02*
X134366000Y-118872000D01*
X128270000Y-107442000D02*
X128270000Y-111379000D01*
X126111000Y-116649500D02*
X128270000Y-118808500D01*
X128270000Y-111379000D02*
X126111000Y-113538000D01*
X126111000Y-113538000D02*
X126111000Y-116649500D01*
X128270000Y-118808500D02*
X128270000Y-118872000D01*
D24*
X128250000Y-128865000D02*
X128250000Y-126365000D01*
X128777000Y-129392000D02*
X128250000Y-128865000D01*
X135255000Y-129392000D02*
X128777000Y-129392000D01*
X118735000Y-121845000D02*
X118735000Y-123581000D01*
X117348000Y-130937000D02*
X114300000Y-133985000D01*
X117348000Y-124968000D02*
X117348000Y-130937000D01*
X118735000Y-123581000D02*
X117348000Y-124968000D01*
X116840000Y-133985000D02*
X116840000Y-133858000D01*
X123835000Y-121845000D02*
X123821998Y-121831998D01*
X118872000Y-124818000D02*
X118872000Y-131953000D01*
X117689999Y-133135001D02*
X116840000Y-133985000D01*
X123821998Y-121831998D02*
X121858002Y-121831998D01*
X118872000Y-131953000D02*
X117689999Y-133135001D01*
X121858002Y-121831998D02*
X118872000Y-124818000D01*
D25*
X117710001Y-103968499D02*
X118110000Y-103568500D01*
X127000000Y-133858000D02*
X127000000Y-133985000D01*
D24*
X125150000Y-109148000D02*
X126492000Y-110490000D01*
X125150000Y-105750000D02*
X125150000Y-109148000D01*
D25*
X123929500Y-107927500D02*
X125150000Y-109148000D01*
X123929500Y-105750000D02*
X123929500Y-107927500D01*
D24*
X123929500Y-105750000D02*
X125150000Y-105750000D01*
D25*
X120396000Y-105346500D02*
X120396000Y-101214500D01*
X120437000Y-105750000D02*
X120396000Y-105791000D01*
D24*
X123929500Y-105750000D02*
X120437000Y-105750000D01*
D25*
X120396000Y-105791000D02*
X120396000Y-105346500D01*
D24*
X120396000Y-107514500D02*
X120396000Y-105791000D01*
X129603500Y-117856000D02*
X131006315Y-117856000D01*
X128206500Y-116459000D02*
X129603500Y-117856000D01*
X131006315Y-117856000D02*
X131572000Y-117856000D01*
X128206500Y-113347500D02*
X128206500Y-116459000D01*
X129730500Y-111823500D02*
X128206500Y-113347500D01*
D25*
X129222500Y-105727500D02*
X127127000Y-105727500D01*
X129286000Y-105664000D02*
X129222500Y-105727500D01*
X132080000Y-105664000D02*
X129286000Y-105664000D01*
X132080000Y-107578000D02*
X132080000Y-105664000D01*
X132080000Y-105664000D02*
X132080000Y-101278000D01*
D24*
X132080000Y-109785002D02*
X132080000Y-108928000D01*
X130041502Y-111823500D02*
X132080000Y-109785002D01*
X132080000Y-108928000D02*
X132080000Y-107578000D01*
X129730500Y-111823500D02*
X130041502Y-111823500D01*
D25*
X137160000Y-111188500D02*
X137160000Y-111633000D01*
X135382000Y-109410500D02*
X137160000Y-111188500D01*
X135382000Y-107841000D02*
X135382000Y-109410500D01*
X135084000Y-107543000D02*
X135382000Y-107841000D01*
X134234000Y-107543000D02*
X135084000Y-107543000D01*
X137160000Y-114173000D02*
X135191500Y-116141500D01*
X135191500Y-116141500D02*
X135191500Y-118173500D01*
X135103999Y-118261001D02*
X132993001Y-118261001D01*
X135191500Y-118173500D02*
X135103999Y-118261001D01*
X132993001Y-118261001D02*
X132905500Y-118173500D01*
X123190000Y-109728000D02*
X124650500Y-110363004D01*
X123007000Y-109728000D02*
X123190000Y-109728000D01*
X122422000Y-109143000D02*
X123007000Y-109728000D01*
X122422000Y-107543000D02*
X122422000Y-109143000D01*
D24*
X134223000Y-115713000D02*
X134223000Y-115636000D01*
D25*
X134236500Y-115636000D02*
X134223000Y-115636000D01*
X135476999Y-114395501D02*
X134236500Y-115636000D01*
X135476999Y-110903001D02*
X135476999Y-114395501D01*
X134239000Y-109833002D02*
X134239000Y-110807500D01*
X133096000Y-108690002D02*
X134239000Y-109833002D01*
X133096000Y-106395998D02*
X133096000Y-108690002D01*
X134225500Y-110807500D02*
X134223000Y-110810000D01*
X133700998Y-105791000D02*
X133096000Y-106395998D01*
X134767002Y-105791000D02*
X133700998Y-105791000D01*
X134239000Y-110807500D02*
X134225500Y-110807500D01*
X135832010Y-106856008D02*
X134767002Y-105791000D01*
X135832010Y-107765010D02*
X135832010Y-106856008D01*
X137160000Y-109093000D02*
X135832010Y-107765010D01*
X125112500Y-98750000D02*
X125095000Y-102108000D01*
X116014500Y-118427500D02*
X114300000Y-116713000D01*
X120332500Y-118427500D02*
X116014500Y-118427500D01*
X125418315Y-100774500D02*
X125984000Y-100774500D01*
X125285500Y-100774500D02*
X125418315Y-100774500D01*
X125095000Y-100584000D02*
X125285500Y-100774500D01*
D24*
X119380000Y-133985000D02*
X119380000Y-133858000D01*
D25*
X129413000Y-113870000D02*
X129413000Y-113982500D01*
X131523000Y-111760000D02*
X129413000Y-113870000D01*
X132223000Y-111760000D02*
X131523000Y-111760000D01*
X122155001Y-123907499D02*
X122555000Y-123507500D01*
X119380000Y-133985000D02*
X120229999Y-133135001D01*
X120229999Y-133135001D02*
X120229999Y-125832501D01*
X120229999Y-125832501D02*
X122155001Y-123907499D01*
X122992501Y-133135001D02*
X124984001Y-131143501D01*
X122769999Y-133135001D02*
X122992501Y-133135001D01*
X121920000Y-133985000D02*
X122769999Y-133135001D01*
X131523000Y-116586000D02*
X132223000Y-116586000D01*
X129667000Y-116072185D02*
X130180815Y-116586000D01*
X130180815Y-116586000D02*
X131523000Y-116586000D01*
X129667000Y-115506500D02*
X129667000Y-116072185D01*
D26*
G36*
X137770001Y-132498235D02*
G01*
X137445750Y-132500000D01*
X137287000Y-132658750D01*
X137287000Y-133858000D01*
X137307000Y-133858000D01*
X137307000Y-134112000D01*
X137287000Y-134112000D01*
X137287000Y-134132000D01*
X137033000Y-134132000D01*
X137033000Y-134112000D01*
X137013000Y-134112000D01*
X137013000Y-133858000D01*
X137033000Y-133858000D01*
X137033000Y-132658750D01*
X136874250Y-132500000D01*
X136310000Y-132496928D01*
X136185518Y-132509188D01*
X136065820Y-132545498D01*
X135955506Y-132604463D01*
X135858815Y-132683815D01*
X135779463Y-132780506D01*
X135720498Y-132890820D01*
X135698487Y-132963380D01*
X135566632Y-132831525D01*
X135505000Y-132790344D01*
X135505000Y-130705072D01*
X136680001Y-130705072D01*
X136853255Y-130688008D01*
X137019851Y-130637472D01*
X137173387Y-130555405D01*
X137307962Y-130444962D01*
X137418405Y-130310387D01*
X137500472Y-130156851D01*
X137551008Y-129990255D01*
X137568072Y-129817001D01*
X137568072Y-128966999D01*
X137551008Y-128793745D01*
X137500472Y-128627149D01*
X137428005Y-128491573D01*
X137770001Y-128149578D01*
X137770001Y-132498235D01*
G37*
X137770001Y-132498235D02*
X137445750Y-132500000D01*
X137287000Y-132658750D01*
X137287000Y-133858000D01*
X137307000Y-133858000D01*
X137307000Y-134112000D01*
X137287000Y-134112000D01*
X137287000Y-134132000D01*
X137033000Y-134132000D01*
X137033000Y-134112000D01*
X137013000Y-134112000D01*
X137013000Y-133858000D01*
X137033000Y-133858000D01*
X137033000Y-132658750D01*
X136874250Y-132500000D01*
X136310000Y-132496928D01*
X136185518Y-132509188D01*
X136065820Y-132545498D01*
X135955506Y-132604463D01*
X135858815Y-132683815D01*
X135779463Y-132780506D01*
X135720498Y-132890820D01*
X135698487Y-132963380D01*
X135566632Y-132831525D01*
X135505000Y-132790344D01*
X135505000Y-130705072D01*
X136680001Y-130705072D01*
X136853255Y-130688008D01*
X137019851Y-130637472D01*
X137173387Y-130555405D01*
X137307962Y-130444962D01*
X137418405Y-130310387D01*
X137500472Y-130156851D01*
X137551008Y-129990255D01*
X137568072Y-129817001D01*
X137568072Y-128966999D01*
X137551008Y-128793745D01*
X137500472Y-128627149D01*
X137428005Y-128491573D01*
X137770001Y-128149578D01*
X137770001Y-132498235D01*
G36*
X117346928Y-114105000D02*
G01*
X117359188Y-114229482D01*
X117395498Y-114349180D01*
X117454463Y-114459494D01*
X117533815Y-114556185D01*
X117630506Y-114635537D01*
X117740820Y-114694502D01*
X117860518Y-114730812D01*
X117985000Y-114743072D01*
X119485000Y-114743072D01*
X119609482Y-114730812D01*
X119729180Y-114694502D01*
X119839494Y-114635537D01*
X119882970Y-114599857D01*
X127145776Y-121942958D01*
X127145775Y-123107306D01*
X127141494Y-123150775D01*
X127145775Y-123194244D01*
X127145775Y-123194251D01*
X127158580Y-123324264D01*
X127209186Y-123491087D01*
X127291364Y-123644833D01*
X127401958Y-123779592D01*
X127435731Y-123807309D01*
X127773466Y-124145044D01*
X127801183Y-124178817D01*
X127935941Y-124289411D01*
X128089687Y-124371589D01*
X128256510Y-124422195D01*
X128386523Y-124435000D01*
X128386533Y-124435000D01*
X128429999Y-124439281D01*
X128473465Y-124435000D01*
X129860360Y-124435000D01*
X129886506Y-124442201D01*
X129959010Y-124464195D01*
X130013868Y-124469598D01*
X130068174Y-124478952D01*
X130143870Y-124477000D01*
X133073749Y-124477000D01*
X133091595Y-124510387D01*
X133202038Y-124644962D01*
X133336613Y-124755405D01*
X133490149Y-124837472D01*
X133656745Y-124888008D01*
X133829999Y-124905072D01*
X134243001Y-124905072D01*
X134243000Y-125445545D01*
X134210795Y-125493744D01*
X134132774Y-125682102D01*
X134093000Y-125882061D01*
X134093000Y-126085939D01*
X134132774Y-126285898D01*
X134210795Y-126474256D01*
X134324063Y-126643774D01*
X134468226Y-126787937D01*
X134637744Y-126901205D01*
X134826102Y-126979226D01*
X135026061Y-127019000D01*
X135229939Y-127019000D01*
X135429898Y-126979226D01*
X135618256Y-126901205D01*
X135787774Y-126787937D01*
X135931937Y-126643774D01*
X136045205Y-126474256D01*
X136123226Y-126285898D01*
X136163000Y-126085939D01*
X136163000Y-125882061D01*
X136123226Y-125682102D01*
X136045205Y-125493744D01*
X136013000Y-125445546D01*
X136013000Y-124905072D01*
X136680001Y-124905072D01*
X136853255Y-124888008D01*
X137019851Y-124837472D01*
X137037001Y-124828305D01*
X137037000Y-126379421D01*
X135442154Y-127974268D01*
X135435941Y-127977589D01*
X135419829Y-127990812D01*
X135334953Y-128060468D01*
X135334951Y-128060470D01*
X135312460Y-128078928D01*
X133829999Y-128078928D01*
X133656745Y-128095992D01*
X133490149Y-128146528D01*
X133336613Y-128228595D01*
X133202038Y-128339038D01*
X133091595Y-128473613D01*
X133073749Y-128507000D01*
X129143578Y-128507000D01*
X129135000Y-128498422D01*
X129135000Y-128003072D01*
X129202500Y-128003072D01*
X129326982Y-127990812D01*
X129446680Y-127954502D01*
X129556994Y-127895537D01*
X129653685Y-127816185D01*
X129733037Y-127719494D01*
X129792002Y-127609180D01*
X129828312Y-127489482D01*
X129840572Y-127365000D01*
X129840572Y-125365000D01*
X129828312Y-125240518D01*
X129792002Y-125120820D01*
X129733037Y-125010506D01*
X129653685Y-124913815D01*
X129556994Y-124834463D01*
X129446680Y-124775498D01*
X129326982Y-124739188D01*
X129202500Y-124726928D01*
X127297500Y-124726928D01*
X127173018Y-124739188D01*
X127053320Y-124775498D01*
X126943006Y-124834463D01*
X126846315Y-124913815D01*
X126766963Y-125010506D01*
X126717941Y-125102219D01*
X126576923Y-124989031D01*
X126301094Y-124845429D01*
X126082980Y-124774437D01*
X125837000Y-124894406D01*
X125837000Y-126238000D01*
X125857000Y-126238000D01*
X125857000Y-126492000D01*
X125837000Y-126492000D01*
X125837000Y-127835594D01*
X126082980Y-127955563D01*
X126301094Y-127884571D01*
X126576923Y-127740969D01*
X126717941Y-127627781D01*
X126766963Y-127719494D01*
X126846315Y-127816185D01*
X126943006Y-127895537D01*
X127053320Y-127954502D01*
X127173018Y-127990812D01*
X127297500Y-128003072D01*
X127365000Y-128003072D01*
X127365000Y-128821531D01*
X127360719Y-128865000D01*
X127365000Y-128908469D01*
X127365000Y-128908476D01*
X127376212Y-129022314D01*
X127377805Y-129038490D01*
X127393157Y-129089096D01*
X127428411Y-129205312D01*
X127510589Y-129359058D01*
X127621183Y-129493817D01*
X127654956Y-129521534D01*
X128120466Y-129987044D01*
X128148183Y-130020817D01*
X128181954Y-130048532D01*
X128282941Y-130131411D01*
X128436686Y-130213589D01*
X128603510Y-130264195D01*
X128733523Y-130277000D01*
X128733531Y-130277000D01*
X128777000Y-130281281D01*
X128820469Y-130277000D01*
X133073749Y-130277000D01*
X133091595Y-130310387D01*
X133202038Y-130444962D01*
X133336613Y-130555405D01*
X133490149Y-130637472D01*
X133656745Y-130688008D01*
X133735001Y-130695716D01*
X133735000Y-132790344D01*
X133673368Y-132831525D01*
X133466525Y-133038368D01*
X133350000Y-133212760D01*
X133233475Y-133038368D01*
X133026632Y-132831525D01*
X132783411Y-132669010D01*
X132513158Y-132557068D01*
X132226260Y-132500000D01*
X131933740Y-132500000D01*
X131861039Y-132514461D01*
X131436533Y-132089955D01*
X131408816Y-132056182D01*
X131274058Y-131945588D01*
X131120312Y-131863410D01*
X130953489Y-131812804D01*
X130823476Y-131799999D01*
X130823468Y-131799999D01*
X130779999Y-131795718D01*
X130736530Y-131799999D01*
X125803470Y-131799999D01*
X125790951Y-131798766D01*
X125901206Y-131633757D01*
X125979227Y-131445399D01*
X126019001Y-131245440D01*
X126019001Y-131041562D01*
X125979227Y-130841603D01*
X125901206Y-130653245D01*
X125787938Y-130483727D01*
X125643775Y-130339564D01*
X125474257Y-130226296D01*
X125285899Y-130148275D01*
X125085940Y-130108501D01*
X124882062Y-130108501D01*
X124682103Y-130148275D01*
X124493745Y-130226296D01*
X124324227Y-130339564D01*
X124180064Y-130483727D01*
X124066796Y-130653245D01*
X123988775Y-130841603D01*
X123949001Y-131041562D01*
X123949001Y-131103699D01*
X122671695Y-132381006D01*
X122621013Y-132385998D01*
X122477752Y-132429455D01*
X122345722Y-132500027D01*
X122291228Y-132544749D01*
X122066260Y-132500000D01*
X121773740Y-132500000D01*
X121486842Y-132557068D01*
X121216589Y-132669010D01*
X120989999Y-132820413D01*
X120989999Y-126239514D01*
X121582500Y-126239514D01*
X121582500Y-126490485D01*
X121605470Y-126723703D01*
X121696245Y-127022948D01*
X121843655Y-127298734D01*
X122042037Y-127540463D01*
X122283765Y-127738845D01*
X122559551Y-127886255D01*
X122858796Y-127977030D01*
X123170000Y-128007681D01*
X123481203Y-127977030D01*
X123780448Y-127886255D01*
X124056234Y-127738845D01*
X124297963Y-127540463D01*
X124445163Y-127361101D01*
X124600563Y-127546315D01*
X124843077Y-127740969D01*
X125118906Y-127884571D01*
X125337020Y-127955563D01*
X125583000Y-127835594D01*
X125583000Y-126492000D01*
X125563000Y-126492000D01*
X125563000Y-126238000D01*
X125583000Y-126238000D01*
X125583000Y-124894406D01*
X125337020Y-124774437D01*
X125118906Y-124845429D01*
X124843077Y-124989031D01*
X124600563Y-125183685D01*
X124445162Y-125368900D01*
X124297963Y-125189537D01*
X124056235Y-124991155D01*
X123780449Y-124843745D01*
X123481204Y-124752970D01*
X123170000Y-124722319D01*
X122858797Y-124752970D01*
X122559552Y-124843745D01*
X122283766Y-124991155D01*
X122042037Y-125189537D01*
X121843655Y-125431265D01*
X121696245Y-125707051D01*
X121605470Y-126006296D01*
X121582500Y-126239514D01*
X120989999Y-126239514D01*
X120989999Y-126147302D01*
X122594802Y-124542500D01*
X122656939Y-124542500D01*
X122856898Y-124502726D01*
X123045256Y-124424705D01*
X123214774Y-124311437D01*
X123358937Y-124167274D01*
X123472205Y-123997756D01*
X123550226Y-123809398D01*
X123590000Y-123609439D01*
X123590000Y-123483072D01*
X124585000Y-123483072D01*
X124709482Y-123470812D01*
X124829180Y-123434502D01*
X124939494Y-123375537D01*
X125036185Y-123296185D01*
X125115537Y-123199494D01*
X125174502Y-123089180D01*
X125210812Y-122969482D01*
X125223072Y-122845000D01*
X125223072Y-120845000D01*
X125210812Y-120720518D01*
X125174502Y-120600820D01*
X125115537Y-120490506D01*
X125036185Y-120393815D01*
X124939494Y-120314463D01*
X124829180Y-120255498D01*
X124709482Y-120219188D01*
X124585000Y-120206928D01*
X123085000Y-120206928D01*
X122960518Y-120219188D01*
X122840820Y-120255498D01*
X122730506Y-120314463D01*
X122633815Y-120393815D01*
X122554463Y-120490506D01*
X122495498Y-120600820D01*
X122459188Y-120720518D01*
X122446928Y-120845000D01*
X122446928Y-120946998D01*
X121901471Y-120946998D01*
X121858002Y-120942717D01*
X121814533Y-120946998D01*
X121814525Y-120946998D01*
X121684512Y-120959803D01*
X121517688Y-121010409D01*
X121363943Y-121092587D01*
X121262955Y-121175466D01*
X121262953Y-121175468D01*
X121229185Y-121203181D01*
X121201472Y-121236949D01*
X120123072Y-122315349D01*
X120123072Y-120845000D01*
X120110812Y-120720518D01*
X120074502Y-120600820D01*
X120015537Y-120490506D01*
X119936185Y-120393815D01*
X119839494Y-120314463D01*
X119729180Y-120255498D01*
X119609482Y-120219188D01*
X119485000Y-120206928D01*
X117985000Y-120206928D01*
X117860518Y-120219188D01*
X117740820Y-120255498D01*
X117630506Y-120314463D01*
X117533815Y-120393815D01*
X117454463Y-120490506D01*
X117395498Y-120600820D01*
X117359188Y-120720518D01*
X117346928Y-120845000D01*
X117346928Y-122845000D01*
X117359188Y-122969482D01*
X117395498Y-123089180D01*
X117454463Y-123199494D01*
X117533815Y-123296185D01*
X117630506Y-123375537D01*
X117668549Y-123395872D01*
X116752956Y-124311466D01*
X116719183Y-124339183D01*
X116608589Y-124473942D01*
X116526411Y-124627688D01*
X116492587Y-124739188D01*
X116475805Y-124794510D01*
X116474212Y-124810686D01*
X116463000Y-124924524D01*
X116463000Y-124924531D01*
X116458719Y-124968000D01*
X116463000Y-125011469D01*
X116463001Y-130570420D01*
X114518961Y-132514461D01*
X114446260Y-132500000D01*
X114153740Y-132500000D01*
X113866842Y-132557068D01*
X113690000Y-132630318D01*
X113690000Y-130388802D01*
X113852257Y-130456011D01*
X114148816Y-130515000D01*
X114451184Y-130515000D01*
X114747743Y-130456011D01*
X115027095Y-130340299D01*
X115278505Y-130172312D01*
X115492312Y-129958505D01*
X115660299Y-129707095D01*
X115776011Y-129427743D01*
X115835000Y-129131184D01*
X115835000Y-128828816D01*
X115776011Y-128532257D01*
X115660299Y-128252905D01*
X115492312Y-128001495D01*
X115425873Y-127935056D01*
X115444180Y-127929502D01*
X115554494Y-127870537D01*
X115651185Y-127791185D01*
X115730537Y-127694494D01*
X115789502Y-127584180D01*
X115825812Y-127464482D01*
X115838072Y-127340000D01*
X115835000Y-126725750D01*
X115676250Y-126567000D01*
X114427000Y-126567000D01*
X114427000Y-126587000D01*
X114173000Y-126587000D01*
X114173000Y-126567000D01*
X114153000Y-126567000D01*
X114153000Y-126313000D01*
X114173000Y-126313000D01*
X114173000Y-125063750D01*
X114089250Y-124980000D01*
X114163000Y-124906250D01*
X114163000Y-123982000D01*
X114417000Y-123982000D01*
X114417000Y-124906250D01*
X114500750Y-124990000D01*
X114427000Y-125063750D01*
X114427000Y-126313000D01*
X115676250Y-126313000D01*
X115835000Y-126154250D01*
X115838072Y-125540000D01*
X115825812Y-125415518D01*
X115789502Y-125295820D01*
X115730537Y-125185506D01*
X115651185Y-125088815D01*
X115554494Y-125009463D01*
X115444180Y-124950498D01*
X115380328Y-124931129D01*
X115441185Y-124881185D01*
X115520537Y-124784494D01*
X115579502Y-124674180D01*
X115615812Y-124554482D01*
X115628072Y-124430000D01*
X115625000Y-124140750D01*
X115466250Y-123982000D01*
X114417000Y-123982000D01*
X114163000Y-123982000D01*
X114143000Y-123982000D01*
X114143000Y-123728000D01*
X114163000Y-123728000D01*
X114163000Y-123708000D01*
X114417000Y-123708000D01*
X114417000Y-123728000D01*
X115466250Y-123728000D01*
X115625000Y-123569250D01*
X115628072Y-123280000D01*
X115615812Y-123155518D01*
X115579502Y-123035820D01*
X115520537Y-122925506D01*
X115441185Y-122828815D01*
X115361406Y-122763342D01*
X115367962Y-122757962D01*
X115478405Y-122623387D01*
X115560472Y-122469851D01*
X115611008Y-122303255D01*
X115628072Y-122130001D01*
X115628072Y-121479999D01*
X115611008Y-121306745D01*
X115560472Y-121140149D01*
X115478405Y-120986613D01*
X115367962Y-120852038D01*
X115233387Y-120741595D01*
X115185000Y-120715732D01*
X115185000Y-120447656D01*
X115246632Y-120406475D01*
X115453475Y-120199632D01*
X115615990Y-119956411D01*
X115727932Y-119686158D01*
X115785000Y-119399260D01*
X115785000Y-119152080D01*
X115865514Y-119176503D01*
X115977167Y-119187500D01*
X115977176Y-119187500D01*
X116014499Y-119191176D01*
X116051822Y-119187500D01*
X119628789Y-119187500D01*
X119672726Y-119231437D01*
X119842244Y-119344705D01*
X120030602Y-119422726D01*
X120230561Y-119462500D01*
X120434439Y-119462500D01*
X120634398Y-119422726D01*
X120822756Y-119344705D01*
X120992274Y-119231437D01*
X121136437Y-119087274D01*
X121249705Y-118917756D01*
X121327726Y-118729398D01*
X121367500Y-118529439D01*
X121367500Y-118325561D01*
X121327726Y-118125602D01*
X121249705Y-117937244D01*
X121136437Y-117767726D01*
X120992274Y-117623563D01*
X120822756Y-117510295D01*
X120634398Y-117432274D01*
X120434439Y-117392500D01*
X120230561Y-117392500D01*
X120030602Y-117432274D01*
X119842244Y-117510295D01*
X119672726Y-117623563D01*
X119628789Y-117667500D01*
X116329302Y-117667500D01*
X115741210Y-117079408D01*
X115785000Y-116859260D01*
X115785000Y-116566740D01*
X115743877Y-116360000D01*
X116267581Y-116360000D01*
X116300000Y-116363193D01*
X116332419Y-116360000D01*
X116429383Y-116350450D01*
X116553793Y-116312710D01*
X116668450Y-116251425D01*
X116768948Y-116168948D01*
X116851425Y-116068450D01*
X116912710Y-115953793D01*
X116950450Y-115829383D01*
X116963193Y-115700000D01*
X116960000Y-115667581D01*
X116960000Y-113092217D01*
X117346928Y-113091083D01*
X117346928Y-114105000D01*
G37*
X117346928Y-114105000D02*
X117359188Y-114229482D01*
X117395498Y-114349180D01*
X117454463Y-114459494D01*
X117533815Y-114556185D01*
X117630506Y-114635537D01*
X117740820Y-114694502D01*
X117860518Y-114730812D01*
X117985000Y-114743072D01*
X119485000Y-114743072D01*
X119609482Y-114730812D01*
X119729180Y-114694502D01*
X119839494Y-114635537D01*
X119882970Y-114599857D01*
X127145776Y-121942958D01*
X127145775Y-123107306D01*
X127141494Y-123150775D01*
X127145775Y-123194244D01*
X127145775Y-123194251D01*
X127158580Y-123324264D01*
X127209186Y-123491087D01*
X127291364Y-123644833D01*
X127401958Y-123779592D01*
X127435731Y-123807309D01*
X127773466Y-124145044D01*
X127801183Y-124178817D01*
X127935941Y-124289411D01*
X128089687Y-124371589D01*
X128256510Y-124422195D01*
X128386523Y-124435000D01*
X128386533Y-124435000D01*
X128429999Y-124439281D01*
X128473465Y-124435000D01*
X129860360Y-124435000D01*
X129886506Y-124442201D01*
X129959010Y-124464195D01*
X130013868Y-124469598D01*
X130068174Y-124478952D01*
X130143870Y-124477000D01*
X133073749Y-124477000D01*
X133091595Y-124510387D01*
X133202038Y-124644962D01*
X133336613Y-124755405D01*
X133490149Y-124837472D01*
X133656745Y-124888008D01*
X133829999Y-124905072D01*
X134243001Y-124905072D01*
X134243000Y-125445545D01*
X134210795Y-125493744D01*
X134132774Y-125682102D01*
X134093000Y-125882061D01*
X134093000Y-126085939D01*
X134132774Y-126285898D01*
X134210795Y-126474256D01*
X134324063Y-126643774D01*
X134468226Y-126787937D01*
X134637744Y-126901205D01*
X134826102Y-126979226D01*
X135026061Y-127019000D01*
X135229939Y-127019000D01*
X135429898Y-126979226D01*
X135618256Y-126901205D01*
X135787774Y-126787937D01*
X135931937Y-126643774D01*
X136045205Y-126474256D01*
X136123226Y-126285898D01*
X136163000Y-126085939D01*
X136163000Y-125882061D01*
X136123226Y-125682102D01*
X136045205Y-125493744D01*
X136013000Y-125445546D01*
X136013000Y-124905072D01*
X136680001Y-124905072D01*
X136853255Y-124888008D01*
X137019851Y-124837472D01*
X137037001Y-124828305D01*
X137037000Y-126379421D01*
X135442154Y-127974268D01*
X135435941Y-127977589D01*
X135419829Y-127990812D01*
X135334953Y-128060468D01*
X135334951Y-128060470D01*
X135312460Y-128078928D01*
X133829999Y-128078928D01*
X133656745Y-128095992D01*
X133490149Y-128146528D01*
X133336613Y-128228595D01*
X133202038Y-128339038D01*
X133091595Y-128473613D01*
X133073749Y-128507000D01*
X129143578Y-128507000D01*
X129135000Y-128498422D01*
X129135000Y-128003072D01*
X129202500Y-128003072D01*
X129326982Y-127990812D01*
X129446680Y-127954502D01*
X129556994Y-127895537D01*
X129653685Y-127816185D01*
X129733037Y-127719494D01*
X129792002Y-127609180D01*
X129828312Y-127489482D01*
X129840572Y-127365000D01*
X129840572Y-125365000D01*
X129828312Y-125240518D01*
X129792002Y-125120820D01*
X129733037Y-125010506D01*
X129653685Y-124913815D01*
X129556994Y-124834463D01*
X129446680Y-124775498D01*
X129326982Y-124739188D01*
X129202500Y-124726928D01*
X127297500Y-124726928D01*
X127173018Y-124739188D01*
X127053320Y-124775498D01*
X126943006Y-124834463D01*
X126846315Y-124913815D01*
X126766963Y-125010506D01*
X126717941Y-125102219D01*
X126576923Y-124989031D01*
X126301094Y-124845429D01*
X126082980Y-124774437D01*
X125837000Y-124894406D01*
X125837000Y-126238000D01*
X125857000Y-126238000D01*
X125857000Y-126492000D01*
X125837000Y-126492000D01*
X125837000Y-127835594D01*
X126082980Y-127955563D01*
X126301094Y-127884571D01*
X126576923Y-127740969D01*
X126717941Y-127627781D01*
X126766963Y-127719494D01*
X126846315Y-127816185D01*
X126943006Y-127895537D01*
X127053320Y-127954502D01*
X127173018Y-127990812D01*
X127297500Y-128003072D01*
X127365000Y-128003072D01*
X127365000Y-128821531D01*
X127360719Y-128865000D01*
X127365000Y-128908469D01*
X127365000Y-128908476D01*
X127376212Y-129022314D01*
X127377805Y-129038490D01*
X127393157Y-129089096D01*
X127428411Y-129205312D01*
X127510589Y-129359058D01*
X127621183Y-129493817D01*
X127654956Y-129521534D01*
X128120466Y-129987044D01*
X128148183Y-130020817D01*
X128181954Y-130048532D01*
X128282941Y-130131411D01*
X128436686Y-130213589D01*
X128603510Y-130264195D01*
X128733523Y-130277000D01*
X128733531Y-130277000D01*
X128777000Y-130281281D01*
X128820469Y-130277000D01*
X133073749Y-130277000D01*
X133091595Y-130310387D01*
X133202038Y-130444962D01*
X133336613Y-130555405D01*
X133490149Y-130637472D01*
X133656745Y-130688008D01*
X133735001Y-130695716D01*
X133735000Y-132790344D01*
X133673368Y-132831525D01*
X133466525Y-133038368D01*
X133350000Y-133212760D01*
X133233475Y-133038368D01*
X133026632Y-132831525D01*
X132783411Y-132669010D01*
X132513158Y-132557068D01*
X132226260Y-132500000D01*
X131933740Y-132500000D01*
X131861039Y-132514461D01*
X131436533Y-132089955D01*
X131408816Y-132056182D01*
X131274058Y-131945588D01*
X131120312Y-131863410D01*
X130953489Y-131812804D01*
X130823476Y-131799999D01*
X130823468Y-131799999D01*
X130779999Y-131795718D01*
X130736530Y-131799999D01*
X125803470Y-131799999D01*
X125790951Y-131798766D01*
X125901206Y-131633757D01*
X125979227Y-131445399D01*
X126019001Y-131245440D01*
X126019001Y-131041562D01*
X125979227Y-130841603D01*
X125901206Y-130653245D01*
X125787938Y-130483727D01*
X125643775Y-130339564D01*
X125474257Y-130226296D01*
X125285899Y-130148275D01*
X125085940Y-130108501D01*
X124882062Y-130108501D01*
X124682103Y-130148275D01*
X124493745Y-130226296D01*
X124324227Y-130339564D01*
X124180064Y-130483727D01*
X124066796Y-130653245D01*
X123988775Y-130841603D01*
X123949001Y-131041562D01*
X123949001Y-131103699D01*
X122671695Y-132381006D01*
X122621013Y-132385998D01*
X122477752Y-132429455D01*
X122345722Y-132500027D01*
X122291228Y-132544749D01*
X122066260Y-132500000D01*
X121773740Y-132500000D01*
X121486842Y-132557068D01*
X121216589Y-132669010D01*
X120989999Y-132820413D01*
X120989999Y-126239514D01*
X121582500Y-126239514D01*
X121582500Y-126490485D01*
X121605470Y-126723703D01*
X121696245Y-127022948D01*
X121843655Y-127298734D01*
X122042037Y-127540463D01*
X122283765Y-127738845D01*
X122559551Y-127886255D01*
X122858796Y-127977030D01*
X123170000Y-128007681D01*
X123481203Y-127977030D01*
X123780448Y-127886255D01*
X124056234Y-127738845D01*
X124297963Y-127540463D01*
X124445163Y-127361101D01*
X124600563Y-127546315D01*
X124843077Y-127740969D01*
X125118906Y-127884571D01*
X125337020Y-127955563D01*
X125583000Y-127835594D01*
X125583000Y-126492000D01*
X125563000Y-126492000D01*
X125563000Y-126238000D01*
X125583000Y-126238000D01*
X125583000Y-124894406D01*
X125337020Y-124774437D01*
X125118906Y-124845429D01*
X124843077Y-124989031D01*
X124600563Y-125183685D01*
X124445162Y-125368900D01*
X124297963Y-125189537D01*
X124056235Y-124991155D01*
X123780449Y-124843745D01*
X123481204Y-124752970D01*
X123170000Y-124722319D01*
X122858797Y-124752970D01*
X122559552Y-124843745D01*
X122283766Y-124991155D01*
X122042037Y-125189537D01*
X121843655Y-125431265D01*
X121696245Y-125707051D01*
X121605470Y-126006296D01*
X121582500Y-126239514D01*
X120989999Y-126239514D01*
X120989999Y-126147302D01*
X122594802Y-124542500D01*
X122656939Y-124542500D01*
X122856898Y-124502726D01*
X123045256Y-124424705D01*
X123214774Y-124311437D01*
X123358937Y-124167274D01*
X123472205Y-123997756D01*
X123550226Y-123809398D01*
X123590000Y-123609439D01*
X123590000Y-123483072D01*
X124585000Y-123483072D01*
X124709482Y-123470812D01*
X124829180Y-123434502D01*
X124939494Y-123375537D01*
X125036185Y-123296185D01*
X125115537Y-123199494D01*
X125174502Y-123089180D01*
X125210812Y-122969482D01*
X125223072Y-122845000D01*
X125223072Y-120845000D01*
X125210812Y-120720518D01*
X125174502Y-120600820D01*
X125115537Y-120490506D01*
X125036185Y-120393815D01*
X124939494Y-120314463D01*
X124829180Y-120255498D01*
X124709482Y-120219188D01*
X124585000Y-120206928D01*
X123085000Y-120206928D01*
X122960518Y-120219188D01*
X122840820Y-120255498D01*
X122730506Y-120314463D01*
X122633815Y-120393815D01*
X122554463Y-120490506D01*
X122495498Y-120600820D01*
X122459188Y-120720518D01*
X122446928Y-120845000D01*
X122446928Y-120946998D01*
X121901471Y-120946998D01*
X121858002Y-120942717D01*
X121814533Y-120946998D01*
X121814525Y-120946998D01*
X121684512Y-120959803D01*
X121517688Y-121010409D01*
X121363943Y-121092587D01*
X121262955Y-121175466D01*
X121262953Y-121175468D01*
X121229185Y-121203181D01*
X121201472Y-121236949D01*
X120123072Y-122315349D01*
X120123072Y-120845000D01*
X120110812Y-120720518D01*
X120074502Y-120600820D01*
X120015537Y-120490506D01*
X119936185Y-120393815D01*
X119839494Y-120314463D01*
X119729180Y-120255498D01*
X119609482Y-120219188D01*
X119485000Y-120206928D01*
X117985000Y-120206928D01*
X117860518Y-120219188D01*
X117740820Y-120255498D01*
X117630506Y-120314463D01*
X117533815Y-120393815D01*
X117454463Y-120490506D01*
X117395498Y-120600820D01*
X117359188Y-120720518D01*
X117346928Y-120845000D01*
X117346928Y-122845000D01*
X117359188Y-122969482D01*
X117395498Y-123089180D01*
X117454463Y-123199494D01*
X117533815Y-123296185D01*
X117630506Y-123375537D01*
X117668549Y-123395872D01*
X116752956Y-124311466D01*
X116719183Y-124339183D01*
X116608589Y-124473942D01*
X116526411Y-124627688D01*
X116492587Y-124739188D01*
X116475805Y-124794510D01*
X116474212Y-124810686D01*
X116463000Y-124924524D01*
X116463000Y-124924531D01*
X116458719Y-124968000D01*
X116463000Y-125011469D01*
X116463001Y-130570420D01*
X114518961Y-132514461D01*
X114446260Y-132500000D01*
X114153740Y-132500000D01*
X113866842Y-132557068D01*
X113690000Y-132630318D01*
X113690000Y-130388802D01*
X113852257Y-130456011D01*
X114148816Y-130515000D01*
X114451184Y-130515000D01*
X114747743Y-130456011D01*
X115027095Y-130340299D01*
X115278505Y-130172312D01*
X115492312Y-129958505D01*
X115660299Y-129707095D01*
X115776011Y-129427743D01*
X115835000Y-129131184D01*
X115835000Y-128828816D01*
X115776011Y-128532257D01*
X115660299Y-128252905D01*
X115492312Y-128001495D01*
X115425873Y-127935056D01*
X115444180Y-127929502D01*
X115554494Y-127870537D01*
X115651185Y-127791185D01*
X115730537Y-127694494D01*
X115789502Y-127584180D01*
X115825812Y-127464482D01*
X115838072Y-127340000D01*
X115835000Y-126725750D01*
X115676250Y-126567000D01*
X114427000Y-126567000D01*
X114427000Y-126587000D01*
X114173000Y-126587000D01*
X114173000Y-126567000D01*
X114153000Y-126567000D01*
X114153000Y-126313000D01*
X114173000Y-126313000D01*
X114173000Y-125063750D01*
X114089250Y-124980000D01*
X114163000Y-124906250D01*
X114163000Y-123982000D01*
X114417000Y-123982000D01*
X114417000Y-124906250D01*
X114500750Y-124990000D01*
X114427000Y-125063750D01*
X114427000Y-126313000D01*
X115676250Y-126313000D01*
X115835000Y-126154250D01*
X115838072Y-125540000D01*
X115825812Y-125415518D01*
X115789502Y-125295820D01*
X115730537Y-125185506D01*
X115651185Y-125088815D01*
X115554494Y-125009463D01*
X115444180Y-124950498D01*
X115380328Y-124931129D01*
X115441185Y-124881185D01*
X115520537Y-124784494D01*
X115579502Y-124674180D01*
X115615812Y-124554482D01*
X115628072Y-124430000D01*
X115625000Y-124140750D01*
X115466250Y-123982000D01*
X114417000Y-123982000D01*
X114163000Y-123982000D01*
X114143000Y-123982000D01*
X114143000Y-123728000D01*
X114163000Y-123728000D01*
X114163000Y-123708000D01*
X114417000Y-123708000D01*
X114417000Y-123728000D01*
X115466250Y-123728000D01*
X115625000Y-123569250D01*
X115628072Y-123280000D01*
X115615812Y-123155518D01*
X115579502Y-123035820D01*
X115520537Y-122925506D01*
X115441185Y-122828815D01*
X115361406Y-122763342D01*
X115367962Y-122757962D01*
X115478405Y-122623387D01*
X115560472Y-122469851D01*
X115611008Y-122303255D01*
X115628072Y-122130001D01*
X115628072Y-121479999D01*
X115611008Y-121306745D01*
X115560472Y-121140149D01*
X115478405Y-120986613D01*
X115367962Y-120852038D01*
X115233387Y-120741595D01*
X115185000Y-120715732D01*
X115185000Y-120447656D01*
X115246632Y-120406475D01*
X115453475Y-120199632D01*
X115615990Y-119956411D01*
X115727932Y-119686158D01*
X115785000Y-119399260D01*
X115785000Y-119152080D01*
X115865514Y-119176503D01*
X115977167Y-119187500D01*
X115977176Y-119187500D01*
X116014499Y-119191176D01*
X116051822Y-119187500D01*
X119628789Y-119187500D01*
X119672726Y-119231437D01*
X119842244Y-119344705D01*
X120030602Y-119422726D01*
X120230561Y-119462500D01*
X120434439Y-119462500D01*
X120634398Y-119422726D01*
X120822756Y-119344705D01*
X120992274Y-119231437D01*
X121136437Y-119087274D01*
X121249705Y-118917756D01*
X121327726Y-118729398D01*
X121367500Y-118529439D01*
X121367500Y-118325561D01*
X121327726Y-118125602D01*
X121249705Y-117937244D01*
X121136437Y-117767726D01*
X120992274Y-117623563D01*
X120822756Y-117510295D01*
X120634398Y-117432274D01*
X120434439Y-117392500D01*
X120230561Y-117392500D01*
X120030602Y-117432274D01*
X119842244Y-117510295D01*
X119672726Y-117623563D01*
X119628789Y-117667500D01*
X116329302Y-117667500D01*
X115741210Y-117079408D01*
X115785000Y-116859260D01*
X115785000Y-116566740D01*
X115743877Y-116360000D01*
X116267581Y-116360000D01*
X116300000Y-116363193D01*
X116332419Y-116360000D01*
X116429383Y-116350450D01*
X116553793Y-116312710D01*
X116668450Y-116251425D01*
X116768948Y-116168948D01*
X116851425Y-116068450D01*
X116912710Y-115953793D01*
X116950450Y-115829383D01*
X116963193Y-115700000D01*
X116960000Y-115667581D01*
X116960000Y-113092217D01*
X117346928Y-113091083D01*
X117346928Y-114105000D01*
G36*
X131111928Y-119696000D02*
G01*
X131115000Y-120110250D01*
X131273750Y-120269000D01*
X132198000Y-120269000D01*
X132198000Y-120249000D01*
X132452000Y-120249000D01*
X132452000Y-120269000D01*
X132472000Y-120269000D01*
X132472000Y-120523000D01*
X132452000Y-120523000D01*
X132452000Y-121572250D01*
X132610750Y-121731000D01*
X132900000Y-121734072D01*
X133024482Y-121721812D01*
X133144180Y-121685502D01*
X133254494Y-121626537D01*
X133351185Y-121547185D01*
X133416658Y-121467406D01*
X133422038Y-121473962D01*
X133556613Y-121584405D01*
X133710149Y-121666472D01*
X133876745Y-121717008D01*
X134049999Y-121734072D01*
X134700001Y-121734072D01*
X134873255Y-121717008D01*
X135039851Y-121666472D01*
X135193387Y-121584405D01*
X135327962Y-121473962D01*
X135438405Y-121339387D01*
X135469614Y-121281000D01*
X135523422Y-121281000D01*
X136521349Y-122278928D01*
X133829999Y-122278928D01*
X133656745Y-122295992D01*
X133490149Y-122346528D01*
X133336613Y-122428595D01*
X133202038Y-122539038D01*
X133091595Y-122673613D01*
X133073749Y-122707000D01*
X130768072Y-122707000D01*
X130768072Y-122169999D01*
X130751008Y-121996745D01*
X130700472Y-121830149D01*
X130618405Y-121676613D01*
X130507962Y-121542038D01*
X130501406Y-121536658D01*
X130581185Y-121471185D01*
X130660537Y-121374494D01*
X130719502Y-121264180D01*
X130755812Y-121144482D01*
X130760586Y-121096000D01*
X131111928Y-121096000D01*
X131124188Y-121220482D01*
X131160498Y-121340180D01*
X131219463Y-121450494D01*
X131298815Y-121547185D01*
X131395506Y-121626537D01*
X131505820Y-121685502D01*
X131625518Y-121721812D01*
X131750000Y-121734072D01*
X132039250Y-121731000D01*
X132198000Y-121572250D01*
X132198000Y-120523000D01*
X131273750Y-120523000D01*
X131115000Y-120681750D01*
X131111928Y-121096000D01*
X130760586Y-121096000D01*
X130768072Y-121020000D01*
X130765000Y-120730750D01*
X130606250Y-120572000D01*
X129557000Y-120572000D01*
X129557000Y-120592000D01*
X129303000Y-120592000D01*
X129303000Y-120572000D01*
X129283000Y-120572000D01*
X129283000Y-120318000D01*
X129303000Y-120318000D01*
X129303000Y-120298000D01*
X129557000Y-120298000D01*
X129557000Y-120318000D01*
X130606250Y-120318000D01*
X130765000Y-120159250D01*
X130768072Y-119870000D01*
X130755812Y-119745518D01*
X130721377Y-119632000D01*
X131118231Y-119632000D01*
X131111928Y-119696000D01*
G37*
X131111928Y-119696000D02*
X131115000Y-120110250D01*
X131273750Y-120269000D01*
X132198000Y-120269000D01*
X132198000Y-120249000D01*
X132452000Y-120249000D01*
X132452000Y-120269000D01*
X132472000Y-120269000D01*
X132472000Y-120523000D01*
X132452000Y-120523000D01*
X132452000Y-121572250D01*
X132610750Y-121731000D01*
X132900000Y-121734072D01*
X133024482Y-121721812D01*
X133144180Y-121685502D01*
X133254494Y-121626537D01*
X133351185Y-121547185D01*
X133416658Y-121467406D01*
X133422038Y-121473962D01*
X133556613Y-121584405D01*
X133710149Y-121666472D01*
X133876745Y-121717008D01*
X134049999Y-121734072D01*
X134700001Y-121734072D01*
X134873255Y-121717008D01*
X135039851Y-121666472D01*
X135193387Y-121584405D01*
X135327962Y-121473962D01*
X135438405Y-121339387D01*
X135469614Y-121281000D01*
X135523422Y-121281000D01*
X136521349Y-122278928D01*
X133829999Y-122278928D01*
X133656745Y-122295992D01*
X133490149Y-122346528D01*
X133336613Y-122428595D01*
X133202038Y-122539038D01*
X133091595Y-122673613D01*
X133073749Y-122707000D01*
X130768072Y-122707000D01*
X130768072Y-122169999D01*
X130751008Y-121996745D01*
X130700472Y-121830149D01*
X130618405Y-121676613D01*
X130507962Y-121542038D01*
X130501406Y-121536658D01*
X130581185Y-121471185D01*
X130660537Y-121374494D01*
X130719502Y-121264180D01*
X130755812Y-121144482D01*
X130760586Y-121096000D01*
X131111928Y-121096000D01*
X131124188Y-121220482D01*
X131160498Y-121340180D01*
X131219463Y-121450494D01*
X131298815Y-121547185D01*
X131395506Y-121626537D01*
X131505820Y-121685502D01*
X131625518Y-121721812D01*
X131750000Y-121734072D01*
X132039250Y-121731000D01*
X132198000Y-121572250D01*
X132198000Y-120523000D01*
X131273750Y-120523000D01*
X131115000Y-120681750D01*
X131111928Y-121096000D01*
X130760586Y-121096000D01*
X130768072Y-121020000D01*
X130765000Y-120730750D01*
X130606250Y-120572000D01*
X129557000Y-120572000D01*
X129557000Y-120592000D01*
X129303000Y-120592000D01*
X129303000Y-120572000D01*
X129283000Y-120572000D01*
X129283000Y-120318000D01*
X129303000Y-120318000D01*
X129303000Y-120298000D01*
X129557000Y-120298000D01*
X129557000Y-120318000D01*
X130606250Y-120318000D01*
X130765000Y-120159250D01*
X130768072Y-119870000D01*
X130755812Y-119745518D01*
X130721377Y-119632000D01*
X131118231Y-119632000D01*
X131111928Y-119696000D01*
G36*
X125476026Y-113113724D02*
G01*
X125443802Y-113174011D01*
X125405454Y-113245754D01*
X125361997Y-113389015D01*
X125351000Y-113500668D01*
X125351000Y-113500678D01*
X125347324Y-113538000D01*
X125351000Y-113575323D01*
X125351001Y-116612168D01*
X125347324Y-116649500D01*
X125351001Y-116686833D01*
X125361998Y-116798486D01*
X125373336Y-116835862D01*
X125405454Y-116941746D01*
X125476026Y-117073776D01*
X125528140Y-117137276D01*
X125571000Y-117189501D01*
X125599998Y-117213299D01*
X127579966Y-119193268D01*
X127635026Y-119296276D01*
X127729999Y-119412001D01*
X127845724Y-119506974D01*
X127977753Y-119577546D01*
X128121014Y-119621003D01*
X128141970Y-119623067D01*
X128140498Y-119625820D01*
X128104188Y-119745518D01*
X128091928Y-119870000D01*
X128095000Y-120159250D01*
X128253748Y-120317998D01*
X128095000Y-120317998D01*
X128095000Y-120385643D01*
X121883033Y-114105000D01*
X122446928Y-114105000D01*
X122459188Y-114229482D01*
X122495498Y-114349180D01*
X122554463Y-114459494D01*
X122633815Y-114556185D01*
X122730506Y-114635537D01*
X122840820Y-114694502D01*
X122960518Y-114730812D01*
X123085000Y-114743072D01*
X123549250Y-114740000D01*
X123708000Y-114581250D01*
X123708000Y-113232000D01*
X123962000Y-113232000D01*
X123962000Y-114581250D01*
X124120750Y-114740000D01*
X124585000Y-114743072D01*
X124709482Y-114730812D01*
X124829180Y-114694502D01*
X124939494Y-114635537D01*
X125036185Y-114556185D01*
X125115537Y-114459494D01*
X125174502Y-114349180D01*
X125210812Y-114229482D01*
X125223072Y-114105000D01*
X125220000Y-113390750D01*
X125061250Y-113232000D01*
X123962000Y-113232000D01*
X123708000Y-113232000D01*
X122608750Y-113232000D01*
X122450000Y-113390750D01*
X122446928Y-114105000D01*
X121883033Y-114105000D01*
X120976428Y-113188373D01*
X121084679Y-113080122D01*
X125514264Y-113067132D01*
X125476026Y-113113724D01*
G37*
X125476026Y-113113724D02*
X125443802Y-113174011D01*
X125405454Y-113245754D01*
X125361997Y-113389015D01*
X125351000Y-113500668D01*
X125351000Y-113500678D01*
X125347324Y-113538000D01*
X125351000Y-113575323D01*
X125351001Y-116612168D01*
X125347324Y-116649500D01*
X125351001Y-116686833D01*
X125361998Y-116798486D01*
X125373336Y-116835862D01*
X125405454Y-116941746D01*
X125476026Y-117073776D01*
X125528140Y-117137276D01*
X125571000Y-117189501D01*
X125599998Y-117213299D01*
X127579966Y-119193268D01*
X127635026Y-119296276D01*
X127729999Y-119412001D01*
X127845724Y-119506974D01*
X127977753Y-119577546D01*
X128121014Y-119621003D01*
X128141970Y-119623067D01*
X128140498Y-119625820D01*
X128104188Y-119745518D01*
X128091928Y-119870000D01*
X128095000Y-120159250D01*
X128253748Y-120317998D01*
X128095000Y-120317998D01*
X128095000Y-120385643D01*
X121883033Y-114105000D01*
X122446928Y-114105000D01*
X122459188Y-114229482D01*
X122495498Y-114349180D01*
X122554463Y-114459494D01*
X122633815Y-114556185D01*
X122730506Y-114635537D01*
X122840820Y-114694502D01*
X122960518Y-114730812D01*
X123085000Y-114743072D01*
X123549250Y-114740000D01*
X123708000Y-114581250D01*
X123708000Y-113232000D01*
X123962000Y-113232000D01*
X123962000Y-114581250D01*
X124120750Y-114740000D01*
X124585000Y-114743072D01*
X124709482Y-114730812D01*
X124829180Y-114694502D01*
X124939494Y-114635537D01*
X125036185Y-114556185D01*
X125115537Y-114459494D01*
X125174502Y-114349180D01*
X125210812Y-114229482D01*
X125223072Y-114105000D01*
X125220000Y-113390750D01*
X125061250Y-113232000D01*
X123962000Y-113232000D01*
X123708000Y-113232000D01*
X122608750Y-113232000D01*
X122450000Y-113390750D01*
X122446928Y-114105000D01*
X121883033Y-114105000D01*
X120976428Y-113188373D01*
X121084679Y-113080122D01*
X125514264Y-113067132D01*
X125476026Y-113113724D01*
G36*
X137353748Y-116698858D02*
G01*
X137339605Y-116713000D01*
X137353748Y-116727143D01*
X137174143Y-116906748D01*
X137160000Y-116892605D01*
X136311208Y-117741397D01*
X136386729Y-117983689D01*
X136213368Y-118099525D01*
X136006525Y-118306368D01*
X135885107Y-118488083D01*
X135897046Y-118465747D01*
X135940503Y-118322486D01*
X135951500Y-118210833D01*
X135951500Y-118210823D01*
X135955176Y-118173501D01*
X135951500Y-118136178D01*
X135951500Y-117505655D01*
X136131603Y-117561792D01*
X136980395Y-116713000D01*
X136966253Y-116698858D01*
X137145858Y-116519253D01*
X137160000Y-116533395D01*
X137174143Y-116519253D01*
X137353748Y-116698858D01*
G37*
X137353748Y-116698858D02*
X137339605Y-116713000D01*
X137353748Y-116727143D01*
X137174143Y-116906748D01*
X137160000Y-116892605D01*
X136311208Y-117741397D01*
X136386729Y-117983689D01*
X136213368Y-118099525D01*
X136006525Y-118306368D01*
X135885107Y-118488083D01*
X135897046Y-118465747D01*
X135940503Y-118322486D01*
X135951500Y-118210833D01*
X135951500Y-118210823D01*
X135955176Y-118173501D01*
X135951500Y-118136178D01*
X135951500Y-117505655D01*
X136131603Y-117561792D01*
X136980395Y-116713000D01*
X136966253Y-116698858D01*
X137145858Y-116519253D01*
X137160000Y-116533395D01*
X137174143Y-116519253D01*
X137353748Y-116698858D01*
G36*
X134350000Y-117409000D02*
G01*
X134370000Y-117409000D01*
X134370000Y-117501001D01*
X134076000Y-117501001D01*
X134076000Y-117409000D01*
X134096000Y-117409000D01*
X134096000Y-117389000D01*
X134350000Y-117389000D01*
X134350000Y-117409000D01*
G37*
X134350000Y-117409000D02*
X134370000Y-117409000D01*
X134370000Y-117501001D01*
X134076000Y-117501001D01*
X134076000Y-117409000D01*
X134096000Y-117409000D01*
X134096000Y-117389000D01*
X134350000Y-117389000D01*
X134350000Y-117409000D01*
G36*
X133321815Y-116487185D02*
G01*
X133418506Y-116566537D01*
X133454918Y-116586000D01*
X133418506Y-116605463D01*
X133321815Y-116684815D01*
X133311072Y-116697905D01*
X133311072Y-116474095D01*
X133321815Y-116487185D01*
G37*
X133321815Y-116487185D02*
X133418506Y-116566537D01*
X133454918Y-116586000D01*
X133418506Y-116605463D01*
X133321815Y-116684815D01*
X133311072Y-116697905D01*
X133311072Y-116474095D01*
X133321815Y-116487185D01*
G36*
X134350000Y-113586250D02*
G01*
X134508750Y-113745000D01*
X134673000Y-113748072D01*
X134717000Y-113743739D01*
X134717000Y-114080698D01*
X134199771Y-114597928D01*
X133773000Y-114597928D01*
X133648518Y-114610188D01*
X133528820Y-114646498D01*
X133418506Y-114705463D01*
X133321815Y-114784815D01*
X133242463Y-114881506D01*
X133183498Y-114991820D01*
X133147188Y-115111518D01*
X133134928Y-115236000D01*
X133134928Y-115747905D01*
X133124185Y-115734815D01*
X133027494Y-115655463D01*
X132917180Y-115596498D01*
X132797482Y-115560188D01*
X132673000Y-115547928D01*
X131773000Y-115547928D01*
X131648518Y-115560188D01*
X131528820Y-115596498D01*
X131418506Y-115655463D01*
X131321815Y-115734815D01*
X131246982Y-115826000D01*
X130654935Y-115826000D01*
X130662226Y-115808398D01*
X130702000Y-115608439D01*
X130702000Y-115404561D01*
X130662226Y-115204602D01*
X130584205Y-115016244D01*
X130470937Y-114846726D01*
X130326774Y-114702563D01*
X130222989Y-114633216D01*
X130330205Y-114472756D01*
X130408226Y-114284398D01*
X130448000Y-114084439D01*
X130448000Y-113909801D01*
X131307659Y-113050142D01*
X133136682Y-113044779D01*
X133134928Y-113110000D01*
X133147188Y-113234482D01*
X133183498Y-113354180D01*
X133242463Y-113464494D01*
X133321815Y-113561185D01*
X133418506Y-113640537D01*
X133528820Y-113699502D01*
X133648518Y-113735812D01*
X133773000Y-113748072D01*
X133937250Y-113745000D01*
X134096000Y-113586250D01*
X134096000Y-113041965D01*
X134350000Y-113041220D01*
X134350000Y-113586250D01*
G37*
X134350000Y-113586250D02*
X134508750Y-113745000D01*
X134673000Y-113748072D01*
X134717000Y-113743739D01*
X134717000Y-114080698D01*
X134199771Y-114597928D01*
X133773000Y-114597928D01*
X133648518Y-114610188D01*
X133528820Y-114646498D01*
X133418506Y-114705463D01*
X133321815Y-114784815D01*
X133242463Y-114881506D01*
X133183498Y-114991820D01*
X133147188Y-115111518D01*
X133134928Y-115236000D01*
X133134928Y-115747905D01*
X133124185Y-115734815D01*
X133027494Y-115655463D01*
X132917180Y-115596498D01*
X132797482Y-115560188D01*
X132673000Y-115547928D01*
X131773000Y-115547928D01*
X131648518Y-115560188D01*
X131528820Y-115596498D01*
X131418506Y-115655463D01*
X131321815Y-115734815D01*
X131246982Y-115826000D01*
X130654935Y-115826000D01*
X130662226Y-115808398D01*
X130702000Y-115608439D01*
X130702000Y-115404561D01*
X130662226Y-115204602D01*
X130584205Y-115016244D01*
X130470937Y-114846726D01*
X130326774Y-114702563D01*
X130222989Y-114633216D01*
X130330205Y-114472756D01*
X130408226Y-114284398D01*
X130448000Y-114084439D01*
X130448000Y-113909801D01*
X131307659Y-113050142D01*
X133136682Y-113044779D01*
X133134928Y-113110000D01*
X133147188Y-113234482D01*
X133183498Y-113354180D01*
X133242463Y-113464494D01*
X133321815Y-113561185D01*
X133418506Y-113640537D01*
X133528820Y-113699502D01*
X133648518Y-113735812D01*
X133773000Y-113748072D01*
X133937250Y-113745000D01*
X134096000Y-113586250D01*
X134096000Y-113041965D01*
X134350000Y-113041220D01*
X134350000Y-113586250D01*
G36*
X126492000Y-98079795D02*
G01*
X126403791Y-98106553D01*
X126251336Y-98188042D01*
X126117708Y-98297708D01*
X126047500Y-98383256D01*
X125977292Y-98297708D01*
X125843664Y-98188042D01*
X125691209Y-98106553D01*
X125525785Y-98056372D01*
X125402840Y-98044263D01*
X125265387Y-98001784D01*
X125116479Y-97986333D01*
X124967420Y-98000231D01*
X124823934Y-98042941D01*
X124822409Y-98043746D01*
X124694215Y-98056372D01*
X124528791Y-98106553D01*
X124376336Y-98188042D01*
X124242708Y-98297708D01*
X124133042Y-98431336D01*
X124051553Y-98583791D01*
X124001372Y-98749215D01*
X123984428Y-98921250D01*
X123984428Y-99833750D01*
X124001372Y-100005785D01*
X124051553Y-100171209D01*
X124133042Y-100323664D01*
X124242708Y-100457292D01*
X124336243Y-100534055D01*
X124331324Y-100584000D01*
X124342349Y-100695934D01*
X124339376Y-101266374D01*
X124242708Y-101345708D01*
X124133042Y-101479336D01*
X124051553Y-101631791D01*
X124001372Y-101797215D01*
X123984428Y-101969250D01*
X123984428Y-102881750D01*
X124001372Y-103053785D01*
X124051553Y-103219209D01*
X124133042Y-103371664D01*
X124242708Y-103505292D01*
X124376336Y-103614958D01*
X124528791Y-103696447D01*
X124694215Y-103746628D01*
X124866250Y-103763572D01*
X125353750Y-103763572D01*
X125525785Y-103746628D01*
X125691209Y-103696447D01*
X125843664Y-103614958D01*
X125977292Y-103505292D01*
X126047500Y-103419744D01*
X126117708Y-103505292D01*
X126251336Y-103614958D01*
X126403791Y-103696447D01*
X126472812Y-103717384D01*
X125727003Y-104463194D01*
X125697999Y-104486997D01*
X125681796Y-104506741D01*
X125574482Y-104474188D01*
X125450000Y-104461928D01*
X125435750Y-104465000D01*
X125277000Y-104623750D01*
X125277000Y-105623000D01*
X125297000Y-105623000D01*
X125297000Y-105877000D01*
X125277000Y-105877000D01*
X125277000Y-106836322D01*
X125269463Y-106845506D01*
X125210498Y-106955820D01*
X125174188Y-107075518D01*
X125161928Y-107200000D01*
X125161928Y-108500000D01*
X125174188Y-108624482D01*
X125210498Y-108744180D01*
X125269463Y-108854494D01*
X125348815Y-108951185D01*
X125445506Y-109030537D01*
X125555820Y-109089502D01*
X125675518Y-109125812D01*
X125800000Y-109138072D01*
X126400000Y-109138072D01*
X126492000Y-109129011D01*
X126492000Y-110580001D01*
X125662614Y-110580001D01*
X125685500Y-110464943D01*
X125685500Y-110261065D01*
X125645726Y-110061106D01*
X125567705Y-109872748D01*
X125454437Y-109703230D01*
X125310274Y-109559067D01*
X125140756Y-109445799D01*
X124952398Y-109367778D01*
X124752439Y-109328004D01*
X124548561Y-109328004D01*
X124348602Y-109367778D01*
X124307096Y-109384970D01*
X123673700Y-109109579D01*
X123727185Y-109065685D01*
X123806537Y-108968994D01*
X123865502Y-108858680D01*
X123901812Y-108738982D01*
X123914072Y-108614500D01*
X123914072Y-106414500D01*
X123912644Y-106400000D01*
X124211928Y-106400000D01*
X124224188Y-106524482D01*
X124260498Y-106644180D01*
X124319463Y-106754494D01*
X124398815Y-106851185D01*
X124495506Y-106930537D01*
X124605820Y-106989502D01*
X124725518Y-107025812D01*
X124850000Y-107038072D01*
X124864250Y-107035000D01*
X125023000Y-106876250D01*
X125023000Y-105877000D01*
X124373750Y-105877000D01*
X124215000Y-106035750D01*
X124211928Y-106400000D01*
X123912644Y-106400000D01*
X123901812Y-106290018D01*
X123865502Y-106170320D01*
X123806537Y-106060006D01*
X123727185Y-105963315D01*
X123630494Y-105883963D01*
X123520180Y-105824998D01*
X123400482Y-105788688D01*
X123276000Y-105776428D01*
X122076000Y-105776428D01*
X121951518Y-105788688D01*
X121831820Y-105824998D01*
X121721506Y-105883963D01*
X121624815Y-105963315D01*
X121545463Y-106060006D01*
X121536000Y-106077710D01*
X121526537Y-106060006D01*
X121447185Y-105963315D01*
X121350494Y-105883963D01*
X121240180Y-105824998D01*
X121120482Y-105788688D01*
X120996000Y-105776428D01*
X120681750Y-105779500D01*
X120523000Y-105938250D01*
X120523000Y-107387500D01*
X120543000Y-107387500D01*
X120543000Y-107641500D01*
X120523000Y-107641500D01*
X120523000Y-109090750D01*
X120681750Y-109249500D01*
X120996000Y-109252572D01*
X121120482Y-109240312D01*
X121240180Y-109204002D01*
X121350494Y-109145037D01*
X121447185Y-109065685D01*
X121526537Y-108968994D01*
X121536000Y-108951290D01*
X121545463Y-108968994D01*
X121624815Y-109065685D01*
X121662001Y-109096203D01*
X121662001Y-109105668D01*
X121658324Y-109143000D01*
X121662001Y-109180333D01*
X121672998Y-109291986D01*
X121676559Y-109303724D01*
X121716454Y-109435246D01*
X121787026Y-109567276D01*
X121851224Y-109645500D01*
X121882000Y-109683001D01*
X121910998Y-109706799D01*
X122443200Y-110239002D01*
X122466999Y-110268001D01*
X122495997Y-110291799D01*
X122582723Y-110362974D01*
X122670863Y-110410086D01*
X122714753Y-110433546D01*
X122858014Y-110477003D01*
X122969667Y-110488000D01*
X122969677Y-110488000D01*
X123007000Y-110491676D01*
X123034219Y-110488995D01*
X123243531Y-110580001D01*
X121787332Y-110580001D01*
X121749999Y-110576324D01*
X121712666Y-110580001D01*
X121601013Y-110590998D01*
X121457752Y-110634455D01*
X121325723Y-110705027D01*
X121209998Y-110800000D01*
X121186200Y-110828998D01*
X120093093Y-111922106D01*
X120074502Y-111860820D01*
X120015537Y-111750506D01*
X119936185Y-111653815D01*
X119839494Y-111574463D01*
X119729180Y-111515498D01*
X119609482Y-111479188D01*
X119485000Y-111466928D01*
X118787283Y-111466928D01*
X118913937Y-111340274D01*
X119027205Y-111170756D01*
X119105226Y-110982398D01*
X119145000Y-110782439D01*
X119145000Y-110578561D01*
X119105226Y-110378602D01*
X119027205Y-110190244D01*
X118999184Y-110148308D01*
X119000660Y-109959432D01*
X119001000Y-109955977D01*
X119001000Y-109915877D01*
X119001312Y-109875939D01*
X119001000Y-109872496D01*
X119001000Y-109182183D01*
X119070494Y-109145037D01*
X119167185Y-109065685D01*
X119246537Y-108968994D01*
X119256000Y-108951290D01*
X119265463Y-108968994D01*
X119344815Y-109065685D01*
X119441506Y-109145037D01*
X119551820Y-109204002D01*
X119671518Y-109240312D01*
X119796000Y-109252572D01*
X120110250Y-109249500D01*
X120269000Y-109090750D01*
X120269000Y-107641500D01*
X120249000Y-107641500D01*
X120249000Y-107387500D01*
X120269000Y-107387500D01*
X120269000Y-105938250D01*
X120110250Y-105779500D01*
X119796000Y-105776428D01*
X119671518Y-105788688D01*
X119551820Y-105824998D01*
X119441506Y-105883963D01*
X119344815Y-105963315D01*
X119265463Y-106060006D01*
X119256000Y-106077710D01*
X119246537Y-106060006D01*
X119167185Y-105963315D01*
X119070494Y-105883963D01*
X118960180Y-105824998D01*
X118840482Y-105788688D01*
X118716000Y-105776428D01*
X117516000Y-105776428D01*
X117391518Y-105788688D01*
X117271820Y-105824998D01*
X117161506Y-105883963D01*
X117064815Y-105963315D01*
X116985463Y-106060006D01*
X116960000Y-106107643D01*
X116960000Y-105100000D01*
X124211928Y-105100000D01*
X124215000Y-105464250D01*
X124373750Y-105623000D01*
X125023000Y-105623000D01*
X125023000Y-104623750D01*
X124864250Y-104465000D01*
X124850000Y-104461928D01*
X124725518Y-104474188D01*
X124605820Y-104510498D01*
X124495506Y-104569463D01*
X124398815Y-104648815D01*
X124319463Y-104745506D01*
X124260498Y-104855820D01*
X124224188Y-104975518D01*
X124211928Y-105100000D01*
X116960000Y-105100000D01*
X116960000Y-104758774D01*
X116965463Y-104768994D01*
X117044815Y-104865685D01*
X117141506Y-104945037D01*
X117251820Y-105004002D01*
X117371518Y-105040312D01*
X117496000Y-105052572D01*
X120110250Y-105049500D01*
X120269000Y-104890750D01*
X120269000Y-101341500D01*
X120523000Y-101341500D01*
X120523000Y-104890750D01*
X120681750Y-105049500D01*
X123296000Y-105052572D01*
X123420482Y-105040312D01*
X123540180Y-105004002D01*
X123650494Y-104945037D01*
X123747185Y-104865685D01*
X123826537Y-104768994D01*
X123885502Y-104658680D01*
X123921812Y-104538982D01*
X123934072Y-104414500D01*
X123931000Y-101500250D01*
X123772250Y-101341500D01*
X120523000Y-101341500D01*
X120269000Y-101341500D01*
X120249000Y-101341500D01*
X120249000Y-101087500D01*
X120269000Y-101087500D01*
X120269000Y-101067500D01*
X120523000Y-101067500D01*
X120523000Y-101087500D01*
X123772250Y-101087500D01*
X123931000Y-100928750D01*
X123934072Y-98014500D01*
X123926932Y-97942000D01*
X126492000Y-97942000D01*
X126492000Y-98079795D01*
G37*
X126492000Y-98079795D02*
X126403791Y-98106553D01*
X126251336Y-98188042D01*
X126117708Y-98297708D01*
X126047500Y-98383256D01*
X125977292Y-98297708D01*
X125843664Y-98188042D01*
X125691209Y-98106553D01*
X125525785Y-98056372D01*
X125402840Y-98044263D01*
X125265387Y-98001784D01*
X125116479Y-97986333D01*
X124967420Y-98000231D01*
X124823934Y-98042941D01*
X124822409Y-98043746D01*
X124694215Y-98056372D01*
X124528791Y-98106553D01*
X124376336Y-98188042D01*
X124242708Y-98297708D01*
X124133042Y-98431336D01*
X124051553Y-98583791D01*
X124001372Y-98749215D01*
X123984428Y-98921250D01*
X123984428Y-99833750D01*
X124001372Y-100005785D01*
X124051553Y-100171209D01*
X124133042Y-100323664D01*
X124242708Y-100457292D01*
X124336243Y-100534055D01*
X124331324Y-100584000D01*
X124342349Y-100695934D01*
X124339376Y-101266374D01*
X124242708Y-101345708D01*
X124133042Y-101479336D01*
X124051553Y-101631791D01*
X124001372Y-101797215D01*
X123984428Y-101969250D01*
X123984428Y-102881750D01*
X124001372Y-103053785D01*
X124051553Y-103219209D01*
X124133042Y-103371664D01*
X124242708Y-103505292D01*
X124376336Y-103614958D01*
X124528791Y-103696447D01*
X124694215Y-103746628D01*
X124866250Y-103763572D01*
X125353750Y-103763572D01*
X125525785Y-103746628D01*
X125691209Y-103696447D01*
X125843664Y-103614958D01*
X125977292Y-103505292D01*
X126047500Y-103419744D01*
X126117708Y-103505292D01*
X126251336Y-103614958D01*
X126403791Y-103696447D01*
X126472812Y-103717384D01*
X125727003Y-104463194D01*
X125697999Y-104486997D01*
X125681796Y-104506741D01*
X125574482Y-104474188D01*
X125450000Y-104461928D01*
X125435750Y-104465000D01*
X125277000Y-104623750D01*
X125277000Y-105623000D01*
X125297000Y-105623000D01*
X125297000Y-105877000D01*
X125277000Y-105877000D01*
X125277000Y-106836322D01*
X125269463Y-106845506D01*
X125210498Y-106955820D01*
X125174188Y-107075518D01*
X125161928Y-107200000D01*
X125161928Y-108500000D01*
X125174188Y-108624482D01*
X125210498Y-108744180D01*
X125269463Y-108854494D01*
X125348815Y-108951185D01*
X125445506Y-109030537D01*
X125555820Y-109089502D01*
X125675518Y-109125812D01*
X125800000Y-109138072D01*
X126400000Y-109138072D01*
X126492000Y-109129011D01*
X126492000Y-110580001D01*
X125662614Y-110580001D01*
X125685500Y-110464943D01*
X125685500Y-110261065D01*
X125645726Y-110061106D01*
X125567705Y-109872748D01*
X125454437Y-109703230D01*
X125310274Y-109559067D01*
X125140756Y-109445799D01*
X124952398Y-109367778D01*
X124752439Y-109328004D01*
X124548561Y-109328004D01*
X124348602Y-109367778D01*
X124307096Y-109384970D01*
X123673700Y-109109579D01*
X123727185Y-109065685D01*
X123806537Y-108968994D01*
X123865502Y-108858680D01*
X123901812Y-108738982D01*
X123914072Y-108614500D01*
X123914072Y-106414500D01*
X123912644Y-106400000D01*
X124211928Y-106400000D01*
X124224188Y-106524482D01*
X124260498Y-106644180D01*
X124319463Y-106754494D01*
X124398815Y-106851185D01*
X124495506Y-106930537D01*
X124605820Y-106989502D01*
X124725518Y-107025812D01*
X124850000Y-107038072D01*
X124864250Y-107035000D01*
X125023000Y-106876250D01*
X125023000Y-105877000D01*
X124373750Y-105877000D01*
X124215000Y-106035750D01*
X124211928Y-106400000D01*
X123912644Y-106400000D01*
X123901812Y-106290018D01*
X123865502Y-106170320D01*
X123806537Y-106060006D01*
X123727185Y-105963315D01*
X123630494Y-105883963D01*
X123520180Y-105824998D01*
X123400482Y-105788688D01*
X123276000Y-105776428D01*
X122076000Y-105776428D01*
X121951518Y-105788688D01*
X121831820Y-105824998D01*
X121721506Y-105883963D01*
X121624815Y-105963315D01*
X121545463Y-106060006D01*
X121536000Y-106077710D01*
X121526537Y-106060006D01*
X121447185Y-105963315D01*
X121350494Y-105883963D01*
X121240180Y-105824998D01*
X121120482Y-105788688D01*
X120996000Y-105776428D01*
X120681750Y-105779500D01*
X120523000Y-105938250D01*
X120523000Y-107387500D01*
X120543000Y-107387500D01*
X120543000Y-107641500D01*
X120523000Y-107641500D01*
X120523000Y-109090750D01*
X120681750Y-109249500D01*
X120996000Y-109252572D01*
X121120482Y-109240312D01*
X121240180Y-109204002D01*
X121350494Y-109145037D01*
X121447185Y-109065685D01*
X121526537Y-108968994D01*
X121536000Y-108951290D01*
X121545463Y-108968994D01*
X121624815Y-109065685D01*
X121662001Y-109096203D01*
X121662001Y-109105668D01*
X121658324Y-109143000D01*
X121662001Y-109180333D01*
X121672998Y-109291986D01*
X121676559Y-109303724D01*
X121716454Y-109435246D01*
X121787026Y-109567276D01*
X121851224Y-109645500D01*
X121882000Y-109683001D01*
X121910998Y-109706799D01*
X122443200Y-110239002D01*
X122466999Y-110268001D01*
X122495997Y-110291799D01*
X122582723Y-110362974D01*
X122670863Y-110410086D01*
X122714753Y-110433546D01*
X122858014Y-110477003D01*
X122969667Y-110488000D01*
X122969677Y-110488000D01*
X123007000Y-110491676D01*
X123034219Y-110488995D01*
X123243531Y-110580001D01*
X121787332Y-110580001D01*
X121749999Y-110576324D01*
X121712666Y-110580001D01*
X121601013Y-110590998D01*
X121457752Y-110634455D01*
X121325723Y-110705027D01*
X121209998Y-110800000D01*
X121186200Y-110828998D01*
X120093093Y-111922106D01*
X120074502Y-111860820D01*
X120015537Y-111750506D01*
X119936185Y-111653815D01*
X119839494Y-111574463D01*
X119729180Y-111515498D01*
X119609482Y-111479188D01*
X119485000Y-111466928D01*
X118787283Y-111466928D01*
X118913937Y-111340274D01*
X119027205Y-111170756D01*
X119105226Y-110982398D01*
X119145000Y-110782439D01*
X119145000Y-110578561D01*
X119105226Y-110378602D01*
X119027205Y-110190244D01*
X118999184Y-110148308D01*
X119000660Y-109959432D01*
X119001000Y-109955977D01*
X119001000Y-109915877D01*
X119001312Y-109875939D01*
X119001000Y-109872496D01*
X119001000Y-109182183D01*
X119070494Y-109145037D01*
X119167185Y-109065685D01*
X119246537Y-108968994D01*
X119256000Y-108951290D01*
X119265463Y-108968994D01*
X119344815Y-109065685D01*
X119441506Y-109145037D01*
X119551820Y-109204002D01*
X119671518Y-109240312D01*
X119796000Y-109252572D01*
X120110250Y-109249500D01*
X120269000Y-109090750D01*
X120269000Y-107641500D01*
X120249000Y-107641500D01*
X120249000Y-107387500D01*
X120269000Y-107387500D01*
X120269000Y-105938250D01*
X120110250Y-105779500D01*
X119796000Y-105776428D01*
X119671518Y-105788688D01*
X119551820Y-105824998D01*
X119441506Y-105883963D01*
X119344815Y-105963315D01*
X119265463Y-106060006D01*
X119256000Y-106077710D01*
X119246537Y-106060006D01*
X119167185Y-105963315D01*
X119070494Y-105883963D01*
X118960180Y-105824998D01*
X118840482Y-105788688D01*
X118716000Y-105776428D01*
X117516000Y-105776428D01*
X117391518Y-105788688D01*
X117271820Y-105824998D01*
X117161506Y-105883963D01*
X117064815Y-105963315D01*
X116985463Y-106060006D01*
X116960000Y-106107643D01*
X116960000Y-105100000D01*
X124211928Y-105100000D01*
X124215000Y-105464250D01*
X124373750Y-105623000D01*
X125023000Y-105623000D01*
X125023000Y-104623750D01*
X124864250Y-104465000D01*
X124850000Y-104461928D01*
X124725518Y-104474188D01*
X124605820Y-104510498D01*
X124495506Y-104569463D01*
X124398815Y-104648815D01*
X124319463Y-104745506D01*
X124260498Y-104855820D01*
X124224188Y-104975518D01*
X124211928Y-105100000D01*
X116960000Y-105100000D01*
X116960000Y-104758774D01*
X116965463Y-104768994D01*
X117044815Y-104865685D01*
X117141506Y-104945037D01*
X117251820Y-105004002D01*
X117371518Y-105040312D01*
X117496000Y-105052572D01*
X120110250Y-105049500D01*
X120269000Y-104890750D01*
X120269000Y-101341500D01*
X120523000Y-101341500D01*
X120523000Y-104890750D01*
X120681750Y-105049500D01*
X123296000Y-105052572D01*
X123420482Y-105040312D01*
X123540180Y-105004002D01*
X123650494Y-104945037D01*
X123747185Y-104865685D01*
X123826537Y-104768994D01*
X123885502Y-104658680D01*
X123921812Y-104538982D01*
X123934072Y-104414500D01*
X123931000Y-101500250D01*
X123772250Y-101341500D01*
X120523000Y-101341500D01*
X120269000Y-101341500D01*
X120249000Y-101341500D01*
X120249000Y-101087500D01*
X120269000Y-101087500D01*
X120269000Y-101067500D01*
X120523000Y-101067500D01*
X120523000Y-101087500D01*
X123772250Y-101087500D01*
X123931000Y-100928750D01*
X123934072Y-98014500D01*
X123926932Y-97942000D01*
X126492000Y-97942000D01*
X126492000Y-98079795D01*
G36*
X137770000Y-100118318D02*
G01*
X137593158Y-100045068D01*
X137306260Y-99988000D01*
X137013740Y-99988000D01*
X136726842Y-100045068D01*
X136456589Y-100157010D01*
X136213368Y-100319525D01*
X136006525Y-100526368D01*
X135844010Y-100769589D01*
X135732068Y-101039842D01*
X135675000Y-101326740D01*
X135675000Y-101619260D01*
X135732068Y-101906158D01*
X135844010Y-102176411D01*
X136006525Y-102419632D01*
X136213368Y-102626475D01*
X136387760Y-102743000D01*
X136213368Y-102859525D01*
X136006525Y-103066368D01*
X135844010Y-103309589D01*
X135732068Y-103579842D01*
X135675000Y-103866740D01*
X135675000Y-104159260D01*
X135732068Y-104446158D01*
X135844010Y-104716411D01*
X136006525Y-104959632D01*
X136213368Y-105166475D01*
X136387760Y-105283000D01*
X136213368Y-105399525D01*
X136006525Y-105606368D01*
X135866594Y-105815790D01*
X135330806Y-105280002D01*
X135307003Y-105250999D01*
X135191278Y-105156026D01*
X135095288Y-105104718D01*
X135104482Y-105103812D01*
X135224180Y-105067502D01*
X135334494Y-105008537D01*
X135431185Y-104929185D01*
X135510537Y-104832494D01*
X135569502Y-104722180D01*
X135605812Y-104602482D01*
X135618072Y-104478000D01*
X135615000Y-101563750D01*
X135456250Y-101405000D01*
X132207000Y-101405000D01*
X132207000Y-104954250D01*
X132365750Y-105113000D01*
X133355042Y-105114163D01*
X133276722Y-105156026D01*
X133276720Y-105156027D01*
X133276721Y-105156027D01*
X133189994Y-105227201D01*
X133189990Y-105227205D01*
X133160997Y-105250999D01*
X133137203Y-105279992D01*
X132585002Y-105832195D01*
X132574320Y-105840961D01*
X132365750Y-105843000D01*
X132207000Y-106001750D01*
X132207000Y-107451000D01*
X132227000Y-107451000D01*
X132227000Y-107705000D01*
X132207000Y-107705000D01*
X132207000Y-109154250D01*
X132365750Y-109313000D01*
X132646946Y-109315749D01*
X132837498Y-109506301D01*
X132798725Y-109527026D01*
X132683000Y-109621999D01*
X132588027Y-109737724D01*
X132517455Y-109869753D01*
X132473998Y-110013014D01*
X132463001Y-110124667D01*
X132463001Y-110721928D01*
X131773000Y-110721928D01*
X131648518Y-110734188D01*
X131528820Y-110770498D01*
X131418506Y-110829463D01*
X131321815Y-110908815D01*
X131242463Y-111005506D01*
X131210518Y-111065270D01*
X131098724Y-111125026D01*
X130982999Y-111219999D01*
X130959201Y-111248997D01*
X130194198Y-112014000D01*
X128709802Y-112014000D01*
X128781003Y-111942799D01*
X128810001Y-111919001D01*
X128842007Y-111880002D01*
X128904974Y-111803277D01*
X128975546Y-111671247D01*
X128987376Y-111632247D01*
X129019003Y-111527986D01*
X129030000Y-111416333D01*
X129030000Y-111416324D01*
X129033676Y-111379001D01*
X129030000Y-111341678D01*
X129030000Y-109535828D01*
X129060590Y-109593059D01*
X129143468Y-109694046D01*
X129143471Y-109694049D01*
X129171184Y-109727817D01*
X129204951Y-109755529D01*
X129549465Y-110100044D01*
X129560774Y-110156898D01*
X129638795Y-110345256D01*
X129752063Y-110514774D01*
X129896226Y-110658937D01*
X130065744Y-110772205D01*
X130254102Y-110850226D01*
X130454061Y-110890000D01*
X130657939Y-110890000D01*
X130857898Y-110850226D01*
X131046256Y-110772205D01*
X131215774Y-110658937D01*
X131359937Y-110514774D01*
X131473205Y-110345256D01*
X131551226Y-110156898D01*
X131591000Y-109956939D01*
X131591000Y-109753061D01*
X131551226Y-109553102D01*
X131473205Y-109364744D01*
X131437914Y-109311927D01*
X131480000Y-109316072D01*
X131794250Y-109313000D01*
X131953000Y-109154250D01*
X131953000Y-107705000D01*
X131933000Y-107705000D01*
X131933000Y-107451000D01*
X131953000Y-107451000D01*
X131953000Y-106001750D01*
X131794250Y-105843000D01*
X131480000Y-105839928D01*
X131355518Y-105852188D01*
X131235820Y-105888498D01*
X131125506Y-105947463D01*
X131028815Y-106026815D01*
X130949463Y-106123506D01*
X130940000Y-106141210D01*
X130930537Y-106123506D01*
X130851185Y-106026815D01*
X130754494Y-105947463D01*
X130644180Y-105888498D01*
X130524482Y-105852188D01*
X130400000Y-105839928D01*
X129200000Y-105839928D01*
X129075518Y-105852188D01*
X128955820Y-105888498D01*
X128845506Y-105947463D01*
X128748815Y-106026815D01*
X128669463Y-106123506D01*
X128610498Y-106233820D01*
X128574188Y-106353518D01*
X128561928Y-106478000D01*
X128561928Y-106664250D01*
X128503776Y-106616526D01*
X128371747Y-106545954D01*
X128228486Y-106502497D01*
X128116833Y-106491500D01*
X128116822Y-106491500D01*
X128079500Y-106487824D01*
X128042178Y-106491500D01*
X127979060Y-106491500D01*
X127988072Y-106400000D01*
X127985000Y-106035750D01*
X127826250Y-105877000D01*
X127317500Y-105877000D01*
X127317500Y-105623000D01*
X127826250Y-105623000D01*
X127985000Y-105464250D01*
X127988072Y-105100000D01*
X127975812Y-104975518D01*
X127939502Y-104855820D01*
X127880537Y-104745506D01*
X127801185Y-104648815D01*
X127740658Y-104599142D01*
X128080501Y-104259299D01*
X128109499Y-104235501D01*
X128204472Y-104119776D01*
X128275044Y-103987747D01*
X128318501Y-103844486D01*
X128329498Y-103732833D01*
X128333175Y-103695500D01*
X128329498Y-103658167D01*
X128329498Y-102968820D01*
X128333174Y-102931497D01*
X128329498Y-102894174D01*
X128329498Y-102894165D01*
X128318501Y-102782512D01*
X128275044Y-102639251D01*
X128204472Y-102507222D01*
X128110572Y-102392804D01*
X128110572Y-101969250D01*
X128094838Y-101809500D01*
X128181439Y-101809500D01*
X128381398Y-101769726D01*
X128544854Y-101702020D01*
X128541928Y-104478000D01*
X128554188Y-104602482D01*
X128590498Y-104722180D01*
X128649463Y-104832494D01*
X128728815Y-104929185D01*
X128825506Y-105008537D01*
X128935820Y-105067502D01*
X129055518Y-105103812D01*
X129180000Y-105116072D01*
X131794250Y-105113000D01*
X131953000Y-104954250D01*
X131953000Y-101405000D01*
X131933000Y-101405000D01*
X131933000Y-101151000D01*
X131953000Y-101151000D01*
X131953000Y-101131000D01*
X132207000Y-101131000D01*
X132207000Y-101151000D01*
X135456250Y-101151000D01*
X135615000Y-100992250D01*
X135618072Y-98078000D01*
X135605812Y-97953518D01*
X135602318Y-97942000D01*
X137770000Y-97942000D01*
X137770000Y-100118318D01*
G37*
X137770000Y-100118318D02*
X137593158Y-100045068D01*
X137306260Y-99988000D01*
X137013740Y-99988000D01*
X136726842Y-100045068D01*
X136456589Y-100157010D01*
X136213368Y-100319525D01*
X136006525Y-100526368D01*
X135844010Y-100769589D01*
X135732068Y-101039842D01*
X135675000Y-101326740D01*
X135675000Y-101619260D01*
X135732068Y-101906158D01*
X135844010Y-102176411D01*
X136006525Y-102419632D01*
X136213368Y-102626475D01*
X136387760Y-102743000D01*
X136213368Y-102859525D01*
X136006525Y-103066368D01*
X135844010Y-103309589D01*
X135732068Y-103579842D01*
X135675000Y-103866740D01*
X135675000Y-104159260D01*
X135732068Y-104446158D01*
X135844010Y-104716411D01*
X136006525Y-104959632D01*
X136213368Y-105166475D01*
X136387760Y-105283000D01*
X136213368Y-105399525D01*
X136006525Y-105606368D01*
X135866594Y-105815790D01*
X135330806Y-105280002D01*
X135307003Y-105250999D01*
X135191278Y-105156026D01*
X135095288Y-105104718D01*
X135104482Y-105103812D01*
X135224180Y-105067502D01*
X135334494Y-105008537D01*
X135431185Y-104929185D01*
X135510537Y-104832494D01*
X135569502Y-104722180D01*
X135605812Y-104602482D01*
X135618072Y-104478000D01*
X135615000Y-101563750D01*
X135456250Y-101405000D01*
X132207000Y-101405000D01*
X132207000Y-104954250D01*
X132365750Y-105113000D01*
X133355042Y-105114163D01*
X133276722Y-105156026D01*
X133276720Y-105156027D01*
X133276721Y-105156027D01*
X133189994Y-105227201D01*
X133189990Y-105227205D01*
X133160997Y-105250999D01*
X133137203Y-105279992D01*
X132585002Y-105832195D01*
X132574320Y-105840961D01*
X132365750Y-105843000D01*
X132207000Y-106001750D01*
X132207000Y-107451000D01*
X132227000Y-107451000D01*
X132227000Y-107705000D01*
X132207000Y-107705000D01*
X132207000Y-109154250D01*
X132365750Y-109313000D01*
X132646946Y-109315749D01*
X132837498Y-109506301D01*
X132798725Y-109527026D01*
X132683000Y-109621999D01*
X132588027Y-109737724D01*
X132517455Y-109869753D01*
X132473998Y-110013014D01*
X132463001Y-110124667D01*
X132463001Y-110721928D01*
X131773000Y-110721928D01*
X131648518Y-110734188D01*
X131528820Y-110770498D01*
X131418506Y-110829463D01*
X131321815Y-110908815D01*
X131242463Y-111005506D01*
X131210518Y-111065270D01*
X131098724Y-111125026D01*
X130982999Y-111219999D01*
X130959201Y-111248997D01*
X130194198Y-112014000D01*
X128709802Y-112014000D01*
X128781003Y-111942799D01*
X128810001Y-111919001D01*
X128842007Y-111880002D01*
X128904974Y-111803277D01*
X128975546Y-111671247D01*
X128987376Y-111632247D01*
X129019003Y-111527986D01*
X129030000Y-111416333D01*
X129030000Y-111416324D01*
X129033676Y-111379001D01*
X129030000Y-111341678D01*
X129030000Y-109535828D01*
X129060590Y-109593059D01*
X129143468Y-109694046D01*
X129143471Y-109694049D01*
X129171184Y-109727817D01*
X129204951Y-109755529D01*
X129549465Y-110100044D01*
X129560774Y-110156898D01*
X129638795Y-110345256D01*
X129752063Y-110514774D01*
X129896226Y-110658937D01*
X130065744Y-110772205D01*
X130254102Y-110850226D01*
X130454061Y-110890000D01*
X130657939Y-110890000D01*
X130857898Y-110850226D01*
X131046256Y-110772205D01*
X131215774Y-110658937D01*
X131359937Y-110514774D01*
X131473205Y-110345256D01*
X131551226Y-110156898D01*
X131591000Y-109956939D01*
X131591000Y-109753061D01*
X131551226Y-109553102D01*
X131473205Y-109364744D01*
X131437914Y-109311927D01*
X131480000Y-109316072D01*
X131794250Y-109313000D01*
X131953000Y-109154250D01*
X131953000Y-107705000D01*
X131933000Y-107705000D01*
X131933000Y-107451000D01*
X131953000Y-107451000D01*
X131953000Y-106001750D01*
X131794250Y-105843000D01*
X131480000Y-105839928D01*
X131355518Y-105852188D01*
X131235820Y-105888498D01*
X131125506Y-105947463D01*
X131028815Y-106026815D01*
X130949463Y-106123506D01*
X130940000Y-106141210D01*
X130930537Y-106123506D01*
X130851185Y-106026815D01*
X130754494Y-105947463D01*
X130644180Y-105888498D01*
X130524482Y-105852188D01*
X130400000Y-105839928D01*
X129200000Y-105839928D01*
X129075518Y-105852188D01*
X128955820Y-105888498D01*
X128845506Y-105947463D01*
X128748815Y-106026815D01*
X128669463Y-106123506D01*
X128610498Y-106233820D01*
X128574188Y-106353518D01*
X128561928Y-106478000D01*
X128561928Y-106664250D01*
X128503776Y-106616526D01*
X128371747Y-106545954D01*
X128228486Y-106502497D01*
X128116833Y-106491500D01*
X128116822Y-106491500D01*
X128079500Y-106487824D01*
X128042178Y-106491500D01*
X127979060Y-106491500D01*
X127988072Y-106400000D01*
X127985000Y-106035750D01*
X127826250Y-105877000D01*
X127317500Y-105877000D01*
X127317500Y-105623000D01*
X127826250Y-105623000D01*
X127985000Y-105464250D01*
X127988072Y-105100000D01*
X127975812Y-104975518D01*
X127939502Y-104855820D01*
X127880537Y-104745506D01*
X127801185Y-104648815D01*
X127740658Y-104599142D01*
X128080501Y-104259299D01*
X128109499Y-104235501D01*
X128204472Y-104119776D01*
X128275044Y-103987747D01*
X128318501Y-103844486D01*
X128329498Y-103732833D01*
X128333175Y-103695500D01*
X128329498Y-103658167D01*
X128329498Y-102968820D01*
X128333174Y-102931497D01*
X128329498Y-102894174D01*
X128329498Y-102894165D01*
X128318501Y-102782512D01*
X128275044Y-102639251D01*
X128204472Y-102507222D01*
X128110572Y-102392804D01*
X128110572Y-101969250D01*
X128094838Y-101809500D01*
X128181439Y-101809500D01*
X128381398Y-101769726D01*
X128544854Y-101702020D01*
X128541928Y-104478000D01*
X128554188Y-104602482D01*
X128590498Y-104722180D01*
X128649463Y-104832494D01*
X128728815Y-104929185D01*
X128825506Y-105008537D01*
X128935820Y-105067502D01*
X129055518Y-105103812D01*
X129180000Y-105116072D01*
X131794250Y-105113000D01*
X131953000Y-104954250D01*
X131953000Y-101405000D01*
X131933000Y-101405000D01*
X131933000Y-101151000D01*
X131953000Y-101151000D01*
X131953000Y-101131000D01*
X132207000Y-101131000D01*
X132207000Y-101151000D01*
X135456250Y-101151000D01*
X135615000Y-100992250D01*
X135618072Y-98078000D01*
X135605812Y-97953518D01*
X135602318Y-97942000D01*
X137770000Y-97942000D01*
X137770000Y-100118318D01*
M02*
