G04 #@! TF.GenerationSoftware,KiCad,Pcbnew,5.1.5+dfsg1-2build2*
G04 #@! TF.CreationDate,2021-04-05T13:49:58+02:00*
G04 #@! TF.ProjectId,transistor_board,7472616e-7369-4737-946f-725f626f6172,rev?*
G04 #@! TF.SameCoordinates,Original*
G04 #@! TF.FileFunction,Legend,Top*
G04 #@! TF.FilePolarity,Positive*
%FSLAX46Y46*%
G04 Gerber Fmt 4.6, Leading zero omitted, Abs format (unit mm)*
G04 Created by KiCad (PCBNEW 5.1.5+dfsg1-2build2) date 2021-04-05 13:49:58*
%MOMM*%
%LPD*%
G04 APERTURE LIST*
%ADD10C,0.100000*%
%ADD11C,0.120000*%
%ADD12C,0.150000*%
%ADD13C,0.070000*%
G04 APERTURE END LIST*
D10*
X133816428Y-131538285D02*
X133816428Y-132288285D01*
X133816428Y-131574000D02*
X133887857Y-131538285D01*
X134030714Y-131538285D01*
X134102142Y-131574000D01*
X134137857Y-131609714D01*
X134173571Y-131681142D01*
X134173571Y-131895428D01*
X134137857Y-131966857D01*
X134102142Y-132002571D01*
X134030714Y-132038285D01*
X133887857Y-132038285D01*
X133816428Y-132002571D01*
X134602142Y-132038285D02*
X134530714Y-132002571D01*
X134495000Y-131966857D01*
X134459285Y-131895428D01*
X134459285Y-131681142D01*
X134495000Y-131609714D01*
X134530714Y-131574000D01*
X134602142Y-131538285D01*
X134709285Y-131538285D01*
X134780714Y-131574000D01*
X134816428Y-131609714D01*
X134852142Y-131681142D01*
X134852142Y-131895428D01*
X134816428Y-131966857D01*
X134780714Y-132002571D01*
X134709285Y-132038285D01*
X134602142Y-132038285D01*
X135137857Y-132002571D02*
X135209285Y-132038285D01*
X135352142Y-132038285D01*
X135423571Y-132002571D01*
X135459285Y-131931142D01*
X135459285Y-131895428D01*
X135423571Y-131824000D01*
X135352142Y-131788285D01*
X135245000Y-131788285D01*
X135173571Y-131752571D01*
X135137857Y-131681142D01*
X135137857Y-131645428D01*
X135173571Y-131574000D01*
X135245000Y-131538285D01*
X135352142Y-131538285D01*
X135423571Y-131574000D01*
X136338571Y-131538285D02*
X136338571Y-132038285D01*
X136338571Y-131609714D02*
X136374285Y-131574000D01*
X136445714Y-131538285D01*
X136552857Y-131538285D01*
X136624285Y-131574000D01*
X136660000Y-131645428D01*
X136660000Y-132038285D01*
X137302857Y-132002571D02*
X137231428Y-132038285D01*
X137088571Y-132038285D01*
X137017142Y-132002571D01*
X136981428Y-131931142D01*
X136981428Y-131645428D01*
X137017142Y-131574000D01*
X137088571Y-131538285D01*
X137231428Y-131538285D01*
X137302857Y-131574000D01*
X137338571Y-131645428D01*
X137338571Y-131716857D01*
X136981428Y-131788285D01*
X137981428Y-131538285D02*
X137981428Y-132145428D01*
X137945714Y-132216857D01*
X137910000Y-132252571D01*
X137838571Y-132288285D01*
X137731428Y-132288285D01*
X137660000Y-132252571D01*
X137981428Y-132002571D02*
X137910000Y-132038285D01*
X137767142Y-132038285D01*
X137695714Y-132002571D01*
X137660000Y-131966857D01*
X137624285Y-131895428D01*
X137624285Y-131681142D01*
X137660000Y-131609714D01*
X137695714Y-131574000D01*
X137767142Y-131538285D01*
X137910000Y-131538285D01*
X137981428Y-131574000D01*
X113746428Y-131951000D02*
X114103571Y-131951000D01*
X113675000Y-132165285D02*
X113925000Y-131415285D01*
X114175000Y-132165285D01*
X114853571Y-132093857D02*
X114817857Y-132129571D01*
X114710714Y-132165285D01*
X114639285Y-132165285D01*
X114532142Y-132129571D01*
X114460714Y-132058142D01*
X114425000Y-131986714D01*
X114389285Y-131843857D01*
X114389285Y-131736714D01*
X114425000Y-131593857D01*
X114460714Y-131522428D01*
X114532142Y-131451000D01*
X114639285Y-131415285D01*
X114710714Y-131415285D01*
X114817857Y-131451000D01*
X114853571Y-131486714D01*
X116413428Y-131951000D02*
X116770571Y-131951000D01*
X116342000Y-132165285D02*
X116592000Y-131415285D01*
X116842000Y-132165285D01*
X117520571Y-132093857D02*
X117484857Y-132129571D01*
X117377714Y-132165285D01*
X117306285Y-132165285D01*
X117199142Y-132129571D01*
X117127714Y-132058142D01*
X117092000Y-131986714D01*
X117056285Y-131843857D01*
X117056285Y-131736714D01*
X117092000Y-131593857D01*
X117127714Y-131522428D01*
X117199142Y-131451000D01*
X117306285Y-131415285D01*
X117377714Y-131415285D01*
X117484857Y-131451000D01*
X117520571Y-131486714D01*
X119237142Y-132165285D02*
X118880000Y-132165285D01*
X118880000Y-131415285D01*
X119915714Y-132165285D02*
X119665714Y-131808142D01*
X119487142Y-132165285D02*
X119487142Y-131415285D01*
X119772857Y-131415285D01*
X119844285Y-131451000D01*
X119880000Y-131486714D01*
X119915714Y-131558142D01*
X119915714Y-131665285D01*
X119880000Y-131736714D01*
X119844285Y-131772428D01*
X119772857Y-131808142D01*
X119487142Y-131808142D01*
X121830714Y-132165285D02*
X121473571Y-132165285D01*
X121473571Y-131415285D01*
X122330714Y-131772428D02*
X122080714Y-131772428D01*
X122080714Y-132165285D02*
X122080714Y-131415285D01*
X122437857Y-131415285D01*
X123545285Y-132234071D02*
X123473857Y-132269785D01*
X123331000Y-132269785D01*
X123259571Y-132234071D01*
X123223857Y-132198357D01*
X123188142Y-132126928D01*
X123188142Y-131912642D01*
X123223857Y-131841214D01*
X123259571Y-131805500D01*
X123331000Y-131769785D01*
X123473857Y-131769785D01*
X123545285Y-131805500D01*
X123973857Y-132269785D02*
X123902428Y-132234071D01*
X123866714Y-132198357D01*
X123831000Y-132126928D01*
X123831000Y-131912642D01*
X123866714Y-131841214D01*
X123902428Y-131805500D01*
X123973857Y-131769785D01*
X124081000Y-131769785D01*
X124152428Y-131805500D01*
X124188142Y-131841214D01*
X124223857Y-131912642D01*
X124223857Y-132126928D01*
X124188142Y-132198357D01*
X124152428Y-132234071D01*
X124081000Y-132269785D01*
X123973857Y-132269785D01*
X124545285Y-132269785D02*
X124545285Y-131769785D01*
X124545285Y-131841214D02*
X124581000Y-131805500D01*
X124652428Y-131769785D01*
X124759571Y-131769785D01*
X124831000Y-131805500D01*
X124866714Y-131876928D01*
X124866714Y-132269785D01*
X124866714Y-131876928D02*
X124902428Y-131805500D01*
X124973857Y-131769785D01*
X125081000Y-131769785D01*
X125152428Y-131805500D01*
X125188142Y-131876928D01*
X125188142Y-132269785D01*
X126466285Y-132165285D02*
X126466285Y-131665285D01*
X126466285Y-131808142D02*
X126502000Y-131736714D01*
X126537714Y-131701000D01*
X126609142Y-131665285D01*
X126680571Y-131665285D01*
X127216285Y-132129571D02*
X127144857Y-132165285D01*
X127002000Y-132165285D01*
X126930571Y-132129571D01*
X126894857Y-132058142D01*
X126894857Y-131772428D01*
X126930571Y-131701000D01*
X127002000Y-131665285D01*
X127144857Y-131665285D01*
X127216285Y-131701000D01*
X127252000Y-131772428D01*
X127252000Y-131843857D01*
X126894857Y-131915285D01*
X127502000Y-131665285D02*
X127680571Y-132165285D01*
X127859142Y-131665285D01*
X128665000Y-131665285D02*
X128950714Y-131665285D01*
X128772142Y-132165285D02*
X128772142Y-131522428D01*
X128807857Y-131451000D01*
X128879285Y-131415285D01*
X128950714Y-131415285D01*
X129129285Y-131665285D02*
X129272142Y-132165285D01*
X129415000Y-131808142D01*
X129557857Y-132165285D01*
X129700714Y-131665285D01*
X130307857Y-132165285D02*
X130307857Y-131415285D01*
X130307857Y-132129571D02*
X130236428Y-132165285D01*
X130093571Y-132165285D01*
X130022142Y-132129571D01*
X129986428Y-132093857D01*
X129950714Y-132022428D01*
X129950714Y-131808142D01*
X129986428Y-131736714D01*
X130022142Y-131701000D01*
X130093571Y-131665285D01*
X130236428Y-131665285D01*
X130307857Y-131701000D01*
X131409285Y-132083571D02*
X131337857Y-132119285D01*
X131195000Y-132119285D01*
X131123571Y-132083571D01*
X131087857Y-132047857D01*
X131052142Y-131976428D01*
X131052142Y-131762142D01*
X131087857Y-131690714D01*
X131123571Y-131655000D01*
X131195000Y-131619285D01*
X131337857Y-131619285D01*
X131409285Y-131655000D01*
X131837857Y-132119285D02*
X131766428Y-132083571D01*
X131730714Y-132047857D01*
X131695000Y-131976428D01*
X131695000Y-131762142D01*
X131730714Y-131690714D01*
X131766428Y-131655000D01*
X131837857Y-131619285D01*
X131945000Y-131619285D01*
X132016428Y-131655000D01*
X132052142Y-131690714D01*
X132087857Y-131762142D01*
X132087857Y-131976428D01*
X132052142Y-132047857D01*
X132016428Y-132083571D01*
X131945000Y-132119285D01*
X131837857Y-132119285D01*
X132409285Y-132119285D02*
X132409285Y-131619285D01*
X132409285Y-131690714D02*
X132445000Y-131655000D01*
X132516428Y-131619285D01*
X132623571Y-131619285D01*
X132695000Y-131655000D01*
X132730714Y-131726428D01*
X132730714Y-132119285D01*
X132730714Y-131726428D02*
X132766428Y-131655000D01*
X132837857Y-131619285D01*
X132945000Y-131619285D01*
X133016428Y-131655000D01*
X133052142Y-131726428D01*
X133052142Y-132119285D01*
D11*
X113220000Y-126150000D02*
X113064000Y-126150000D01*
X115536000Y-126150000D02*
X115380000Y-126150000D01*
X113220163Y-128751130D02*
G75*
G02X113220000Y-126669039I1079837J1041130D01*
G01*
X115379837Y-128751130D02*
G75*
G03X115380000Y-126669039I-1079837J1041130D01*
G01*
X113221392Y-129382335D02*
G75*
G02X113064484Y-126150000I1078608J1672335D01*
G01*
X115378608Y-129382335D02*
G75*
G03X115535516Y-126150000I-1078608J1672335D01*
G01*
X112522000Y-123825000D02*
X138938000Y-123825000D01*
X112522000Y-83947000D02*
X112522000Y-123825000D01*
X138938000Y-83947000D02*
X112522000Y-83947000D01*
X138938000Y-123825000D02*
X138938000Y-83947000D01*
X123859000Y-129635000D02*
X123859000Y-128125000D01*
X127560000Y-129635000D02*
X127560000Y-128125000D01*
X130830000Y-128125000D02*
X120590000Y-128125000D01*
X120590000Y-129635000D02*
X120590000Y-124994000D01*
X130830000Y-129635000D02*
X130830000Y-124994000D01*
X130830000Y-124994000D02*
X120590000Y-124994000D01*
X130830000Y-129635000D02*
X120590000Y-129635000D01*
X138490000Y-132655000D02*
X138490000Y-133985000D01*
X137160000Y-132655000D02*
X138490000Y-132655000D01*
X135890000Y-132655000D02*
X135890000Y-135315000D01*
X135890000Y-135315000D02*
X112970000Y-135315000D01*
X135890000Y-132655000D02*
X112970000Y-132655000D01*
X112970000Y-132655000D02*
X112970000Y-135315000D01*
D12*
X117712380Y-128448095D02*
X116712380Y-128448095D01*
X116712380Y-128210000D01*
X116760000Y-128067142D01*
X116855238Y-127971904D01*
X116950476Y-127924285D01*
X117140952Y-127876666D01*
X117283809Y-127876666D01*
X117474285Y-127924285D01*
X117569523Y-127971904D01*
X117664761Y-128067142D01*
X117712380Y-128210000D01*
X117712380Y-128448095D01*
X116807619Y-127495714D02*
X116760000Y-127448095D01*
X116712380Y-127352857D01*
X116712380Y-127114761D01*
X116760000Y-127019523D01*
X116807619Y-126971904D01*
X116902857Y-126924285D01*
X116998095Y-126924285D01*
X117140952Y-126971904D01*
X117712380Y-127543333D01*
X117712380Y-126924285D01*
X123698095Y-121245380D02*
X123698095Y-122054904D01*
X123745714Y-122150142D01*
X123793333Y-122197761D01*
X123888571Y-122245380D01*
X124079047Y-122245380D01*
X124174285Y-122197761D01*
X124221904Y-122150142D01*
X124269523Y-122054904D01*
X124269523Y-121245380D01*
X124698095Y-121340619D02*
X124745714Y-121293000D01*
X124840952Y-121245380D01*
X125079047Y-121245380D01*
X125174285Y-121293000D01*
X125221904Y-121340619D01*
X125269523Y-121435857D01*
X125269523Y-121531095D01*
X125221904Y-121673952D01*
X124650476Y-122245380D01*
X125269523Y-122245380D01*
D13*
X125329047Y-130361190D02*
X125329047Y-130765952D01*
X125352857Y-130813571D01*
X125376666Y-130837380D01*
X125424285Y-130861190D01*
X125519523Y-130861190D01*
X125567142Y-130837380D01*
X125590952Y-130813571D01*
X125614761Y-130765952D01*
X125614761Y-130361190D01*
X125805238Y-130361190D02*
X126114761Y-130361190D01*
X125948095Y-130551666D01*
X126019523Y-130551666D01*
X126067142Y-130575476D01*
X126090952Y-130599285D01*
X126114761Y-130646904D01*
X126114761Y-130765952D01*
X126090952Y-130813571D01*
X126067142Y-130837380D01*
X126019523Y-130861190D01*
X125876666Y-130861190D01*
X125829047Y-130837380D01*
X125805238Y-130813571D01*
D10*
X113154666Y-130535333D02*
X113654666Y-130535333D01*
X113754666Y-130568666D01*
X113821333Y-130635333D01*
X113854666Y-130735333D01*
X113854666Y-130802000D01*
X113854666Y-129835333D02*
X113854666Y-130235333D01*
X113854666Y-130035333D02*
X113154666Y-130035333D01*
X113254666Y-130102000D01*
X113321333Y-130168666D01*
X113354666Y-130235333D01*
M02*
