G04 #@! TF.GenerationSoftware,KiCad,Pcbnew,5.1.5+dfsg1-2build2*
G04 #@! TF.CreationDate,2021-04-05T13:49:58+02:00*
G04 #@! TF.ProjectId,transistor_board,7472616e-7369-4737-946f-725f626f6172,rev?*
G04 #@! TF.SameCoordinates,Original*
G04 #@! TF.FileFunction,Legend,Bot*
G04 #@! TF.FilePolarity,Positive*
%FSLAX46Y46*%
G04 Gerber Fmt 4.6, Leading zero omitted, Abs format (unit mm)*
G04 Created by KiCad (PCBNEW 5.1.5+dfsg1-2build2) date 2021-04-05 13:49:58*
%MOMM*%
%LPD*%
G04 APERTURE LIST*
%ADD10C,0.150000*%
%ADD11C,0.100000*%
%ADD12C,0.070000*%
%ADD13C,0.120000*%
G04 APERTURE END LIST*
D10*
X136861428Y-130804761D02*
X136956666Y-130852380D01*
X137147142Y-130852380D01*
X137242380Y-130804761D01*
X137290000Y-130757142D01*
X137337619Y-130661904D01*
X137337619Y-130376190D01*
X137290000Y-130280952D01*
X137242380Y-130233333D01*
X137147142Y-130185714D01*
X136956666Y-130185714D01*
X136861428Y-130233333D01*
X136004285Y-130852380D02*
X136004285Y-130328571D01*
X136051904Y-130233333D01*
X136147142Y-130185714D01*
X136337619Y-130185714D01*
X136432857Y-130233333D01*
X136004285Y-130804761D02*
X136099523Y-130852380D01*
X136337619Y-130852380D01*
X136432857Y-130804761D01*
X136480476Y-130709523D01*
X136480476Y-130614285D01*
X136432857Y-130519047D01*
X136337619Y-130471428D01*
X136099523Y-130471428D01*
X136004285Y-130423809D01*
X135528095Y-130185714D02*
X135528095Y-131185714D01*
X135528095Y-130233333D02*
X135432857Y-130185714D01*
X135242380Y-130185714D01*
X135147142Y-130233333D01*
X135099523Y-130280952D01*
X135051904Y-130376190D01*
X135051904Y-130661904D01*
X135099523Y-130757142D01*
X135147142Y-130804761D01*
X135242380Y-130852380D01*
X135432857Y-130852380D01*
X135528095Y-130804761D01*
X134670952Y-130804761D02*
X134575714Y-130852380D01*
X134385238Y-130852380D01*
X134290000Y-130804761D01*
X134242380Y-130709523D01*
X134242380Y-130661904D01*
X134290000Y-130566666D01*
X134385238Y-130519047D01*
X134528095Y-130519047D01*
X134623333Y-130471428D01*
X134670952Y-130376190D01*
X134670952Y-130328571D01*
X134623333Y-130233333D01*
X134528095Y-130185714D01*
X134385238Y-130185714D01*
X134290000Y-130233333D01*
D11*
X131208571Y-130982380D02*
X131208571Y-130315714D01*
X131208571Y-130410952D02*
X131160952Y-130363333D01*
X131065714Y-130315714D01*
X130922857Y-130315714D01*
X130827619Y-130363333D01*
X130780000Y-130458571D01*
X130780000Y-130982380D01*
X130780000Y-130458571D02*
X130732380Y-130363333D01*
X130637142Y-130315714D01*
X130494285Y-130315714D01*
X130399047Y-130363333D01*
X130351428Y-130458571D01*
X130351428Y-130982380D01*
X129732380Y-130982380D02*
X129827619Y-130934761D01*
X129875238Y-130887142D01*
X129922857Y-130791904D01*
X129922857Y-130506190D01*
X129875238Y-130410952D01*
X129827619Y-130363333D01*
X129732380Y-130315714D01*
X129589523Y-130315714D01*
X129494285Y-130363333D01*
X129446666Y-130410952D01*
X129399047Y-130506190D01*
X129399047Y-130791904D01*
X129446666Y-130887142D01*
X129494285Y-130934761D01*
X129589523Y-130982380D01*
X129732380Y-130982380D01*
X129113333Y-130315714D02*
X128732380Y-130315714D01*
X128970476Y-129982380D02*
X128970476Y-130839523D01*
X128922857Y-130934761D01*
X128827619Y-130982380D01*
X128732380Y-130982380D01*
X128256190Y-130982380D02*
X128351428Y-130934761D01*
X128399047Y-130887142D01*
X128446666Y-130791904D01*
X128446666Y-130506190D01*
X128399047Y-130410952D01*
X128351428Y-130363333D01*
X128256190Y-130315714D01*
X128113333Y-130315714D01*
X128018095Y-130363333D01*
X127970476Y-130410952D01*
X127922857Y-130506190D01*
X127922857Y-130791904D01*
X127970476Y-130887142D01*
X128018095Y-130934761D01*
X128113333Y-130982380D01*
X128256190Y-130982380D01*
X127494285Y-130982380D02*
X127494285Y-130315714D01*
X127494285Y-130506190D02*
X127446666Y-130410952D01*
X127399047Y-130363333D01*
X127303809Y-130315714D01*
X127208571Y-130315714D01*
X122715000Y-131749285D02*
X122429285Y-131749285D01*
X122607857Y-132249285D02*
X122607857Y-131606428D01*
X122572142Y-131535000D01*
X122500714Y-131499285D01*
X122429285Y-131499285D01*
X122250714Y-131749285D02*
X122107857Y-132249285D01*
X121965000Y-131892142D01*
X121822142Y-132249285D01*
X121679285Y-131749285D01*
X121072142Y-132249285D02*
X121072142Y-131499285D01*
X121072142Y-132213571D02*
X121143571Y-132249285D01*
X121286428Y-132249285D01*
X121357857Y-132213571D01*
X121393571Y-132177857D01*
X121429285Y-132106428D01*
X121429285Y-131892142D01*
X121393571Y-131820714D01*
X121357857Y-131785000D01*
X121286428Y-131749285D01*
X121143571Y-131749285D01*
X121072142Y-131785000D01*
X119850714Y-132119285D02*
X119850714Y-131619285D01*
X119850714Y-131762142D02*
X119815000Y-131690714D01*
X119779285Y-131655000D01*
X119707857Y-131619285D01*
X119636428Y-131619285D01*
X119100714Y-132083571D02*
X119172142Y-132119285D01*
X119315000Y-132119285D01*
X119386428Y-132083571D01*
X119422142Y-132012142D01*
X119422142Y-131726428D01*
X119386428Y-131655000D01*
X119315000Y-131619285D01*
X119172142Y-131619285D01*
X119100714Y-131655000D01*
X119065000Y-131726428D01*
X119065000Y-131797857D01*
X119422142Y-131869285D01*
X118815000Y-131619285D02*
X118636428Y-132119285D01*
X118457857Y-131619285D01*
X123457142Y-130962380D02*
X123552380Y-130914761D01*
X123600000Y-130819523D01*
X123600000Y-129962380D01*
X122647619Y-130962380D02*
X122647619Y-130438571D01*
X122695238Y-130343333D01*
X122790476Y-130295714D01*
X122980952Y-130295714D01*
X123076190Y-130343333D01*
X122647619Y-130914761D02*
X122742857Y-130962380D01*
X122980952Y-130962380D01*
X123076190Y-130914761D01*
X123123809Y-130819523D01*
X123123809Y-130724285D01*
X123076190Y-130629047D01*
X122980952Y-130581428D01*
X122742857Y-130581428D01*
X122647619Y-130533809D01*
X122171428Y-130962380D02*
X122171428Y-130295714D01*
X122171428Y-130390952D02*
X122123809Y-130343333D01*
X122028571Y-130295714D01*
X121885714Y-130295714D01*
X121790476Y-130343333D01*
X121742857Y-130438571D01*
X121742857Y-130962380D01*
X121742857Y-130438571D02*
X121695238Y-130343333D01*
X121600000Y-130295714D01*
X121457142Y-130295714D01*
X121361904Y-130343333D01*
X121314285Y-130438571D01*
X121314285Y-130962380D01*
X120838095Y-130295714D02*
X120838095Y-131295714D01*
X120838095Y-130343333D02*
X120742857Y-130295714D01*
X120552380Y-130295714D01*
X120457142Y-130343333D01*
X120409523Y-130390952D01*
X120361904Y-130486190D01*
X120361904Y-130771904D01*
X120409523Y-130867142D01*
X120457142Y-130914761D01*
X120552380Y-130962380D01*
X120742857Y-130962380D01*
X120838095Y-130914761D01*
X119980952Y-130914761D02*
X119885714Y-130962380D01*
X119695238Y-130962380D01*
X119600000Y-130914761D01*
X119552380Y-130819523D01*
X119552380Y-130771904D01*
X119600000Y-130676666D01*
X119695238Y-130629047D01*
X119838095Y-130629047D01*
X119933333Y-130581428D01*
X119980952Y-130486190D01*
X119980952Y-130438571D01*
X119933333Y-130343333D01*
X119838095Y-130295714D01*
X119695238Y-130295714D01*
X119600000Y-130343333D01*
X117553571Y-132015000D02*
X117196428Y-132015000D01*
X117625000Y-132229285D02*
X117375000Y-131479285D01*
X117125000Y-132229285D01*
X116446428Y-132157857D02*
X116482142Y-132193571D01*
X116589285Y-132229285D01*
X116660714Y-132229285D01*
X116767857Y-132193571D01*
X116839285Y-132122142D01*
X116875000Y-132050714D01*
X116910714Y-131907857D01*
X116910714Y-131800714D01*
X116875000Y-131657857D01*
X116839285Y-131586428D01*
X116767857Y-131515000D01*
X116660714Y-131479285D01*
X116589285Y-131479285D01*
X116482142Y-131515000D01*
X116446428Y-131550714D01*
X127690714Y-132229285D02*
X127690714Y-131729285D01*
X127690714Y-131872142D02*
X127655000Y-131800714D01*
X127619285Y-131765000D01*
X127547857Y-131729285D01*
X127476428Y-131729285D01*
X126940714Y-132193571D02*
X127012142Y-132229285D01*
X127155000Y-132229285D01*
X127226428Y-132193571D01*
X127262142Y-132122142D01*
X127262142Y-131836428D01*
X127226428Y-131765000D01*
X127155000Y-131729285D01*
X127012142Y-131729285D01*
X126940714Y-131765000D01*
X126905000Y-131836428D01*
X126905000Y-131907857D01*
X127262142Y-131979285D01*
X126655000Y-131729285D02*
X126476428Y-132229285D01*
X126297857Y-131729285D01*
X130305000Y-131749285D02*
X130019285Y-131749285D01*
X130197857Y-132249285D02*
X130197857Y-131606428D01*
X130162142Y-131535000D01*
X130090714Y-131499285D01*
X130019285Y-131499285D01*
X129840714Y-131749285D02*
X129697857Y-132249285D01*
X129555000Y-131892142D01*
X129412142Y-132249285D01*
X129269285Y-131749285D01*
X128662142Y-132249285D02*
X128662142Y-131499285D01*
X128662142Y-132213571D02*
X128733571Y-132249285D01*
X128876428Y-132249285D01*
X128947857Y-132213571D01*
X128983571Y-132177857D01*
X129019285Y-132106428D01*
X129019285Y-131892142D01*
X128983571Y-131820714D01*
X128947857Y-131785000D01*
X128876428Y-131749285D01*
X128733571Y-131749285D01*
X128662142Y-131785000D01*
X132640714Y-132043571D02*
X132712142Y-132079285D01*
X132855000Y-132079285D01*
X132926428Y-132043571D01*
X132962142Y-132007857D01*
X132997857Y-131936428D01*
X132997857Y-131722142D01*
X132962142Y-131650714D01*
X132926428Y-131615000D01*
X132855000Y-131579285D01*
X132712142Y-131579285D01*
X132640714Y-131615000D01*
X132212142Y-132079285D02*
X132283571Y-132043571D01*
X132319285Y-132007857D01*
X132355000Y-131936428D01*
X132355000Y-131722142D01*
X132319285Y-131650714D01*
X132283571Y-131615000D01*
X132212142Y-131579285D01*
X132105000Y-131579285D01*
X132033571Y-131615000D01*
X131997857Y-131650714D01*
X131962142Y-131722142D01*
X131962142Y-131936428D01*
X131997857Y-132007857D01*
X132033571Y-132043571D01*
X132105000Y-132079285D01*
X132212142Y-132079285D01*
X131640714Y-132079285D02*
X131640714Y-131579285D01*
X131640714Y-131650714D02*
X131605000Y-131615000D01*
X131533571Y-131579285D01*
X131426428Y-131579285D01*
X131355000Y-131615000D01*
X131319285Y-131686428D01*
X131319285Y-132079285D01*
X131319285Y-131686428D02*
X131283571Y-131615000D01*
X131212142Y-131579285D01*
X131105000Y-131579285D01*
X131033571Y-131615000D01*
X130997857Y-131686428D01*
X130997857Y-132079285D01*
X135423571Y-131619285D02*
X135423571Y-132369285D01*
X135423571Y-131655000D02*
X135352142Y-131619285D01*
X135209285Y-131619285D01*
X135137857Y-131655000D01*
X135102142Y-131690714D01*
X135066428Y-131762142D01*
X135066428Y-131976428D01*
X135102142Y-132047857D01*
X135137857Y-132083571D01*
X135209285Y-132119285D01*
X135352142Y-132119285D01*
X135423571Y-132083571D01*
X134637857Y-132119285D02*
X134709285Y-132083571D01*
X134745000Y-132047857D01*
X134780714Y-131976428D01*
X134780714Y-131762142D01*
X134745000Y-131690714D01*
X134709285Y-131655000D01*
X134637857Y-131619285D01*
X134530714Y-131619285D01*
X134459285Y-131655000D01*
X134423571Y-131690714D01*
X134387857Y-131762142D01*
X134387857Y-131976428D01*
X134423571Y-132047857D01*
X134459285Y-132083571D01*
X134530714Y-132119285D01*
X134637857Y-132119285D01*
X134102142Y-132083571D02*
X134030714Y-132119285D01*
X133887857Y-132119285D01*
X133816428Y-132083571D01*
X133780714Y-132012142D01*
X133780714Y-131976428D01*
X133816428Y-131905000D01*
X133887857Y-131869285D01*
X133995000Y-131869285D01*
X134066428Y-131833571D01*
X134102142Y-131762142D01*
X134102142Y-131726428D01*
X134066428Y-131655000D01*
X133995000Y-131619285D01*
X133887857Y-131619285D01*
X133816428Y-131655000D01*
X138011428Y-131539285D02*
X138011428Y-132039285D01*
X138011428Y-131610714D02*
X137975714Y-131575000D01*
X137904285Y-131539285D01*
X137797142Y-131539285D01*
X137725714Y-131575000D01*
X137690000Y-131646428D01*
X137690000Y-132039285D01*
X137047142Y-132003571D02*
X137118571Y-132039285D01*
X137261428Y-132039285D01*
X137332857Y-132003571D01*
X137368571Y-131932142D01*
X137368571Y-131646428D01*
X137332857Y-131575000D01*
X137261428Y-131539285D01*
X137118571Y-131539285D01*
X137047142Y-131575000D01*
X137011428Y-131646428D01*
X137011428Y-131717857D01*
X137368571Y-131789285D01*
X136368571Y-131539285D02*
X136368571Y-132146428D01*
X136404285Y-132217857D01*
X136440000Y-132253571D01*
X136511428Y-132289285D01*
X136618571Y-132289285D01*
X136690000Y-132253571D01*
X136368571Y-132003571D02*
X136440000Y-132039285D01*
X136582857Y-132039285D01*
X136654285Y-132003571D01*
X136690000Y-131967857D01*
X136725714Y-131896428D01*
X136725714Y-131682142D01*
X136690000Y-131610714D01*
X136654285Y-131575000D01*
X136582857Y-131539285D01*
X136440000Y-131539285D01*
X136368571Y-131575000D01*
X124930714Y-132106071D02*
X125002142Y-132141785D01*
X125145000Y-132141785D01*
X125216428Y-132106071D01*
X125252142Y-132070357D01*
X125287857Y-131998928D01*
X125287857Y-131784642D01*
X125252142Y-131713214D01*
X125216428Y-131677500D01*
X125145000Y-131641785D01*
X125002142Y-131641785D01*
X124930714Y-131677500D01*
X124502142Y-132141785D02*
X124573571Y-132106071D01*
X124609285Y-132070357D01*
X124645000Y-131998928D01*
X124645000Y-131784642D01*
X124609285Y-131713214D01*
X124573571Y-131677500D01*
X124502142Y-131641785D01*
X124395000Y-131641785D01*
X124323571Y-131677500D01*
X124287857Y-131713214D01*
X124252142Y-131784642D01*
X124252142Y-131998928D01*
X124287857Y-132070357D01*
X124323571Y-132106071D01*
X124395000Y-132141785D01*
X124502142Y-132141785D01*
X123930714Y-132141785D02*
X123930714Y-131641785D01*
X123930714Y-131713214D02*
X123895000Y-131677500D01*
X123823571Y-131641785D01*
X123716428Y-131641785D01*
X123645000Y-131677500D01*
X123609285Y-131748928D01*
X123609285Y-132141785D01*
X123609285Y-131748928D02*
X123573571Y-131677500D01*
X123502142Y-131641785D01*
X123395000Y-131641785D01*
X123323571Y-131677500D01*
X123287857Y-131748928D01*
X123287857Y-132141785D01*
X114893571Y-131975000D02*
X114536428Y-131975000D01*
X114965000Y-132189285D02*
X114715000Y-131439285D01*
X114465000Y-132189285D01*
X113786428Y-132117857D02*
X113822142Y-132153571D01*
X113929285Y-132189285D01*
X114000714Y-132189285D01*
X114107857Y-132153571D01*
X114179285Y-132082142D01*
X114215000Y-132010714D01*
X114250714Y-131867857D01*
X114250714Y-131760714D01*
X114215000Y-131617857D01*
X114179285Y-131546428D01*
X114107857Y-131475000D01*
X114000714Y-131439285D01*
X113929285Y-131439285D01*
X113822142Y-131475000D01*
X113786428Y-131510714D01*
D12*
X129373809Y-127406190D02*
X129373809Y-126906190D01*
X129373809Y-127144285D02*
X129088095Y-127144285D01*
X129088095Y-127406190D02*
X129088095Y-126906190D01*
X128659523Y-127382380D02*
X128707142Y-127406190D01*
X128802380Y-127406190D01*
X128850000Y-127382380D01*
X128873809Y-127334761D01*
X128873809Y-127144285D01*
X128850000Y-127096666D01*
X128802380Y-127072857D01*
X128707142Y-127072857D01*
X128659523Y-127096666D01*
X128635714Y-127144285D01*
X128635714Y-127191904D01*
X128873809Y-127239523D01*
X128421428Y-127072857D02*
X128421428Y-127406190D01*
X128421428Y-127120476D02*
X128397619Y-127096666D01*
X128350000Y-127072857D01*
X128278571Y-127072857D01*
X128230952Y-127096666D01*
X128207142Y-127144285D01*
X128207142Y-127406190D01*
X127969047Y-127406190D02*
X127969047Y-127072857D01*
X127969047Y-127168095D02*
X127945238Y-127120476D01*
X127921428Y-127096666D01*
X127873809Y-127072857D01*
X127826190Y-127072857D01*
X127659523Y-127406190D02*
X127659523Y-127072857D01*
X127659523Y-126906190D02*
X127683333Y-126930000D01*
X127659523Y-126953809D01*
X127635714Y-126930000D01*
X127659523Y-126906190D01*
X127659523Y-126953809D01*
X127421428Y-127406190D02*
X127421428Y-126906190D01*
X127373809Y-127215714D02*
X127230952Y-127406190D01*
X127230952Y-127072857D02*
X127421428Y-127263333D01*
X126230952Y-127406190D02*
X126254761Y-127406190D01*
X126302380Y-127382380D01*
X126373809Y-127310952D01*
X126492857Y-127168095D01*
X126540476Y-127096666D01*
X126564285Y-127025238D01*
X126564285Y-126977619D01*
X126540476Y-126930000D01*
X126492857Y-126906190D01*
X126469047Y-126906190D01*
X126421428Y-126930000D01*
X126397619Y-126977619D01*
X126397619Y-127001428D01*
X126421428Y-127049047D01*
X126445238Y-127072857D01*
X126588095Y-127168095D01*
X126611904Y-127191904D01*
X126635714Y-127239523D01*
X126635714Y-127310952D01*
X126611904Y-127358571D01*
X126588095Y-127382380D01*
X126540476Y-127406190D01*
X126469047Y-127406190D01*
X126421428Y-127382380D01*
X126397619Y-127358571D01*
X126326190Y-127263333D01*
X126302380Y-127191904D01*
X126302380Y-127144285D01*
X125492857Y-126906190D02*
X125492857Y-127263333D01*
X125516666Y-127334761D01*
X125564285Y-127382380D01*
X125635714Y-127406190D01*
X125683333Y-127406190D01*
X125183333Y-127406190D02*
X125230952Y-127382380D01*
X125254761Y-127358571D01*
X125278571Y-127310952D01*
X125278571Y-127168095D01*
X125254761Y-127120476D01*
X125230952Y-127096666D01*
X125183333Y-127072857D01*
X125111904Y-127072857D01*
X125064285Y-127096666D01*
X125040476Y-127120476D01*
X125016666Y-127168095D01*
X125016666Y-127310952D01*
X125040476Y-127358571D01*
X125064285Y-127382380D01*
X125111904Y-127406190D01*
X125183333Y-127406190D01*
X124802380Y-127406190D02*
X124802380Y-126906190D01*
X124588095Y-127406190D02*
X124588095Y-127144285D01*
X124611904Y-127096666D01*
X124659523Y-127072857D01*
X124730952Y-127072857D01*
X124778571Y-127096666D01*
X124802380Y-127120476D01*
X124135714Y-127406190D02*
X124135714Y-127144285D01*
X124159523Y-127096666D01*
X124207142Y-127072857D01*
X124302380Y-127072857D01*
X124350000Y-127096666D01*
X124135714Y-127382380D02*
X124183333Y-127406190D01*
X124302380Y-127406190D01*
X124350000Y-127382380D01*
X124373809Y-127334761D01*
X124373809Y-127287142D01*
X124350000Y-127239523D01*
X124302380Y-127215714D01*
X124183333Y-127215714D01*
X124135714Y-127191904D01*
X123897619Y-127072857D02*
X123897619Y-127406190D01*
X123897619Y-127120476D02*
X123873809Y-127096666D01*
X123826190Y-127072857D01*
X123754761Y-127072857D01*
X123707142Y-127096666D01*
X123683333Y-127144285D01*
X123683333Y-127406190D01*
X122897619Y-127144285D02*
X122826190Y-127168095D01*
X122802380Y-127191904D01*
X122778571Y-127239523D01*
X122778571Y-127310952D01*
X122802380Y-127358571D01*
X122826190Y-127382380D01*
X122873809Y-127406190D01*
X123064285Y-127406190D01*
X123064285Y-126906190D01*
X122897619Y-126906190D01*
X122850000Y-126930000D01*
X122826190Y-126953809D01*
X122802380Y-127001428D01*
X122802380Y-127049047D01*
X122826190Y-127096666D01*
X122850000Y-127120476D01*
X122897619Y-127144285D01*
X123064285Y-127144285D01*
X122564285Y-127072857D02*
X122564285Y-127501428D01*
X122588095Y-127549047D01*
X122635714Y-127572857D01*
X122659523Y-127572857D01*
X122564285Y-126906190D02*
X122588095Y-126930000D01*
X122564285Y-126953809D01*
X122540476Y-126930000D01*
X122564285Y-126906190D01*
X122564285Y-126953809D01*
X122254761Y-127406190D02*
X122302380Y-127382380D01*
X122326190Y-127358571D01*
X122350000Y-127310952D01*
X122350000Y-127168095D01*
X122326190Y-127120476D01*
X122302380Y-127096666D01*
X122254761Y-127072857D01*
X122183333Y-127072857D01*
X122135714Y-127096666D01*
X122111904Y-127120476D01*
X122088095Y-127168095D01*
X122088095Y-127310952D01*
X122111904Y-127358571D01*
X122135714Y-127382380D01*
X122183333Y-127406190D01*
X122254761Y-127406190D01*
X121873809Y-127406190D02*
X121873809Y-127072857D01*
X121873809Y-127168095D02*
X121850000Y-127120476D01*
X121826190Y-127096666D01*
X121778571Y-127072857D01*
X121730952Y-127072857D01*
X121564285Y-127406190D02*
X121564285Y-126906190D01*
X121516666Y-127215714D02*
X121373809Y-127406190D01*
X121373809Y-127072857D02*
X121564285Y-127263333D01*
X121159523Y-127406190D02*
X121159523Y-127072857D01*
X121159523Y-127120476D02*
X121135714Y-127096666D01*
X121088095Y-127072857D01*
X121016666Y-127072857D01*
X120969047Y-127096666D01*
X120945238Y-127144285D01*
X120945238Y-127406190D01*
X120945238Y-127144285D02*
X120921428Y-127096666D01*
X120873809Y-127072857D01*
X120802380Y-127072857D01*
X120754761Y-127096666D01*
X120730952Y-127144285D01*
X120730952Y-127406190D01*
X120278571Y-127406190D02*
X120278571Y-127144285D01*
X120302380Y-127096666D01*
X120350000Y-127072857D01*
X120445238Y-127072857D01*
X120492857Y-127096666D01*
X120278571Y-127382380D02*
X120326190Y-127406190D01*
X120445238Y-127406190D01*
X120492857Y-127382380D01*
X120516666Y-127334761D01*
X120516666Y-127287142D01*
X120492857Y-127239523D01*
X120445238Y-127215714D01*
X120326190Y-127215714D01*
X120278571Y-127191904D01*
X120040476Y-127072857D02*
X120040476Y-127406190D01*
X120040476Y-127120476D02*
X120016666Y-127096666D01*
X119969047Y-127072857D01*
X119897619Y-127072857D01*
X119850000Y-127096666D01*
X119826190Y-127144285D01*
X119826190Y-127406190D01*
X127707142Y-127892857D02*
X127611904Y-128226190D01*
X127516666Y-127988095D01*
X127421428Y-128226190D01*
X127326190Y-127892857D01*
X127183333Y-127892857D02*
X127088095Y-128226190D01*
X126992857Y-127988095D01*
X126897619Y-128226190D01*
X126802380Y-127892857D01*
X126659523Y-127892857D02*
X126564285Y-128226190D01*
X126469047Y-127988095D01*
X126373809Y-128226190D01*
X126278571Y-127892857D01*
X126088095Y-128178571D02*
X126064285Y-128202380D01*
X126088095Y-128226190D01*
X126111904Y-128202380D01*
X126088095Y-128178571D01*
X126088095Y-128226190D01*
X125635714Y-128226190D02*
X125635714Y-127726190D01*
X125635714Y-128202380D02*
X125683333Y-128226190D01*
X125778571Y-128226190D01*
X125826190Y-128202380D01*
X125850000Y-128178571D01*
X125873809Y-128130952D01*
X125873809Y-127988095D01*
X125850000Y-127940476D01*
X125826190Y-127916666D01*
X125778571Y-127892857D01*
X125683333Y-127892857D01*
X125635714Y-127916666D01*
X125397619Y-128226190D02*
X125397619Y-127892857D01*
X125397619Y-127988095D02*
X125373809Y-127940476D01*
X125350000Y-127916666D01*
X125302380Y-127892857D01*
X125254761Y-127892857D01*
X124897619Y-128202380D02*
X124945238Y-128226190D01*
X125040476Y-128226190D01*
X125088095Y-128202380D01*
X125111904Y-128154761D01*
X125111904Y-127964285D01*
X125088095Y-127916666D01*
X125040476Y-127892857D01*
X124945238Y-127892857D01*
X124897619Y-127916666D01*
X124873809Y-127964285D01*
X124873809Y-128011904D01*
X125111904Y-128059523D01*
X124659523Y-128226190D02*
X124659523Y-127726190D01*
X124611904Y-128035714D02*
X124469047Y-128226190D01*
X124469047Y-127892857D02*
X124659523Y-128083333D01*
X124254761Y-128226190D02*
X124254761Y-127726190D01*
X124207142Y-128035714D02*
X124064285Y-128226190D01*
X124064285Y-127892857D02*
X124254761Y-128083333D01*
X123635714Y-128226190D02*
X123635714Y-127964285D01*
X123659523Y-127916666D01*
X123707142Y-127892857D01*
X123802380Y-127892857D01*
X123850000Y-127916666D01*
X123635714Y-128202380D02*
X123683333Y-128226190D01*
X123802380Y-128226190D01*
X123850000Y-128202380D01*
X123873809Y-128154761D01*
X123873809Y-128107142D01*
X123850000Y-128059523D01*
X123802380Y-128035714D01*
X123683333Y-128035714D01*
X123635714Y-128011904D01*
X123397619Y-128226190D02*
X123397619Y-127892857D01*
X123397619Y-127988095D02*
X123373809Y-127940476D01*
X123350000Y-127916666D01*
X123302380Y-127892857D01*
X123254761Y-127892857D01*
X123088095Y-128178571D02*
X123064285Y-128202380D01*
X123088095Y-128226190D01*
X123111904Y-128202380D01*
X123088095Y-128178571D01*
X123088095Y-128226190D01*
X122635714Y-128202380D02*
X122683333Y-128226190D01*
X122778571Y-128226190D01*
X122826190Y-128202380D01*
X122850000Y-128178571D01*
X122873809Y-128130952D01*
X122873809Y-127988095D01*
X122850000Y-127940476D01*
X122826190Y-127916666D01*
X122778571Y-127892857D01*
X122683333Y-127892857D01*
X122635714Y-127916666D01*
X122350000Y-128226190D02*
X122397619Y-128202380D01*
X122421428Y-128178571D01*
X122445238Y-128130952D01*
X122445238Y-127988095D01*
X122421428Y-127940476D01*
X122397619Y-127916666D01*
X122350000Y-127892857D01*
X122278571Y-127892857D01*
X122230952Y-127916666D01*
X122207142Y-127940476D01*
X122183333Y-127988095D01*
X122183333Y-128130952D01*
X122207142Y-128178571D01*
X122230952Y-128202380D01*
X122278571Y-128226190D01*
X122350000Y-128226190D01*
X121969047Y-128226190D02*
X121969047Y-127892857D01*
X121969047Y-127940476D02*
X121945238Y-127916666D01*
X121897619Y-127892857D01*
X121826190Y-127892857D01*
X121778571Y-127916666D01*
X121754761Y-127964285D01*
X121754761Y-128226190D01*
X121754761Y-127964285D02*
X121730952Y-127916666D01*
X121683333Y-127892857D01*
X121611904Y-127892857D01*
X121564285Y-127916666D01*
X121540476Y-127964285D01*
X121540476Y-128226190D01*
X127028571Y-128593809D02*
X127004761Y-128570000D01*
X126957142Y-128546190D01*
X126838095Y-128546190D01*
X126790476Y-128570000D01*
X126766666Y-128593809D01*
X126742857Y-128641428D01*
X126742857Y-128689047D01*
X126766666Y-128760476D01*
X127052380Y-129046190D01*
X126742857Y-129046190D01*
X126433333Y-128546190D02*
X126385714Y-128546190D01*
X126338095Y-128570000D01*
X126314285Y-128593809D01*
X126290476Y-128641428D01*
X126266666Y-128736666D01*
X126266666Y-128855714D01*
X126290476Y-128950952D01*
X126314285Y-128998571D01*
X126338095Y-129022380D01*
X126385714Y-129046190D01*
X126433333Y-129046190D01*
X126480952Y-129022380D01*
X126504761Y-128998571D01*
X126528571Y-128950952D01*
X126552380Y-128855714D01*
X126552380Y-128736666D01*
X126528571Y-128641428D01*
X126504761Y-128593809D01*
X126480952Y-128570000D01*
X126433333Y-128546190D01*
X126076190Y-128593809D02*
X126052380Y-128570000D01*
X126004761Y-128546190D01*
X125885714Y-128546190D01*
X125838095Y-128570000D01*
X125814285Y-128593809D01*
X125790476Y-128641428D01*
X125790476Y-128689047D01*
X125814285Y-128760476D01*
X126100000Y-129046190D01*
X125790476Y-129046190D01*
X125480952Y-128546190D02*
X125433333Y-128546190D01*
X125385714Y-128570000D01*
X125361904Y-128593809D01*
X125338095Y-128641428D01*
X125314285Y-128736666D01*
X125314285Y-128855714D01*
X125338095Y-128950952D01*
X125361904Y-128998571D01*
X125385714Y-129022380D01*
X125433333Y-129046190D01*
X125480952Y-129046190D01*
X125528571Y-129022380D01*
X125552380Y-128998571D01*
X125576190Y-128950952D01*
X125600000Y-128855714D01*
X125600000Y-128736666D01*
X125576190Y-128641428D01*
X125552380Y-128593809D01*
X125528571Y-128570000D01*
X125480952Y-128546190D01*
X125100000Y-128855714D02*
X124719047Y-128855714D01*
X124219047Y-129046190D02*
X124504761Y-129046190D01*
X124361904Y-129046190D02*
X124361904Y-128546190D01*
X124409523Y-128617619D01*
X124457142Y-128665238D01*
X124504761Y-128689047D01*
X124028571Y-128593809D02*
X124004761Y-128570000D01*
X123957142Y-128546190D01*
X123838095Y-128546190D01*
X123790476Y-128570000D01*
X123766666Y-128593809D01*
X123742857Y-128641428D01*
X123742857Y-128689047D01*
X123766666Y-128760476D01*
X124052380Y-129046190D01*
X123742857Y-129046190D01*
X123528571Y-128855714D02*
X123147619Y-128855714D01*
X122814285Y-128546190D02*
X122766666Y-128546190D01*
X122719047Y-128570000D01*
X122695238Y-128593809D01*
X122671428Y-128641428D01*
X122647619Y-128736666D01*
X122647619Y-128855714D01*
X122671428Y-128950952D01*
X122695238Y-128998571D01*
X122719047Y-129022380D01*
X122766666Y-129046190D01*
X122814285Y-129046190D01*
X122861904Y-129022380D01*
X122885714Y-128998571D01*
X122909523Y-128950952D01*
X122933333Y-128855714D01*
X122933333Y-128736666D01*
X122909523Y-128641428D01*
X122885714Y-128593809D01*
X122861904Y-128570000D01*
X122814285Y-128546190D01*
X122457142Y-128593809D02*
X122433333Y-128570000D01*
X122385714Y-128546190D01*
X122266666Y-128546190D01*
X122219047Y-128570000D01*
X122195238Y-128593809D01*
X122171428Y-128641428D01*
X122171428Y-128689047D01*
X122195238Y-128760476D01*
X122480952Y-129046190D01*
X122171428Y-129046190D01*
D13*
X117216000Y-105784500D02*
X117216000Y-106884500D01*
X116946000Y-105784500D02*
X117216000Y-105784500D01*
X116946000Y-104284500D02*
X116946000Y-105784500D01*
X123576000Y-105784500D02*
X123576000Y-108614500D01*
X123846000Y-105784500D02*
X123576000Y-105784500D01*
X123846000Y-104284500D02*
X123846000Y-105784500D01*
X128900000Y-105848000D02*
X128900000Y-106948000D01*
X128630000Y-105848000D02*
X128900000Y-105848000D01*
X128630000Y-104348000D02*
X128630000Y-105848000D01*
X135260000Y-105848000D02*
X135260000Y-108678000D01*
X135530000Y-105848000D02*
X135260000Y-105848000D01*
X135530000Y-104348000D02*
X135530000Y-105848000D01*
X133545000Y-128544064D02*
X133545000Y-124439936D01*
X136965000Y-128544064D02*
X136965000Y-124439936D01*
X132463000Y-113340000D02*
X133923000Y-113340000D01*
X132463000Y-110180000D02*
X134623000Y-110180000D01*
X132463000Y-110180000D02*
X132463000Y-111110000D01*
X132463000Y-113340000D02*
X132463000Y-112410000D01*
X132463000Y-118166000D02*
X133923000Y-118166000D01*
X132463000Y-115006000D02*
X134623000Y-115006000D01*
X132463000Y-115006000D02*
X132463000Y-115936000D01*
X132463000Y-118166000D02*
X132463000Y-117236000D01*
D11*
X124450000Y-107625000D02*
X124750000Y-107625000D01*
X124450000Y-107250000D02*
X124450000Y-107625000D01*
X127750000Y-107625000D02*
X127750000Y-107175000D01*
X127450000Y-107625000D02*
X127750000Y-107625000D01*
X127525000Y-107625000D02*
X127400000Y-107625000D01*
X127750000Y-105975000D02*
X127400000Y-105975000D01*
X127750000Y-106450000D02*
X127750000Y-105975000D01*
X124775000Y-105975000D02*
X124775000Y-105200000D01*
X124725000Y-105975000D02*
X124775000Y-105975000D01*
X124450000Y-106350000D02*
X124725000Y-105975000D01*
X124450000Y-106625000D02*
X124450000Y-106350000D01*
D13*
X116985000Y-114175000D02*
X116985000Y-120775000D01*
X119685000Y-120775000D02*
X122885000Y-120775000D01*
X119685000Y-114175000D02*
X122885000Y-114175000D01*
X125585000Y-120775000D02*
X124785000Y-120775000D01*
X125585000Y-114175000D02*
X125585000Y-120775000D01*
X124785000Y-114175000D02*
X125585000Y-114175000D01*
X116967000Y-114173000D02*
X117729000Y-114173000D01*
X117729000Y-114173000D02*
X117729000Y-112141000D01*
X117729000Y-112141000D02*
X117729000Y-112141000D01*
X117729000Y-120777000D02*
X116967000Y-120777000D01*
X116967000Y-120777000D02*
X116967000Y-120777000D01*
X133088748Y-119686000D02*
X133611252Y-119686000D01*
X133088748Y-121106000D02*
X133611252Y-121106000D01*
X115000000Y-122568748D02*
X115000000Y-123091252D01*
X113580000Y-122568748D02*
X113580000Y-123091252D01*
X128720000Y-121731252D02*
X128720000Y-121208748D01*
X130140000Y-121731252D02*
X130140000Y-121208748D01*
X125788922Y-98667500D02*
X126306078Y-98667500D01*
X125788922Y-100087500D02*
X126306078Y-100087500D01*
X126306078Y-103135500D02*
X125788922Y-103135500D01*
X126306078Y-101715500D02*
X125788922Y-101715500D01*
D10*
X120491238Y-110148619D02*
X120586476Y-110101000D01*
X120681714Y-110005761D01*
X120824571Y-109862904D01*
X120919809Y-109815285D01*
X121015047Y-109815285D01*
X120967428Y-110053380D02*
X121062666Y-110005761D01*
X121157904Y-109910523D01*
X121205523Y-109720047D01*
X121205523Y-109386714D01*
X121157904Y-109196238D01*
X121062666Y-109101000D01*
X120967428Y-109053380D01*
X120776952Y-109053380D01*
X120681714Y-109101000D01*
X120586476Y-109196238D01*
X120538857Y-109386714D01*
X120538857Y-109720047D01*
X120586476Y-109910523D01*
X120681714Y-110005761D01*
X120776952Y-110053380D01*
X120967428Y-110053380D01*
X120157904Y-109148619D02*
X120110285Y-109101000D01*
X120015047Y-109053380D01*
X119776952Y-109053380D01*
X119681714Y-109101000D01*
X119634095Y-109148619D01*
X119586476Y-109243857D01*
X119586476Y-109339095D01*
X119634095Y-109481952D01*
X120205523Y-110053380D01*
X119586476Y-110053380D01*
X136556738Y-99353619D02*
X136651976Y-99306000D01*
X136747214Y-99210761D01*
X136890071Y-99067904D01*
X136985309Y-99020285D01*
X137080547Y-99020285D01*
X137032928Y-99258380D02*
X137128166Y-99210761D01*
X137223404Y-99115523D01*
X137271023Y-98925047D01*
X137271023Y-98591714D01*
X137223404Y-98401238D01*
X137128166Y-98306000D01*
X137032928Y-98258380D01*
X136842452Y-98258380D01*
X136747214Y-98306000D01*
X136651976Y-98401238D01*
X136604357Y-98591714D01*
X136604357Y-98925047D01*
X136651976Y-99115523D01*
X136747214Y-99210761D01*
X136842452Y-99258380D01*
X137032928Y-99258380D01*
X135651976Y-99258380D02*
X136223404Y-99258380D01*
X135937690Y-99258380D02*
X135937690Y-98258380D01*
X136032928Y-98401238D01*
X136128166Y-98496476D01*
X136223404Y-98544095D01*
X138327380Y-126325333D02*
X137851190Y-125992000D01*
X138327380Y-125753904D02*
X137327380Y-125753904D01*
X137327380Y-126134857D01*
X137375000Y-126230095D01*
X137422619Y-126277714D01*
X137517857Y-126325333D01*
X137660714Y-126325333D01*
X137755952Y-126277714D01*
X137803571Y-126230095D01*
X137851190Y-126134857D01*
X137851190Y-125753904D01*
X138327380Y-127277714D02*
X138327380Y-126706285D01*
X138327380Y-126992000D02*
X137327380Y-126992000D01*
X137470238Y-126896761D01*
X137565476Y-126801523D01*
X137613095Y-126706285D01*
X133318238Y-109807619D02*
X133413476Y-109760000D01*
X133508714Y-109664761D01*
X133651571Y-109521904D01*
X133746809Y-109474285D01*
X133842047Y-109474285D01*
X133794428Y-109712380D02*
X133889666Y-109664761D01*
X133984904Y-109569523D01*
X134032523Y-109379047D01*
X134032523Y-109045714D01*
X133984904Y-108855238D01*
X133889666Y-108760000D01*
X133794428Y-108712380D01*
X133603952Y-108712380D01*
X133508714Y-108760000D01*
X133413476Y-108855238D01*
X133365857Y-109045714D01*
X133365857Y-109379047D01*
X133413476Y-109569523D01*
X133508714Y-109664761D01*
X133603952Y-109712380D01*
X133794428Y-109712380D01*
X132508714Y-109045714D02*
X132508714Y-109712380D01*
X132746809Y-108664761D02*
X132984904Y-109379047D01*
X132365857Y-109379047D01*
X133318238Y-114633619D02*
X133413476Y-114586000D01*
X133508714Y-114490761D01*
X133651571Y-114347904D01*
X133746809Y-114300285D01*
X133842047Y-114300285D01*
X133794428Y-114538380D02*
X133889666Y-114490761D01*
X133984904Y-114395523D01*
X134032523Y-114205047D01*
X134032523Y-113871714D01*
X133984904Y-113681238D01*
X133889666Y-113586000D01*
X133794428Y-113538380D01*
X133603952Y-113538380D01*
X133508714Y-113586000D01*
X133413476Y-113681238D01*
X133365857Y-113871714D01*
X133365857Y-114205047D01*
X133413476Y-114395523D01*
X133508714Y-114490761D01*
X133603952Y-114538380D01*
X133794428Y-114538380D01*
X133032523Y-113538380D02*
X132413476Y-113538380D01*
X132746809Y-113919333D01*
X132603952Y-113919333D01*
X132508714Y-113966952D01*
X132461095Y-114014571D01*
X132413476Y-114109809D01*
X132413476Y-114347904D01*
X132461095Y-114443142D01*
X132508714Y-114490761D01*
X132603952Y-114538380D01*
X132889666Y-114538380D01*
X132984904Y-114490761D01*
X133032523Y-114443142D01*
X123177380Y-106086904D02*
X122177380Y-106086904D01*
X122177380Y-106325000D01*
X122225000Y-106467857D01*
X122320238Y-106563095D01*
X122415476Y-106610714D01*
X122605952Y-106658333D01*
X122748809Y-106658333D01*
X122939285Y-106610714D01*
X123034523Y-106563095D01*
X123129761Y-106467857D01*
X123177380Y-106325000D01*
X123177380Y-106086904D01*
X122177380Y-106991666D02*
X122177380Y-107610714D01*
X122558333Y-107277380D01*
X122558333Y-107420238D01*
X122605952Y-107515476D01*
X122653571Y-107563095D01*
X122748809Y-107610714D01*
X122986904Y-107610714D01*
X123082142Y-107563095D01*
X123129761Y-107515476D01*
X123177380Y-107420238D01*
X123177380Y-107134523D01*
X123129761Y-107039285D01*
X123082142Y-106991666D01*
X116637380Y-116736904D02*
X115637380Y-116736904D01*
X115637380Y-116975000D01*
X115685000Y-117117857D01*
X115780238Y-117213095D01*
X115875476Y-117260714D01*
X116065952Y-117308333D01*
X116208809Y-117308333D01*
X116399285Y-117260714D01*
X116494523Y-117213095D01*
X116589761Y-117117857D01*
X116637380Y-116975000D01*
X116637380Y-116736904D01*
X116637380Y-118260714D02*
X116637380Y-117689285D01*
X116637380Y-117975000D02*
X115637380Y-117975000D01*
X115780238Y-117879761D01*
X115875476Y-117784523D01*
X115923095Y-117689285D01*
X133516666Y-122403142D02*
X133564285Y-122450761D01*
X133707142Y-122498380D01*
X133802380Y-122498380D01*
X133945238Y-122450761D01*
X134040476Y-122355523D01*
X134088095Y-122260285D01*
X134135714Y-122069809D01*
X134135714Y-121926952D01*
X134088095Y-121736476D01*
X134040476Y-121641238D01*
X133945238Y-121546000D01*
X133802380Y-121498380D01*
X133707142Y-121498380D01*
X133564285Y-121546000D01*
X133516666Y-121593619D01*
X132659523Y-121498380D02*
X132850000Y-121498380D01*
X132945238Y-121546000D01*
X132992857Y-121593619D01*
X133088095Y-121736476D01*
X133135714Y-121926952D01*
X133135714Y-122307904D01*
X133088095Y-122403142D01*
X133040476Y-122450761D01*
X132945238Y-122498380D01*
X132754761Y-122498380D01*
X132659523Y-122450761D01*
X132611904Y-122403142D01*
X132564285Y-122307904D01*
X132564285Y-122069809D01*
X132611904Y-121974571D01*
X132659523Y-121926952D01*
X132754761Y-121879333D01*
X132945238Y-121879333D01*
X133040476Y-121926952D01*
X133088095Y-121974571D01*
X133135714Y-122069809D01*
X112997142Y-122663333D02*
X113044761Y-122615714D01*
X113092380Y-122472857D01*
X113092380Y-122377619D01*
X113044761Y-122234761D01*
X112949523Y-122139523D01*
X112854285Y-122091904D01*
X112663809Y-122044285D01*
X112520952Y-122044285D01*
X112330476Y-122091904D01*
X112235238Y-122139523D01*
X112140000Y-122234761D01*
X112092380Y-122377619D01*
X112092380Y-122472857D01*
X112140000Y-122615714D01*
X112187619Y-122663333D01*
X112092380Y-123568095D02*
X112092380Y-123091904D01*
X112568571Y-123044285D01*
X112520952Y-123091904D01*
X112473333Y-123187142D01*
X112473333Y-123425238D01*
X112520952Y-123520476D01*
X112568571Y-123568095D01*
X112663809Y-123615714D01*
X112901904Y-123615714D01*
X112997142Y-123568095D01*
X113044761Y-123520476D01*
X113092380Y-123425238D01*
X113092380Y-123187142D01*
X113044761Y-123091904D01*
X112997142Y-123044285D01*
X131437142Y-121303333D02*
X131484761Y-121255714D01*
X131532380Y-121112857D01*
X131532380Y-121017619D01*
X131484761Y-120874761D01*
X131389523Y-120779523D01*
X131294285Y-120731904D01*
X131103809Y-120684285D01*
X130960952Y-120684285D01*
X130770476Y-120731904D01*
X130675238Y-120779523D01*
X130580000Y-120874761D01*
X130532380Y-121017619D01*
X130532380Y-121112857D01*
X130580000Y-121255714D01*
X130627619Y-121303333D01*
X130532380Y-121636666D02*
X130532380Y-122255714D01*
X130913333Y-121922380D01*
X130913333Y-122065238D01*
X130960952Y-122160476D01*
X131008571Y-122208095D01*
X131103809Y-122255714D01*
X131341904Y-122255714D01*
X131437142Y-122208095D01*
X131484761Y-122160476D01*
X131532380Y-122065238D01*
X131532380Y-121779523D01*
X131484761Y-121684285D01*
X131437142Y-121636666D01*
D11*
X126164166Y-98297166D02*
X126397500Y-97963833D01*
X126564166Y-98297166D02*
X126564166Y-97597166D01*
X126297500Y-97597166D01*
X126230833Y-97630500D01*
X126197500Y-97663833D01*
X126164166Y-97730500D01*
X126164166Y-97830500D01*
X126197500Y-97897166D01*
X126230833Y-97930500D01*
X126297500Y-97963833D01*
X126564166Y-97963833D01*
X125930833Y-97597166D02*
X125497500Y-97597166D01*
X125730833Y-97863833D01*
X125630833Y-97863833D01*
X125564166Y-97897166D01*
X125530833Y-97930500D01*
X125497500Y-97997166D01*
X125497500Y-98163833D01*
X125530833Y-98230500D01*
X125564166Y-98263833D01*
X125630833Y-98297166D01*
X125830833Y-98297166D01*
X125897500Y-98263833D01*
X125930833Y-98230500D01*
X126164166Y-104266166D02*
X126397500Y-103932833D01*
X126564166Y-104266166D02*
X126564166Y-103566166D01*
X126297500Y-103566166D01*
X126230833Y-103599500D01*
X126197500Y-103632833D01*
X126164166Y-103699500D01*
X126164166Y-103799500D01*
X126197500Y-103866166D01*
X126230833Y-103899500D01*
X126297500Y-103932833D01*
X126564166Y-103932833D01*
X125897500Y-103632833D02*
X125864166Y-103599500D01*
X125797500Y-103566166D01*
X125630833Y-103566166D01*
X125564166Y-103599500D01*
X125530833Y-103632833D01*
X125497500Y-103699500D01*
X125497500Y-103766166D01*
X125530833Y-103866166D01*
X125930833Y-104266166D01*
X125497500Y-104266166D01*
M02*
