M48
;DRILL file {KiCad 5.0.2-bee76a0~70~ubuntu18.04.1} date ons 29 jan 2020 22:32:47
;FORMAT={-:-/ absolute / inch / decimal}
FMAT,2
INCH,TZ
T1C0.0157
T2C0.0300
T3C0.0315
T4C0.0354
T5C0.0394
T6C0.0433
T7C0.0472
T8C0.1260
%
G90
G05
T1
X3.6Y-3.3
X4.225Y-3.01
X4.28Y-3.1
X4.31Y-3.375
X4.35Y-2.96
X4.4Y-3.065
X4.475Y-3.1
X4.4991Y-2.96
X4.5543Y-3.1735
X4.63Y-3.095
X5.0577Y-2.94
X5.09Y-3.36
T2
X5.8843Y-3.225
X5.8843Y-3.325
X6.1843Y-3.175
X6.1843Y-3.375
X5.8862Y-3.625
X5.8862Y-3.725
X5.8862Y-3.825
X6.1862Y-3.625
X6.1862Y-3.825
T3
X5.45Y-3.3
X5.45Y-3.3984
X5.75Y-3.2266
X5.75Y-3.325
X5.15Y-2.75
X5.15Y-2.8484
X4.025Y-2.95
X4.125Y-2.95
X5.455Y-3.85
X5.455Y-4.25
X3.4Y-2.775
X3.4Y-2.975
X3.7Y-2.775
X3.7Y-2.975
X5.45Y-3.55
X5.45Y-3.6484
X4.Y-2.7266
X4.Y-2.825
X3.17Y-3.055
X3.2684Y-3.055
X5.6Y-3.05
X5.6Y-3.45
X5.75Y-3.6016
X5.75Y-3.7
X5.445Y-3.0216
X5.445Y-3.12
X5.3Y-2.75
X5.3Y-2.85
X4.8Y-3.7
X4.8Y-3.7984
X4.15Y-2.725
X4.15Y-2.8234
X5.315Y-3.85
X5.315Y-4.25
X5.6Y-3.575
X5.6Y-3.6734
X3.85Y-2.8
X3.85Y-3.
T4
X5.65Y-4.17
X5.75Y-4.17
X5.5Y-2.8
X5.6Y-2.8
X5.7Y-2.8
X5.8Y-2.8
T5
X5.Y-3.
X5.Y-3.1
X5.Y-3.2
X5.Y-3.3
X5.Y-3.4
X5.Y-3.5
X5.Y-3.6
X5.Y-3.7
X5.3Y-3.
X5.3Y-3.1
X5.3Y-3.2
X5.3Y-3.3
X5.3Y-3.4
X5.3Y-3.5
X5.3Y-3.6
X5.3Y-3.7
X3.0098Y-3.2
X3.0098Y-3.8
X3.1098Y-3.2
X3.1098Y-3.8
X3.2098Y-3.2
X3.2098Y-3.8
X3.3098Y-3.2
X3.3098Y-3.8
X3.4098Y-3.2
X3.4098Y-3.8
X3.5098Y-3.2
X3.5098Y-3.8
X3.6098Y-3.2
X3.6098Y-3.8
X3.7098Y-3.2
X3.7098Y-3.8
X3.8098Y-3.2
X3.8098Y-3.8
X3.9098Y-3.2
X3.9098Y-3.8
X4.0098Y-3.2
X4.0098Y-3.8
X4.1098Y-3.2
X4.1098Y-3.8
X4.2098Y-3.2
X4.2098Y-3.8
X4.3098Y-3.2
X4.3098Y-3.8
X4.4098Y-3.2
X4.4098Y-3.8
X4.8Y-3.4
X4.8Y-3.5
X4.8Y-3.6
X4.8Y-3.1
X4.8Y-3.2
X4.8Y-3.3
X4.2819Y-4.
X4.3364Y-4.1118
X4.3909Y-4.
X4.4455Y-4.1118
X4.5Y-4.
X4.5545Y-4.1118
X4.6091Y-4.
X4.6636Y-4.1118
X4.7181Y-4.
T6
X5.6Y-3.94
X5.75Y-3.94
X5.75Y-2.975
X5.75Y-3.125
T7
X3.2Y-4.1
X3.3Y-4.1
X3.4Y-4.1
X3.5Y-4.1
X3.6Y-4.1
X3.7Y-4.1
X4.6Y-2.85
X4.7Y-2.85
X4.8Y-2.85
X4.3Y-2.85
X4.4Y-2.85
X4.5Y-2.85
X3.225Y-2.8
X3.225Y-2.9
T8
X4.0079Y-4.0559
X4.9921Y-4.0559
T0
M30
