G04 #@! TF.GenerationSoftware,KiCad,Pcbnew,5.0.2-bee76a0~70~ubuntu18.04.1*
G04 #@! TF.CreationDate,2020-01-29T22:32:52+01:00*
G04 #@! TF.ProjectId,opto_board,6f70746f-5f62-46f6-9172-642e6b696361,rev?*
G04 #@! TF.SameCoordinates,Original*
G04 #@! TF.FileFunction,Legend,Top*
G04 #@! TF.FilePolarity,Positive*
%FSLAX46Y46*%
G04 Gerber Fmt 4.6, Leading zero omitted, Abs format (unit mm)*
G04 Created by KiCad (PCBNEW 5.0.2-bee76a0~70~ubuntu18.04.1) date ons 29 jan 2020 22:32:52*
%MOMM*%
%LPD*%
G01*
G04 APERTURE LIST*
%ADD10C,0.100000*%
%ADD11C,0.200000*%
%ADD12C,0.120000*%
%ADD13C,0.150000*%
G04 APERTURE END LIST*
D10*
X148482095Y-108025714D02*
X148444000Y-107987619D01*
X148405904Y-107911428D01*
X148405904Y-107720952D01*
X148444000Y-107644761D01*
X148482095Y-107606666D01*
X148558285Y-107568571D01*
X148634476Y-107568571D01*
X148748761Y-107606666D01*
X149205904Y-108063809D01*
X149205904Y-107568571D01*
X148405904Y-107073333D02*
X148405904Y-106997142D01*
X148444000Y-106920952D01*
X148482095Y-106882857D01*
X148558285Y-106844761D01*
X148710666Y-106806666D01*
X148901142Y-106806666D01*
X149053523Y-106844761D01*
X149129714Y-106882857D01*
X149167809Y-106920952D01*
X149205904Y-106997142D01*
X149205904Y-107073333D01*
X149167809Y-107149523D01*
X149129714Y-107187619D01*
X149053523Y-107225714D01*
X148901142Y-107263809D01*
X148710666Y-107263809D01*
X148558285Y-107225714D01*
X148482095Y-107187619D01*
X148444000Y-107149523D01*
X148405904Y-107073333D01*
X148482095Y-106501904D02*
X148444000Y-106463809D01*
X148405904Y-106387619D01*
X148405904Y-106197142D01*
X148444000Y-106120952D01*
X148482095Y-106082857D01*
X148558285Y-106044761D01*
X148634476Y-106044761D01*
X148748761Y-106082857D01*
X149205904Y-106540000D01*
X149205904Y-106044761D01*
X148405904Y-105549523D02*
X148405904Y-105473333D01*
X148444000Y-105397142D01*
X148482095Y-105359047D01*
X148558285Y-105320952D01*
X148710666Y-105282857D01*
X148901142Y-105282857D01*
X149053523Y-105320952D01*
X149129714Y-105359047D01*
X149167809Y-105397142D01*
X149205904Y-105473333D01*
X149205904Y-105549523D01*
X149167809Y-105625714D01*
X149129714Y-105663809D01*
X149053523Y-105701904D01*
X148901142Y-105740000D01*
X148710666Y-105740000D01*
X148558285Y-105701904D01*
X148482095Y-105663809D01*
X148444000Y-105625714D01*
X148405904Y-105549523D01*
X148901142Y-104940000D02*
X148901142Y-104330476D01*
X148405904Y-103797142D02*
X148405904Y-103720952D01*
X148444000Y-103644761D01*
X148482095Y-103606666D01*
X148558285Y-103568571D01*
X148710666Y-103530476D01*
X148901142Y-103530476D01*
X149053523Y-103568571D01*
X149129714Y-103606666D01*
X149167809Y-103644761D01*
X149205904Y-103720952D01*
X149205904Y-103797142D01*
X149167809Y-103873333D01*
X149129714Y-103911428D01*
X149053523Y-103949523D01*
X148901142Y-103987619D01*
X148710666Y-103987619D01*
X148558285Y-103949523D01*
X148482095Y-103911428D01*
X148444000Y-103873333D01*
X148405904Y-103797142D01*
X149205904Y-102768571D02*
X149205904Y-103225714D01*
X149205904Y-102997142D02*
X148405904Y-102997142D01*
X148520190Y-103073333D01*
X148596380Y-103149523D01*
X148634476Y-103225714D01*
X148901142Y-102425714D02*
X148901142Y-101816190D01*
X148405904Y-101282857D02*
X148405904Y-101206666D01*
X148444000Y-101130476D01*
X148482095Y-101092380D01*
X148558285Y-101054285D01*
X148710666Y-101016190D01*
X148901142Y-101016190D01*
X149053523Y-101054285D01*
X149129714Y-101092380D01*
X149167809Y-101130476D01*
X149205904Y-101206666D01*
X149205904Y-101282857D01*
X149167809Y-101359047D01*
X149129714Y-101397142D01*
X149053523Y-101435238D01*
X148901142Y-101473333D01*
X148710666Y-101473333D01*
X148558285Y-101435238D01*
X148482095Y-101397142D01*
X148444000Y-101359047D01*
X148405904Y-101282857D01*
X148405904Y-100330476D02*
X148405904Y-100482857D01*
X148444000Y-100559047D01*
X148482095Y-100597142D01*
X148596380Y-100673333D01*
X148748761Y-100711428D01*
X149053523Y-100711428D01*
X149129714Y-100673333D01*
X149167809Y-100635238D01*
X149205904Y-100559047D01*
X149205904Y-100406666D01*
X149167809Y-100330476D01*
X149129714Y-100292380D01*
X149053523Y-100254285D01*
X148863047Y-100254285D01*
X148786857Y-100292380D01*
X148748761Y-100330476D01*
X148710666Y-100406666D01*
X148710666Y-100559047D01*
X148748761Y-100635238D01*
X148786857Y-100673333D01*
X148863047Y-100711428D01*
X73920476Y-99421904D02*
X73920476Y-98621904D01*
X74377619Y-99421904D01*
X74377619Y-98621904D01*
X75215714Y-99345714D02*
X75177619Y-99383809D01*
X75063333Y-99421904D01*
X74987142Y-99421904D01*
X74872857Y-99383809D01*
X74796666Y-99307619D01*
X74758571Y-99231428D01*
X74720476Y-99079047D01*
X74720476Y-98964761D01*
X74758571Y-98812380D01*
X74796666Y-98736190D01*
X74872857Y-98660000D01*
X74987142Y-98621904D01*
X75063333Y-98621904D01*
X75177619Y-98660000D01*
X75215714Y-98698095D01*
X75482380Y-98621904D02*
X75977619Y-98621904D01*
X75710952Y-98926666D01*
X75825238Y-98926666D01*
X75901428Y-98964761D01*
X75939523Y-99002857D01*
X75977619Y-99079047D01*
X75977619Y-99269523D01*
X75939523Y-99345714D01*
X75901428Y-99383809D01*
X75825238Y-99421904D01*
X75596666Y-99421904D01*
X75520476Y-99383809D01*
X75482380Y-99345714D01*
X73920476Y-79101904D02*
X73920476Y-78301904D01*
X74377619Y-79101904D01*
X74377619Y-78301904D01*
X75215714Y-79025714D02*
X75177619Y-79063809D01*
X75063333Y-79101904D01*
X74987142Y-79101904D01*
X74872857Y-79063809D01*
X74796666Y-78987619D01*
X74758571Y-78911428D01*
X74720476Y-78759047D01*
X74720476Y-78644761D01*
X74758571Y-78492380D01*
X74796666Y-78416190D01*
X74872857Y-78340000D01*
X74987142Y-78301904D01*
X75063333Y-78301904D01*
X75177619Y-78340000D01*
X75215714Y-78378095D01*
X75901428Y-78568571D02*
X75901428Y-79101904D01*
X75710952Y-78263809D02*
X75520476Y-78835238D01*
X76015714Y-78835238D01*
X130988571Y-109683571D02*
X131140952Y-110216904D01*
X131293333Y-109835952D01*
X131445714Y-110216904D01*
X131598095Y-109683571D01*
X131826666Y-109683571D02*
X131979047Y-110216904D01*
X132131428Y-109835952D01*
X132283809Y-110216904D01*
X132436190Y-109683571D01*
X132664761Y-109683571D02*
X132817142Y-110216904D01*
X132969523Y-109835952D01*
X133121904Y-110216904D01*
X133274285Y-109683571D01*
X133579047Y-110140714D02*
X133617142Y-110178809D01*
X133579047Y-110216904D01*
X133540952Y-110178809D01*
X133579047Y-110140714D01*
X133579047Y-110216904D01*
X134264761Y-110178809D02*
X134188571Y-110216904D01*
X134036190Y-110216904D01*
X133960000Y-110178809D01*
X133921904Y-110102619D01*
X133921904Y-109797857D01*
X133960000Y-109721666D01*
X134036190Y-109683571D01*
X134188571Y-109683571D01*
X134264761Y-109721666D01*
X134302857Y-109797857D01*
X134302857Y-109874047D01*
X133921904Y-109950238D01*
X134645714Y-110216904D02*
X134645714Y-109683571D01*
X134645714Y-109416904D02*
X134607619Y-109455000D01*
X134645714Y-109493095D01*
X134683809Y-109455000D01*
X134645714Y-109416904D01*
X134645714Y-109493095D01*
X134912380Y-109683571D02*
X135217142Y-109683571D01*
X135026666Y-109416904D02*
X135026666Y-110102619D01*
X135064761Y-110178809D01*
X135140952Y-110216904D01*
X135217142Y-110216904D01*
X135483809Y-110140714D02*
X135521904Y-110178809D01*
X135483809Y-110216904D01*
X135445714Y-110178809D01*
X135483809Y-110140714D01*
X135483809Y-110216904D01*
X135826666Y-110178809D02*
X135902857Y-110216904D01*
X136055238Y-110216904D01*
X136131428Y-110178809D01*
X136169523Y-110102619D01*
X136169523Y-110064523D01*
X136131428Y-109988333D01*
X136055238Y-109950238D01*
X135940952Y-109950238D01*
X135864761Y-109912142D01*
X135826666Y-109835952D01*
X135826666Y-109797857D01*
X135864761Y-109721666D01*
X135940952Y-109683571D01*
X136055238Y-109683571D01*
X136131428Y-109721666D01*
X136817142Y-110178809D02*
X136740952Y-110216904D01*
X136588571Y-110216904D01*
X136512380Y-110178809D01*
X136474285Y-110102619D01*
X136474285Y-109797857D01*
X136512380Y-109721666D01*
X136588571Y-109683571D01*
X136740952Y-109683571D01*
X136817142Y-109721666D01*
X136855238Y-109797857D01*
X136855238Y-109874047D01*
X136474285Y-109950238D01*
X137769523Y-109378809D02*
X137083809Y-110407380D01*
X138379047Y-110216904D02*
X138379047Y-109416904D01*
X138379047Y-110178809D02*
X138302857Y-110216904D01*
X138150476Y-110216904D01*
X138074285Y-110178809D01*
X138036190Y-110140714D01*
X137998095Y-110064523D01*
X137998095Y-109835952D01*
X138036190Y-109759761D01*
X138074285Y-109721666D01*
X138150476Y-109683571D01*
X138302857Y-109683571D01*
X138379047Y-109721666D01*
X138760000Y-110216904D02*
X138760000Y-109683571D01*
X138760000Y-109416904D02*
X138721904Y-109455000D01*
X138760000Y-109493095D01*
X138798095Y-109455000D01*
X138760000Y-109416904D01*
X138760000Y-109493095D01*
X139445714Y-110178809D02*
X139369523Y-110216904D01*
X139217142Y-110216904D01*
X139140952Y-110178809D01*
X139102857Y-110102619D01*
X139102857Y-109797857D01*
X139140952Y-109721666D01*
X139217142Y-109683571D01*
X139369523Y-109683571D01*
X139445714Y-109721666D01*
X139483809Y-109797857D01*
X139483809Y-109874047D01*
X139102857Y-109950238D01*
X139940952Y-110216904D02*
X139864761Y-110178809D01*
X139826666Y-110102619D01*
X139826666Y-109416904D01*
X140550476Y-110178809D02*
X140474285Y-110216904D01*
X140321904Y-110216904D01*
X140245714Y-110178809D01*
X140207619Y-110102619D01*
X140207619Y-109797857D01*
X140245714Y-109721666D01*
X140321904Y-109683571D01*
X140474285Y-109683571D01*
X140550476Y-109721666D01*
X140588571Y-109797857D01*
X140588571Y-109874047D01*
X140207619Y-109950238D01*
X141274285Y-110178809D02*
X141198095Y-110216904D01*
X141045714Y-110216904D01*
X140969523Y-110178809D01*
X140931428Y-110140714D01*
X140893333Y-110064523D01*
X140893333Y-109835952D01*
X140931428Y-109759761D01*
X140969523Y-109721666D01*
X141045714Y-109683571D01*
X141198095Y-109683571D01*
X141274285Y-109721666D01*
X141502857Y-109683571D02*
X141807619Y-109683571D01*
X141617142Y-109416904D02*
X141617142Y-110102619D01*
X141655238Y-110178809D01*
X141731428Y-110216904D01*
X141807619Y-110216904D01*
X142074285Y-110216904D02*
X142074285Y-109683571D01*
X142074285Y-109835952D02*
X142112380Y-109759761D01*
X142150476Y-109721666D01*
X142226666Y-109683571D01*
X142302857Y-109683571D01*
X142569523Y-110216904D02*
X142569523Y-109683571D01*
X142569523Y-109416904D02*
X142531428Y-109455000D01*
X142569523Y-109493095D01*
X142607619Y-109455000D01*
X142569523Y-109416904D01*
X142569523Y-109493095D01*
X143293333Y-110178809D02*
X143217142Y-110216904D01*
X143064761Y-110216904D01*
X142988571Y-110178809D01*
X142950476Y-110140714D01*
X142912380Y-110064523D01*
X142912380Y-109835952D01*
X142950476Y-109759761D01*
X142988571Y-109721666D01*
X143064761Y-109683571D01*
X143217142Y-109683571D01*
X143293333Y-109721666D01*
X78823809Y-109581904D02*
X78557142Y-109200952D01*
X78366666Y-109581904D02*
X78366666Y-108781904D01*
X78671428Y-108781904D01*
X78747619Y-108820000D01*
X78785714Y-108858095D01*
X78823809Y-108934285D01*
X78823809Y-109048571D01*
X78785714Y-109124761D01*
X78747619Y-109162857D01*
X78671428Y-109200952D01*
X78366666Y-109200952D01*
X79128571Y-109543809D02*
X79242857Y-109581904D01*
X79433333Y-109581904D01*
X79509523Y-109543809D01*
X79547619Y-109505714D01*
X79585714Y-109429523D01*
X79585714Y-109353333D01*
X79547619Y-109277142D01*
X79509523Y-109239047D01*
X79433333Y-109200952D01*
X79280952Y-109162857D01*
X79204761Y-109124761D01*
X79166666Y-109086666D01*
X79128571Y-109010476D01*
X79128571Y-108934285D01*
X79166666Y-108858095D01*
X79204761Y-108820000D01*
X79280952Y-108781904D01*
X79471428Y-108781904D01*
X79585714Y-108820000D01*
X79928571Y-109277142D02*
X80538095Y-109277142D01*
X80880952Y-108858095D02*
X80919047Y-108820000D01*
X80995238Y-108781904D01*
X81185714Y-108781904D01*
X81261904Y-108820000D01*
X81300000Y-108858095D01*
X81338095Y-108934285D01*
X81338095Y-109010476D01*
X81300000Y-109124761D01*
X80842857Y-109581904D01*
X81338095Y-109581904D01*
X81604761Y-108781904D02*
X82100000Y-108781904D01*
X81833333Y-109086666D01*
X81947619Y-109086666D01*
X82023809Y-109124761D01*
X82061904Y-109162857D01*
X82100000Y-109239047D01*
X82100000Y-109429523D01*
X82061904Y-109505714D01*
X82023809Y-109543809D01*
X81947619Y-109581904D01*
X81719047Y-109581904D01*
X81642857Y-109543809D01*
X81604761Y-109505714D01*
X82404761Y-108858095D02*
X82442857Y-108820000D01*
X82519047Y-108781904D01*
X82709523Y-108781904D01*
X82785714Y-108820000D01*
X82823809Y-108858095D01*
X82861904Y-108934285D01*
X82861904Y-109010476D01*
X82823809Y-109124761D01*
X82366666Y-109581904D01*
X82861904Y-109581904D01*
X83966666Y-108781904D02*
X84119047Y-108781904D01*
X84195238Y-108820000D01*
X84271428Y-108896190D01*
X84309523Y-109048571D01*
X84309523Y-109315238D01*
X84271428Y-109467619D01*
X84195238Y-109543809D01*
X84119047Y-109581904D01*
X83966666Y-109581904D01*
X83890476Y-109543809D01*
X83814285Y-109467619D01*
X83776190Y-109315238D01*
X83776190Y-109048571D01*
X83814285Y-108896190D01*
X83890476Y-108820000D01*
X83966666Y-108781904D01*
X84652380Y-109048571D02*
X84652380Y-109848571D01*
X84652380Y-109086666D02*
X84728571Y-109048571D01*
X84880952Y-109048571D01*
X84957142Y-109086666D01*
X84995238Y-109124761D01*
X85033333Y-109200952D01*
X85033333Y-109429523D01*
X84995238Y-109505714D01*
X84957142Y-109543809D01*
X84880952Y-109581904D01*
X84728571Y-109581904D01*
X84652380Y-109543809D01*
X85261904Y-109048571D02*
X85566666Y-109048571D01*
X85376190Y-108781904D02*
X85376190Y-109467619D01*
X85414285Y-109543809D01*
X85490476Y-109581904D01*
X85566666Y-109581904D01*
X85947619Y-109581904D02*
X85871428Y-109543809D01*
X85833333Y-109505714D01*
X85795238Y-109429523D01*
X85795238Y-109200952D01*
X85833333Y-109124761D01*
X85871428Y-109086666D01*
X85947619Y-109048571D01*
X86061904Y-109048571D01*
X86138095Y-109086666D01*
X86176190Y-109124761D01*
X86214285Y-109200952D01*
X86214285Y-109429523D01*
X86176190Y-109505714D01*
X86138095Y-109543809D01*
X86061904Y-109581904D01*
X85947619Y-109581904D01*
X87509523Y-109581904D02*
X87509523Y-109162857D01*
X87471428Y-109086666D01*
X87395238Y-109048571D01*
X87242857Y-109048571D01*
X87166666Y-109086666D01*
X87509523Y-109543809D02*
X87433333Y-109581904D01*
X87242857Y-109581904D01*
X87166666Y-109543809D01*
X87128571Y-109467619D01*
X87128571Y-109391428D01*
X87166666Y-109315238D01*
X87242857Y-109277142D01*
X87433333Y-109277142D01*
X87509523Y-109239047D01*
X88233333Y-109581904D02*
X88233333Y-108781904D01*
X88233333Y-109543809D02*
X88157142Y-109581904D01*
X88004761Y-109581904D01*
X87928571Y-109543809D01*
X87890476Y-109505714D01*
X87852380Y-109429523D01*
X87852380Y-109200952D01*
X87890476Y-109124761D01*
X87928571Y-109086666D01*
X88004761Y-109048571D01*
X88157142Y-109048571D01*
X88233333Y-109086666D01*
X88957142Y-109581904D02*
X88957142Y-109162857D01*
X88919047Y-109086666D01*
X88842857Y-109048571D01*
X88690476Y-109048571D01*
X88614285Y-109086666D01*
X88957142Y-109543809D02*
X88880952Y-109581904D01*
X88690476Y-109581904D01*
X88614285Y-109543809D01*
X88576190Y-109467619D01*
X88576190Y-109391428D01*
X88614285Y-109315238D01*
X88690476Y-109277142D01*
X88880952Y-109277142D01*
X88957142Y-109239047D01*
X89338095Y-109048571D02*
X89338095Y-109848571D01*
X89338095Y-109086666D02*
X89414285Y-109048571D01*
X89566666Y-109048571D01*
X89642857Y-109086666D01*
X89680952Y-109124761D01*
X89719047Y-109200952D01*
X89719047Y-109429523D01*
X89680952Y-109505714D01*
X89642857Y-109543809D01*
X89566666Y-109581904D01*
X89414285Y-109581904D01*
X89338095Y-109543809D01*
X89947619Y-109048571D02*
X90252380Y-109048571D01*
X90061904Y-108781904D02*
X90061904Y-109467619D01*
X90100000Y-109543809D01*
X90176190Y-109581904D01*
X90252380Y-109581904D01*
X90823809Y-109543809D02*
X90747619Y-109581904D01*
X90595238Y-109581904D01*
X90519047Y-109543809D01*
X90480952Y-109467619D01*
X90480952Y-109162857D01*
X90519047Y-109086666D01*
X90595238Y-109048571D01*
X90747619Y-109048571D01*
X90823809Y-109086666D01*
X90861904Y-109162857D01*
X90861904Y-109239047D01*
X90480952Y-109315238D01*
X91204761Y-109581904D02*
X91204761Y-109048571D01*
X91204761Y-109200952D02*
X91242857Y-109124761D01*
X91280952Y-109086666D01*
X91357142Y-109048571D01*
X91433333Y-109048571D01*
X92309523Y-109048571D02*
X92309523Y-109581904D01*
X92309523Y-109124761D02*
X92347619Y-109086666D01*
X92423809Y-109048571D01*
X92538095Y-109048571D01*
X92614285Y-109086666D01*
X92652380Y-109162857D01*
X92652380Y-109581904D01*
X93376190Y-109048571D02*
X93376190Y-109581904D01*
X93033333Y-109048571D02*
X93033333Y-109467619D01*
X93071428Y-109543809D01*
X93147619Y-109581904D01*
X93261904Y-109581904D01*
X93338095Y-109543809D01*
X93376190Y-109505714D01*
X94100000Y-109543809D02*
X94023809Y-109581904D01*
X93871428Y-109581904D01*
X93795238Y-109543809D01*
X93757142Y-109505714D01*
X93719047Y-109429523D01*
X93719047Y-109200952D01*
X93757142Y-109124761D01*
X93795238Y-109086666D01*
X93871428Y-109048571D01*
X94023809Y-109048571D01*
X94100000Y-109086666D01*
X94557142Y-109581904D02*
X94480952Y-109543809D01*
X94442857Y-109467619D01*
X94442857Y-108781904D01*
X95166666Y-109543809D02*
X95090476Y-109581904D01*
X94938095Y-109581904D01*
X94861904Y-109543809D01*
X94823809Y-109467619D01*
X94823809Y-109162857D01*
X94861904Y-109086666D01*
X94938095Y-109048571D01*
X95090476Y-109048571D01*
X95166666Y-109086666D01*
X95204761Y-109162857D01*
X95204761Y-109239047D01*
X94823809Y-109315238D01*
X95661904Y-109581904D02*
X95585714Y-109543809D01*
X95547619Y-109505714D01*
X95509523Y-109429523D01*
X95509523Y-109200952D01*
X95547619Y-109124761D01*
X95585714Y-109086666D01*
X95661904Y-109048571D01*
X95776190Y-109048571D01*
X95852380Y-109086666D01*
X95890476Y-109124761D01*
X95928571Y-109200952D01*
X95928571Y-109429523D01*
X95890476Y-109505714D01*
X95852380Y-109543809D01*
X95776190Y-109581904D01*
X95661904Y-109581904D01*
X96766666Y-109048571D02*
X97071428Y-109048571D01*
X96880952Y-108781904D02*
X96880952Y-109467619D01*
X96919047Y-109543809D01*
X96995238Y-109581904D01*
X97071428Y-109581904D01*
X97642857Y-109543809D02*
X97566666Y-109581904D01*
X97414285Y-109581904D01*
X97338095Y-109543809D01*
X97300000Y-109467619D01*
X97300000Y-109162857D01*
X97338095Y-109086666D01*
X97414285Y-109048571D01*
X97566666Y-109048571D01*
X97642857Y-109086666D01*
X97680952Y-109162857D01*
X97680952Y-109239047D01*
X97300000Y-109315238D01*
X98023809Y-109581904D02*
X98023809Y-109048571D01*
X98023809Y-109124761D02*
X98061904Y-109086666D01*
X98138095Y-109048571D01*
X98252380Y-109048571D01*
X98328571Y-109086666D01*
X98366666Y-109162857D01*
X98366666Y-109581904D01*
X98366666Y-109162857D02*
X98404761Y-109086666D01*
X98480952Y-109048571D01*
X98595238Y-109048571D01*
X98671428Y-109086666D01*
X98709523Y-109162857D01*
X98709523Y-109581904D01*
X99090476Y-109048571D02*
X99090476Y-109848571D01*
X99090476Y-109086666D02*
X99166666Y-109048571D01*
X99319047Y-109048571D01*
X99395238Y-109086666D01*
X99433333Y-109124761D01*
X99471428Y-109200952D01*
X99471428Y-109429523D01*
X99433333Y-109505714D01*
X99395238Y-109543809D01*
X99319047Y-109581904D01*
X99166666Y-109581904D01*
X99090476Y-109543809D01*
D11*
X158750000Y-88900000D02*
X69850000Y-88900000D01*
X114300000Y-109855000D02*
X114300000Y-68580000D01*
D10*
X108757142Y-107585714D02*
X108719047Y-107623809D01*
X108604761Y-107661904D01*
X108528571Y-107661904D01*
X108414285Y-107623809D01*
X108338095Y-107547619D01*
X108300000Y-107471428D01*
X108261904Y-107319047D01*
X108261904Y-107204761D01*
X108300000Y-107052380D01*
X108338095Y-106976190D01*
X108414285Y-106900000D01*
X108528571Y-106861904D01*
X108604761Y-106861904D01*
X108719047Y-106900000D01*
X108757142Y-106938095D01*
X109214285Y-107661904D02*
X109138095Y-107623809D01*
X109100000Y-107585714D01*
X109061904Y-107509523D01*
X109061904Y-107280952D01*
X109100000Y-107204761D01*
X109138095Y-107166666D01*
X109214285Y-107128571D01*
X109328571Y-107128571D01*
X109404761Y-107166666D01*
X109442857Y-107204761D01*
X109480952Y-107280952D01*
X109480952Y-107509523D01*
X109442857Y-107585714D01*
X109404761Y-107623809D01*
X109328571Y-107661904D01*
X109214285Y-107661904D01*
X109823809Y-107128571D02*
X109823809Y-107928571D01*
X109823809Y-107166666D02*
X109900000Y-107128571D01*
X110052380Y-107128571D01*
X110128571Y-107166666D01*
X110166666Y-107204761D01*
X110204761Y-107280952D01*
X110204761Y-107509523D01*
X110166666Y-107585714D01*
X110128571Y-107623809D01*
X110052380Y-107661904D01*
X109900000Y-107661904D01*
X109823809Y-107623809D01*
X110471428Y-107128571D02*
X110661904Y-107661904D01*
X110852380Y-107128571D02*
X110661904Y-107661904D01*
X110585714Y-107852380D01*
X110547619Y-107890476D01*
X110471428Y-107928571D01*
X111157142Y-107661904D02*
X111157142Y-107128571D01*
X111157142Y-107280952D02*
X111195238Y-107204761D01*
X111233333Y-107166666D01*
X111309523Y-107128571D01*
X111385714Y-107128571D01*
X111652380Y-107661904D02*
X111652380Y-107128571D01*
X111652380Y-106861904D02*
X111614285Y-106900000D01*
X111652380Y-106938095D01*
X111690476Y-106900000D01*
X111652380Y-106861904D01*
X111652380Y-106938095D01*
X112376190Y-107128571D02*
X112376190Y-107776190D01*
X112338095Y-107852380D01*
X112300000Y-107890476D01*
X112223809Y-107928571D01*
X112109523Y-107928571D01*
X112033333Y-107890476D01*
X112376190Y-107623809D02*
X112300000Y-107661904D01*
X112147619Y-107661904D01*
X112071428Y-107623809D01*
X112033333Y-107585714D01*
X111995238Y-107509523D01*
X111995238Y-107280952D01*
X112033333Y-107204761D01*
X112071428Y-107166666D01*
X112147619Y-107128571D01*
X112300000Y-107128571D01*
X112376190Y-107166666D01*
X112757142Y-107661904D02*
X112757142Y-106861904D01*
X113100000Y-107661904D02*
X113100000Y-107242857D01*
X113061904Y-107166666D01*
X112985714Y-107128571D01*
X112871428Y-107128571D01*
X112795238Y-107166666D01*
X112757142Y-107204761D01*
X113366666Y-107128571D02*
X113671428Y-107128571D01*
X113480952Y-106861904D02*
X113480952Y-107547619D01*
X113519047Y-107623809D01*
X113595238Y-107661904D01*
X113671428Y-107661904D01*
X114776190Y-107966666D02*
X114738095Y-107928571D01*
X114661904Y-107814285D01*
X114623809Y-107738095D01*
X114585714Y-107623809D01*
X114547619Y-107433333D01*
X114547619Y-107280952D01*
X114585714Y-107090476D01*
X114623809Y-106976190D01*
X114661904Y-106900000D01*
X114738095Y-106785714D01*
X114776190Y-106747619D01*
X115538095Y-107585714D02*
X115500000Y-107623809D01*
X115385714Y-107661904D01*
X115309523Y-107661904D01*
X115195238Y-107623809D01*
X115119047Y-107547619D01*
X115080952Y-107471428D01*
X115042857Y-107319047D01*
X115042857Y-107204761D01*
X115080952Y-107052380D01*
X115119047Y-106976190D01*
X115195238Y-106900000D01*
X115309523Y-106861904D01*
X115385714Y-106861904D01*
X115500000Y-106900000D01*
X115538095Y-106938095D01*
X115804761Y-107966666D02*
X115842857Y-107928571D01*
X115919047Y-107814285D01*
X115957142Y-107738095D01*
X115995238Y-107623809D01*
X116033333Y-107433333D01*
X116033333Y-107280952D01*
X115995238Y-107090476D01*
X115957142Y-106976190D01*
X115919047Y-106900000D01*
X115842857Y-106785714D01*
X115804761Y-106747619D01*
X116985714Y-106938095D02*
X117023809Y-106900000D01*
X117100000Y-106861904D01*
X117290476Y-106861904D01*
X117366666Y-106900000D01*
X117404761Y-106938095D01*
X117442857Y-107014285D01*
X117442857Y-107090476D01*
X117404761Y-107204761D01*
X116947619Y-107661904D01*
X117442857Y-107661904D01*
X117938095Y-106861904D02*
X118014285Y-106861904D01*
X118090476Y-106900000D01*
X118128571Y-106938095D01*
X118166666Y-107014285D01*
X118204761Y-107166666D01*
X118204761Y-107357142D01*
X118166666Y-107509523D01*
X118128571Y-107585714D01*
X118090476Y-107623809D01*
X118014285Y-107661904D01*
X117938095Y-107661904D01*
X117861904Y-107623809D01*
X117823809Y-107585714D01*
X117785714Y-107509523D01*
X117747619Y-107357142D01*
X117747619Y-107166666D01*
X117785714Y-107014285D01*
X117823809Y-106938095D01*
X117861904Y-106900000D01*
X117938095Y-106861904D01*
X118509523Y-106938095D02*
X118547619Y-106900000D01*
X118623809Y-106861904D01*
X118814285Y-106861904D01*
X118890476Y-106900000D01*
X118928571Y-106938095D01*
X118966666Y-107014285D01*
X118966666Y-107090476D01*
X118928571Y-107204761D01*
X118471428Y-107661904D01*
X118966666Y-107661904D01*
X119461904Y-106861904D02*
X119538095Y-106861904D01*
X119614285Y-106900000D01*
X119652380Y-106938095D01*
X119690476Y-107014285D01*
X119728571Y-107166666D01*
X119728571Y-107357142D01*
X119690476Y-107509523D01*
X119652380Y-107585714D01*
X119614285Y-107623809D01*
X119538095Y-107661904D01*
X119461904Y-107661904D01*
X119385714Y-107623809D01*
X119347619Y-107585714D01*
X119309523Y-107509523D01*
X119271428Y-107357142D01*
X119271428Y-107166666D01*
X119309523Y-107014285D01*
X119347619Y-106938095D01*
X119385714Y-106900000D01*
X119461904Y-106861904D01*
X105004761Y-108961904D02*
X105004761Y-108161904D01*
X105004761Y-108542857D02*
X105461904Y-108542857D01*
X105461904Y-108961904D02*
X105461904Y-108161904D01*
X106147619Y-108923809D02*
X106071428Y-108961904D01*
X105919047Y-108961904D01*
X105842857Y-108923809D01*
X105804761Y-108847619D01*
X105804761Y-108542857D01*
X105842857Y-108466666D01*
X105919047Y-108428571D01*
X106071428Y-108428571D01*
X106147619Y-108466666D01*
X106185714Y-108542857D01*
X106185714Y-108619047D01*
X105804761Y-108695238D01*
X106528571Y-108428571D02*
X106528571Y-108961904D01*
X106528571Y-108504761D02*
X106566666Y-108466666D01*
X106642857Y-108428571D01*
X106757142Y-108428571D01*
X106833333Y-108466666D01*
X106871428Y-108542857D01*
X106871428Y-108961904D01*
X107252380Y-108961904D02*
X107252380Y-108428571D01*
X107252380Y-108580952D02*
X107290476Y-108504761D01*
X107328571Y-108466666D01*
X107404761Y-108428571D01*
X107480952Y-108428571D01*
X107747619Y-108961904D02*
X107747619Y-108428571D01*
X107747619Y-108161904D02*
X107709523Y-108200000D01*
X107747619Y-108238095D01*
X107785714Y-108200000D01*
X107747619Y-108161904D01*
X107747619Y-108238095D01*
X108128571Y-108961904D02*
X108128571Y-108161904D01*
X108204761Y-108657142D02*
X108433333Y-108961904D01*
X108433333Y-108428571D02*
X108128571Y-108733333D01*
X109652380Y-108542857D02*
X109766666Y-108580952D01*
X109804761Y-108619047D01*
X109842857Y-108695238D01*
X109842857Y-108809523D01*
X109804761Y-108885714D01*
X109766666Y-108923809D01*
X109690476Y-108961904D01*
X109385714Y-108961904D01*
X109385714Y-108161904D01*
X109652380Y-108161904D01*
X109728571Y-108200000D01*
X109766666Y-108238095D01*
X109804761Y-108314285D01*
X109804761Y-108390476D01*
X109766666Y-108466666D01*
X109728571Y-108504761D01*
X109652380Y-108542857D01*
X109385714Y-108542857D01*
X110185714Y-108428571D02*
X110185714Y-109114285D01*
X110147619Y-109190476D01*
X110071428Y-109228571D01*
X110033333Y-109228571D01*
X110185714Y-108161904D02*
X110147619Y-108200000D01*
X110185714Y-108238095D01*
X110223809Y-108200000D01*
X110185714Y-108161904D01*
X110185714Y-108238095D01*
X110680952Y-108961904D02*
X110604761Y-108923809D01*
X110566666Y-108885714D01*
X110528571Y-108809523D01*
X110528571Y-108580952D01*
X110566666Y-108504761D01*
X110604761Y-108466666D01*
X110680952Y-108428571D01*
X110795238Y-108428571D01*
X110871428Y-108466666D01*
X110909523Y-108504761D01*
X110947619Y-108580952D01*
X110947619Y-108809523D01*
X110909523Y-108885714D01*
X110871428Y-108923809D01*
X110795238Y-108961904D01*
X110680952Y-108961904D01*
X110604761Y-108161904D02*
X110642857Y-108200000D01*
X110604761Y-108238095D01*
X110566666Y-108200000D01*
X110604761Y-108161904D01*
X110604761Y-108238095D01*
X110909523Y-108161904D02*
X110947619Y-108200000D01*
X110909523Y-108238095D01*
X110871428Y-108200000D01*
X110909523Y-108161904D01*
X110909523Y-108238095D01*
X111290476Y-108961904D02*
X111290476Y-108428571D01*
X111290476Y-108580952D02*
X111328571Y-108504761D01*
X111366666Y-108466666D01*
X111442857Y-108428571D01*
X111519047Y-108428571D01*
X111785714Y-108961904D02*
X111785714Y-108161904D01*
X111861904Y-108657142D02*
X112090476Y-108961904D01*
X112090476Y-108428571D02*
X111785714Y-108733333D01*
X112433333Y-108961904D02*
X112433333Y-108428571D01*
X112433333Y-108504761D02*
X112471428Y-108466666D01*
X112547619Y-108428571D01*
X112661904Y-108428571D01*
X112738095Y-108466666D01*
X112776190Y-108542857D01*
X112776190Y-108961904D01*
X112776190Y-108542857D02*
X112814285Y-108466666D01*
X112890476Y-108428571D01*
X113004761Y-108428571D01*
X113080952Y-108466666D01*
X113119047Y-108542857D01*
X113119047Y-108961904D01*
X113842857Y-108961904D02*
X113842857Y-108542857D01*
X113804761Y-108466666D01*
X113728571Y-108428571D01*
X113576190Y-108428571D01*
X113500000Y-108466666D01*
X113842857Y-108923809D02*
X113766666Y-108961904D01*
X113576190Y-108961904D01*
X113500000Y-108923809D01*
X113461904Y-108847619D01*
X113461904Y-108771428D01*
X113500000Y-108695238D01*
X113576190Y-108657142D01*
X113766666Y-108657142D01*
X113842857Y-108619047D01*
X114223809Y-108428571D02*
X114223809Y-108961904D01*
X114223809Y-108504761D02*
X114261904Y-108466666D01*
X114338095Y-108428571D01*
X114452380Y-108428571D01*
X114528571Y-108466666D01*
X114566666Y-108542857D01*
X114566666Y-108961904D01*
X115480952Y-108428571D02*
X115633333Y-108961904D01*
X115785714Y-108580952D01*
X115938095Y-108961904D01*
X116090476Y-108428571D01*
X116319047Y-108428571D02*
X116471428Y-108961904D01*
X116623809Y-108580952D01*
X116776190Y-108961904D01*
X116928571Y-108428571D01*
X117157142Y-108428571D02*
X117309523Y-108961904D01*
X117461904Y-108580952D01*
X117614285Y-108961904D01*
X117766666Y-108428571D01*
X118071428Y-108885714D02*
X118109523Y-108923809D01*
X118071428Y-108961904D01*
X118033333Y-108923809D01*
X118071428Y-108885714D01*
X118071428Y-108961904D01*
X118757142Y-108923809D02*
X118680952Y-108961904D01*
X118528571Y-108961904D01*
X118452380Y-108923809D01*
X118414285Y-108847619D01*
X118414285Y-108542857D01*
X118452380Y-108466666D01*
X118528571Y-108428571D01*
X118680952Y-108428571D01*
X118757142Y-108466666D01*
X118795238Y-108542857D01*
X118795238Y-108619047D01*
X118414285Y-108695238D01*
X119138095Y-108961904D02*
X119138095Y-108428571D01*
X119138095Y-108161904D02*
X119100000Y-108200000D01*
X119138095Y-108238095D01*
X119176190Y-108200000D01*
X119138095Y-108161904D01*
X119138095Y-108238095D01*
X119404761Y-108428571D02*
X119709523Y-108428571D01*
X119519047Y-108161904D02*
X119519047Y-108847619D01*
X119557142Y-108923809D01*
X119633333Y-108961904D01*
X119709523Y-108961904D01*
X119976190Y-108885714D02*
X120014285Y-108923809D01*
X119976190Y-108961904D01*
X119938095Y-108923809D01*
X119976190Y-108885714D01*
X119976190Y-108961904D01*
X120319047Y-108923809D02*
X120395238Y-108961904D01*
X120547619Y-108961904D01*
X120623809Y-108923809D01*
X120661904Y-108847619D01*
X120661904Y-108809523D01*
X120623809Y-108733333D01*
X120547619Y-108695238D01*
X120433333Y-108695238D01*
X120357142Y-108657142D01*
X120319047Y-108580952D01*
X120319047Y-108542857D01*
X120357142Y-108466666D01*
X120433333Y-108428571D01*
X120547619Y-108428571D01*
X120623809Y-108466666D01*
X121309523Y-108923809D02*
X121233333Y-108961904D01*
X121080952Y-108961904D01*
X121004761Y-108923809D01*
X120966666Y-108847619D01*
X120966666Y-108542857D01*
X121004761Y-108466666D01*
X121080952Y-108428571D01*
X121233333Y-108428571D01*
X121309523Y-108466666D01*
X121347619Y-108542857D01*
X121347619Y-108619047D01*
X120966666Y-108695238D01*
X122261904Y-108123809D02*
X121576190Y-109152380D01*
X122528571Y-108961904D02*
X122528571Y-108161904D01*
X122871428Y-108961904D02*
X122871428Y-108542857D01*
X122833333Y-108466666D01*
X122757142Y-108428571D01*
X122642857Y-108428571D01*
X122566666Y-108466666D01*
X122528571Y-108504761D01*
X123252380Y-108961904D02*
X123252380Y-108161904D01*
X123252380Y-108466666D02*
X123328571Y-108428571D01*
X123480952Y-108428571D01*
X123557142Y-108466666D01*
X123595238Y-108504761D01*
X123633333Y-108580952D01*
X123633333Y-108809523D01*
X123595238Y-108885714D01*
X123557142Y-108923809D01*
X123480952Y-108961904D01*
X123328571Y-108961904D01*
X123252380Y-108923809D01*
D12*
G04 #@! TO.C,C11*
X139723000Y-75978000D02*
X139723000Y-80018000D01*
X136883000Y-75978000D02*
X136883000Y-80018000D01*
X139723000Y-75978000D02*
X139098000Y-75978000D01*
X137508000Y-75978000D02*
X136883000Y-75978000D01*
X139723000Y-80018000D02*
X139098000Y-80018000D01*
X137508000Y-80018000D02*
X136883000Y-80018000D01*
G04 #@! TO.C,C1*
X103020000Y-68485000D02*
X103020000Y-72525000D01*
X100180000Y-68485000D02*
X100180000Y-72525000D01*
X103020000Y-68485000D02*
X102395000Y-68485000D01*
X100805000Y-68485000D02*
X100180000Y-68485000D01*
X103020000Y-72525000D02*
X102395000Y-72525000D01*
X100805000Y-72525000D02*
X100180000Y-72525000D01*
G04 #@! TO.C,R1*
X99510000Y-76200000D02*
G75*
G03X99510000Y-76200000I-1720000J0D01*
G01*
X97790000Y-74480000D02*
X97790000Y-72220000D01*
G04 #@! TO.C,J1*
X78885000Y-75040000D02*
X84905000Y-75040000D01*
X84905000Y-75040000D02*
X84905000Y-69740000D01*
X84905000Y-69740000D02*
X78885000Y-69740000D01*
X78885000Y-69740000D02*
X78885000Y-75040000D01*
X79915000Y-75330000D02*
X83915000Y-75330000D01*
X84905000Y-73660000D02*
X83905000Y-73660000D01*
X83905000Y-73660000D02*
X83905000Y-71120000D01*
X83905000Y-71120000D02*
X84905000Y-71120000D01*
X83905000Y-73660000D02*
X83375000Y-73410000D01*
X83375000Y-73410000D02*
X83375000Y-71370000D01*
X83375000Y-71370000D02*
X83905000Y-71120000D01*
X84905000Y-73410000D02*
X83905000Y-73410000D01*
X84905000Y-71370000D02*
X83905000Y-71370000D01*
X78885000Y-74460000D02*
X79485000Y-74460000D01*
X79485000Y-74460000D02*
X79485000Y-72860000D01*
X79485000Y-72860000D02*
X78885000Y-72860000D01*
X78885000Y-71920000D02*
X79485000Y-71920000D01*
X79485000Y-71920000D02*
X79485000Y-70320000D01*
X79485000Y-70320000D02*
X78885000Y-70320000D01*
G04 #@! TO.C,D7*
X87400000Y-77465000D02*
X89170000Y-77465000D01*
X87400000Y-68865000D02*
X87400000Y-77465000D01*
X92940000Y-68865000D02*
X87400000Y-68865000D01*
X92940000Y-77465000D02*
X92940000Y-68865000D01*
X91170000Y-77465000D02*
X92940000Y-77465000D01*
X89170000Y-77465000D02*
G75*
G02X91170000Y-77465000I1000000J0D01*
G01*
G04 #@! TO.C,J8*
X115680000Y-75420000D02*
X115680000Y-69400000D01*
X115680000Y-69400000D02*
X107840000Y-69400000D01*
X107840000Y-69400000D02*
X107840000Y-75420000D01*
X107840000Y-75420000D02*
X115680000Y-75420000D01*
X115970000Y-74390000D02*
X115970000Y-70390000D01*
X114300000Y-69400000D02*
X114300000Y-70400000D01*
X114300000Y-70400000D02*
X109220000Y-70400000D01*
X109220000Y-70400000D02*
X109220000Y-69400000D01*
X114300000Y-70400000D02*
X114050000Y-70930000D01*
X114050000Y-70930000D02*
X109470000Y-70930000D01*
X109470000Y-70930000D02*
X109220000Y-70400000D01*
X114050000Y-69400000D02*
X114050000Y-70400000D01*
X109470000Y-69400000D02*
X109470000Y-70400000D01*
X115100000Y-75420000D02*
X115100000Y-74820000D01*
X115100000Y-74820000D02*
X113500000Y-74820000D01*
X113500000Y-74820000D02*
X113500000Y-75420000D01*
X112560000Y-75420000D02*
X112560000Y-74820000D01*
X112560000Y-74820000D02*
X110960000Y-74820000D01*
X110960000Y-74820000D02*
X110960000Y-75420000D01*
X110020000Y-75420000D02*
X110020000Y-74820000D01*
X110020000Y-74820000D02*
X108420000Y-74820000D01*
X108420000Y-74820000D02*
X108420000Y-75420000D01*
G04 #@! TO.C,R8*
X103605000Y-74930000D02*
X103675000Y-74930000D01*
X103605000Y-74930000D02*
G75*
G03X103605000Y-74930000I-1370000J0D01*
G01*
G04 #@! TO.C,R9*
X135990000Y-69850000D02*
G75*
G03X135990000Y-69850000I-1370000J0D01*
G01*
X134620000Y-71220000D02*
X134620000Y-71290000D01*
G04 #@! TO.C,C10*
X130015000Y-73120000D02*
X129390000Y-73120000D01*
X132230000Y-73120000D02*
X131605000Y-73120000D01*
X130015000Y-69080000D02*
X129390000Y-69080000D01*
X132230000Y-69080000D02*
X131605000Y-69080000D01*
X129390000Y-69080000D02*
X129390000Y-73120000D01*
X132230000Y-69080000D02*
X132230000Y-73120000D01*
G04 #@! TO.C,C9*
X106830000Y-68445000D02*
X106830000Y-72485000D01*
X103990000Y-68445000D02*
X103990000Y-72485000D01*
X106830000Y-68445000D02*
X106205000Y-68445000D01*
X104615000Y-68445000D02*
X103990000Y-68445000D01*
X106830000Y-72485000D02*
X106205000Y-72485000D01*
X104615000Y-72485000D02*
X103990000Y-72485000D01*
D13*
G04 #@! TO.C,U2*
X67560000Y-97790000D02*
X118360000Y-97790000D01*
X118360000Y-97790000D02*
X118360000Y-80010000D01*
X118360000Y-80010000D02*
X67560000Y-80010000D01*
X67560000Y-80010000D02*
X67560000Y-97790000D01*
X66290000Y-92710000D02*
X68830000Y-92710000D01*
X68830000Y-92710000D02*
X68830000Y-85090000D01*
X68830000Y-85090000D02*
X66290000Y-85090000D01*
X66290000Y-85090000D02*
X66290000Y-92710000D01*
G04 #@! TO.C,TX1*
X148952000Y-78613000D02*
X148952000Y-87757000D01*
X148952000Y-87757000D02*
X160890000Y-87757000D01*
X160890000Y-87757000D02*
X160890000Y-85725000D01*
X160890000Y-85725000D02*
X168510000Y-85725000D01*
X168510000Y-85725000D02*
X168510000Y-80645000D01*
X168510000Y-80645000D02*
X160890000Y-80645000D01*
X160890000Y-80645000D02*
X160890000Y-78613000D01*
X160890000Y-78613000D02*
X148952000Y-78613000D01*
D12*
G04 #@! TO.C,J9*
X116040000Y-74820000D02*
X116040000Y-75420000D01*
X117640000Y-74820000D02*
X116040000Y-74820000D01*
X117640000Y-75420000D02*
X117640000Y-74820000D01*
X118580000Y-74820000D02*
X118580000Y-75420000D01*
X120180000Y-74820000D02*
X118580000Y-74820000D01*
X120180000Y-75420000D02*
X120180000Y-74820000D01*
X121120000Y-74820000D02*
X121120000Y-75420000D01*
X122720000Y-74820000D02*
X121120000Y-74820000D01*
X122720000Y-75420000D02*
X122720000Y-74820000D01*
X117090000Y-69400000D02*
X117090000Y-70400000D01*
X121670000Y-69400000D02*
X121670000Y-70400000D01*
X117090000Y-70930000D02*
X116840000Y-70400000D01*
X121670000Y-70930000D02*
X117090000Y-70930000D01*
X121920000Y-70400000D02*
X121670000Y-70930000D01*
X116840000Y-70400000D02*
X116840000Y-69400000D01*
X121920000Y-70400000D02*
X116840000Y-70400000D01*
X121920000Y-69400000D02*
X121920000Y-70400000D01*
X123590000Y-74390000D02*
X123590000Y-70390000D01*
X115460000Y-75420000D02*
X123300000Y-75420000D01*
X115460000Y-69400000D02*
X115460000Y-75420000D01*
X123300000Y-69400000D02*
X115460000Y-69400000D01*
X123300000Y-75420000D02*
X123300000Y-69400000D01*
G04 #@! TO.C,J7*
X94780000Y-101710000D02*
X94780000Y-101110000D01*
X93180000Y-101710000D02*
X94780000Y-101710000D01*
X93180000Y-101110000D02*
X93180000Y-101710000D01*
X92240000Y-101710000D02*
X92240000Y-101110000D01*
X90640000Y-101710000D02*
X92240000Y-101710000D01*
X90640000Y-101110000D02*
X90640000Y-101710000D01*
X89700000Y-101710000D02*
X89700000Y-101110000D01*
X88100000Y-101710000D02*
X89700000Y-101710000D01*
X88100000Y-101110000D02*
X88100000Y-101710000D01*
X93730000Y-107130000D02*
X93730000Y-106130000D01*
X89150000Y-107130000D02*
X89150000Y-106130000D01*
X93730000Y-105600000D02*
X93980000Y-106130000D01*
X89150000Y-105600000D02*
X93730000Y-105600000D01*
X88900000Y-106130000D02*
X89150000Y-105600000D01*
X93980000Y-106130000D02*
X93980000Y-107130000D01*
X88900000Y-106130000D02*
X93980000Y-106130000D01*
X88900000Y-107130000D02*
X88900000Y-106130000D01*
X87230000Y-102140000D02*
X87230000Y-106140000D01*
X95360000Y-101110000D02*
X87520000Y-101110000D01*
X95360000Y-107130000D02*
X95360000Y-101110000D01*
X87520000Y-107130000D02*
X95360000Y-107130000D01*
X87520000Y-101110000D02*
X87520000Y-107130000D01*
G04 #@! TO.C,J6*
X79900000Y-101110000D02*
X79900000Y-107130000D01*
X79900000Y-107130000D02*
X87740000Y-107130000D01*
X87740000Y-107130000D02*
X87740000Y-101110000D01*
X87740000Y-101110000D02*
X79900000Y-101110000D01*
X79610000Y-102140000D02*
X79610000Y-106140000D01*
X81280000Y-107130000D02*
X81280000Y-106130000D01*
X81280000Y-106130000D02*
X86360000Y-106130000D01*
X86360000Y-106130000D02*
X86360000Y-107130000D01*
X81280000Y-106130000D02*
X81530000Y-105600000D01*
X81530000Y-105600000D02*
X86110000Y-105600000D01*
X86110000Y-105600000D02*
X86360000Y-106130000D01*
X81530000Y-107130000D02*
X81530000Y-106130000D01*
X86110000Y-107130000D02*
X86110000Y-106130000D01*
X80480000Y-101110000D02*
X80480000Y-101710000D01*
X80480000Y-101710000D02*
X82080000Y-101710000D01*
X82080000Y-101710000D02*
X82080000Y-101110000D01*
X83020000Y-101110000D02*
X83020000Y-101710000D01*
X83020000Y-101710000D02*
X84620000Y-101710000D01*
X84620000Y-101710000D02*
X84620000Y-101110000D01*
X85560000Y-101110000D02*
X85560000Y-101710000D01*
X85560000Y-101710000D02*
X87160000Y-101710000D01*
X87160000Y-101710000D02*
X87160000Y-101110000D01*
G04 #@! TO.C,C5*
X123340000Y-93210000D02*
X123340000Y-97250000D01*
X120500000Y-93210000D02*
X120500000Y-97250000D01*
X123340000Y-93210000D02*
X122715000Y-93210000D01*
X121125000Y-93210000D02*
X120500000Y-93210000D01*
X123340000Y-97250000D02*
X122715000Y-97250000D01*
X121125000Y-97250000D02*
X120500000Y-97250000D01*
G04 #@! TO.C,D8*
X143990635Y-100076000D02*
G75*
G03X143990635Y-100076000I-1750635J0D01*
G01*
X143990635Y-100076000D02*
X144650000Y-100076000D01*
G04 #@! TO.C,D4*
X147800635Y-75565000D02*
G75*
G03X147800635Y-75565000I-1750635J0D01*
G01*
X146050000Y-77315635D02*
X146050000Y-77975000D01*
G04 #@! TO.C,D2*
X143107665Y-106996608D02*
G75*
G03X146340000Y-107153516I1672335J1078608D01*
G01*
X143107665Y-104839392D02*
G75*
G02X146340000Y-104682484I1672335J-1078608D01*
G01*
X143738870Y-106997837D02*
G75*
G03X145820961Y-106998000I1041130J1079837D01*
G01*
X143738870Y-104838163D02*
G75*
G02X145820961Y-104838000I1041130J-1079837D01*
G01*
X146340000Y-107154000D02*
X146340000Y-106998000D01*
X146340000Y-104838000D02*
X146340000Y-104682000D01*
G04 #@! TO.C,D12*
X144490000Y-72200000D02*
X144490000Y-72356000D01*
X144490000Y-69884000D02*
X144490000Y-70040000D01*
X147091130Y-72199837D02*
G75*
G02X145009039Y-72200000I-1041130J1079837D01*
G01*
X147091130Y-70040163D02*
G75*
G03X145009039Y-70040000I-1041130J-1079837D01*
G01*
X147722335Y-72198608D02*
G75*
G02X144490000Y-72355516I-1672335J1078608D01*
G01*
X147722335Y-70041392D02*
G75*
G03X144490000Y-69884484I-1672335J-1078608D01*
G01*
G04 #@! TO.C,R4*
X136371000Y-99600000D02*
X133631000Y-99600000D01*
X133631000Y-99600000D02*
X133631000Y-106140000D01*
X133631000Y-106140000D02*
X136371000Y-106140000D01*
X136371000Y-106140000D02*
X136371000Y-99600000D01*
X135001000Y-98830000D02*
X135001000Y-99600000D01*
X135001000Y-106910000D02*
X135001000Y-106140000D01*
G04 #@! TO.C,D6*
X139410000Y-72200000D02*
X139410000Y-72356000D01*
X139410000Y-69884000D02*
X139410000Y-70040000D01*
X142011130Y-72199837D02*
G75*
G02X139929039Y-72200000I-1041130J1079837D01*
G01*
X142011130Y-70040163D02*
G75*
G03X139929039Y-70040000I-1041130J-1079837D01*
G01*
X142642335Y-72198608D02*
G75*
G02X139410000Y-72355516I-1672335J1078608D01*
G01*
X142642335Y-70041392D02*
G75*
G03X139410000Y-69884484I-1672335J-1078608D01*
G01*
G04 #@! TO.C,C7*
X139850000Y-83050000D02*
X139850000Y-87090000D01*
X137010000Y-83050000D02*
X137010000Y-87090000D01*
X139850000Y-83050000D02*
X139225000Y-83050000D01*
X137635000Y-83050000D02*
X137010000Y-83050000D01*
X139850000Y-87090000D02*
X139225000Y-87090000D01*
X137635000Y-87090000D02*
X137010000Y-87090000D01*
G04 #@! TO.C,C8*
X141445000Y-94075000D02*
X140820000Y-94075000D01*
X143660000Y-94075000D02*
X143035000Y-94075000D01*
X141445000Y-90035000D02*
X140820000Y-90035000D01*
X143660000Y-90035000D02*
X143035000Y-90035000D01*
X140820000Y-90035000D02*
X140820000Y-94075000D01*
X143660000Y-90035000D02*
X143660000Y-94075000D01*
G04 #@! TO.C,C6*
X139850000Y-89400000D02*
X139850000Y-93440000D01*
X137010000Y-89400000D02*
X137010000Y-93440000D01*
X139850000Y-89400000D02*
X139225000Y-89400000D01*
X137635000Y-89400000D02*
X137010000Y-89400000D01*
X139850000Y-93440000D02*
X139225000Y-93440000D01*
X137635000Y-93440000D02*
X137010000Y-93440000D01*
G04 #@! TO.C,C4*
X83788000Y-78392000D02*
X83788000Y-79017000D01*
X83788000Y-76177000D02*
X83788000Y-76802000D01*
X79748000Y-78392000D02*
X79748000Y-79017000D01*
X79748000Y-76177000D02*
X79748000Y-76802000D01*
X79748000Y-79017000D02*
X83788000Y-79017000D01*
X79748000Y-76177000D02*
X83788000Y-76177000D01*
G04 #@! TO.C,C2*
X144630000Y-94750000D02*
X144630000Y-90710000D01*
X147470000Y-94750000D02*
X147470000Y-90710000D01*
X144630000Y-94750000D02*
X145255000Y-94750000D01*
X146845000Y-94750000D02*
X147470000Y-94750000D01*
X144630000Y-90710000D02*
X145255000Y-90710000D01*
X146845000Y-90710000D02*
X147470000Y-90710000D01*
G04 #@! TO.C,J2*
X98815000Y-112080000D02*
X98815000Y-99740000D01*
X98815000Y-99740000D02*
X129785000Y-99740000D01*
X129785000Y-99740000D02*
X129785000Y-112080000D01*
X119590000Y-98845662D02*
X120090000Y-98845662D01*
X120090000Y-98845662D02*
X119840000Y-99278675D01*
X119840000Y-99278675D02*
X119590000Y-98845662D01*
G04 #@! TO.C,J4*
X123250000Y-92770000D02*
X121920000Y-92770000D01*
X123250000Y-91440000D02*
X123250000Y-92770000D01*
X123250000Y-90170000D02*
X120590000Y-90170000D01*
X120590000Y-90170000D02*
X120590000Y-85030000D01*
X123250000Y-90170000D02*
X123250000Y-85030000D01*
X123250000Y-85030000D02*
X120590000Y-85030000D01*
G04 #@! TO.C,J5*
X120590000Y-85150000D02*
X123250000Y-85150000D01*
X120590000Y-80010000D02*
X120590000Y-85150000D01*
X123250000Y-80010000D02*
X123250000Y-85150000D01*
X120590000Y-80010000D02*
X123250000Y-80010000D01*
X120590000Y-78740000D02*
X120590000Y-77410000D01*
X120590000Y-77410000D02*
X121920000Y-77410000D01*
G04 #@! TO.C,R2*
X138557000Y-106910000D02*
X138557000Y-106140000D01*
X138557000Y-98830000D02*
X138557000Y-99600000D01*
X139927000Y-106140000D02*
X139927000Y-99600000D01*
X137187000Y-106140000D02*
X139927000Y-106140000D01*
X137187000Y-99600000D02*
X137187000Y-106140000D01*
X139927000Y-99600000D02*
X137187000Y-99600000D01*
D10*
G04 #@! TO.C,U1*
X134320000Y-75280000D02*
X134320000Y-75080000D01*
X134320000Y-75080000D02*
X134020000Y-75080000D01*
X127720000Y-75080000D02*
X127420000Y-75080000D01*
X127420000Y-75080000D02*
X127420000Y-75280000D01*
X134700000Y-95180000D02*
X134950000Y-95180000D01*
X134320000Y-95180000D02*
X134690000Y-95180000D01*
X133020000Y-96180000D02*
X133320000Y-96180000D01*
X133320000Y-96180000D02*
X134320000Y-95180000D01*
X127340000Y-95590000D02*
X127340000Y-95990000D01*
X127340000Y-95990000D02*
X127740000Y-95990000D01*
D12*
G04 #@! TO.C,C3*
X146845000Y-81185000D02*
X147470000Y-81185000D01*
X144630000Y-81185000D02*
X145255000Y-81185000D01*
X146845000Y-85225000D02*
X147470000Y-85225000D01*
X144630000Y-85225000D02*
X145255000Y-85225000D01*
X147470000Y-85225000D02*
X147470000Y-81185000D01*
X144630000Y-85225000D02*
X144630000Y-81185000D01*
G04 #@! TO.C,R3*
X140870000Y-85820000D02*
X143610000Y-85820000D01*
X143610000Y-85820000D02*
X143610000Y-79280000D01*
X143610000Y-79280000D02*
X140870000Y-79280000D01*
X140870000Y-79280000D02*
X140870000Y-85820000D01*
X142240000Y-86590000D02*
X142240000Y-85820000D01*
X142240000Y-78510000D02*
X142240000Y-79280000D01*
D13*
G04 #@! TO.C,RX1*
X149002000Y-90043000D02*
X149002000Y-99187000D01*
X149002000Y-99187000D02*
X160940000Y-99187000D01*
X160940000Y-99187000D02*
X160940000Y-97155000D01*
X160940000Y-97155000D02*
X168560000Y-97155000D01*
X168560000Y-97155000D02*
X168560000Y-92075000D01*
X168560000Y-92075000D02*
X160940000Y-92075000D01*
X160940000Y-92075000D02*
X160940000Y-90043000D01*
X160940000Y-90043000D02*
X149002000Y-90043000D01*
G04 #@! TO.C,C11*
X141210142Y-78640857D02*
X141257761Y-78688476D01*
X141305380Y-78831333D01*
X141305380Y-78926571D01*
X141257761Y-79069428D01*
X141162523Y-79164666D01*
X141067285Y-79212285D01*
X140876809Y-79259904D01*
X140733952Y-79259904D01*
X140543476Y-79212285D01*
X140448238Y-79164666D01*
X140353000Y-79069428D01*
X140305380Y-78926571D01*
X140305380Y-78831333D01*
X140353000Y-78688476D01*
X140400619Y-78640857D01*
X141305380Y-77688476D02*
X141305380Y-78259904D01*
X141305380Y-77974190D02*
X140305380Y-77974190D01*
X140448238Y-78069428D01*
X140543476Y-78164666D01*
X140591095Y-78259904D01*
X141305380Y-76736095D02*
X141305380Y-77307523D01*
X141305380Y-77021809D02*
X140305380Y-77021809D01*
X140448238Y-77117047D01*
X140543476Y-77212285D01*
X140591095Y-77307523D01*
G04 #@! TO.C,C1*
X104507142Y-70671666D02*
X104554761Y-70719285D01*
X104602380Y-70862142D01*
X104602380Y-70957380D01*
X104554761Y-71100238D01*
X104459523Y-71195476D01*
X104364285Y-71243095D01*
X104173809Y-71290714D01*
X104030952Y-71290714D01*
X103840476Y-71243095D01*
X103745238Y-71195476D01*
X103650000Y-71100238D01*
X103602380Y-70957380D01*
X103602380Y-70862142D01*
X103650000Y-70719285D01*
X103697619Y-70671666D01*
X104602380Y-69719285D02*
X104602380Y-70290714D01*
X104602380Y-70005000D02*
X103602380Y-70005000D01*
X103745238Y-70100238D01*
X103840476Y-70195476D01*
X103888095Y-70290714D01*
G04 #@! TO.C,R1*
X95522380Y-73826666D02*
X95046190Y-74160000D01*
X95522380Y-74398095D02*
X94522380Y-74398095D01*
X94522380Y-74017142D01*
X94570000Y-73921904D01*
X94617619Y-73874285D01*
X94712857Y-73826666D01*
X94855714Y-73826666D01*
X94950952Y-73874285D01*
X94998571Y-73921904D01*
X95046190Y-74017142D01*
X95046190Y-74398095D01*
X95522380Y-72874285D02*
X95522380Y-73445714D01*
X95522380Y-73160000D02*
X94522380Y-73160000D01*
X94665238Y-73255238D01*
X94760476Y-73350476D01*
X94808095Y-73445714D01*
G04 #@! TO.C,J1*
X77247380Y-72723333D02*
X77961666Y-72723333D01*
X78104523Y-72770952D01*
X78199761Y-72866190D01*
X78247380Y-73009047D01*
X78247380Y-73104285D01*
X78247380Y-71723333D02*
X78247380Y-72294761D01*
X78247380Y-72009047D02*
X77247380Y-72009047D01*
X77390238Y-72104285D01*
X77485476Y-72199523D01*
X77533095Y-72294761D01*
G04 #@! TO.C,D7*
X89441904Y-78717380D02*
X89441904Y-77717380D01*
X89680000Y-77717380D01*
X89822857Y-77765000D01*
X89918095Y-77860238D01*
X89965714Y-77955476D01*
X90013333Y-78145952D01*
X90013333Y-78288809D01*
X89965714Y-78479285D01*
X89918095Y-78574523D01*
X89822857Y-78669761D01*
X89680000Y-78717380D01*
X89441904Y-78717380D01*
X90346666Y-77717380D02*
X91013333Y-77717380D01*
X90584761Y-78717380D01*
G04 #@! TO.C,J8*
X111426666Y-67397380D02*
X111426666Y-68111666D01*
X111379047Y-68254523D01*
X111283809Y-68349761D01*
X111140952Y-68397380D01*
X111045714Y-68397380D01*
X112045714Y-67825952D02*
X111950476Y-67778333D01*
X111902857Y-67730714D01*
X111855238Y-67635476D01*
X111855238Y-67587857D01*
X111902857Y-67492619D01*
X111950476Y-67445000D01*
X112045714Y-67397380D01*
X112236190Y-67397380D01*
X112331428Y-67445000D01*
X112379047Y-67492619D01*
X112426666Y-67587857D01*
X112426666Y-67635476D01*
X112379047Y-67730714D01*
X112331428Y-67778333D01*
X112236190Y-67825952D01*
X112045714Y-67825952D01*
X111950476Y-67873571D01*
X111902857Y-67921190D01*
X111855238Y-68016428D01*
X111855238Y-68206904D01*
X111902857Y-68302142D01*
X111950476Y-68349761D01*
X112045714Y-68397380D01*
X112236190Y-68397380D01*
X112331428Y-68349761D01*
X112379047Y-68302142D01*
X112426666Y-68206904D01*
X112426666Y-68016428D01*
X112379047Y-67921190D01*
X112331428Y-67873571D01*
X112236190Y-67825952D01*
G04 #@! TO.C,R8*
X103973333Y-77922380D02*
X103640000Y-77446190D01*
X103401904Y-77922380D02*
X103401904Y-76922380D01*
X103782857Y-76922380D01*
X103878095Y-76970000D01*
X103925714Y-77017619D01*
X103973333Y-77112857D01*
X103973333Y-77255714D01*
X103925714Y-77350952D01*
X103878095Y-77398571D01*
X103782857Y-77446190D01*
X103401904Y-77446190D01*
X104544761Y-77350952D02*
X104449523Y-77303333D01*
X104401904Y-77255714D01*
X104354285Y-77160476D01*
X104354285Y-77112857D01*
X104401904Y-77017619D01*
X104449523Y-76970000D01*
X104544761Y-76922380D01*
X104735238Y-76922380D01*
X104830476Y-76970000D01*
X104878095Y-77017619D01*
X104925714Y-77112857D01*
X104925714Y-77160476D01*
X104878095Y-77255714D01*
X104830476Y-77303333D01*
X104735238Y-77350952D01*
X104544761Y-77350952D01*
X104449523Y-77398571D01*
X104401904Y-77446190D01*
X104354285Y-77541428D01*
X104354285Y-77731904D01*
X104401904Y-77827142D01*
X104449523Y-77874761D01*
X104544761Y-77922380D01*
X104735238Y-77922380D01*
X104830476Y-77874761D01*
X104878095Y-77827142D01*
X104925714Y-77731904D01*
X104925714Y-77541428D01*
X104878095Y-77446190D01*
X104830476Y-77398571D01*
X104735238Y-77350952D01*
G04 #@! TO.C,R9*
X137442380Y-71286666D02*
X136966190Y-71620000D01*
X137442380Y-71858095D02*
X136442380Y-71858095D01*
X136442380Y-71477142D01*
X136490000Y-71381904D01*
X136537619Y-71334285D01*
X136632857Y-71286666D01*
X136775714Y-71286666D01*
X136870952Y-71334285D01*
X136918571Y-71381904D01*
X136966190Y-71477142D01*
X136966190Y-71858095D01*
X137442380Y-70810476D02*
X137442380Y-70620000D01*
X137394761Y-70524761D01*
X137347142Y-70477142D01*
X137204285Y-70381904D01*
X137013809Y-70334285D01*
X136632857Y-70334285D01*
X136537619Y-70381904D01*
X136490000Y-70429523D01*
X136442380Y-70524761D01*
X136442380Y-70715238D01*
X136490000Y-70810476D01*
X136537619Y-70858095D01*
X136632857Y-70905714D01*
X136870952Y-70905714D01*
X136966190Y-70858095D01*
X137013809Y-70810476D01*
X137061428Y-70715238D01*
X137061428Y-70524761D01*
X137013809Y-70429523D01*
X136966190Y-70381904D01*
X136870952Y-70334285D01*
G04 #@! TO.C,C10*
X128627142Y-71742857D02*
X128674761Y-71790476D01*
X128722380Y-71933333D01*
X128722380Y-72028571D01*
X128674761Y-72171428D01*
X128579523Y-72266666D01*
X128484285Y-72314285D01*
X128293809Y-72361904D01*
X128150952Y-72361904D01*
X127960476Y-72314285D01*
X127865238Y-72266666D01*
X127770000Y-72171428D01*
X127722380Y-72028571D01*
X127722380Y-71933333D01*
X127770000Y-71790476D01*
X127817619Y-71742857D01*
X128722380Y-70790476D02*
X128722380Y-71361904D01*
X128722380Y-71076190D02*
X127722380Y-71076190D01*
X127865238Y-71171428D01*
X127960476Y-71266666D01*
X128008095Y-71361904D01*
X127722380Y-70171428D02*
X127722380Y-70076190D01*
X127770000Y-69980952D01*
X127817619Y-69933333D01*
X127912857Y-69885714D01*
X128103333Y-69838095D01*
X128341428Y-69838095D01*
X128531904Y-69885714D01*
X128627142Y-69933333D01*
X128674761Y-69980952D01*
X128722380Y-70076190D01*
X128722380Y-70171428D01*
X128674761Y-70266666D01*
X128627142Y-70314285D01*
X128531904Y-70361904D01*
X128341428Y-70409523D01*
X128103333Y-70409523D01*
X127912857Y-70361904D01*
X127817619Y-70314285D01*
X127770000Y-70266666D01*
X127722380Y-70171428D01*
G04 #@! TO.C,C9*
X108317142Y-70631666D02*
X108364761Y-70679285D01*
X108412380Y-70822142D01*
X108412380Y-70917380D01*
X108364761Y-71060238D01*
X108269523Y-71155476D01*
X108174285Y-71203095D01*
X107983809Y-71250714D01*
X107840952Y-71250714D01*
X107650476Y-71203095D01*
X107555238Y-71155476D01*
X107460000Y-71060238D01*
X107412380Y-70917380D01*
X107412380Y-70822142D01*
X107460000Y-70679285D01*
X107507619Y-70631666D01*
X108412380Y-70155476D02*
X108412380Y-69965000D01*
X108364761Y-69869761D01*
X108317142Y-69822142D01*
X108174285Y-69726904D01*
X107983809Y-69679285D01*
X107602857Y-69679285D01*
X107507619Y-69726904D01*
X107460000Y-69774523D01*
X107412380Y-69869761D01*
X107412380Y-70060238D01*
X107460000Y-70155476D01*
X107507619Y-70203095D01*
X107602857Y-70250714D01*
X107840952Y-70250714D01*
X107936190Y-70203095D01*
X107983809Y-70155476D01*
X108031428Y-70060238D01*
X108031428Y-69869761D01*
X107983809Y-69774523D01*
X107936190Y-69726904D01*
X107840952Y-69679285D01*
G04 #@! TO.C,U2*
X68536380Y-100075904D02*
X69345904Y-100075904D01*
X69441142Y-100028285D01*
X69488761Y-99980666D01*
X69536380Y-99885428D01*
X69536380Y-99694952D01*
X69488761Y-99599714D01*
X69441142Y-99552095D01*
X69345904Y-99504476D01*
X68536380Y-99504476D01*
X68631619Y-99075904D02*
X68584000Y-99028285D01*
X68536380Y-98933047D01*
X68536380Y-98694952D01*
X68584000Y-98599714D01*
X68631619Y-98552095D01*
X68726857Y-98504476D01*
X68822095Y-98504476D01*
X68964952Y-98552095D01*
X69536380Y-99123523D01*
X69536380Y-98504476D01*
G04 #@! TO.C,TX1*
X153301904Y-76922380D02*
X153873333Y-76922380D01*
X153587619Y-77922380D02*
X153587619Y-76922380D01*
X154111428Y-76922380D02*
X154778095Y-77922380D01*
X154778095Y-76922380D02*
X154111428Y-77922380D01*
X155682857Y-77922380D02*
X155111428Y-77922380D01*
X155397142Y-77922380D02*
X155397142Y-76922380D01*
X155301904Y-77065238D01*
X155206666Y-77160476D01*
X155111428Y-77208095D01*
G04 #@! TO.C,J9*
X119046666Y-67397380D02*
X119046666Y-68111666D01*
X118999047Y-68254523D01*
X118903809Y-68349761D01*
X118760952Y-68397380D01*
X118665714Y-68397380D01*
X119570476Y-68397380D02*
X119760952Y-68397380D01*
X119856190Y-68349761D01*
X119903809Y-68302142D01*
X119999047Y-68159285D01*
X120046666Y-67968809D01*
X120046666Y-67587857D01*
X119999047Y-67492619D01*
X119951428Y-67445000D01*
X119856190Y-67397380D01*
X119665714Y-67397380D01*
X119570476Y-67445000D01*
X119522857Y-67492619D01*
X119475238Y-67587857D01*
X119475238Y-67825952D01*
X119522857Y-67921190D01*
X119570476Y-67968809D01*
X119665714Y-68016428D01*
X119856190Y-68016428D01*
X119951428Y-67968809D01*
X119999047Y-67921190D01*
X120046666Y-67825952D01*
G04 #@! TO.C,J7*
X91106666Y-99472380D02*
X91106666Y-100186666D01*
X91059047Y-100329523D01*
X90963809Y-100424761D01*
X90820952Y-100472380D01*
X90725714Y-100472380D01*
X91487619Y-99472380D02*
X92154285Y-99472380D01*
X91725714Y-100472380D01*
G04 #@! TO.C,J6*
X83486666Y-99472380D02*
X83486666Y-100186666D01*
X83439047Y-100329523D01*
X83343809Y-100424761D01*
X83200952Y-100472380D01*
X83105714Y-100472380D01*
X84391428Y-99472380D02*
X84200952Y-99472380D01*
X84105714Y-99520000D01*
X84058095Y-99567619D01*
X83962857Y-99710476D01*
X83915238Y-99900952D01*
X83915238Y-100281904D01*
X83962857Y-100377142D01*
X84010476Y-100424761D01*
X84105714Y-100472380D01*
X84296190Y-100472380D01*
X84391428Y-100424761D01*
X84439047Y-100377142D01*
X84486666Y-100281904D01*
X84486666Y-100043809D01*
X84439047Y-99948571D01*
X84391428Y-99900952D01*
X84296190Y-99853333D01*
X84105714Y-99853333D01*
X84010476Y-99900952D01*
X83962857Y-99948571D01*
X83915238Y-100043809D01*
G04 #@! TO.C,C5*
X124827142Y-95396666D02*
X124874761Y-95444285D01*
X124922380Y-95587142D01*
X124922380Y-95682380D01*
X124874761Y-95825238D01*
X124779523Y-95920476D01*
X124684285Y-95968095D01*
X124493809Y-96015714D01*
X124350952Y-96015714D01*
X124160476Y-95968095D01*
X124065238Y-95920476D01*
X123970000Y-95825238D01*
X123922380Y-95682380D01*
X123922380Y-95587142D01*
X123970000Y-95444285D01*
X124017619Y-95396666D01*
X123922380Y-94491904D02*
X123922380Y-94968095D01*
X124398571Y-95015714D01*
X124350952Y-94968095D01*
X124303333Y-94872857D01*
X124303333Y-94634761D01*
X124350952Y-94539523D01*
X124398571Y-94491904D01*
X124493809Y-94444285D01*
X124731904Y-94444285D01*
X124827142Y-94491904D01*
X124874761Y-94539523D01*
X124922380Y-94634761D01*
X124922380Y-94872857D01*
X124874761Y-94968095D01*
X124827142Y-95015714D01*
G04 #@! TO.C,D8*
X143406904Y-97777745D02*
X143406904Y-96777745D01*
X143645000Y-96777745D01*
X143787857Y-96825365D01*
X143883095Y-96920603D01*
X143930714Y-97015841D01*
X143978333Y-97206317D01*
X143978333Y-97349174D01*
X143930714Y-97539650D01*
X143883095Y-97634888D01*
X143787857Y-97730126D01*
X143645000Y-97777745D01*
X143406904Y-97777745D01*
X144549761Y-97206317D02*
X144454523Y-97158698D01*
X144406904Y-97111079D01*
X144359285Y-97015841D01*
X144359285Y-96968222D01*
X144406904Y-96872984D01*
X144454523Y-96825365D01*
X144549761Y-96777745D01*
X144740238Y-96777745D01*
X144835476Y-96825365D01*
X144883095Y-96872984D01*
X144930714Y-96968222D01*
X144930714Y-97015841D01*
X144883095Y-97111079D01*
X144835476Y-97158698D01*
X144740238Y-97206317D01*
X144549761Y-97206317D01*
X144454523Y-97253936D01*
X144406904Y-97301555D01*
X144359285Y-97396793D01*
X144359285Y-97587269D01*
X144406904Y-97682507D01*
X144454523Y-97730126D01*
X144549761Y-97777745D01*
X144740238Y-97777745D01*
X144835476Y-97730126D01*
X144883095Y-97682507D01*
X144930714Y-97587269D01*
X144930714Y-97396793D01*
X144883095Y-97301555D01*
X144835476Y-97253936D01*
X144740238Y-97206317D01*
X144011904Y-101342666D02*
X144488095Y-101342666D01*
X143916666Y-101628380D02*
X144250000Y-100628380D01*
X144583333Y-101628380D01*
G04 #@! TO.C,D4*
X149253015Y-78208095D02*
X148253015Y-78208095D01*
X148253015Y-77970000D01*
X148300635Y-77827142D01*
X148395873Y-77731904D01*
X148491111Y-77684285D01*
X148681587Y-77636666D01*
X148824444Y-77636666D01*
X149014920Y-77684285D01*
X149110158Y-77731904D01*
X149205396Y-77827142D01*
X149253015Y-77970000D01*
X149253015Y-78208095D01*
X148586349Y-76779523D02*
X149253015Y-76779523D01*
X148205396Y-77017619D02*
X148919682Y-77255714D01*
X148919682Y-76636666D01*
X145116666Y-77813095D02*
X145116666Y-77336904D01*
X145402380Y-77908333D02*
X144402380Y-77575000D01*
X145402380Y-77241666D01*
G04 #@! TO.C,D2*
X144041904Y-109672380D02*
X144041904Y-108672380D01*
X144280000Y-108672380D01*
X144422857Y-108720000D01*
X144518095Y-108815238D01*
X144565714Y-108910476D01*
X144613333Y-109100952D01*
X144613333Y-109243809D01*
X144565714Y-109434285D01*
X144518095Y-109529523D01*
X144422857Y-109624761D01*
X144280000Y-109672380D01*
X144041904Y-109672380D01*
X144994285Y-108767619D02*
X145041904Y-108720000D01*
X145137142Y-108672380D01*
X145375238Y-108672380D01*
X145470476Y-108720000D01*
X145518095Y-108767619D01*
X145565714Y-108862857D01*
X145565714Y-108958095D01*
X145518095Y-109100952D01*
X144946666Y-109672380D01*
X145565714Y-109672380D01*
G04 #@! TO.C,D12*
X144835714Y-68397380D02*
X144835714Y-67397380D01*
X145073809Y-67397380D01*
X145216666Y-67445000D01*
X145311904Y-67540238D01*
X145359523Y-67635476D01*
X145407142Y-67825952D01*
X145407142Y-67968809D01*
X145359523Y-68159285D01*
X145311904Y-68254523D01*
X145216666Y-68349761D01*
X145073809Y-68397380D01*
X144835714Y-68397380D01*
X146359523Y-68397380D02*
X145788095Y-68397380D01*
X146073809Y-68397380D02*
X146073809Y-67397380D01*
X145978571Y-67540238D01*
X145883333Y-67635476D01*
X145788095Y-67683095D01*
X146740476Y-67492619D02*
X146788095Y-67445000D01*
X146883333Y-67397380D01*
X147121428Y-67397380D01*
X147216666Y-67445000D01*
X147264285Y-67492619D01*
X147311904Y-67587857D01*
X147311904Y-67683095D01*
X147264285Y-67825952D01*
X146692857Y-68397380D01*
X147311904Y-68397380D01*
G04 #@! TO.C,R4*
X133675380Y-107481666D02*
X133199190Y-107815000D01*
X133675380Y-108053095D02*
X132675380Y-108053095D01*
X132675380Y-107672142D01*
X132723000Y-107576904D01*
X132770619Y-107529285D01*
X132865857Y-107481666D01*
X133008714Y-107481666D01*
X133103952Y-107529285D01*
X133151571Y-107576904D01*
X133199190Y-107672142D01*
X133199190Y-108053095D01*
X133008714Y-106624523D02*
X133675380Y-106624523D01*
X132627761Y-106862619D02*
X133342047Y-107100714D01*
X133342047Y-106481666D01*
G04 #@! TO.C,D6*
X140231904Y-68397380D02*
X140231904Y-67397380D01*
X140470000Y-67397380D01*
X140612857Y-67445000D01*
X140708095Y-67540238D01*
X140755714Y-67635476D01*
X140803333Y-67825952D01*
X140803333Y-67968809D01*
X140755714Y-68159285D01*
X140708095Y-68254523D01*
X140612857Y-68349761D01*
X140470000Y-68397380D01*
X140231904Y-68397380D01*
X141660476Y-67397380D02*
X141470000Y-67397380D01*
X141374761Y-67445000D01*
X141327142Y-67492619D01*
X141231904Y-67635476D01*
X141184285Y-67825952D01*
X141184285Y-68206904D01*
X141231904Y-68302142D01*
X141279523Y-68349761D01*
X141374761Y-68397380D01*
X141565238Y-68397380D01*
X141660476Y-68349761D01*
X141708095Y-68302142D01*
X141755714Y-68206904D01*
X141755714Y-67968809D01*
X141708095Y-67873571D01*
X141660476Y-67825952D01*
X141565238Y-67778333D01*
X141374761Y-67778333D01*
X141279523Y-67825952D01*
X141231904Y-67873571D01*
X141184285Y-67968809D01*
G04 #@! TO.C,C7*
X141073142Y-87796666D02*
X141120761Y-87844285D01*
X141168380Y-87987142D01*
X141168380Y-88082380D01*
X141120761Y-88225238D01*
X141025523Y-88320476D01*
X140930285Y-88368095D01*
X140739809Y-88415714D01*
X140596952Y-88415714D01*
X140406476Y-88368095D01*
X140311238Y-88320476D01*
X140216000Y-88225238D01*
X140168380Y-88082380D01*
X140168380Y-87987142D01*
X140216000Y-87844285D01*
X140263619Y-87796666D01*
X140168380Y-87463333D02*
X140168380Y-86796666D01*
X141168380Y-87225238D01*
G04 #@! TO.C,C8*
X142851142Y-88431666D02*
X142898761Y-88479285D01*
X142946380Y-88622142D01*
X142946380Y-88717380D01*
X142898761Y-88860238D01*
X142803523Y-88955476D01*
X142708285Y-89003095D01*
X142517809Y-89050714D01*
X142374952Y-89050714D01*
X142184476Y-89003095D01*
X142089238Y-88955476D01*
X141994000Y-88860238D01*
X141946380Y-88717380D01*
X141946380Y-88622142D01*
X141994000Y-88479285D01*
X142041619Y-88431666D01*
X142374952Y-87860238D02*
X142327333Y-87955476D01*
X142279714Y-88003095D01*
X142184476Y-88050714D01*
X142136857Y-88050714D01*
X142041619Y-88003095D01*
X141994000Y-87955476D01*
X141946380Y-87860238D01*
X141946380Y-87669761D01*
X141994000Y-87574523D01*
X142041619Y-87526904D01*
X142136857Y-87479285D01*
X142184476Y-87479285D01*
X142279714Y-87526904D01*
X142327333Y-87574523D01*
X142374952Y-87669761D01*
X142374952Y-87860238D01*
X142422571Y-87955476D01*
X142470190Y-88003095D01*
X142565428Y-88050714D01*
X142755904Y-88050714D01*
X142851142Y-88003095D01*
X142898761Y-87955476D01*
X142946380Y-87860238D01*
X142946380Y-87669761D01*
X142898761Y-87574523D01*
X142851142Y-87526904D01*
X142755904Y-87479285D01*
X142565428Y-87479285D01*
X142470190Y-87526904D01*
X142422571Y-87574523D01*
X142374952Y-87669761D01*
G04 #@! TO.C,C6*
X141337142Y-91586666D02*
X141384761Y-91634285D01*
X141432380Y-91777142D01*
X141432380Y-91872380D01*
X141384761Y-92015238D01*
X141289523Y-92110476D01*
X141194285Y-92158095D01*
X141003809Y-92205714D01*
X140860952Y-92205714D01*
X140670476Y-92158095D01*
X140575238Y-92110476D01*
X140480000Y-92015238D01*
X140432380Y-91872380D01*
X140432380Y-91777142D01*
X140480000Y-91634285D01*
X140527619Y-91586666D01*
X140432380Y-90729523D02*
X140432380Y-90920000D01*
X140480000Y-91015238D01*
X140527619Y-91062857D01*
X140670476Y-91158095D01*
X140860952Y-91205714D01*
X141241904Y-91205714D01*
X141337142Y-91158095D01*
X141384761Y-91110476D01*
X141432380Y-91015238D01*
X141432380Y-90824761D01*
X141384761Y-90729523D01*
X141337142Y-90681904D01*
X141241904Y-90634285D01*
X141003809Y-90634285D01*
X140908571Y-90681904D01*
X140860952Y-90729523D01*
X140813333Y-90824761D01*
X140813333Y-91015238D01*
X140860952Y-91110476D01*
X140908571Y-91158095D01*
X141003809Y-91205714D01*
G04 #@! TO.C,C4*
X81601333Y-80494142D02*
X81553714Y-80541761D01*
X81410857Y-80589380D01*
X81315619Y-80589380D01*
X81172761Y-80541761D01*
X81077523Y-80446523D01*
X81029904Y-80351285D01*
X80982285Y-80160809D01*
X80982285Y-80017952D01*
X81029904Y-79827476D01*
X81077523Y-79732238D01*
X81172761Y-79637000D01*
X81315619Y-79589380D01*
X81410857Y-79589380D01*
X81553714Y-79637000D01*
X81601333Y-79684619D01*
X82458476Y-79922714D02*
X82458476Y-80589380D01*
X82220380Y-79541761D02*
X81982285Y-80256047D01*
X82601333Y-80256047D01*
G04 #@! TO.C,C2*
X143867142Y-92114666D02*
X143914761Y-92162285D01*
X143962380Y-92305142D01*
X143962380Y-92400380D01*
X143914761Y-92543238D01*
X143819523Y-92638476D01*
X143724285Y-92686095D01*
X143533809Y-92733714D01*
X143390952Y-92733714D01*
X143200476Y-92686095D01*
X143105238Y-92638476D01*
X143010000Y-92543238D01*
X142962380Y-92400380D01*
X142962380Y-92305142D01*
X143010000Y-92162285D01*
X143057619Y-92114666D01*
X143057619Y-91733714D02*
X143010000Y-91686095D01*
X142962380Y-91590857D01*
X142962380Y-91352761D01*
X143010000Y-91257523D01*
X143057619Y-91209904D01*
X143152857Y-91162285D01*
X143248095Y-91162285D01*
X143390952Y-91209904D01*
X143962380Y-91781333D01*
X143962380Y-91162285D01*
G04 #@! TO.C,J2*
X113966666Y-98252380D02*
X113966666Y-98966666D01*
X113919047Y-99109523D01*
X113823809Y-99204761D01*
X113680952Y-99252380D01*
X113585714Y-99252380D01*
X114395238Y-98347619D02*
X114442857Y-98300000D01*
X114538095Y-98252380D01*
X114776190Y-98252380D01*
X114871428Y-98300000D01*
X114919047Y-98347619D01*
X114966666Y-98442857D01*
X114966666Y-98538095D01*
X114919047Y-98680952D01*
X114347619Y-99252380D01*
X114966666Y-99252380D01*
G04 #@! TO.C,J4*
X125007619Y-88566666D02*
X124293333Y-88566666D01*
X124150476Y-88519047D01*
X124055238Y-88423809D01*
X124007619Y-88280952D01*
X124007619Y-88185714D01*
X124674285Y-89471428D02*
X124007619Y-89471428D01*
X125055238Y-89233333D02*
X124340952Y-88995238D01*
X124340952Y-89614285D01*
G04 #@! TO.C,J5*
X119927619Y-80946666D02*
X119213333Y-80946666D01*
X119070476Y-80899047D01*
X118975238Y-80803809D01*
X118927619Y-80660952D01*
X118927619Y-80565714D01*
X119927619Y-81899047D02*
X119927619Y-81422857D01*
X119451428Y-81375238D01*
X119499047Y-81422857D01*
X119546666Y-81518095D01*
X119546666Y-81756190D01*
X119499047Y-81851428D01*
X119451428Y-81899047D01*
X119356190Y-81946666D01*
X119118095Y-81946666D01*
X119022857Y-81899047D01*
X118975238Y-81851428D01*
X118927619Y-81756190D01*
X118927619Y-81518095D01*
X118975238Y-81422857D01*
X119022857Y-81375238D01*
G04 #@! TO.C,R2*
X140787380Y-96686666D02*
X140311190Y-97020000D01*
X140787380Y-97258095D02*
X139787380Y-97258095D01*
X139787380Y-96877142D01*
X139835000Y-96781904D01*
X139882619Y-96734285D01*
X139977857Y-96686666D01*
X140120714Y-96686666D01*
X140215952Y-96734285D01*
X140263571Y-96781904D01*
X140311190Y-96877142D01*
X140311190Y-97258095D01*
X139882619Y-96305714D02*
X139835000Y-96258095D01*
X139787380Y-96162857D01*
X139787380Y-95924761D01*
X139835000Y-95829523D01*
X139882619Y-95781904D01*
X139977857Y-95734285D01*
X140073095Y-95734285D01*
X140215952Y-95781904D01*
X140787380Y-96353333D01*
X140787380Y-95734285D01*
G04 #@! TO.C,U1*
X129918095Y-96632380D02*
X129918095Y-97441904D01*
X129965714Y-97537142D01*
X130013333Y-97584761D01*
X130108571Y-97632380D01*
X130299047Y-97632380D01*
X130394285Y-97584761D01*
X130441904Y-97537142D01*
X130489523Y-97441904D01*
X130489523Y-96632380D01*
X131489523Y-97632380D02*
X130918095Y-97632380D01*
X131203809Y-97632380D02*
X131203809Y-96632380D01*
X131108571Y-96775238D01*
X131013333Y-96870476D01*
X130918095Y-96918095D01*
G04 #@! TO.C,C3*
X146407142Y-87161666D02*
X146454761Y-87209285D01*
X146502380Y-87352142D01*
X146502380Y-87447380D01*
X146454761Y-87590238D01*
X146359523Y-87685476D01*
X146264285Y-87733095D01*
X146073809Y-87780714D01*
X145930952Y-87780714D01*
X145740476Y-87733095D01*
X145645238Y-87685476D01*
X145550000Y-87590238D01*
X145502380Y-87447380D01*
X145502380Y-87352142D01*
X145550000Y-87209285D01*
X145597619Y-87161666D01*
X145502380Y-86828333D02*
X145502380Y-86209285D01*
X145883333Y-86542619D01*
X145883333Y-86399761D01*
X145930952Y-86304523D01*
X145978571Y-86256904D01*
X146073809Y-86209285D01*
X146311904Y-86209285D01*
X146407142Y-86256904D01*
X146454761Y-86304523D01*
X146502380Y-86399761D01*
X146502380Y-86685476D01*
X146454761Y-86780714D01*
X146407142Y-86828333D01*
G04 #@! TO.C,R3*
X144724380Y-88304666D02*
X144248190Y-88638000D01*
X144724380Y-88876095D02*
X143724380Y-88876095D01*
X143724380Y-88495142D01*
X143772000Y-88399904D01*
X143819619Y-88352285D01*
X143914857Y-88304666D01*
X144057714Y-88304666D01*
X144152952Y-88352285D01*
X144200571Y-88399904D01*
X144248190Y-88495142D01*
X144248190Y-88876095D01*
X143724380Y-87971333D02*
X143724380Y-87352285D01*
X144105333Y-87685619D01*
X144105333Y-87542761D01*
X144152952Y-87447523D01*
X144200571Y-87399904D01*
X144295809Y-87352285D01*
X144533904Y-87352285D01*
X144629142Y-87399904D01*
X144676761Y-87447523D01*
X144724380Y-87542761D01*
X144724380Y-87828476D01*
X144676761Y-87923714D01*
X144629142Y-87971333D01*
G04 #@! TO.C,RX1*
X153947142Y-100782380D02*
X153613809Y-100306190D01*
X153375714Y-100782380D02*
X153375714Y-99782380D01*
X153756666Y-99782380D01*
X153851904Y-99830000D01*
X153899523Y-99877619D01*
X153947142Y-99972857D01*
X153947142Y-100115714D01*
X153899523Y-100210952D01*
X153851904Y-100258571D01*
X153756666Y-100306190D01*
X153375714Y-100306190D01*
X154280476Y-99782380D02*
X154947142Y-100782380D01*
X154947142Y-99782380D02*
X154280476Y-100782380D01*
X155851904Y-100782380D02*
X155280476Y-100782380D01*
X155566190Y-100782380D02*
X155566190Y-99782380D01*
X155470952Y-99925238D01*
X155375714Y-100020476D01*
X155280476Y-100068095D01*
G04 #@! TD*
M02*
