G04 #@! TF.GenerationSoftware,KiCad,Pcbnew,5.0.2-bee76a0~70~ubuntu18.04.1*
G04 #@! TF.CreationDate,2020-01-29T22:32:52+01:00*
G04 #@! TF.ProjectId,opto_board,6f70746f-5f62-46f6-9172-642e6b696361,rev?*
G04 #@! TF.SameCoordinates,Original*
G04 #@! TF.FileFunction,Copper,L1,Top*
G04 #@! TF.FilePolarity,Positive*
%FSLAX46Y46*%
G04 Gerber Fmt 4.6, Leading zero omitted, Abs format (unit mm)*
G04 Created by KiCad (PCBNEW 5.0.2-bee76a0~70~ubuntu18.04.1) date ons 29 jan 2020 22:32:52*
%MOMM*%
%LPD*%
G01*
G04 APERTURE LIST*
G04 #@! TA.AperFunction,ComponentPad*
%ADD10C,1.600000*%
G04 #@! TD*
G04 #@! TA.AperFunction,ComponentPad*
%ADD11O,1.600000X1.600000*%
G04 #@! TD*
G04 #@! TA.AperFunction,Conductor*
%ADD12C,0.100000*%
G04 #@! TD*
G04 #@! TA.AperFunction,ComponentPad*
%ADD13C,1.740000*%
G04 #@! TD*
G04 #@! TA.AperFunction,ComponentPad*
%ADD14O,2.200000X1.740000*%
G04 #@! TD*
G04 #@! TA.AperFunction,ComponentPad*
%ADD15R,1.600000X1.600000*%
G04 #@! TD*
G04 #@! TA.AperFunction,ComponentPad*
%ADD16O,1.740000X2.200000*%
G04 #@! TD*
G04 #@! TA.AperFunction,ComponentPad*
%ADD17C,1.524000*%
G04 #@! TD*
G04 #@! TA.AperFunction,ComponentPad*
%ADD18R,2.200000X2.200000*%
G04 #@! TD*
G04 #@! TA.AperFunction,ComponentPad*
%ADD19O,2.200000X2.200000*%
G04 #@! TD*
G04 #@! TA.AperFunction,ComponentPad*
%ADD20R,1.800000X1.800000*%
G04 #@! TD*
G04 #@! TA.AperFunction,ComponentPad*
%ADD21C,1.800000*%
G04 #@! TD*
G04 #@! TA.AperFunction,ComponentPad*
%ADD22C,4.000000*%
G04 #@! TD*
G04 #@! TA.AperFunction,ComponentPad*
%ADD23O,1.700000X1.700000*%
G04 #@! TD*
G04 #@! TA.AperFunction,ComponentPad*
%ADD24R,1.700000X1.700000*%
G04 #@! TD*
G04 #@! TA.AperFunction,ViaPad*
%ADD25C,0.800000*%
G04 #@! TD*
G04 #@! TA.AperFunction,Conductor*
%ADD26C,0.250000*%
G04 #@! TD*
G04 #@! TA.AperFunction,Conductor*
%ADD27C,0.254000*%
G04 #@! TD*
G04 APERTURE END LIST*
D10*
G04 #@! TO.P,C11,1*
G04 #@! TO.N,GND*
X138303000Y-76748000D03*
G04 #@! TO.P,C11,2*
G04 #@! TO.N,Net-(C11-Pad2)*
X138303000Y-79248000D03*
G04 #@! TD*
G04 #@! TO.P,C1,1*
G04 #@! TO.N,GND*
X101600000Y-69255000D03*
G04 #@! TO.P,C1,2*
G04 #@! TO.N,Net-(C1-Pad2)*
X101600000Y-71755000D03*
G04 #@! TD*
G04 #@! TO.P,R1,1*
G04 #@! TO.N,Net-(C1-Pad2)*
X97790000Y-76200000D03*
D11*
G04 #@! TO.P,R1,2*
G04 #@! TO.N,GND*
X97790000Y-71120000D03*
G04 #@! TD*
D12*
G04 #@! TO.N,Net-(D7-Pad4)*
G04 #@! TO.C,J1*
G36*
X82789505Y-72791204D02*
X82813773Y-72794804D01*
X82837572Y-72800765D01*
X82860671Y-72809030D01*
X82882850Y-72819520D01*
X82903893Y-72832132D01*
X82923599Y-72846747D01*
X82941777Y-72863223D01*
X82958253Y-72881401D01*
X82972868Y-72901107D01*
X82985480Y-72922150D01*
X82995970Y-72944329D01*
X83004235Y-72967428D01*
X83010196Y-72991227D01*
X83013796Y-73015495D01*
X83015000Y-73039999D01*
X83015000Y-74280001D01*
X83013796Y-74304505D01*
X83010196Y-74328773D01*
X83004235Y-74352572D01*
X82995970Y-74375671D01*
X82985480Y-74397850D01*
X82972868Y-74418893D01*
X82958253Y-74438599D01*
X82941777Y-74456777D01*
X82923599Y-74473253D01*
X82903893Y-74487868D01*
X82882850Y-74500480D01*
X82860671Y-74510970D01*
X82837572Y-74519235D01*
X82813773Y-74525196D01*
X82789505Y-74528796D01*
X82765001Y-74530000D01*
X81064999Y-74530000D01*
X81040495Y-74528796D01*
X81016227Y-74525196D01*
X80992428Y-74519235D01*
X80969329Y-74510970D01*
X80947150Y-74500480D01*
X80926107Y-74487868D01*
X80906401Y-74473253D01*
X80888223Y-74456777D01*
X80871747Y-74438599D01*
X80857132Y-74418893D01*
X80844520Y-74397850D01*
X80834030Y-74375671D01*
X80825765Y-74352572D01*
X80819804Y-74328773D01*
X80816204Y-74304505D01*
X80815000Y-74280001D01*
X80815000Y-73039999D01*
X80816204Y-73015495D01*
X80819804Y-72991227D01*
X80825765Y-72967428D01*
X80834030Y-72944329D01*
X80844520Y-72922150D01*
X80857132Y-72901107D01*
X80871747Y-72881401D01*
X80888223Y-72863223D01*
X80906401Y-72846747D01*
X80926107Y-72832132D01*
X80947150Y-72819520D01*
X80969329Y-72809030D01*
X80992428Y-72800765D01*
X81016227Y-72794804D01*
X81040495Y-72791204D01*
X81064999Y-72790000D01*
X82765001Y-72790000D01*
X82789505Y-72791204D01*
X82789505Y-72791204D01*
G37*
D13*
G04 #@! TD*
G04 #@! TO.P,J1,1*
G04 #@! TO.N,Net-(D7-Pad4)*
X81915000Y-73660000D03*
D14*
G04 #@! TO.P,J1,2*
G04 #@! TO.N,Net-(D7-Pad3)*
X81915000Y-71120000D03*
G04 #@! TD*
D11*
G04 #@! TO.P,D7,4*
G04 #@! TO.N,Net-(D7-Pad4)*
X86360000Y-75565000D03*
G04 #@! TO.P,D7,2*
G04 #@! TO.N,GND*
X93980000Y-70485000D03*
G04 #@! TO.P,D7,3*
G04 #@! TO.N,Net-(D7-Pad3)*
X86360000Y-70485000D03*
D15*
G04 #@! TO.P,D7,1*
G04 #@! TO.N,Net-(C1-Pad2)*
X93980000Y-75565000D03*
G04 #@! TD*
D12*
G04 #@! TO.N,GND*
G04 #@! TO.C,J8*
G36*
X114944505Y-71291204D02*
X114968773Y-71294804D01*
X114992572Y-71300765D01*
X115015671Y-71309030D01*
X115037850Y-71319520D01*
X115058893Y-71332132D01*
X115078599Y-71346747D01*
X115096777Y-71363223D01*
X115113253Y-71381401D01*
X115127868Y-71401107D01*
X115140480Y-71422150D01*
X115150970Y-71444329D01*
X115159235Y-71467428D01*
X115165196Y-71491227D01*
X115168796Y-71515495D01*
X115170000Y-71539999D01*
X115170000Y-73240001D01*
X115168796Y-73264505D01*
X115165196Y-73288773D01*
X115159235Y-73312572D01*
X115150970Y-73335671D01*
X115140480Y-73357850D01*
X115127868Y-73378893D01*
X115113253Y-73398599D01*
X115096777Y-73416777D01*
X115078599Y-73433253D01*
X115058893Y-73447868D01*
X115037850Y-73460480D01*
X115015671Y-73470970D01*
X114992572Y-73479235D01*
X114968773Y-73485196D01*
X114944505Y-73488796D01*
X114920001Y-73490000D01*
X113679999Y-73490000D01*
X113655495Y-73488796D01*
X113631227Y-73485196D01*
X113607428Y-73479235D01*
X113584329Y-73470970D01*
X113562150Y-73460480D01*
X113541107Y-73447868D01*
X113521401Y-73433253D01*
X113503223Y-73416777D01*
X113486747Y-73398599D01*
X113472132Y-73378893D01*
X113459520Y-73357850D01*
X113449030Y-73335671D01*
X113440765Y-73312572D01*
X113434804Y-73288773D01*
X113431204Y-73264505D01*
X113430000Y-73240001D01*
X113430000Y-71539999D01*
X113431204Y-71515495D01*
X113434804Y-71491227D01*
X113440765Y-71467428D01*
X113449030Y-71444329D01*
X113459520Y-71422150D01*
X113472132Y-71401107D01*
X113486747Y-71381401D01*
X113503223Y-71363223D01*
X113521401Y-71346747D01*
X113541107Y-71332132D01*
X113562150Y-71319520D01*
X113584329Y-71309030D01*
X113607428Y-71300765D01*
X113631227Y-71294804D01*
X113655495Y-71291204D01*
X113679999Y-71290000D01*
X114920001Y-71290000D01*
X114944505Y-71291204D01*
X114944505Y-71291204D01*
G37*
D13*
G04 #@! TD*
G04 #@! TO.P,J8,1*
G04 #@! TO.N,GND*
X114300000Y-72390000D03*
D16*
G04 #@! TO.P,J8,2*
G04 #@! TO.N,+3V3*
X111760000Y-72390000D03*
G04 #@! TO.P,J8,3*
G04 #@! TO.N,Net-(C9-Pad2)*
X109220000Y-72390000D03*
G04 #@! TD*
D11*
G04 #@! TO.P,R8,2*
G04 #@! TO.N,Net-(C9-Pad2)*
X104775000Y-74930000D03*
D10*
G04 #@! TO.P,R8,1*
G04 #@! TO.N,GND*
X102235000Y-74930000D03*
G04 #@! TD*
G04 #@! TO.P,R9,1*
G04 #@! TO.N,GND*
X134620000Y-69850000D03*
D11*
G04 #@! TO.P,R9,2*
G04 #@! TO.N,Net-(C10-Pad2)*
X134620000Y-72390000D03*
G04 #@! TD*
D10*
G04 #@! TO.P,C10,2*
G04 #@! TO.N,Net-(C10-Pad2)*
X130810000Y-72350000D03*
G04 #@! TO.P,C10,1*
G04 #@! TO.N,GND*
X130810000Y-69850000D03*
G04 #@! TD*
G04 #@! TO.P,C9,1*
G04 #@! TO.N,GND*
X105410000Y-69215000D03*
G04 #@! TO.P,C9,2*
G04 #@! TO.N,Net-(C9-Pad2)*
X105410000Y-71715000D03*
G04 #@! TD*
D17*
G04 #@! TO.P,U2,1*
G04 #@! TO.N,Net-(C3-Pad2)*
X76450000Y-96520000D03*
G04 #@! TO.P,U2,2*
G04 #@! TO.N,Net-(R2-Pad1)*
X78990000Y-96520000D03*
G04 #@! TO.P,U2,3*
G04 #@! TO.N,Net-(U2-Pad3)*
X81530000Y-96520000D03*
G04 #@! TO.P,U2,4*
G04 #@! TO.N,GND*
X84070000Y-96520000D03*
G04 #@! TO.P,U2,5*
G04 #@! TO.N,Net-(U2-Pad5)*
X86610000Y-96520000D03*
G04 #@! TO.P,U2,6*
G04 #@! TO.N,Net-(U2-Pad6)*
X89150000Y-96520000D03*
G04 #@! TO.P,U2,7*
G04 #@! TO.N,Net-(U2-Pad7)*
X91690000Y-96520000D03*
G04 #@! TO.P,U2,8*
G04 #@! TO.N,Net-(U2-Pad8)*
X94230000Y-96520000D03*
G04 #@! TO.P,U2,9*
G04 #@! TO.N,Net-(J6-Pad3)*
X96770000Y-96520000D03*
G04 #@! TO.P,U2,10*
G04 #@! TO.N,Net-(U2-Pad10)*
X99310000Y-96520000D03*
G04 #@! TO.P,U2,11*
G04 #@! TO.N,Net-(U2-Pad11)*
X101850000Y-96520000D03*
G04 #@! TO.P,U2,12*
G04 #@! TO.N,Net-(J4-Pad1)*
X104390000Y-96520000D03*
G04 #@! TO.P,U2,13*
G04 #@! TO.N,Net-(U2-Pad13)*
X106930000Y-96520000D03*
G04 #@! TO.P,U2,14*
G04 #@! TO.N,Net-(J7-Pad3)*
X109470000Y-96520000D03*
G04 #@! TO.P,U2,15*
G04 #@! TO.N,Net-(U2-Pad15)*
X112010000Y-96520000D03*
G04 #@! TO.P,U2,16*
G04 #@! TO.N,Net-(U2-Pad16)*
X112010000Y-81280000D03*
G04 #@! TO.P,U2,17*
G04 #@! TO.N,+3V3*
X109470000Y-81280000D03*
G04 #@! TO.P,U2,18*
G04 #@! TO.N,Net-(U2-Pad18)*
X106930000Y-81280000D03*
G04 #@! TO.P,U2,19*
G04 #@! TO.N,Net-(D12-Pad1)*
X104390000Y-81280000D03*
G04 #@! TO.P,U2,20*
G04 #@! TO.N,Net-(C1-Pad2)*
X101850000Y-81280000D03*
G04 #@! TO.P,U2,21*
G04 #@! TO.N,Net-(J4-Pad3)*
X99310000Y-81280000D03*
G04 #@! TO.P,U2,22*
G04 #@! TO.N,Net-(C10-Pad2)*
X96770000Y-81280000D03*
G04 #@! TO.P,U2,23*
G04 #@! TO.N,Net-(C9-Pad2)*
X94230000Y-81280000D03*
G04 #@! TO.P,U2,24*
G04 #@! TO.N,Net-(U2-Pad24)*
X91690000Y-81280000D03*
G04 #@! TO.P,U2,25*
G04 #@! TO.N,Net-(J5-Pad1)*
X89150000Y-81280000D03*
G04 #@! TO.P,U2,26*
G04 #@! TO.N,Net-(J5-Pad3)*
X86610000Y-81280000D03*
G04 #@! TO.P,U2,27*
G04 #@! TO.N,+5V*
X84070000Y-81280000D03*
G04 #@! TO.P,U2,28*
G04 #@! TO.N,Net-(U2-Pad28)*
X81530000Y-81280000D03*
G04 #@! TO.P,U2,29*
G04 #@! TO.N,GND*
X78990000Y-81280000D03*
G04 #@! TO.P,U2,30*
G04 #@! TO.N,Net-(U2-Pad30)*
X76450000Y-81280000D03*
G04 #@! TD*
G04 #@! TO.P,TX1,1*
G04 #@! TO.N,+5V*
X149460000Y-81915000D03*
G04 #@! TO.P,TX1,2*
G04 #@! TO.N,Net-(C3-Pad1)*
X149460000Y-84455000D03*
G04 #@! TO.P,TX1,3*
G04 #@! TO.N,Net-(TX1-Pad3)*
X157080000Y-80645000D03*
G04 #@! TO.P,TX1,4*
G04 #@! TO.N,Net-(TX1-Pad4)*
X157080000Y-85725000D03*
G04 #@! TD*
D16*
G04 #@! TO.P,J9,3*
G04 #@! TO.N,Net-(C10-Pad2)*
X116840000Y-72390000D03*
G04 #@! TO.P,J9,2*
G04 #@! TO.N,+3V3*
X119380000Y-72390000D03*
D12*
G04 #@! TD*
G04 #@! TO.N,GND*
G04 #@! TO.C,J9*
G36*
X122564505Y-71291204D02*
X122588773Y-71294804D01*
X122612572Y-71300765D01*
X122635671Y-71309030D01*
X122657850Y-71319520D01*
X122678893Y-71332132D01*
X122698599Y-71346747D01*
X122716777Y-71363223D01*
X122733253Y-71381401D01*
X122747868Y-71401107D01*
X122760480Y-71422150D01*
X122770970Y-71444329D01*
X122779235Y-71467428D01*
X122785196Y-71491227D01*
X122788796Y-71515495D01*
X122790000Y-71539999D01*
X122790000Y-73240001D01*
X122788796Y-73264505D01*
X122785196Y-73288773D01*
X122779235Y-73312572D01*
X122770970Y-73335671D01*
X122760480Y-73357850D01*
X122747868Y-73378893D01*
X122733253Y-73398599D01*
X122716777Y-73416777D01*
X122698599Y-73433253D01*
X122678893Y-73447868D01*
X122657850Y-73460480D01*
X122635671Y-73470970D01*
X122612572Y-73479235D01*
X122588773Y-73485196D01*
X122564505Y-73488796D01*
X122540001Y-73490000D01*
X121299999Y-73490000D01*
X121275495Y-73488796D01*
X121251227Y-73485196D01*
X121227428Y-73479235D01*
X121204329Y-73470970D01*
X121182150Y-73460480D01*
X121161107Y-73447868D01*
X121141401Y-73433253D01*
X121123223Y-73416777D01*
X121106747Y-73398599D01*
X121092132Y-73378893D01*
X121079520Y-73357850D01*
X121069030Y-73335671D01*
X121060765Y-73312572D01*
X121054804Y-73288773D01*
X121051204Y-73264505D01*
X121050000Y-73240001D01*
X121050000Y-71539999D01*
X121051204Y-71515495D01*
X121054804Y-71491227D01*
X121060765Y-71467428D01*
X121069030Y-71444329D01*
X121079520Y-71422150D01*
X121092132Y-71401107D01*
X121106747Y-71381401D01*
X121123223Y-71363223D01*
X121141401Y-71346747D01*
X121161107Y-71332132D01*
X121182150Y-71319520D01*
X121204329Y-71309030D01*
X121227428Y-71300765D01*
X121251227Y-71294804D01*
X121275495Y-71291204D01*
X121299999Y-71290000D01*
X122540001Y-71290000D01*
X122564505Y-71291204D01*
X122564505Y-71291204D01*
G37*
D13*
G04 #@! TO.P,J9,1*
G04 #@! TO.N,GND*
X121920000Y-72390000D03*
G04 #@! TD*
D16*
G04 #@! TO.P,J7,3*
G04 #@! TO.N,Net-(J7-Pad3)*
X93980000Y-104140000D03*
G04 #@! TO.P,J7,2*
G04 #@! TO.N,+5V*
X91440000Y-104140000D03*
D12*
G04 #@! TD*
G04 #@! TO.N,GND*
G04 #@! TO.C,J7*
G36*
X89544505Y-103041204D02*
X89568773Y-103044804D01*
X89592572Y-103050765D01*
X89615671Y-103059030D01*
X89637850Y-103069520D01*
X89658893Y-103082132D01*
X89678599Y-103096747D01*
X89696777Y-103113223D01*
X89713253Y-103131401D01*
X89727868Y-103151107D01*
X89740480Y-103172150D01*
X89750970Y-103194329D01*
X89759235Y-103217428D01*
X89765196Y-103241227D01*
X89768796Y-103265495D01*
X89770000Y-103289999D01*
X89770000Y-104990001D01*
X89768796Y-105014505D01*
X89765196Y-105038773D01*
X89759235Y-105062572D01*
X89750970Y-105085671D01*
X89740480Y-105107850D01*
X89727868Y-105128893D01*
X89713253Y-105148599D01*
X89696777Y-105166777D01*
X89678599Y-105183253D01*
X89658893Y-105197868D01*
X89637850Y-105210480D01*
X89615671Y-105220970D01*
X89592572Y-105229235D01*
X89568773Y-105235196D01*
X89544505Y-105238796D01*
X89520001Y-105240000D01*
X88279999Y-105240000D01*
X88255495Y-105238796D01*
X88231227Y-105235196D01*
X88207428Y-105229235D01*
X88184329Y-105220970D01*
X88162150Y-105210480D01*
X88141107Y-105197868D01*
X88121401Y-105183253D01*
X88103223Y-105166777D01*
X88086747Y-105148599D01*
X88072132Y-105128893D01*
X88059520Y-105107850D01*
X88049030Y-105085671D01*
X88040765Y-105062572D01*
X88034804Y-105038773D01*
X88031204Y-105014505D01*
X88030000Y-104990001D01*
X88030000Y-103289999D01*
X88031204Y-103265495D01*
X88034804Y-103241227D01*
X88040765Y-103217428D01*
X88049030Y-103194329D01*
X88059520Y-103172150D01*
X88072132Y-103151107D01*
X88086747Y-103131401D01*
X88103223Y-103113223D01*
X88121401Y-103096747D01*
X88141107Y-103082132D01*
X88162150Y-103069520D01*
X88184329Y-103059030D01*
X88207428Y-103050765D01*
X88231227Y-103044804D01*
X88255495Y-103041204D01*
X88279999Y-103040000D01*
X89520001Y-103040000D01*
X89544505Y-103041204D01*
X89544505Y-103041204D01*
G37*
D13*
G04 #@! TO.P,J7,1*
G04 #@! TO.N,GND*
X88900000Y-104140000D03*
G04 #@! TD*
D12*
G04 #@! TO.N,GND*
G04 #@! TO.C,J6*
G36*
X81924505Y-103041204D02*
X81948773Y-103044804D01*
X81972572Y-103050765D01*
X81995671Y-103059030D01*
X82017850Y-103069520D01*
X82038893Y-103082132D01*
X82058599Y-103096747D01*
X82076777Y-103113223D01*
X82093253Y-103131401D01*
X82107868Y-103151107D01*
X82120480Y-103172150D01*
X82130970Y-103194329D01*
X82139235Y-103217428D01*
X82145196Y-103241227D01*
X82148796Y-103265495D01*
X82150000Y-103289999D01*
X82150000Y-104990001D01*
X82148796Y-105014505D01*
X82145196Y-105038773D01*
X82139235Y-105062572D01*
X82130970Y-105085671D01*
X82120480Y-105107850D01*
X82107868Y-105128893D01*
X82093253Y-105148599D01*
X82076777Y-105166777D01*
X82058599Y-105183253D01*
X82038893Y-105197868D01*
X82017850Y-105210480D01*
X81995671Y-105220970D01*
X81972572Y-105229235D01*
X81948773Y-105235196D01*
X81924505Y-105238796D01*
X81900001Y-105240000D01*
X80659999Y-105240000D01*
X80635495Y-105238796D01*
X80611227Y-105235196D01*
X80587428Y-105229235D01*
X80564329Y-105220970D01*
X80542150Y-105210480D01*
X80521107Y-105197868D01*
X80501401Y-105183253D01*
X80483223Y-105166777D01*
X80466747Y-105148599D01*
X80452132Y-105128893D01*
X80439520Y-105107850D01*
X80429030Y-105085671D01*
X80420765Y-105062572D01*
X80414804Y-105038773D01*
X80411204Y-105014505D01*
X80410000Y-104990001D01*
X80410000Y-103289999D01*
X80411204Y-103265495D01*
X80414804Y-103241227D01*
X80420765Y-103217428D01*
X80429030Y-103194329D01*
X80439520Y-103172150D01*
X80452132Y-103151107D01*
X80466747Y-103131401D01*
X80483223Y-103113223D01*
X80501401Y-103096747D01*
X80521107Y-103082132D01*
X80542150Y-103069520D01*
X80564329Y-103059030D01*
X80587428Y-103050765D01*
X80611227Y-103044804D01*
X80635495Y-103041204D01*
X80659999Y-103040000D01*
X81900001Y-103040000D01*
X81924505Y-103041204D01*
X81924505Y-103041204D01*
G37*
D13*
G04 #@! TD*
G04 #@! TO.P,J6,1*
G04 #@! TO.N,GND*
X81280000Y-104140000D03*
D16*
G04 #@! TO.P,J6,2*
G04 #@! TO.N,+5V*
X83820000Y-104140000D03*
G04 #@! TO.P,J6,3*
G04 #@! TO.N,Net-(J6-Pad3)*
X86360000Y-104140000D03*
G04 #@! TD*
D10*
G04 #@! TO.P,C5,1*
G04 #@! TO.N,GND*
X121920000Y-93980000D03*
G04 #@! TO.P,C5,2*
G04 #@! TO.N,+3V3*
X121920000Y-96480000D03*
G04 #@! TD*
D18*
G04 #@! TO.P,D8,1*
G04 #@! TO.N,+5V*
X142240000Y-100076000D03*
D19*
G04 #@! TO.P,D8,2*
G04 #@! TO.N,GND*
X146050000Y-100076000D03*
G04 #@! TD*
D18*
G04 #@! TO.P,D4,1*
G04 #@! TO.N,+3V3*
X146050000Y-75565000D03*
D19*
G04 #@! TO.P,D4,2*
G04 #@! TO.N,GND*
X146050000Y-79375000D03*
G04 #@! TD*
D20*
G04 #@! TO.P,D2,1*
G04 #@! TO.N,GND*
X146050000Y-105918000D03*
D21*
G04 #@! TO.P,D2,2*
G04 #@! TO.N,+3V3*
X143510000Y-105918000D03*
G04 #@! TD*
G04 #@! TO.P,D12,2*
G04 #@! TO.N,+3V3*
X147320000Y-71120000D03*
D20*
G04 #@! TO.P,D12,1*
G04 #@! TO.N,Net-(D12-Pad1)*
X144780000Y-71120000D03*
G04 #@! TD*
D10*
G04 #@! TO.P,R4,1*
G04 #@! TO.N,Net-(J2-Pad0)*
X135001000Y-97790000D03*
D11*
G04 #@! TO.P,R4,2*
G04 #@! TO.N,GND*
X135001000Y-107950000D03*
G04 #@! TD*
D21*
G04 #@! TO.P,D6,2*
G04 #@! TO.N,+3V3*
X142240000Y-71120000D03*
D20*
G04 #@! TO.P,D6,1*
G04 #@! TO.N,Net-(D6-Pad1)*
X139700000Y-71120000D03*
G04 #@! TD*
D10*
G04 #@! TO.P,C7,1*
G04 #@! TO.N,Net-(C7-Pad1)*
X138430000Y-83820000D03*
G04 #@! TO.P,C7,2*
G04 #@! TO.N,Net-(C7-Pad2)*
X138430000Y-86320000D03*
G04 #@! TD*
G04 #@! TO.P,C8,2*
G04 #@! TO.N,Net-(C8-Pad2)*
X142240000Y-93305000D03*
G04 #@! TO.P,C8,1*
G04 #@! TO.N,GND*
X142240000Y-90805000D03*
G04 #@! TD*
G04 #@! TO.P,C6,1*
G04 #@! TO.N,Net-(C6-Pad1)*
X138430000Y-90170000D03*
G04 #@! TO.P,C6,2*
G04 #@! TO.N,Net-(C6-Pad2)*
X138430000Y-92670000D03*
G04 #@! TD*
G04 #@! TO.P,C4,2*
G04 #@! TO.N,+3V3*
X83018000Y-77597000D03*
G04 #@! TO.P,C4,1*
G04 #@! TO.N,GND*
X80518000Y-77597000D03*
G04 #@! TD*
G04 #@! TO.P,C2,1*
G04 #@! TO.N,GND*
X146050000Y-93980000D03*
G04 #@! TO.P,C2,2*
G04 #@! TO.N,+5V*
X146050000Y-91480000D03*
G04 #@! TD*
D15*
G04 #@! TO.P,J2,1*
G04 #@! TO.N,Net-(J2-Pad1)*
X119840000Y-101600000D03*
D10*
G04 #@! TO.P,J2,2*
G04 #@! TO.N,Net-(J2-Pad2)*
X117070000Y-101600000D03*
G04 #@! TO.P,J2,3*
G04 #@! TO.N,Net-(J2-Pad3)*
X114300000Y-101600000D03*
G04 #@! TO.P,J2,4*
G04 #@! TO.N,Net-(J2-Pad4)*
X111530000Y-101600000D03*
G04 #@! TO.P,J2,5*
G04 #@! TO.N,GND*
X108760000Y-101600000D03*
G04 #@! TO.P,J2,6*
G04 #@! TO.N,Net-(J2-Pad6)*
X118455000Y-104440000D03*
G04 #@! TO.P,J2,7*
G04 #@! TO.N,Net-(J2-Pad7)*
X115685000Y-104440000D03*
G04 #@! TO.P,J2,8*
G04 #@! TO.N,Net-(J2-Pad8)*
X112915000Y-104440000D03*
G04 #@! TO.P,J2,9*
G04 #@! TO.N,Net-(J2-Pad9)*
X110145000Y-104440000D03*
D22*
G04 #@! TO.P,J2,0*
G04 #@! TO.N,Net-(J2-Pad0)*
X101800000Y-103020000D03*
X126800000Y-103020000D03*
G04 #@! TD*
D23*
G04 #@! TO.P,J4,3*
G04 #@! TO.N,Net-(J4-Pad3)*
X121920000Y-86360000D03*
G04 #@! TO.P,J4,2*
G04 #@! TO.N,Net-(J4-Pad2)*
X121920000Y-88900000D03*
D24*
G04 #@! TO.P,J4,1*
G04 #@! TO.N,Net-(J4-Pad1)*
X121920000Y-91440000D03*
G04 #@! TD*
G04 #@! TO.P,J5,1*
G04 #@! TO.N,Net-(J5-Pad1)*
X121920000Y-78740000D03*
D23*
G04 #@! TO.P,J5,2*
G04 #@! TO.N,Net-(J5-Pad2)*
X121920000Y-81280000D03*
G04 #@! TO.P,J5,3*
G04 #@! TO.N,Net-(J5-Pad3)*
X121920000Y-83820000D03*
G04 #@! TD*
D11*
G04 #@! TO.P,R2,2*
G04 #@! TO.N,+5V*
X138557000Y-107950000D03*
D10*
G04 #@! TO.P,R2,1*
G04 #@! TO.N,Net-(R2-Pad1)*
X138557000Y-97790000D03*
G04 #@! TD*
D15*
G04 #@! TO.P,U1,1*
G04 #@! TO.N,Net-(C6-Pad2)*
X134620000Y-93980000D03*
D10*
G04 #@! TO.P,U1,2*
G04 #@! TO.N,Net-(C8-Pad2)*
X134620000Y-91440000D03*
G04 #@! TO.P,U1,3*
G04 #@! TO.N,Net-(C6-Pad1)*
X134620000Y-88900000D03*
G04 #@! TO.P,U1,4*
G04 #@! TO.N,Net-(C7-Pad2)*
X134620000Y-86360000D03*
G04 #@! TO.P,U1,5*
G04 #@! TO.N,Net-(C7-Pad1)*
X134620000Y-83820000D03*
G04 #@! TO.P,U1,6*
G04 #@! TO.N,Net-(C11-Pad2)*
X134620000Y-81280000D03*
G04 #@! TO.P,U1,7*
G04 #@! TO.N,Net-(U1-Pad7)*
X134620000Y-78740000D03*
G04 #@! TO.P,U1,10*
G04 #@! TO.N,Net-(J5-Pad2)*
X127000000Y-78740000D03*
G04 #@! TO.P,U1,11*
X127000000Y-81280000D03*
G04 #@! TO.P,U1,12*
G04 #@! TO.N,Net-(J4-Pad2)*
X127000000Y-83820000D03*
G04 #@! TO.P,U1,13*
G04 #@! TO.N,Net-(J2-Pad2)*
X127000000Y-86360000D03*
G04 #@! TO.P,U1,14*
G04 #@! TO.N,Net-(J2-Pad3)*
X127000000Y-88900000D03*
G04 #@! TO.P,U1,15*
G04 #@! TO.N,GND*
X127000000Y-91440000D03*
G04 #@! TO.P,U1,16*
G04 #@! TO.N,+3V3*
X127000000Y-93980000D03*
G04 #@! TO.P,U1,8*
G04 #@! TO.N,Net-(J2-Pad2)*
X134620000Y-76200000D03*
G04 #@! TO.P,U1,9*
G04 #@! TO.N,Net-(D6-Pad1)*
X127000000Y-76200000D03*
G04 #@! TD*
G04 #@! TO.P,C3,2*
G04 #@! TO.N,Net-(C3-Pad2)*
X146050000Y-81955000D03*
G04 #@! TO.P,C3,1*
G04 #@! TO.N,Net-(C3-Pad1)*
X146050000Y-84455000D03*
G04 #@! TD*
G04 #@! TO.P,R3,1*
G04 #@! TO.N,Net-(C3-Pad1)*
X142240000Y-87630000D03*
D11*
G04 #@! TO.P,R3,2*
G04 #@! TO.N,Net-(C3-Pad2)*
X142240000Y-77470000D03*
G04 #@! TD*
D17*
G04 #@! TO.P,RX1,1*
G04 #@! TO.N,+5V*
X149510000Y-92075000D03*
G04 #@! TO.P,RX1,2*
G04 #@! TO.N,GND*
X149510000Y-94615000D03*
G04 #@! TO.P,RX1,3*
G04 #@! TO.N,Net-(R2-Pad1)*
X149510000Y-97155000D03*
G04 #@! TO.P,RX1,4*
G04 #@! TO.N,Net-(RX1-Pad4)*
X157130000Y-92075000D03*
G04 #@! TO.P,RX1,5*
G04 #@! TO.N,Net-(RX1-Pad5)*
X157130000Y-97155000D03*
G04 #@! TD*
D25*
G04 #@! TO.N,Net-(J4-Pad3)*
X108712000Y-78740000D03*
X113665000Y-78740000D03*
G04 #@! TO.N,Net-(J5-Pad1)*
X111760000Y-77851000D03*
X107315000Y-76454000D03*
G04 #@! TO.N,Net-(J5-Pad3)*
X91440000Y-83820000D03*
X109474000Y-85725002D03*
G04 #@! TO.N,Net-(J2-Pad2)*
X129286000Y-85344000D03*
G04 #@! TO.N,Net-(D12-Pad1)*
X117602000Y-78612998D03*
X128466323Y-74676000D03*
X115679208Y-80608010D03*
G04 #@! TO.N,Net-(C10-Pad2)*
X110490000Y-75184000D03*
X114276000Y-75184000D03*
G04 #@! TD*
D26*
G04 #@! TO.N,Net-(C3-Pad1)*
X148532370Y-84455000D02*
X146050000Y-84455000D01*
X149610000Y-84455000D02*
X148532370Y-84455000D01*
G04 #@! TO.N,GND*
X124460000Y-91440000D02*
X121920000Y-93980000D01*
X127000000Y-91440000D02*
X124460000Y-91440000D01*
X128778000Y-86360000D02*
X131826000Y-89408000D01*
X137668000Y-81788000D02*
X135890000Y-80010000D01*
X133385998Y-80010000D02*
X131318000Y-82077998D01*
X135890000Y-80010000D02*
X133385998Y-80010000D01*
X144272000Y-86868000D02*
X139192000Y-81788000D01*
X143764000Y-88392000D02*
X144272000Y-87884000D01*
X144272000Y-87884000D02*
X144272000Y-86868000D01*
X139192000Y-81788000D02*
X137668000Y-81788000D01*
X128270000Y-85852000D02*
X128778000Y-86360000D01*
X128270000Y-85090000D02*
X128270000Y-85852000D01*
X125476000Y-85852000D02*
X125476000Y-89916000D01*
X128270000Y-85090000D02*
X126238000Y-85090000D01*
X125476000Y-89916000D02*
X127000000Y-91440000D01*
X126238000Y-85090000D02*
X125476000Y-85852000D01*
X143764000Y-89916000D02*
X143764000Y-88392000D01*
X143764000Y-91694000D02*
X143764000Y-89916000D01*
X109559999Y-100800001D02*
X109559999Y-100752001D01*
X108760000Y-101600000D02*
X109559999Y-100800001D01*
X109559999Y-100752001D02*
X110490000Y-99822000D01*
X110490000Y-99822000D02*
X111417002Y-99822000D01*
X111417002Y-99822000D02*
X112268000Y-99822000D01*
X112268000Y-99822000D02*
X112903000Y-100457000D01*
X112903000Y-100457000D02*
X112903000Y-102489000D01*
X92710000Y-101600000D02*
X92710000Y-106172000D01*
X92271010Y-101161010D02*
X92710000Y-101600000D01*
X90678990Y-101161010D02*
X92271010Y-101161010D01*
X88900000Y-104140000D02*
X88900000Y-102940000D01*
X88900000Y-102940000D02*
X90678990Y-101161010D01*
X131826000Y-90170000D02*
X136398000Y-90170000D01*
X131826000Y-89408000D02*
X131826000Y-90170000D01*
X124079000Y-80010000D02*
X119253000Y-80010000D01*
X128016000Y-80010000D02*
X128270000Y-80264000D01*
X128016000Y-80010000D02*
X124079000Y-80010000D01*
X128270000Y-82550000D02*
X124333000Y-82550000D01*
X128270000Y-82550000D02*
X128270000Y-85090000D01*
X128270000Y-80264000D02*
X128270000Y-82550000D01*
X95377000Y-82804000D02*
X100330000Y-82804000D01*
X93472000Y-82804000D02*
X95377000Y-82804000D01*
X123317000Y-82677000D02*
X123190000Y-82550000D01*
X123190000Y-82550000D02*
X119634000Y-82550000D01*
X125730000Y-90170000D02*
X119888000Y-90170000D01*
X119634000Y-82550000D02*
X118999000Y-81915000D01*
X118999000Y-81915000D02*
X118999000Y-78994000D01*
X123825000Y-77089000D02*
X124079000Y-77343000D01*
X121286410Y-85090000D02*
X123317000Y-85090000D01*
X120904000Y-77089000D02*
X123825000Y-77089000D01*
X123317000Y-85090000D02*
X123317000Y-82677000D01*
X119888000Y-86488410D02*
X121286410Y-85090000D01*
X127000000Y-91440000D02*
X125730000Y-90170000D01*
X119888000Y-90170000D02*
X119888000Y-86488410D01*
X118999000Y-78994000D02*
X120904000Y-77089000D01*
X133096000Y-72263000D02*
X133096000Y-71374000D01*
X131572000Y-73787000D02*
X133096000Y-72263000D01*
X130048000Y-73787000D02*
X131572000Y-73787000D01*
X133096000Y-71374000D02*
X134620000Y-69850000D01*
X121920000Y-72390000D02*
X128651000Y-72390000D01*
X128651000Y-72390000D02*
X130048000Y-73787000D01*
X127889000Y-77470000D02*
X124841000Y-77470000D01*
X130048000Y-73787000D02*
X130048000Y-75311000D01*
X130048000Y-75311000D02*
X127889000Y-77470000D01*
X116368999Y-74458999D02*
X115239773Y-73329773D01*
X115239773Y-73329773D02*
X114300000Y-72390000D01*
X119851001Y-74458999D02*
X116368999Y-74458999D01*
X121920000Y-72390000D02*
X119851001Y-74458999D01*
X116368999Y-74458999D02*
X116368999Y-79411999D01*
X116368999Y-79411999D02*
X118110000Y-81153000D01*
X118110000Y-81153000D02*
X118110000Y-81661000D01*
X89916000Y-76454000D02*
X87630000Y-78740000D01*
X89916000Y-72782630D02*
X89916000Y-76454000D01*
X81915000Y-78994000D02*
X87630000Y-78994000D01*
X80518000Y-77597000D02*
X81915000Y-78994000D01*
X87630000Y-78994000D02*
X87630000Y-78740000D01*
X103034999Y-75729999D02*
X102235000Y-74930000D01*
X103632000Y-76327000D02*
X103034999Y-75729999D01*
X114300000Y-72390000D02*
X112522000Y-74168000D01*
X106299000Y-76327000D02*
X103632000Y-76327000D01*
X108458000Y-74168000D02*
X106299000Y-76327000D01*
X112522000Y-74168000D02*
X108458000Y-74168000D01*
X101640000Y-69215000D02*
X101600000Y-69255000D01*
X105410000Y-69215000D02*
X101640000Y-69215000D01*
X99735000Y-71120000D02*
X101600000Y-69255000D01*
X97790000Y-71120000D02*
X99735000Y-71120000D01*
X114808000Y-79883000D02*
X102870000Y-79883000D01*
X116368999Y-79411999D02*
X115279001Y-79411999D01*
X115279001Y-79411999D02*
X114808000Y-79883000D01*
X139192000Y-87630000D02*
X140716000Y-89154000D01*
X133350000Y-87630000D02*
X139192000Y-87630000D01*
X131826000Y-89408000D02*
X131826000Y-89154000D01*
X131826000Y-89154000D02*
X133350000Y-87630000D01*
X103124000Y-80010000D02*
X102870000Y-79756000D01*
X103124000Y-82042000D02*
X103124000Y-80010000D01*
X100330000Y-82804000D02*
X102362000Y-82804000D01*
X102362000Y-82804000D02*
X103124000Y-82042000D01*
X100584000Y-80137000D02*
X100330000Y-79883000D01*
X100330000Y-82804000D02*
X100584000Y-82550000D01*
X100584000Y-82550000D02*
X100584000Y-80137000D01*
X95250000Y-77978000D02*
X95504000Y-78232000D01*
X95504000Y-82677000D02*
X95377000Y-82804000D01*
X95504000Y-78232000D02*
X95504000Y-82677000D01*
X87884000Y-82296000D02*
X87884000Y-79248000D01*
X87884000Y-79248000D02*
X87630000Y-78994000D01*
X93472000Y-82804000D02*
X88392000Y-82804000D01*
X88392000Y-82804000D02*
X87884000Y-82296000D01*
X110744000Y-95504000D02*
X110490000Y-95250000D01*
X108760000Y-101600000D02*
X110744000Y-99616000D01*
X110744000Y-99616000D02*
X110744000Y-95504000D01*
X105664000Y-95250000D02*
X105410000Y-94996000D01*
X105664000Y-97409000D02*
X105664000Y-95250000D01*
X100584000Y-95250000D02*
X100584000Y-98044000D01*
X100330000Y-94996000D02*
X100584000Y-95250000D01*
X100584000Y-98044000D02*
X101092000Y-98552000D01*
X104580630Y-98552000D02*
X104580630Y-98492370D01*
X104580630Y-98492370D02*
X105664000Y-97409000D01*
X101092000Y-98552000D02*
X104580630Y-98552000D01*
X92964000Y-97536000D02*
X92710000Y-97790000D01*
X92964000Y-94996000D02*
X92964000Y-97536000D01*
X92202000Y-94234000D02*
X92964000Y-94996000D01*
X83820000Y-96520000D02*
X86106000Y-94234000D01*
X86106000Y-94234000D02*
X92202000Y-94234000D01*
X92964000Y-77978000D02*
X92964000Y-82296000D01*
X92710000Y-77724000D02*
X92964000Y-77978000D01*
X92964000Y-82296000D02*
X93472000Y-82804000D01*
G04 #@! TO.N,+5V*
X83820000Y-104370000D02*
X83820000Y-104140000D01*
G04 #@! TO.N,Net-(J4-Pad3)*
X108712000Y-78740000D02*
X113665000Y-78740000D01*
G04 #@! TO.N,Net-(J5-Pad1)*
X108712000Y-77851000D02*
X107714999Y-76853999D01*
X111760000Y-77851000D02*
X108712000Y-77851000D01*
X107714999Y-76853999D02*
X107315000Y-76454000D01*
G04 #@! TO.N,Net-(J5-Pad3)*
X87822370Y-83820000D02*
X91440000Y-83820000D01*
X86360000Y-82357630D02*
X87822370Y-83820000D01*
X86360000Y-81280000D02*
X86360000Y-82357630D01*
X109873999Y-85325003D02*
X109474000Y-85725002D01*
X117094000Y-84963000D02*
X110236002Y-84963000D01*
X121920000Y-83820000D02*
X118237000Y-83820000D01*
X110236002Y-84963000D02*
X109873999Y-85325003D01*
X118237000Y-83820000D02*
X117094000Y-84963000D01*
G04 #@! TO.N,Net-(C8-Pad2)*
X135745001Y-92565001D02*
X135745001Y-92692001D01*
X134620000Y-91440000D02*
X135745001Y-92565001D01*
X135745001Y-92692001D02*
X137414000Y-94361000D01*
X141184000Y-94361000D02*
X142240000Y-93305000D01*
X137414000Y-94361000D02*
X141184000Y-94361000D01*
G04 #@! TO.N,Net-(J4-Pad2)*
X123952000Y-86868000D02*
X121920000Y-88900000D01*
X123952000Y-85344000D02*
X123952000Y-86868000D01*
X127000000Y-83820000D02*
X125476000Y-83820000D01*
X125476000Y-83820000D02*
X123952000Y-85344000D01*
G04 #@! TO.N,Net-(J2-Pad2)*
X129540000Y-88900000D02*
X127000000Y-86360000D01*
X129540000Y-96520000D02*
X129540000Y-88900000D01*
X126746000Y-99314000D02*
X129540000Y-96520000D01*
X117070000Y-101600000D02*
X119356000Y-99314000D01*
X119356000Y-99314000D02*
X126746000Y-99314000D01*
X129286000Y-84778315D02*
X129286000Y-85344000D01*
X129286000Y-81534000D02*
X129286000Y-84778315D01*
X134620000Y-76200000D02*
X129286000Y-81534000D01*
G04 #@! TO.N,Net-(J2-Pad3)*
X128778000Y-96012000D02*
X128778000Y-90678000D01*
X126492000Y-98298000D02*
X128778000Y-96012000D01*
X128778000Y-90678000D02*
X127000000Y-88900000D01*
X114300000Y-101600000D02*
X117602000Y-98298000D01*
X117602000Y-98298000D02*
X126492000Y-98298000D01*
G04 #@! TO.N,Net-(J2-Pad0)*
X129771000Y-103020000D02*
X126800000Y-103020000D01*
X135001000Y-97790000D02*
X129771000Y-103020000D01*
G04 #@! TO.N,Net-(D12-Pad1)*
X127900638Y-74676000D02*
X128466323Y-74676000D01*
X122555000Y-76200000D02*
X124079000Y-74676000D01*
X124079000Y-74676000D02*
X127900638Y-74676000D01*
X120014998Y-76200000D02*
X122555000Y-76200000D01*
X117602000Y-78612998D02*
X120014998Y-76200000D01*
X113356218Y-82931000D02*
X115279209Y-81008009D01*
X115279209Y-81008009D02*
X115679208Y-80608010D01*
X105791000Y-82931000D02*
X113356218Y-82931000D01*
X104140000Y-81280000D02*
X105791000Y-82931000D01*
G04 #@! TO.N,Net-(J7-Pad3)*
X106426000Y-99314000D02*
X109220000Y-96520000D01*
X95250000Y-99314000D02*
X106426000Y-99314000D01*
X93980000Y-104140000D02*
X93980000Y-100584000D01*
X93980000Y-100584000D02*
X95250000Y-99314000D01*
G04 #@! TO.N,Net-(C10-Pad2)*
X116840000Y-72160000D02*
X116840000Y-72390000D01*
X118642000Y-70358000D02*
X116840000Y-72160000D01*
X127686630Y-70358000D02*
X118642000Y-70358000D01*
X130810000Y-72350000D02*
X129678630Y-72350000D01*
X129678630Y-72350000D02*
X127686630Y-70358000D01*
X111055685Y-75184000D02*
X110490000Y-75184000D01*
X114276000Y-75184000D02*
X111055685Y-75184000D01*
G04 #@! TO.N,Net-(C1-Pad2)*
X101600000Y-80010000D02*
X97790000Y-76200000D01*
X101600000Y-81280000D02*
X101600000Y-80010000D01*
G04 #@! TD*
D27*
G04 #@! TO.N,GND*
G36*
X150368000Y-67997606D02*
X150368000Y-76835000D01*
X150377667Y-76883601D01*
X150405197Y-76924803D01*
X151040197Y-77559803D01*
X151081399Y-77587333D01*
X151130000Y-77597000D01*
X159967394Y-77597000D01*
X160330001Y-77959607D01*
X160330000Y-99840394D01*
X159967394Y-100203000D01*
X151384000Y-100203000D01*
X151335399Y-100212667D01*
X151294197Y-100240197D01*
X150532197Y-101002197D01*
X150504667Y-101043399D01*
X150495000Y-101092000D01*
X150495000Y-101747533D01*
X150432122Y-102104135D01*
X150420000Y-102165075D01*
X150420001Y-109750393D01*
X149755394Y-110415000D01*
X78844606Y-110415000D01*
X78232000Y-109802394D01*
X78232000Y-108299041D01*
X133609086Y-108299041D01*
X133848611Y-108805134D01*
X134263577Y-109181041D01*
X134651961Y-109341904D01*
X134874000Y-109219915D01*
X134874000Y-108077000D01*
X135128000Y-108077000D01*
X135128000Y-109219915D01*
X135350039Y-109341904D01*
X135738423Y-109181041D01*
X136153389Y-108805134D01*
X136392914Y-108299041D01*
X136271629Y-108077000D01*
X135128000Y-108077000D01*
X134874000Y-108077000D01*
X133730371Y-108077000D01*
X133609086Y-108299041D01*
X78232000Y-108299041D01*
X78232000Y-107950000D01*
X137093887Y-107950000D01*
X137205260Y-108509909D01*
X137522423Y-108984577D01*
X137997091Y-109301740D01*
X138415667Y-109385000D01*
X138698333Y-109385000D01*
X139116909Y-109301740D01*
X139591577Y-108984577D01*
X139908740Y-108509909D01*
X140020113Y-107950000D01*
X139908740Y-107390091D01*
X139591577Y-106915423D01*
X139116909Y-106598260D01*
X138698333Y-106515000D01*
X138415667Y-106515000D01*
X137997091Y-106598260D01*
X137522423Y-106915423D01*
X137205260Y-107390091D01*
X137093887Y-107950000D01*
X78232000Y-107950000D01*
X78232000Y-107600959D01*
X133609086Y-107600959D01*
X133730371Y-107823000D01*
X134874000Y-107823000D01*
X134874000Y-106680085D01*
X135128000Y-106680085D01*
X135128000Y-107823000D01*
X136271629Y-107823000D01*
X136392914Y-107600959D01*
X136153389Y-107094866D01*
X135738423Y-106718959D01*
X135350039Y-106558096D01*
X135128000Y-106680085D01*
X134874000Y-106680085D01*
X134651961Y-106558096D01*
X134263577Y-106718959D01*
X133848611Y-107094866D01*
X133609086Y-107600959D01*
X78232000Y-107600959D01*
X78232000Y-104425750D01*
X79775000Y-104425750D01*
X79775000Y-105366310D01*
X79871673Y-105599699D01*
X80050302Y-105778327D01*
X80283691Y-105875000D01*
X80994250Y-105875000D01*
X81153000Y-105716250D01*
X81153000Y-104267000D01*
X79933750Y-104267000D01*
X79775000Y-104425750D01*
X78232000Y-104425750D01*
X78232000Y-102913690D01*
X79775000Y-102913690D01*
X79775000Y-103854250D01*
X79933750Y-104013000D01*
X81153000Y-104013000D01*
X81153000Y-102563750D01*
X81407000Y-102563750D01*
X81407000Y-104013000D01*
X81427000Y-104013000D01*
X81427000Y-104267000D01*
X81407000Y-104267000D01*
X81407000Y-105716250D01*
X81565750Y-105875000D01*
X82276309Y-105875000D01*
X82509698Y-105778327D01*
X82688327Y-105599699D01*
X82745364Y-105461999D01*
X83232779Y-105787678D01*
X83820000Y-105904484D01*
X84407222Y-105787678D01*
X84905044Y-105455044D01*
X85090000Y-105178237D01*
X85274956Y-105455044D01*
X85772779Y-105787678D01*
X86360000Y-105904484D01*
X86947222Y-105787678D01*
X87434636Y-105461999D01*
X87491673Y-105599699D01*
X87670302Y-105778327D01*
X87903691Y-105875000D01*
X88614250Y-105875000D01*
X88773000Y-105716250D01*
X88773000Y-104267000D01*
X88753000Y-104267000D01*
X88753000Y-104013000D01*
X88773000Y-104013000D01*
X88773000Y-102563750D01*
X88614250Y-102405000D01*
X87903691Y-102405000D01*
X87670302Y-102501673D01*
X87491673Y-102680301D01*
X87434636Y-102818001D01*
X86947221Y-102492322D01*
X86360000Y-102375516D01*
X85772778Y-102492322D01*
X85274956Y-102824956D01*
X85090000Y-103101763D01*
X84905044Y-102824956D01*
X84407221Y-102492322D01*
X83820000Y-102375516D01*
X83232778Y-102492322D01*
X82745364Y-102818001D01*
X82688327Y-102680301D01*
X82509698Y-102501673D01*
X82276309Y-102405000D01*
X81565750Y-102405000D01*
X81407000Y-102563750D01*
X81153000Y-102563750D01*
X80994250Y-102405000D01*
X80283691Y-102405000D01*
X80050302Y-102501673D01*
X79871673Y-102680301D01*
X79775000Y-102913690D01*
X78232000Y-102913690D01*
X78232000Y-100965000D01*
X78222333Y-100916399D01*
X78194803Y-100875197D01*
X77559803Y-100240197D01*
X77518601Y-100212667D01*
X77470000Y-100203000D01*
X68632606Y-100203000D01*
X68270000Y-99840394D01*
X68270000Y-96242119D01*
X75053000Y-96242119D01*
X75053000Y-96797881D01*
X75265680Y-97311337D01*
X75658663Y-97704320D01*
X76172119Y-97917000D01*
X76727881Y-97917000D01*
X77241337Y-97704320D01*
X77634320Y-97311337D01*
X77720000Y-97104487D01*
X77805680Y-97311337D01*
X78198663Y-97704320D01*
X78712119Y-97917000D01*
X79267881Y-97917000D01*
X79781337Y-97704320D01*
X80174320Y-97311337D01*
X80260000Y-97104487D01*
X80345680Y-97311337D01*
X80738663Y-97704320D01*
X81252119Y-97917000D01*
X81807881Y-97917000D01*
X82321337Y-97704320D01*
X82525444Y-97500213D01*
X83269392Y-97500213D01*
X83338857Y-97742397D01*
X83862302Y-97929144D01*
X84417368Y-97901362D01*
X84801143Y-97742397D01*
X84870608Y-97500213D01*
X84070000Y-96699605D01*
X83269392Y-97500213D01*
X82525444Y-97500213D01*
X82714320Y-97311337D01*
X82793428Y-97120353D01*
X82847603Y-97251143D01*
X83089787Y-97320608D01*
X83890395Y-96520000D01*
X84249605Y-96520000D01*
X85050213Y-97320608D01*
X85292397Y-97251143D01*
X85342535Y-97110607D01*
X85425680Y-97311337D01*
X85818663Y-97704320D01*
X86332119Y-97917000D01*
X86887881Y-97917000D01*
X87401337Y-97704320D01*
X87794320Y-97311337D01*
X87880000Y-97104487D01*
X87965680Y-97311337D01*
X88358663Y-97704320D01*
X88872119Y-97917000D01*
X89427881Y-97917000D01*
X89941337Y-97704320D01*
X90334320Y-97311337D01*
X90420000Y-97104487D01*
X90505680Y-97311337D01*
X90898663Y-97704320D01*
X91412119Y-97917000D01*
X91967881Y-97917000D01*
X92481337Y-97704320D01*
X92874320Y-97311337D01*
X92960000Y-97104487D01*
X93045680Y-97311337D01*
X93438663Y-97704320D01*
X93952119Y-97917000D01*
X94507881Y-97917000D01*
X95021337Y-97704320D01*
X95414320Y-97311337D01*
X95500000Y-97104487D01*
X95585680Y-97311337D01*
X95978663Y-97704320D01*
X96492119Y-97917000D01*
X97047881Y-97917000D01*
X97561337Y-97704320D01*
X97954320Y-97311337D01*
X98040000Y-97104487D01*
X98125680Y-97311337D01*
X98518663Y-97704320D01*
X99032119Y-97917000D01*
X99587881Y-97917000D01*
X100101337Y-97704320D01*
X100494320Y-97311337D01*
X100580000Y-97104487D01*
X100665680Y-97311337D01*
X101058663Y-97704320D01*
X101572119Y-97917000D01*
X102127881Y-97917000D01*
X102641337Y-97704320D01*
X103034320Y-97311337D01*
X103120000Y-97104487D01*
X103205680Y-97311337D01*
X103598663Y-97704320D01*
X104112119Y-97917000D01*
X104667881Y-97917000D01*
X105181337Y-97704320D01*
X105574320Y-97311337D01*
X105660000Y-97104487D01*
X105745680Y-97311337D01*
X106138663Y-97704320D01*
X106652119Y-97917000D01*
X106748199Y-97917000D01*
X106111199Y-98554000D01*
X95324846Y-98554000D01*
X95249999Y-98539112D01*
X95175152Y-98554000D01*
X95175148Y-98554000D01*
X94953463Y-98598096D01*
X94702071Y-98766071D01*
X94659671Y-98829527D01*
X93495528Y-99993671D01*
X93432072Y-100036071D01*
X93389672Y-100099527D01*
X93389671Y-100099528D01*
X93320533Y-100203000D01*
X93264097Y-100287463D01*
X93245014Y-100383402D01*
X93205112Y-100584000D01*
X93220001Y-100658852D01*
X93220000Y-102607768D01*
X92894956Y-102824956D01*
X92710000Y-103101763D01*
X92525044Y-102824956D01*
X92027221Y-102492322D01*
X91440000Y-102375516D01*
X90852778Y-102492322D01*
X90365364Y-102818001D01*
X90308327Y-102680301D01*
X90129698Y-102501673D01*
X89896309Y-102405000D01*
X89185750Y-102405000D01*
X89027000Y-102563750D01*
X89027000Y-104013000D01*
X89047000Y-104013000D01*
X89047000Y-104267000D01*
X89027000Y-104267000D01*
X89027000Y-105716250D01*
X89185750Y-105875000D01*
X89896309Y-105875000D01*
X90129698Y-105778327D01*
X90308327Y-105599699D01*
X90365364Y-105461999D01*
X90852779Y-105787678D01*
X91440000Y-105904484D01*
X92027222Y-105787678D01*
X92525044Y-105455044D01*
X92710000Y-105178237D01*
X92894956Y-105455044D01*
X93392779Y-105787678D01*
X93980000Y-105904484D01*
X94567222Y-105787678D01*
X95065044Y-105455044D01*
X95397678Y-104957221D01*
X95485000Y-104518225D01*
X95485000Y-103761774D01*
X95397678Y-103322778D01*
X95065044Y-102824956D01*
X94740000Y-102607769D01*
X94740000Y-102495866D01*
X99165000Y-102495866D01*
X99165000Y-103544134D01*
X99566155Y-104512608D01*
X100307392Y-105253845D01*
X101275866Y-105655000D01*
X102324134Y-105655000D01*
X103292608Y-105253845D01*
X104033845Y-104512608D01*
X104182152Y-104154561D01*
X108710000Y-104154561D01*
X108710000Y-104725439D01*
X108928466Y-105252862D01*
X109332138Y-105656534D01*
X109859561Y-105875000D01*
X110430439Y-105875000D01*
X110957862Y-105656534D01*
X111361534Y-105252862D01*
X111530000Y-104846150D01*
X111698466Y-105252862D01*
X112102138Y-105656534D01*
X112629561Y-105875000D01*
X113200439Y-105875000D01*
X113727862Y-105656534D01*
X114131534Y-105252862D01*
X114300000Y-104846150D01*
X114468466Y-105252862D01*
X114872138Y-105656534D01*
X115399561Y-105875000D01*
X115970439Y-105875000D01*
X116497862Y-105656534D01*
X116901534Y-105252862D01*
X117070000Y-104846150D01*
X117238466Y-105252862D01*
X117642138Y-105656534D01*
X118169561Y-105875000D01*
X118740439Y-105875000D01*
X119267862Y-105656534D01*
X119671534Y-105252862D01*
X119890000Y-104725439D01*
X119890000Y-104154561D01*
X119671534Y-103627138D01*
X119267862Y-103223466D01*
X118740439Y-103005000D01*
X118169561Y-103005000D01*
X117642138Y-103223466D01*
X117238466Y-103627138D01*
X117070000Y-104033850D01*
X116901534Y-103627138D01*
X116497862Y-103223466D01*
X115970439Y-103005000D01*
X115399561Y-103005000D01*
X114872138Y-103223466D01*
X114468466Y-103627138D01*
X114300000Y-104033850D01*
X114131534Y-103627138D01*
X113727862Y-103223466D01*
X113200439Y-103005000D01*
X112629561Y-103005000D01*
X112102138Y-103223466D01*
X111698466Y-103627138D01*
X111530000Y-104033850D01*
X111361534Y-103627138D01*
X110957862Y-103223466D01*
X110430439Y-103005000D01*
X109859561Y-103005000D01*
X109332138Y-103223466D01*
X108928466Y-103627138D01*
X108710000Y-104154561D01*
X104182152Y-104154561D01*
X104435000Y-103544134D01*
X104435000Y-102607745D01*
X107931861Y-102607745D01*
X108005995Y-102853864D01*
X108543223Y-103046965D01*
X109113454Y-103019778D01*
X109514005Y-102853864D01*
X109588139Y-102607745D01*
X108760000Y-101779605D01*
X107931861Y-102607745D01*
X104435000Y-102607745D01*
X104435000Y-102495866D01*
X104033845Y-101527392D01*
X103889676Y-101383223D01*
X107313035Y-101383223D01*
X107340222Y-101953454D01*
X107506136Y-102354005D01*
X107752255Y-102428139D01*
X108580395Y-101600000D01*
X107752255Y-100771861D01*
X107506136Y-100845995D01*
X107313035Y-101383223D01*
X103889676Y-101383223D01*
X103292608Y-100786155D01*
X102824492Y-100592255D01*
X107931861Y-100592255D01*
X108760000Y-101420395D01*
X109588139Y-100592255D01*
X109514005Y-100346136D01*
X108976777Y-100153035D01*
X108406546Y-100180222D01*
X108005995Y-100346136D01*
X107931861Y-100592255D01*
X102824492Y-100592255D01*
X102324134Y-100385000D01*
X101275866Y-100385000D01*
X100307392Y-100786155D01*
X99566155Y-101527392D01*
X99165000Y-102495866D01*
X94740000Y-102495866D01*
X94740000Y-100898801D01*
X95564802Y-100074000D01*
X106351153Y-100074000D01*
X106426000Y-100088888D01*
X106500847Y-100074000D01*
X106500852Y-100074000D01*
X106722537Y-100029904D01*
X106973929Y-99861929D01*
X107016331Y-99798470D01*
X108984005Y-97830797D01*
X109192119Y-97917000D01*
X109747881Y-97917000D01*
X110261337Y-97704320D01*
X110654320Y-97311337D01*
X110740000Y-97104487D01*
X110825680Y-97311337D01*
X111218663Y-97704320D01*
X111732119Y-97917000D01*
X112287881Y-97917000D01*
X112801337Y-97704320D01*
X113194320Y-97311337D01*
X113407000Y-96797881D01*
X113407000Y-96242119D01*
X113194320Y-95728663D01*
X112801337Y-95335680D01*
X112287881Y-95123000D01*
X111732119Y-95123000D01*
X111218663Y-95335680D01*
X110825680Y-95728663D01*
X110740000Y-95935513D01*
X110654320Y-95728663D01*
X110261337Y-95335680D01*
X109747881Y-95123000D01*
X109192119Y-95123000D01*
X108678663Y-95335680D01*
X108285680Y-95728663D01*
X108200000Y-95935513D01*
X108114320Y-95728663D01*
X107721337Y-95335680D01*
X107207881Y-95123000D01*
X106652119Y-95123000D01*
X106138663Y-95335680D01*
X105745680Y-95728663D01*
X105660000Y-95935513D01*
X105574320Y-95728663D01*
X105181337Y-95335680D01*
X104667881Y-95123000D01*
X104112119Y-95123000D01*
X103598663Y-95335680D01*
X103205680Y-95728663D01*
X103120000Y-95935513D01*
X103034320Y-95728663D01*
X102641337Y-95335680D01*
X102127881Y-95123000D01*
X101572119Y-95123000D01*
X101058663Y-95335680D01*
X100665680Y-95728663D01*
X100580000Y-95935513D01*
X100494320Y-95728663D01*
X100101337Y-95335680D01*
X99587881Y-95123000D01*
X99032119Y-95123000D01*
X98518663Y-95335680D01*
X98125680Y-95728663D01*
X98040000Y-95935513D01*
X97954320Y-95728663D01*
X97561337Y-95335680D01*
X97047881Y-95123000D01*
X96492119Y-95123000D01*
X95978663Y-95335680D01*
X95585680Y-95728663D01*
X95500000Y-95935513D01*
X95414320Y-95728663D01*
X95021337Y-95335680D01*
X94507881Y-95123000D01*
X93952119Y-95123000D01*
X93438663Y-95335680D01*
X93045680Y-95728663D01*
X92960000Y-95935513D01*
X92874320Y-95728663D01*
X92481337Y-95335680D01*
X91967881Y-95123000D01*
X91412119Y-95123000D01*
X90898663Y-95335680D01*
X90505680Y-95728663D01*
X90420000Y-95935513D01*
X90334320Y-95728663D01*
X89941337Y-95335680D01*
X89427881Y-95123000D01*
X88872119Y-95123000D01*
X88358663Y-95335680D01*
X87965680Y-95728663D01*
X87880000Y-95935513D01*
X87794320Y-95728663D01*
X87401337Y-95335680D01*
X86887881Y-95123000D01*
X86332119Y-95123000D01*
X85818663Y-95335680D01*
X85425680Y-95728663D01*
X85346572Y-95919647D01*
X85292397Y-95788857D01*
X85050213Y-95719392D01*
X84249605Y-96520000D01*
X83890395Y-96520000D01*
X83089787Y-95719392D01*
X82847603Y-95788857D01*
X82797465Y-95929393D01*
X82714320Y-95728663D01*
X82525444Y-95539787D01*
X83269392Y-95539787D01*
X84070000Y-96340395D01*
X84870608Y-95539787D01*
X84801143Y-95297603D01*
X84277698Y-95110856D01*
X83722632Y-95138638D01*
X83338857Y-95297603D01*
X83269392Y-95539787D01*
X82525444Y-95539787D01*
X82321337Y-95335680D01*
X81807881Y-95123000D01*
X81252119Y-95123000D01*
X80738663Y-95335680D01*
X80345680Y-95728663D01*
X80260000Y-95935513D01*
X80174320Y-95728663D01*
X79781337Y-95335680D01*
X79267881Y-95123000D01*
X78712119Y-95123000D01*
X78198663Y-95335680D01*
X77805680Y-95728663D01*
X77720000Y-95935513D01*
X77634320Y-95728663D01*
X77241337Y-95335680D01*
X76727881Y-95123000D01*
X76172119Y-95123000D01*
X75658663Y-95335680D01*
X75265680Y-95728663D01*
X75053000Y-96242119D01*
X68270000Y-96242119D01*
X68270000Y-93763223D01*
X120473035Y-93763223D01*
X120500222Y-94333454D01*
X120666136Y-94734005D01*
X120912255Y-94808139D01*
X121740395Y-93980000D01*
X122099605Y-93980000D01*
X122927745Y-94808139D01*
X123173864Y-94734005D01*
X123366965Y-94196777D01*
X123339778Y-93626546D01*
X123173864Y-93225995D01*
X122927745Y-93151861D01*
X122099605Y-93980000D01*
X121740395Y-93980000D01*
X120912255Y-93151861D01*
X120666136Y-93225995D01*
X120473035Y-93763223D01*
X68270000Y-93763223D01*
X68270000Y-85519128D01*
X108439000Y-85519128D01*
X108439000Y-85930876D01*
X108596569Y-86311282D01*
X108887720Y-86602433D01*
X109268126Y-86760002D01*
X109679874Y-86760002D01*
X110060280Y-86602433D01*
X110351431Y-86311282D01*
X110509000Y-85930876D01*
X110509000Y-85764803D01*
X110550803Y-85723000D01*
X117019153Y-85723000D01*
X117094000Y-85737888D01*
X117168847Y-85723000D01*
X117168852Y-85723000D01*
X117390537Y-85678904D01*
X117641929Y-85510929D01*
X117684331Y-85447470D01*
X118551802Y-84580000D01*
X120641822Y-84580000D01*
X120849375Y-84890625D01*
X121147761Y-85090000D01*
X120849375Y-85289375D01*
X120521161Y-85780582D01*
X120405908Y-86360000D01*
X120521161Y-86939418D01*
X120849375Y-87430625D01*
X121147761Y-87630000D01*
X120849375Y-87829375D01*
X120521161Y-88320582D01*
X120405908Y-88900000D01*
X120521161Y-89479418D01*
X120849375Y-89970625D01*
X120867619Y-89982816D01*
X120822235Y-89991843D01*
X120612191Y-90132191D01*
X120471843Y-90342235D01*
X120422560Y-90590000D01*
X120422560Y-92290000D01*
X120471843Y-92537765D01*
X120612191Y-92747809D01*
X120822235Y-92888157D01*
X121070000Y-92937440D01*
X121102348Y-92937440D01*
X121091861Y-92972255D01*
X121920000Y-93800395D01*
X122748139Y-92972255D01*
X122737652Y-92937440D01*
X122770000Y-92937440D01*
X123017765Y-92888157D01*
X123227809Y-92747809D01*
X123368157Y-92537765D01*
X123417440Y-92290000D01*
X123417440Y-91223223D01*
X125553035Y-91223223D01*
X125580222Y-91793454D01*
X125746136Y-92194005D01*
X125992255Y-92268139D01*
X126820395Y-91440000D01*
X125992255Y-90611861D01*
X125746136Y-90685995D01*
X125553035Y-91223223D01*
X123417440Y-91223223D01*
X123417440Y-90590000D01*
X123368157Y-90342235D01*
X123227809Y-90132191D01*
X123017765Y-89991843D01*
X122972381Y-89982816D01*
X122990625Y-89970625D01*
X123318839Y-89479418D01*
X123434092Y-88900000D01*
X123361209Y-88533592D01*
X124436473Y-87458329D01*
X124499929Y-87415929D01*
X124667904Y-87164537D01*
X124712000Y-86942852D01*
X124712000Y-86942847D01*
X124726888Y-86868000D01*
X124712000Y-86793153D01*
X124712000Y-85658801D01*
X125770132Y-84600671D01*
X125783466Y-84632862D01*
X126187138Y-85036534D01*
X126316216Y-85090000D01*
X126187138Y-85143466D01*
X125783466Y-85547138D01*
X125565000Y-86074561D01*
X125565000Y-86645439D01*
X125783466Y-87172862D01*
X126187138Y-87576534D01*
X126316216Y-87630000D01*
X126187138Y-87683466D01*
X125783466Y-88087138D01*
X125565000Y-88614561D01*
X125565000Y-89185439D01*
X125783466Y-89712862D01*
X126187138Y-90116534D01*
X126300583Y-90163525D01*
X126245995Y-90186136D01*
X126171861Y-90432255D01*
X127000000Y-91260395D01*
X127014142Y-91246252D01*
X127193748Y-91425858D01*
X127179605Y-91440000D01*
X127193748Y-91454142D01*
X127014142Y-91633748D01*
X127000000Y-91619605D01*
X126171861Y-92447745D01*
X126245995Y-92693864D01*
X126304448Y-92714874D01*
X126187138Y-92763466D01*
X125783466Y-93167138D01*
X125565000Y-93694561D01*
X125565000Y-94265439D01*
X125783466Y-94792862D01*
X126187138Y-95196534D01*
X126714561Y-95415000D01*
X127285439Y-95415000D01*
X127812862Y-95196534D01*
X128018000Y-94991396D01*
X128018000Y-95697198D01*
X126177199Y-97538000D01*
X122891396Y-97538000D01*
X123136534Y-97292862D01*
X123355000Y-96765439D01*
X123355000Y-96194561D01*
X123136534Y-95667138D01*
X122732862Y-95263466D01*
X122667701Y-95236475D01*
X122674005Y-95233864D01*
X122748139Y-94987745D01*
X121920000Y-94159605D01*
X121091861Y-94987745D01*
X121165995Y-95233864D01*
X121172746Y-95236290D01*
X121107138Y-95263466D01*
X120703466Y-95667138D01*
X120485000Y-96194561D01*
X120485000Y-96765439D01*
X120703466Y-97292862D01*
X120948604Y-97538000D01*
X117676846Y-97538000D01*
X117601999Y-97523112D01*
X117527152Y-97538000D01*
X117527148Y-97538000D01*
X117305463Y-97582096D01*
X117054071Y-97750071D01*
X117011671Y-97813527D01*
X114638302Y-100186897D01*
X114585439Y-100165000D01*
X114014561Y-100165000D01*
X113487138Y-100383466D01*
X113083466Y-100787138D01*
X112915000Y-101193850D01*
X112746534Y-100787138D01*
X112342862Y-100383466D01*
X111815439Y-100165000D01*
X111244561Y-100165000D01*
X110717138Y-100383466D01*
X110313466Y-100787138D01*
X110151475Y-101178218D01*
X110013864Y-100845995D01*
X109767745Y-100771861D01*
X108939605Y-101600000D01*
X109767745Y-102428139D01*
X110013864Y-102354005D01*
X110141732Y-101998261D01*
X110313466Y-102412862D01*
X110717138Y-102816534D01*
X111244561Y-103035000D01*
X111815439Y-103035000D01*
X112342862Y-102816534D01*
X112746534Y-102412862D01*
X112915000Y-102006150D01*
X113083466Y-102412862D01*
X113487138Y-102816534D01*
X114014561Y-103035000D01*
X114585439Y-103035000D01*
X115112862Y-102816534D01*
X115516534Y-102412862D01*
X115685000Y-102006150D01*
X115853466Y-102412862D01*
X116257138Y-102816534D01*
X116784561Y-103035000D01*
X117355439Y-103035000D01*
X117882862Y-102816534D01*
X118286534Y-102412862D01*
X118392560Y-102156893D01*
X118392560Y-102400000D01*
X118441843Y-102647765D01*
X118582191Y-102857809D01*
X118792235Y-102998157D01*
X119040000Y-103047440D01*
X120640000Y-103047440D01*
X120887765Y-102998157D01*
X121097809Y-102857809D01*
X121238157Y-102647765D01*
X121268371Y-102495866D01*
X124165000Y-102495866D01*
X124165000Y-103544134D01*
X124566155Y-104512608D01*
X125307392Y-105253845D01*
X126275866Y-105655000D01*
X127324134Y-105655000D01*
X127426327Y-105612670D01*
X141975000Y-105612670D01*
X141975000Y-106223330D01*
X142208690Y-106787507D01*
X142640493Y-107219310D01*
X143204670Y-107453000D01*
X143815330Y-107453000D01*
X144379507Y-107219310D01*
X144555861Y-107042956D01*
X144611673Y-107177699D01*
X144790302Y-107356327D01*
X145023691Y-107453000D01*
X145764250Y-107453000D01*
X145923000Y-107294250D01*
X145923000Y-106045000D01*
X146177000Y-106045000D01*
X146177000Y-107294250D01*
X146335750Y-107453000D01*
X147076309Y-107453000D01*
X147309698Y-107356327D01*
X147488327Y-107177699D01*
X147585000Y-106944310D01*
X147585000Y-106203750D01*
X147426250Y-106045000D01*
X146177000Y-106045000D01*
X145923000Y-106045000D01*
X145903000Y-106045000D01*
X145903000Y-105791000D01*
X145923000Y-105791000D01*
X145923000Y-104541750D01*
X146177000Y-104541750D01*
X146177000Y-105791000D01*
X147426250Y-105791000D01*
X147585000Y-105632250D01*
X147585000Y-104891690D01*
X147488327Y-104658301D01*
X147309698Y-104479673D01*
X147076309Y-104383000D01*
X146335750Y-104383000D01*
X146177000Y-104541750D01*
X145923000Y-104541750D01*
X145764250Y-104383000D01*
X145023691Y-104383000D01*
X144790302Y-104479673D01*
X144611673Y-104658301D01*
X144555861Y-104793044D01*
X144379507Y-104616690D01*
X143815330Y-104383000D01*
X143204670Y-104383000D01*
X142640493Y-104616690D01*
X142208690Y-105048493D01*
X141975000Y-105612670D01*
X127426327Y-105612670D01*
X128292608Y-105253845D01*
X129033845Y-104512608D01*
X129337301Y-103780000D01*
X129696153Y-103780000D01*
X129771000Y-103794888D01*
X129845847Y-103780000D01*
X129845852Y-103780000D01*
X130067537Y-103735904D01*
X130318929Y-103567929D01*
X130361331Y-103504470D01*
X134662698Y-99203104D01*
X134715561Y-99225000D01*
X135286439Y-99225000D01*
X135813862Y-99006534D01*
X136217534Y-98602862D01*
X136436000Y-98075439D01*
X136436000Y-97504561D01*
X137122000Y-97504561D01*
X137122000Y-98075439D01*
X137340466Y-98602862D01*
X137744138Y-99006534D01*
X138271561Y-99225000D01*
X138842439Y-99225000D01*
X139369862Y-99006534D01*
X139400396Y-98976000D01*
X140492560Y-98976000D01*
X140492560Y-101176000D01*
X140541843Y-101423765D01*
X140682191Y-101633809D01*
X140892235Y-101774157D01*
X141140000Y-101823440D01*
X143340000Y-101823440D01*
X143587765Y-101774157D01*
X143797809Y-101633809D01*
X143938157Y-101423765D01*
X143987440Y-101176000D01*
X143987440Y-100472122D01*
X144360825Y-100472122D01*
X144575466Y-100990332D01*
X145037608Y-101485012D01*
X145653877Y-101765183D01*
X145923000Y-101647604D01*
X145923000Y-100203000D01*
X146177000Y-100203000D01*
X146177000Y-101647604D01*
X146446123Y-101765183D01*
X147062392Y-101485012D01*
X147524534Y-100990332D01*
X147739175Y-100472122D01*
X147621125Y-100203000D01*
X146177000Y-100203000D01*
X145923000Y-100203000D01*
X144478875Y-100203000D01*
X144360825Y-100472122D01*
X143987440Y-100472122D01*
X143987440Y-99679878D01*
X144360825Y-99679878D01*
X144478875Y-99949000D01*
X145923000Y-99949000D01*
X145923000Y-98504396D01*
X146177000Y-98504396D01*
X146177000Y-99949000D01*
X147621125Y-99949000D01*
X147739175Y-99679878D01*
X147524534Y-99161668D01*
X147062392Y-98666988D01*
X146446123Y-98386817D01*
X146177000Y-98504396D01*
X145923000Y-98504396D01*
X145653877Y-98386817D01*
X145037608Y-98666988D01*
X144575466Y-99161668D01*
X144360825Y-99679878D01*
X143987440Y-99679878D01*
X143987440Y-98976000D01*
X143938157Y-98728235D01*
X143797809Y-98518191D01*
X143587765Y-98377843D01*
X143340000Y-98328560D01*
X141140000Y-98328560D01*
X140892235Y-98377843D01*
X140682191Y-98518191D01*
X140541843Y-98728235D01*
X140492560Y-98976000D01*
X139400396Y-98976000D01*
X139773534Y-98602862D01*
X139992000Y-98075439D01*
X139992000Y-97504561D01*
X139773534Y-96977138D01*
X139673515Y-96877119D01*
X148113000Y-96877119D01*
X148113000Y-97432881D01*
X148325680Y-97946337D01*
X148718663Y-98339320D01*
X149232119Y-98552000D01*
X149787881Y-98552000D01*
X150301337Y-98339320D01*
X150694320Y-97946337D01*
X150907000Y-97432881D01*
X150907000Y-96877119D01*
X155733000Y-96877119D01*
X155733000Y-97432881D01*
X155945680Y-97946337D01*
X156338663Y-98339320D01*
X156852119Y-98552000D01*
X157407881Y-98552000D01*
X157921337Y-98339320D01*
X158314320Y-97946337D01*
X158527000Y-97432881D01*
X158527000Y-96877119D01*
X158314320Y-96363663D01*
X157921337Y-95970680D01*
X157407881Y-95758000D01*
X156852119Y-95758000D01*
X156338663Y-95970680D01*
X155945680Y-96363663D01*
X155733000Y-96877119D01*
X150907000Y-96877119D01*
X150694320Y-96363663D01*
X150301337Y-95970680D01*
X150110353Y-95891572D01*
X150241143Y-95837397D01*
X150310608Y-95595213D01*
X149510000Y-94794605D01*
X148709392Y-95595213D01*
X148778857Y-95837397D01*
X148919393Y-95887535D01*
X148718663Y-95970680D01*
X148325680Y-96363663D01*
X148113000Y-96877119D01*
X139673515Y-96877119D01*
X139369862Y-96573466D01*
X138842439Y-96355000D01*
X138271561Y-96355000D01*
X137744138Y-96573466D01*
X137340466Y-96977138D01*
X137122000Y-97504561D01*
X136436000Y-97504561D01*
X136217534Y-96977138D01*
X135813862Y-96573466D01*
X135286439Y-96355000D01*
X134715561Y-96355000D01*
X134188138Y-96573466D01*
X133784466Y-96977138D01*
X133566000Y-97504561D01*
X133566000Y-98075439D01*
X133587896Y-98128302D01*
X129456199Y-102260000D01*
X129337301Y-102260000D01*
X129033845Y-101527392D01*
X128292608Y-100786155D01*
X127324134Y-100385000D01*
X126275866Y-100385000D01*
X125307392Y-100786155D01*
X124566155Y-101527392D01*
X124165000Y-102495866D01*
X121268371Y-102495866D01*
X121287440Y-102400000D01*
X121287440Y-100800000D01*
X121238157Y-100552235D01*
X121097809Y-100342191D01*
X120887765Y-100201843D01*
X120640000Y-100152560D01*
X119592242Y-100152560D01*
X119670802Y-100074000D01*
X126671153Y-100074000D01*
X126746000Y-100088888D01*
X126820847Y-100074000D01*
X126820852Y-100074000D01*
X127042537Y-100029904D01*
X127293929Y-99861929D01*
X127336331Y-99798470D01*
X130024473Y-97110329D01*
X130087929Y-97067929D01*
X130148594Y-96977138D01*
X130255904Y-96816538D01*
X130279163Y-96699605D01*
X130300000Y-96594852D01*
X130300000Y-96594848D01*
X130314888Y-96520000D01*
X130300000Y-96445152D01*
X130300000Y-88974846D01*
X130314888Y-88899999D01*
X130300000Y-88825152D01*
X130300000Y-88825148D01*
X130255904Y-88603463D01*
X130130330Y-88415528D01*
X130130329Y-88415526D01*
X130130327Y-88415524D01*
X130087929Y-88352071D01*
X130024476Y-88309673D01*
X128413103Y-86698302D01*
X128435000Y-86645439D01*
X128435000Y-86074561D01*
X128216534Y-85547138D01*
X127812862Y-85143466D01*
X127799971Y-85138126D01*
X128251000Y-85138126D01*
X128251000Y-85549874D01*
X128408569Y-85930280D01*
X128699720Y-86221431D01*
X129080126Y-86379000D01*
X129491874Y-86379000D01*
X129872280Y-86221431D01*
X130163431Y-85930280D01*
X130321000Y-85549874D01*
X130321000Y-85138126D01*
X130163431Y-84757720D01*
X130046000Y-84640289D01*
X130046000Y-81848801D01*
X133185000Y-78709802D01*
X133185000Y-79025439D01*
X133403466Y-79552862D01*
X133807138Y-79956534D01*
X133936216Y-80010000D01*
X133807138Y-80063466D01*
X133403466Y-80467138D01*
X133185000Y-80994561D01*
X133185000Y-81565439D01*
X133403466Y-82092862D01*
X133807138Y-82496534D01*
X133936216Y-82550000D01*
X133807138Y-82603466D01*
X133403466Y-83007138D01*
X133185000Y-83534561D01*
X133185000Y-84105439D01*
X133403466Y-84632862D01*
X133807138Y-85036534D01*
X133936216Y-85090000D01*
X133807138Y-85143466D01*
X133403466Y-85547138D01*
X133185000Y-86074561D01*
X133185000Y-86645439D01*
X133403466Y-87172862D01*
X133807138Y-87576534D01*
X133936216Y-87630000D01*
X133807138Y-87683466D01*
X133403466Y-88087138D01*
X133185000Y-88614561D01*
X133185000Y-89185439D01*
X133403466Y-89712862D01*
X133807138Y-90116534D01*
X133936216Y-90170000D01*
X133807138Y-90223466D01*
X133403466Y-90627138D01*
X133185000Y-91154561D01*
X133185000Y-91725439D01*
X133403466Y-92252862D01*
X133705866Y-92555262D01*
X133572235Y-92581843D01*
X133362191Y-92722191D01*
X133221843Y-92932235D01*
X133172560Y-93180000D01*
X133172560Y-94780000D01*
X133221843Y-95027765D01*
X133362191Y-95237809D01*
X133572235Y-95378157D01*
X133820000Y-95427440D01*
X135420000Y-95427440D01*
X135667765Y-95378157D01*
X135877809Y-95237809D01*
X136018157Y-95027765D01*
X136067440Y-94780000D01*
X136067440Y-94089242D01*
X136823671Y-94845473D01*
X136866071Y-94908929D01*
X137117463Y-95076904D01*
X137339148Y-95121000D01*
X137339152Y-95121000D01*
X137413999Y-95135888D01*
X137488846Y-95121000D01*
X141109153Y-95121000D01*
X141184000Y-95135888D01*
X141258847Y-95121000D01*
X141258852Y-95121000D01*
X141480537Y-95076904D01*
X141613972Y-94987745D01*
X145221861Y-94987745D01*
X145295995Y-95233864D01*
X145833223Y-95426965D01*
X146403454Y-95399778D01*
X146804005Y-95233864D01*
X146878139Y-94987745D01*
X146050000Y-94159605D01*
X145221861Y-94987745D01*
X141613972Y-94987745D01*
X141731929Y-94908929D01*
X141774331Y-94845470D01*
X141901698Y-94718103D01*
X141954561Y-94740000D01*
X142525439Y-94740000D01*
X143052862Y-94521534D01*
X143456534Y-94117862D01*
X143603430Y-93763223D01*
X144603035Y-93763223D01*
X144630222Y-94333454D01*
X144796136Y-94734005D01*
X145042255Y-94808139D01*
X145870395Y-93980000D01*
X146229605Y-93980000D01*
X147057745Y-94808139D01*
X147303864Y-94734005D01*
X147421293Y-94407302D01*
X148100856Y-94407302D01*
X148128638Y-94962368D01*
X148287603Y-95346143D01*
X148529787Y-95415608D01*
X149330395Y-94615000D01*
X149689605Y-94615000D01*
X150490213Y-95415608D01*
X150732397Y-95346143D01*
X150919144Y-94822698D01*
X150891362Y-94267632D01*
X150732397Y-93883857D01*
X150490213Y-93814392D01*
X149689605Y-94615000D01*
X149330395Y-94615000D01*
X148529787Y-93814392D01*
X148287603Y-93883857D01*
X148100856Y-94407302D01*
X147421293Y-94407302D01*
X147496965Y-94196777D01*
X147469778Y-93626546D01*
X147303864Y-93225995D01*
X147057745Y-93151861D01*
X146229605Y-93980000D01*
X145870395Y-93980000D01*
X145042255Y-93151861D01*
X144796136Y-93225995D01*
X144603035Y-93763223D01*
X143603430Y-93763223D01*
X143675000Y-93590439D01*
X143675000Y-93019561D01*
X143456534Y-92492138D01*
X143052862Y-92088466D01*
X142987701Y-92061475D01*
X142994005Y-92058864D01*
X143068139Y-91812745D01*
X142240000Y-90984605D01*
X141411861Y-91812745D01*
X141485995Y-92058864D01*
X141492746Y-92061290D01*
X141427138Y-92088466D01*
X141023466Y-92492138D01*
X140805000Y-93019561D01*
X140805000Y-93590439D01*
X140809375Y-93601000D01*
X139528396Y-93601000D01*
X139646534Y-93482862D01*
X139865000Y-92955439D01*
X139865000Y-92384561D01*
X139646534Y-91857138D01*
X139242862Y-91453466D01*
X139162068Y-91420000D01*
X139242862Y-91386534D01*
X139646534Y-90982862D01*
X139809999Y-90588223D01*
X140793035Y-90588223D01*
X140820222Y-91158454D01*
X140986136Y-91559005D01*
X141232255Y-91633139D01*
X142060395Y-90805000D01*
X142419605Y-90805000D01*
X143247745Y-91633139D01*
X143493864Y-91559005D01*
X143624859Y-91194561D01*
X144615000Y-91194561D01*
X144615000Y-91765439D01*
X144833466Y-92292862D01*
X145237138Y-92696534D01*
X145302299Y-92723525D01*
X145295995Y-92726136D01*
X145221861Y-92972255D01*
X146050000Y-93800395D01*
X146878139Y-92972255D01*
X146804005Y-92726136D01*
X146797254Y-92723710D01*
X146862862Y-92696534D01*
X147266534Y-92292862D01*
X147471877Y-91797119D01*
X148113000Y-91797119D01*
X148113000Y-92352881D01*
X148325680Y-92866337D01*
X148718663Y-93259320D01*
X148909647Y-93338428D01*
X148778857Y-93392603D01*
X148709392Y-93634787D01*
X149510000Y-94435395D01*
X150310608Y-93634787D01*
X150241143Y-93392603D01*
X150100607Y-93342465D01*
X150301337Y-93259320D01*
X150694320Y-92866337D01*
X150907000Y-92352881D01*
X150907000Y-91797119D01*
X155733000Y-91797119D01*
X155733000Y-92352881D01*
X155945680Y-92866337D01*
X156338663Y-93259320D01*
X156852119Y-93472000D01*
X157407881Y-93472000D01*
X157921337Y-93259320D01*
X158314320Y-92866337D01*
X158527000Y-92352881D01*
X158527000Y-91797119D01*
X158314320Y-91283663D01*
X157921337Y-90890680D01*
X157407881Y-90678000D01*
X156852119Y-90678000D01*
X156338663Y-90890680D01*
X155945680Y-91283663D01*
X155733000Y-91797119D01*
X150907000Y-91797119D01*
X150694320Y-91283663D01*
X150301337Y-90890680D01*
X149787881Y-90678000D01*
X149232119Y-90678000D01*
X148718663Y-90890680D01*
X148325680Y-91283663D01*
X148113000Y-91797119D01*
X147471877Y-91797119D01*
X147485000Y-91765439D01*
X147485000Y-91194561D01*
X147266534Y-90667138D01*
X146862862Y-90263466D01*
X146335439Y-90045000D01*
X145764561Y-90045000D01*
X145237138Y-90263466D01*
X144833466Y-90667138D01*
X144615000Y-91194561D01*
X143624859Y-91194561D01*
X143686965Y-91021777D01*
X143659778Y-90451546D01*
X143493864Y-90050995D01*
X143247745Y-89976861D01*
X142419605Y-90805000D01*
X142060395Y-90805000D01*
X141232255Y-89976861D01*
X140986136Y-90050995D01*
X140793035Y-90588223D01*
X139809999Y-90588223D01*
X139865000Y-90455439D01*
X139865000Y-89884561D01*
X139828837Y-89797255D01*
X141411861Y-89797255D01*
X142240000Y-90625395D01*
X143068139Y-89797255D01*
X142994005Y-89551136D01*
X142456777Y-89358035D01*
X141886546Y-89385222D01*
X141485995Y-89551136D01*
X141411861Y-89797255D01*
X139828837Y-89797255D01*
X139646534Y-89357138D01*
X139242862Y-88953466D01*
X138715439Y-88735000D01*
X138144561Y-88735000D01*
X137617138Y-88953466D01*
X137213466Y-89357138D01*
X136995000Y-89884561D01*
X136995000Y-90455439D01*
X137213466Y-90982862D01*
X137617138Y-91386534D01*
X137697932Y-91420000D01*
X137617138Y-91453466D01*
X137213466Y-91857138D01*
X136995000Y-92384561D01*
X136995000Y-92867199D01*
X136476955Y-92349154D01*
X136460905Y-92268464D01*
X136460905Y-92268463D01*
X136335330Y-92080528D01*
X136292930Y-92017072D01*
X136229474Y-91974672D01*
X136033104Y-91778302D01*
X136055000Y-91725439D01*
X136055000Y-91154561D01*
X135836534Y-90627138D01*
X135432862Y-90223466D01*
X135303784Y-90170000D01*
X135432862Y-90116534D01*
X135836534Y-89712862D01*
X136055000Y-89185439D01*
X136055000Y-88614561D01*
X135836534Y-88087138D01*
X135432862Y-87683466D01*
X135303784Y-87630000D01*
X135432862Y-87576534D01*
X135836534Y-87172862D01*
X136055000Y-86645439D01*
X136055000Y-86074561D01*
X135836534Y-85547138D01*
X135432862Y-85143466D01*
X135303784Y-85090000D01*
X135432862Y-85036534D01*
X135836534Y-84632862D01*
X136055000Y-84105439D01*
X136055000Y-83534561D01*
X136995000Y-83534561D01*
X136995000Y-84105439D01*
X137213466Y-84632862D01*
X137617138Y-85036534D01*
X137697932Y-85070000D01*
X137617138Y-85103466D01*
X137213466Y-85507138D01*
X136995000Y-86034561D01*
X136995000Y-86605439D01*
X137213466Y-87132862D01*
X137617138Y-87536534D01*
X138144561Y-87755000D01*
X138715439Y-87755000D01*
X139242862Y-87536534D01*
X139434835Y-87344561D01*
X140805000Y-87344561D01*
X140805000Y-87915439D01*
X141023466Y-88442862D01*
X141427138Y-88846534D01*
X141954561Y-89065000D01*
X142525439Y-89065000D01*
X143052862Y-88846534D01*
X143456534Y-88442862D01*
X143675000Y-87915439D01*
X143675000Y-87344561D01*
X143456534Y-86817138D01*
X143052862Y-86413466D01*
X142525439Y-86195000D01*
X141954561Y-86195000D01*
X141427138Y-86413466D01*
X141023466Y-86817138D01*
X140805000Y-87344561D01*
X139434835Y-87344561D01*
X139646534Y-87132862D01*
X139865000Y-86605439D01*
X139865000Y-86034561D01*
X139646534Y-85507138D01*
X139242862Y-85103466D01*
X139162068Y-85070000D01*
X139242862Y-85036534D01*
X139646534Y-84632862D01*
X139865000Y-84105439D01*
X139865000Y-83534561D01*
X139646534Y-83007138D01*
X139242862Y-82603466D01*
X138715439Y-82385000D01*
X138144561Y-82385000D01*
X137617138Y-82603466D01*
X137213466Y-83007138D01*
X136995000Y-83534561D01*
X136055000Y-83534561D01*
X135836534Y-83007138D01*
X135432862Y-82603466D01*
X135303784Y-82550000D01*
X135432862Y-82496534D01*
X135836534Y-82092862D01*
X136055000Y-81565439D01*
X136055000Y-80994561D01*
X135836534Y-80467138D01*
X135432862Y-80063466D01*
X135303784Y-80010000D01*
X135432862Y-79956534D01*
X135836534Y-79552862D01*
X136055000Y-79025439D01*
X136055000Y-78962561D01*
X136868000Y-78962561D01*
X136868000Y-79533439D01*
X137086466Y-80060862D01*
X137490138Y-80464534D01*
X138017561Y-80683000D01*
X138588439Y-80683000D01*
X139115862Y-80464534D01*
X139519534Y-80060862D01*
X139639547Y-79771123D01*
X144360817Y-79771123D01*
X144640988Y-80387392D01*
X145130706Y-80844898D01*
X144833466Y-81142138D01*
X144615000Y-81669561D01*
X144615000Y-82240439D01*
X144833466Y-82767862D01*
X145237138Y-83171534D01*
X145317932Y-83205000D01*
X145237138Y-83238466D01*
X144833466Y-83642138D01*
X144615000Y-84169561D01*
X144615000Y-84740439D01*
X144833466Y-85267862D01*
X145237138Y-85671534D01*
X145764561Y-85890000D01*
X146335439Y-85890000D01*
X146862862Y-85671534D01*
X147266534Y-85267862D01*
X147288430Y-85215000D01*
X148262700Y-85215000D01*
X148275680Y-85246337D01*
X148668663Y-85639320D01*
X149182119Y-85852000D01*
X149737881Y-85852000D01*
X150251337Y-85639320D01*
X150443538Y-85447119D01*
X155683000Y-85447119D01*
X155683000Y-86002881D01*
X155895680Y-86516337D01*
X156288663Y-86909320D01*
X156802119Y-87122000D01*
X157357881Y-87122000D01*
X157871337Y-86909320D01*
X158264320Y-86516337D01*
X158477000Y-86002881D01*
X158477000Y-85447119D01*
X158264320Y-84933663D01*
X157871337Y-84540680D01*
X157357881Y-84328000D01*
X156802119Y-84328000D01*
X156288663Y-84540680D01*
X155895680Y-84933663D01*
X155683000Y-85447119D01*
X150443538Y-85447119D01*
X150644320Y-85246337D01*
X150857000Y-84732881D01*
X150857000Y-84177119D01*
X150644320Y-83663663D01*
X150251337Y-83270680D01*
X150044487Y-83185000D01*
X150251337Y-83099320D01*
X150644320Y-82706337D01*
X150857000Y-82192881D01*
X150857000Y-81637119D01*
X150644320Y-81123663D01*
X150251337Y-80730680D01*
X149737881Y-80518000D01*
X149182119Y-80518000D01*
X148668663Y-80730680D01*
X148275680Y-81123663D01*
X148063000Y-81637119D01*
X148063000Y-82192881D01*
X148275680Y-82706337D01*
X148668663Y-83099320D01*
X148875513Y-83185000D01*
X148668663Y-83270680D01*
X148275680Y-83663663D01*
X148262700Y-83695000D01*
X147288430Y-83695000D01*
X147266534Y-83642138D01*
X146862862Y-83238466D01*
X146782068Y-83205000D01*
X146862862Y-83171534D01*
X147266534Y-82767862D01*
X147485000Y-82240439D01*
X147485000Y-81669561D01*
X147266534Y-81142138D01*
X146969294Y-80844898D01*
X147459012Y-80387392D01*
X147468228Y-80367119D01*
X155683000Y-80367119D01*
X155683000Y-80922881D01*
X155895680Y-81436337D01*
X156288663Y-81829320D01*
X156802119Y-82042000D01*
X157357881Y-82042000D01*
X157871337Y-81829320D01*
X158264320Y-81436337D01*
X158477000Y-80922881D01*
X158477000Y-80367119D01*
X158264320Y-79853663D01*
X157871337Y-79460680D01*
X157357881Y-79248000D01*
X156802119Y-79248000D01*
X156288663Y-79460680D01*
X155895680Y-79853663D01*
X155683000Y-80367119D01*
X147468228Y-80367119D01*
X147739183Y-79771123D01*
X147621604Y-79502000D01*
X146177000Y-79502000D01*
X146177000Y-79522000D01*
X145923000Y-79522000D01*
X145923000Y-79502000D01*
X144478396Y-79502000D01*
X144360817Y-79771123D01*
X139639547Y-79771123D01*
X139738000Y-79533439D01*
X139738000Y-78978877D01*
X144360817Y-78978877D01*
X144478396Y-79248000D01*
X145923000Y-79248000D01*
X145923000Y-77803875D01*
X146177000Y-77803875D01*
X146177000Y-79248000D01*
X147621604Y-79248000D01*
X147739183Y-78978877D01*
X147459012Y-78362608D01*
X146964332Y-77900466D01*
X146446122Y-77685825D01*
X146177000Y-77803875D01*
X145923000Y-77803875D01*
X145653878Y-77685825D01*
X145135668Y-77900466D01*
X144640988Y-78362608D01*
X144360817Y-78978877D01*
X139738000Y-78978877D01*
X139738000Y-78962561D01*
X139519534Y-78435138D01*
X139115862Y-78031466D01*
X139050701Y-78004475D01*
X139057005Y-78001864D01*
X139131139Y-77755745D01*
X138303000Y-76927605D01*
X137474861Y-77755745D01*
X137548995Y-78001864D01*
X137555746Y-78004290D01*
X137490138Y-78031466D01*
X137086466Y-78435138D01*
X136868000Y-78962561D01*
X136055000Y-78962561D01*
X136055000Y-78454561D01*
X135836534Y-77927138D01*
X135432862Y-77523466D01*
X135303784Y-77470000D01*
X135432862Y-77416534D01*
X135836534Y-77012862D01*
X136036035Y-76531223D01*
X136856035Y-76531223D01*
X136883222Y-77101454D01*
X137049136Y-77502005D01*
X137295255Y-77576139D01*
X138123395Y-76748000D01*
X138482605Y-76748000D01*
X139310745Y-77576139D01*
X139556864Y-77502005D01*
X139568367Y-77470000D01*
X140776887Y-77470000D01*
X140888260Y-78029909D01*
X141205423Y-78504577D01*
X141680091Y-78821740D01*
X142098667Y-78905000D01*
X142381333Y-78905000D01*
X142799909Y-78821740D01*
X143274577Y-78504577D01*
X143591740Y-78029909D01*
X143703113Y-77470000D01*
X143591740Y-76910091D01*
X143274577Y-76435423D01*
X142799909Y-76118260D01*
X142381333Y-76035000D01*
X142098667Y-76035000D01*
X141680091Y-76118260D01*
X141205423Y-76435423D01*
X140888260Y-76910091D01*
X140776887Y-77470000D01*
X139568367Y-77470000D01*
X139749965Y-76964777D01*
X139722778Y-76394546D01*
X139556864Y-75993995D01*
X139310745Y-75919861D01*
X138482605Y-76748000D01*
X138123395Y-76748000D01*
X137295255Y-75919861D01*
X137049136Y-75993995D01*
X136856035Y-76531223D01*
X136036035Y-76531223D01*
X136055000Y-76485439D01*
X136055000Y-75914561D01*
X135982801Y-75740255D01*
X137474861Y-75740255D01*
X138303000Y-76568395D01*
X139131139Y-75740255D01*
X139057005Y-75494136D01*
X138519777Y-75301035D01*
X137949546Y-75328222D01*
X137548995Y-75494136D01*
X137474861Y-75740255D01*
X135982801Y-75740255D01*
X135836534Y-75387138D01*
X135432862Y-74983466D01*
X134905439Y-74765000D01*
X134334561Y-74765000D01*
X133807138Y-74983466D01*
X133403466Y-75387138D01*
X133185000Y-75914561D01*
X133185000Y-76485439D01*
X133206896Y-76538302D01*
X128801530Y-80943669D01*
X128738071Y-80986071D01*
X128570096Y-81237464D01*
X128526000Y-81459149D01*
X128526000Y-81459153D01*
X128511112Y-81534000D01*
X128526000Y-81608847D01*
X128526001Y-84640288D01*
X128408569Y-84757720D01*
X128251000Y-85138126D01*
X127799971Y-85138126D01*
X127683784Y-85090000D01*
X127812862Y-85036534D01*
X128216534Y-84632862D01*
X128435000Y-84105439D01*
X128435000Y-83534561D01*
X128216534Y-83007138D01*
X127812862Y-82603466D01*
X127683784Y-82550000D01*
X127812862Y-82496534D01*
X128216534Y-82092862D01*
X128435000Y-81565439D01*
X128435000Y-80994561D01*
X128216534Y-80467138D01*
X127812862Y-80063466D01*
X127683784Y-80010000D01*
X127812862Y-79956534D01*
X128216534Y-79552862D01*
X128435000Y-79025439D01*
X128435000Y-78454561D01*
X128216534Y-77927138D01*
X127812862Y-77523466D01*
X127683784Y-77470000D01*
X127812862Y-77416534D01*
X128216534Y-77012862D01*
X128435000Y-76485439D01*
X128435000Y-75914561D01*
X128350682Y-75711000D01*
X128672197Y-75711000D01*
X129052603Y-75553431D01*
X129343754Y-75262280D01*
X129501323Y-74881874D01*
X129501323Y-74470126D01*
X129499200Y-74465000D01*
X144302560Y-74465000D01*
X144302560Y-76665000D01*
X144351843Y-76912765D01*
X144492191Y-77122809D01*
X144702235Y-77263157D01*
X144950000Y-77312440D01*
X147150000Y-77312440D01*
X147397765Y-77263157D01*
X147607809Y-77122809D01*
X147748157Y-76912765D01*
X147797440Y-76665000D01*
X147797440Y-74465000D01*
X147748157Y-74217235D01*
X147607809Y-74007191D01*
X147397765Y-73866843D01*
X147150000Y-73817560D01*
X144950000Y-73817560D01*
X144702235Y-73866843D01*
X144492191Y-74007191D01*
X144351843Y-74217235D01*
X144302560Y-74465000D01*
X129499200Y-74465000D01*
X129343754Y-74089720D01*
X129052603Y-73798569D01*
X128672197Y-73641000D01*
X128260449Y-73641000D01*
X127880043Y-73798569D01*
X127762612Y-73916000D01*
X124153846Y-73916000D01*
X124078999Y-73901112D01*
X124004152Y-73916000D01*
X124004148Y-73916000D01*
X123782463Y-73960096D01*
X123782461Y-73960097D01*
X123782462Y-73960097D01*
X123594526Y-74085671D01*
X123594524Y-74085673D01*
X123531071Y-74128071D01*
X123488673Y-74191524D01*
X122240199Y-75440000D01*
X120089844Y-75440000D01*
X120014997Y-75425112D01*
X119940150Y-75440000D01*
X119940146Y-75440000D01*
X119718461Y-75484096D01*
X119703435Y-75494136D01*
X119530524Y-75609671D01*
X119530522Y-75609673D01*
X119467069Y-75652071D01*
X119424671Y-75715524D01*
X117562199Y-77577998D01*
X117396126Y-77577998D01*
X117015720Y-77735567D01*
X116724569Y-78026718D01*
X116567000Y-78407124D01*
X116567000Y-78818872D01*
X116724569Y-79199278D01*
X117015720Y-79490429D01*
X117396126Y-79647998D01*
X117807874Y-79647998D01*
X118188280Y-79490429D01*
X118479431Y-79199278D01*
X118637000Y-78818872D01*
X118637000Y-78652799D01*
X120329801Y-76960000D01*
X122480153Y-76960000D01*
X122555000Y-76974888D01*
X122629847Y-76960000D01*
X122629852Y-76960000D01*
X122851537Y-76915904D01*
X123102929Y-76747929D01*
X123145331Y-76684470D01*
X124393803Y-75436000D01*
X125763227Y-75436000D01*
X125565000Y-75914561D01*
X125565000Y-76485439D01*
X125783466Y-77012862D01*
X126187138Y-77416534D01*
X126316216Y-77470000D01*
X126187138Y-77523466D01*
X125783466Y-77927138D01*
X125565000Y-78454561D01*
X125565000Y-79025439D01*
X125783466Y-79552862D01*
X126187138Y-79956534D01*
X126316216Y-80010000D01*
X126187138Y-80063466D01*
X125783466Y-80467138D01*
X125565000Y-80994561D01*
X125565000Y-81565439D01*
X125783466Y-82092862D01*
X126187138Y-82496534D01*
X126316216Y-82550000D01*
X126187138Y-82603466D01*
X125783466Y-83007138D01*
X125761570Y-83060000D01*
X125550846Y-83060000D01*
X125475999Y-83045112D01*
X125401152Y-83060000D01*
X125401148Y-83060000D01*
X125179463Y-83104096D01*
X125179461Y-83104097D01*
X125179462Y-83104097D01*
X124991526Y-83229671D01*
X124991524Y-83229673D01*
X124928071Y-83272071D01*
X124885673Y-83335524D01*
X123467530Y-84753669D01*
X123404071Y-84796071D01*
X123236096Y-85047464D01*
X123192000Y-85269149D01*
X123192000Y-85269153D01*
X123177112Y-85344000D01*
X123192000Y-85418847D01*
X123192000Y-85590754D01*
X122990625Y-85289375D01*
X122692239Y-85090000D01*
X122990625Y-84890625D01*
X123318839Y-84399418D01*
X123434092Y-83820000D01*
X123318839Y-83240582D01*
X122990625Y-82749375D01*
X122692239Y-82550000D01*
X122990625Y-82350625D01*
X123318839Y-81859418D01*
X123434092Y-81280000D01*
X123318839Y-80700582D01*
X122990625Y-80209375D01*
X122972381Y-80197184D01*
X123017765Y-80188157D01*
X123227809Y-80047809D01*
X123368157Y-79837765D01*
X123417440Y-79590000D01*
X123417440Y-77890000D01*
X123368157Y-77642235D01*
X123227809Y-77432191D01*
X123017765Y-77291843D01*
X122770000Y-77242560D01*
X121070000Y-77242560D01*
X120822235Y-77291843D01*
X120612191Y-77432191D01*
X120471843Y-77642235D01*
X120422560Y-77890000D01*
X120422560Y-79590000D01*
X120471843Y-79837765D01*
X120612191Y-80047809D01*
X120822235Y-80188157D01*
X120867619Y-80197184D01*
X120849375Y-80209375D01*
X120521161Y-80700582D01*
X120405908Y-81280000D01*
X120521161Y-81859418D01*
X120849375Y-82350625D01*
X121147761Y-82550000D01*
X120849375Y-82749375D01*
X120641822Y-83060000D01*
X118311846Y-83060000D01*
X118236999Y-83045112D01*
X118162152Y-83060000D01*
X118162148Y-83060000D01*
X117940463Y-83104096D01*
X117689071Y-83272071D01*
X117646672Y-83335526D01*
X116779199Y-84203000D01*
X110310850Y-84203000D01*
X110236002Y-84188112D01*
X110161154Y-84203000D01*
X110161150Y-84203000D01*
X109939465Y-84247096D01*
X109688073Y-84415071D01*
X109645671Y-84478530D01*
X109434199Y-84690002D01*
X109268126Y-84690002D01*
X108887720Y-84847571D01*
X108596569Y-85138722D01*
X108439000Y-85519128D01*
X68270000Y-85519128D01*
X68270000Y-81002119D01*
X75053000Y-81002119D01*
X75053000Y-81557881D01*
X75265680Y-82071337D01*
X75658663Y-82464320D01*
X76172119Y-82677000D01*
X76727881Y-82677000D01*
X77241337Y-82464320D01*
X77445444Y-82260213D01*
X78189392Y-82260213D01*
X78258857Y-82502397D01*
X78782302Y-82689144D01*
X79337368Y-82661362D01*
X79721143Y-82502397D01*
X79790608Y-82260213D01*
X78990000Y-81459605D01*
X78189392Y-82260213D01*
X77445444Y-82260213D01*
X77634320Y-82071337D01*
X77713428Y-81880353D01*
X77767603Y-82011143D01*
X78009787Y-82080608D01*
X78810395Y-81280000D01*
X79169605Y-81280000D01*
X79970213Y-82080608D01*
X80212397Y-82011143D01*
X80262535Y-81870607D01*
X80345680Y-82071337D01*
X80738663Y-82464320D01*
X81252119Y-82677000D01*
X81807881Y-82677000D01*
X82321337Y-82464320D01*
X82714320Y-82071337D01*
X82800000Y-81864487D01*
X82885680Y-82071337D01*
X83278663Y-82464320D01*
X83792119Y-82677000D01*
X84347881Y-82677000D01*
X84861337Y-82464320D01*
X85254320Y-82071337D01*
X85340000Y-81864487D01*
X85425680Y-82071337D01*
X85600001Y-82245658D01*
X85600001Y-82282779D01*
X85585112Y-82357630D01*
X85644097Y-82654167D01*
X85720066Y-82767862D01*
X85812072Y-82905559D01*
X85875528Y-82947959D01*
X87232043Y-84304476D01*
X87274441Y-84367929D01*
X87337894Y-84410327D01*
X87337896Y-84410329D01*
X87422066Y-84466569D01*
X87525833Y-84535904D01*
X87747518Y-84580000D01*
X87747522Y-84580000D01*
X87822369Y-84594888D01*
X87897216Y-84580000D01*
X90736289Y-84580000D01*
X90853720Y-84697431D01*
X91234126Y-84855000D01*
X91645874Y-84855000D01*
X92026280Y-84697431D01*
X92317431Y-84406280D01*
X92475000Y-84025874D01*
X92475000Y-83614126D01*
X92317431Y-83233720D01*
X92026280Y-82942569D01*
X91645874Y-82785000D01*
X91234126Y-82785000D01*
X90853720Y-82942569D01*
X90736289Y-83060000D01*
X88137173Y-83060000D01*
X87471414Y-82394243D01*
X87794320Y-82071337D01*
X87880000Y-81864487D01*
X87965680Y-82071337D01*
X88358663Y-82464320D01*
X88872119Y-82677000D01*
X89427881Y-82677000D01*
X89941337Y-82464320D01*
X90334320Y-82071337D01*
X90420000Y-81864487D01*
X90505680Y-82071337D01*
X90898663Y-82464320D01*
X91412119Y-82677000D01*
X91967881Y-82677000D01*
X92481337Y-82464320D01*
X92874320Y-82071337D01*
X92960000Y-81864487D01*
X93045680Y-82071337D01*
X93438663Y-82464320D01*
X93952119Y-82677000D01*
X94507881Y-82677000D01*
X95021337Y-82464320D01*
X95414320Y-82071337D01*
X95500000Y-81864487D01*
X95585680Y-82071337D01*
X95978663Y-82464320D01*
X96492119Y-82677000D01*
X97047881Y-82677000D01*
X97561337Y-82464320D01*
X97954320Y-82071337D01*
X98040000Y-81864487D01*
X98125680Y-82071337D01*
X98518663Y-82464320D01*
X99032119Y-82677000D01*
X99587881Y-82677000D01*
X100101337Y-82464320D01*
X100494320Y-82071337D01*
X100580000Y-81864487D01*
X100665680Y-82071337D01*
X101058663Y-82464320D01*
X101572119Y-82677000D01*
X102127881Y-82677000D01*
X102641337Y-82464320D01*
X103034320Y-82071337D01*
X103120000Y-81864487D01*
X103205680Y-82071337D01*
X103598663Y-82464320D01*
X104112119Y-82677000D01*
X104462198Y-82677000D01*
X105200671Y-83415473D01*
X105243071Y-83478929D01*
X105494463Y-83646904D01*
X105716148Y-83691000D01*
X105716152Y-83691000D01*
X105791000Y-83705888D01*
X105865848Y-83691000D01*
X113281371Y-83691000D01*
X113356218Y-83705888D01*
X113431065Y-83691000D01*
X113431070Y-83691000D01*
X113652755Y-83646904D01*
X113904147Y-83478929D01*
X113946549Y-83415470D01*
X115719010Y-81643010D01*
X115885082Y-81643010D01*
X116265488Y-81485441D01*
X116556639Y-81194290D01*
X116714208Y-80813884D01*
X116714208Y-80402136D01*
X116556639Y-80021730D01*
X116265488Y-79730579D01*
X115885082Y-79573010D01*
X115473334Y-79573010D01*
X115092928Y-79730579D01*
X114801777Y-80021730D01*
X114644208Y-80402136D01*
X114644208Y-80568208D01*
X113231966Y-81980450D01*
X113407000Y-81557881D01*
X113407000Y-81002119D01*
X113194320Y-80488663D01*
X112801337Y-80095680D01*
X112287881Y-79883000D01*
X111732119Y-79883000D01*
X111218663Y-80095680D01*
X110825680Y-80488663D01*
X110740000Y-80695513D01*
X110654320Y-80488663D01*
X110261337Y-80095680D01*
X109747881Y-79883000D01*
X109192119Y-79883000D01*
X108678663Y-80095680D01*
X108285680Y-80488663D01*
X108200000Y-80695513D01*
X108114320Y-80488663D01*
X107721337Y-80095680D01*
X107207881Y-79883000D01*
X106652119Y-79883000D01*
X106138663Y-80095680D01*
X105745680Y-80488663D01*
X105660000Y-80695513D01*
X105574320Y-80488663D01*
X105181337Y-80095680D01*
X104667881Y-79883000D01*
X104112119Y-79883000D01*
X103598663Y-80095680D01*
X103205680Y-80488663D01*
X103120000Y-80695513D01*
X103034320Y-80488663D01*
X102641337Y-80095680D01*
X102369537Y-79983097D01*
X102360000Y-79935152D01*
X102360000Y-79935148D01*
X102315904Y-79713463D01*
X102315904Y-79713462D01*
X102190329Y-79525527D01*
X102147929Y-79462071D01*
X102084473Y-79419671D01*
X99203103Y-76538302D01*
X99225000Y-76485439D01*
X99225000Y-75937745D01*
X101406861Y-75937745D01*
X101480995Y-76183864D01*
X102018223Y-76376965D01*
X102588454Y-76349778D01*
X102989005Y-76183864D01*
X103063139Y-75937745D01*
X102235000Y-75109605D01*
X101406861Y-75937745D01*
X99225000Y-75937745D01*
X99225000Y-75914561D01*
X99006534Y-75387138D01*
X98602862Y-74983466D01*
X98075439Y-74765000D01*
X97504561Y-74765000D01*
X96977138Y-74983466D01*
X96573466Y-75387138D01*
X96355000Y-75914561D01*
X96355000Y-76485439D01*
X96573466Y-77012862D01*
X96977138Y-77416534D01*
X97504561Y-77635000D01*
X98075439Y-77635000D01*
X98128302Y-77613103D01*
X100834771Y-80319572D01*
X100665680Y-80488663D01*
X100580000Y-80695513D01*
X100494320Y-80488663D01*
X100101337Y-80095680D01*
X99587881Y-79883000D01*
X99032119Y-79883000D01*
X98518663Y-80095680D01*
X98125680Y-80488663D01*
X98040000Y-80695513D01*
X97954320Y-80488663D01*
X97561337Y-80095680D01*
X97047881Y-79883000D01*
X96492119Y-79883000D01*
X95978663Y-80095680D01*
X95585680Y-80488663D01*
X95500000Y-80695513D01*
X95414320Y-80488663D01*
X95021337Y-80095680D01*
X94507881Y-79883000D01*
X93952119Y-79883000D01*
X93438663Y-80095680D01*
X93045680Y-80488663D01*
X92960000Y-80695513D01*
X92874320Y-80488663D01*
X92481337Y-80095680D01*
X91967881Y-79883000D01*
X91412119Y-79883000D01*
X90898663Y-80095680D01*
X90505680Y-80488663D01*
X90420000Y-80695513D01*
X90334320Y-80488663D01*
X89941337Y-80095680D01*
X89427881Y-79883000D01*
X88872119Y-79883000D01*
X88358663Y-80095680D01*
X87965680Y-80488663D01*
X87880000Y-80695513D01*
X87794320Y-80488663D01*
X87401337Y-80095680D01*
X86887881Y-79883000D01*
X86332119Y-79883000D01*
X85818663Y-80095680D01*
X85425680Y-80488663D01*
X85340000Y-80695513D01*
X85254320Y-80488663D01*
X84861337Y-80095680D01*
X84347881Y-79883000D01*
X83792119Y-79883000D01*
X83278663Y-80095680D01*
X82885680Y-80488663D01*
X82800000Y-80695513D01*
X82714320Y-80488663D01*
X82321337Y-80095680D01*
X81807881Y-79883000D01*
X81252119Y-79883000D01*
X80738663Y-80095680D01*
X80345680Y-80488663D01*
X80266572Y-80679647D01*
X80212397Y-80548857D01*
X79970213Y-80479392D01*
X79169605Y-81280000D01*
X78810395Y-81280000D01*
X78009787Y-80479392D01*
X77767603Y-80548857D01*
X77717465Y-80689393D01*
X77634320Y-80488663D01*
X77445444Y-80299787D01*
X78189392Y-80299787D01*
X78990000Y-81100395D01*
X79790608Y-80299787D01*
X79721143Y-80057603D01*
X79197698Y-79870856D01*
X78642632Y-79898638D01*
X78258857Y-80057603D01*
X78189392Y-80299787D01*
X77445444Y-80299787D01*
X77241337Y-80095680D01*
X76727881Y-79883000D01*
X76172119Y-79883000D01*
X75658663Y-80095680D01*
X75265680Y-80488663D01*
X75053000Y-81002119D01*
X68270000Y-81002119D01*
X68270000Y-78604745D01*
X79689861Y-78604745D01*
X79763995Y-78850864D01*
X80301223Y-79043965D01*
X80871454Y-79016778D01*
X81272005Y-78850864D01*
X81346139Y-78604745D01*
X80518000Y-77776605D01*
X79689861Y-78604745D01*
X68270000Y-78604745D01*
X68270000Y-77959606D01*
X68632606Y-77597000D01*
X77470000Y-77597000D01*
X77518601Y-77587333D01*
X77559803Y-77559803D01*
X77739383Y-77380223D01*
X79071035Y-77380223D01*
X79098222Y-77950454D01*
X79264136Y-78351005D01*
X79510255Y-78425139D01*
X80338395Y-77597000D01*
X80697605Y-77597000D01*
X81525745Y-78425139D01*
X81771864Y-78351005D01*
X81774290Y-78344254D01*
X81801466Y-78409862D01*
X82205138Y-78813534D01*
X82732561Y-79032000D01*
X83303439Y-79032000D01*
X83830862Y-78813534D01*
X84234534Y-78409862D01*
X84453000Y-77882439D01*
X84453000Y-77311561D01*
X84234534Y-76784138D01*
X83830862Y-76380466D01*
X83303439Y-76162000D01*
X82732561Y-76162000D01*
X82205138Y-76380466D01*
X81801466Y-76784138D01*
X81774475Y-76849299D01*
X81771864Y-76842995D01*
X81525745Y-76768861D01*
X80697605Y-77597000D01*
X80338395Y-77597000D01*
X79510255Y-76768861D01*
X79264136Y-76842995D01*
X79071035Y-77380223D01*
X77739383Y-77380223D01*
X78194803Y-76924803D01*
X78222333Y-76883601D01*
X78232000Y-76835000D01*
X78232000Y-76589255D01*
X79689861Y-76589255D01*
X80518000Y-77417395D01*
X81346139Y-76589255D01*
X81272005Y-76343136D01*
X80734777Y-76150035D01*
X80164546Y-76177222D01*
X79763995Y-76343136D01*
X79689861Y-76589255D01*
X78232000Y-76589255D01*
X78232000Y-75565000D01*
X84896887Y-75565000D01*
X85008260Y-76124909D01*
X85325423Y-76599577D01*
X85800091Y-76916740D01*
X86218667Y-77000000D01*
X86501333Y-77000000D01*
X86919909Y-76916740D01*
X87394577Y-76599577D01*
X87711740Y-76124909D01*
X87823113Y-75565000D01*
X87711740Y-75005091D01*
X87551317Y-74765000D01*
X92532560Y-74765000D01*
X92532560Y-76365000D01*
X92581843Y-76612765D01*
X92722191Y-76822809D01*
X92932235Y-76963157D01*
X93180000Y-77012440D01*
X94780000Y-77012440D01*
X95027765Y-76963157D01*
X95237809Y-76822809D01*
X95378157Y-76612765D01*
X95427440Y-76365000D01*
X95427440Y-74765000D01*
X95417142Y-74713223D01*
X100788035Y-74713223D01*
X100815222Y-75283454D01*
X100981136Y-75684005D01*
X101227255Y-75758139D01*
X102055395Y-74930000D01*
X102414605Y-74930000D01*
X103242745Y-75758139D01*
X103488864Y-75684005D01*
X103511280Y-75621641D01*
X103740423Y-75964577D01*
X104215091Y-76281740D01*
X104633667Y-76365000D01*
X104916333Y-76365000D01*
X105334909Y-76281740D01*
X105385215Y-76248126D01*
X106280000Y-76248126D01*
X106280000Y-76659874D01*
X106437569Y-77040280D01*
X106728720Y-77331431D01*
X107109126Y-77489000D01*
X107275199Y-77489000D01*
X107887243Y-78101046D01*
X107834569Y-78153720D01*
X107677000Y-78534126D01*
X107677000Y-78945874D01*
X107834569Y-79326280D01*
X108125720Y-79617431D01*
X108506126Y-79775000D01*
X108917874Y-79775000D01*
X109298280Y-79617431D01*
X109415711Y-79500000D01*
X112961289Y-79500000D01*
X113078720Y-79617431D01*
X113459126Y-79775000D01*
X113870874Y-79775000D01*
X114251280Y-79617431D01*
X114542431Y-79326280D01*
X114700000Y-78945874D01*
X114700000Y-78534126D01*
X114542431Y-78153720D01*
X114251280Y-77862569D01*
X113870874Y-77705000D01*
X113459126Y-77705000D01*
X113078720Y-77862569D01*
X112961289Y-77980000D01*
X112795000Y-77980000D01*
X112795000Y-77645126D01*
X112637431Y-77264720D01*
X112346280Y-76973569D01*
X111965874Y-76816000D01*
X111554126Y-76816000D01*
X111173720Y-76973569D01*
X111056289Y-77091000D01*
X109026803Y-77091000D01*
X108350000Y-76414199D01*
X108350000Y-76248126D01*
X108192431Y-75867720D01*
X107901280Y-75576569D01*
X107520874Y-75419000D01*
X107109126Y-75419000D01*
X106728720Y-75576569D01*
X106437569Y-75867720D01*
X106280000Y-76248126D01*
X105385215Y-76248126D01*
X105809577Y-75964577D01*
X106126740Y-75489909D01*
X106228540Y-74978126D01*
X109455000Y-74978126D01*
X109455000Y-75389874D01*
X109612569Y-75770280D01*
X109903720Y-76061431D01*
X110284126Y-76219000D01*
X110695874Y-76219000D01*
X111076280Y-76061431D01*
X111193711Y-75944000D01*
X113572289Y-75944000D01*
X113689720Y-76061431D01*
X114070126Y-76219000D01*
X114481874Y-76219000D01*
X114862280Y-76061431D01*
X115153431Y-75770280D01*
X115311000Y-75389874D01*
X115311000Y-74978126D01*
X115153431Y-74597720D01*
X114862280Y-74306569D01*
X114481874Y-74149000D01*
X114070126Y-74149000D01*
X113689720Y-74306569D01*
X113572289Y-74424000D01*
X111193711Y-74424000D01*
X111076280Y-74306569D01*
X110695874Y-74149000D01*
X110284126Y-74149000D01*
X109903720Y-74306569D01*
X109612569Y-74597720D01*
X109455000Y-74978126D01*
X106228540Y-74978126D01*
X106238113Y-74930000D01*
X106126740Y-74370091D01*
X105809577Y-73895423D01*
X105334909Y-73578260D01*
X104916333Y-73495000D01*
X104633667Y-73495000D01*
X104215091Y-73578260D01*
X103740423Y-73895423D01*
X103513389Y-74235203D01*
X103488864Y-74175995D01*
X103242745Y-74101861D01*
X102414605Y-74930000D01*
X102055395Y-74930000D01*
X101227255Y-74101861D01*
X100981136Y-74175995D01*
X100788035Y-74713223D01*
X95417142Y-74713223D01*
X95378157Y-74517235D01*
X95237809Y-74307191D01*
X95027765Y-74166843D01*
X94780000Y-74117560D01*
X93180000Y-74117560D01*
X92932235Y-74166843D01*
X92722191Y-74307191D01*
X92581843Y-74517235D01*
X92532560Y-74765000D01*
X87551317Y-74765000D01*
X87394577Y-74530423D01*
X86919909Y-74213260D01*
X86501333Y-74130000D01*
X86218667Y-74130000D01*
X85800091Y-74213260D01*
X85325423Y-74530423D01*
X85008260Y-75005091D01*
X84896887Y-75565000D01*
X78232000Y-75565000D01*
X78232000Y-71120000D01*
X80150516Y-71120000D01*
X80267322Y-71707222D01*
X80599956Y-72205044D01*
X80665122Y-72248587D01*
X80430414Y-72405414D01*
X80235873Y-72696564D01*
X80167560Y-73039999D01*
X80167560Y-74280001D01*
X80235873Y-74623436D01*
X80430414Y-74914586D01*
X80721564Y-75109127D01*
X81064999Y-75177440D01*
X82765001Y-75177440D01*
X83108436Y-75109127D01*
X83399586Y-74914586D01*
X83594127Y-74623436D01*
X83662440Y-74280001D01*
X83662440Y-73922255D01*
X101406861Y-73922255D01*
X102235000Y-74750395D01*
X103063139Y-73922255D01*
X102989005Y-73676136D01*
X102451777Y-73483035D01*
X101881546Y-73510222D01*
X101480995Y-73676136D01*
X101406861Y-73922255D01*
X83662440Y-73922255D01*
X83662440Y-73039999D01*
X83594127Y-72696564D01*
X83399586Y-72405414D01*
X83164878Y-72248587D01*
X83230044Y-72205044D01*
X83562678Y-71707222D01*
X83679484Y-71120000D01*
X83562678Y-70532778D01*
X83530754Y-70485000D01*
X84896887Y-70485000D01*
X85008260Y-71044909D01*
X85325423Y-71519577D01*
X85800091Y-71836740D01*
X86218667Y-71920000D01*
X86501333Y-71920000D01*
X86919909Y-71836740D01*
X87394577Y-71519577D01*
X87711740Y-71044909D01*
X87753684Y-70834039D01*
X92588096Y-70834039D01*
X92748959Y-71222423D01*
X93124866Y-71637389D01*
X93630959Y-71876914D01*
X93853000Y-71755629D01*
X93853000Y-70612000D01*
X94107000Y-70612000D01*
X94107000Y-71755629D01*
X94329041Y-71876914D01*
X94835134Y-71637389D01*
X94987636Y-71469041D01*
X96398086Y-71469041D01*
X96637611Y-71975134D01*
X97052577Y-72351041D01*
X97440961Y-72511904D01*
X97663000Y-72389915D01*
X97663000Y-71247000D01*
X97917000Y-71247000D01*
X97917000Y-72389915D01*
X98139039Y-72511904D01*
X98527423Y-72351041D01*
X98942389Y-71975134D01*
X99181667Y-71469561D01*
X100165000Y-71469561D01*
X100165000Y-72040439D01*
X100383466Y-72567862D01*
X100787138Y-72971534D01*
X101314561Y-73190000D01*
X101885439Y-73190000D01*
X102412862Y-72971534D01*
X102816534Y-72567862D01*
X103035000Y-72040439D01*
X103035000Y-71469561D01*
X103018432Y-71429561D01*
X103975000Y-71429561D01*
X103975000Y-72000439D01*
X104193466Y-72527862D01*
X104597138Y-72931534D01*
X105124561Y-73150000D01*
X105695439Y-73150000D01*
X106222862Y-72931534D01*
X106626534Y-72527862D01*
X106840304Y-72011774D01*
X107715000Y-72011774D01*
X107715000Y-72768225D01*
X107802322Y-73207221D01*
X108134956Y-73705044D01*
X108632778Y-74037678D01*
X109220000Y-74154484D01*
X109807221Y-74037678D01*
X110305044Y-73705044D01*
X110490000Y-73428237D01*
X110674956Y-73705044D01*
X111172778Y-74037678D01*
X111760000Y-74154484D01*
X112347221Y-74037678D01*
X112834636Y-73711999D01*
X112891673Y-73849699D01*
X113070302Y-74028327D01*
X113303691Y-74125000D01*
X114014250Y-74125000D01*
X114173000Y-73966250D01*
X114173000Y-72517000D01*
X114153000Y-72517000D01*
X114153000Y-72263000D01*
X114173000Y-72263000D01*
X114173000Y-70813750D01*
X114427000Y-70813750D01*
X114427000Y-72263000D01*
X114447000Y-72263000D01*
X114447000Y-72517000D01*
X114427000Y-72517000D01*
X114427000Y-73966250D01*
X114585750Y-74125000D01*
X115296309Y-74125000D01*
X115529698Y-74028327D01*
X115708327Y-73849699D01*
X115765364Y-73711999D01*
X116252778Y-74037678D01*
X116840000Y-74154484D01*
X117427221Y-74037678D01*
X117925044Y-73705044D01*
X118110000Y-73428237D01*
X118294956Y-73705044D01*
X118792778Y-74037678D01*
X119380000Y-74154484D01*
X119967221Y-74037678D01*
X120454636Y-73711999D01*
X120511673Y-73849699D01*
X120690302Y-74028327D01*
X120923691Y-74125000D01*
X121634250Y-74125000D01*
X121793000Y-73966250D01*
X121793000Y-72517000D01*
X122047000Y-72517000D01*
X122047000Y-73966250D01*
X122205750Y-74125000D01*
X122916309Y-74125000D01*
X123149698Y-74028327D01*
X123328327Y-73849699D01*
X123425000Y-73616310D01*
X123425000Y-72675750D01*
X123266250Y-72517000D01*
X122047000Y-72517000D01*
X121793000Y-72517000D01*
X121773000Y-72517000D01*
X121773000Y-72263000D01*
X121793000Y-72263000D01*
X121793000Y-72243000D01*
X122047000Y-72243000D01*
X122047000Y-72263000D01*
X123266250Y-72263000D01*
X123425000Y-72104250D01*
X123425000Y-71163690D01*
X123406075Y-71118000D01*
X127371829Y-71118000D01*
X129088303Y-72834476D01*
X129130701Y-72897929D01*
X129194154Y-72940327D01*
X129194156Y-72940329D01*
X129319532Y-73024102D01*
X129382093Y-73065904D01*
X129568678Y-73103018D01*
X129593466Y-73162862D01*
X129997138Y-73566534D01*
X130524561Y-73785000D01*
X131095439Y-73785000D01*
X131622862Y-73566534D01*
X132026534Y-73162862D01*
X132245000Y-72635439D01*
X132245000Y-72390000D01*
X133156887Y-72390000D01*
X133268260Y-72949909D01*
X133585423Y-73424577D01*
X134060091Y-73741740D01*
X134478667Y-73825000D01*
X134761333Y-73825000D01*
X135179909Y-73741740D01*
X135654577Y-73424577D01*
X135971740Y-72949909D01*
X136083113Y-72390000D01*
X135971740Y-71830091D01*
X135654577Y-71355423D01*
X135314797Y-71128389D01*
X135374005Y-71103864D01*
X135448139Y-70857745D01*
X134620000Y-70029605D01*
X133791861Y-70857745D01*
X133865995Y-71103864D01*
X133928359Y-71126280D01*
X133585423Y-71355423D01*
X133268260Y-71830091D01*
X133156887Y-72390000D01*
X132245000Y-72390000D01*
X132245000Y-72064561D01*
X132026534Y-71537138D01*
X131622862Y-71133466D01*
X131557701Y-71106475D01*
X131564005Y-71103864D01*
X131638139Y-70857745D01*
X130810000Y-70029605D01*
X129981861Y-70857745D01*
X130055995Y-71103864D01*
X130062746Y-71106290D01*
X129997138Y-71133466D01*
X129767018Y-71363586D01*
X128276961Y-69873530D01*
X128234559Y-69810071D01*
X127983167Y-69642096D01*
X127938560Y-69633223D01*
X129363035Y-69633223D01*
X129390222Y-70203454D01*
X129556136Y-70604005D01*
X129802255Y-70678139D01*
X130630395Y-69850000D01*
X130989605Y-69850000D01*
X131817745Y-70678139D01*
X132063864Y-70604005D01*
X132256965Y-70066777D01*
X132236295Y-69633223D01*
X133173035Y-69633223D01*
X133200222Y-70203454D01*
X133366136Y-70604005D01*
X133612255Y-70678139D01*
X134440395Y-69850000D01*
X134799605Y-69850000D01*
X135627745Y-70678139D01*
X135873864Y-70604005D01*
X136011890Y-70220000D01*
X138152560Y-70220000D01*
X138152560Y-72020000D01*
X138201843Y-72267765D01*
X138342191Y-72477809D01*
X138552235Y-72618157D01*
X138800000Y-72667440D01*
X140600000Y-72667440D01*
X140847765Y-72618157D01*
X141057809Y-72477809D01*
X141198157Y-72267765D01*
X141201275Y-72252092D01*
X141370493Y-72421310D01*
X141934670Y-72655000D01*
X142545330Y-72655000D01*
X143109507Y-72421310D01*
X143278725Y-72252092D01*
X143281843Y-72267765D01*
X143422191Y-72477809D01*
X143632235Y-72618157D01*
X143880000Y-72667440D01*
X145680000Y-72667440D01*
X145927765Y-72618157D01*
X146137809Y-72477809D01*
X146278157Y-72267765D01*
X146281275Y-72252092D01*
X146450493Y-72421310D01*
X147014670Y-72655000D01*
X147625330Y-72655000D01*
X148189507Y-72421310D01*
X148621310Y-71989507D01*
X148855000Y-71425330D01*
X148855000Y-70814670D01*
X148621310Y-70250493D01*
X148189507Y-69818690D01*
X147625330Y-69585000D01*
X147014670Y-69585000D01*
X146450493Y-69818690D01*
X146281275Y-69987908D01*
X146278157Y-69972235D01*
X146137809Y-69762191D01*
X145927765Y-69621843D01*
X145680000Y-69572560D01*
X143880000Y-69572560D01*
X143632235Y-69621843D01*
X143422191Y-69762191D01*
X143281843Y-69972235D01*
X143278725Y-69987908D01*
X143109507Y-69818690D01*
X142545330Y-69585000D01*
X141934670Y-69585000D01*
X141370493Y-69818690D01*
X141201275Y-69987908D01*
X141198157Y-69972235D01*
X141057809Y-69762191D01*
X140847765Y-69621843D01*
X140600000Y-69572560D01*
X138800000Y-69572560D01*
X138552235Y-69621843D01*
X138342191Y-69762191D01*
X138201843Y-69972235D01*
X138152560Y-70220000D01*
X136011890Y-70220000D01*
X136066965Y-70066777D01*
X136039778Y-69496546D01*
X135873864Y-69095995D01*
X135627745Y-69021861D01*
X134799605Y-69850000D01*
X134440395Y-69850000D01*
X133612255Y-69021861D01*
X133366136Y-69095995D01*
X133173035Y-69633223D01*
X132236295Y-69633223D01*
X132229778Y-69496546D01*
X132063864Y-69095995D01*
X131817745Y-69021861D01*
X130989605Y-69850000D01*
X130630395Y-69850000D01*
X129802255Y-69021861D01*
X129556136Y-69095995D01*
X129363035Y-69633223D01*
X127938560Y-69633223D01*
X127761482Y-69598000D01*
X127761477Y-69598000D01*
X127686630Y-69583112D01*
X127611783Y-69598000D01*
X118716848Y-69598000D01*
X118642000Y-69583112D01*
X118567152Y-69598000D01*
X118567148Y-69598000D01*
X118393605Y-69632520D01*
X118345462Y-69642096D01*
X118216755Y-69728096D01*
X118094071Y-69810071D01*
X118051671Y-69873527D01*
X117223416Y-70701782D01*
X116840000Y-70625516D01*
X116252779Y-70742322D01*
X115765364Y-71068001D01*
X115708327Y-70930301D01*
X115529698Y-70751673D01*
X115296309Y-70655000D01*
X114585750Y-70655000D01*
X114427000Y-70813750D01*
X114173000Y-70813750D01*
X114014250Y-70655000D01*
X113303691Y-70655000D01*
X113070302Y-70751673D01*
X112891673Y-70930301D01*
X112834636Y-71068001D01*
X112347222Y-70742322D01*
X111760000Y-70625516D01*
X111172779Y-70742322D01*
X110674956Y-71074956D01*
X110490000Y-71351763D01*
X110305044Y-71074956D01*
X109807222Y-70742322D01*
X109220000Y-70625516D01*
X108632779Y-70742322D01*
X108134956Y-71074956D01*
X107802322Y-71572778D01*
X107715000Y-72011774D01*
X106840304Y-72011774D01*
X106845000Y-72000439D01*
X106845000Y-71429561D01*
X106626534Y-70902138D01*
X106222862Y-70498466D01*
X106157701Y-70471475D01*
X106164005Y-70468864D01*
X106238139Y-70222745D01*
X105410000Y-69394605D01*
X104581861Y-70222745D01*
X104655995Y-70468864D01*
X104662746Y-70471290D01*
X104597138Y-70498466D01*
X104193466Y-70902138D01*
X103975000Y-71429561D01*
X103018432Y-71429561D01*
X102816534Y-70942138D01*
X102412862Y-70538466D01*
X102347701Y-70511475D01*
X102354005Y-70508864D01*
X102428139Y-70262745D01*
X101600000Y-69434605D01*
X100771861Y-70262745D01*
X100845995Y-70508864D01*
X100852746Y-70511290D01*
X100787138Y-70538466D01*
X100383466Y-70942138D01*
X100165000Y-71469561D01*
X99181667Y-71469561D01*
X99181914Y-71469041D01*
X99060629Y-71247000D01*
X97917000Y-71247000D01*
X97663000Y-71247000D01*
X96519371Y-71247000D01*
X96398086Y-71469041D01*
X94987636Y-71469041D01*
X95211041Y-71222423D01*
X95371904Y-70834039D01*
X95337248Y-70770959D01*
X96398086Y-70770959D01*
X96519371Y-70993000D01*
X97663000Y-70993000D01*
X97663000Y-69850085D01*
X97917000Y-69850085D01*
X97917000Y-70993000D01*
X99060629Y-70993000D01*
X99181914Y-70770959D01*
X98942389Y-70264866D01*
X98527423Y-69888959D01*
X98139039Y-69728096D01*
X97917000Y-69850085D01*
X97663000Y-69850085D01*
X97440961Y-69728096D01*
X97052577Y-69888959D01*
X96637611Y-70264866D01*
X96398086Y-70770959D01*
X95337248Y-70770959D01*
X95249915Y-70612000D01*
X94107000Y-70612000D01*
X93853000Y-70612000D01*
X92710085Y-70612000D01*
X92588096Y-70834039D01*
X87753684Y-70834039D01*
X87823113Y-70485000D01*
X87753685Y-70135961D01*
X92588096Y-70135961D01*
X92710085Y-70358000D01*
X93853000Y-70358000D01*
X93853000Y-69214371D01*
X94107000Y-69214371D01*
X94107000Y-70358000D01*
X95249915Y-70358000D01*
X95371904Y-70135961D01*
X95211041Y-69747577D01*
X94835134Y-69332611D01*
X94329041Y-69093086D01*
X94107000Y-69214371D01*
X93853000Y-69214371D01*
X93630959Y-69093086D01*
X93124866Y-69332611D01*
X92748959Y-69747577D01*
X92588096Y-70135961D01*
X87753685Y-70135961D01*
X87711740Y-69925091D01*
X87394577Y-69450423D01*
X86919909Y-69133260D01*
X86501333Y-69050000D01*
X86218667Y-69050000D01*
X85800091Y-69133260D01*
X85325423Y-69450423D01*
X85008260Y-69925091D01*
X84896887Y-70485000D01*
X83530754Y-70485000D01*
X83230044Y-70034956D01*
X82732222Y-69702322D01*
X82293226Y-69615000D01*
X81536774Y-69615000D01*
X81097778Y-69702322D01*
X80599956Y-70034956D01*
X80267322Y-70532778D01*
X80150516Y-71120000D01*
X78232000Y-71120000D01*
X78232000Y-69038223D01*
X100153035Y-69038223D01*
X100180222Y-69608454D01*
X100346136Y-70009005D01*
X100592255Y-70083139D01*
X101420395Y-69255000D01*
X101779605Y-69255000D01*
X102607745Y-70083139D01*
X102853864Y-70009005D01*
X103046965Y-69471777D01*
X103024388Y-68998223D01*
X103963035Y-68998223D01*
X103990222Y-69568454D01*
X104156136Y-69969005D01*
X104402255Y-70043139D01*
X105230395Y-69215000D01*
X105589605Y-69215000D01*
X106417745Y-70043139D01*
X106663864Y-69969005D01*
X106856965Y-69431777D01*
X106829778Y-68861546D01*
X106821788Y-68842255D01*
X129981861Y-68842255D01*
X130810000Y-69670395D01*
X131638139Y-68842255D01*
X133791861Y-68842255D01*
X134620000Y-69670395D01*
X135448139Y-68842255D01*
X135374005Y-68596136D01*
X134836777Y-68403035D01*
X134266546Y-68430222D01*
X133865995Y-68596136D01*
X133791861Y-68842255D01*
X131638139Y-68842255D01*
X131564005Y-68596136D01*
X131026777Y-68403035D01*
X130456546Y-68430222D01*
X130055995Y-68596136D01*
X129981861Y-68842255D01*
X106821788Y-68842255D01*
X106663864Y-68460995D01*
X106417745Y-68386861D01*
X105589605Y-69215000D01*
X105230395Y-69215000D01*
X104402255Y-68386861D01*
X104156136Y-68460995D01*
X103963035Y-68998223D01*
X103024388Y-68998223D01*
X103019778Y-68901546D01*
X102853864Y-68500995D01*
X102607745Y-68426861D01*
X101779605Y-69255000D01*
X101420395Y-69255000D01*
X100592255Y-68426861D01*
X100346136Y-68500995D01*
X100153035Y-69038223D01*
X78232000Y-69038223D01*
X78232000Y-68247255D01*
X100771861Y-68247255D01*
X101600000Y-69075395D01*
X102428139Y-68247255D01*
X102416091Y-68207255D01*
X104581861Y-68207255D01*
X105410000Y-69035395D01*
X106238139Y-68207255D01*
X106164005Y-67961136D01*
X105626777Y-67768035D01*
X105056546Y-67795222D01*
X104655995Y-67961136D01*
X104581861Y-68207255D01*
X102416091Y-68207255D01*
X102354005Y-68001136D01*
X101816777Y-67808035D01*
X101246546Y-67835222D01*
X100845995Y-68001136D01*
X100771861Y-68247255D01*
X78232000Y-68247255D01*
X78232000Y-67997606D01*
X78792606Y-67437000D01*
X149807394Y-67437000D01*
X150368000Y-67997606D01*
X150368000Y-67997606D01*
G37*
X150368000Y-67997606D02*
X150368000Y-76835000D01*
X150377667Y-76883601D01*
X150405197Y-76924803D01*
X151040197Y-77559803D01*
X151081399Y-77587333D01*
X151130000Y-77597000D01*
X159967394Y-77597000D01*
X160330001Y-77959607D01*
X160330000Y-99840394D01*
X159967394Y-100203000D01*
X151384000Y-100203000D01*
X151335399Y-100212667D01*
X151294197Y-100240197D01*
X150532197Y-101002197D01*
X150504667Y-101043399D01*
X150495000Y-101092000D01*
X150495000Y-101747533D01*
X150432122Y-102104135D01*
X150420000Y-102165075D01*
X150420001Y-109750393D01*
X149755394Y-110415000D01*
X78844606Y-110415000D01*
X78232000Y-109802394D01*
X78232000Y-108299041D01*
X133609086Y-108299041D01*
X133848611Y-108805134D01*
X134263577Y-109181041D01*
X134651961Y-109341904D01*
X134874000Y-109219915D01*
X134874000Y-108077000D01*
X135128000Y-108077000D01*
X135128000Y-109219915D01*
X135350039Y-109341904D01*
X135738423Y-109181041D01*
X136153389Y-108805134D01*
X136392914Y-108299041D01*
X136271629Y-108077000D01*
X135128000Y-108077000D01*
X134874000Y-108077000D01*
X133730371Y-108077000D01*
X133609086Y-108299041D01*
X78232000Y-108299041D01*
X78232000Y-107950000D01*
X137093887Y-107950000D01*
X137205260Y-108509909D01*
X137522423Y-108984577D01*
X137997091Y-109301740D01*
X138415667Y-109385000D01*
X138698333Y-109385000D01*
X139116909Y-109301740D01*
X139591577Y-108984577D01*
X139908740Y-108509909D01*
X140020113Y-107950000D01*
X139908740Y-107390091D01*
X139591577Y-106915423D01*
X139116909Y-106598260D01*
X138698333Y-106515000D01*
X138415667Y-106515000D01*
X137997091Y-106598260D01*
X137522423Y-106915423D01*
X137205260Y-107390091D01*
X137093887Y-107950000D01*
X78232000Y-107950000D01*
X78232000Y-107600959D01*
X133609086Y-107600959D01*
X133730371Y-107823000D01*
X134874000Y-107823000D01*
X134874000Y-106680085D01*
X135128000Y-106680085D01*
X135128000Y-107823000D01*
X136271629Y-107823000D01*
X136392914Y-107600959D01*
X136153389Y-107094866D01*
X135738423Y-106718959D01*
X135350039Y-106558096D01*
X135128000Y-106680085D01*
X134874000Y-106680085D01*
X134651961Y-106558096D01*
X134263577Y-106718959D01*
X133848611Y-107094866D01*
X133609086Y-107600959D01*
X78232000Y-107600959D01*
X78232000Y-104425750D01*
X79775000Y-104425750D01*
X79775000Y-105366310D01*
X79871673Y-105599699D01*
X80050302Y-105778327D01*
X80283691Y-105875000D01*
X80994250Y-105875000D01*
X81153000Y-105716250D01*
X81153000Y-104267000D01*
X79933750Y-104267000D01*
X79775000Y-104425750D01*
X78232000Y-104425750D01*
X78232000Y-102913690D01*
X79775000Y-102913690D01*
X79775000Y-103854250D01*
X79933750Y-104013000D01*
X81153000Y-104013000D01*
X81153000Y-102563750D01*
X81407000Y-102563750D01*
X81407000Y-104013000D01*
X81427000Y-104013000D01*
X81427000Y-104267000D01*
X81407000Y-104267000D01*
X81407000Y-105716250D01*
X81565750Y-105875000D01*
X82276309Y-105875000D01*
X82509698Y-105778327D01*
X82688327Y-105599699D01*
X82745364Y-105461999D01*
X83232779Y-105787678D01*
X83820000Y-105904484D01*
X84407222Y-105787678D01*
X84905044Y-105455044D01*
X85090000Y-105178237D01*
X85274956Y-105455044D01*
X85772779Y-105787678D01*
X86360000Y-105904484D01*
X86947222Y-105787678D01*
X87434636Y-105461999D01*
X87491673Y-105599699D01*
X87670302Y-105778327D01*
X87903691Y-105875000D01*
X88614250Y-105875000D01*
X88773000Y-105716250D01*
X88773000Y-104267000D01*
X88753000Y-104267000D01*
X88753000Y-104013000D01*
X88773000Y-104013000D01*
X88773000Y-102563750D01*
X88614250Y-102405000D01*
X87903691Y-102405000D01*
X87670302Y-102501673D01*
X87491673Y-102680301D01*
X87434636Y-102818001D01*
X86947221Y-102492322D01*
X86360000Y-102375516D01*
X85772778Y-102492322D01*
X85274956Y-102824956D01*
X85090000Y-103101763D01*
X84905044Y-102824956D01*
X84407221Y-102492322D01*
X83820000Y-102375516D01*
X83232778Y-102492322D01*
X82745364Y-102818001D01*
X82688327Y-102680301D01*
X82509698Y-102501673D01*
X82276309Y-102405000D01*
X81565750Y-102405000D01*
X81407000Y-102563750D01*
X81153000Y-102563750D01*
X80994250Y-102405000D01*
X80283691Y-102405000D01*
X80050302Y-102501673D01*
X79871673Y-102680301D01*
X79775000Y-102913690D01*
X78232000Y-102913690D01*
X78232000Y-100965000D01*
X78222333Y-100916399D01*
X78194803Y-100875197D01*
X77559803Y-100240197D01*
X77518601Y-100212667D01*
X77470000Y-100203000D01*
X68632606Y-100203000D01*
X68270000Y-99840394D01*
X68270000Y-96242119D01*
X75053000Y-96242119D01*
X75053000Y-96797881D01*
X75265680Y-97311337D01*
X75658663Y-97704320D01*
X76172119Y-97917000D01*
X76727881Y-97917000D01*
X77241337Y-97704320D01*
X77634320Y-97311337D01*
X77720000Y-97104487D01*
X77805680Y-97311337D01*
X78198663Y-97704320D01*
X78712119Y-97917000D01*
X79267881Y-97917000D01*
X79781337Y-97704320D01*
X80174320Y-97311337D01*
X80260000Y-97104487D01*
X80345680Y-97311337D01*
X80738663Y-97704320D01*
X81252119Y-97917000D01*
X81807881Y-97917000D01*
X82321337Y-97704320D01*
X82525444Y-97500213D01*
X83269392Y-97500213D01*
X83338857Y-97742397D01*
X83862302Y-97929144D01*
X84417368Y-97901362D01*
X84801143Y-97742397D01*
X84870608Y-97500213D01*
X84070000Y-96699605D01*
X83269392Y-97500213D01*
X82525444Y-97500213D01*
X82714320Y-97311337D01*
X82793428Y-97120353D01*
X82847603Y-97251143D01*
X83089787Y-97320608D01*
X83890395Y-96520000D01*
X84249605Y-96520000D01*
X85050213Y-97320608D01*
X85292397Y-97251143D01*
X85342535Y-97110607D01*
X85425680Y-97311337D01*
X85818663Y-97704320D01*
X86332119Y-97917000D01*
X86887881Y-97917000D01*
X87401337Y-97704320D01*
X87794320Y-97311337D01*
X87880000Y-97104487D01*
X87965680Y-97311337D01*
X88358663Y-97704320D01*
X88872119Y-97917000D01*
X89427881Y-97917000D01*
X89941337Y-97704320D01*
X90334320Y-97311337D01*
X90420000Y-97104487D01*
X90505680Y-97311337D01*
X90898663Y-97704320D01*
X91412119Y-97917000D01*
X91967881Y-97917000D01*
X92481337Y-97704320D01*
X92874320Y-97311337D01*
X92960000Y-97104487D01*
X93045680Y-97311337D01*
X93438663Y-97704320D01*
X93952119Y-97917000D01*
X94507881Y-97917000D01*
X95021337Y-97704320D01*
X95414320Y-97311337D01*
X95500000Y-97104487D01*
X95585680Y-97311337D01*
X95978663Y-97704320D01*
X96492119Y-97917000D01*
X97047881Y-97917000D01*
X97561337Y-97704320D01*
X97954320Y-97311337D01*
X98040000Y-97104487D01*
X98125680Y-97311337D01*
X98518663Y-97704320D01*
X99032119Y-97917000D01*
X99587881Y-97917000D01*
X100101337Y-97704320D01*
X100494320Y-97311337D01*
X100580000Y-97104487D01*
X100665680Y-97311337D01*
X101058663Y-97704320D01*
X101572119Y-97917000D01*
X102127881Y-97917000D01*
X102641337Y-97704320D01*
X103034320Y-97311337D01*
X103120000Y-97104487D01*
X103205680Y-97311337D01*
X103598663Y-97704320D01*
X104112119Y-97917000D01*
X104667881Y-97917000D01*
X105181337Y-97704320D01*
X105574320Y-97311337D01*
X105660000Y-97104487D01*
X105745680Y-97311337D01*
X106138663Y-97704320D01*
X106652119Y-97917000D01*
X106748199Y-97917000D01*
X106111199Y-98554000D01*
X95324846Y-98554000D01*
X95249999Y-98539112D01*
X95175152Y-98554000D01*
X95175148Y-98554000D01*
X94953463Y-98598096D01*
X94702071Y-98766071D01*
X94659671Y-98829527D01*
X93495528Y-99993671D01*
X93432072Y-100036071D01*
X93389672Y-100099527D01*
X93389671Y-100099528D01*
X93320533Y-100203000D01*
X93264097Y-100287463D01*
X93245014Y-100383402D01*
X93205112Y-100584000D01*
X93220001Y-100658852D01*
X93220000Y-102607768D01*
X92894956Y-102824956D01*
X92710000Y-103101763D01*
X92525044Y-102824956D01*
X92027221Y-102492322D01*
X91440000Y-102375516D01*
X90852778Y-102492322D01*
X90365364Y-102818001D01*
X90308327Y-102680301D01*
X90129698Y-102501673D01*
X89896309Y-102405000D01*
X89185750Y-102405000D01*
X89027000Y-102563750D01*
X89027000Y-104013000D01*
X89047000Y-104013000D01*
X89047000Y-104267000D01*
X89027000Y-104267000D01*
X89027000Y-105716250D01*
X89185750Y-105875000D01*
X89896309Y-105875000D01*
X90129698Y-105778327D01*
X90308327Y-105599699D01*
X90365364Y-105461999D01*
X90852779Y-105787678D01*
X91440000Y-105904484D01*
X92027222Y-105787678D01*
X92525044Y-105455044D01*
X92710000Y-105178237D01*
X92894956Y-105455044D01*
X93392779Y-105787678D01*
X93980000Y-105904484D01*
X94567222Y-105787678D01*
X95065044Y-105455044D01*
X95397678Y-104957221D01*
X95485000Y-104518225D01*
X95485000Y-103761774D01*
X95397678Y-103322778D01*
X95065044Y-102824956D01*
X94740000Y-102607769D01*
X94740000Y-102495866D01*
X99165000Y-102495866D01*
X99165000Y-103544134D01*
X99566155Y-104512608D01*
X100307392Y-105253845D01*
X101275866Y-105655000D01*
X102324134Y-105655000D01*
X103292608Y-105253845D01*
X104033845Y-104512608D01*
X104182152Y-104154561D01*
X108710000Y-104154561D01*
X108710000Y-104725439D01*
X108928466Y-105252862D01*
X109332138Y-105656534D01*
X109859561Y-105875000D01*
X110430439Y-105875000D01*
X110957862Y-105656534D01*
X111361534Y-105252862D01*
X111530000Y-104846150D01*
X111698466Y-105252862D01*
X112102138Y-105656534D01*
X112629561Y-105875000D01*
X113200439Y-105875000D01*
X113727862Y-105656534D01*
X114131534Y-105252862D01*
X114300000Y-104846150D01*
X114468466Y-105252862D01*
X114872138Y-105656534D01*
X115399561Y-105875000D01*
X115970439Y-105875000D01*
X116497862Y-105656534D01*
X116901534Y-105252862D01*
X117070000Y-104846150D01*
X117238466Y-105252862D01*
X117642138Y-105656534D01*
X118169561Y-105875000D01*
X118740439Y-105875000D01*
X119267862Y-105656534D01*
X119671534Y-105252862D01*
X119890000Y-104725439D01*
X119890000Y-104154561D01*
X119671534Y-103627138D01*
X119267862Y-103223466D01*
X118740439Y-103005000D01*
X118169561Y-103005000D01*
X117642138Y-103223466D01*
X117238466Y-103627138D01*
X117070000Y-104033850D01*
X116901534Y-103627138D01*
X116497862Y-103223466D01*
X115970439Y-103005000D01*
X115399561Y-103005000D01*
X114872138Y-103223466D01*
X114468466Y-103627138D01*
X114300000Y-104033850D01*
X114131534Y-103627138D01*
X113727862Y-103223466D01*
X113200439Y-103005000D01*
X112629561Y-103005000D01*
X112102138Y-103223466D01*
X111698466Y-103627138D01*
X111530000Y-104033850D01*
X111361534Y-103627138D01*
X110957862Y-103223466D01*
X110430439Y-103005000D01*
X109859561Y-103005000D01*
X109332138Y-103223466D01*
X108928466Y-103627138D01*
X108710000Y-104154561D01*
X104182152Y-104154561D01*
X104435000Y-103544134D01*
X104435000Y-102607745D01*
X107931861Y-102607745D01*
X108005995Y-102853864D01*
X108543223Y-103046965D01*
X109113454Y-103019778D01*
X109514005Y-102853864D01*
X109588139Y-102607745D01*
X108760000Y-101779605D01*
X107931861Y-102607745D01*
X104435000Y-102607745D01*
X104435000Y-102495866D01*
X104033845Y-101527392D01*
X103889676Y-101383223D01*
X107313035Y-101383223D01*
X107340222Y-101953454D01*
X107506136Y-102354005D01*
X107752255Y-102428139D01*
X108580395Y-101600000D01*
X107752255Y-100771861D01*
X107506136Y-100845995D01*
X107313035Y-101383223D01*
X103889676Y-101383223D01*
X103292608Y-100786155D01*
X102824492Y-100592255D01*
X107931861Y-100592255D01*
X108760000Y-101420395D01*
X109588139Y-100592255D01*
X109514005Y-100346136D01*
X108976777Y-100153035D01*
X108406546Y-100180222D01*
X108005995Y-100346136D01*
X107931861Y-100592255D01*
X102824492Y-100592255D01*
X102324134Y-100385000D01*
X101275866Y-100385000D01*
X100307392Y-100786155D01*
X99566155Y-101527392D01*
X99165000Y-102495866D01*
X94740000Y-102495866D01*
X94740000Y-100898801D01*
X95564802Y-100074000D01*
X106351153Y-100074000D01*
X106426000Y-100088888D01*
X106500847Y-100074000D01*
X106500852Y-100074000D01*
X106722537Y-100029904D01*
X106973929Y-99861929D01*
X107016331Y-99798470D01*
X108984005Y-97830797D01*
X109192119Y-97917000D01*
X109747881Y-97917000D01*
X110261337Y-97704320D01*
X110654320Y-97311337D01*
X110740000Y-97104487D01*
X110825680Y-97311337D01*
X111218663Y-97704320D01*
X111732119Y-97917000D01*
X112287881Y-97917000D01*
X112801337Y-97704320D01*
X113194320Y-97311337D01*
X113407000Y-96797881D01*
X113407000Y-96242119D01*
X113194320Y-95728663D01*
X112801337Y-95335680D01*
X112287881Y-95123000D01*
X111732119Y-95123000D01*
X111218663Y-95335680D01*
X110825680Y-95728663D01*
X110740000Y-95935513D01*
X110654320Y-95728663D01*
X110261337Y-95335680D01*
X109747881Y-95123000D01*
X109192119Y-95123000D01*
X108678663Y-95335680D01*
X108285680Y-95728663D01*
X108200000Y-95935513D01*
X108114320Y-95728663D01*
X107721337Y-95335680D01*
X107207881Y-95123000D01*
X106652119Y-95123000D01*
X106138663Y-95335680D01*
X105745680Y-95728663D01*
X105660000Y-95935513D01*
X105574320Y-95728663D01*
X105181337Y-95335680D01*
X104667881Y-95123000D01*
X104112119Y-95123000D01*
X103598663Y-95335680D01*
X103205680Y-95728663D01*
X103120000Y-95935513D01*
X103034320Y-95728663D01*
X102641337Y-95335680D01*
X102127881Y-95123000D01*
X101572119Y-95123000D01*
X101058663Y-95335680D01*
X100665680Y-95728663D01*
X100580000Y-95935513D01*
X100494320Y-95728663D01*
X100101337Y-95335680D01*
X99587881Y-95123000D01*
X99032119Y-95123000D01*
X98518663Y-95335680D01*
X98125680Y-95728663D01*
X98040000Y-95935513D01*
X97954320Y-95728663D01*
X97561337Y-95335680D01*
X97047881Y-95123000D01*
X96492119Y-95123000D01*
X95978663Y-95335680D01*
X95585680Y-95728663D01*
X95500000Y-95935513D01*
X95414320Y-95728663D01*
X95021337Y-95335680D01*
X94507881Y-95123000D01*
X93952119Y-95123000D01*
X93438663Y-95335680D01*
X93045680Y-95728663D01*
X92960000Y-95935513D01*
X92874320Y-95728663D01*
X92481337Y-95335680D01*
X91967881Y-95123000D01*
X91412119Y-95123000D01*
X90898663Y-95335680D01*
X90505680Y-95728663D01*
X90420000Y-95935513D01*
X90334320Y-95728663D01*
X89941337Y-95335680D01*
X89427881Y-95123000D01*
X88872119Y-95123000D01*
X88358663Y-95335680D01*
X87965680Y-95728663D01*
X87880000Y-95935513D01*
X87794320Y-95728663D01*
X87401337Y-95335680D01*
X86887881Y-95123000D01*
X86332119Y-95123000D01*
X85818663Y-95335680D01*
X85425680Y-95728663D01*
X85346572Y-95919647D01*
X85292397Y-95788857D01*
X85050213Y-95719392D01*
X84249605Y-96520000D01*
X83890395Y-96520000D01*
X83089787Y-95719392D01*
X82847603Y-95788857D01*
X82797465Y-95929393D01*
X82714320Y-95728663D01*
X82525444Y-95539787D01*
X83269392Y-95539787D01*
X84070000Y-96340395D01*
X84870608Y-95539787D01*
X84801143Y-95297603D01*
X84277698Y-95110856D01*
X83722632Y-95138638D01*
X83338857Y-95297603D01*
X83269392Y-95539787D01*
X82525444Y-95539787D01*
X82321337Y-95335680D01*
X81807881Y-95123000D01*
X81252119Y-95123000D01*
X80738663Y-95335680D01*
X80345680Y-95728663D01*
X80260000Y-95935513D01*
X80174320Y-95728663D01*
X79781337Y-95335680D01*
X79267881Y-95123000D01*
X78712119Y-95123000D01*
X78198663Y-95335680D01*
X77805680Y-95728663D01*
X77720000Y-95935513D01*
X77634320Y-95728663D01*
X77241337Y-95335680D01*
X76727881Y-95123000D01*
X76172119Y-95123000D01*
X75658663Y-95335680D01*
X75265680Y-95728663D01*
X75053000Y-96242119D01*
X68270000Y-96242119D01*
X68270000Y-93763223D01*
X120473035Y-93763223D01*
X120500222Y-94333454D01*
X120666136Y-94734005D01*
X120912255Y-94808139D01*
X121740395Y-93980000D01*
X122099605Y-93980000D01*
X122927745Y-94808139D01*
X123173864Y-94734005D01*
X123366965Y-94196777D01*
X123339778Y-93626546D01*
X123173864Y-93225995D01*
X122927745Y-93151861D01*
X122099605Y-93980000D01*
X121740395Y-93980000D01*
X120912255Y-93151861D01*
X120666136Y-93225995D01*
X120473035Y-93763223D01*
X68270000Y-93763223D01*
X68270000Y-85519128D01*
X108439000Y-85519128D01*
X108439000Y-85930876D01*
X108596569Y-86311282D01*
X108887720Y-86602433D01*
X109268126Y-86760002D01*
X109679874Y-86760002D01*
X110060280Y-86602433D01*
X110351431Y-86311282D01*
X110509000Y-85930876D01*
X110509000Y-85764803D01*
X110550803Y-85723000D01*
X117019153Y-85723000D01*
X117094000Y-85737888D01*
X117168847Y-85723000D01*
X117168852Y-85723000D01*
X117390537Y-85678904D01*
X117641929Y-85510929D01*
X117684331Y-85447470D01*
X118551802Y-84580000D01*
X120641822Y-84580000D01*
X120849375Y-84890625D01*
X121147761Y-85090000D01*
X120849375Y-85289375D01*
X120521161Y-85780582D01*
X120405908Y-86360000D01*
X120521161Y-86939418D01*
X120849375Y-87430625D01*
X121147761Y-87630000D01*
X120849375Y-87829375D01*
X120521161Y-88320582D01*
X120405908Y-88900000D01*
X120521161Y-89479418D01*
X120849375Y-89970625D01*
X120867619Y-89982816D01*
X120822235Y-89991843D01*
X120612191Y-90132191D01*
X120471843Y-90342235D01*
X120422560Y-90590000D01*
X120422560Y-92290000D01*
X120471843Y-92537765D01*
X120612191Y-92747809D01*
X120822235Y-92888157D01*
X121070000Y-92937440D01*
X121102348Y-92937440D01*
X121091861Y-92972255D01*
X121920000Y-93800395D01*
X122748139Y-92972255D01*
X122737652Y-92937440D01*
X122770000Y-92937440D01*
X123017765Y-92888157D01*
X123227809Y-92747809D01*
X123368157Y-92537765D01*
X123417440Y-92290000D01*
X123417440Y-91223223D01*
X125553035Y-91223223D01*
X125580222Y-91793454D01*
X125746136Y-92194005D01*
X125992255Y-92268139D01*
X126820395Y-91440000D01*
X125992255Y-90611861D01*
X125746136Y-90685995D01*
X125553035Y-91223223D01*
X123417440Y-91223223D01*
X123417440Y-90590000D01*
X123368157Y-90342235D01*
X123227809Y-90132191D01*
X123017765Y-89991843D01*
X122972381Y-89982816D01*
X122990625Y-89970625D01*
X123318839Y-89479418D01*
X123434092Y-88900000D01*
X123361209Y-88533592D01*
X124436473Y-87458329D01*
X124499929Y-87415929D01*
X124667904Y-87164537D01*
X124712000Y-86942852D01*
X124712000Y-86942847D01*
X124726888Y-86868000D01*
X124712000Y-86793153D01*
X124712000Y-85658801D01*
X125770132Y-84600671D01*
X125783466Y-84632862D01*
X126187138Y-85036534D01*
X126316216Y-85090000D01*
X126187138Y-85143466D01*
X125783466Y-85547138D01*
X125565000Y-86074561D01*
X125565000Y-86645439D01*
X125783466Y-87172862D01*
X126187138Y-87576534D01*
X126316216Y-87630000D01*
X126187138Y-87683466D01*
X125783466Y-88087138D01*
X125565000Y-88614561D01*
X125565000Y-89185439D01*
X125783466Y-89712862D01*
X126187138Y-90116534D01*
X126300583Y-90163525D01*
X126245995Y-90186136D01*
X126171861Y-90432255D01*
X127000000Y-91260395D01*
X127014142Y-91246252D01*
X127193748Y-91425858D01*
X127179605Y-91440000D01*
X127193748Y-91454142D01*
X127014142Y-91633748D01*
X127000000Y-91619605D01*
X126171861Y-92447745D01*
X126245995Y-92693864D01*
X126304448Y-92714874D01*
X126187138Y-92763466D01*
X125783466Y-93167138D01*
X125565000Y-93694561D01*
X125565000Y-94265439D01*
X125783466Y-94792862D01*
X126187138Y-95196534D01*
X126714561Y-95415000D01*
X127285439Y-95415000D01*
X127812862Y-95196534D01*
X128018000Y-94991396D01*
X128018000Y-95697198D01*
X126177199Y-97538000D01*
X122891396Y-97538000D01*
X123136534Y-97292862D01*
X123355000Y-96765439D01*
X123355000Y-96194561D01*
X123136534Y-95667138D01*
X122732862Y-95263466D01*
X122667701Y-95236475D01*
X122674005Y-95233864D01*
X122748139Y-94987745D01*
X121920000Y-94159605D01*
X121091861Y-94987745D01*
X121165995Y-95233864D01*
X121172746Y-95236290D01*
X121107138Y-95263466D01*
X120703466Y-95667138D01*
X120485000Y-96194561D01*
X120485000Y-96765439D01*
X120703466Y-97292862D01*
X120948604Y-97538000D01*
X117676846Y-97538000D01*
X117601999Y-97523112D01*
X117527152Y-97538000D01*
X117527148Y-97538000D01*
X117305463Y-97582096D01*
X117054071Y-97750071D01*
X117011671Y-97813527D01*
X114638302Y-100186897D01*
X114585439Y-100165000D01*
X114014561Y-100165000D01*
X113487138Y-100383466D01*
X113083466Y-100787138D01*
X112915000Y-101193850D01*
X112746534Y-100787138D01*
X112342862Y-100383466D01*
X111815439Y-100165000D01*
X111244561Y-100165000D01*
X110717138Y-100383466D01*
X110313466Y-100787138D01*
X110151475Y-101178218D01*
X110013864Y-100845995D01*
X109767745Y-100771861D01*
X108939605Y-101600000D01*
X109767745Y-102428139D01*
X110013864Y-102354005D01*
X110141732Y-101998261D01*
X110313466Y-102412862D01*
X110717138Y-102816534D01*
X111244561Y-103035000D01*
X111815439Y-103035000D01*
X112342862Y-102816534D01*
X112746534Y-102412862D01*
X112915000Y-102006150D01*
X113083466Y-102412862D01*
X113487138Y-102816534D01*
X114014561Y-103035000D01*
X114585439Y-103035000D01*
X115112862Y-102816534D01*
X115516534Y-102412862D01*
X115685000Y-102006150D01*
X115853466Y-102412862D01*
X116257138Y-102816534D01*
X116784561Y-103035000D01*
X117355439Y-103035000D01*
X117882862Y-102816534D01*
X118286534Y-102412862D01*
X118392560Y-102156893D01*
X118392560Y-102400000D01*
X118441843Y-102647765D01*
X118582191Y-102857809D01*
X118792235Y-102998157D01*
X119040000Y-103047440D01*
X120640000Y-103047440D01*
X120887765Y-102998157D01*
X121097809Y-102857809D01*
X121238157Y-102647765D01*
X121268371Y-102495866D01*
X124165000Y-102495866D01*
X124165000Y-103544134D01*
X124566155Y-104512608D01*
X125307392Y-105253845D01*
X126275866Y-105655000D01*
X127324134Y-105655000D01*
X127426327Y-105612670D01*
X141975000Y-105612670D01*
X141975000Y-106223330D01*
X142208690Y-106787507D01*
X142640493Y-107219310D01*
X143204670Y-107453000D01*
X143815330Y-107453000D01*
X144379507Y-107219310D01*
X144555861Y-107042956D01*
X144611673Y-107177699D01*
X144790302Y-107356327D01*
X145023691Y-107453000D01*
X145764250Y-107453000D01*
X145923000Y-107294250D01*
X145923000Y-106045000D01*
X146177000Y-106045000D01*
X146177000Y-107294250D01*
X146335750Y-107453000D01*
X147076309Y-107453000D01*
X147309698Y-107356327D01*
X147488327Y-107177699D01*
X147585000Y-106944310D01*
X147585000Y-106203750D01*
X147426250Y-106045000D01*
X146177000Y-106045000D01*
X145923000Y-106045000D01*
X145903000Y-106045000D01*
X145903000Y-105791000D01*
X145923000Y-105791000D01*
X145923000Y-104541750D01*
X146177000Y-104541750D01*
X146177000Y-105791000D01*
X147426250Y-105791000D01*
X147585000Y-105632250D01*
X147585000Y-104891690D01*
X147488327Y-104658301D01*
X147309698Y-104479673D01*
X147076309Y-104383000D01*
X146335750Y-104383000D01*
X146177000Y-104541750D01*
X145923000Y-104541750D01*
X145764250Y-104383000D01*
X145023691Y-104383000D01*
X144790302Y-104479673D01*
X144611673Y-104658301D01*
X144555861Y-104793044D01*
X144379507Y-104616690D01*
X143815330Y-104383000D01*
X143204670Y-104383000D01*
X142640493Y-104616690D01*
X142208690Y-105048493D01*
X141975000Y-105612670D01*
X127426327Y-105612670D01*
X128292608Y-105253845D01*
X129033845Y-104512608D01*
X129337301Y-103780000D01*
X129696153Y-103780000D01*
X129771000Y-103794888D01*
X129845847Y-103780000D01*
X129845852Y-103780000D01*
X130067537Y-103735904D01*
X130318929Y-103567929D01*
X130361331Y-103504470D01*
X134662698Y-99203104D01*
X134715561Y-99225000D01*
X135286439Y-99225000D01*
X135813862Y-99006534D01*
X136217534Y-98602862D01*
X136436000Y-98075439D01*
X136436000Y-97504561D01*
X137122000Y-97504561D01*
X137122000Y-98075439D01*
X137340466Y-98602862D01*
X137744138Y-99006534D01*
X138271561Y-99225000D01*
X138842439Y-99225000D01*
X139369862Y-99006534D01*
X139400396Y-98976000D01*
X140492560Y-98976000D01*
X140492560Y-101176000D01*
X140541843Y-101423765D01*
X140682191Y-101633809D01*
X140892235Y-101774157D01*
X141140000Y-101823440D01*
X143340000Y-101823440D01*
X143587765Y-101774157D01*
X143797809Y-101633809D01*
X143938157Y-101423765D01*
X143987440Y-101176000D01*
X143987440Y-100472122D01*
X144360825Y-100472122D01*
X144575466Y-100990332D01*
X145037608Y-101485012D01*
X145653877Y-101765183D01*
X145923000Y-101647604D01*
X145923000Y-100203000D01*
X146177000Y-100203000D01*
X146177000Y-101647604D01*
X146446123Y-101765183D01*
X147062392Y-101485012D01*
X147524534Y-100990332D01*
X147739175Y-100472122D01*
X147621125Y-100203000D01*
X146177000Y-100203000D01*
X145923000Y-100203000D01*
X144478875Y-100203000D01*
X144360825Y-100472122D01*
X143987440Y-100472122D01*
X143987440Y-99679878D01*
X144360825Y-99679878D01*
X144478875Y-99949000D01*
X145923000Y-99949000D01*
X145923000Y-98504396D01*
X146177000Y-98504396D01*
X146177000Y-99949000D01*
X147621125Y-99949000D01*
X147739175Y-99679878D01*
X147524534Y-99161668D01*
X147062392Y-98666988D01*
X146446123Y-98386817D01*
X146177000Y-98504396D01*
X145923000Y-98504396D01*
X145653877Y-98386817D01*
X145037608Y-98666988D01*
X144575466Y-99161668D01*
X144360825Y-99679878D01*
X143987440Y-99679878D01*
X143987440Y-98976000D01*
X143938157Y-98728235D01*
X143797809Y-98518191D01*
X143587765Y-98377843D01*
X143340000Y-98328560D01*
X141140000Y-98328560D01*
X140892235Y-98377843D01*
X140682191Y-98518191D01*
X140541843Y-98728235D01*
X140492560Y-98976000D01*
X139400396Y-98976000D01*
X139773534Y-98602862D01*
X139992000Y-98075439D01*
X139992000Y-97504561D01*
X139773534Y-96977138D01*
X139673515Y-96877119D01*
X148113000Y-96877119D01*
X148113000Y-97432881D01*
X148325680Y-97946337D01*
X148718663Y-98339320D01*
X149232119Y-98552000D01*
X149787881Y-98552000D01*
X150301337Y-98339320D01*
X150694320Y-97946337D01*
X150907000Y-97432881D01*
X150907000Y-96877119D01*
X155733000Y-96877119D01*
X155733000Y-97432881D01*
X155945680Y-97946337D01*
X156338663Y-98339320D01*
X156852119Y-98552000D01*
X157407881Y-98552000D01*
X157921337Y-98339320D01*
X158314320Y-97946337D01*
X158527000Y-97432881D01*
X158527000Y-96877119D01*
X158314320Y-96363663D01*
X157921337Y-95970680D01*
X157407881Y-95758000D01*
X156852119Y-95758000D01*
X156338663Y-95970680D01*
X155945680Y-96363663D01*
X155733000Y-96877119D01*
X150907000Y-96877119D01*
X150694320Y-96363663D01*
X150301337Y-95970680D01*
X150110353Y-95891572D01*
X150241143Y-95837397D01*
X150310608Y-95595213D01*
X149510000Y-94794605D01*
X148709392Y-95595213D01*
X148778857Y-95837397D01*
X148919393Y-95887535D01*
X148718663Y-95970680D01*
X148325680Y-96363663D01*
X148113000Y-96877119D01*
X139673515Y-96877119D01*
X139369862Y-96573466D01*
X138842439Y-96355000D01*
X138271561Y-96355000D01*
X137744138Y-96573466D01*
X137340466Y-96977138D01*
X137122000Y-97504561D01*
X136436000Y-97504561D01*
X136217534Y-96977138D01*
X135813862Y-96573466D01*
X135286439Y-96355000D01*
X134715561Y-96355000D01*
X134188138Y-96573466D01*
X133784466Y-96977138D01*
X133566000Y-97504561D01*
X133566000Y-98075439D01*
X133587896Y-98128302D01*
X129456199Y-102260000D01*
X129337301Y-102260000D01*
X129033845Y-101527392D01*
X128292608Y-100786155D01*
X127324134Y-100385000D01*
X126275866Y-100385000D01*
X125307392Y-100786155D01*
X124566155Y-101527392D01*
X124165000Y-102495866D01*
X121268371Y-102495866D01*
X121287440Y-102400000D01*
X121287440Y-100800000D01*
X121238157Y-100552235D01*
X121097809Y-100342191D01*
X120887765Y-100201843D01*
X120640000Y-100152560D01*
X119592242Y-100152560D01*
X119670802Y-100074000D01*
X126671153Y-100074000D01*
X126746000Y-100088888D01*
X126820847Y-100074000D01*
X126820852Y-100074000D01*
X127042537Y-100029904D01*
X127293929Y-99861929D01*
X127336331Y-99798470D01*
X130024473Y-97110329D01*
X130087929Y-97067929D01*
X130148594Y-96977138D01*
X130255904Y-96816538D01*
X130279163Y-96699605D01*
X130300000Y-96594852D01*
X130300000Y-96594848D01*
X130314888Y-96520000D01*
X130300000Y-96445152D01*
X130300000Y-88974846D01*
X130314888Y-88899999D01*
X130300000Y-88825152D01*
X130300000Y-88825148D01*
X130255904Y-88603463D01*
X130130330Y-88415528D01*
X130130329Y-88415526D01*
X130130327Y-88415524D01*
X130087929Y-88352071D01*
X130024476Y-88309673D01*
X128413103Y-86698302D01*
X128435000Y-86645439D01*
X128435000Y-86074561D01*
X128216534Y-85547138D01*
X127812862Y-85143466D01*
X127799971Y-85138126D01*
X128251000Y-85138126D01*
X128251000Y-85549874D01*
X128408569Y-85930280D01*
X128699720Y-86221431D01*
X129080126Y-86379000D01*
X129491874Y-86379000D01*
X129872280Y-86221431D01*
X130163431Y-85930280D01*
X130321000Y-85549874D01*
X130321000Y-85138126D01*
X130163431Y-84757720D01*
X130046000Y-84640289D01*
X130046000Y-81848801D01*
X133185000Y-78709802D01*
X133185000Y-79025439D01*
X133403466Y-79552862D01*
X133807138Y-79956534D01*
X133936216Y-80010000D01*
X133807138Y-80063466D01*
X133403466Y-80467138D01*
X133185000Y-80994561D01*
X133185000Y-81565439D01*
X133403466Y-82092862D01*
X133807138Y-82496534D01*
X133936216Y-82550000D01*
X133807138Y-82603466D01*
X133403466Y-83007138D01*
X133185000Y-83534561D01*
X133185000Y-84105439D01*
X133403466Y-84632862D01*
X133807138Y-85036534D01*
X133936216Y-85090000D01*
X133807138Y-85143466D01*
X133403466Y-85547138D01*
X133185000Y-86074561D01*
X133185000Y-86645439D01*
X133403466Y-87172862D01*
X133807138Y-87576534D01*
X133936216Y-87630000D01*
X133807138Y-87683466D01*
X133403466Y-88087138D01*
X133185000Y-88614561D01*
X133185000Y-89185439D01*
X133403466Y-89712862D01*
X133807138Y-90116534D01*
X133936216Y-90170000D01*
X133807138Y-90223466D01*
X133403466Y-90627138D01*
X133185000Y-91154561D01*
X133185000Y-91725439D01*
X133403466Y-92252862D01*
X133705866Y-92555262D01*
X133572235Y-92581843D01*
X133362191Y-92722191D01*
X133221843Y-92932235D01*
X133172560Y-93180000D01*
X133172560Y-94780000D01*
X133221843Y-95027765D01*
X133362191Y-95237809D01*
X133572235Y-95378157D01*
X133820000Y-95427440D01*
X135420000Y-95427440D01*
X135667765Y-95378157D01*
X135877809Y-95237809D01*
X136018157Y-95027765D01*
X136067440Y-94780000D01*
X136067440Y-94089242D01*
X136823671Y-94845473D01*
X136866071Y-94908929D01*
X137117463Y-95076904D01*
X137339148Y-95121000D01*
X137339152Y-95121000D01*
X137413999Y-95135888D01*
X137488846Y-95121000D01*
X141109153Y-95121000D01*
X141184000Y-95135888D01*
X141258847Y-95121000D01*
X141258852Y-95121000D01*
X141480537Y-95076904D01*
X141613972Y-94987745D01*
X145221861Y-94987745D01*
X145295995Y-95233864D01*
X145833223Y-95426965D01*
X146403454Y-95399778D01*
X146804005Y-95233864D01*
X146878139Y-94987745D01*
X146050000Y-94159605D01*
X145221861Y-94987745D01*
X141613972Y-94987745D01*
X141731929Y-94908929D01*
X141774331Y-94845470D01*
X141901698Y-94718103D01*
X141954561Y-94740000D01*
X142525439Y-94740000D01*
X143052862Y-94521534D01*
X143456534Y-94117862D01*
X143603430Y-93763223D01*
X144603035Y-93763223D01*
X144630222Y-94333454D01*
X144796136Y-94734005D01*
X145042255Y-94808139D01*
X145870395Y-93980000D01*
X146229605Y-93980000D01*
X147057745Y-94808139D01*
X147303864Y-94734005D01*
X147421293Y-94407302D01*
X148100856Y-94407302D01*
X148128638Y-94962368D01*
X148287603Y-95346143D01*
X148529787Y-95415608D01*
X149330395Y-94615000D01*
X149689605Y-94615000D01*
X150490213Y-95415608D01*
X150732397Y-95346143D01*
X150919144Y-94822698D01*
X150891362Y-94267632D01*
X150732397Y-93883857D01*
X150490213Y-93814392D01*
X149689605Y-94615000D01*
X149330395Y-94615000D01*
X148529787Y-93814392D01*
X148287603Y-93883857D01*
X148100856Y-94407302D01*
X147421293Y-94407302D01*
X147496965Y-94196777D01*
X147469778Y-93626546D01*
X147303864Y-93225995D01*
X147057745Y-93151861D01*
X146229605Y-93980000D01*
X145870395Y-93980000D01*
X145042255Y-93151861D01*
X144796136Y-93225995D01*
X144603035Y-93763223D01*
X143603430Y-93763223D01*
X143675000Y-93590439D01*
X143675000Y-93019561D01*
X143456534Y-92492138D01*
X143052862Y-92088466D01*
X142987701Y-92061475D01*
X142994005Y-92058864D01*
X143068139Y-91812745D01*
X142240000Y-90984605D01*
X141411861Y-91812745D01*
X141485995Y-92058864D01*
X141492746Y-92061290D01*
X141427138Y-92088466D01*
X141023466Y-92492138D01*
X140805000Y-93019561D01*
X140805000Y-93590439D01*
X140809375Y-93601000D01*
X139528396Y-93601000D01*
X139646534Y-93482862D01*
X139865000Y-92955439D01*
X139865000Y-92384561D01*
X139646534Y-91857138D01*
X139242862Y-91453466D01*
X139162068Y-91420000D01*
X139242862Y-91386534D01*
X139646534Y-90982862D01*
X139809999Y-90588223D01*
X140793035Y-90588223D01*
X140820222Y-91158454D01*
X140986136Y-91559005D01*
X141232255Y-91633139D01*
X142060395Y-90805000D01*
X142419605Y-90805000D01*
X143247745Y-91633139D01*
X143493864Y-91559005D01*
X143624859Y-91194561D01*
X144615000Y-91194561D01*
X144615000Y-91765439D01*
X144833466Y-92292862D01*
X145237138Y-92696534D01*
X145302299Y-92723525D01*
X145295995Y-92726136D01*
X145221861Y-92972255D01*
X146050000Y-93800395D01*
X146878139Y-92972255D01*
X146804005Y-92726136D01*
X146797254Y-92723710D01*
X146862862Y-92696534D01*
X147266534Y-92292862D01*
X147471877Y-91797119D01*
X148113000Y-91797119D01*
X148113000Y-92352881D01*
X148325680Y-92866337D01*
X148718663Y-93259320D01*
X148909647Y-93338428D01*
X148778857Y-93392603D01*
X148709392Y-93634787D01*
X149510000Y-94435395D01*
X150310608Y-93634787D01*
X150241143Y-93392603D01*
X150100607Y-93342465D01*
X150301337Y-93259320D01*
X150694320Y-92866337D01*
X150907000Y-92352881D01*
X150907000Y-91797119D01*
X155733000Y-91797119D01*
X155733000Y-92352881D01*
X155945680Y-92866337D01*
X156338663Y-93259320D01*
X156852119Y-93472000D01*
X157407881Y-93472000D01*
X157921337Y-93259320D01*
X158314320Y-92866337D01*
X158527000Y-92352881D01*
X158527000Y-91797119D01*
X158314320Y-91283663D01*
X157921337Y-90890680D01*
X157407881Y-90678000D01*
X156852119Y-90678000D01*
X156338663Y-90890680D01*
X155945680Y-91283663D01*
X155733000Y-91797119D01*
X150907000Y-91797119D01*
X150694320Y-91283663D01*
X150301337Y-90890680D01*
X149787881Y-90678000D01*
X149232119Y-90678000D01*
X148718663Y-90890680D01*
X148325680Y-91283663D01*
X148113000Y-91797119D01*
X147471877Y-91797119D01*
X147485000Y-91765439D01*
X147485000Y-91194561D01*
X147266534Y-90667138D01*
X146862862Y-90263466D01*
X146335439Y-90045000D01*
X145764561Y-90045000D01*
X145237138Y-90263466D01*
X144833466Y-90667138D01*
X144615000Y-91194561D01*
X143624859Y-91194561D01*
X143686965Y-91021777D01*
X143659778Y-90451546D01*
X143493864Y-90050995D01*
X143247745Y-89976861D01*
X142419605Y-90805000D01*
X142060395Y-90805000D01*
X141232255Y-89976861D01*
X140986136Y-90050995D01*
X140793035Y-90588223D01*
X139809999Y-90588223D01*
X139865000Y-90455439D01*
X139865000Y-89884561D01*
X139828837Y-89797255D01*
X141411861Y-89797255D01*
X142240000Y-90625395D01*
X143068139Y-89797255D01*
X142994005Y-89551136D01*
X142456777Y-89358035D01*
X141886546Y-89385222D01*
X141485995Y-89551136D01*
X141411861Y-89797255D01*
X139828837Y-89797255D01*
X139646534Y-89357138D01*
X139242862Y-88953466D01*
X138715439Y-88735000D01*
X138144561Y-88735000D01*
X137617138Y-88953466D01*
X137213466Y-89357138D01*
X136995000Y-89884561D01*
X136995000Y-90455439D01*
X137213466Y-90982862D01*
X137617138Y-91386534D01*
X137697932Y-91420000D01*
X137617138Y-91453466D01*
X137213466Y-91857138D01*
X136995000Y-92384561D01*
X136995000Y-92867199D01*
X136476955Y-92349154D01*
X136460905Y-92268464D01*
X136460905Y-92268463D01*
X136335330Y-92080528D01*
X136292930Y-92017072D01*
X136229474Y-91974672D01*
X136033104Y-91778302D01*
X136055000Y-91725439D01*
X136055000Y-91154561D01*
X135836534Y-90627138D01*
X135432862Y-90223466D01*
X135303784Y-90170000D01*
X135432862Y-90116534D01*
X135836534Y-89712862D01*
X136055000Y-89185439D01*
X136055000Y-88614561D01*
X135836534Y-88087138D01*
X135432862Y-87683466D01*
X135303784Y-87630000D01*
X135432862Y-87576534D01*
X135836534Y-87172862D01*
X136055000Y-86645439D01*
X136055000Y-86074561D01*
X135836534Y-85547138D01*
X135432862Y-85143466D01*
X135303784Y-85090000D01*
X135432862Y-85036534D01*
X135836534Y-84632862D01*
X136055000Y-84105439D01*
X136055000Y-83534561D01*
X136995000Y-83534561D01*
X136995000Y-84105439D01*
X137213466Y-84632862D01*
X137617138Y-85036534D01*
X137697932Y-85070000D01*
X137617138Y-85103466D01*
X137213466Y-85507138D01*
X136995000Y-86034561D01*
X136995000Y-86605439D01*
X137213466Y-87132862D01*
X137617138Y-87536534D01*
X138144561Y-87755000D01*
X138715439Y-87755000D01*
X139242862Y-87536534D01*
X139434835Y-87344561D01*
X140805000Y-87344561D01*
X140805000Y-87915439D01*
X141023466Y-88442862D01*
X141427138Y-88846534D01*
X141954561Y-89065000D01*
X142525439Y-89065000D01*
X143052862Y-88846534D01*
X143456534Y-88442862D01*
X143675000Y-87915439D01*
X143675000Y-87344561D01*
X143456534Y-86817138D01*
X143052862Y-86413466D01*
X142525439Y-86195000D01*
X141954561Y-86195000D01*
X141427138Y-86413466D01*
X141023466Y-86817138D01*
X140805000Y-87344561D01*
X139434835Y-87344561D01*
X139646534Y-87132862D01*
X139865000Y-86605439D01*
X139865000Y-86034561D01*
X139646534Y-85507138D01*
X139242862Y-85103466D01*
X139162068Y-85070000D01*
X139242862Y-85036534D01*
X139646534Y-84632862D01*
X139865000Y-84105439D01*
X139865000Y-83534561D01*
X139646534Y-83007138D01*
X139242862Y-82603466D01*
X138715439Y-82385000D01*
X138144561Y-82385000D01*
X137617138Y-82603466D01*
X137213466Y-83007138D01*
X136995000Y-83534561D01*
X136055000Y-83534561D01*
X135836534Y-83007138D01*
X135432862Y-82603466D01*
X135303784Y-82550000D01*
X135432862Y-82496534D01*
X135836534Y-82092862D01*
X136055000Y-81565439D01*
X136055000Y-80994561D01*
X135836534Y-80467138D01*
X135432862Y-80063466D01*
X135303784Y-80010000D01*
X135432862Y-79956534D01*
X135836534Y-79552862D01*
X136055000Y-79025439D01*
X136055000Y-78962561D01*
X136868000Y-78962561D01*
X136868000Y-79533439D01*
X137086466Y-80060862D01*
X137490138Y-80464534D01*
X138017561Y-80683000D01*
X138588439Y-80683000D01*
X139115862Y-80464534D01*
X139519534Y-80060862D01*
X139639547Y-79771123D01*
X144360817Y-79771123D01*
X144640988Y-80387392D01*
X145130706Y-80844898D01*
X144833466Y-81142138D01*
X144615000Y-81669561D01*
X144615000Y-82240439D01*
X144833466Y-82767862D01*
X145237138Y-83171534D01*
X145317932Y-83205000D01*
X145237138Y-83238466D01*
X144833466Y-83642138D01*
X144615000Y-84169561D01*
X144615000Y-84740439D01*
X144833466Y-85267862D01*
X145237138Y-85671534D01*
X145764561Y-85890000D01*
X146335439Y-85890000D01*
X146862862Y-85671534D01*
X147266534Y-85267862D01*
X147288430Y-85215000D01*
X148262700Y-85215000D01*
X148275680Y-85246337D01*
X148668663Y-85639320D01*
X149182119Y-85852000D01*
X149737881Y-85852000D01*
X150251337Y-85639320D01*
X150443538Y-85447119D01*
X155683000Y-85447119D01*
X155683000Y-86002881D01*
X155895680Y-86516337D01*
X156288663Y-86909320D01*
X156802119Y-87122000D01*
X157357881Y-87122000D01*
X157871337Y-86909320D01*
X158264320Y-86516337D01*
X158477000Y-86002881D01*
X158477000Y-85447119D01*
X158264320Y-84933663D01*
X157871337Y-84540680D01*
X157357881Y-84328000D01*
X156802119Y-84328000D01*
X156288663Y-84540680D01*
X155895680Y-84933663D01*
X155683000Y-85447119D01*
X150443538Y-85447119D01*
X150644320Y-85246337D01*
X150857000Y-84732881D01*
X150857000Y-84177119D01*
X150644320Y-83663663D01*
X150251337Y-83270680D01*
X150044487Y-83185000D01*
X150251337Y-83099320D01*
X150644320Y-82706337D01*
X150857000Y-82192881D01*
X150857000Y-81637119D01*
X150644320Y-81123663D01*
X150251337Y-80730680D01*
X149737881Y-80518000D01*
X149182119Y-80518000D01*
X148668663Y-80730680D01*
X148275680Y-81123663D01*
X148063000Y-81637119D01*
X148063000Y-82192881D01*
X148275680Y-82706337D01*
X148668663Y-83099320D01*
X148875513Y-83185000D01*
X148668663Y-83270680D01*
X148275680Y-83663663D01*
X148262700Y-83695000D01*
X147288430Y-83695000D01*
X147266534Y-83642138D01*
X146862862Y-83238466D01*
X146782068Y-83205000D01*
X146862862Y-83171534D01*
X147266534Y-82767862D01*
X147485000Y-82240439D01*
X147485000Y-81669561D01*
X147266534Y-81142138D01*
X146969294Y-80844898D01*
X147459012Y-80387392D01*
X147468228Y-80367119D01*
X155683000Y-80367119D01*
X155683000Y-80922881D01*
X155895680Y-81436337D01*
X156288663Y-81829320D01*
X156802119Y-82042000D01*
X157357881Y-82042000D01*
X157871337Y-81829320D01*
X158264320Y-81436337D01*
X158477000Y-80922881D01*
X158477000Y-80367119D01*
X158264320Y-79853663D01*
X157871337Y-79460680D01*
X157357881Y-79248000D01*
X156802119Y-79248000D01*
X156288663Y-79460680D01*
X155895680Y-79853663D01*
X155683000Y-80367119D01*
X147468228Y-80367119D01*
X147739183Y-79771123D01*
X147621604Y-79502000D01*
X146177000Y-79502000D01*
X146177000Y-79522000D01*
X145923000Y-79522000D01*
X145923000Y-79502000D01*
X144478396Y-79502000D01*
X144360817Y-79771123D01*
X139639547Y-79771123D01*
X139738000Y-79533439D01*
X139738000Y-78978877D01*
X144360817Y-78978877D01*
X144478396Y-79248000D01*
X145923000Y-79248000D01*
X145923000Y-77803875D01*
X146177000Y-77803875D01*
X146177000Y-79248000D01*
X147621604Y-79248000D01*
X147739183Y-78978877D01*
X147459012Y-78362608D01*
X146964332Y-77900466D01*
X146446122Y-77685825D01*
X146177000Y-77803875D01*
X145923000Y-77803875D01*
X145653878Y-77685825D01*
X145135668Y-77900466D01*
X144640988Y-78362608D01*
X144360817Y-78978877D01*
X139738000Y-78978877D01*
X139738000Y-78962561D01*
X139519534Y-78435138D01*
X139115862Y-78031466D01*
X139050701Y-78004475D01*
X139057005Y-78001864D01*
X139131139Y-77755745D01*
X138303000Y-76927605D01*
X137474861Y-77755745D01*
X137548995Y-78001864D01*
X137555746Y-78004290D01*
X137490138Y-78031466D01*
X137086466Y-78435138D01*
X136868000Y-78962561D01*
X136055000Y-78962561D01*
X136055000Y-78454561D01*
X135836534Y-77927138D01*
X135432862Y-77523466D01*
X135303784Y-77470000D01*
X135432862Y-77416534D01*
X135836534Y-77012862D01*
X136036035Y-76531223D01*
X136856035Y-76531223D01*
X136883222Y-77101454D01*
X137049136Y-77502005D01*
X137295255Y-77576139D01*
X138123395Y-76748000D01*
X138482605Y-76748000D01*
X139310745Y-77576139D01*
X139556864Y-77502005D01*
X139568367Y-77470000D01*
X140776887Y-77470000D01*
X140888260Y-78029909D01*
X141205423Y-78504577D01*
X141680091Y-78821740D01*
X142098667Y-78905000D01*
X142381333Y-78905000D01*
X142799909Y-78821740D01*
X143274577Y-78504577D01*
X143591740Y-78029909D01*
X143703113Y-77470000D01*
X143591740Y-76910091D01*
X143274577Y-76435423D01*
X142799909Y-76118260D01*
X142381333Y-76035000D01*
X142098667Y-76035000D01*
X141680091Y-76118260D01*
X141205423Y-76435423D01*
X140888260Y-76910091D01*
X140776887Y-77470000D01*
X139568367Y-77470000D01*
X139749965Y-76964777D01*
X139722778Y-76394546D01*
X139556864Y-75993995D01*
X139310745Y-75919861D01*
X138482605Y-76748000D01*
X138123395Y-76748000D01*
X137295255Y-75919861D01*
X137049136Y-75993995D01*
X136856035Y-76531223D01*
X136036035Y-76531223D01*
X136055000Y-76485439D01*
X136055000Y-75914561D01*
X135982801Y-75740255D01*
X137474861Y-75740255D01*
X138303000Y-76568395D01*
X139131139Y-75740255D01*
X139057005Y-75494136D01*
X138519777Y-75301035D01*
X137949546Y-75328222D01*
X137548995Y-75494136D01*
X137474861Y-75740255D01*
X135982801Y-75740255D01*
X135836534Y-75387138D01*
X135432862Y-74983466D01*
X134905439Y-74765000D01*
X134334561Y-74765000D01*
X133807138Y-74983466D01*
X133403466Y-75387138D01*
X133185000Y-75914561D01*
X133185000Y-76485439D01*
X133206896Y-76538302D01*
X128801530Y-80943669D01*
X128738071Y-80986071D01*
X128570096Y-81237464D01*
X128526000Y-81459149D01*
X128526000Y-81459153D01*
X128511112Y-81534000D01*
X128526000Y-81608847D01*
X128526001Y-84640288D01*
X128408569Y-84757720D01*
X128251000Y-85138126D01*
X127799971Y-85138126D01*
X127683784Y-85090000D01*
X127812862Y-85036534D01*
X128216534Y-84632862D01*
X128435000Y-84105439D01*
X128435000Y-83534561D01*
X128216534Y-83007138D01*
X127812862Y-82603466D01*
X127683784Y-82550000D01*
X127812862Y-82496534D01*
X128216534Y-82092862D01*
X128435000Y-81565439D01*
X128435000Y-80994561D01*
X128216534Y-80467138D01*
X127812862Y-80063466D01*
X127683784Y-80010000D01*
X127812862Y-79956534D01*
X128216534Y-79552862D01*
X128435000Y-79025439D01*
X128435000Y-78454561D01*
X128216534Y-77927138D01*
X127812862Y-77523466D01*
X127683784Y-77470000D01*
X127812862Y-77416534D01*
X128216534Y-77012862D01*
X128435000Y-76485439D01*
X128435000Y-75914561D01*
X128350682Y-75711000D01*
X128672197Y-75711000D01*
X129052603Y-75553431D01*
X129343754Y-75262280D01*
X129501323Y-74881874D01*
X129501323Y-74470126D01*
X129499200Y-74465000D01*
X144302560Y-74465000D01*
X144302560Y-76665000D01*
X144351843Y-76912765D01*
X144492191Y-77122809D01*
X144702235Y-77263157D01*
X144950000Y-77312440D01*
X147150000Y-77312440D01*
X147397765Y-77263157D01*
X147607809Y-77122809D01*
X147748157Y-76912765D01*
X147797440Y-76665000D01*
X147797440Y-74465000D01*
X147748157Y-74217235D01*
X147607809Y-74007191D01*
X147397765Y-73866843D01*
X147150000Y-73817560D01*
X144950000Y-73817560D01*
X144702235Y-73866843D01*
X144492191Y-74007191D01*
X144351843Y-74217235D01*
X144302560Y-74465000D01*
X129499200Y-74465000D01*
X129343754Y-74089720D01*
X129052603Y-73798569D01*
X128672197Y-73641000D01*
X128260449Y-73641000D01*
X127880043Y-73798569D01*
X127762612Y-73916000D01*
X124153846Y-73916000D01*
X124078999Y-73901112D01*
X124004152Y-73916000D01*
X124004148Y-73916000D01*
X123782463Y-73960096D01*
X123782461Y-73960097D01*
X123782462Y-73960097D01*
X123594526Y-74085671D01*
X123594524Y-74085673D01*
X123531071Y-74128071D01*
X123488673Y-74191524D01*
X122240199Y-75440000D01*
X120089844Y-75440000D01*
X120014997Y-75425112D01*
X119940150Y-75440000D01*
X119940146Y-75440000D01*
X119718461Y-75484096D01*
X119703435Y-75494136D01*
X119530524Y-75609671D01*
X119530522Y-75609673D01*
X119467069Y-75652071D01*
X119424671Y-75715524D01*
X117562199Y-77577998D01*
X117396126Y-77577998D01*
X117015720Y-77735567D01*
X116724569Y-78026718D01*
X116567000Y-78407124D01*
X116567000Y-78818872D01*
X116724569Y-79199278D01*
X117015720Y-79490429D01*
X117396126Y-79647998D01*
X117807874Y-79647998D01*
X118188280Y-79490429D01*
X118479431Y-79199278D01*
X118637000Y-78818872D01*
X118637000Y-78652799D01*
X120329801Y-76960000D01*
X122480153Y-76960000D01*
X122555000Y-76974888D01*
X122629847Y-76960000D01*
X122629852Y-76960000D01*
X122851537Y-76915904D01*
X123102929Y-76747929D01*
X123145331Y-76684470D01*
X124393803Y-75436000D01*
X125763227Y-75436000D01*
X125565000Y-75914561D01*
X125565000Y-76485439D01*
X125783466Y-77012862D01*
X126187138Y-77416534D01*
X126316216Y-77470000D01*
X126187138Y-77523466D01*
X125783466Y-77927138D01*
X125565000Y-78454561D01*
X125565000Y-79025439D01*
X125783466Y-79552862D01*
X126187138Y-79956534D01*
X126316216Y-80010000D01*
X126187138Y-80063466D01*
X125783466Y-80467138D01*
X125565000Y-80994561D01*
X125565000Y-81565439D01*
X125783466Y-82092862D01*
X126187138Y-82496534D01*
X126316216Y-82550000D01*
X126187138Y-82603466D01*
X125783466Y-83007138D01*
X125761570Y-83060000D01*
X125550846Y-83060000D01*
X125475999Y-83045112D01*
X125401152Y-83060000D01*
X125401148Y-83060000D01*
X125179463Y-83104096D01*
X125179461Y-83104097D01*
X125179462Y-83104097D01*
X124991526Y-83229671D01*
X124991524Y-83229673D01*
X124928071Y-83272071D01*
X124885673Y-83335524D01*
X123467530Y-84753669D01*
X123404071Y-84796071D01*
X123236096Y-85047464D01*
X123192000Y-85269149D01*
X123192000Y-85269153D01*
X123177112Y-85344000D01*
X123192000Y-85418847D01*
X123192000Y-85590754D01*
X122990625Y-85289375D01*
X122692239Y-85090000D01*
X122990625Y-84890625D01*
X123318839Y-84399418D01*
X123434092Y-83820000D01*
X123318839Y-83240582D01*
X122990625Y-82749375D01*
X122692239Y-82550000D01*
X122990625Y-82350625D01*
X123318839Y-81859418D01*
X123434092Y-81280000D01*
X123318839Y-80700582D01*
X122990625Y-80209375D01*
X122972381Y-80197184D01*
X123017765Y-80188157D01*
X123227809Y-80047809D01*
X123368157Y-79837765D01*
X123417440Y-79590000D01*
X123417440Y-77890000D01*
X123368157Y-77642235D01*
X123227809Y-77432191D01*
X123017765Y-77291843D01*
X122770000Y-77242560D01*
X121070000Y-77242560D01*
X120822235Y-77291843D01*
X120612191Y-77432191D01*
X120471843Y-77642235D01*
X120422560Y-77890000D01*
X120422560Y-79590000D01*
X120471843Y-79837765D01*
X120612191Y-80047809D01*
X120822235Y-80188157D01*
X120867619Y-80197184D01*
X120849375Y-80209375D01*
X120521161Y-80700582D01*
X120405908Y-81280000D01*
X120521161Y-81859418D01*
X120849375Y-82350625D01*
X121147761Y-82550000D01*
X120849375Y-82749375D01*
X120641822Y-83060000D01*
X118311846Y-83060000D01*
X118236999Y-83045112D01*
X118162152Y-83060000D01*
X118162148Y-83060000D01*
X117940463Y-83104096D01*
X117689071Y-83272071D01*
X117646672Y-83335526D01*
X116779199Y-84203000D01*
X110310850Y-84203000D01*
X110236002Y-84188112D01*
X110161154Y-84203000D01*
X110161150Y-84203000D01*
X109939465Y-84247096D01*
X109688073Y-84415071D01*
X109645671Y-84478530D01*
X109434199Y-84690002D01*
X109268126Y-84690002D01*
X108887720Y-84847571D01*
X108596569Y-85138722D01*
X108439000Y-85519128D01*
X68270000Y-85519128D01*
X68270000Y-81002119D01*
X75053000Y-81002119D01*
X75053000Y-81557881D01*
X75265680Y-82071337D01*
X75658663Y-82464320D01*
X76172119Y-82677000D01*
X76727881Y-82677000D01*
X77241337Y-82464320D01*
X77445444Y-82260213D01*
X78189392Y-82260213D01*
X78258857Y-82502397D01*
X78782302Y-82689144D01*
X79337368Y-82661362D01*
X79721143Y-82502397D01*
X79790608Y-82260213D01*
X78990000Y-81459605D01*
X78189392Y-82260213D01*
X77445444Y-82260213D01*
X77634320Y-82071337D01*
X77713428Y-81880353D01*
X77767603Y-82011143D01*
X78009787Y-82080608D01*
X78810395Y-81280000D01*
X79169605Y-81280000D01*
X79970213Y-82080608D01*
X80212397Y-82011143D01*
X80262535Y-81870607D01*
X80345680Y-82071337D01*
X80738663Y-82464320D01*
X81252119Y-82677000D01*
X81807881Y-82677000D01*
X82321337Y-82464320D01*
X82714320Y-82071337D01*
X82800000Y-81864487D01*
X82885680Y-82071337D01*
X83278663Y-82464320D01*
X83792119Y-82677000D01*
X84347881Y-82677000D01*
X84861337Y-82464320D01*
X85254320Y-82071337D01*
X85340000Y-81864487D01*
X85425680Y-82071337D01*
X85600001Y-82245658D01*
X85600001Y-82282779D01*
X85585112Y-82357630D01*
X85644097Y-82654167D01*
X85720066Y-82767862D01*
X85812072Y-82905559D01*
X85875528Y-82947959D01*
X87232043Y-84304476D01*
X87274441Y-84367929D01*
X87337894Y-84410327D01*
X87337896Y-84410329D01*
X87422066Y-84466569D01*
X87525833Y-84535904D01*
X87747518Y-84580000D01*
X87747522Y-84580000D01*
X87822369Y-84594888D01*
X87897216Y-84580000D01*
X90736289Y-84580000D01*
X90853720Y-84697431D01*
X91234126Y-84855000D01*
X91645874Y-84855000D01*
X92026280Y-84697431D01*
X92317431Y-84406280D01*
X92475000Y-84025874D01*
X92475000Y-83614126D01*
X92317431Y-83233720D01*
X92026280Y-82942569D01*
X91645874Y-82785000D01*
X91234126Y-82785000D01*
X90853720Y-82942569D01*
X90736289Y-83060000D01*
X88137173Y-83060000D01*
X87471414Y-82394243D01*
X87794320Y-82071337D01*
X87880000Y-81864487D01*
X87965680Y-82071337D01*
X88358663Y-82464320D01*
X88872119Y-82677000D01*
X89427881Y-82677000D01*
X89941337Y-82464320D01*
X90334320Y-82071337D01*
X90420000Y-81864487D01*
X90505680Y-82071337D01*
X90898663Y-82464320D01*
X91412119Y-82677000D01*
X91967881Y-82677000D01*
X92481337Y-82464320D01*
X92874320Y-82071337D01*
X92960000Y-81864487D01*
X93045680Y-82071337D01*
X93438663Y-82464320D01*
X93952119Y-82677000D01*
X94507881Y-82677000D01*
X95021337Y-82464320D01*
X95414320Y-82071337D01*
X95500000Y-81864487D01*
X95585680Y-82071337D01*
X95978663Y-82464320D01*
X96492119Y-82677000D01*
X97047881Y-82677000D01*
X97561337Y-82464320D01*
X97954320Y-82071337D01*
X98040000Y-81864487D01*
X98125680Y-82071337D01*
X98518663Y-82464320D01*
X99032119Y-82677000D01*
X99587881Y-82677000D01*
X100101337Y-82464320D01*
X100494320Y-82071337D01*
X100580000Y-81864487D01*
X100665680Y-82071337D01*
X101058663Y-82464320D01*
X101572119Y-82677000D01*
X102127881Y-82677000D01*
X102641337Y-82464320D01*
X103034320Y-82071337D01*
X103120000Y-81864487D01*
X103205680Y-82071337D01*
X103598663Y-82464320D01*
X104112119Y-82677000D01*
X104462198Y-82677000D01*
X105200671Y-83415473D01*
X105243071Y-83478929D01*
X105494463Y-83646904D01*
X105716148Y-83691000D01*
X105716152Y-83691000D01*
X105791000Y-83705888D01*
X105865848Y-83691000D01*
X113281371Y-83691000D01*
X113356218Y-83705888D01*
X113431065Y-83691000D01*
X113431070Y-83691000D01*
X113652755Y-83646904D01*
X113904147Y-83478929D01*
X113946549Y-83415470D01*
X115719010Y-81643010D01*
X115885082Y-81643010D01*
X116265488Y-81485441D01*
X116556639Y-81194290D01*
X116714208Y-80813884D01*
X116714208Y-80402136D01*
X116556639Y-80021730D01*
X116265488Y-79730579D01*
X115885082Y-79573010D01*
X115473334Y-79573010D01*
X115092928Y-79730579D01*
X114801777Y-80021730D01*
X114644208Y-80402136D01*
X114644208Y-80568208D01*
X113231966Y-81980450D01*
X113407000Y-81557881D01*
X113407000Y-81002119D01*
X113194320Y-80488663D01*
X112801337Y-80095680D01*
X112287881Y-79883000D01*
X111732119Y-79883000D01*
X111218663Y-80095680D01*
X110825680Y-80488663D01*
X110740000Y-80695513D01*
X110654320Y-80488663D01*
X110261337Y-80095680D01*
X109747881Y-79883000D01*
X109192119Y-79883000D01*
X108678663Y-80095680D01*
X108285680Y-80488663D01*
X108200000Y-80695513D01*
X108114320Y-80488663D01*
X107721337Y-80095680D01*
X107207881Y-79883000D01*
X106652119Y-79883000D01*
X106138663Y-80095680D01*
X105745680Y-80488663D01*
X105660000Y-80695513D01*
X105574320Y-80488663D01*
X105181337Y-80095680D01*
X104667881Y-79883000D01*
X104112119Y-79883000D01*
X103598663Y-80095680D01*
X103205680Y-80488663D01*
X103120000Y-80695513D01*
X103034320Y-80488663D01*
X102641337Y-80095680D01*
X102369537Y-79983097D01*
X102360000Y-79935152D01*
X102360000Y-79935148D01*
X102315904Y-79713463D01*
X102315904Y-79713462D01*
X102190329Y-79525527D01*
X102147929Y-79462071D01*
X102084473Y-79419671D01*
X99203103Y-76538302D01*
X99225000Y-76485439D01*
X99225000Y-75937745D01*
X101406861Y-75937745D01*
X101480995Y-76183864D01*
X102018223Y-76376965D01*
X102588454Y-76349778D01*
X102989005Y-76183864D01*
X103063139Y-75937745D01*
X102235000Y-75109605D01*
X101406861Y-75937745D01*
X99225000Y-75937745D01*
X99225000Y-75914561D01*
X99006534Y-75387138D01*
X98602862Y-74983466D01*
X98075439Y-74765000D01*
X97504561Y-74765000D01*
X96977138Y-74983466D01*
X96573466Y-75387138D01*
X96355000Y-75914561D01*
X96355000Y-76485439D01*
X96573466Y-77012862D01*
X96977138Y-77416534D01*
X97504561Y-77635000D01*
X98075439Y-77635000D01*
X98128302Y-77613103D01*
X100834771Y-80319572D01*
X100665680Y-80488663D01*
X100580000Y-80695513D01*
X100494320Y-80488663D01*
X100101337Y-80095680D01*
X99587881Y-79883000D01*
X99032119Y-79883000D01*
X98518663Y-80095680D01*
X98125680Y-80488663D01*
X98040000Y-80695513D01*
X97954320Y-80488663D01*
X97561337Y-80095680D01*
X97047881Y-79883000D01*
X96492119Y-79883000D01*
X95978663Y-80095680D01*
X95585680Y-80488663D01*
X95500000Y-80695513D01*
X95414320Y-80488663D01*
X95021337Y-80095680D01*
X94507881Y-79883000D01*
X93952119Y-79883000D01*
X93438663Y-80095680D01*
X93045680Y-80488663D01*
X92960000Y-80695513D01*
X92874320Y-80488663D01*
X92481337Y-80095680D01*
X91967881Y-79883000D01*
X91412119Y-79883000D01*
X90898663Y-80095680D01*
X90505680Y-80488663D01*
X90420000Y-80695513D01*
X90334320Y-80488663D01*
X89941337Y-80095680D01*
X89427881Y-79883000D01*
X88872119Y-79883000D01*
X88358663Y-80095680D01*
X87965680Y-80488663D01*
X87880000Y-80695513D01*
X87794320Y-80488663D01*
X87401337Y-80095680D01*
X86887881Y-79883000D01*
X86332119Y-79883000D01*
X85818663Y-80095680D01*
X85425680Y-80488663D01*
X85340000Y-80695513D01*
X85254320Y-80488663D01*
X84861337Y-80095680D01*
X84347881Y-79883000D01*
X83792119Y-79883000D01*
X83278663Y-80095680D01*
X82885680Y-80488663D01*
X82800000Y-80695513D01*
X82714320Y-80488663D01*
X82321337Y-80095680D01*
X81807881Y-79883000D01*
X81252119Y-79883000D01*
X80738663Y-80095680D01*
X80345680Y-80488663D01*
X80266572Y-80679647D01*
X80212397Y-80548857D01*
X79970213Y-80479392D01*
X79169605Y-81280000D01*
X78810395Y-81280000D01*
X78009787Y-80479392D01*
X77767603Y-80548857D01*
X77717465Y-80689393D01*
X77634320Y-80488663D01*
X77445444Y-80299787D01*
X78189392Y-80299787D01*
X78990000Y-81100395D01*
X79790608Y-80299787D01*
X79721143Y-80057603D01*
X79197698Y-79870856D01*
X78642632Y-79898638D01*
X78258857Y-80057603D01*
X78189392Y-80299787D01*
X77445444Y-80299787D01*
X77241337Y-80095680D01*
X76727881Y-79883000D01*
X76172119Y-79883000D01*
X75658663Y-80095680D01*
X75265680Y-80488663D01*
X75053000Y-81002119D01*
X68270000Y-81002119D01*
X68270000Y-78604745D01*
X79689861Y-78604745D01*
X79763995Y-78850864D01*
X80301223Y-79043965D01*
X80871454Y-79016778D01*
X81272005Y-78850864D01*
X81346139Y-78604745D01*
X80518000Y-77776605D01*
X79689861Y-78604745D01*
X68270000Y-78604745D01*
X68270000Y-77959606D01*
X68632606Y-77597000D01*
X77470000Y-77597000D01*
X77518601Y-77587333D01*
X77559803Y-77559803D01*
X77739383Y-77380223D01*
X79071035Y-77380223D01*
X79098222Y-77950454D01*
X79264136Y-78351005D01*
X79510255Y-78425139D01*
X80338395Y-77597000D01*
X80697605Y-77597000D01*
X81525745Y-78425139D01*
X81771864Y-78351005D01*
X81774290Y-78344254D01*
X81801466Y-78409862D01*
X82205138Y-78813534D01*
X82732561Y-79032000D01*
X83303439Y-79032000D01*
X83830862Y-78813534D01*
X84234534Y-78409862D01*
X84453000Y-77882439D01*
X84453000Y-77311561D01*
X84234534Y-76784138D01*
X83830862Y-76380466D01*
X83303439Y-76162000D01*
X82732561Y-76162000D01*
X82205138Y-76380466D01*
X81801466Y-76784138D01*
X81774475Y-76849299D01*
X81771864Y-76842995D01*
X81525745Y-76768861D01*
X80697605Y-77597000D01*
X80338395Y-77597000D01*
X79510255Y-76768861D01*
X79264136Y-76842995D01*
X79071035Y-77380223D01*
X77739383Y-77380223D01*
X78194803Y-76924803D01*
X78222333Y-76883601D01*
X78232000Y-76835000D01*
X78232000Y-76589255D01*
X79689861Y-76589255D01*
X80518000Y-77417395D01*
X81346139Y-76589255D01*
X81272005Y-76343136D01*
X80734777Y-76150035D01*
X80164546Y-76177222D01*
X79763995Y-76343136D01*
X79689861Y-76589255D01*
X78232000Y-76589255D01*
X78232000Y-75565000D01*
X84896887Y-75565000D01*
X85008260Y-76124909D01*
X85325423Y-76599577D01*
X85800091Y-76916740D01*
X86218667Y-77000000D01*
X86501333Y-77000000D01*
X86919909Y-76916740D01*
X87394577Y-76599577D01*
X87711740Y-76124909D01*
X87823113Y-75565000D01*
X87711740Y-75005091D01*
X87551317Y-74765000D01*
X92532560Y-74765000D01*
X92532560Y-76365000D01*
X92581843Y-76612765D01*
X92722191Y-76822809D01*
X92932235Y-76963157D01*
X93180000Y-77012440D01*
X94780000Y-77012440D01*
X95027765Y-76963157D01*
X95237809Y-76822809D01*
X95378157Y-76612765D01*
X95427440Y-76365000D01*
X95427440Y-74765000D01*
X95417142Y-74713223D01*
X100788035Y-74713223D01*
X100815222Y-75283454D01*
X100981136Y-75684005D01*
X101227255Y-75758139D01*
X102055395Y-74930000D01*
X102414605Y-74930000D01*
X103242745Y-75758139D01*
X103488864Y-75684005D01*
X103511280Y-75621641D01*
X103740423Y-75964577D01*
X104215091Y-76281740D01*
X104633667Y-76365000D01*
X104916333Y-76365000D01*
X105334909Y-76281740D01*
X105385215Y-76248126D01*
X106280000Y-76248126D01*
X106280000Y-76659874D01*
X106437569Y-77040280D01*
X106728720Y-77331431D01*
X107109126Y-77489000D01*
X107275199Y-77489000D01*
X107887243Y-78101046D01*
X107834569Y-78153720D01*
X107677000Y-78534126D01*
X107677000Y-78945874D01*
X107834569Y-79326280D01*
X108125720Y-79617431D01*
X108506126Y-79775000D01*
X108917874Y-79775000D01*
X109298280Y-79617431D01*
X109415711Y-79500000D01*
X112961289Y-79500000D01*
X113078720Y-79617431D01*
X113459126Y-79775000D01*
X113870874Y-79775000D01*
X114251280Y-79617431D01*
X114542431Y-79326280D01*
X114700000Y-78945874D01*
X114700000Y-78534126D01*
X114542431Y-78153720D01*
X114251280Y-77862569D01*
X113870874Y-77705000D01*
X113459126Y-77705000D01*
X113078720Y-77862569D01*
X112961289Y-77980000D01*
X112795000Y-77980000D01*
X112795000Y-77645126D01*
X112637431Y-77264720D01*
X112346280Y-76973569D01*
X111965874Y-76816000D01*
X111554126Y-76816000D01*
X111173720Y-76973569D01*
X111056289Y-77091000D01*
X109026803Y-77091000D01*
X108350000Y-76414199D01*
X108350000Y-76248126D01*
X108192431Y-75867720D01*
X107901280Y-75576569D01*
X107520874Y-75419000D01*
X107109126Y-75419000D01*
X106728720Y-75576569D01*
X106437569Y-75867720D01*
X106280000Y-76248126D01*
X105385215Y-76248126D01*
X105809577Y-75964577D01*
X106126740Y-75489909D01*
X106228540Y-74978126D01*
X109455000Y-74978126D01*
X109455000Y-75389874D01*
X109612569Y-75770280D01*
X109903720Y-76061431D01*
X110284126Y-76219000D01*
X110695874Y-76219000D01*
X111076280Y-76061431D01*
X111193711Y-75944000D01*
X113572289Y-75944000D01*
X113689720Y-76061431D01*
X114070126Y-76219000D01*
X114481874Y-76219000D01*
X114862280Y-76061431D01*
X115153431Y-75770280D01*
X115311000Y-75389874D01*
X115311000Y-74978126D01*
X115153431Y-74597720D01*
X114862280Y-74306569D01*
X114481874Y-74149000D01*
X114070126Y-74149000D01*
X113689720Y-74306569D01*
X113572289Y-74424000D01*
X111193711Y-74424000D01*
X111076280Y-74306569D01*
X110695874Y-74149000D01*
X110284126Y-74149000D01*
X109903720Y-74306569D01*
X109612569Y-74597720D01*
X109455000Y-74978126D01*
X106228540Y-74978126D01*
X106238113Y-74930000D01*
X106126740Y-74370091D01*
X105809577Y-73895423D01*
X105334909Y-73578260D01*
X104916333Y-73495000D01*
X104633667Y-73495000D01*
X104215091Y-73578260D01*
X103740423Y-73895423D01*
X103513389Y-74235203D01*
X103488864Y-74175995D01*
X103242745Y-74101861D01*
X102414605Y-74930000D01*
X102055395Y-74930000D01*
X101227255Y-74101861D01*
X100981136Y-74175995D01*
X100788035Y-74713223D01*
X95417142Y-74713223D01*
X95378157Y-74517235D01*
X95237809Y-74307191D01*
X95027765Y-74166843D01*
X94780000Y-74117560D01*
X93180000Y-74117560D01*
X92932235Y-74166843D01*
X92722191Y-74307191D01*
X92581843Y-74517235D01*
X92532560Y-74765000D01*
X87551317Y-74765000D01*
X87394577Y-74530423D01*
X86919909Y-74213260D01*
X86501333Y-74130000D01*
X86218667Y-74130000D01*
X85800091Y-74213260D01*
X85325423Y-74530423D01*
X85008260Y-75005091D01*
X84896887Y-75565000D01*
X78232000Y-75565000D01*
X78232000Y-71120000D01*
X80150516Y-71120000D01*
X80267322Y-71707222D01*
X80599956Y-72205044D01*
X80665122Y-72248587D01*
X80430414Y-72405414D01*
X80235873Y-72696564D01*
X80167560Y-73039999D01*
X80167560Y-74280001D01*
X80235873Y-74623436D01*
X80430414Y-74914586D01*
X80721564Y-75109127D01*
X81064999Y-75177440D01*
X82765001Y-75177440D01*
X83108436Y-75109127D01*
X83399586Y-74914586D01*
X83594127Y-74623436D01*
X83662440Y-74280001D01*
X83662440Y-73922255D01*
X101406861Y-73922255D01*
X102235000Y-74750395D01*
X103063139Y-73922255D01*
X102989005Y-73676136D01*
X102451777Y-73483035D01*
X101881546Y-73510222D01*
X101480995Y-73676136D01*
X101406861Y-73922255D01*
X83662440Y-73922255D01*
X83662440Y-73039999D01*
X83594127Y-72696564D01*
X83399586Y-72405414D01*
X83164878Y-72248587D01*
X83230044Y-72205044D01*
X83562678Y-71707222D01*
X83679484Y-71120000D01*
X83562678Y-70532778D01*
X83530754Y-70485000D01*
X84896887Y-70485000D01*
X85008260Y-71044909D01*
X85325423Y-71519577D01*
X85800091Y-71836740D01*
X86218667Y-71920000D01*
X86501333Y-71920000D01*
X86919909Y-71836740D01*
X87394577Y-71519577D01*
X87711740Y-71044909D01*
X87753684Y-70834039D01*
X92588096Y-70834039D01*
X92748959Y-71222423D01*
X93124866Y-71637389D01*
X93630959Y-71876914D01*
X93853000Y-71755629D01*
X93853000Y-70612000D01*
X94107000Y-70612000D01*
X94107000Y-71755629D01*
X94329041Y-71876914D01*
X94835134Y-71637389D01*
X94987636Y-71469041D01*
X96398086Y-71469041D01*
X96637611Y-71975134D01*
X97052577Y-72351041D01*
X97440961Y-72511904D01*
X97663000Y-72389915D01*
X97663000Y-71247000D01*
X97917000Y-71247000D01*
X97917000Y-72389915D01*
X98139039Y-72511904D01*
X98527423Y-72351041D01*
X98942389Y-71975134D01*
X99181667Y-71469561D01*
X100165000Y-71469561D01*
X100165000Y-72040439D01*
X100383466Y-72567862D01*
X100787138Y-72971534D01*
X101314561Y-73190000D01*
X101885439Y-73190000D01*
X102412862Y-72971534D01*
X102816534Y-72567862D01*
X103035000Y-72040439D01*
X103035000Y-71469561D01*
X103018432Y-71429561D01*
X103975000Y-71429561D01*
X103975000Y-72000439D01*
X104193466Y-72527862D01*
X104597138Y-72931534D01*
X105124561Y-73150000D01*
X105695439Y-73150000D01*
X106222862Y-72931534D01*
X106626534Y-72527862D01*
X106840304Y-72011774D01*
X107715000Y-72011774D01*
X107715000Y-72768225D01*
X107802322Y-73207221D01*
X108134956Y-73705044D01*
X108632778Y-74037678D01*
X109220000Y-74154484D01*
X109807221Y-74037678D01*
X110305044Y-73705044D01*
X110490000Y-73428237D01*
X110674956Y-73705044D01*
X111172778Y-74037678D01*
X111760000Y-74154484D01*
X112347221Y-74037678D01*
X112834636Y-73711999D01*
X112891673Y-73849699D01*
X113070302Y-74028327D01*
X113303691Y-74125000D01*
X114014250Y-74125000D01*
X114173000Y-73966250D01*
X114173000Y-72517000D01*
X114153000Y-72517000D01*
X114153000Y-72263000D01*
X114173000Y-72263000D01*
X114173000Y-70813750D01*
X114427000Y-70813750D01*
X114427000Y-72263000D01*
X114447000Y-72263000D01*
X114447000Y-72517000D01*
X114427000Y-72517000D01*
X114427000Y-73966250D01*
X114585750Y-74125000D01*
X115296309Y-74125000D01*
X115529698Y-74028327D01*
X115708327Y-73849699D01*
X115765364Y-73711999D01*
X116252778Y-74037678D01*
X116840000Y-74154484D01*
X117427221Y-74037678D01*
X117925044Y-73705044D01*
X118110000Y-73428237D01*
X118294956Y-73705044D01*
X118792778Y-74037678D01*
X119380000Y-74154484D01*
X119967221Y-74037678D01*
X120454636Y-73711999D01*
X120511673Y-73849699D01*
X120690302Y-74028327D01*
X120923691Y-74125000D01*
X121634250Y-74125000D01*
X121793000Y-73966250D01*
X121793000Y-72517000D01*
X122047000Y-72517000D01*
X122047000Y-73966250D01*
X122205750Y-74125000D01*
X122916309Y-74125000D01*
X123149698Y-74028327D01*
X123328327Y-73849699D01*
X123425000Y-73616310D01*
X123425000Y-72675750D01*
X123266250Y-72517000D01*
X122047000Y-72517000D01*
X121793000Y-72517000D01*
X121773000Y-72517000D01*
X121773000Y-72263000D01*
X121793000Y-72263000D01*
X121793000Y-72243000D01*
X122047000Y-72243000D01*
X122047000Y-72263000D01*
X123266250Y-72263000D01*
X123425000Y-72104250D01*
X123425000Y-71163690D01*
X123406075Y-71118000D01*
X127371829Y-71118000D01*
X129088303Y-72834476D01*
X129130701Y-72897929D01*
X129194154Y-72940327D01*
X129194156Y-72940329D01*
X129319532Y-73024102D01*
X129382093Y-73065904D01*
X129568678Y-73103018D01*
X129593466Y-73162862D01*
X129997138Y-73566534D01*
X130524561Y-73785000D01*
X131095439Y-73785000D01*
X131622862Y-73566534D01*
X132026534Y-73162862D01*
X132245000Y-72635439D01*
X132245000Y-72390000D01*
X133156887Y-72390000D01*
X133268260Y-72949909D01*
X133585423Y-73424577D01*
X134060091Y-73741740D01*
X134478667Y-73825000D01*
X134761333Y-73825000D01*
X135179909Y-73741740D01*
X135654577Y-73424577D01*
X135971740Y-72949909D01*
X136083113Y-72390000D01*
X135971740Y-71830091D01*
X135654577Y-71355423D01*
X135314797Y-71128389D01*
X135374005Y-71103864D01*
X135448139Y-70857745D01*
X134620000Y-70029605D01*
X133791861Y-70857745D01*
X133865995Y-71103864D01*
X133928359Y-71126280D01*
X133585423Y-71355423D01*
X133268260Y-71830091D01*
X133156887Y-72390000D01*
X132245000Y-72390000D01*
X132245000Y-72064561D01*
X132026534Y-71537138D01*
X131622862Y-71133466D01*
X131557701Y-71106475D01*
X131564005Y-71103864D01*
X131638139Y-70857745D01*
X130810000Y-70029605D01*
X129981861Y-70857745D01*
X130055995Y-71103864D01*
X130062746Y-71106290D01*
X129997138Y-71133466D01*
X129767018Y-71363586D01*
X128276961Y-69873530D01*
X128234559Y-69810071D01*
X127983167Y-69642096D01*
X127938560Y-69633223D01*
X129363035Y-69633223D01*
X129390222Y-70203454D01*
X129556136Y-70604005D01*
X129802255Y-70678139D01*
X130630395Y-69850000D01*
X130989605Y-69850000D01*
X131817745Y-70678139D01*
X132063864Y-70604005D01*
X132256965Y-70066777D01*
X132236295Y-69633223D01*
X133173035Y-69633223D01*
X133200222Y-70203454D01*
X133366136Y-70604005D01*
X133612255Y-70678139D01*
X134440395Y-69850000D01*
X134799605Y-69850000D01*
X135627745Y-70678139D01*
X135873864Y-70604005D01*
X136011890Y-70220000D01*
X138152560Y-70220000D01*
X138152560Y-72020000D01*
X138201843Y-72267765D01*
X138342191Y-72477809D01*
X138552235Y-72618157D01*
X138800000Y-72667440D01*
X140600000Y-72667440D01*
X140847765Y-72618157D01*
X141057809Y-72477809D01*
X141198157Y-72267765D01*
X141201275Y-72252092D01*
X141370493Y-72421310D01*
X141934670Y-72655000D01*
X142545330Y-72655000D01*
X143109507Y-72421310D01*
X143278725Y-72252092D01*
X143281843Y-72267765D01*
X143422191Y-72477809D01*
X143632235Y-72618157D01*
X143880000Y-72667440D01*
X145680000Y-72667440D01*
X145927765Y-72618157D01*
X146137809Y-72477809D01*
X146278157Y-72267765D01*
X146281275Y-72252092D01*
X146450493Y-72421310D01*
X147014670Y-72655000D01*
X147625330Y-72655000D01*
X148189507Y-72421310D01*
X148621310Y-71989507D01*
X148855000Y-71425330D01*
X148855000Y-70814670D01*
X148621310Y-70250493D01*
X148189507Y-69818690D01*
X147625330Y-69585000D01*
X147014670Y-69585000D01*
X146450493Y-69818690D01*
X146281275Y-69987908D01*
X146278157Y-69972235D01*
X146137809Y-69762191D01*
X145927765Y-69621843D01*
X145680000Y-69572560D01*
X143880000Y-69572560D01*
X143632235Y-69621843D01*
X143422191Y-69762191D01*
X143281843Y-69972235D01*
X143278725Y-69987908D01*
X143109507Y-69818690D01*
X142545330Y-69585000D01*
X141934670Y-69585000D01*
X141370493Y-69818690D01*
X141201275Y-69987908D01*
X141198157Y-69972235D01*
X141057809Y-69762191D01*
X140847765Y-69621843D01*
X140600000Y-69572560D01*
X138800000Y-69572560D01*
X138552235Y-69621843D01*
X138342191Y-69762191D01*
X138201843Y-69972235D01*
X138152560Y-70220000D01*
X136011890Y-70220000D01*
X136066965Y-70066777D01*
X136039778Y-69496546D01*
X135873864Y-69095995D01*
X135627745Y-69021861D01*
X134799605Y-69850000D01*
X134440395Y-69850000D01*
X133612255Y-69021861D01*
X133366136Y-69095995D01*
X133173035Y-69633223D01*
X132236295Y-69633223D01*
X132229778Y-69496546D01*
X132063864Y-69095995D01*
X131817745Y-69021861D01*
X130989605Y-69850000D01*
X130630395Y-69850000D01*
X129802255Y-69021861D01*
X129556136Y-69095995D01*
X129363035Y-69633223D01*
X127938560Y-69633223D01*
X127761482Y-69598000D01*
X127761477Y-69598000D01*
X127686630Y-69583112D01*
X127611783Y-69598000D01*
X118716848Y-69598000D01*
X118642000Y-69583112D01*
X118567152Y-69598000D01*
X118567148Y-69598000D01*
X118393605Y-69632520D01*
X118345462Y-69642096D01*
X118216755Y-69728096D01*
X118094071Y-69810071D01*
X118051671Y-69873527D01*
X117223416Y-70701782D01*
X116840000Y-70625516D01*
X116252779Y-70742322D01*
X115765364Y-71068001D01*
X115708327Y-70930301D01*
X115529698Y-70751673D01*
X115296309Y-70655000D01*
X114585750Y-70655000D01*
X114427000Y-70813750D01*
X114173000Y-70813750D01*
X114014250Y-70655000D01*
X113303691Y-70655000D01*
X113070302Y-70751673D01*
X112891673Y-70930301D01*
X112834636Y-71068001D01*
X112347222Y-70742322D01*
X111760000Y-70625516D01*
X111172779Y-70742322D01*
X110674956Y-71074956D01*
X110490000Y-71351763D01*
X110305044Y-71074956D01*
X109807222Y-70742322D01*
X109220000Y-70625516D01*
X108632779Y-70742322D01*
X108134956Y-71074956D01*
X107802322Y-71572778D01*
X107715000Y-72011774D01*
X106840304Y-72011774D01*
X106845000Y-72000439D01*
X106845000Y-71429561D01*
X106626534Y-70902138D01*
X106222862Y-70498466D01*
X106157701Y-70471475D01*
X106164005Y-70468864D01*
X106238139Y-70222745D01*
X105410000Y-69394605D01*
X104581861Y-70222745D01*
X104655995Y-70468864D01*
X104662746Y-70471290D01*
X104597138Y-70498466D01*
X104193466Y-70902138D01*
X103975000Y-71429561D01*
X103018432Y-71429561D01*
X102816534Y-70942138D01*
X102412862Y-70538466D01*
X102347701Y-70511475D01*
X102354005Y-70508864D01*
X102428139Y-70262745D01*
X101600000Y-69434605D01*
X100771861Y-70262745D01*
X100845995Y-70508864D01*
X100852746Y-70511290D01*
X100787138Y-70538466D01*
X100383466Y-70942138D01*
X100165000Y-71469561D01*
X99181667Y-71469561D01*
X99181914Y-71469041D01*
X99060629Y-71247000D01*
X97917000Y-71247000D01*
X97663000Y-71247000D01*
X96519371Y-71247000D01*
X96398086Y-71469041D01*
X94987636Y-71469041D01*
X95211041Y-71222423D01*
X95371904Y-70834039D01*
X95337248Y-70770959D01*
X96398086Y-70770959D01*
X96519371Y-70993000D01*
X97663000Y-70993000D01*
X97663000Y-69850085D01*
X97917000Y-69850085D01*
X97917000Y-70993000D01*
X99060629Y-70993000D01*
X99181914Y-70770959D01*
X98942389Y-70264866D01*
X98527423Y-69888959D01*
X98139039Y-69728096D01*
X97917000Y-69850085D01*
X97663000Y-69850085D01*
X97440961Y-69728096D01*
X97052577Y-69888959D01*
X96637611Y-70264866D01*
X96398086Y-70770959D01*
X95337248Y-70770959D01*
X95249915Y-70612000D01*
X94107000Y-70612000D01*
X93853000Y-70612000D01*
X92710085Y-70612000D01*
X92588096Y-70834039D01*
X87753684Y-70834039D01*
X87823113Y-70485000D01*
X87753685Y-70135961D01*
X92588096Y-70135961D01*
X92710085Y-70358000D01*
X93853000Y-70358000D01*
X93853000Y-69214371D01*
X94107000Y-69214371D01*
X94107000Y-70358000D01*
X95249915Y-70358000D01*
X95371904Y-70135961D01*
X95211041Y-69747577D01*
X94835134Y-69332611D01*
X94329041Y-69093086D01*
X94107000Y-69214371D01*
X93853000Y-69214371D01*
X93630959Y-69093086D01*
X93124866Y-69332611D01*
X92748959Y-69747577D01*
X92588096Y-70135961D01*
X87753685Y-70135961D01*
X87711740Y-69925091D01*
X87394577Y-69450423D01*
X86919909Y-69133260D01*
X86501333Y-69050000D01*
X86218667Y-69050000D01*
X85800091Y-69133260D01*
X85325423Y-69450423D01*
X85008260Y-69925091D01*
X84896887Y-70485000D01*
X83530754Y-70485000D01*
X83230044Y-70034956D01*
X82732222Y-69702322D01*
X82293226Y-69615000D01*
X81536774Y-69615000D01*
X81097778Y-69702322D01*
X80599956Y-70034956D01*
X80267322Y-70532778D01*
X80150516Y-71120000D01*
X78232000Y-71120000D01*
X78232000Y-69038223D01*
X100153035Y-69038223D01*
X100180222Y-69608454D01*
X100346136Y-70009005D01*
X100592255Y-70083139D01*
X101420395Y-69255000D01*
X101779605Y-69255000D01*
X102607745Y-70083139D01*
X102853864Y-70009005D01*
X103046965Y-69471777D01*
X103024388Y-68998223D01*
X103963035Y-68998223D01*
X103990222Y-69568454D01*
X104156136Y-69969005D01*
X104402255Y-70043139D01*
X105230395Y-69215000D01*
X105589605Y-69215000D01*
X106417745Y-70043139D01*
X106663864Y-69969005D01*
X106856965Y-69431777D01*
X106829778Y-68861546D01*
X106821788Y-68842255D01*
X129981861Y-68842255D01*
X130810000Y-69670395D01*
X131638139Y-68842255D01*
X133791861Y-68842255D01*
X134620000Y-69670395D01*
X135448139Y-68842255D01*
X135374005Y-68596136D01*
X134836777Y-68403035D01*
X134266546Y-68430222D01*
X133865995Y-68596136D01*
X133791861Y-68842255D01*
X131638139Y-68842255D01*
X131564005Y-68596136D01*
X131026777Y-68403035D01*
X130456546Y-68430222D01*
X130055995Y-68596136D01*
X129981861Y-68842255D01*
X106821788Y-68842255D01*
X106663864Y-68460995D01*
X106417745Y-68386861D01*
X105589605Y-69215000D01*
X105230395Y-69215000D01*
X104402255Y-68386861D01*
X104156136Y-68460995D01*
X103963035Y-68998223D01*
X103024388Y-68998223D01*
X103019778Y-68901546D01*
X102853864Y-68500995D01*
X102607745Y-68426861D01*
X101779605Y-69255000D01*
X101420395Y-69255000D01*
X100592255Y-68426861D01*
X100346136Y-68500995D01*
X100153035Y-69038223D01*
X78232000Y-69038223D01*
X78232000Y-68247255D01*
X100771861Y-68247255D01*
X101600000Y-69075395D01*
X102428139Y-68247255D01*
X102416091Y-68207255D01*
X104581861Y-68207255D01*
X105410000Y-69035395D01*
X106238139Y-68207255D01*
X106164005Y-67961136D01*
X105626777Y-67768035D01*
X105056546Y-67795222D01*
X104655995Y-67961136D01*
X104581861Y-68207255D01*
X102416091Y-68207255D01*
X102354005Y-68001136D01*
X101816777Y-67808035D01*
X101246546Y-67835222D01*
X100845995Y-68001136D01*
X100771861Y-68247255D01*
X78232000Y-68247255D01*
X78232000Y-67997606D01*
X78792606Y-67437000D01*
X149807394Y-67437000D01*
X150368000Y-67997606D01*
G04 #@! TD*
M02*
