G04 #@! TF.GenerationSoftware,KiCad,Pcbnew,5.1.5+dfsg1-2build2*
G04 #@! TF.CreationDate,2020-10-04T20:54:39+02:00*
G04 #@! TF.ProjectId,transistor_board,7472616e-7369-4737-946f-725f626f6172,rev?*
G04 #@! TF.SameCoordinates,Original*
G04 #@! TF.FileFunction,Legend,Top*
G04 #@! TF.FilePolarity,Positive*
%FSLAX46Y46*%
G04 Gerber Fmt 4.6, Leading zero omitted, Abs format (unit mm)*
G04 Created by KiCad (PCBNEW 5.1.5+dfsg1-2build2) date 2020-10-04 20:54:39*
%MOMM*%
%LPD*%
G04 APERTURE LIST*
%ADD10C,0.070000*%
%ADD11C,0.120000*%
%ADD12C,0.150000*%
%ADD13C,0.100000*%
G04 APERTURE END LIST*
D10*
X134286666Y-131491380D02*
X134239047Y-131515190D01*
X134143809Y-131515190D01*
X134096190Y-131491380D01*
X134072380Y-131467571D01*
X134048571Y-131419952D01*
X134048571Y-131277095D01*
X134072380Y-131229476D01*
X134096190Y-131205666D01*
X134143809Y-131181857D01*
X134239047Y-131181857D01*
X134286666Y-131205666D01*
X134715238Y-131515190D02*
X134715238Y-131253285D01*
X134691428Y-131205666D01*
X134643809Y-131181857D01*
X134548571Y-131181857D01*
X134500952Y-131205666D01*
X134715238Y-131491380D02*
X134667619Y-131515190D01*
X134548571Y-131515190D01*
X134500952Y-131491380D01*
X134477142Y-131443761D01*
X134477142Y-131396142D01*
X134500952Y-131348523D01*
X134548571Y-131324714D01*
X134667619Y-131324714D01*
X134715238Y-131300904D01*
X134953333Y-131181857D02*
X134953333Y-131681857D01*
X134953333Y-131205666D02*
X135000952Y-131181857D01*
X135096190Y-131181857D01*
X135143809Y-131205666D01*
X135167619Y-131229476D01*
X135191428Y-131277095D01*
X135191428Y-131419952D01*
X135167619Y-131467571D01*
X135143809Y-131491380D01*
X135096190Y-131515190D01*
X135000952Y-131515190D01*
X134953333Y-131491380D01*
X134084285Y-132001857D02*
X134084285Y-132501857D01*
X134084285Y-132025666D02*
X134131904Y-132001857D01*
X134227142Y-132001857D01*
X134274761Y-132025666D01*
X134298571Y-132049476D01*
X134322380Y-132097095D01*
X134322380Y-132239952D01*
X134298571Y-132287571D01*
X134274761Y-132311380D01*
X134227142Y-132335190D01*
X134131904Y-132335190D01*
X134084285Y-132311380D01*
X134608095Y-132335190D02*
X134560476Y-132311380D01*
X134536666Y-132287571D01*
X134512857Y-132239952D01*
X134512857Y-132097095D01*
X134536666Y-132049476D01*
X134560476Y-132025666D01*
X134608095Y-132001857D01*
X134679523Y-132001857D01*
X134727142Y-132025666D01*
X134750952Y-132049476D01*
X134774761Y-132097095D01*
X134774761Y-132239952D01*
X134750952Y-132287571D01*
X134727142Y-132311380D01*
X134679523Y-132335190D01*
X134608095Y-132335190D01*
X134965238Y-132311380D02*
X135012857Y-132335190D01*
X135108095Y-132335190D01*
X135155714Y-132311380D01*
X135179523Y-132263761D01*
X135179523Y-132239952D01*
X135155714Y-132192333D01*
X135108095Y-132168523D01*
X135036666Y-132168523D01*
X134989047Y-132144714D01*
X134965238Y-132097095D01*
X134965238Y-132073285D01*
X134989047Y-132025666D01*
X135036666Y-132001857D01*
X135108095Y-132001857D01*
X135155714Y-132025666D01*
X136826666Y-131491380D02*
X136779047Y-131515190D01*
X136683809Y-131515190D01*
X136636190Y-131491380D01*
X136612380Y-131467571D01*
X136588571Y-131419952D01*
X136588571Y-131277095D01*
X136612380Y-131229476D01*
X136636190Y-131205666D01*
X136683809Y-131181857D01*
X136779047Y-131181857D01*
X136826666Y-131205666D01*
X137255238Y-131515190D02*
X137255238Y-131253285D01*
X137231428Y-131205666D01*
X137183809Y-131181857D01*
X137088571Y-131181857D01*
X137040952Y-131205666D01*
X137255238Y-131491380D02*
X137207619Y-131515190D01*
X137088571Y-131515190D01*
X137040952Y-131491380D01*
X137017142Y-131443761D01*
X137017142Y-131396142D01*
X137040952Y-131348523D01*
X137088571Y-131324714D01*
X137207619Y-131324714D01*
X137255238Y-131300904D01*
X137493333Y-131181857D02*
X137493333Y-131681857D01*
X137493333Y-131205666D02*
X137540952Y-131181857D01*
X137636190Y-131181857D01*
X137683809Y-131205666D01*
X137707619Y-131229476D01*
X137731428Y-131277095D01*
X137731428Y-131419952D01*
X137707619Y-131467571D01*
X137683809Y-131491380D01*
X137636190Y-131515190D01*
X137540952Y-131515190D01*
X137493333Y-131491380D01*
X136612380Y-132001857D02*
X136612380Y-132335190D01*
X136612380Y-132049476D02*
X136636190Y-132025666D01*
X136683809Y-132001857D01*
X136755238Y-132001857D01*
X136802857Y-132025666D01*
X136826666Y-132073285D01*
X136826666Y-132335190D01*
X137255238Y-132311380D02*
X137207619Y-132335190D01*
X137112380Y-132335190D01*
X137064761Y-132311380D01*
X137040952Y-132263761D01*
X137040952Y-132073285D01*
X137064761Y-132025666D01*
X137112380Y-132001857D01*
X137207619Y-132001857D01*
X137255238Y-132025666D01*
X137279047Y-132073285D01*
X137279047Y-132120904D01*
X137040952Y-132168523D01*
X137707619Y-132001857D02*
X137707619Y-132406619D01*
X137683809Y-132454238D01*
X137660000Y-132478047D01*
X137612380Y-132501857D01*
X137540952Y-132501857D01*
X137493333Y-132478047D01*
X137707619Y-132311380D02*
X137660000Y-132335190D01*
X137564761Y-132335190D01*
X137517142Y-132311380D01*
X137493333Y-132287571D01*
X137469523Y-132239952D01*
X137469523Y-132097095D01*
X137493333Y-132049476D01*
X137517142Y-132025666D01*
X137564761Y-132001857D01*
X137660000Y-132001857D01*
X137707619Y-132025666D01*
X113930952Y-131499333D02*
X114169047Y-131499333D01*
X113883333Y-131642190D02*
X114050000Y-131142190D01*
X114216666Y-131642190D01*
X114669047Y-131594571D02*
X114645238Y-131618380D01*
X114573809Y-131642190D01*
X114526190Y-131642190D01*
X114454761Y-131618380D01*
X114407142Y-131570761D01*
X114383333Y-131523142D01*
X114359523Y-131427904D01*
X114359523Y-131356476D01*
X114383333Y-131261238D01*
X114407142Y-131213619D01*
X114454761Y-131166000D01*
X114526190Y-131142190D01*
X114573809Y-131142190D01*
X114645238Y-131166000D01*
X114669047Y-131189809D01*
X113442857Y-132438380D02*
X113395238Y-132462190D01*
X113300000Y-132462190D01*
X113252380Y-132438380D01*
X113228571Y-132414571D01*
X113204761Y-132366952D01*
X113204761Y-132224095D01*
X113228571Y-132176476D01*
X113252380Y-132152666D01*
X113300000Y-132128857D01*
X113395238Y-132128857D01*
X113442857Y-132152666D01*
X113657142Y-132462190D02*
X113657142Y-131962190D01*
X113871428Y-132462190D02*
X113871428Y-132200285D01*
X113847619Y-132152666D01*
X113800000Y-132128857D01*
X113728571Y-132128857D01*
X113680952Y-132152666D01*
X113657142Y-132176476D01*
X114323809Y-132462190D02*
X114323809Y-132200285D01*
X114300000Y-132152666D01*
X114252380Y-132128857D01*
X114157142Y-132128857D01*
X114109523Y-132152666D01*
X114323809Y-132438380D02*
X114276190Y-132462190D01*
X114157142Y-132462190D01*
X114109523Y-132438380D01*
X114085714Y-132390761D01*
X114085714Y-132343142D01*
X114109523Y-132295523D01*
X114157142Y-132271714D01*
X114276190Y-132271714D01*
X114323809Y-132247904D01*
X114538095Y-132438380D02*
X114585714Y-132462190D01*
X114680952Y-132462190D01*
X114728571Y-132438380D01*
X114752380Y-132390761D01*
X114752380Y-132366952D01*
X114728571Y-132319333D01*
X114680952Y-132295523D01*
X114609523Y-132295523D01*
X114561904Y-132271714D01*
X114538095Y-132224095D01*
X114538095Y-132200285D01*
X114561904Y-132152666D01*
X114609523Y-132128857D01*
X114680952Y-132128857D01*
X114728571Y-132152666D01*
X114942857Y-132438380D02*
X114990476Y-132462190D01*
X115085714Y-132462190D01*
X115133333Y-132438380D01*
X115157142Y-132390761D01*
X115157142Y-132366952D01*
X115133333Y-132319333D01*
X115085714Y-132295523D01*
X115014285Y-132295523D01*
X114966666Y-132271714D01*
X114942857Y-132224095D01*
X114942857Y-132200285D01*
X114966666Y-132152666D01*
X115014285Y-132128857D01*
X115085714Y-132128857D01*
X115133333Y-132152666D01*
X115371428Y-132462190D02*
X115371428Y-132128857D01*
X115371428Y-131962190D02*
X115347619Y-131986000D01*
X115371428Y-132009809D01*
X115395238Y-131986000D01*
X115371428Y-131962190D01*
X115371428Y-132009809D01*
X116597952Y-131499333D02*
X116836047Y-131499333D01*
X116550333Y-131642190D02*
X116717000Y-131142190D01*
X116883666Y-131642190D01*
X117336047Y-131594571D02*
X117312238Y-131618380D01*
X117240809Y-131642190D01*
X117193190Y-131642190D01*
X117121761Y-131618380D01*
X117074142Y-131570761D01*
X117050333Y-131523142D01*
X117026523Y-131427904D01*
X117026523Y-131356476D01*
X117050333Y-131261238D01*
X117074142Y-131213619D01*
X117121761Y-131166000D01*
X117193190Y-131142190D01*
X117240809Y-131142190D01*
X117312238Y-131166000D01*
X117336047Y-131189809D01*
X116193190Y-132438380D02*
X116240809Y-132462190D01*
X116336047Y-132462190D01*
X116383666Y-132438380D01*
X116407476Y-132390761D01*
X116407476Y-132366952D01*
X116383666Y-132319333D01*
X116336047Y-132295523D01*
X116264619Y-132295523D01*
X116217000Y-132271714D01*
X116193190Y-132224095D01*
X116193190Y-132200285D01*
X116217000Y-132152666D01*
X116264619Y-132128857D01*
X116336047Y-132128857D01*
X116383666Y-132152666D01*
X116621761Y-132462190D02*
X116621761Y-131962190D01*
X116836047Y-132462190D02*
X116836047Y-132200285D01*
X116812238Y-132152666D01*
X116764619Y-132128857D01*
X116693190Y-132128857D01*
X116645571Y-132152666D01*
X116621761Y-132176476D01*
X117145571Y-132462190D02*
X117097952Y-132438380D01*
X117074142Y-132414571D01*
X117050333Y-132366952D01*
X117050333Y-132224095D01*
X117074142Y-132176476D01*
X117097952Y-132152666D01*
X117145571Y-132128857D01*
X117217000Y-132128857D01*
X117264619Y-132152666D01*
X117288428Y-132176476D01*
X117312238Y-132224095D01*
X117312238Y-132366952D01*
X117288428Y-132414571D01*
X117264619Y-132438380D01*
X117217000Y-132462190D01*
X117145571Y-132462190D01*
X117717000Y-132438380D02*
X117669380Y-132462190D01*
X117574142Y-132462190D01*
X117526523Y-132438380D01*
X117502714Y-132390761D01*
X117502714Y-132200285D01*
X117526523Y-132152666D01*
X117574142Y-132128857D01*
X117669380Y-132128857D01*
X117717000Y-132152666D01*
X117740809Y-132200285D01*
X117740809Y-132247904D01*
X117502714Y-132295523D01*
X118451428Y-131642190D02*
X118403809Y-131618380D01*
X118380000Y-131570761D01*
X118380000Y-131142190D01*
X118856190Y-131642190D02*
X118856190Y-131380285D01*
X118832380Y-131332666D01*
X118784761Y-131308857D01*
X118689523Y-131308857D01*
X118641904Y-131332666D01*
X118856190Y-131618380D02*
X118808571Y-131642190D01*
X118689523Y-131642190D01*
X118641904Y-131618380D01*
X118618095Y-131570761D01*
X118618095Y-131523142D01*
X118641904Y-131475523D01*
X118689523Y-131451714D01*
X118808571Y-131451714D01*
X118856190Y-131427904D01*
X119094285Y-131642190D02*
X119094285Y-131308857D01*
X119094285Y-131356476D02*
X119118095Y-131332666D01*
X119165714Y-131308857D01*
X119237142Y-131308857D01*
X119284761Y-131332666D01*
X119308571Y-131380285D01*
X119308571Y-131642190D01*
X119308571Y-131380285D02*
X119332380Y-131332666D01*
X119380000Y-131308857D01*
X119451428Y-131308857D01*
X119499047Y-131332666D01*
X119522857Y-131380285D01*
X119522857Y-131642190D01*
X119760952Y-131308857D02*
X119760952Y-131808857D01*
X119760952Y-131332666D02*
X119808571Y-131308857D01*
X119903809Y-131308857D01*
X119951428Y-131332666D01*
X119975238Y-131356476D01*
X119999047Y-131404095D01*
X119999047Y-131546952D01*
X119975238Y-131594571D01*
X119951428Y-131618380D01*
X119903809Y-131642190D01*
X119808571Y-131642190D01*
X119760952Y-131618380D01*
X120189523Y-131618380D02*
X120237142Y-131642190D01*
X120332380Y-131642190D01*
X120380000Y-131618380D01*
X120403809Y-131570761D01*
X120403809Y-131546952D01*
X120380000Y-131499333D01*
X120332380Y-131475523D01*
X120260952Y-131475523D01*
X120213333Y-131451714D01*
X120189523Y-131404095D01*
X120189523Y-131380285D01*
X120213333Y-131332666D01*
X120260952Y-131308857D01*
X120332380Y-131308857D01*
X120380000Y-131332666D01*
X118939523Y-132462190D02*
X118939523Y-132128857D01*
X118939523Y-132224095D02*
X118963333Y-132176476D01*
X118987142Y-132152666D01*
X119034761Y-132128857D01*
X119082380Y-132128857D01*
X119439523Y-132438380D02*
X119391904Y-132462190D01*
X119296666Y-132462190D01*
X119249047Y-132438380D01*
X119225238Y-132390761D01*
X119225238Y-132200285D01*
X119249047Y-132152666D01*
X119296666Y-132128857D01*
X119391904Y-132128857D01*
X119439523Y-132152666D01*
X119463333Y-132200285D01*
X119463333Y-132247904D01*
X119225238Y-132295523D01*
X119630000Y-132128857D02*
X119749047Y-132462190D01*
X119868095Y-132128857D01*
X120991428Y-131642190D02*
X120943809Y-131618380D01*
X120920000Y-131570761D01*
X120920000Y-131142190D01*
X121396190Y-131642190D02*
X121396190Y-131380285D01*
X121372380Y-131332666D01*
X121324761Y-131308857D01*
X121229523Y-131308857D01*
X121181904Y-131332666D01*
X121396190Y-131618380D02*
X121348571Y-131642190D01*
X121229523Y-131642190D01*
X121181904Y-131618380D01*
X121158095Y-131570761D01*
X121158095Y-131523142D01*
X121181904Y-131475523D01*
X121229523Y-131451714D01*
X121348571Y-131451714D01*
X121396190Y-131427904D01*
X121634285Y-131642190D02*
X121634285Y-131308857D01*
X121634285Y-131356476D02*
X121658095Y-131332666D01*
X121705714Y-131308857D01*
X121777142Y-131308857D01*
X121824761Y-131332666D01*
X121848571Y-131380285D01*
X121848571Y-131642190D01*
X121848571Y-131380285D02*
X121872380Y-131332666D01*
X121920000Y-131308857D01*
X121991428Y-131308857D01*
X122039047Y-131332666D01*
X122062857Y-131380285D01*
X122062857Y-131642190D01*
X122300952Y-131308857D02*
X122300952Y-131808857D01*
X122300952Y-131332666D02*
X122348571Y-131308857D01*
X122443809Y-131308857D01*
X122491428Y-131332666D01*
X122515238Y-131356476D01*
X122539047Y-131404095D01*
X122539047Y-131546952D01*
X122515238Y-131594571D01*
X122491428Y-131618380D01*
X122443809Y-131642190D01*
X122348571Y-131642190D01*
X122300952Y-131618380D01*
X122729523Y-131618380D02*
X122777142Y-131642190D01*
X122872380Y-131642190D01*
X122920000Y-131618380D01*
X122943809Y-131570761D01*
X122943809Y-131546952D01*
X122920000Y-131499333D01*
X122872380Y-131475523D01*
X122800952Y-131475523D01*
X122753333Y-131451714D01*
X122729523Y-131404095D01*
X122729523Y-131380285D01*
X122753333Y-131332666D01*
X122800952Y-131308857D01*
X122872380Y-131308857D01*
X122920000Y-131332666D01*
X121336666Y-132128857D02*
X121527142Y-132128857D01*
X121408095Y-132462190D02*
X121408095Y-132033619D01*
X121431904Y-131986000D01*
X121479523Y-131962190D01*
X121527142Y-131962190D01*
X121646190Y-132128857D02*
X121741428Y-132462190D01*
X121836666Y-132224095D01*
X121931904Y-132462190D01*
X122027142Y-132128857D01*
X122431904Y-132462190D02*
X122431904Y-131962190D01*
X122431904Y-132438380D02*
X122384285Y-132462190D01*
X122289047Y-132462190D01*
X122241428Y-132438380D01*
X122217619Y-132414571D01*
X122193809Y-132366952D01*
X122193809Y-132224095D01*
X122217619Y-132176476D01*
X122241428Y-132152666D01*
X122289047Y-132128857D01*
X122384285Y-132128857D01*
X122431904Y-132152666D01*
X123765523Y-131930380D02*
X123717904Y-131954190D01*
X123622666Y-131954190D01*
X123575047Y-131930380D01*
X123551238Y-131906571D01*
X123527428Y-131858952D01*
X123527428Y-131716095D01*
X123551238Y-131668476D01*
X123575047Y-131644666D01*
X123622666Y-131620857D01*
X123717904Y-131620857D01*
X123765523Y-131644666D01*
X124051238Y-131954190D02*
X124003619Y-131930380D01*
X123979809Y-131906571D01*
X123956000Y-131858952D01*
X123956000Y-131716095D01*
X123979809Y-131668476D01*
X124003619Y-131644666D01*
X124051238Y-131620857D01*
X124122666Y-131620857D01*
X124170285Y-131644666D01*
X124194095Y-131668476D01*
X124217904Y-131716095D01*
X124217904Y-131858952D01*
X124194095Y-131906571D01*
X124170285Y-131930380D01*
X124122666Y-131954190D01*
X124051238Y-131954190D01*
X124432190Y-131954190D02*
X124432190Y-131620857D01*
X124432190Y-131668476D02*
X124456000Y-131644666D01*
X124503619Y-131620857D01*
X124575047Y-131620857D01*
X124622666Y-131644666D01*
X124646476Y-131692285D01*
X124646476Y-131954190D01*
X124646476Y-131692285D02*
X124670285Y-131644666D01*
X124717904Y-131620857D01*
X124789333Y-131620857D01*
X124836952Y-131644666D01*
X124860761Y-131692285D01*
X124860761Y-131954190D01*
X126162714Y-131642190D02*
X126162714Y-131308857D01*
X126162714Y-131356476D02*
X126186523Y-131332666D01*
X126234142Y-131308857D01*
X126305571Y-131308857D01*
X126353190Y-131332666D01*
X126377000Y-131380285D01*
X126377000Y-131642190D01*
X126377000Y-131380285D02*
X126400809Y-131332666D01*
X126448428Y-131308857D01*
X126519857Y-131308857D01*
X126567476Y-131332666D01*
X126591285Y-131380285D01*
X126591285Y-131642190D01*
X126900809Y-131642190D02*
X126853190Y-131618380D01*
X126829380Y-131594571D01*
X126805571Y-131546952D01*
X126805571Y-131404095D01*
X126829380Y-131356476D01*
X126853190Y-131332666D01*
X126900809Y-131308857D01*
X126972238Y-131308857D01*
X127019857Y-131332666D01*
X127043666Y-131356476D01*
X127067476Y-131404095D01*
X127067476Y-131546952D01*
X127043666Y-131594571D01*
X127019857Y-131618380D01*
X126972238Y-131642190D01*
X126900809Y-131642190D01*
X127210333Y-131308857D02*
X127400809Y-131308857D01*
X127281761Y-131142190D02*
X127281761Y-131570761D01*
X127305571Y-131618380D01*
X127353190Y-131642190D01*
X127400809Y-131642190D01*
X127638904Y-131642190D02*
X127591285Y-131618380D01*
X127567476Y-131594571D01*
X127543666Y-131546952D01*
X127543666Y-131404095D01*
X127567476Y-131356476D01*
X127591285Y-131332666D01*
X127638904Y-131308857D01*
X127710333Y-131308857D01*
X127757952Y-131332666D01*
X127781761Y-131356476D01*
X127805571Y-131404095D01*
X127805571Y-131546952D01*
X127781761Y-131594571D01*
X127757952Y-131618380D01*
X127710333Y-131642190D01*
X127638904Y-131642190D01*
X128019857Y-131642190D02*
X128019857Y-131308857D01*
X128019857Y-131404095D02*
X128043666Y-131356476D01*
X128067476Y-131332666D01*
X128115095Y-131308857D01*
X128162714Y-131308857D01*
X126686523Y-132462190D02*
X126686523Y-132128857D01*
X126686523Y-132224095D02*
X126710333Y-132176476D01*
X126734142Y-132152666D01*
X126781761Y-132128857D01*
X126829380Y-132128857D01*
X127186523Y-132438380D02*
X127138904Y-132462190D01*
X127043666Y-132462190D01*
X126996047Y-132438380D01*
X126972238Y-132390761D01*
X126972238Y-132200285D01*
X126996047Y-132152666D01*
X127043666Y-132128857D01*
X127138904Y-132128857D01*
X127186523Y-132152666D01*
X127210333Y-132200285D01*
X127210333Y-132247904D01*
X126972238Y-132295523D01*
X127377000Y-132128857D02*
X127496047Y-132462190D01*
X127615095Y-132128857D01*
X128575714Y-131642190D02*
X128575714Y-131308857D01*
X128575714Y-131356476D02*
X128599523Y-131332666D01*
X128647142Y-131308857D01*
X128718571Y-131308857D01*
X128766190Y-131332666D01*
X128790000Y-131380285D01*
X128790000Y-131642190D01*
X128790000Y-131380285D02*
X128813809Y-131332666D01*
X128861428Y-131308857D01*
X128932857Y-131308857D01*
X128980476Y-131332666D01*
X129004285Y-131380285D01*
X129004285Y-131642190D01*
X129313809Y-131642190D02*
X129266190Y-131618380D01*
X129242380Y-131594571D01*
X129218571Y-131546952D01*
X129218571Y-131404095D01*
X129242380Y-131356476D01*
X129266190Y-131332666D01*
X129313809Y-131308857D01*
X129385238Y-131308857D01*
X129432857Y-131332666D01*
X129456666Y-131356476D01*
X129480476Y-131404095D01*
X129480476Y-131546952D01*
X129456666Y-131594571D01*
X129432857Y-131618380D01*
X129385238Y-131642190D01*
X129313809Y-131642190D01*
X129623333Y-131308857D02*
X129813809Y-131308857D01*
X129694761Y-131142190D02*
X129694761Y-131570761D01*
X129718571Y-131618380D01*
X129766190Y-131642190D01*
X129813809Y-131642190D01*
X130051904Y-131642190D02*
X130004285Y-131618380D01*
X129980476Y-131594571D01*
X129956666Y-131546952D01*
X129956666Y-131404095D01*
X129980476Y-131356476D01*
X130004285Y-131332666D01*
X130051904Y-131308857D01*
X130123333Y-131308857D01*
X130170952Y-131332666D01*
X130194761Y-131356476D01*
X130218571Y-131404095D01*
X130218571Y-131546952D01*
X130194761Y-131594571D01*
X130170952Y-131618380D01*
X130123333Y-131642190D01*
X130051904Y-131642190D01*
X130432857Y-131642190D02*
X130432857Y-131308857D01*
X130432857Y-131404095D02*
X130456666Y-131356476D01*
X130480476Y-131332666D01*
X130528095Y-131308857D01*
X130575714Y-131308857D01*
X128956666Y-132128857D02*
X129147142Y-132128857D01*
X129028095Y-132462190D02*
X129028095Y-132033619D01*
X129051904Y-131986000D01*
X129099523Y-131962190D01*
X129147142Y-131962190D01*
X129266190Y-132128857D02*
X129361428Y-132462190D01*
X129456666Y-132224095D01*
X129551904Y-132462190D01*
X129647142Y-132128857D01*
X130051904Y-132462190D02*
X130051904Y-131962190D01*
X130051904Y-132438380D02*
X130004285Y-132462190D01*
X129909047Y-132462190D01*
X129861428Y-132438380D01*
X129837619Y-132414571D01*
X129813809Y-132366952D01*
X129813809Y-132224095D01*
X129837619Y-132176476D01*
X129861428Y-132152666D01*
X129909047Y-132128857D01*
X130004285Y-132128857D01*
X130051904Y-132152666D01*
X131512523Y-132057380D02*
X131464904Y-132081190D01*
X131369666Y-132081190D01*
X131322047Y-132057380D01*
X131298238Y-132033571D01*
X131274428Y-131985952D01*
X131274428Y-131843095D01*
X131298238Y-131795476D01*
X131322047Y-131771666D01*
X131369666Y-131747857D01*
X131464904Y-131747857D01*
X131512523Y-131771666D01*
X131798238Y-132081190D02*
X131750619Y-132057380D01*
X131726809Y-132033571D01*
X131703000Y-131985952D01*
X131703000Y-131843095D01*
X131726809Y-131795476D01*
X131750619Y-131771666D01*
X131798238Y-131747857D01*
X131869666Y-131747857D01*
X131917285Y-131771666D01*
X131941095Y-131795476D01*
X131964904Y-131843095D01*
X131964904Y-131985952D01*
X131941095Y-132033571D01*
X131917285Y-132057380D01*
X131869666Y-132081190D01*
X131798238Y-132081190D01*
X132179190Y-132081190D02*
X132179190Y-131747857D01*
X132179190Y-131795476D02*
X132203000Y-131771666D01*
X132250619Y-131747857D01*
X132322047Y-131747857D01*
X132369666Y-131771666D01*
X132393476Y-131819285D01*
X132393476Y-132081190D01*
X132393476Y-131819285D02*
X132417285Y-131771666D01*
X132464904Y-131747857D01*
X132536333Y-131747857D01*
X132583952Y-131771666D01*
X132607761Y-131819285D01*
X132607761Y-132081190D01*
D11*
X112522000Y-123825000D02*
X138938000Y-123825000D01*
X112522000Y-83947000D02*
X112522000Y-123825000D01*
X138938000Y-83947000D02*
X112522000Y-83947000D01*
X138938000Y-123825000D02*
X138938000Y-83947000D01*
X122609000Y-129635000D02*
X122609000Y-128125000D01*
X126310000Y-129635000D02*
X126310000Y-128125000D01*
X129580000Y-128125000D02*
X119340000Y-128125000D01*
X119340000Y-129635000D02*
X119340000Y-124994000D01*
X129580000Y-129635000D02*
X129580000Y-124994000D01*
X129580000Y-124994000D02*
X119340000Y-124994000D01*
X129580000Y-129635000D02*
X119340000Y-129635000D01*
X138490000Y-132655000D02*
X138490000Y-133985000D01*
X137160000Y-132655000D02*
X138490000Y-132655000D01*
X135890000Y-132655000D02*
X135890000Y-135315000D01*
X135890000Y-135315000D02*
X112970000Y-135315000D01*
X135890000Y-132655000D02*
X112970000Y-132655000D01*
X112970000Y-132655000D02*
X112970000Y-135315000D01*
D12*
X123698095Y-121245380D02*
X123698095Y-122054904D01*
X123745714Y-122150142D01*
X123793333Y-122197761D01*
X123888571Y-122245380D01*
X124079047Y-122245380D01*
X124174285Y-122197761D01*
X124221904Y-122150142D01*
X124269523Y-122054904D01*
X124269523Y-121245380D01*
X124698095Y-121340619D02*
X124745714Y-121293000D01*
X124840952Y-121245380D01*
X125079047Y-121245380D01*
X125174285Y-121293000D01*
X125221904Y-121340619D01*
X125269523Y-121435857D01*
X125269523Y-121531095D01*
X125221904Y-121673952D01*
X124650476Y-122245380D01*
X125269523Y-122245380D01*
D10*
X124079047Y-130361190D02*
X124079047Y-130765952D01*
X124102857Y-130813571D01*
X124126666Y-130837380D01*
X124174285Y-130861190D01*
X124269523Y-130861190D01*
X124317142Y-130837380D01*
X124340952Y-130813571D01*
X124364761Y-130765952D01*
X124364761Y-130361190D01*
X124555238Y-130361190D02*
X124864761Y-130361190D01*
X124698095Y-130551666D01*
X124769523Y-130551666D01*
X124817142Y-130575476D01*
X124840952Y-130599285D01*
X124864761Y-130646904D01*
X124864761Y-130765952D01*
X124840952Y-130813571D01*
X124817142Y-130837380D01*
X124769523Y-130861190D01*
X124626666Y-130861190D01*
X124579047Y-130837380D01*
X124555238Y-130813571D01*
D13*
X113154666Y-130535333D02*
X113654666Y-130535333D01*
X113754666Y-130568666D01*
X113821333Y-130635333D01*
X113854666Y-130735333D01*
X113854666Y-130802000D01*
X113854666Y-129835333D02*
X113854666Y-130235333D01*
X113854666Y-130035333D02*
X113154666Y-130035333D01*
X113254666Y-130102000D01*
X113321333Y-130168666D01*
X113354666Y-130235333D01*
M02*
