G04 #@! TF.GenerationSoftware,KiCad,Pcbnew,5.1.5+dfsg1-2build2*
G04 #@! TF.CreationDate,2020-10-04T20:54:39+02:00*
G04 #@! TF.ProjectId,transistor_board,7472616e-7369-4737-946f-725f626f6172,rev?*
G04 #@! TF.SameCoordinates,Original*
G04 #@! TF.FileFunction,Legend,Bot*
G04 #@! TF.FilePolarity,Positive*
%FSLAX46Y46*%
G04 Gerber Fmt 4.6, Leading zero omitted, Abs format (unit mm)*
G04 Created by KiCad (PCBNEW 5.1.5+dfsg1-2build2) date 2020-10-04 20:54:39*
%MOMM*%
%LPD*%
G04 APERTURE LIST*
%ADD10C,0.070000*%
%ADD11C,0.120000*%
%ADD12C,0.100000*%
%ADD13C,0.150000*%
G04 APERTURE END LIST*
D10*
X129373809Y-127406190D02*
X129373809Y-126906190D01*
X129373809Y-127144285D02*
X129088095Y-127144285D01*
X129088095Y-127406190D02*
X129088095Y-126906190D01*
X128659523Y-127382380D02*
X128707142Y-127406190D01*
X128802380Y-127406190D01*
X128850000Y-127382380D01*
X128873809Y-127334761D01*
X128873809Y-127144285D01*
X128850000Y-127096666D01*
X128802380Y-127072857D01*
X128707142Y-127072857D01*
X128659523Y-127096666D01*
X128635714Y-127144285D01*
X128635714Y-127191904D01*
X128873809Y-127239523D01*
X128421428Y-127072857D02*
X128421428Y-127406190D01*
X128421428Y-127120476D02*
X128397619Y-127096666D01*
X128350000Y-127072857D01*
X128278571Y-127072857D01*
X128230952Y-127096666D01*
X128207142Y-127144285D01*
X128207142Y-127406190D01*
X127969047Y-127406190D02*
X127969047Y-127072857D01*
X127969047Y-127168095D02*
X127945238Y-127120476D01*
X127921428Y-127096666D01*
X127873809Y-127072857D01*
X127826190Y-127072857D01*
X127659523Y-127406190D02*
X127659523Y-127072857D01*
X127659523Y-126906190D02*
X127683333Y-126930000D01*
X127659523Y-126953809D01*
X127635714Y-126930000D01*
X127659523Y-126906190D01*
X127659523Y-126953809D01*
X127421428Y-127406190D02*
X127421428Y-126906190D01*
X127373809Y-127215714D02*
X127230952Y-127406190D01*
X127230952Y-127072857D02*
X127421428Y-127263333D01*
X126230952Y-127406190D02*
X126254761Y-127406190D01*
X126302380Y-127382380D01*
X126373809Y-127310952D01*
X126492857Y-127168095D01*
X126540476Y-127096666D01*
X126564285Y-127025238D01*
X126564285Y-126977619D01*
X126540476Y-126930000D01*
X126492857Y-126906190D01*
X126469047Y-126906190D01*
X126421428Y-126930000D01*
X126397619Y-126977619D01*
X126397619Y-127001428D01*
X126421428Y-127049047D01*
X126445238Y-127072857D01*
X126588095Y-127168095D01*
X126611904Y-127191904D01*
X126635714Y-127239523D01*
X126635714Y-127310952D01*
X126611904Y-127358571D01*
X126588095Y-127382380D01*
X126540476Y-127406190D01*
X126469047Y-127406190D01*
X126421428Y-127382380D01*
X126397619Y-127358571D01*
X126326190Y-127263333D01*
X126302380Y-127191904D01*
X126302380Y-127144285D01*
X125492857Y-126906190D02*
X125492857Y-127263333D01*
X125516666Y-127334761D01*
X125564285Y-127382380D01*
X125635714Y-127406190D01*
X125683333Y-127406190D01*
X125183333Y-127406190D02*
X125230952Y-127382380D01*
X125254761Y-127358571D01*
X125278571Y-127310952D01*
X125278571Y-127168095D01*
X125254761Y-127120476D01*
X125230952Y-127096666D01*
X125183333Y-127072857D01*
X125111904Y-127072857D01*
X125064285Y-127096666D01*
X125040476Y-127120476D01*
X125016666Y-127168095D01*
X125016666Y-127310952D01*
X125040476Y-127358571D01*
X125064285Y-127382380D01*
X125111904Y-127406190D01*
X125183333Y-127406190D01*
X124802380Y-127406190D02*
X124802380Y-126906190D01*
X124588095Y-127406190D02*
X124588095Y-127144285D01*
X124611904Y-127096666D01*
X124659523Y-127072857D01*
X124730952Y-127072857D01*
X124778571Y-127096666D01*
X124802380Y-127120476D01*
X124135714Y-127406190D02*
X124135714Y-127144285D01*
X124159523Y-127096666D01*
X124207142Y-127072857D01*
X124302380Y-127072857D01*
X124350000Y-127096666D01*
X124135714Y-127382380D02*
X124183333Y-127406190D01*
X124302380Y-127406190D01*
X124350000Y-127382380D01*
X124373809Y-127334761D01*
X124373809Y-127287142D01*
X124350000Y-127239523D01*
X124302380Y-127215714D01*
X124183333Y-127215714D01*
X124135714Y-127191904D01*
X123897619Y-127072857D02*
X123897619Y-127406190D01*
X123897619Y-127120476D02*
X123873809Y-127096666D01*
X123826190Y-127072857D01*
X123754761Y-127072857D01*
X123707142Y-127096666D01*
X123683333Y-127144285D01*
X123683333Y-127406190D01*
X122897619Y-127144285D02*
X122826190Y-127168095D01*
X122802380Y-127191904D01*
X122778571Y-127239523D01*
X122778571Y-127310952D01*
X122802380Y-127358571D01*
X122826190Y-127382380D01*
X122873809Y-127406190D01*
X123064285Y-127406190D01*
X123064285Y-126906190D01*
X122897619Y-126906190D01*
X122850000Y-126930000D01*
X122826190Y-126953809D01*
X122802380Y-127001428D01*
X122802380Y-127049047D01*
X122826190Y-127096666D01*
X122850000Y-127120476D01*
X122897619Y-127144285D01*
X123064285Y-127144285D01*
X122564285Y-127072857D02*
X122564285Y-127501428D01*
X122588095Y-127549047D01*
X122635714Y-127572857D01*
X122659523Y-127572857D01*
X122564285Y-126906190D02*
X122588095Y-126930000D01*
X122564285Y-126953809D01*
X122540476Y-126930000D01*
X122564285Y-126906190D01*
X122564285Y-126953809D01*
X122254761Y-127406190D02*
X122302380Y-127382380D01*
X122326190Y-127358571D01*
X122350000Y-127310952D01*
X122350000Y-127168095D01*
X122326190Y-127120476D01*
X122302380Y-127096666D01*
X122254761Y-127072857D01*
X122183333Y-127072857D01*
X122135714Y-127096666D01*
X122111904Y-127120476D01*
X122088095Y-127168095D01*
X122088095Y-127310952D01*
X122111904Y-127358571D01*
X122135714Y-127382380D01*
X122183333Y-127406190D01*
X122254761Y-127406190D01*
X121873809Y-127406190D02*
X121873809Y-127072857D01*
X121873809Y-127168095D02*
X121850000Y-127120476D01*
X121826190Y-127096666D01*
X121778571Y-127072857D01*
X121730952Y-127072857D01*
X121564285Y-127406190D02*
X121564285Y-126906190D01*
X121516666Y-127215714D02*
X121373809Y-127406190D01*
X121373809Y-127072857D02*
X121564285Y-127263333D01*
X121159523Y-127406190D02*
X121159523Y-127072857D01*
X121159523Y-127120476D02*
X121135714Y-127096666D01*
X121088095Y-127072857D01*
X121016666Y-127072857D01*
X120969047Y-127096666D01*
X120945238Y-127144285D01*
X120945238Y-127406190D01*
X120945238Y-127144285D02*
X120921428Y-127096666D01*
X120873809Y-127072857D01*
X120802380Y-127072857D01*
X120754761Y-127096666D01*
X120730952Y-127144285D01*
X120730952Y-127406190D01*
X120278571Y-127406190D02*
X120278571Y-127144285D01*
X120302380Y-127096666D01*
X120350000Y-127072857D01*
X120445238Y-127072857D01*
X120492857Y-127096666D01*
X120278571Y-127382380D02*
X120326190Y-127406190D01*
X120445238Y-127406190D01*
X120492857Y-127382380D01*
X120516666Y-127334761D01*
X120516666Y-127287142D01*
X120492857Y-127239523D01*
X120445238Y-127215714D01*
X120326190Y-127215714D01*
X120278571Y-127191904D01*
X120040476Y-127072857D02*
X120040476Y-127406190D01*
X120040476Y-127120476D02*
X120016666Y-127096666D01*
X119969047Y-127072857D01*
X119897619Y-127072857D01*
X119850000Y-127096666D01*
X119826190Y-127144285D01*
X119826190Y-127406190D01*
X127707142Y-127892857D02*
X127611904Y-128226190D01*
X127516666Y-127988095D01*
X127421428Y-128226190D01*
X127326190Y-127892857D01*
X127183333Y-127892857D02*
X127088095Y-128226190D01*
X126992857Y-127988095D01*
X126897619Y-128226190D01*
X126802380Y-127892857D01*
X126659523Y-127892857D02*
X126564285Y-128226190D01*
X126469047Y-127988095D01*
X126373809Y-128226190D01*
X126278571Y-127892857D01*
X126088095Y-128178571D02*
X126064285Y-128202380D01*
X126088095Y-128226190D01*
X126111904Y-128202380D01*
X126088095Y-128178571D01*
X126088095Y-128226190D01*
X125635714Y-128226190D02*
X125635714Y-127726190D01*
X125635714Y-128202380D02*
X125683333Y-128226190D01*
X125778571Y-128226190D01*
X125826190Y-128202380D01*
X125850000Y-128178571D01*
X125873809Y-128130952D01*
X125873809Y-127988095D01*
X125850000Y-127940476D01*
X125826190Y-127916666D01*
X125778571Y-127892857D01*
X125683333Y-127892857D01*
X125635714Y-127916666D01*
X125397619Y-128226190D02*
X125397619Y-127892857D01*
X125397619Y-127988095D02*
X125373809Y-127940476D01*
X125350000Y-127916666D01*
X125302380Y-127892857D01*
X125254761Y-127892857D01*
X124897619Y-128202380D02*
X124945238Y-128226190D01*
X125040476Y-128226190D01*
X125088095Y-128202380D01*
X125111904Y-128154761D01*
X125111904Y-127964285D01*
X125088095Y-127916666D01*
X125040476Y-127892857D01*
X124945238Y-127892857D01*
X124897619Y-127916666D01*
X124873809Y-127964285D01*
X124873809Y-128011904D01*
X125111904Y-128059523D01*
X124659523Y-128226190D02*
X124659523Y-127726190D01*
X124611904Y-128035714D02*
X124469047Y-128226190D01*
X124469047Y-127892857D02*
X124659523Y-128083333D01*
X124254761Y-128226190D02*
X124254761Y-127726190D01*
X124207142Y-128035714D02*
X124064285Y-128226190D01*
X124064285Y-127892857D02*
X124254761Y-128083333D01*
X123635714Y-128226190D02*
X123635714Y-127964285D01*
X123659523Y-127916666D01*
X123707142Y-127892857D01*
X123802380Y-127892857D01*
X123850000Y-127916666D01*
X123635714Y-128202380D02*
X123683333Y-128226190D01*
X123802380Y-128226190D01*
X123850000Y-128202380D01*
X123873809Y-128154761D01*
X123873809Y-128107142D01*
X123850000Y-128059523D01*
X123802380Y-128035714D01*
X123683333Y-128035714D01*
X123635714Y-128011904D01*
X123397619Y-128226190D02*
X123397619Y-127892857D01*
X123397619Y-127988095D02*
X123373809Y-127940476D01*
X123350000Y-127916666D01*
X123302380Y-127892857D01*
X123254761Y-127892857D01*
X123088095Y-128178571D02*
X123064285Y-128202380D01*
X123088095Y-128226190D01*
X123111904Y-128202380D01*
X123088095Y-128178571D01*
X123088095Y-128226190D01*
X122635714Y-128202380D02*
X122683333Y-128226190D01*
X122778571Y-128226190D01*
X122826190Y-128202380D01*
X122850000Y-128178571D01*
X122873809Y-128130952D01*
X122873809Y-127988095D01*
X122850000Y-127940476D01*
X122826190Y-127916666D01*
X122778571Y-127892857D01*
X122683333Y-127892857D01*
X122635714Y-127916666D01*
X122350000Y-128226190D02*
X122397619Y-128202380D01*
X122421428Y-128178571D01*
X122445238Y-128130952D01*
X122445238Y-127988095D01*
X122421428Y-127940476D01*
X122397619Y-127916666D01*
X122350000Y-127892857D01*
X122278571Y-127892857D01*
X122230952Y-127916666D01*
X122207142Y-127940476D01*
X122183333Y-127988095D01*
X122183333Y-128130952D01*
X122207142Y-128178571D01*
X122230952Y-128202380D01*
X122278571Y-128226190D01*
X122350000Y-128226190D01*
X121969047Y-128226190D02*
X121969047Y-127892857D01*
X121969047Y-127940476D02*
X121945238Y-127916666D01*
X121897619Y-127892857D01*
X121826190Y-127892857D01*
X121778571Y-127916666D01*
X121754761Y-127964285D01*
X121754761Y-128226190D01*
X121754761Y-127964285D02*
X121730952Y-127916666D01*
X121683333Y-127892857D01*
X121611904Y-127892857D01*
X121564285Y-127916666D01*
X121540476Y-127964285D01*
X121540476Y-128226190D01*
X127028571Y-128593809D02*
X127004761Y-128570000D01*
X126957142Y-128546190D01*
X126838095Y-128546190D01*
X126790476Y-128570000D01*
X126766666Y-128593809D01*
X126742857Y-128641428D01*
X126742857Y-128689047D01*
X126766666Y-128760476D01*
X127052380Y-129046190D01*
X126742857Y-129046190D01*
X126433333Y-128546190D02*
X126385714Y-128546190D01*
X126338095Y-128570000D01*
X126314285Y-128593809D01*
X126290476Y-128641428D01*
X126266666Y-128736666D01*
X126266666Y-128855714D01*
X126290476Y-128950952D01*
X126314285Y-128998571D01*
X126338095Y-129022380D01*
X126385714Y-129046190D01*
X126433333Y-129046190D01*
X126480952Y-129022380D01*
X126504761Y-128998571D01*
X126528571Y-128950952D01*
X126552380Y-128855714D01*
X126552380Y-128736666D01*
X126528571Y-128641428D01*
X126504761Y-128593809D01*
X126480952Y-128570000D01*
X126433333Y-128546190D01*
X126076190Y-128593809D02*
X126052380Y-128570000D01*
X126004761Y-128546190D01*
X125885714Y-128546190D01*
X125838095Y-128570000D01*
X125814285Y-128593809D01*
X125790476Y-128641428D01*
X125790476Y-128689047D01*
X125814285Y-128760476D01*
X126100000Y-129046190D01*
X125790476Y-129046190D01*
X125480952Y-128546190D02*
X125433333Y-128546190D01*
X125385714Y-128570000D01*
X125361904Y-128593809D01*
X125338095Y-128641428D01*
X125314285Y-128736666D01*
X125314285Y-128855714D01*
X125338095Y-128950952D01*
X125361904Y-128998571D01*
X125385714Y-129022380D01*
X125433333Y-129046190D01*
X125480952Y-129046190D01*
X125528571Y-129022380D01*
X125552380Y-128998571D01*
X125576190Y-128950952D01*
X125600000Y-128855714D01*
X125600000Y-128736666D01*
X125576190Y-128641428D01*
X125552380Y-128593809D01*
X125528571Y-128570000D01*
X125480952Y-128546190D01*
X125100000Y-128855714D02*
X124719047Y-128855714D01*
X124219047Y-129046190D02*
X124504761Y-129046190D01*
X124361904Y-129046190D02*
X124361904Y-128546190D01*
X124409523Y-128617619D01*
X124457142Y-128665238D01*
X124504761Y-128689047D01*
X123909523Y-128546190D02*
X123861904Y-128546190D01*
X123814285Y-128570000D01*
X123790476Y-128593809D01*
X123766666Y-128641428D01*
X123742857Y-128736666D01*
X123742857Y-128855714D01*
X123766666Y-128950952D01*
X123790476Y-128998571D01*
X123814285Y-129022380D01*
X123861904Y-129046190D01*
X123909523Y-129046190D01*
X123957142Y-129022380D01*
X123980952Y-128998571D01*
X124004761Y-128950952D01*
X124028571Y-128855714D01*
X124028571Y-128736666D01*
X124004761Y-128641428D01*
X123980952Y-128593809D01*
X123957142Y-128570000D01*
X123909523Y-128546190D01*
X123528571Y-128855714D02*
X123147619Y-128855714D01*
X122814285Y-128546190D02*
X122766666Y-128546190D01*
X122719047Y-128570000D01*
X122695238Y-128593809D01*
X122671428Y-128641428D01*
X122647619Y-128736666D01*
X122647619Y-128855714D01*
X122671428Y-128950952D01*
X122695238Y-128998571D01*
X122719047Y-129022380D01*
X122766666Y-129046190D01*
X122814285Y-129046190D01*
X122861904Y-129022380D01*
X122885714Y-128998571D01*
X122909523Y-128950952D01*
X122933333Y-128855714D01*
X122933333Y-128736666D01*
X122909523Y-128641428D01*
X122885714Y-128593809D01*
X122861904Y-128570000D01*
X122814285Y-128546190D01*
X122171428Y-129046190D02*
X122457142Y-129046190D01*
X122314285Y-129046190D02*
X122314285Y-128546190D01*
X122361904Y-128617619D01*
X122409523Y-128665238D01*
X122457142Y-128689047D01*
D11*
X133545000Y-128544064D02*
X133545000Y-124439936D01*
X136965000Y-128544064D02*
X136965000Y-124439936D01*
X132463000Y-113340000D02*
X133923000Y-113340000D01*
X132463000Y-110180000D02*
X134623000Y-110180000D01*
X132463000Y-110180000D02*
X132463000Y-111110000D01*
X132463000Y-113340000D02*
X132463000Y-112410000D01*
X132463000Y-118166000D02*
X133923000Y-118166000D01*
X132463000Y-115006000D02*
X134623000Y-115006000D01*
X132463000Y-115006000D02*
X132463000Y-115936000D01*
X132463000Y-118166000D02*
X132463000Y-117236000D01*
D12*
X124450000Y-107625000D02*
X124750000Y-107625000D01*
X124450000Y-107250000D02*
X124450000Y-107625000D01*
X127750000Y-107625000D02*
X127750000Y-107175000D01*
X127450000Y-107625000D02*
X127750000Y-107625000D01*
X127525000Y-107625000D02*
X127400000Y-107625000D01*
X127750000Y-105975000D02*
X127400000Y-105975000D01*
X127750000Y-106450000D02*
X127750000Y-105975000D01*
X124775000Y-105975000D02*
X124775000Y-105200000D01*
X124725000Y-105975000D02*
X124775000Y-105975000D01*
X124450000Y-106350000D02*
X124725000Y-105975000D01*
X124450000Y-106625000D02*
X124450000Y-106350000D01*
D11*
X116985000Y-114175000D02*
X116985000Y-120775000D01*
X119685000Y-120775000D02*
X122885000Y-120775000D01*
X119685000Y-114175000D02*
X122885000Y-114175000D01*
X125585000Y-120775000D02*
X124785000Y-120775000D01*
X125585000Y-114175000D02*
X125585000Y-120775000D01*
X124785000Y-114175000D02*
X125585000Y-114175000D01*
X116967000Y-114173000D02*
X117729000Y-114173000D01*
X117729000Y-114173000D02*
X117729000Y-112141000D01*
X117729000Y-112141000D02*
X117729000Y-112141000D01*
X117729000Y-120777000D02*
X116967000Y-120777000D01*
X116967000Y-120777000D02*
X116967000Y-120777000D01*
X133088748Y-119686000D02*
X133611252Y-119686000D01*
X133088748Y-121106000D02*
X133611252Y-121106000D01*
X115010000Y-122928748D02*
X115010000Y-123451252D01*
X113590000Y-122928748D02*
X113590000Y-123451252D01*
X113590000Y-127769252D02*
X113590000Y-127246748D01*
X115010000Y-127769252D02*
X115010000Y-127246748D01*
X125788922Y-98667500D02*
X126306078Y-98667500D01*
X125788922Y-100087500D02*
X126306078Y-100087500D01*
X126306078Y-103135500D02*
X125788922Y-103135500D01*
X126306078Y-101715500D02*
X125788922Y-101715500D01*
X128774000Y-105813000D02*
X128774000Y-106913000D01*
X128504000Y-105813000D02*
X128774000Y-105813000D01*
X128504000Y-104313000D02*
X128504000Y-105813000D01*
X135134000Y-105813000D02*
X135134000Y-108643000D01*
X135404000Y-105813000D02*
X135134000Y-105813000D01*
X135404000Y-104313000D02*
X135404000Y-105813000D01*
X116962000Y-105813000D02*
X116962000Y-106913000D01*
X116692000Y-105813000D02*
X116962000Y-105813000D01*
X116692000Y-104313000D02*
X116692000Y-105813000D01*
X123322000Y-105813000D02*
X123322000Y-108643000D01*
X123592000Y-105813000D02*
X123322000Y-105813000D01*
X123592000Y-104313000D02*
X123592000Y-105813000D01*
D13*
X138327380Y-126325333D02*
X137851190Y-125992000D01*
X138327380Y-125753904D02*
X137327380Y-125753904D01*
X137327380Y-126134857D01*
X137375000Y-126230095D01*
X137422619Y-126277714D01*
X137517857Y-126325333D01*
X137660714Y-126325333D01*
X137755952Y-126277714D01*
X137803571Y-126230095D01*
X137851190Y-126134857D01*
X137851190Y-125753904D01*
X138327380Y-127277714D02*
X138327380Y-126706285D01*
X138327380Y-126992000D02*
X137327380Y-126992000D01*
X137470238Y-126896761D01*
X137565476Y-126801523D01*
X137613095Y-126706285D01*
X133318238Y-109807619D02*
X133413476Y-109760000D01*
X133508714Y-109664761D01*
X133651571Y-109521904D01*
X133746809Y-109474285D01*
X133842047Y-109474285D01*
X133794428Y-109712380D02*
X133889666Y-109664761D01*
X133984904Y-109569523D01*
X134032523Y-109379047D01*
X134032523Y-109045714D01*
X133984904Y-108855238D01*
X133889666Y-108760000D01*
X133794428Y-108712380D01*
X133603952Y-108712380D01*
X133508714Y-108760000D01*
X133413476Y-108855238D01*
X133365857Y-109045714D01*
X133365857Y-109379047D01*
X133413476Y-109569523D01*
X133508714Y-109664761D01*
X133603952Y-109712380D01*
X133794428Y-109712380D01*
X132508714Y-109045714D02*
X132508714Y-109712380D01*
X132746809Y-108664761D02*
X132984904Y-109379047D01*
X132365857Y-109379047D01*
X133318238Y-114633619D02*
X133413476Y-114586000D01*
X133508714Y-114490761D01*
X133651571Y-114347904D01*
X133746809Y-114300285D01*
X133842047Y-114300285D01*
X133794428Y-114538380D02*
X133889666Y-114490761D01*
X133984904Y-114395523D01*
X134032523Y-114205047D01*
X134032523Y-113871714D01*
X133984904Y-113681238D01*
X133889666Y-113586000D01*
X133794428Y-113538380D01*
X133603952Y-113538380D01*
X133508714Y-113586000D01*
X133413476Y-113681238D01*
X133365857Y-113871714D01*
X133365857Y-114205047D01*
X133413476Y-114395523D01*
X133508714Y-114490761D01*
X133603952Y-114538380D01*
X133794428Y-114538380D01*
X133032523Y-113538380D02*
X132413476Y-113538380D01*
X132746809Y-113919333D01*
X132603952Y-113919333D01*
X132508714Y-113966952D01*
X132461095Y-114014571D01*
X132413476Y-114109809D01*
X132413476Y-114347904D01*
X132461095Y-114443142D01*
X132508714Y-114490761D01*
X132603952Y-114538380D01*
X132889666Y-114538380D01*
X132984904Y-114490761D01*
X133032523Y-114443142D01*
X123177380Y-106086904D02*
X122177380Y-106086904D01*
X122177380Y-106325000D01*
X122225000Y-106467857D01*
X122320238Y-106563095D01*
X122415476Y-106610714D01*
X122605952Y-106658333D01*
X122748809Y-106658333D01*
X122939285Y-106610714D01*
X123034523Y-106563095D01*
X123129761Y-106467857D01*
X123177380Y-106325000D01*
X123177380Y-106086904D01*
X122177380Y-106991666D02*
X122177380Y-107610714D01*
X122558333Y-107277380D01*
X122558333Y-107420238D01*
X122605952Y-107515476D01*
X122653571Y-107563095D01*
X122748809Y-107610714D01*
X122986904Y-107610714D01*
X123082142Y-107563095D01*
X123129761Y-107515476D01*
X123177380Y-107420238D01*
X123177380Y-107134523D01*
X123129761Y-107039285D01*
X123082142Y-106991666D01*
X116637380Y-116736904D02*
X115637380Y-116736904D01*
X115637380Y-116975000D01*
X115685000Y-117117857D01*
X115780238Y-117213095D01*
X115875476Y-117260714D01*
X116065952Y-117308333D01*
X116208809Y-117308333D01*
X116399285Y-117260714D01*
X116494523Y-117213095D01*
X116589761Y-117117857D01*
X116637380Y-116975000D01*
X116637380Y-116736904D01*
X116637380Y-118260714D02*
X116637380Y-117689285D01*
X116637380Y-117975000D02*
X115637380Y-117975000D01*
X115780238Y-117879761D01*
X115875476Y-117784523D01*
X115923095Y-117689285D01*
X133516666Y-122403142D02*
X133564285Y-122450761D01*
X133707142Y-122498380D01*
X133802380Y-122498380D01*
X133945238Y-122450761D01*
X134040476Y-122355523D01*
X134088095Y-122260285D01*
X134135714Y-122069809D01*
X134135714Y-121926952D01*
X134088095Y-121736476D01*
X134040476Y-121641238D01*
X133945238Y-121546000D01*
X133802380Y-121498380D01*
X133707142Y-121498380D01*
X133564285Y-121546000D01*
X133516666Y-121593619D01*
X132659523Y-121498380D02*
X132850000Y-121498380D01*
X132945238Y-121546000D01*
X132992857Y-121593619D01*
X133088095Y-121736476D01*
X133135714Y-121926952D01*
X133135714Y-122307904D01*
X133088095Y-122403142D01*
X133040476Y-122450761D01*
X132945238Y-122498380D01*
X132754761Y-122498380D01*
X132659523Y-122450761D01*
X132611904Y-122403142D01*
X132564285Y-122307904D01*
X132564285Y-122069809D01*
X132611904Y-121974571D01*
X132659523Y-121926952D01*
X132754761Y-121879333D01*
X132945238Y-121879333D01*
X133040476Y-121926952D01*
X133088095Y-121974571D01*
X133135714Y-122069809D01*
X113007142Y-123023333D02*
X113054761Y-122975714D01*
X113102380Y-122832857D01*
X113102380Y-122737619D01*
X113054761Y-122594761D01*
X112959523Y-122499523D01*
X112864285Y-122451904D01*
X112673809Y-122404285D01*
X112530952Y-122404285D01*
X112340476Y-122451904D01*
X112245238Y-122499523D01*
X112150000Y-122594761D01*
X112102380Y-122737619D01*
X112102380Y-122832857D01*
X112150000Y-122975714D01*
X112197619Y-123023333D01*
X112102380Y-123928095D02*
X112102380Y-123451904D01*
X112578571Y-123404285D01*
X112530952Y-123451904D01*
X112483333Y-123547142D01*
X112483333Y-123785238D01*
X112530952Y-123880476D01*
X112578571Y-123928095D01*
X112673809Y-123975714D01*
X112911904Y-123975714D01*
X113007142Y-123928095D01*
X113054761Y-123880476D01*
X113102380Y-123785238D01*
X113102380Y-123547142D01*
X113054761Y-123451904D01*
X113007142Y-123404285D01*
X116307142Y-127341333D02*
X116354761Y-127293714D01*
X116402380Y-127150857D01*
X116402380Y-127055619D01*
X116354761Y-126912761D01*
X116259523Y-126817523D01*
X116164285Y-126769904D01*
X115973809Y-126722285D01*
X115830952Y-126722285D01*
X115640476Y-126769904D01*
X115545238Y-126817523D01*
X115450000Y-126912761D01*
X115402380Y-127055619D01*
X115402380Y-127150857D01*
X115450000Y-127293714D01*
X115497619Y-127341333D01*
X115402380Y-127674666D02*
X115402380Y-128293714D01*
X115783333Y-127960380D01*
X115783333Y-128103238D01*
X115830952Y-128198476D01*
X115878571Y-128246095D01*
X115973809Y-128293714D01*
X116211904Y-128293714D01*
X116307142Y-128246095D01*
X116354761Y-128198476D01*
X116402380Y-128103238D01*
X116402380Y-127817523D01*
X116354761Y-127722285D01*
X116307142Y-127674666D01*
X126214166Y-101479880D02*
X126547500Y-101003690D01*
X126785595Y-101479880D02*
X126785595Y-100479880D01*
X126404642Y-100479880D01*
X126309404Y-100527500D01*
X126261785Y-100575119D01*
X126214166Y-100670357D01*
X126214166Y-100813214D01*
X126261785Y-100908452D01*
X126309404Y-100956071D01*
X126404642Y-101003690D01*
X126785595Y-101003690D01*
X125880833Y-100479880D02*
X125261785Y-100479880D01*
X125595119Y-100860833D01*
X125452261Y-100860833D01*
X125357023Y-100908452D01*
X125309404Y-100956071D01*
X125261785Y-101051309D01*
X125261785Y-101289404D01*
X125309404Y-101384642D01*
X125357023Y-101432261D01*
X125452261Y-101479880D01*
X125737976Y-101479880D01*
X125833214Y-101432261D01*
X125880833Y-101384642D01*
X126214166Y-101227880D02*
X126547500Y-100751690D01*
X126785595Y-101227880D02*
X126785595Y-100227880D01*
X126404642Y-100227880D01*
X126309404Y-100275500D01*
X126261785Y-100323119D01*
X126214166Y-100418357D01*
X126214166Y-100561214D01*
X126261785Y-100656452D01*
X126309404Y-100704071D01*
X126404642Y-100751690D01*
X126785595Y-100751690D01*
X125833214Y-100323119D02*
X125785595Y-100275500D01*
X125690357Y-100227880D01*
X125452261Y-100227880D01*
X125357023Y-100275500D01*
X125309404Y-100323119D01*
X125261785Y-100418357D01*
X125261785Y-100513595D01*
X125309404Y-100656452D01*
X125880833Y-101227880D01*
X125261785Y-101227880D01*
X137001619Y-103247761D02*
X136954000Y-103152523D01*
X136858761Y-103057285D01*
X136715904Y-102914428D01*
X136668285Y-102819190D01*
X136668285Y-102723952D01*
X136906380Y-102771571D02*
X136858761Y-102676333D01*
X136763523Y-102581095D01*
X136573047Y-102533476D01*
X136239714Y-102533476D01*
X136049238Y-102581095D01*
X135954000Y-102676333D01*
X135906380Y-102771571D01*
X135906380Y-102962047D01*
X135954000Y-103057285D01*
X136049238Y-103152523D01*
X136239714Y-103200142D01*
X136573047Y-103200142D01*
X136763523Y-103152523D01*
X136858761Y-103057285D01*
X136906380Y-102962047D01*
X136906380Y-102771571D01*
X136001619Y-103581095D02*
X135954000Y-103628714D01*
X135906380Y-103723952D01*
X135906380Y-103962047D01*
X135954000Y-104057285D01*
X136001619Y-104104904D01*
X136096857Y-104152523D01*
X136192095Y-104152523D01*
X136334952Y-104104904D01*
X136906380Y-103533476D01*
X136906380Y-104152523D01*
X125089619Y-99397761D02*
X125042000Y-99302523D01*
X124946761Y-99207285D01*
X124803904Y-99064428D01*
X124756285Y-98969190D01*
X124756285Y-98873952D01*
X124994380Y-98921571D02*
X124946761Y-98826333D01*
X124851523Y-98731095D01*
X124661047Y-98683476D01*
X124327714Y-98683476D01*
X124137238Y-98731095D01*
X124042000Y-98826333D01*
X123994380Y-98921571D01*
X123994380Y-99112047D01*
X124042000Y-99207285D01*
X124137238Y-99302523D01*
X124327714Y-99350142D01*
X124661047Y-99350142D01*
X124851523Y-99302523D01*
X124946761Y-99207285D01*
X124994380Y-99112047D01*
X124994380Y-98921571D01*
X124994380Y-100302523D02*
X124994380Y-99731095D01*
X124994380Y-100016809D02*
X123994380Y-100016809D01*
X124137238Y-99921571D01*
X124232476Y-99826333D01*
X124280095Y-99731095D01*
M02*
