G04 #@! TF.GenerationSoftware,KiCad,Pcbnew,5.1.5+dfsg1-2build2*
G04 #@! TF.CreationDate,2020-10-04T20:54:39+02:00*
G04 #@! TF.ProjectId,transistor_board,7472616e-7369-4737-946f-725f626f6172,rev?*
G04 #@! TF.SameCoordinates,Original*
G04 #@! TF.FileFunction,Copper,L2,Bot*
G04 #@! TF.FilePolarity,Positive*
%FSLAX46Y46*%
G04 Gerber Fmt 4.6, Leading zero omitted, Abs format (unit mm)*
G04 Created by KiCad (PCBNEW 5.1.5+dfsg1-2build2) date 2020-10-04 20:54:39*
%MOMM*%
%LPD*%
G04 APERTURE LIST*
%ADD10C,1.700000*%
%ADD11C,0.100000*%
%ADD12R,0.900000X0.800000*%
%ADD13R,0.600000X1.300000*%
%ADD14R,1.500000X2.000000*%
%ADD15R,5.800000X6.400000*%
%ADD16R,1.200000X2.200000*%
%ADD17O,1.905000X2.000000*%
%ADD18R,1.905000X2.000000*%
%ADD19O,1.700000X1.700000*%
%ADD20R,1.700000X1.700000*%
%ADD21C,0.800000*%
%ADD22C,0.500000*%
%ADD23C,0.250000*%
%ADD24C,0.254000*%
G04 APERTURE END LIST*
D10*
X114300000Y-119253000D03*
X114300000Y-116713000D03*
X137160000Y-101473000D03*
X137160000Y-104013000D03*
X137160000Y-106553000D03*
X137160000Y-109093000D03*
X137160000Y-111633000D03*
X137160000Y-114173000D03*
X137160000Y-116713000D03*
X137160000Y-119253000D03*
G04 #@! TA.AperFunction,SMDPad,CuDef*
D11*
G36*
X136704505Y-122918204D02*
G01*
X136728773Y-122921804D01*
X136752572Y-122927765D01*
X136775671Y-122936030D01*
X136797850Y-122946520D01*
X136818893Y-122959132D01*
X136838599Y-122973747D01*
X136856777Y-122990223D01*
X136873253Y-123008401D01*
X136887868Y-123028107D01*
X136900480Y-123049150D01*
X136910970Y-123071329D01*
X136919235Y-123094428D01*
X136925196Y-123118227D01*
X136928796Y-123142495D01*
X136930000Y-123166999D01*
X136930000Y-124017001D01*
X136928796Y-124041505D01*
X136925196Y-124065773D01*
X136919235Y-124089572D01*
X136910970Y-124112671D01*
X136900480Y-124134850D01*
X136887868Y-124155893D01*
X136873253Y-124175599D01*
X136856777Y-124193777D01*
X136838599Y-124210253D01*
X136818893Y-124224868D01*
X136797850Y-124237480D01*
X136775671Y-124247970D01*
X136752572Y-124256235D01*
X136728773Y-124262196D01*
X136704505Y-124265796D01*
X136680001Y-124267000D01*
X133829999Y-124267000D01*
X133805495Y-124265796D01*
X133781227Y-124262196D01*
X133757428Y-124256235D01*
X133734329Y-124247970D01*
X133712150Y-124237480D01*
X133691107Y-124224868D01*
X133671401Y-124210253D01*
X133653223Y-124193777D01*
X133636747Y-124175599D01*
X133622132Y-124155893D01*
X133609520Y-124134850D01*
X133599030Y-124112671D01*
X133590765Y-124089572D01*
X133584804Y-124065773D01*
X133581204Y-124041505D01*
X133580000Y-124017001D01*
X133580000Y-123166999D01*
X133581204Y-123142495D01*
X133584804Y-123118227D01*
X133590765Y-123094428D01*
X133599030Y-123071329D01*
X133609520Y-123049150D01*
X133622132Y-123028107D01*
X133636747Y-123008401D01*
X133653223Y-122990223D01*
X133671401Y-122973747D01*
X133691107Y-122959132D01*
X133712150Y-122946520D01*
X133734329Y-122936030D01*
X133757428Y-122927765D01*
X133781227Y-122921804D01*
X133805495Y-122918204D01*
X133829999Y-122917000D01*
X136680001Y-122917000D01*
X136704505Y-122918204D01*
G37*
G04 #@! TD.AperFunction*
G04 #@! TA.AperFunction,SMDPad,CuDef*
G36*
X136704505Y-128718204D02*
G01*
X136728773Y-128721804D01*
X136752572Y-128727765D01*
X136775671Y-128736030D01*
X136797850Y-128746520D01*
X136818893Y-128759132D01*
X136838599Y-128773747D01*
X136856777Y-128790223D01*
X136873253Y-128808401D01*
X136887868Y-128828107D01*
X136900480Y-128849150D01*
X136910970Y-128871329D01*
X136919235Y-128894428D01*
X136925196Y-128918227D01*
X136928796Y-128942495D01*
X136930000Y-128966999D01*
X136930000Y-129817001D01*
X136928796Y-129841505D01*
X136925196Y-129865773D01*
X136919235Y-129889572D01*
X136910970Y-129912671D01*
X136900480Y-129934850D01*
X136887868Y-129955893D01*
X136873253Y-129975599D01*
X136856777Y-129993777D01*
X136838599Y-130010253D01*
X136818893Y-130024868D01*
X136797850Y-130037480D01*
X136775671Y-130047970D01*
X136752572Y-130056235D01*
X136728773Y-130062196D01*
X136704505Y-130065796D01*
X136680001Y-130067000D01*
X133829999Y-130067000D01*
X133805495Y-130065796D01*
X133781227Y-130062196D01*
X133757428Y-130056235D01*
X133734329Y-130047970D01*
X133712150Y-130037480D01*
X133691107Y-130024868D01*
X133671401Y-130010253D01*
X133653223Y-129993777D01*
X133636747Y-129975599D01*
X133622132Y-129955893D01*
X133609520Y-129934850D01*
X133599030Y-129912671D01*
X133590765Y-129889572D01*
X133584804Y-129865773D01*
X133581204Y-129841505D01*
X133580000Y-129817001D01*
X133580000Y-128966999D01*
X133581204Y-128942495D01*
X133584804Y-128918227D01*
X133590765Y-128894428D01*
X133599030Y-128871329D01*
X133609520Y-128849150D01*
X133622132Y-128828107D01*
X133636747Y-128808401D01*
X133653223Y-128790223D01*
X133671401Y-128773747D01*
X133691107Y-128759132D01*
X133712150Y-128746520D01*
X133734329Y-128736030D01*
X133757428Y-128727765D01*
X133781227Y-128721804D01*
X133805495Y-128718204D01*
X133829999Y-128717000D01*
X136680001Y-128717000D01*
X136704505Y-128718204D01*
G37*
G04 #@! TD.AperFunction*
D12*
X132223000Y-111760000D03*
X134223000Y-112710000D03*
X134223000Y-110810000D03*
X132223000Y-116586000D03*
X134223000Y-117536000D03*
X134223000Y-115636000D03*
D13*
X125150000Y-105750000D03*
X127050000Y-105750000D03*
X126100000Y-107850000D03*
D14*
X118735000Y-121845000D03*
X123835000Y-121845000D03*
X123835000Y-113105000D03*
X118735000Y-113105000D03*
G04 #@! TA.AperFunction,SMDPad,CuDef*
D11*
G36*
X134724505Y-119697204D02*
G01*
X134748773Y-119700804D01*
X134772572Y-119706765D01*
X134795671Y-119715030D01*
X134817850Y-119725520D01*
X134838893Y-119738132D01*
X134858599Y-119752747D01*
X134876777Y-119769223D01*
X134893253Y-119787401D01*
X134907868Y-119807107D01*
X134920480Y-119828150D01*
X134930970Y-119850329D01*
X134939235Y-119873428D01*
X134945196Y-119897227D01*
X134948796Y-119921495D01*
X134950000Y-119945999D01*
X134950000Y-120846001D01*
X134948796Y-120870505D01*
X134945196Y-120894773D01*
X134939235Y-120918572D01*
X134930970Y-120941671D01*
X134920480Y-120963850D01*
X134907868Y-120984893D01*
X134893253Y-121004599D01*
X134876777Y-121022777D01*
X134858599Y-121039253D01*
X134838893Y-121053868D01*
X134817850Y-121066480D01*
X134795671Y-121076970D01*
X134772572Y-121085235D01*
X134748773Y-121091196D01*
X134724505Y-121094796D01*
X134700001Y-121096000D01*
X134049999Y-121096000D01*
X134025495Y-121094796D01*
X134001227Y-121091196D01*
X133977428Y-121085235D01*
X133954329Y-121076970D01*
X133932150Y-121066480D01*
X133911107Y-121053868D01*
X133891401Y-121039253D01*
X133873223Y-121022777D01*
X133856747Y-121004599D01*
X133842132Y-120984893D01*
X133829520Y-120963850D01*
X133819030Y-120941671D01*
X133810765Y-120918572D01*
X133804804Y-120894773D01*
X133801204Y-120870505D01*
X133800000Y-120846001D01*
X133800000Y-119945999D01*
X133801204Y-119921495D01*
X133804804Y-119897227D01*
X133810765Y-119873428D01*
X133819030Y-119850329D01*
X133829520Y-119828150D01*
X133842132Y-119807107D01*
X133856747Y-119787401D01*
X133873223Y-119769223D01*
X133891401Y-119752747D01*
X133911107Y-119738132D01*
X133932150Y-119725520D01*
X133954329Y-119715030D01*
X133977428Y-119706765D01*
X134001227Y-119700804D01*
X134025495Y-119697204D01*
X134049999Y-119696000D01*
X134700001Y-119696000D01*
X134724505Y-119697204D01*
G37*
G04 #@! TD.AperFunction*
G04 #@! TA.AperFunction,SMDPad,CuDef*
G36*
X132674505Y-119697204D02*
G01*
X132698773Y-119700804D01*
X132722572Y-119706765D01*
X132745671Y-119715030D01*
X132767850Y-119725520D01*
X132788893Y-119738132D01*
X132808599Y-119752747D01*
X132826777Y-119769223D01*
X132843253Y-119787401D01*
X132857868Y-119807107D01*
X132870480Y-119828150D01*
X132880970Y-119850329D01*
X132889235Y-119873428D01*
X132895196Y-119897227D01*
X132898796Y-119921495D01*
X132900000Y-119945999D01*
X132900000Y-120846001D01*
X132898796Y-120870505D01*
X132895196Y-120894773D01*
X132889235Y-120918572D01*
X132880970Y-120941671D01*
X132870480Y-120963850D01*
X132857868Y-120984893D01*
X132843253Y-121004599D01*
X132826777Y-121022777D01*
X132808599Y-121039253D01*
X132788893Y-121053868D01*
X132767850Y-121066480D01*
X132745671Y-121076970D01*
X132722572Y-121085235D01*
X132698773Y-121091196D01*
X132674505Y-121094796D01*
X132650001Y-121096000D01*
X131999999Y-121096000D01*
X131975495Y-121094796D01*
X131951227Y-121091196D01*
X131927428Y-121085235D01*
X131904329Y-121076970D01*
X131882150Y-121066480D01*
X131861107Y-121053868D01*
X131841401Y-121039253D01*
X131823223Y-121022777D01*
X131806747Y-121004599D01*
X131792132Y-120984893D01*
X131779520Y-120963850D01*
X131769030Y-120941671D01*
X131760765Y-120918572D01*
X131754804Y-120894773D01*
X131751204Y-120870505D01*
X131750000Y-120846001D01*
X131750000Y-119945999D01*
X131751204Y-119921495D01*
X131754804Y-119897227D01*
X131760765Y-119873428D01*
X131769030Y-119850329D01*
X131779520Y-119828150D01*
X131792132Y-119807107D01*
X131806747Y-119787401D01*
X131823223Y-119769223D01*
X131841401Y-119752747D01*
X131861107Y-119738132D01*
X131882150Y-119725520D01*
X131904329Y-119715030D01*
X131927428Y-119706765D01*
X131951227Y-119700804D01*
X131975495Y-119697204D01*
X131999999Y-119696000D01*
X132650001Y-119696000D01*
X132674505Y-119697204D01*
G37*
G04 #@! TD.AperFunction*
G04 #@! TA.AperFunction,SMDPad,CuDef*
G36*
X114774505Y-123641204D02*
G01*
X114798773Y-123644804D01*
X114822572Y-123650765D01*
X114845671Y-123659030D01*
X114867850Y-123669520D01*
X114888893Y-123682132D01*
X114908599Y-123696747D01*
X114926777Y-123713223D01*
X114943253Y-123731401D01*
X114957868Y-123751107D01*
X114970480Y-123772150D01*
X114980970Y-123794329D01*
X114989235Y-123817428D01*
X114995196Y-123841227D01*
X114998796Y-123865495D01*
X115000000Y-123889999D01*
X115000000Y-124540001D01*
X114998796Y-124564505D01*
X114995196Y-124588773D01*
X114989235Y-124612572D01*
X114980970Y-124635671D01*
X114970480Y-124657850D01*
X114957868Y-124678893D01*
X114943253Y-124698599D01*
X114926777Y-124716777D01*
X114908599Y-124733253D01*
X114888893Y-124747868D01*
X114867850Y-124760480D01*
X114845671Y-124770970D01*
X114822572Y-124779235D01*
X114798773Y-124785196D01*
X114774505Y-124788796D01*
X114750001Y-124790000D01*
X113849999Y-124790000D01*
X113825495Y-124788796D01*
X113801227Y-124785196D01*
X113777428Y-124779235D01*
X113754329Y-124770970D01*
X113732150Y-124760480D01*
X113711107Y-124747868D01*
X113691401Y-124733253D01*
X113673223Y-124716777D01*
X113656747Y-124698599D01*
X113642132Y-124678893D01*
X113629520Y-124657850D01*
X113619030Y-124635671D01*
X113610765Y-124612572D01*
X113604804Y-124588773D01*
X113601204Y-124564505D01*
X113600000Y-124540001D01*
X113600000Y-123889999D01*
X113601204Y-123865495D01*
X113604804Y-123841227D01*
X113610765Y-123817428D01*
X113619030Y-123794329D01*
X113629520Y-123772150D01*
X113642132Y-123751107D01*
X113656747Y-123731401D01*
X113673223Y-123713223D01*
X113691401Y-123696747D01*
X113711107Y-123682132D01*
X113732150Y-123669520D01*
X113754329Y-123659030D01*
X113777428Y-123650765D01*
X113801227Y-123644804D01*
X113825495Y-123641204D01*
X113849999Y-123640000D01*
X114750001Y-123640000D01*
X114774505Y-123641204D01*
G37*
G04 #@! TD.AperFunction*
G04 #@! TA.AperFunction,SMDPad,CuDef*
G36*
X114774505Y-121591204D02*
G01*
X114798773Y-121594804D01*
X114822572Y-121600765D01*
X114845671Y-121609030D01*
X114867850Y-121619520D01*
X114888893Y-121632132D01*
X114908599Y-121646747D01*
X114926777Y-121663223D01*
X114943253Y-121681401D01*
X114957868Y-121701107D01*
X114970480Y-121722150D01*
X114980970Y-121744329D01*
X114989235Y-121767428D01*
X114995196Y-121791227D01*
X114998796Y-121815495D01*
X115000000Y-121839999D01*
X115000000Y-122490001D01*
X114998796Y-122514505D01*
X114995196Y-122538773D01*
X114989235Y-122562572D01*
X114980970Y-122585671D01*
X114970480Y-122607850D01*
X114957868Y-122628893D01*
X114943253Y-122648599D01*
X114926777Y-122666777D01*
X114908599Y-122683253D01*
X114888893Y-122697868D01*
X114867850Y-122710480D01*
X114845671Y-122720970D01*
X114822572Y-122729235D01*
X114798773Y-122735196D01*
X114774505Y-122738796D01*
X114750001Y-122740000D01*
X113849999Y-122740000D01*
X113825495Y-122738796D01*
X113801227Y-122735196D01*
X113777428Y-122729235D01*
X113754329Y-122720970D01*
X113732150Y-122710480D01*
X113711107Y-122697868D01*
X113691401Y-122683253D01*
X113673223Y-122666777D01*
X113656747Y-122648599D01*
X113642132Y-122628893D01*
X113629520Y-122607850D01*
X113619030Y-122585671D01*
X113610765Y-122562572D01*
X113604804Y-122538773D01*
X113601204Y-122514505D01*
X113600000Y-122490001D01*
X113600000Y-121839999D01*
X113601204Y-121815495D01*
X113604804Y-121791227D01*
X113610765Y-121767428D01*
X113619030Y-121744329D01*
X113629520Y-121722150D01*
X113642132Y-121701107D01*
X113656747Y-121681401D01*
X113673223Y-121663223D01*
X113691401Y-121646747D01*
X113711107Y-121632132D01*
X113732150Y-121619520D01*
X113754329Y-121609030D01*
X113777428Y-121600765D01*
X113801227Y-121594804D01*
X113825495Y-121591204D01*
X113849999Y-121590000D01*
X114750001Y-121590000D01*
X114774505Y-121591204D01*
G37*
G04 #@! TD.AperFunction*
G04 #@! TA.AperFunction,SMDPad,CuDef*
G36*
X114774505Y-125909204D02*
G01*
X114798773Y-125912804D01*
X114822572Y-125918765D01*
X114845671Y-125927030D01*
X114867850Y-125937520D01*
X114888893Y-125950132D01*
X114908599Y-125964747D01*
X114926777Y-125981223D01*
X114943253Y-125999401D01*
X114957868Y-126019107D01*
X114970480Y-126040150D01*
X114980970Y-126062329D01*
X114989235Y-126085428D01*
X114995196Y-126109227D01*
X114998796Y-126133495D01*
X115000000Y-126157999D01*
X115000000Y-126808001D01*
X114998796Y-126832505D01*
X114995196Y-126856773D01*
X114989235Y-126880572D01*
X114980970Y-126903671D01*
X114970480Y-126925850D01*
X114957868Y-126946893D01*
X114943253Y-126966599D01*
X114926777Y-126984777D01*
X114908599Y-127001253D01*
X114888893Y-127015868D01*
X114867850Y-127028480D01*
X114845671Y-127038970D01*
X114822572Y-127047235D01*
X114798773Y-127053196D01*
X114774505Y-127056796D01*
X114750001Y-127058000D01*
X113849999Y-127058000D01*
X113825495Y-127056796D01*
X113801227Y-127053196D01*
X113777428Y-127047235D01*
X113754329Y-127038970D01*
X113732150Y-127028480D01*
X113711107Y-127015868D01*
X113691401Y-127001253D01*
X113673223Y-126984777D01*
X113656747Y-126966599D01*
X113642132Y-126946893D01*
X113629520Y-126925850D01*
X113619030Y-126903671D01*
X113610765Y-126880572D01*
X113604804Y-126856773D01*
X113601204Y-126832505D01*
X113600000Y-126808001D01*
X113600000Y-126157999D01*
X113601204Y-126133495D01*
X113604804Y-126109227D01*
X113610765Y-126085428D01*
X113619030Y-126062329D01*
X113629520Y-126040150D01*
X113642132Y-126019107D01*
X113656747Y-125999401D01*
X113673223Y-125981223D01*
X113691401Y-125964747D01*
X113711107Y-125950132D01*
X113732150Y-125937520D01*
X113754329Y-125927030D01*
X113777428Y-125918765D01*
X113801227Y-125912804D01*
X113825495Y-125909204D01*
X113849999Y-125908000D01*
X114750001Y-125908000D01*
X114774505Y-125909204D01*
G37*
G04 #@! TD.AperFunction*
G04 #@! TA.AperFunction,SMDPad,CuDef*
G36*
X114774505Y-127959204D02*
G01*
X114798773Y-127962804D01*
X114822572Y-127968765D01*
X114845671Y-127977030D01*
X114867850Y-127987520D01*
X114888893Y-128000132D01*
X114908599Y-128014747D01*
X114926777Y-128031223D01*
X114943253Y-128049401D01*
X114957868Y-128069107D01*
X114970480Y-128090150D01*
X114980970Y-128112329D01*
X114989235Y-128135428D01*
X114995196Y-128159227D01*
X114998796Y-128183495D01*
X115000000Y-128207999D01*
X115000000Y-128858001D01*
X114998796Y-128882505D01*
X114995196Y-128906773D01*
X114989235Y-128930572D01*
X114980970Y-128953671D01*
X114970480Y-128975850D01*
X114957868Y-128996893D01*
X114943253Y-129016599D01*
X114926777Y-129034777D01*
X114908599Y-129051253D01*
X114888893Y-129065868D01*
X114867850Y-129078480D01*
X114845671Y-129088970D01*
X114822572Y-129097235D01*
X114798773Y-129103196D01*
X114774505Y-129106796D01*
X114750001Y-129108000D01*
X113849999Y-129108000D01*
X113825495Y-129106796D01*
X113801227Y-129103196D01*
X113777428Y-129097235D01*
X113754329Y-129088970D01*
X113732150Y-129078480D01*
X113711107Y-129065868D01*
X113691401Y-129051253D01*
X113673223Y-129034777D01*
X113656747Y-129016599D01*
X113642132Y-128996893D01*
X113629520Y-128975850D01*
X113619030Y-128953671D01*
X113610765Y-128930572D01*
X113604804Y-128906773D01*
X113601204Y-128882505D01*
X113600000Y-128858001D01*
X113600000Y-128207999D01*
X113601204Y-128183495D01*
X113604804Y-128159227D01*
X113610765Y-128135428D01*
X113619030Y-128112329D01*
X113629520Y-128090150D01*
X113642132Y-128069107D01*
X113656747Y-128049401D01*
X113673223Y-128031223D01*
X113691401Y-128014747D01*
X113711107Y-128000132D01*
X113732150Y-127987520D01*
X113754329Y-127977030D01*
X113777428Y-127968765D01*
X113801227Y-127962804D01*
X113825495Y-127959204D01*
X113849999Y-127958000D01*
X114750001Y-127958000D01*
X114774505Y-127959204D01*
G37*
G04 #@! TD.AperFunction*
G04 #@! TA.AperFunction,SMDPad,CuDef*
G36*
X127252642Y-98678674D02*
G01*
X127276303Y-98682184D01*
X127299507Y-98687996D01*
X127322029Y-98696054D01*
X127343653Y-98706282D01*
X127364170Y-98718579D01*
X127383383Y-98732829D01*
X127401107Y-98748893D01*
X127417171Y-98766617D01*
X127431421Y-98785830D01*
X127443718Y-98806347D01*
X127453946Y-98827971D01*
X127462004Y-98850493D01*
X127467816Y-98873697D01*
X127471326Y-98897358D01*
X127472500Y-98921250D01*
X127472500Y-99833750D01*
X127471326Y-99857642D01*
X127467816Y-99881303D01*
X127462004Y-99904507D01*
X127453946Y-99927029D01*
X127443718Y-99948653D01*
X127431421Y-99969170D01*
X127417171Y-99988383D01*
X127401107Y-100006107D01*
X127383383Y-100022171D01*
X127364170Y-100036421D01*
X127343653Y-100048718D01*
X127322029Y-100058946D01*
X127299507Y-100067004D01*
X127276303Y-100072816D01*
X127252642Y-100076326D01*
X127228750Y-100077500D01*
X126741250Y-100077500D01*
X126717358Y-100076326D01*
X126693697Y-100072816D01*
X126670493Y-100067004D01*
X126647971Y-100058946D01*
X126626347Y-100048718D01*
X126605830Y-100036421D01*
X126586617Y-100022171D01*
X126568893Y-100006107D01*
X126552829Y-99988383D01*
X126538579Y-99969170D01*
X126526282Y-99948653D01*
X126516054Y-99927029D01*
X126507996Y-99904507D01*
X126502184Y-99881303D01*
X126498674Y-99857642D01*
X126497500Y-99833750D01*
X126497500Y-98921250D01*
X126498674Y-98897358D01*
X126502184Y-98873697D01*
X126507996Y-98850493D01*
X126516054Y-98827971D01*
X126526282Y-98806347D01*
X126538579Y-98785830D01*
X126552829Y-98766617D01*
X126568893Y-98748893D01*
X126586617Y-98732829D01*
X126605830Y-98718579D01*
X126626347Y-98706282D01*
X126647971Y-98696054D01*
X126670493Y-98687996D01*
X126693697Y-98682184D01*
X126717358Y-98678674D01*
X126741250Y-98677500D01*
X127228750Y-98677500D01*
X127252642Y-98678674D01*
G37*
G04 #@! TD.AperFunction*
G04 #@! TA.AperFunction,SMDPad,CuDef*
G36*
X125377642Y-98678674D02*
G01*
X125401303Y-98682184D01*
X125424507Y-98687996D01*
X125447029Y-98696054D01*
X125468653Y-98706282D01*
X125489170Y-98718579D01*
X125508383Y-98732829D01*
X125526107Y-98748893D01*
X125542171Y-98766617D01*
X125556421Y-98785830D01*
X125568718Y-98806347D01*
X125578946Y-98827971D01*
X125587004Y-98850493D01*
X125592816Y-98873697D01*
X125596326Y-98897358D01*
X125597500Y-98921250D01*
X125597500Y-99833750D01*
X125596326Y-99857642D01*
X125592816Y-99881303D01*
X125587004Y-99904507D01*
X125578946Y-99927029D01*
X125568718Y-99948653D01*
X125556421Y-99969170D01*
X125542171Y-99988383D01*
X125526107Y-100006107D01*
X125508383Y-100022171D01*
X125489170Y-100036421D01*
X125468653Y-100048718D01*
X125447029Y-100058946D01*
X125424507Y-100067004D01*
X125401303Y-100072816D01*
X125377642Y-100076326D01*
X125353750Y-100077500D01*
X124866250Y-100077500D01*
X124842358Y-100076326D01*
X124818697Y-100072816D01*
X124795493Y-100067004D01*
X124772971Y-100058946D01*
X124751347Y-100048718D01*
X124730830Y-100036421D01*
X124711617Y-100022171D01*
X124693893Y-100006107D01*
X124677829Y-99988383D01*
X124663579Y-99969170D01*
X124651282Y-99948653D01*
X124641054Y-99927029D01*
X124632996Y-99904507D01*
X124627184Y-99881303D01*
X124623674Y-99857642D01*
X124622500Y-99833750D01*
X124622500Y-98921250D01*
X124623674Y-98897358D01*
X124627184Y-98873697D01*
X124632996Y-98850493D01*
X124641054Y-98827971D01*
X124651282Y-98806347D01*
X124663579Y-98785830D01*
X124677829Y-98766617D01*
X124693893Y-98748893D01*
X124711617Y-98732829D01*
X124730830Y-98718579D01*
X124751347Y-98706282D01*
X124772971Y-98696054D01*
X124795493Y-98687996D01*
X124818697Y-98682184D01*
X124842358Y-98678674D01*
X124866250Y-98677500D01*
X125353750Y-98677500D01*
X125377642Y-98678674D01*
G37*
G04 #@! TD.AperFunction*
G04 #@! TA.AperFunction,SMDPad,CuDef*
G36*
X125377642Y-101726674D02*
G01*
X125401303Y-101730184D01*
X125424507Y-101735996D01*
X125447029Y-101744054D01*
X125468653Y-101754282D01*
X125489170Y-101766579D01*
X125508383Y-101780829D01*
X125526107Y-101796893D01*
X125542171Y-101814617D01*
X125556421Y-101833830D01*
X125568718Y-101854347D01*
X125578946Y-101875971D01*
X125587004Y-101898493D01*
X125592816Y-101921697D01*
X125596326Y-101945358D01*
X125597500Y-101969250D01*
X125597500Y-102881750D01*
X125596326Y-102905642D01*
X125592816Y-102929303D01*
X125587004Y-102952507D01*
X125578946Y-102975029D01*
X125568718Y-102996653D01*
X125556421Y-103017170D01*
X125542171Y-103036383D01*
X125526107Y-103054107D01*
X125508383Y-103070171D01*
X125489170Y-103084421D01*
X125468653Y-103096718D01*
X125447029Y-103106946D01*
X125424507Y-103115004D01*
X125401303Y-103120816D01*
X125377642Y-103124326D01*
X125353750Y-103125500D01*
X124866250Y-103125500D01*
X124842358Y-103124326D01*
X124818697Y-103120816D01*
X124795493Y-103115004D01*
X124772971Y-103106946D01*
X124751347Y-103096718D01*
X124730830Y-103084421D01*
X124711617Y-103070171D01*
X124693893Y-103054107D01*
X124677829Y-103036383D01*
X124663579Y-103017170D01*
X124651282Y-102996653D01*
X124641054Y-102975029D01*
X124632996Y-102952507D01*
X124627184Y-102929303D01*
X124623674Y-102905642D01*
X124622500Y-102881750D01*
X124622500Y-101969250D01*
X124623674Y-101945358D01*
X124627184Y-101921697D01*
X124632996Y-101898493D01*
X124641054Y-101875971D01*
X124651282Y-101854347D01*
X124663579Y-101833830D01*
X124677829Y-101814617D01*
X124693893Y-101796893D01*
X124711617Y-101780829D01*
X124730830Y-101766579D01*
X124751347Y-101754282D01*
X124772971Y-101744054D01*
X124795493Y-101735996D01*
X124818697Y-101730184D01*
X124842358Y-101726674D01*
X124866250Y-101725500D01*
X125353750Y-101725500D01*
X125377642Y-101726674D01*
G37*
G04 #@! TD.AperFunction*
G04 #@! TA.AperFunction,SMDPad,CuDef*
G36*
X127252642Y-101726674D02*
G01*
X127276303Y-101730184D01*
X127299507Y-101735996D01*
X127322029Y-101744054D01*
X127343653Y-101754282D01*
X127364170Y-101766579D01*
X127383383Y-101780829D01*
X127401107Y-101796893D01*
X127417171Y-101814617D01*
X127431421Y-101833830D01*
X127443718Y-101854347D01*
X127453946Y-101875971D01*
X127462004Y-101898493D01*
X127467816Y-101921697D01*
X127471326Y-101945358D01*
X127472500Y-101969250D01*
X127472500Y-102881750D01*
X127471326Y-102905642D01*
X127467816Y-102929303D01*
X127462004Y-102952507D01*
X127453946Y-102975029D01*
X127443718Y-102996653D01*
X127431421Y-103017170D01*
X127417171Y-103036383D01*
X127401107Y-103054107D01*
X127383383Y-103070171D01*
X127364170Y-103084421D01*
X127343653Y-103096718D01*
X127322029Y-103106946D01*
X127299507Y-103115004D01*
X127276303Y-103120816D01*
X127252642Y-103124326D01*
X127228750Y-103125500D01*
X126741250Y-103125500D01*
X126717358Y-103124326D01*
X126693697Y-103120816D01*
X126670493Y-103115004D01*
X126647971Y-103106946D01*
X126626347Y-103096718D01*
X126605830Y-103084421D01*
X126586617Y-103070171D01*
X126568893Y-103054107D01*
X126552829Y-103036383D01*
X126538579Y-103017170D01*
X126526282Y-102996653D01*
X126516054Y-102975029D01*
X126507996Y-102952507D01*
X126502184Y-102929303D01*
X126498674Y-102905642D01*
X126497500Y-102881750D01*
X126497500Y-101969250D01*
X126498674Y-101945358D01*
X126502184Y-101921697D01*
X126507996Y-101898493D01*
X126516054Y-101875971D01*
X126526282Y-101854347D01*
X126538579Y-101833830D01*
X126552829Y-101814617D01*
X126568893Y-101796893D01*
X126586617Y-101780829D01*
X126605830Y-101766579D01*
X126626347Y-101754282D01*
X126647971Y-101744054D01*
X126670493Y-101735996D01*
X126693697Y-101730184D01*
X126717358Y-101726674D01*
X126741250Y-101725500D01*
X127228750Y-101725500D01*
X127252642Y-101726674D01*
G37*
G04 #@! TD.AperFunction*
D15*
X131954000Y-101243000D03*
D16*
X129674000Y-107543000D03*
X131954000Y-107543000D03*
X134234000Y-107543000D03*
D15*
X120142000Y-101243000D03*
D16*
X117862000Y-107543000D03*
X120142000Y-107543000D03*
X122422000Y-107543000D03*
D17*
X121920000Y-126365000D03*
X124460000Y-126365000D03*
D18*
X127000000Y-126365000D03*
D19*
X114300000Y-133985000D03*
X116840000Y-133985000D03*
X119380000Y-133985000D03*
X121920000Y-133985000D03*
X124460000Y-133985000D03*
X127000000Y-133985000D03*
X129540000Y-133985000D03*
X132080000Y-133985000D03*
X134620000Y-133985000D03*
D20*
X137160000Y-133985000D03*
D21*
X122110500Y-103632000D03*
X118110000Y-103568500D03*
X122110500Y-98996500D03*
X118110000Y-98996500D03*
X133858000Y-103632000D03*
X130111500Y-103632000D03*
X133794500Y-99060000D03*
X130111500Y-99060000D03*
X134175500Y-114109500D03*
X121475500Y-113157000D03*
X120269000Y-115824000D03*
X130937000Y-109855000D03*
X135763002Y-121856500D03*
X116586000Y-121602500D03*
X116014500Y-125349000D03*
X133159500Y-131000500D03*
X128206500Y-130619500D03*
X121412000Y-128714500D03*
X135128000Y-125984000D03*
X115824000Y-128524000D03*
X126492000Y-110490000D03*
X131572000Y-117856000D03*
X132905500Y-118110000D03*
X124650500Y-110363004D03*
X135476999Y-110903001D03*
X120332500Y-118427500D03*
X125984000Y-100774500D03*
X129413000Y-113982500D03*
X122555000Y-123507500D03*
X124984001Y-131143501D03*
X129667000Y-115506500D03*
D22*
X123835000Y-114605000D02*
X123835000Y-113105000D01*
X123835000Y-115426963D02*
X123835000Y-114605000D01*
X128804037Y-120396000D02*
X123835000Y-115426963D01*
X132325000Y-120396000D02*
X128804037Y-120396000D01*
X131954000Y-101243000D02*
X131954000Y-101543000D01*
X121475500Y-113157000D02*
X122872500Y-113157000D01*
D23*
X134175500Y-112757500D02*
X134223000Y-112710000D01*
X134175500Y-114109500D02*
X134175500Y-112757500D01*
X133223000Y-110162000D02*
X131954000Y-108893000D01*
X131954000Y-108893000D02*
X131954000Y-107543000D01*
X133223000Y-111760000D02*
X133223000Y-110162000D01*
X134173000Y-112710000D02*
X133223000Y-111760000D01*
X134223000Y-112710000D02*
X134173000Y-112710000D01*
X134173000Y-117536000D02*
X133223000Y-116586000D01*
X134223000Y-117536000D02*
X134173000Y-117536000D01*
X133223000Y-115062000D02*
X134175500Y-114109500D01*
X133223000Y-116586000D02*
X133223000Y-115062000D01*
X120142000Y-101543000D02*
X120142000Y-101243000D01*
D22*
X116936999Y-104741501D02*
X117710001Y-103968499D01*
D23*
X117710001Y-103968499D02*
X118110000Y-103568500D01*
X116713000Y-104965500D02*
X116936999Y-104741501D01*
X116713000Y-113418002D02*
X116713000Y-104965500D01*
X116936999Y-113642001D02*
X116713000Y-113418002D01*
D22*
X132325000Y-120396000D02*
X132325000Y-121096000D01*
X133085500Y-121856500D02*
X135197317Y-121856500D01*
X132325000Y-121096000D02*
X133085500Y-121856500D01*
X135197317Y-121856500D02*
X135763002Y-121856500D01*
D23*
X128206500Y-98044000D02*
X123825000Y-98044000D01*
X118797000Y-113105000D02*
X118735000Y-113105000D01*
X135128000Y-123719000D02*
X135255000Y-123592000D01*
D22*
X135128000Y-125984000D02*
X135128000Y-124206000D01*
D23*
X135128000Y-124206000D02*
X135128000Y-123719000D01*
X126900000Y-107850000D02*
X126100000Y-107850000D01*
X126900001Y-111340001D02*
X127342001Y-110898001D01*
X121749999Y-111340001D02*
X126900001Y-111340001D01*
X127342001Y-108292001D02*
X126900000Y-107850000D01*
X127342001Y-110898001D02*
X127342001Y-108292001D01*
X119985000Y-113105000D02*
X121749999Y-111340001D01*
D22*
X118735000Y-113105000D02*
X119985000Y-113105000D01*
X125309999Y-133135001D02*
X124460000Y-133985000D01*
X125760001Y-132684999D02*
X125309999Y-133135001D01*
X130779999Y-132684999D02*
X125760001Y-132684999D01*
X132080000Y-133985000D02*
X130779999Y-132684999D01*
X115815000Y-128533000D02*
X115824000Y-128524000D01*
X114300000Y-128533000D02*
X115815000Y-128533000D01*
X119985000Y-113444500D02*
X119985000Y-113105000D01*
X130132500Y-123592000D02*
X119985000Y-113444500D01*
X135255000Y-123592000D02*
X130132500Y-123592000D01*
D23*
X121158000Y-126365000D02*
X121920000Y-126365000D01*
D22*
X114300000Y-122165000D02*
X114300000Y-119253000D01*
D23*
X134620000Y-130027000D02*
X135255000Y-129392000D01*
D22*
X134620000Y-133985000D02*
X134620000Y-130027000D01*
D23*
X137922000Y-122428000D02*
X137922000Y-126725000D01*
D22*
X127000000Y-127615000D02*
X128777000Y-129392000D01*
X128777000Y-129392000D02*
X135255000Y-129392000D01*
X135951000Y-128717000D02*
X137922000Y-126746000D01*
X135930000Y-128717000D02*
X135951000Y-128717000D01*
X135255000Y-129392000D02*
X135930000Y-128717000D01*
D23*
X137922000Y-126725000D02*
X137922000Y-126746000D01*
D22*
X137922000Y-126725000D02*
X137922000Y-124460000D01*
X137922000Y-124460000D02*
X137922000Y-122428000D01*
X137922000Y-122428000D02*
X135890000Y-120396000D01*
X135890000Y-120396000D02*
X134375000Y-120396000D01*
X127000000Y-127615000D02*
X127000000Y-126365000D01*
D23*
X134375000Y-119696000D02*
X134375000Y-120396000D01*
X134366000Y-119687000D02*
X134375000Y-119696000D01*
X127063500Y-102425500D02*
X127569498Y-102931498D01*
X127569498Y-102931498D02*
X127569498Y-103695500D01*
X134366000Y-118872000D02*
X134366000Y-119687000D01*
X127569498Y-103695500D02*
X126238000Y-105026998D01*
X126238000Y-105026998D02*
X126238000Y-106473002D01*
X128079500Y-107251500D02*
X128270000Y-107442000D01*
X126238000Y-106473002D02*
X127016498Y-107251500D01*
X127016498Y-107251500D02*
X128079500Y-107251500D01*
X128270000Y-118872000D02*
X134366000Y-118872000D01*
X128270000Y-107442000D02*
X128270000Y-111379000D01*
X126111000Y-116649500D02*
X128270000Y-118808500D01*
X128270000Y-111379000D02*
X126111000Y-113538000D01*
X126111000Y-113538000D02*
X126111000Y-116649500D01*
X128270000Y-118808500D02*
X128270000Y-118872000D01*
D22*
X118735000Y-121845000D02*
X118735000Y-123581000D01*
X117348000Y-130937000D02*
X114300000Y-133985000D01*
X117348000Y-124968000D02*
X117348000Y-130937000D01*
X118735000Y-123581000D02*
X117348000Y-124968000D01*
X116840000Y-133985000D02*
X116840000Y-133858000D01*
X123835000Y-121845000D02*
X123821998Y-121831998D01*
X118872000Y-124818000D02*
X118872000Y-131953000D01*
X117689999Y-133135001D02*
X116840000Y-133985000D01*
X123821998Y-121831998D02*
X121858002Y-121831998D01*
X118872000Y-131953000D02*
X117689999Y-133135001D01*
X121858002Y-121831998D02*
X118872000Y-124818000D01*
D23*
X127000000Y-133858000D02*
X127000000Y-133985000D01*
D22*
X117862000Y-107543000D02*
X117862000Y-106193000D01*
X117862000Y-106193000D02*
X118391000Y-105664000D01*
X118391000Y-105664000D02*
X118477000Y-105750000D01*
X125150000Y-109148000D02*
X126492000Y-110490000D01*
X125150000Y-105750000D02*
X125150000Y-109148000D01*
D23*
X123929500Y-107927500D02*
X125150000Y-109148000D01*
X123929500Y-105750000D02*
X123929500Y-107927500D01*
D22*
X118477000Y-105750000D02*
X123929500Y-105750000D01*
X123929500Y-105750000D02*
X125150000Y-105750000D01*
X129674000Y-108043000D02*
X129674000Y-107543000D01*
X129730500Y-108099500D02*
X129674000Y-108043000D01*
X129730500Y-109220000D02*
X129730500Y-108099500D01*
X129603500Y-117856000D02*
X131006315Y-117856000D01*
X128206500Y-116459000D02*
X129603500Y-117856000D01*
X131006315Y-117856000D02*
X131572000Y-117856000D01*
X128206500Y-113347500D02*
X128206500Y-116459000D01*
X129730500Y-111823500D02*
X128206500Y-113347500D01*
X129730500Y-109220000D02*
X129730500Y-111823500D01*
X129222500Y-105727500D02*
X127127000Y-105727500D01*
X129674000Y-106179000D02*
X129222500Y-105727500D01*
X129674000Y-107543000D02*
X129674000Y-106179000D01*
D23*
X137160000Y-114173000D02*
X135191500Y-116141500D01*
X135191500Y-116141500D02*
X135191500Y-118173500D01*
X135103999Y-118261001D02*
X132993001Y-118261001D01*
X135191500Y-118173500D02*
X135103999Y-118261001D01*
X132993001Y-118261001D02*
X132905500Y-118173500D01*
X123190000Y-109728000D02*
X124650500Y-110363004D01*
X123007000Y-109728000D02*
X123190000Y-109728000D01*
X122422000Y-109143000D02*
X123007000Y-109728000D01*
X122422000Y-107543000D02*
X122422000Y-109143000D01*
X137160000Y-111188500D02*
X137160000Y-111633000D01*
X135382000Y-109410500D02*
X137160000Y-111188500D01*
X135382000Y-107841000D02*
X135382000Y-109410500D01*
X135084000Y-107543000D02*
X135382000Y-107841000D01*
X134234000Y-107543000D02*
X135084000Y-107543000D01*
D22*
X134223000Y-115713000D02*
X134223000Y-115636000D01*
D23*
X134236500Y-115636000D02*
X134223000Y-115636000D01*
X135476999Y-114395501D02*
X134236500Y-115636000D01*
X135476999Y-110903001D02*
X135476999Y-114395501D01*
X134239000Y-109833002D02*
X134239000Y-110807500D01*
X133096000Y-108690002D02*
X134239000Y-109833002D01*
X133096000Y-106395998D02*
X133096000Y-108690002D01*
X134225500Y-110807500D02*
X134223000Y-110810000D01*
X133700998Y-105791000D02*
X133096000Y-106395998D01*
X134767002Y-105791000D02*
X133700998Y-105791000D01*
X134239000Y-110807500D02*
X134225500Y-110807500D01*
X135832010Y-106856008D02*
X134767002Y-105791000D01*
X135832010Y-107765010D02*
X135832010Y-106856008D01*
X137160000Y-109093000D02*
X135832010Y-107765010D01*
X125112500Y-98750000D02*
X125095000Y-102108000D01*
X116014500Y-118427500D02*
X114300000Y-116713000D01*
X120332500Y-118427500D02*
X116014500Y-118427500D01*
X125418315Y-100774500D02*
X125984000Y-100774500D01*
X125285500Y-100774500D02*
X125418315Y-100774500D01*
X125095000Y-100584000D02*
X125285500Y-100774500D01*
D22*
X119380000Y-133985000D02*
X119380000Y-133858000D01*
D23*
X129413000Y-113870000D02*
X129413000Y-113982500D01*
X131523000Y-111760000D02*
X129413000Y-113870000D01*
X132223000Y-111760000D02*
X131523000Y-111760000D01*
X122155001Y-123907499D02*
X122555000Y-123507500D01*
X119380000Y-133985000D02*
X120229999Y-133135001D01*
X120229999Y-133135001D02*
X120229999Y-125832501D01*
X120229999Y-125832501D02*
X122155001Y-123907499D01*
X122992501Y-133135001D02*
X124984001Y-131143501D01*
X122769999Y-133135001D02*
X122992501Y-133135001D01*
X121920000Y-133985000D02*
X122769999Y-133135001D01*
X131523000Y-116586000D02*
X132223000Y-116586000D01*
X129667000Y-116072185D02*
X130180815Y-116586000D01*
X130180815Y-116586000D02*
X131523000Y-116586000D01*
X129667000Y-115506500D02*
X129667000Y-116072185D01*
D24*
G36*
X137770001Y-132498235D02*
G01*
X137445750Y-132500000D01*
X137287000Y-132658750D01*
X137287000Y-133858000D01*
X137307000Y-133858000D01*
X137307000Y-134112000D01*
X137287000Y-134112000D01*
X137287000Y-134132000D01*
X137033000Y-134132000D01*
X137033000Y-134112000D01*
X137013000Y-134112000D01*
X137013000Y-133858000D01*
X137033000Y-133858000D01*
X137033000Y-132658750D01*
X136874250Y-132500000D01*
X136310000Y-132496928D01*
X136185518Y-132509188D01*
X136065820Y-132545498D01*
X135955506Y-132604463D01*
X135858815Y-132683815D01*
X135779463Y-132780506D01*
X135720498Y-132890820D01*
X135698487Y-132963380D01*
X135566632Y-132831525D01*
X135505000Y-132790344D01*
X135505000Y-130705072D01*
X136680001Y-130705072D01*
X136853255Y-130688008D01*
X137019851Y-130637472D01*
X137173387Y-130555405D01*
X137307962Y-130444962D01*
X137418405Y-130310387D01*
X137500472Y-130156851D01*
X137551008Y-129990255D01*
X137568072Y-129817001D01*
X137568072Y-128966999D01*
X137551008Y-128793745D01*
X137500472Y-128627149D01*
X137428005Y-128491573D01*
X137770001Y-128149578D01*
X137770001Y-132498235D01*
G37*
X137770001Y-132498235D02*
X137445750Y-132500000D01*
X137287000Y-132658750D01*
X137287000Y-133858000D01*
X137307000Y-133858000D01*
X137307000Y-134112000D01*
X137287000Y-134112000D01*
X137287000Y-134132000D01*
X137033000Y-134132000D01*
X137033000Y-134112000D01*
X137013000Y-134112000D01*
X137013000Y-133858000D01*
X137033000Y-133858000D01*
X137033000Y-132658750D01*
X136874250Y-132500000D01*
X136310000Y-132496928D01*
X136185518Y-132509188D01*
X136065820Y-132545498D01*
X135955506Y-132604463D01*
X135858815Y-132683815D01*
X135779463Y-132780506D01*
X135720498Y-132890820D01*
X135698487Y-132963380D01*
X135566632Y-132831525D01*
X135505000Y-132790344D01*
X135505000Y-130705072D01*
X136680001Y-130705072D01*
X136853255Y-130688008D01*
X137019851Y-130637472D01*
X137173387Y-130555405D01*
X137307962Y-130444962D01*
X137418405Y-130310387D01*
X137500472Y-130156851D01*
X137551008Y-129990255D01*
X137568072Y-129817001D01*
X137568072Y-128966999D01*
X137551008Y-128793745D01*
X137500472Y-128627149D01*
X137428005Y-128491573D01*
X137770001Y-128149578D01*
X137770001Y-132498235D01*
G36*
X120269000Y-107416000D02*
G01*
X120289000Y-107416000D01*
X120289000Y-107670000D01*
X120269000Y-107670000D01*
X120269000Y-109119250D01*
X120427750Y-109278000D01*
X120742000Y-109281072D01*
X120866482Y-109268812D01*
X120986180Y-109232502D01*
X121096494Y-109173537D01*
X121193185Y-109094185D01*
X121272537Y-108997494D01*
X121282000Y-108979790D01*
X121291463Y-108997494D01*
X121370815Y-109094185D01*
X121467506Y-109173537D01*
X121577820Y-109232502D01*
X121669890Y-109260431D01*
X121672998Y-109291986D01*
X121676559Y-109303724D01*
X121716454Y-109435246D01*
X121787026Y-109567276D01*
X121840965Y-109633000D01*
X121882000Y-109683001D01*
X121910998Y-109706799D01*
X122443200Y-110239002D01*
X122466999Y-110268001D01*
X122495997Y-110291799D01*
X122582723Y-110362974D01*
X122698434Y-110424823D01*
X122714753Y-110433546D01*
X122858014Y-110477003D01*
X122969667Y-110488000D01*
X122969677Y-110488000D01*
X123007000Y-110491676D01*
X123034219Y-110488995D01*
X123243531Y-110580001D01*
X121787332Y-110580001D01*
X121749999Y-110576324D01*
X121712666Y-110580001D01*
X121601013Y-110590998D01*
X121457752Y-110634455D01*
X121325723Y-110705027D01*
X121209998Y-110800000D01*
X121186200Y-110828998D01*
X120093093Y-111922106D01*
X120074502Y-111860820D01*
X120015537Y-111750506D01*
X119936185Y-111653815D01*
X119839494Y-111574463D01*
X119729180Y-111515498D01*
X119609482Y-111479188D01*
X119485000Y-111466928D01*
X117985000Y-111466928D01*
X117860518Y-111479188D01*
X117740820Y-111515498D01*
X117630506Y-111574463D01*
X117533815Y-111653815D01*
X117454463Y-111750506D01*
X117395498Y-111860820D01*
X117359188Y-111980518D01*
X117346928Y-112105000D01*
X117346928Y-114105000D01*
X117359188Y-114229482D01*
X117395498Y-114349180D01*
X117454463Y-114459494D01*
X117533815Y-114556185D01*
X117630506Y-114635537D01*
X117740820Y-114694502D01*
X117860518Y-114730812D01*
X117985000Y-114743072D01*
X119485000Y-114743072D01*
X119609482Y-114730812D01*
X119729180Y-114694502D01*
X119839494Y-114635537D01*
X119886161Y-114597239D01*
X129475970Y-124187049D01*
X129503683Y-124220817D01*
X129537451Y-124248530D01*
X129537453Y-124248532D01*
X129583729Y-124286510D01*
X129638441Y-124331411D01*
X129792187Y-124413589D01*
X129959010Y-124464195D01*
X130089023Y-124477000D01*
X130089033Y-124477000D01*
X130132499Y-124481281D01*
X130175965Y-124477000D01*
X133073749Y-124477000D01*
X133091595Y-124510387D01*
X133202038Y-124644962D01*
X133336613Y-124755405D01*
X133490149Y-124837472D01*
X133656745Y-124888008D01*
X133829999Y-124905072D01*
X134243001Y-124905072D01*
X134243000Y-125445545D01*
X134210795Y-125493744D01*
X134132774Y-125682102D01*
X134093000Y-125882061D01*
X134093000Y-126085939D01*
X134132774Y-126285898D01*
X134210795Y-126474256D01*
X134324063Y-126643774D01*
X134468226Y-126787937D01*
X134637744Y-126901205D01*
X134826102Y-126979226D01*
X135026061Y-127019000D01*
X135229939Y-127019000D01*
X135429898Y-126979226D01*
X135618256Y-126901205D01*
X135787774Y-126787937D01*
X135931937Y-126643774D01*
X136045205Y-126474256D01*
X136123226Y-126285898D01*
X136163000Y-126085939D01*
X136163000Y-125882061D01*
X136123226Y-125682102D01*
X136045205Y-125493744D01*
X136013000Y-125445546D01*
X136013000Y-124905072D01*
X136680001Y-124905072D01*
X136853255Y-124888008D01*
X137019851Y-124837472D01*
X137037001Y-124828305D01*
X137037000Y-126379421D01*
X135442154Y-127974268D01*
X135435941Y-127977589D01*
X135435939Y-127977590D01*
X135435940Y-127977590D01*
X135334953Y-128060468D01*
X135334951Y-128060470D01*
X135312460Y-128078928D01*
X133829999Y-128078928D01*
X133656745Y-128095992D01*
X133490149Y-128146528D01*
X133336613Y-128228595D01*
X133202038Y-128339038D01*
X133091595Y-128473613D01*
X133073749Y-128507000D01*
X129143579Y-128507000D01*
X128425807Y-127789229D01*
X128483037Y-127719494D01*
X128542002Y-127609180D01*
X128578312Y-127489482D01*
X128590572Y-127365000D01*
X128590572Y-125365000D01*
X128578312Y-125240518D01*
X128542002Y-125120820D01*
X128483037Y-125010506D01*
X128403685Y-124913815D01*
X128306994Y-124834463D01*
X128196680Y-124775498D01*
X128076982Y-124739188D01*
X127952500Y-124726928D01*
X126047500Y-124726928D01*
X125923018Y-124739188D01*
X125803320Y-124775498D01*
X125693006Y-124834463D01*
X125596315Y-124913815D01*
X125516963Y-125010506D01*
X125467941Y-125102219D01*
X125326923Y-124989031D01*
X125051094Y-124845429D01*
X124832980Y-124774437D01*
X124587000Y-124894406D01*
X124587000Y-126238000D01*
X124607000Y-126238000D01*
X124607000Y-126492000D01*
X124587000Y-126492000D01*
X124587000Y-127835594D01*
X124832980Y-127955563D01*
X125051094Y-127884571D01*
X125326923Y-127740969D01*
X125467941Y-127627781D01*
X125516963Y-127719494D01*
X125596315Y-127816185D01*
X125693006Y-127895537D01*
X125803320Y-127954502D01*
X125923018Y-127990812D01*
X126047500Y-128003072D01*
X126203939Y-128003072D01*
X126260589Y-128109058D01*
X126371183Y-128243817D01*
X126404956Y-128271534D01*
X128120470Y-129987049D01*
X128148183Y-130020817D01*
X128181951Y-130048530D01*
X128181953Y-130048532D01*
X128282941Y-130131411D01*
X128436686Y-130213589D01*
X128603510Y-130264195D01*
X128733523Y-130277000D01*
X128733531Y-130277000D01*
X128777000Y-130281281D01*
X128820469Y-130277000D01*
X133073749Y-130277000D01*
X133091595Y-130310387D01*
X133202038Y-130444962D01*
X133336613Y-130555405D01*
X133490149Y-130637472D01*
X133656745Y-130688008D01*
X133735001Y-130695716D01*
X133735000Y-132790344D01*
X133673368Y-132831525D01*
X133466525Y-133038368D01*
X133350000Y-133212760D01*
X133233475Y-133038368D01*
X133026632Y-132831525D01*
X132783411Y-132669010D01*
X132513158Y-132557068D01*
X132226260Y-132500000D01*
X131933740Y-132500000D01*
X131861039Y-132514461D01*
X131436533Y-132089955D01*
X131408816Y-132056182D01*
X131274058Y-131945588D01*
X131120312Y-131863410D01*
X130953489Y-131812804D01*
X130823476Y-131799999D01*
X130823468Y-131799999D01*
X130779999Y-131795718D01*
X130736530Y-131799999D01*
X125803470Y-131799999D01*
X125790951Y-131798766D01*
X125901206Y-131633757D01*
X125979227Y-131445399D01*
X126019001Y-131245440D01*
X126019001Y-131041562D01*
X125979227Y-130841603D01*
X125901206Y-130653245D01*
X125787938Y-130483727D01*
X125643775Y-130339564D01*
X125474257Y-130226296D01*
X125285899Y-130148275D01*
X125085940Y-130108501D01*
X124882062Y-130108501D01*
X124682103Y-130148275D01*
X124493745Y-130226296D01*
X124324227Y-130339564D01*
X124180064Y-130483727D01*
X124066796Y-130653245D01*
X123988775Y-130841603D01*
X123949001Y-131041562D01*
X123949001Y-131103699D01*
X122671695Y-132381006D01*
X122621013Y-132385998D01*
X122477752Y-132429455D01*
X122345722Y-132500027D01*
X122291228Y-132544749D01*
X122066260Y-132500000D01*
X121773740Y-132500000D01*
X121486842Y-132557068D01*
X121216589Y-132669010D01*
X120989999Y-132820413D01*
X120989999Y-127702927D01*
X121033765Y-127738845D01*
X121309551Y-127886255D01*
X121608796Y-127977030D01*
X121920000Y-128007681D01*
X122231203Y-127977030D01*
X122530448Y-127886255D01*
X122806234Y-127738845D01*
X123047963Y-127540463D01*
X123195163Y-127361101D01*
X123350563Y-127546315D01*
X123593077Y-127740969D01*
X123868906Y-127884571D01*
X124087020Y-127955563D01*
X124333000Y-127835594D01*
X124333000Y-126492000D01*
X124313000Y-126492000D01*
X124313000Y-126238000D01*
X124333000Y-126238000D01*
X124333000Y-124894406D01*
X124087020Y-124774437D01*
X123868906Y-124845429D01*
X123593077Y-124989031D01*
X123350563Y-125183685D01*
X123195162Y-125368900D01*
X123047963Y-125189537D01*
X122806235Y-124991155D01*
X122530449Y-124843745D01*
X122348692Y-124788610D01*
X122594802Y-124542500D01*
X122656939Y-124542500D01*
X122856898Y-124502726D01*
X123045256Y-124424705D01*
X123214774Y-124311437D01*
X123358937Y-124167274D01*
X123472205Y-123997756D01*
X123550226Y-123809398D01*
X123590000Y-123609439D01*
X123590000Y-123483072D01*
X124585000Y-123483072D01*
X124709482Y-123470812D01*
X124829180Y-123434502D01*
X124939494Y-123375537D01*
X125036185Y-123296185D01*
X125115537Y-123199494D01*
X125174502Y-123089180D01*
X125210812Y-122969482D01*
X125223072Y-122845000D01*
X125223072Y-120845000D01*
X125210812Y-120720518D01*
X125174502Y-120600820D01*
X125115537Y-120490506D01*
X125036185Y-120393815D01*
X124939494Y-120314463D01*
X124829180Y-120255498D01*
X124709482Y-120219188D01*
X124585000Y-120206928D01*
X123085000Y-120206928D01*
X122960518Y-120219188D01*
X122840820Y-120255498D01*
X122730506Y-120314463D01*
X122633815Y-120393815D01*
X122554463Y-120490506D01*
X122495498Y-120600820D01*
X122459188Y-120720518D01*
X122446928Y-120845000D01*
X122446928Y-120946998D01*
X121901471Y-120946998D01*
X121858002Y-120942717D01*
X121814533Y-120946998D01*
X121814525Y-120946998D01*
X121684512Y-120959803D01*
X121517688Y-121010409D01*
X121363943Y-121092587D01*
X121262955Y-121175466D01*
X121262953Y-121175468D01*
X121229185Y-121203181D01*
X121201472Y-121236949D01*
X120123072Y-122315349D01*
X120123072Y-120845000D01*
X120110812Y-120720518D01*
X120074502Y-120600820D01*
X120015537Y-120490506D01*
X119936185Y-120393815D01*
X119839494Y-120314463D01*
X119729180Y-120255498D01*
X119609482Y-120219188D01*
X119485000Y-120206928D01*
X117985000Y-120206928D01*
X117860518Y-120219188D01*
X117740820Y-120255498D01*
X117630506Y-120314463D01*
X117533815Y-120393815D01*
X117454463Y-120490506D01*
X117395498Y-120600820D01*
X117359188Y-120720518D01*
X117346928Y-120845000D01*
X117346928Y-122845000D01*
X117359188Y-122969482D01*
X117395498Y-123089180D01*
X117454463Y-123199494D01*
X117533815Y-123296185D01*
X117630506Y-123375537D01*
X117668549Y-123395872D01*
X116752956Y-124311466D01*
X116719183Y-124339183D01*
X116608589Y-124473942D01*
X116526411Y-124627688D01*
X116492587Y-124739188D01*
X116475805Y-124794510D01*
X116474212Y-124810686D01*
X116463000Y-124924524D01*
X116463000Y-124924531D01*
X116458719Y-124968000D01*
X116463000Y-125011469D01*
X116463000Y-127706183D01*
X116314256Y-127606795D01*
X116125898Y-127528774D01*
X115925939Y-127489000D01*
X115722061Y-127489000D01*
X115522102Y-127528774D01*
X115383132Y-127586338D01*
X115377962Y-127580038D01*
X115371406Y-127574658D01*
X115451185Y-127509185D01*
X115530537Y-127412494D01*
X115589502Y-127302180D01*
X115625812Y-127182482D01*
X115638072Y-127058000D01*
X115635000Y-126768750D01*
X115476250Y-126610000D01*
X114427000Y-126610000D01*
X114427000Y-126630000D01*
X114173000Y-126630000D01*
X114173000Y-126610000D01*
X114153000Y-126610000D01*
X114153000Y-126356000D01*
X114173000Y-126356000D01*
X114173000Y-125431750D01*
X114090250Y-125349000D01*
X114173000Y-125266250D01*
X114173000Y-124342000D01*
X114427000Y-124342000D01*
X114427000Y-125266250D01*
X114509750Y-125349000D01*
X114427000Y-125431750D01*
X114427000Y-126356000D01*
X115476250Y-126356000D01*
X115635000Y-126197250D01*
X115638072Y-125908000D01*
X115625812Y-125783518D01*
X115589502Y-125663820D01*
X115530537Y-125553506D01*
X115451185Y-125456815D01*
X115354494Y-125377463D01*
X115301244Y-125349000D01*
X115354494Y-125320537D01*
X115451185Y-125241185D01*
X115530537Y-125144494D01*
X115589502Y-125034180D01*
X115625812Y-124914482D01*
X115638072Y-124790000D01*
X115635000Y-124500750D01*
X115476250Y-124342000D01*
X114427000Y-124342000D01*
X114173000Y-124342000D01*
X114153000Y-124342000D01*
X114153000Y-124088000D01*
X114173000Y-124088000D01*
X114173000Y-124068000D01*
X114427000Y-124068000D01*
X114427000Y-124088000D01*
X115476250Y-124088000D01*
X115635000Y-123929250D01*
X115638072Y-123640000D01*
X115625812Y-123515518D01*
X115589502Y-123395820D01*
X115530537Y-123285506D01*
X115451185Y-123188815D01*
X115371406Y-123123342D01*
X115377962Y-123117962D01*
X115488405Y-122983387D01*
X115570472Y-122829851D01*
X115621008Y-122663255D01*
X115638072Y-122490001D01*
X115638072Y-121839999D01*
X115621008Y-121666745D01*
X115570472Y-121500149D01*
X115488405Y-121346613D01*
X115377962Y-121212038D01*
X115243387Y-121101595D01*
X115185000Y-121070386D01*
X115185000Y-120447656D01*
X115246632Y-120406475D01*
X115453475Y-120199632D01*
X115615990Y-119956411D01*
X115727932Y-119686158D01*
X115785000Y-119399260D01*
X115785000Y-119152080D01*
X115865514Y-119176503D01*
X115977167Y-119187500D01*
X115977176Y-119187500D01*
X116014499Y-119191176D01*
X116051822Y-119187500D01*
X119628789Y-119187500D01*
X119672726Y-119231437D01*
X119842244Y-119344705D01*
X120030602Y-119422726D01*
X120230561Y-119462500D01*
X120434439Y-119462500D01*
X120634398Y-119422726D01*
X120822756Y-119344705D01*
X120992274Y-119231437D01*
X121136437Y-119087274D01*
X121249705Y-118917756D01*
X121327726Y-118729398D01*
X121367500Y-118529439D01*
X121367500Y-118325561D01*
X121327726Y-118125602D01*
X121249705Y-117937244D01*
X121136437Y-117767726D01*
X120992274Y-117623563D01*
X120822756Y-117510295D01*
X120634398Y-117432274D01*
X120434439Y-117392500D01*
X120230561Y-117392500D01*
X120030602Y-117432274D01*
X119842244Y-117510295D01*
X119672726Y-117623563D01*
X119628789Y-117667500D01*
X116329302Y-117667500D01*
X115741210Y-117079408D01*
X115785000Y-116859260D01*
X115785000Y-116566740D01*
X115743877Y-116360000D01*
X116267581Y-116360000D01*
X116300000Y-116363193D01*
X116332419Y-116360000D01*
X116429383Y-116350450D01*
X116553793Y-116312710D01*
X116668450Y-116251425D01*
X116768948Y-116168948D01*
X116851425Y-116068450D01*
X116912710Y-115953793D01*
X116950450Y-115829383D01*
X116963193Y-115700000D01*
X116960000Y-115667581D01*
X116960000Y-109201596D01*
X117017820Y-109232502D01*
X117137518Y-109268812D01*
X117262000Y-109281072D01*
X118462000Y-109281072D01*
X118586482Y-109268812D01*
X118706180Y-109232502D01*
X118816494Y-109173537D01*
X118913185Y-109094185D01*
X118992537Y-108997494D01*
X119002000Y-108979790D01*
X119011463Y-108997494D01*
X119090815Y-109094185D01*
X119187506Y-109173537D01*
X119297820Y-109232502D01*
X119417518Y-109268812D01*
X119542000Y-109281072D01*
X119856250Y-109278000D01*
X120015000Y-109119250D01*
X120015000Y-107670000D01*
X119995000Y-107670000D01*
X119995000Y-107416000D01*
X120015000Y-107416000D01*
X120015000Y-107396000D01*
X120269000Y-107396000D01*
X120269000Y-107416000D01*
G37*
X120269000Y-107416000D02*
X120289000Y-107416000D01*
X120289000Y-107670000D01*
X120269000Y-107670000D01*
X120269000Y-109119250D01*
X120427750Y-109278000D01*
X120742000Y-109281072D01*
X120866482Y-109268812D01*
X120986180Y-109232502D01*
X121096494Y-109173537D01*
X121193185Y-109094185D01*
X121272537Y-108997494D01*
X121282000Y-108979790D01*
X121291463Y-108997494D01*
X121370815Y-109094185D01*
X121467506Y-109173537D01*
X121577820Y-109232502D01*
X121669890Y-109260431D01*
X121672998Y-109291986D01*
X121676559Y-109303724D01*
X121716454Y-109435246D01*
X121787026Y-109567276D01*
X121840965Y-109633000D01*
X121882000Y-109683001D01*
X121910998Y-109706799D01*
X122443200Y-110239002D01*
X122466999Y-110268001D01*
X122495997Y-110291799D01*
X122582723Y-110362974D01*
X122698434Y-110424823D01*
X122714753Y-110433546D01*
X122858014Y-110477003D01*
X122969667Y-110488000D01*
X122969677Y-110488000D01*
X123007000Y-110491676D01*
X123034219Y-110488995D01*
X123243531Y-110580001D01*
X121787332Y-110580001D01*
X121749999Y-110576324D01*
X121712666Y-110580001D01*
X121601013Y-110590998D01*
X121457752Y-110634455D01*
X121325723Y-110705027D01*
X121209998Y-110800000D01*
X121186200Y-110828998D01*
X120093093Y-111922106D01*
X120074502Y-111860820D01*
X120015537Y-111750506D01*
X119936185Y-111653815D01*
X119839494Y-111574463D01*
X119729180Y-111515498D01*
X119609482Y-111479188D01*
X119485000Y-111466928D01*
X117985000Y-111466928D01*
X117860518Y-111479188D01*
X117740820Y-111515498D01*
X117630506Y-111574463D01*
X117533815Y-111653815D01*
X117454463Y-111750506D01*
X117395498Y-111860820D01*
X117359188Y-111980518D01*
X117346928Y-112105000D01*
X117346928Y-114105000D01*
X117359188Y-114229482D01*
X117395498Y-114349180D01*
X117454463Y-114459494D01*
X117533815Y-114556185D01*
X117630506Y-114635537D01*
X117740820Y-114694502D01*
X117860518Y-114730812D01*
X117985000Y-114743072D01*
X119485000Y-114743072D01*
X119609482Y-114730812D01*
X119729180Y-114694502D01*
X119839494Y-114635537D01*
X119886161Y-114597239D01*
X129475970Y-124187049D01*
X129503683Y-124220817D01*
X129537451Y-124248530D01*
X129537453Y-124248532D01*
X129583729Y-124286510D01*
X129638441Y-124331411D01*
X129792187Y-124413589D01*
X129959010Y-124464195D01*
X130089023Y-124477000D01*
X130089033Y-124477000D01*
X130132499Y-124481281D01*
X130175965Y-124477000D01*
X133073749Y-124477000D01*
X133091595Y-124510387D01*
X133202038Y-124644962D01*
X133336613Y-124755405D01*
X133490149Y-124837472D01*
X133656745Y-124888008D01*
X133829999Y-124905072D01*
X134243001Y-124905072D01*
X134243000Y-125445545D01*
X134210795Y-125493744D01*
X134132774Y-125682102D01*
X134093000Y-125882061D01*
X134093000Y-126085939D01*
X134132774Y-126285898D01*
X134210795Y-126474256D01*
X134324063Y-126643774D01*
X134468226Y-126787937D01*
X134637744Y-126901205D01*
X134826102Y-126979226D01*
X135026061Y-127019000D01*
X135229939Y-127019000D01*
X135429898Y-126979226D01*
X135618256Y-126901205D01*
X135787774Y-126787937D01*
X135931937Y-126643774D01*
X136045205Y-126474256D01*
X136123226Y-126285898D01*
X136163000Y-126085939D01*
X136163000Y-125882061D01*
X136123226Y-125682102D01*
X136045205Y-125493744D01*
X136013000Y-125445546D01*
X136013000Y-124905072D01*
X136680001Y-124905072D01*
X136853255Y-124888008D01*
X137019851Y-124837472D01*
X137037001Y-124828305D01*
X137037000Y-126379421D01*
X135442154Y-127974268D01*
X135435941Y-127977589D01*
X135435939Y-127977590D01*
X135435940Y-127977590D01*
X135334953Y-128060468D01*
X135334951Y-128060470D01*
X135312460Y-128078928D01*
X133829999Y-128078928D01*
X133656745Y-128095992D01*
X133490149Y-128146528D01*
X133336613Y-128228595D01*
X133202038Y-128339038D01*
X133091595Y-128473613D01*
X133073749Y-128507000D01*
X129143579Y-128507000D01*
X128425807Y-127789229D01*
X128483037Y-127719494D01*
X128542002Y-127609180D01*
X128578312Y-127489482D01*
X128590572Y-127365000D01*
X128590572Y-125365000D01*
X128578312Y-125240518D01*
X128542002Y-125120820D01*
X128483037Y-125010506D01*
X128403685Y-124913815D01*
X128306994Y-124834463D01*
X128196680Y-124775498D01*
X128076982Y-124739188D01*
X127952500Y-124726928D01*
X126047500Y-124726928D01*
X125923018Y-124739188D01*
X125803320Y-124775498D01*
X125693006Y-124834463D01*
X125596315Y-124913815D01*
X125516963Y-125010506D01*
X125467941Y-125102219D01*
X125326923Y-124989031D01*
X125051094Y-124845429D01*
X124832980Y-124774437D01*
X124587000Y-124894406D01*
X124587000Y-126238000D01*
X124607000Y-126238000D01*
X124607000Y-126492000D01*
X124587000Y-126492000D01*
X124587000Y-127835594D01*
X124832980Y-127955563D01*
X125051094Y-127884571D01*
X125326923Y-127740969D01*
X125467941Y-127627781D01*
X125516963Y-127719494D01*
X125596315Y-127816185D01*
X125693006Y-127895537D01*
X125803320Y-127954502D01*
X125923018Y-127990812D01*
X126047500Y-128003072D01*
X126203939Y-128003072D01*
X126260589Y-128109058D01*
X126371183Y-128243817D01*
X126404956Y-128271534D01*
X128120470Y-129987049D01*
X128148183Y-130020817D01*
X128181951Y-130048530D01*
X128181953Y-130048532D01*
X128282941Y-130131411D01*
X128436686Y-130213589D01*
X128603510Y-130264195D01*
X128733523Y-130277000D01*
X128733531Y-130277000D01*
X128777000Y-130281281D01*
X128820469Y-130277000D01*
X133073749Y-130277000D01*
X133091595Y-130310387D01*
X133202038Y-130444962D01*
X133336613Y-130555405D01*
X133490149Y-130637472D01*
X133656745Y-130688008D01*
X133735001Y-130695716D01*
X133735000Y-132790344D01*
X133673368Y-132831525D01*
X133466525Y-133038368D01*
X133350000Y-133212760D01*
X133233475Y-133038368D01*
X133026632Y-132831525D01*
X132783411Y-132669010D01*
X132513158Y-132557068D01*
X132226260Y-132500000D01*
X131933740Y-132500000D01*
X131861039Y-132514461D01*
X131436533Y-132089955D01*
X131408816Y-132056182D01*
X131274058Y-131945588D01*
X131120312Y-131863410D01*
X130953489Y-131812804D01*
X130823476Y-131799999D01*
X130823468Y-131799999D01*
X130779999Y-131795718D01*
X130736530Y-131799999D01*
X125803470Y-131799999D01*
X125790951Y-131798766D01*
X125901206Y-131633757D01*
X125979227Y-131445399D01*
X126019001Y-131245440D01*
X126019001Y-131041562D01*
X125979227Y-130841603D01*
X125901206Y-130653245D01*
X125787938Y-130483727D01*
X125643775Y-130339564D01*
X125474257Y-130226296D01*
X125285899Y-130148275D01*
X125085940Y-130108501D01*
X124882062Y-130108501D01*
X124682103Y-130148275D01*
X124493745Y-130226296D01*
X124324227Y-130339564D01*
X124180064Y-130483727D01*
X124066796Y-130653245D01*
X123988775Y-130841603D01*
X123949001Y-131041562D01*
X123949001Y-131103699D01*
X122671695Y-132381006D01*
X122621013Y-132385998D01*
X122477752Y-132429455D01*
X122345722Y-132500027D01*
X122291228Y-132544749D01*
X122066260Y-132500000D01*
X121773740Y-132500000D01*
X121486842Y-132557068D01*
X121216589Y-132669010D01*
X120989999Y-132820413D01*
X120989999Y-127702927D01*
X121033765Y-127738845D01*
X121309551Y-127886255D01*
X121608796Y-127977030D01*
X121920000Y-128007681D01*
X122231203Y-127977030D01*
X122530448Y-127886255D01*
X122806234Y-127738845D01*
X123047963Y-127540463D01*
X123195163Y-127361101D01*
X123350563Y-127546315D01*
X123593077Y-127740969D01*
X123868906Y-127884571D01*
X124087020Y-127955563D01*
X124333000Y-127835594D01*
X124333000Y-126492000D01*
X124313000Y-126492000D01*
X124313000Y-126238000D01*
X124333000Y-126238000D01*
X124333000Y-124894406D01*
X124087020Y-124774437D01*
X123868906Y-124845429D01*
X123593077Y-124989031D01*
X123350563Y-125183685D01*
X123195162Y-125368900D01*
X123047963Y-125189537D01*
X122806235Y-124991155D01*
X122530449Y-124843745D01*
X122348692Y-124788610D01*
X122594802Y-124542500D01*
X122656939Y-124542500D01*
X122856898Y-124502726D01*
X123045256Y-124424705D01*
X123214774Y-124311437D01*
X123358937Y-124167274D01*
X123472205Y-123997756D01*
X123550226Y-123809398D01*
X123590000Y-123609439D01*
X123590000Y-123483072D01*
X124585000Y-123483072D01*
X124709482Y-123470812D01*
X124829180Y-123434502D01*
X124939494Y-123375537D01*
X125036185Y-123296185D01*
X125115537Y-123199494D01*
X125174502Y-123089180D01*
X125210812Y-122969482D01*
X125223072Y-122845000D01*
X125223072Y-120845000D01*
X125210812Y-120720518D01*
X125174502Y-120600820D01*
X125115537Y-120490506D01*
X125036185Y-120393815D01*
X124939494Y-120314463D01*
X124829180Y-120255498D01*
X124709482Y-120219188D01*
X124585000Y-120206928D01*
X123085000Y-120206928D01*
X122960518Y-120219188D01*
X122840820Y-120255498D01*
X122730506Y-120314463D01*
X122633815Y-120393815D01*
X122554463Y-120490506D01*
X122495498Y-120600820D01*
X122459188Y-120720518D01*
X122446928Y-120845000D01*
X122446928Y-120946998D01*
X121901471Y-120946998D01*
X121858002Y-120942717D01*
X121814533Y-120946998D01*
X121814525Y-120946998D01*
X121684512Y-120959803D01*
X121517688Y-121010409D01*
X121363943Y-121092587D01*
X121262955Y-121175466D01*
X121262953Y-121175468D01*
X121229185Y-121203181D01*
X121201472Y-121236949D01*
X120123072Y-122315349D01*
X120123072Y-120845000D01*
X120110812Y-120720518D01*
X120074502Y-120600820D01*
X120015537Y-120490506D01*
X119936185Y-120393815D01*
X119839494Y-120314463D01*
X119729180Y-120255498D01*
X119609482Y-120219188D01*
X119485000Y-120206928D01*
X117985000Y-120206928D01*
X117860518Y-120219188D01*
X117740820Y-120255498D01*
X117630506Y-120314463D01*
X117533815Y-120393815D01*
X117454463Y-120490506D01*
X117395498Y-120600820D01*
X117359188Y-120720518D01*
X117346928Y-120845000D01*
X117346928Y-122845000D01*
X117359188Y-122969482D01*
X117395498Y-123089180D01*
X117454463Y-123199494D01*
X117533815Y-123296185D01*
X117630506Y-123375537D01*
X117668549Y-123395872D01*
X116752956Y-124311466D01*
X116719183Y-124339183D01*
X116608589Y-124473942D01*
X116526411Y-124627688D01*
X116492587Y-124739188D01*
X116475805Y-124794510D01*
X116474212Y-124810686D01*
X116463000Y-124924524D01*
X116463000Y-124924531D01*
X116458719Y-124968000D01*
X116463000Y-125011469D01*
X116463000Y-127706183D01*
X116314256Y-127606795D01*
X116125898Y-127528774D01*
X115925939Y-127489000D01*
X115722061Y-127489000D01*
X115522102Y-127528774D01*
X115383132Y-127586338D01*
X115377962Y-127580038D01*
X115371406Y-127574658D01*
X115451185Y-127509185D01*
X115530537Y-127412494D01*
X115589502Y-127302180D01*
X115625812Y-127182482D01*
X115638072Y-127058000D01*
X115635000Y-126768750D01*
X115476250Y-126610000D01*
X114427000Y-126610000D01*
X114427000Y-126630000D01*
X114173000Y-126630000D01*
X114173000Y-126610000D01*
X114153000Y-126610000D01*
X114153000Y-126356000D01*
X114173000Y-126356000D01*
X114173000Y-125431750D01*
X114090250Y-125349000D01*
X114173000Y-125266250D01*
X114173000Y-124342000D01*
X114427000Y-124342000D01*
X114427000Y-125266250D01*
X114509750Y-125349000D01*
X114427000Y-125431750D01*
X114427000Y-126356000D01*
X115476250Y-126356000D01*
X115635000Y-126197250D01*
X115638072Y-125908000D01*
X115625812Y-125783518D01*
X115589502Y-125663820D01*
X115530537Y-125553506D01*
X115451185Y-125456815D01*
X115354494Y-125377463D01*
X115301244Y-125349000D01*
X115354494Y-125320537D01*
X115451185Y-125241185D01*
X115530537Y-125144494D01*
X115589502Y-125034180D01*
X115625812Y-124914482D01*
X115638072Y-124790000D01*
X115635000Y-124500750D01*
X115476250Y-124342000D01*
X114427000Y-124342000D01*
X114173000Y-124342000D01*
X114153000Y-124342000D01*
X114153000Y-124088000D01*
X114173000Y-124088000D01*
X114173000Y-124068000D01*
X114427000Y-124068000D01*
X114427000Y-124088000D01*
X115476250Y-124088000D01*
X115635000Y-123929250D01*
X115638072Y-123640000D01*
X115625812Y-123515518D01*
X115589502Y-123395820D01*
X115530537Y-123285506D01*
X115451185Y-123188815D01*
X115371406Y-123123342D01*
X115377962Y-123117962D01*
X115488405Y-122983387D01*
X115570472Y-122829851D01*
X115621008Y-122663255D01*
X115638072Y-122490001D01*
X115638072Y-121839999D01*
X115621008Y-121666745D01*
X115570472Y-121500149D01*
X115488405Y-121346613D01*
X115377962Y-121212038D01*
X115243387Y-121101595D01*
X115185000Y-121070386D01*
X115185000Y-120447656D01*
X115246632Y-120406475D01*
X115453475Y-120199632D01*
X115615990Y-119956411D01*
X115727932Y-119686158D01*
X115785000Y-119399260D01*
X115785000Y-119152080D01*
X115865514Y-119176503D01*
X115977167Y-119187500D01*
X115977176Y-119187500D01*
X116014499Y-119191176D01*
X116051822Y-119187500D01*
X119628789Y-119187500D01*
X119672726Y-119231437D01*
X119842244Y-119344705D01*
X120030602Y-119422726D01*
X120230561Y-119462500D01*
X120434439Y-119462500D01*
X120634398Y-119422726D01*
X120822756Y-119344705D01*
X120992274Y-119231437D01*
X121136437Y-119087274D01*
X121249705Y-118917756D01*
X121327726Y-118729398D01*
X121367500Y-118529439D01*
X121367500Y-118325561D01*
X121327726Y-118125602D01*
X121249705Y-117937244D01*
X121136437Y-117767726D01*
X120992274Y-117623563D01*
X120822756Y-117510295D01*
X120634398Y-117432274D01*
X120434439Y-117392500D01*
X120230561Y-117392500D01*
X120030602Y-117432274D01*
X119842244Y-117510295D01*
X119672726Y-117623563D01*
X119628789Y-117667500D01*
X116329302Y-117667500D01*
X115741210Y-117079408D01*
X115785000Y-116859260D01*
X115785000Y-116566740D01*
X115743877Y-116360000D01*
X116267581Y-116360000D01*
X116300000Y-116363193D01*
X116332419Y-116360000D01*
X116429383Y-116350450D01*
X116553793Y-116312710D01*
X116668450Y-116251425D01*
X116768948Y-116168948D01*
X116851425Y-116068450D01*
X116912710Y-115953793D01*
X116950450Y-115829383D01*
X116963193Y-115700000D01*
X116960000Y-115667581D01*
X116960000Y-109201596D01*
X117017820Y-109232502D01*
X117137518Y-109268812D01*
X117262000Y-109281072D01*
X118462000Y-109281072D01*
X118586482Y-109268812D01*
X118706180Y-109232502D01*
X118816494Y-109173537D01*
X118913185Y-109094185D01*
X118992537Y-108997494D01*
X119002000Y-108979790D01*
X119011463Y-108997494D01*
X119090815Y-109094185D01*
X119187506Y-109173537D01*
X119297820Y-109232502D01*
X119417518Y-109268812D01*
X119542000Y-109281072D01*
X119856250Y-109278000D01*
X120015000Y-109119250D01*
X120015000Y-107670000D01*
X119995000Y-107670000D01*
X119995000Y-107416000D01*
X120015000Y-107416000D01*
X120015000Y-107396000D01*
X120269000Y-107396000D01*
X120269000Y-107416000D01*
G36*
X122446928Y-112105000D02*
G01*
X122450000Y-112819250D01*
X122608750Y-112978000D01*
X123708000Y-112978000D01*
X123708000Y-112958000D01*
X123962000Y-112958000D01*
X123962000Y-112978000D01*
X125061250Y-112978000D01*
X125220000Y-112819250D01*
X125223072Y-112105000D01*
X125222580Y-112100001D01*
X126474198Y-112100001D01*
X125600003Y-112974196D01*
X125570999Y-112997999D01*
X125519352Y-113060932D01*
X125476026Y-113113724D01*
X125443802Y-113174011D01*
X125405454Y-113245754D01*
X125361997Y-113389015D01*
X125351000Y-113500668D01*
X125351000Y-113500678D01*
X125347324Y-113538000D01*
X125351000Y-113575323D01*
X125351001Y-116612168D01*
X125347324Y-116649500D01*
X125351001Y-116686833D01*
X125361998Y-116798486D01*
X125373336Y-116835862D01*
X125405454Y-116941746D01*
X125476026Y-117073776D01*
X125528140Y-117137276D01*
X125571000Y-117189501D01*
X125599998Y-117213299D01*
X127579966Y-119193268D01*
X127635026Y-119296276D01*
X127729999Y-119412001D01*
X127845724Y-119506974D01*
X127977753Y-119577546D01*
X128121014Y-119621003D01*
X128232667Y-119632000D01*
X128270000Y-119635677D01*
X128307333Y-119632000D01*
X131118231Y-119632000D01*
X131111928Y-119696000D01*
X131115000Y-120110250D01*
X131273750Y-120269000D01*
X132198000Y-120269000D01*
X132198000Y-120249000D01*
X132452000Y-120249000D01*
X132452000Y-120269000D01*
X132472000Y-120269000D01*
X132472000Y-120523000D01*
X132452000Y-120523000D01*
X132452000Y-121572250D01*
X132610750Y-121731000D01*
X132900000Y-121734072D01*
X133024482Y-121721812D01*
X133144180Y-121685502D01*
X133254494Y-121626537D01*
X133351185Y-121547185D01*
X133416658Y-121467406D01*
X133422038Y-121473962D01*
X133556613Y-121584405D01*
X133710149Y-121666472D01*
X133876745Y-121717008D01*
X134049999Y-121734072D01*
X134700001Y-121734072D01*
X134873255Y-121717008D01*
X135039851Y-121666472D01*
X135193387Y-121584405D01*
X135327962Y-121473962D01*
X135438405Y-121339387D01*
X135469614Y-121281000D01*
X135523422Y-121281000D01*
X136521349Y-122278928D01*
X133829999Y-122278928D01*
X133656745Y-122295992D01*
X133490149Y-122346528D01*
X133336613Y-122428595D01*
X133202038Y-122539038D01*
X133091595Y-122673613D01*
X133073749Y-122707000D01*
X130499079Y-122707000D01*
X128888079Y-121096000D01*
X131111928Y-121096000D01*
X131124188Y-121220482D01*
X131160498Y-121340180D01*
X131219463Y-121450494D01*
X131298815Y-121547185D01*
X131395506Y-121626537D01*
X131505820Y-121685502D01*
X131625518Y-121721812D01*
X131750000Y-121734072D01*
X132039250Y-121731000D01*
X132198000Y-121572250D01*
X132198000Y-120523000D01*
X131273750Y-120523000D01*
X131115000Y-120681750D01*
X131111928Y-121096000D01*
X128888079Y-121096000D01*
X121897079Y-114105000D01*
X122446928Y-114105000D01*
X122459188Y-114229482D01*
X122495498Y-114349180D01*
X122554463Y-114459494D01*
X122633815Y-114556185D01*
X122730506Y-114635537D01*
X122840820Y-114694502D01*
X122960518Y-114730812D01*
X123085000Y-114743072D01*
X123549250Y-114740000D01*
X123708000Y-114581250D01*
X123708000Y-113232000D01*
X123962000Y-113232000D01*
X123962000Y-114581250D01*
X124120750Y-114740000D01*
X124585000Y-114743072D01*
X124709482Y-114730812D01*
X124829180Y-114694502D01*
X124939494Y-114635537D01*
X125036185Y-114556185D01*
X125115537Y-114459494D01*
X125174502Y-114349180D01*
X125210812Y-114229482D01*
X125223072Y-114105000D01*
X125220000Y-113390750D01*
X125061250Y-113232000D01*
X123962000Y-113232000D01*
X123708000Y-113232000D01*
X122608750Y-113232000D01*
X122450000Y-113390750D01*
X122446928Y-114105000D01*
X121897079Y-114105000D01*
X120978440Y-113186362D01*
X122064801Y-112100001D01*
X122447420Y-112100001D01*
X122446928Y-112105000D01*
G37*
X122446928Y-112105000D02*
X122450000Y-112819250D01*
X122608750Y-112978000D01*
X123708000Y-112978000D01*
X123708000Y-112958000D01*
X123962000Y-112958000D01*
X123962000Y-112978000D01*
X125061250Y-112978000D01*
X125220000Y-112819250D01*
X125223072Y-112105000D01*
X125222580Y-112100001D01*
X126474198Y-112100001D01*
X125600003Y-112974196D01*
X125570999Y-112997999D01*
X125519352Y-113060932D01*
X125476026Y-113113724D01*
X125443802Y-113174011D01*
X125405454Y-113245754D01*
X125361997Y-113389015D01*
X125351000Y-113500668D01*
X125351000Y-113500678D01*
X125347324Y-113538000D01*
X125351000Y-113575323D01*
X125351001Y-116612168D01*
X125347324Y-116649500D01*
X125351001Y-116686833D01*
X125361998Y-116798486D01*
X125373336Y-116835862D01*
X125405454Y-116941746D01*
X125476026Y-117073776D01*
X125528140Y-117137276D01*
X125571000Y-117189501D01*
X125599998Y-117213299D01*
X127579966Y-119193268D01*
X127635026Y-119296276D01*
X127729999Y-119412001D01*
X127845724Y-119506974D01*
X127977753Y-119577546D01*
X128121014Y-119621003D01*
X128232667Y-119632000D01*
X128270000Y-119635677D01*
X128307333Y-119632000D01*
X131118231Y-119632000D01*
X131111928Y-119696000D01*
X131115000Y-120110250D01*
X131273750Y-120269000D01*
X132198000Y-120269000D01*
X132198000Y-120249000D01*
X132452000Y-120249000D01*
X132452000Y-120269000D01*
X132472000Y-120269000D01*
X132472000Y-120523000D01*
X132452000Y-120523000D01*
X132452000Y-121572250D01*
X132610750Y-121731000D01*
X132900000Y-121734072D01*
X133024482Y-121721812D01*
X133144180Y-121685502D01*
X133254494Y-121626537D01*
X133351185Y-121547185D01*
X133416658Y-121467406D01*
X133422038Y-121473962D01*
X133556613Y-121584405D01*
X133710149Y-121666472D01*
X133876745Y-121717008D01*
X134049999Y-121734072D01*
X134700001Y-121734072D01*
X134873255Y-121717008D01*
X135039851Y-121666472D01*
X135193387Y-121584405D01*
X135327962Y-121473962D01*
X135438405Y-121339387D01*
X135469614Y-121281000D01*
X135523422Y-121281000D01*
X136521349Y-122278928D01*
X133829999Y-122278928D01*
X133656745Y-122295992D01*
X133490149Y-122346528D01*
X133336613Y-122428595D01*
X133202038Y-122539038D01*
X133091595Y-122673613D01*
X133073749Y-122707000D01*
X130499079Y-122707000D01*
X128888079Y-121096000D01*
X131111928Y-121096000D01*
X131124188Y-121220482D01*
X131160498Y-121340180D01*
X131219463Y-121450494D01*
X131298815Y-121547185D01*
X131395506Y-121626537D01*
X131505820Y-121685502D01*
X131625518Y-121721812D01*
X131750000Y-121734072D01*
X132039250Y-121731000D01*
X132198000Y-121572250D01*
X132198000Y-120523000D01*
X131273750Y-120523000D01*
X131115000Y-120681750D01*
X131111928Y-121096000D01*
X128888079Y-121096000D01*
X121897079Y-114105000D01*
X122446928Y-114105000D01*
X122459188Y-114229482D01*
X122495498Y-114349180D01*
X122554463Y-114459494D01*
X122633815Y-114556185D01*
X122730506Y-114635537D01*
X122840820Y-114694502D01*
X122960518Y-114730812D01*
X123085000Y-114743072D01*
X123549250Y-114740000D01*
X123708000Y-114581250D01*
X123708000Y-113232000D01*
X123962000Y-113232000D01*
X123962000Y-114581250D01*
X124120750Y-114740000D01*
X124585000Y-114743072D01*
X124709482Y-114730812D01*
X124829180Y-114694502D01*
X124939494Y-114635537D01*
X125036185Y-114556185D01*
X125115537Y-114459494D01*
X125174502Y-114349180D01*
X125210812Y-114229482D01*
X125223072Y-114105000D01*
X125220000Y-113390750D01*
X125061250Y-113232000D01*
X123962000Y-113232000D01*
X123708000Y-113232000D01*
X122608750Y-113232000D01*
X122450000Y-113390750D01*
X122446928Y-114105000D01*
X121897079Y-114105000D01*
X120978440Y-113186362D01*
X122064801Y-112100001D01*
X122447420Y-112100001D01*
X122446928Y-112105000D01*
G36*
X137353748Y-116698858D02*
G01*
X137339605Y-116713000D01*
X137353748Y-116727143D01*
X137174143Y-116906748D01*
X137160000Y-116892605D01*
X136311208Y-117741397D01*
X136386729Y-117983689D01*
X136213368Y-118099525D01*
X136006525Y-118306368D01*
X135885107Y-118488083D01*
X135897046Y-118465747D01*
X135940503Y-118322486D01*
X135951500Y-118210833D01*
X135951500Y-118210823D01*
X135955176Y-118173501D01*
X135951500Y-118136178D01*
X135951500Y-117505655D01*
X136131603Y-117561792D01*
X136980395Y-116713000D01*
X136966253Y-116698858D01*
X137145858Y-116519253D01*
X137160000Y-116533395D01*
X137174143Y-116519253D01*
X137353748Y-116698858D01*
G37*
X137353748Y-116698858D02*
X137339605Y-116713000D01*
X137353748Y-116727143D01*
X137174143Y-116906748D01*
X137160000Y-116892605D01*
X136311208Y-117741397D01*
X136386729Y-117983689D01*
X136213368Y-118099525D01*
X136006525Y-118306368D01*
X135885107Y-118488083D01*
X135897046Y-118465747D01*
X135940503Y-118322486D01*
X135951500Y-118210833D01*
X135951500Y-118210823D01*
X135955176Y-118173501D01*
X135951500Y-118136178D01*
X135951500Y-117505655D01*
X136131603Y-117561792D01*
X136980395Y-116713000D01*
X136966253Y-116698858D01*
X137145858Y-116519253D01*
X137160000Y-116533395D01*
X137174143Y-116519253D01*
X137353748Y-116698858D01*
G36*
X134350000Y-117409000D02*
G01*
X134370000Y-117409000D01*
X134370000Y-117501001D01*
X134076000Y-117501001D01*
X134076000Y-117409000D01*
X134096000Y-117409000D01*
X134096000Y-117389000D01*
X134350000Y-117389000D01*
X134350000Y-117409000D01*
G37*
X134350000Y-117409000D02*
X134370000Y-117409000D01*
X134370000Y-117501001D01*
X134076000Y-117501001D01*
X134076000Y-117409000D01*
X134096000Y-117409000D01*
X134096000Y-117389000D01*
X134350000Y-117389000D01*
X134350000Y-117409000D01*
G36*
X133321815Y-116487185D02*
G01*
X133418506Y-116566537D01*
X133454918Y-116586000D01*
X133418506Y-116605463D01*
X133321815Y-116684815D01*
X133311072Y-116697905D01*
X133311072Y-116474095D01*
X133321815Y-116487185D01*
G37*
X133321815Y-116487185D02*
X133418506Y-116566537D01*
X133454918Y-116586000D01*
X133418506Y-116605463D01*
X133321815Y-116684815D01*
X133311072Y-116697905D01*
X133311072Y-116474095D01*
X133321815Y-116487185D01*
G36*
X133296750Y-112583000D02*
G01*
X134096000Y-112583000D01*
X134096000Y-112563000D01*
X134350000Y-112563000D01*
X134350000Y-112583000D01*
X134370000Y-112583000D01*
X134370000Y-112837000D01*
X134350000Y-112837000D01*
X134350000Y-113586250D01*
X134508750Y-113745000D01*
X134673000Y-113748072D01*
X134717000Y-113743739D01*
X134717000Y-114080698D01*
X134199771Y-114597928D01*
X133773000Y-114597928D01*
X133648518Y-114610188D01*
X133528820Y-114646498D01*
X133418506Y-114705463D01*
X133321815Y-114784815D01*
X133242463Y-114881506D01*
X133183498Y-114991820D01*
X133147188Y-115111518D01*
X133134928Y-115236000D01*
X133134928Y-115747905D01*
X133124185Y-115734815D01*
X133027494Y-115655463D01*
X132917180Y-115596498D01*
X132797482Y-115560188D01*
X132673000Y-115547928D01*
X131773000Y-115547928D01*
X131648518Y-115560188D01*
X131528820Y-115596498D01*
X131418506Y-115655463D01*
X131321815Y-115734815D01*
X131246982Y-115826000D01*
X130654935Y-115826000D01*
X130662226Y-115808398D01*
X130702000Y-115608439D01*
X130702000Y-115404561D01*
X130662226Y-115204602D01*
X130584205Y-115016244D01*
X130470937Y-114846726D01*
X130326774Y-114702563D01*
X130222989Y-114633216D01*
X130330205Y-114472756D01*
X130408226Y-114284398D01*
X130448000Y-114084439D01*
X130448000Y-113909801D01*
X131247801Y-113110000D01*
X133134928Y-113110000D01*
X133147188Y-113234482D01*
X133183498Y-113354180D01*
X133242463Y-113464494D01*
X133321815Y-113561185D01*
X133418506Y-113640537D01*
X133528820Y-113699502D01*
X133648518Y-113735812D01*
X133773000Y-113748072D01*
X133937250Y-113745000D01*
X134096000Y-113586250D01*
X134096000Y-112837000D01*
X133296750Y-112837000D01*
X133138000Y-112995750D01*
X133134928Y-113110000D01*
X131247801Y-113110000D01*
X131589801Y-112768000D01*
X131648518Y-112785812D01*
X131773000Y-112798072D01*
X132673000Y-112798072D01*
X132797482Y-112785812D01*
X132917180Y-112749502D01*
X133027494Y-112690537D01*
X133124185Y-112611185D01*
X133203537Y-112514494D01*
X133212143Y-112498393D01*
X133296750Y-112583000D01*
G37*
X133296750Y-112583000D02*
X134096000Y-112583000D01*
X134096000Y-112563000D01*
X134350000Y-112563000D01*
X134350000Y-112583000D01*
X134370000Y-112583000D01*
X134370000Y-112837000D01*
X134350000Y-112837000D01*
X134350000Y-113586250D01*
X134508750Y-113745000D01*
X134673000Y-113748072D01*
X134717000Y-113743739D01*
X134717000Y-114080698D01*
X134199771Y-114597928D01*
X133773000Y-114597928D01*
X133648518Y-114610188D01*
X133528820Y-114646498D01*
X133418506Y-114705463D01*
X133321815Y-114784815D01*
X133242463Y-114881506D01*
X133183498Y-114991820D01*
X133147188Y-115111518D01*
X133134928Y-115236000D01*
X133134928Y-115747905D01*
X133124185Y-115734815D01*
X133027494Y-115655463D01*
X132917180Y-115596498D01*
X132797482Y-115560188D01*
X132673000Y-115547928D01*
X131773000Y-115547928D01*
X131648518Y-115560188D01*
X131528820Y-115596498D01*
X131418506Y-115655463D01*
X131321815Y-115734815D01*
X131246982Y-115826000D01*
X130654935Y-115826000D01*
X130662226Y-115808398D01*
X130702000Y-115608439D01*
X130702000Y-115404561D01*
X130662226Y-115204602D01*
X130584205Y-115016244D01*
X130470937Y-114846726D01*
X130326774Y-114702563D01*
X130222989Y-114633216D01*
X130330205Y-114472756D01*
X130408226Y-114284398D01*
X130448000Y-114084439D01*
X130448000Y-113909801D01*
X131247801Y-113110000D01*
X133134928Y-113110000D01*
X133147188Y-113234482D01*
X133183498Y-113354180D01*
X133242463Y-113464494D01*
X133321815Y-113561185D01*
X133418506Y-113640537D01*
X133528820Y-113699502D01*
X133648518Y-113735812D01*
X133773000Y-113748072D01*
X133937250Y-113745000D01*
X134096000Y-113586250D01*
X134096000Y-112837000D01*
X133296750Y-112837000D01*
X133138000Y-112995750D01*
X133134928Y-113110000D01*
X131247801Y-113110000D01*
X131589801Y-112768000D01*
X131648518Y-112785812D01*
X131773000Y-112798072D01*
X132673000Y-112798072D01*
X132797482Y-112785812D01*
X132917180Y-112749502D01*
X133027494Y-112690537D01*
X133124185Y-112611185D01*
X133203537Y-112514494D01*
X133212143Y-112498393D01*
X133296750Y-112583000D01*
G36*
X133321815Y-111661185D02*
G01*
X133418506Y-111740537D01*
X133454918Y-111760000D01*
X133418506Y-111779463D01*
X133321815Y-111858815D01*
X133311072Y-111871905D01*
X133311072Y-111648095D01*
X133321815Y-111661185D01*
G37*
X133321815Y-111661185D02*
X133418506Y-111740537D01*
X133454918Y-111760000D01*
X133418506Y-111779463D01*
X133321815Y-111858815D01*
X133311072Y-111871905D01*
X133311072Y-111648095D01*
X133321815Y-111661185D01*
G36*
X128415928Y-98043000D02*
G01*
X128419000Y-100957250D01*
X128577750Y-101116000D01*
X131827000Y-101116000D01*
X131827000Y-101096000D01*
X132081000Y-101096000D01*
X132081000Y-101116000D01*
X135330250Y-101116000D01*
X135489000Y-100957250D01*
X135492072Y-98043000D01*
X135482125Y-97942000D01*
X137770000Y-97942000D01*
X137770000Y-100118318D01*
X137593158Y-100045068D01*
X137306260Y-99988000D01*
X137013740Y-99988000D01*
X136726842Y-100045068D01*
X136456589Y-100157010D01*
X136213368Y-100319525D01*
X136006525Y-100526368D01*
X135844010Y-100769589D01*
X135732068Y-101039842D01*
X135675000Y-101326740D01*
X135675000Y-101619260D01*
X135732068Y-101906158D01*
X135844010Y-102176411D01*
X136006525Y-102419632D01*
X136213368Y-102626475D01*
X136387760Y-102743000D01*
X136213368Y-102859525D01*
X136006525Y-103066368D01*
X135844010Y-103309589D01*
X135732068Y-103579842D01*
X135675000Y-103866740D01*
X135675000Y-104159260D01*
X135732068Y-104446158D01*
X135844010Y-104716411D01*
X136006525Y-104959632D01*
X136213368Y-105166475D01*
X136387760Y-105283000D01*
X136213368Y-105399525D01*
X136006525Y-105606368D01*
X135866594Y-105815790D01*
X135330806Y-105280002D01*
X135307003Y-105250999D01*
X135191278Y-105156026D01*
X135059249Y-105085454D01*
X134991434Y-105064883D01*
X135098180Y-105032502D01*
X135208494Y-104973537D01*
X135305185Y-104894185D01*
X135384537Y-104797494D01*
X135443502Y-104687180D01*
X135479812Y-104567482D01*
X135492072Y-104443000D01*
X135489000Y-101528750D01*
X135330250Y-101370000D01*
X132081000Y-101370000D01*
X132081000Y-104919250D01*
X132239750Y-105078000D01*
X133428718Y-105079397D01*
X133408751Y-105085454D01*
X133276722Y-105156026D01*
X133276720Y-105156027D01*
X133276721Y-105156027D01*
X133189994Y-105227201D01*
X133189990Y-105227205D01*
X133160997Y-105250999D01*
X133137203Y-105279992D01*
X132607045Y-105810152D01*
X132554000Y-105804928D01*
X132239750Y-105808000D01*
X132081000Y-105966750D01*
X132081000Y-107416000D01*
X132101000Y-107416000D01*
X132101000Y-107670000D01*
X132081000Y-107670000D01*
X132081000Y-109119250D01*
X132239750Y-109278000D01*
X132554000Y-109281072D01*
X132607045Y-109275848D01*
X133307479Y-109976283D01*
X133242463Y-110055506D01*
X133183498Y-110165820D01*
X133147188Y-110285518D01*
X133134928Y-110410000D01*
X133134928Y-110921905D01*
X133124185Y-110908815D01*
X133027494Y-110829463D01*
X132917180Y-110770498D01*
X132797482Y-110734188D01*
X132673000Y-110721928D01*
X131773000Y-110721928D01*
X131648518Y-110734188D01*
X131528820Y-110770498D01*
X131418506Y-110829463D01*
X131321815Y-110908815D01*
X131242463Y-111005506D01*
X131210518Y-111065270D01*
X131098724Y-111125026D01*
X130982999Y-111219999D01*
X130959201Y-111248997D01*
X130615500Y-111592698D01*
X130615500Y-109180483D01*
X130628494Y-109173537D01*
X130725185Y-109094185D01*
X130804537Y-108997494D01*
X130814000Y-108979790D01*
X130823463Y-108997494D01*
X130902815Y-109094185D01*
X130999506Y-109173537D01*
X131109820Y-109232502D01*
X131229518Y-109268812D01*
X131354000Y-109281072D01*
X131668250Y-109278000D01*
X131827000Y-109119250D01*
X131827000Y-107670000D01*
X131807000Y-107670000D01*
X131807000Y-107416000D01*
X131827000Y-107416000D01*
X131827000Y-105966750D01*
X131668250Y-105808000D01*
X131354000Y-105804928D01*
X131229518Y-105817188D01*
X131109820Y-105853498D01*
X130999506Y-105912463D01*
X130902815Y-105991815D01*
X130823463Y-106088506D01*
X130814000Y-106106210D01*
X130804537Y-106088506D01*
X130725185Y-105991815D01*
X130628494Y-105912463D01*
X130518180Y-105853498D01*
X130498248Y-105847452D01*
X130495589Y-105838687D01*
X130413411Y-105684941D01*
X130302817Y-105550183D01*
X130269044Y-105522466D01*
X129879034Y-105132456D01*
X129851317Y-105098683D01*
X129828749Y-105080162D01*
X131668250Y-105078000D01*
X131827000Y-104919250D01*
X131827000Y-101370000D01*
X128577750Y-101370000D01*
X128419000Y-101528750D01*
X128415928Y-104443000D01*
X128428188Y-104567482D01*
X128464498Y-104687180D01*
X128523463Y-104797494D01*
X128560398Y-104842500D01*
X127932382Y-104842500D01*
X127880537Y-104745506D01*
X127801185Y-104648815D01*
X127740658Y-104599142D01*
X128080501Y-104259299D01*
X128109499Y-104235501D01*
X128204472Y-104119776D01*
X128275044Y-103987747D01*
X128318501Y-103844486D01*
X128329498Y-103732833D01*
X128333175Y-103695500D01*
X128329498Y-103658167D01*
X128329498Y-102968820D01*
X128333174Y-102931497D01*
X128329498Y-102894174D01*
X128329498Y-102894165D01*
X128318501Y-102782512D01*
X128275044Y-102639251D01*
X128204472Y-102507222D01*
X128110572Y-102392804D01*
X128110572Y-101969250D01*
X128093628Y-101797215D01*
X128043447Y-101631791D01*
X127961958Y-101479336D01*
X127852292Y-101345708D01*
X127718664Y-101236042D01*
X127566209Y-101154553D01*
X127400785Y-101104372D01*
X127228750Y-101087428D01*
X126974657Y-101087428D01*
X126979226Y-101076398D01*
X127019000Y-100876439D01*
X127019000Y-100712500D01*
X127112002Y-100712500D01*
X127112002Y-100553752D01*
X127270750Y-100712500D01*
X127472500Y-100715572D01*
X127596982Y-100703312D01*
X127716680Y-100667002D01*
X127826994Y-100608037D01*
X127923685Y-100528685D01*
X128003037Y-100431994D01*
X128062002Y-100321680D01*
X128098312Y-100201982D01*
X128110572Y-100077500D01*
X128107500Y-99663250D01*
X127948750Y-99504500D01*
X127112000Y-99504500D01*
X127112000Y-99524500D01*
X126858000Y-99524500D01*
X126858000Y-99504500D01*
X126838000Y-99504500D01*
X126838000Y-99250500D01*
X126858000Y-99250500D01*
X126858000Y-98201250D01*
X127112000Y-98201250D01*
X127112000Y-99250500D01*
X127948750Y-99250500D01*
X128107500Y-99091750D01*
X128110572Y-98677500D01*
X128098312Y-98553018D01*
X128062002Y-98433320D01*
X128003037Y-98323006D01*
X127923685Y-98226315D01*
X127826994Y-98146963D01*
X127716680Y-98087998D01*
X127596982Y-98051688D01*
X127472500Y-98039428D01*
X127270750Y-98042500D01*
X127112000Y-98201250D01*
X126858000Y-98201250D01*
X126699250Y-98042500D01*
X126497500Y-98039428D01*
X126373018Y-98051688D01*
X126253320Y-98087998D01*
X126143006Y-98146963D01*
X126046315Y-98226315D01*
X125982508Y-98304064D01*
X125977292Y-98297708D01*
X125843664Y-98188042D01*
X125691209Y-98106553D01*
X125525785Y-98056372D01*
X125402840Y-98044263D01*
X125265387Y-98001784D01*
X125116479Y-97986333D01*
X124967420Y-98000231D01*
X124823934Y-98042941D01*
X124822409Y-98043746D01*
X124694215Y-98056372D01*
X124528791Y-98106553D01*
X124376336Y-98188042D01*
X124242708Y-98297708D01*
X124133042Y-98431336D01*
X124051553Y-98583791D01*
X124001372Y-98749215D01*
X123984428Y-98921250D01*
X123984428Y-99833750D01*
X124001372Y-100005785D01*
X124051553Y-100171209D01*
X124133042Y-100323664D01*
X124242708Y-100457292D01*
X124336243Y-100534055D01*
X124331324Y-100584000D01*
X124342349Y-100695934D01*
X124339376Y-101266374D01*
X124242708Y-101345708D01*
X124133042Y-101479336D01*
X124051553Y-101631791D01*
X124001372Y-101797215D01*
X123984428Y-101969250D01*
X123984428Y-102881750D01*
X124001372Y-103053785D01*
X124051553Y-103219209D01*
X124133042Y-103371664D01*
X124242708Y-103505292D01*
X124376336Y-103614958D01*
X124528791Y-103696447D01*
X124694215Y-103746628D01*
X124866250Y-103763572D01*
X125353750Y-103763572D01*
X125525785Y-103746628D01*
X125691209Y-103696447D01*
X125843664Y-103614958D01*
X125977292Y-103505292D01*
X126047500Y-103419744D01*
X126117708Y-103505292D01*
X126251336Y-103614958D01*
X126403791Y-103696447D01*
X126472812Y-103717384D01*
X125727003Y-104463194D01*
X125697999Y-104486997D01*
X125681796Y-104506741D01*
X125574482Y-104474188D01*
X125450000Y-104461928D01*
X124850000Y-104461928D01*
X124725518Y-104474188D01*
X124605820Y-104510498D01*
X124495506Y-104569463D01*
X124398815Y-104648815D01*
X124319463Y-104745506D01*
X124260498Y-104855820D01*
X124257713Y-104865000D01*
X123517136Y-104865000D01*
X123572537Y-104797494D01*
X123631502Y-104687180D01*
X123667812Y-104567482D01*
X123680072Y-104443000D01*
X123677000Y-101528750D01*
X123518250Y-101370000D01*
X120269000Y-101370000D01*
X120269000Y-101390000D01*
X120015000Y-101390000D01*
X120015000Y-101370000D01*
X119995000Y-101370000D01*
X119995000Y-101116000D01*
X120015000Y-101116000D01*
X120015000Y-101096000D01*
X120269000Y-101096000D01*
X120269000Y-101116000D01*
X123518250Y-101116000D01*
X123677000Y-100957250D01*
X123680072Y-98043000D01*
X123670125Y-97942000D01*
X128425875Y-97942000D01*
X128415928Y-98043000D01*
G37*
X128415928Y-98043000D02*
X128419000Y-100957250D01*
X128577750Y-101116000D01*
X131827000Y-101116000D01*
X131827000Y-101096000D01*
X132081000Y-101096000D01*
X132081000Y-101116000D01*
X135330250Y-101116000D01*
X135489000Y-100957250D01*
X135492072Y-98043000D01*
X135482125Y-97942000D01*
X137770000Y-97942000D01*
X137770000Y-100118318D01*
X137593158Y-100045068D01*
X137306260Y-99988000D01*
X137013740Y-99988000D01*
X136726842Y-100045068D01*
X136456589Y-100157010D01*
X136213368Y-100319525D01*
X136006525Y-100526368D01*
X135844010Y-100769589D01*
X135732068Y-101039842D01*
X135675000Y-101326740D01*
X135675000Y-101619260D01*
X135732068Y-101906158D01*
X135844010Y-102176411D01*
X136006525Y-102419632D01*
X136213368Y-102626475D01*
X136387760Y-102743000D01*
X136213368Y-102859525D01*
X136006525Y-103066368D01*
X135844010Y-103309589D01*
X135732068Y-103579842D01*
X135675000Y-103866740D01*
X135675000Y-104159260D01*
X135732068Y-104446158D01*
X135844010Y-104716411D01*
X136006525Y-104959632D01*
X136213368Y-105166475D01*
X136387760Y-105283000D01*
X136213368Y-105399525D01*
X136006525Y-105606368D01*
X135866594Y-105815790D01*
X135330806Y-105280002D01*
X135307003Y-105250999D01*
X135191278Y-105156026D01*
X135059249Y-105085454D01*
X134991434Y-105064883D01*
X135098180Y-105032502D01*
X135208494Y-104973537D01*
X135305185Y-104894185D01*
X135384537Y-104797494D01*
X135443502Y-104687180D01*
X135479812Y-104567482D01*
X135492072Y-104443000D01*
X135489000Y-101528750D01*
X135330250Y-101370000D01*
X132081000Y-101370000D01*
X132081000Y-104919250D01*
X132239750Y-105078000D01*
X133428718Y-105079397D01*
X133408751Y-105085454D01*
X133276722Y-105156026D01*
X133276720Y-105156027D01*
X133276721Y-105156027D01*
X133189994Y-105227201D01*
X133189990Y-105227205D01*
X133160997Y-105250999D01*
X133137203Y-105279992D01*
X132607045Y-105810152D01*
X132554000Y-105804928D01*
X132239750Y-105808000D01*
X132081000Y-105966750D01*
X132081000Y-107416000D01*
X132101000Y-107416000D01*
X132101000Y-107670000D01*
X132081000Y-107670000D01*
X132081000Y-109119250D01*
X132239750Y-109278000D01*
X132554000Y-109281072D01*
X132607045Y-109275848D01*
X133307479Y-109976283D01*
X133242463Y-110055506D01*
X133183498Y-110165820D01*
X133147188Y-110285518D01*
X133134928Y-110410000D01*
X133134928Y-110921905D01*
X133124185Y-110908815D01*
X133027494Y-110829463D01*
X132917180Y-110770498D01*
X132797482Y-110734188D01*
X132673000Y-110721928D01*
X131773000Y-110721928D01*
X131648518Y-110734188D01*
X131528820Y-110770498D01*
X131418506Y-110829463D01*
X131321815Y-110908815D01*
X131242463Y-111005506D01*
X131210518Y-111065270D01*
X131098724Y-111125026D01*
X130982999Y-111219999D01*
X130959201Y-111248997D01*
X130615500Y-111592698D01*
X130615500Y-109180483D01*
X130628494Y-109173537D01*
X130725185Y-109094185D01*
X130804537Y-108997494D01*
X130814000Y-108979790D01*
X130823463Y-108997494D01*
X130902815Y-109094185D01*
X130999506Y-109173537D01*
X131109820Y-109232502D01*
X131229518Y-109268812D01*
X131354000Y-109281072D01*
X131668250Y-109278000D01*
X131827000Y-109119250D01*
X131827000Y-107670000D01*
X131807000Y-107670000D01*
X131807000Y-107416000D01*
X131827000Y-107416000D01*
X131827000Y-105966750D01*
X131668250Y-105808000D01*
X131354000Y-105804928D01*
X131229518Y-105817188D01*
X131109820Y-105853498D01*
X130999506Y-105912463D01*
X130902815Y-105991815D01*
X130823463Y-106088506D01*
X130814000Y-106106210D01*
X130804537Y-106088506D01*
X130725185Y-105991815D01*
X130628494Y-105912463D01*
X130518180Y-105853498D01*
X130498248Y-105847452D01*
X130495589Y-105838687D01*
X130413411Y-105684941D01*
X130302817Y-105550183D01*
X130269044Y-105522466D01*
X129879034Y-105132456D01*
X129851317Y-105098683D01*
X129828749Y-105080162D01*
X131668250Y-105078000D01*
X131827000Y-104919250D01*
X131827000Y-101370000D01*
X128577750Y-101370000D01*
X128419000Y-101528750D01*
X128415928Y-104443000D01*
X128428188Y-104567482D01*
X128464498Y-104687180D01*
X128523463Y-104797494D01*
X128560398Y-104842500D01*
X127932382Y-104842500D01*
X127880537Y-104745506D01*
X127801185Y-104648815D01*
X127740658Y-104599142D01*
X128080501Y-104259299D01*
X128109499Y-104235501D01*
X128204472Y-104119776D01*
X128275044Y-103987747D01*
X128318501Y-103844486D01*
X128329498Y-103732833D01*
X128333175Y-103695500D01*
X128329498Y-103658167D01*
X128329498Y-102968820D01*
X128333174Y-102931497D01*
X128329498Y-102894174D01*
X128329498Y-102894165D01*
X128318501Y-102782512D01*
X128275044Y-102639251D01*
X128204472Y-102507222D01*
X128110572Y-102392804D01*
X128110572Y-101969250D01*
X128093628Y-101797215D01*
X128043447Y-101631791D01*
X127961958Y-101479336D01*
X127852292Y-101345708D01*
X127718664Y-101236042D01*
X127566209Y-101154553D01*
X127400785Y-101104372D01*
X127228750Y-101087428D01*
X126974657Y-101087428D01*
X126979226Y-101076398D01*
X127019000Y-100876439D01*
X127019000Y-100712500D01*
X127112002Y-100712500D01*
X127112002Y-100553752D01*
X127270750Y-100712500D01*
X127472500Y-100715572D01*
X127596982Y-100703312D01*
X127716680Y-100667002D01*
X127826994Y-100608037D01*
X127923685Y-100528685D01*
X128003037Y-100431994D01*
X128062002Y-100321680D01*
X128098312Y-100201982D01*
X128110572Y-100077500D01*
X128107500Y-99663250D01*
X127948750Y-99504500D01*
X127112000Y-99504500D01*
X127112000Y-99524500D01*
X126858000Y-99524500D01*
X126858000Y-99504500D01*
X126838000Y-99504500D01*
X126838000Y-99250500D01*
X126858000Y-99250500D01*
X126858000Y-98201250D01*
X127112000Y-98201250D01*
X127112000Y-99250500D01*
X127948750Y-99250500D01*
X128107500Y-99091750D01*
X128110572Y-98677500D01*
X128098312Y-98553018D01*
X128062002Y-98433320D01*
X128003037Y-98323006D01*
X127923685Y-98226315D01*
X127826994Y-98146963D01*
X127716680Y-98087998D01*
X127596982Y-98051688D01*
X127472500Y-98039428D01*
X127270750Y-98042500D01*
X127112000Y-98201250D01*
X126858000Y-98201250D01*
X126699250Y-98042500D01*
X126497500Y-98039428D01*
X126373018Y-98051688D01*
X126253320Y-98087998D01*
X126143006Y-98146963D01*
X126046315Y-98226315D01*
X125982508Y-98304064D01*
X125977292Y-98297708D01*
X125843664Y-98188042D01*
X125691209Y-98106553D01*
X125525785Y-98056372D01*
X125402840Y-98044263D01*
X125265387Y-98001784D01*
X125116479Y-97986333D01*
X124967420Y-98000231D01*
X124823934Y-98042941D01*
X124822409Y-98043746D01*
X124694215Y-98056372D01*
X124528791Y-98106553D01*
X124376336Y-98188042D01*
X124242708Y-98297708D01*
X124133042Y-98431336D01*
X124051553Y-98583791D01*
X124001372Y-98749215D01*
X123984428Y-98921250D01*
X123984428Y-99833750D01*
X124001372Y-100005785D01*
X124051553Y-100171209D01*
X124133042Y-100323664D01*
X124242708Y-100457292D01*
X124336243Y-100534055D01*
X124331324Y-100584000D01*
X124342349Y-100695934D01*
X124339376Y-101266374D01*
X124242708Y-101345708D01*
X124133042Y-101479336D01*
X124051553Y-101631791D01*
X124001372Y-101797215D01*
X123984428Y-101969250D01*
X123984428Y-102881750D01*
X124001372Y-103053785D01*
X124051553Y-103219209D01*
X124133042Y-103371664D01*
X124242708Y-103505292D01*
X124376336Y-103614958D01*
X124528791Y-103696447D01*
X124694215Y-103746628D01*
X124866250Y-103763572D01*
X125353750Y-103763572D01*
X125525785Y-103746628D01*
X125691209Y-103696447D01*
X125843664Y-103614958D01*
X125977292Y-103505292D01*
X126047500Y-103419744D01*
X126117708Y-103505292D01*
X126251336Y-103614958D01*
X126403791Y-103696447D01*
X126472812Y-103717384D01*
X125727003Y-104463194D01*
X125697999Y-104486997D01*
X125681796Y-104506741D01*
X125574482Y-104474188D01*
X125450000Y-104461928D01*
X124850000Y-104461928D01*
X124725518Y-104474188D01*
X124605820Y-104510498D01*
X124495506Y-104569463D01*
X124398815Y-104648815D01*
X124319463Y-104745506D01*
X124260498Y-104855820D01*
X124257713Y-104865000D01*
X123517136Y-104865000D01*
X123572537Y-104797494D01*
X123631502Y-104687180D01*
X123667812Y-104567482D01*
X123680072Y-104443000D01*
X123677000Y-101528750D01*
X123518250Y-101370000D01*
X120269000Y-101370000D01*
X120269000Y-101390000D01*
X120015000Y-101390000D01*
X120015000Y-101370000D01*
X119995000Y-101370000D01*
X119995000Y-101116000D01*
X120015000Y-101116000D01*
X120015000Y-101096000D01*
X120269000Y-101096000D01*
X120269000Y-101116000D01*
X123518250Y-101116000D01*
X123677000Y-100957250D01*
X123680072Y-98043000D01*
X123670125Y-97942000D01*
X128425875Y-97942000D01*
X128415928Y-98043000D01*
M02*
