G04 #@! TF.GenerationSoftware,KiCad,Pcbnew,5.1.5+dfsg1-2build2*
G04 #@! TF.CreationDate,2020-10-04T22:15:50+02:00*
G04 #@! TF.ProjectId,transistor_board,7472616e-7369-4737-946f-725f626f6172,rev?*
G04 #@! TF.SameCoordinates,Original*
G04 #@! TF.FileFunction,Paste,Bot*
G04 #@! TF.FilePolarity,Positive*
%FSLAX46Y46*%
G04 Gerber Fmt 4.6, Leading zero omitted, Abs format (unit mm)*
G04 Created by KiCad (PCBNEW 5.1.5+dfsg1-2build2) date 2020-10-04 22:15:50*
%MOMM*%
%LPD*%
G04 APERTURE LIST*
%ADD10C,0.100000*%
%ADD11R,0.900000X0.800000*%
%ADD12R,0.600000X1.300000*%
%ADD13R,1.500000X2.000000*%
%ADD14R,2.750000X3.050000*%
%ADD15R,1.200000X2.200000*%
G04 APERTURE END LIST*
D10*
G36*
X136704505Y-122918204D02*
G01*
X136728773Y-122921804D01*
X136752572Y-122927765D01*
X136775671Y-122936030D01*
X136797850Y-122946520D01*
X136818893Y-122959132D01*
X136838599Y-122973747D01*
X136856777Y-122990223D01*
X136873253Y-123008401D01*
X136887868Y-123028107D01*
X136900480Y-123049150D01*
X136910970Y-123071329D01*
X136919235Y-123094428D01*
X136925196Y-123118227D01*
X136928796Y-123142495D01*
X136930000Y-123166999D01*
X136930000Y-124017001D01*
X136928796Y-124041505D01*
X136925196Y-124065773D01*
X136919235Y-124089572D01*
X136910970Y-124112671D01*
X136900480Y-124134850D01*
X136887868Y-124155893D01*
X136873253Y-124175599D01*
X136856777Y-124193777D01*
X136838599Y-124210253D01*
X136818893Y-124224868D01*
X136797850Y-124237480D01*
X136775671Y-124247970D01*
X136752572Y-124256235D01*
X136728773Y-124262196D01*
X136704505Y-124265796D01*
X136680001Y-124267000D01*
X133829999Y-124267000D01*
X133805495Y-124265796D01*
X133781227Y-124262196D01*
X133757428Y-124256235D01*
X133734329Y-124247970D01*
X133712150Y-124237480D01*
X133691107Y-124224868D01*
X133671401Y-124210253D01*
X133653223Y-124193777D01*
X133636747Y-124175599D01*
X133622132Y-124155893D01*
X133609520Y-124134850D01*
X133599030Y-124112671D01*
X133590765Y-124089572D01*
X133584804Y-124065773D01*
X133581204Y-124041505D01*
X133580000Y-124017001D01*
X133580000Y-123166999D01*
X133581204Y-123142495D01*
X133584804Y-123118227D01*
X133590765Y-123094428D01*
X133599030Y-123071329D01*
X133609520Y-123049150D01*
X133622132Y-123028107D01*
X133636747Y-123008401D01*
X133653223Y-122990223D01*
X133671401Y-122973747D01*
X133691107Y-122959132D01*
X133712150Y-122946520D01*
X133734329Y-122936030D01*
X133757428Y-122927765D01*
X133781227Y-122921804D01*
X133805495Y-122918204D01*
X133829999Y-122917000D01*
X136680001Y-122917000D01*
X136704505Y-122918204D01*
G37*
G36*
X136704505Y-128718204D02*
G01*
X136728773Y-128721804D01*
X136752572Y-128727765D01*
X136775671Y-128736030D01*
X136797850Y-128746520D01*
X136818893Y-128759132D01*
X136838599Y-128773747D01*
X136856777Y-128790223D01*
X136873253Y-128808401D01*
X136887868Y-128828107D01*
X136900480Y-128849150D01*
X136910970Y-128871329D01*
X136919235Y-128894428D01*
X136925196Y-128918227D01*
X136928796Y-128942495D01*
X136930000Y-128966999D01*
X136930000Y-129817001D01*
X136928796Y-129841505D01*
X136925196Y-129865773D01*
X136919235Y-129889572D01*
X136910970Y-129912671D01*
X136900480Y-129934850D01*
X136887868Y-129955893D01*
X136873253Y-129975599D01*
X136856777Y-129993777D01*
X136838599Y-130010253D01*
X136818893Y-130024868D01*
X136797850Y-130037480D01*
X136775671Y-130047970D01*
X136752572Y-130056235D01*
X136728773Y-130062196D01*
X136704505Y-130065796D01*
X136680001Y-130067000D01*
X133829999Y-130067000D01*
X133805495Y-130065796D01*
X133781227Y-130062196D01*
X133757428Y-130056235D01*
X133734329Y-130047970D01*
X133712150Y-130037480D01*
X133691107Y-130024868D01*
X133671401Y-130010253D01*
X133653223Y-129993777D01*
X133636747Y-129975599D01*
X133622132Y-129955893D01*
X133609520Y-129934850D01*
X133599030Y-129912671D01*
X133590765Y-129889572D01*
X133584804Y-129865773D01*
X133581204Y-129841505D01*
X133580000Y-129817001D01*
X133580000Y-128966999D01*
X133581204Y-128942495D01*
X133584804Y-128918227D01*
X133590765Y-128894428D01*
X133599030Y-128871329D01*
X133609520Y-128849150D01*
X133622132Y-128828107D01*
X133636747Y-128808401D01*
X133653223Y-128790223D01*
X133671401Y-128773747D01*
X133691107Y-128759132D01*
X133712150Y-128746520D01*
X133734329Y-128736030D01*
X133757428Y-128727765D01*
X133781227Y-128721804D01*
X133805495Y-128718204D01*
X133829999Y-128717000D01*
X136680001Y-128717000D01*
X136704505Y-128718204D01*
G37*
D11*
X132223000Y-111760000D03*
X134223000Y-112710000D03*
X134223000Y-110810000D03*
X132223000Y-116586000D03*
X134223000Y-117536000D03*
X134223000Y-115636000D03*
D12*
X125150000Y-105750000D03*
X127050000Y-105750000D03*
X126100000Y-107850000D03*
D13*
X118735000Y-121845000D03*
X123835000Y-121845000D03*
X123835000Y-113105000D03*
X118735000Y-113105000D03*
D10*
G36*
X134724505Y-119697204D02*
G01*
X134748773Y-119700804D01*
X134772572Y-119706765D01*
X134795671Y-119715030D01*
X134817850Y-119725520D01*
X134838893Y-119738132D01*
X134858599Y-119752747D01*
X134876777Y-119769223D01*
X134893253Y-119787401D01*
X134907868Y-119807107D01*
X134920480Y-119828150D01*
X134930970Y-119850329D01*
X134939235Y-119873428D01*
X134945196Y-119897227D01*
X134948796Y-119921495D01*
X134950000Y-119945999D01*
X134950000Y-120846001D01*
X134948796Y-120870505D01*
X134945196Y-120894773D01*
X134939235Y-120918572D01*
X134930970Y-120941671D01*
X134920480Y-120963850D01*
X134907868Y-120984893D01*
X134893253Y-121004599D01*
X134876777Y-121022777D01*
X134858599Y-121039253D01*
X134838893Y-121053868D01*
X134817850Y-121066480D01*
X134795671Y-121076970D01*
X134772572Y-121085235D01*
X134748773Y-121091196D01*
X134724505Y-121094796D01*
X134700001Y-121096000D01*
X134049999Y-121096000D01*
X134025495Y-121094796D01*
X134001227Y-121091196D01*
X133977428Y-121085235D01*
X133954329Y-121076970D01*
X133932150Y-121066480D01*
X133911107Y-121053868D01*
X133891401Y-121039253D01*
X133873223Y-121022777D01*
X133856747Y-121004599D01*
X133842132Y-120984893D01*
X133829520Y-120963850D01*
X133819030Y-120941671D01*
X133810765Y-120918572D01*
X133804804Y-120894773D01*
X133801204Y-120870505D01*
X133800000Y-120846001D01*
X133800000Y-119945999D01*
X133801204Y-119921495D01*
X133804804Y-119897227D01*
X133810765Y-119873428D01*
X133819030Y-119850329D01*
X133829520Y-119828150D01*
X133842132Y-119807107D01*
X133856747Y-119787401D01*
X133873223Y-119769223D01*
X133891401Y-119752747D01*
X133911107Y-119738132D01*
X133932150Y-119725520D01*
X133954329Y-119715030D01*
X133977428Y-119706765D01*
X134001227Y-119700804D01*
X134025495Y-119697204D01*
X134049999Y-119696000D01*
X134700001Y-119696000D01*
X134724505Y-119697204D01*
G37*
G36*
X132674505Y-119697204D02*
G01*
X132698773Y-119700804D01*
X132722572Y-119706765D01*
X132745671Y-119715030D01*
X132767850Y-119725520D01*
X132788893Y-119738132D01*
X132808599Y-119752747D01*
X132826777Y-119769223D01*
X132843253Y-119787401D01*
X132857868Y-119807107D01*
X132870480Y-119828150D01*
X132880970Y-119850329D01*
X132889235Y-119873428D01*
X132895196Y-119897227D01*
X132898796Y-119921495D01*
X132900000Y-119945999D01*
X132900000Y-120846001D01*
X132898796Y-120870505D01*
X132895196Y-120894773D01*
X132889235Y-120918572D01*
X132880970Y-120941671D01*
X132870480Y-120963850D01*
X132857868Y-120984893D01*
X132843253Y-121004599D01*
X132826777Y-121022777D01*
X132808599Y-121039253D01*
X132788893Y-121053868D01*
X132767850Y-121066480D01*
X132745671Y-121076970D01*
X132722572Y-121085235D01*
X132698773Y-121091196D01*
X132674505Y-121094796D01*
X132650001Y-121096000D01*
X131999999Y-121096000D01*
X131975495Y-121094796D01*
X131951227Y-121091196D01*
X131927428Y-121085235D01*
X131904329Y-121076970D01*
X131882150Y-121066480D01*
X131861107Y-121053868D01*
X131841401Y-121039253D01*
X131823223Y-121022777D01*
X131806747Y-121004599D01*
X131792132Y-120984893D01*
X131779520Y-120963850D01*
X131769030Y-120941671D01*
X131760765Y-120918572D01*
X131754804Y-120894773D01*
X131751204Y-120870505D01*
X131750000Y-120846001D01*
X131750000Y-119945999D01*
X131751204Y-119921495D01*
X131754804Y-119897227D01*
X131760765Y-119873428D01*
X131769030Y-119850329D01*
X131779520Y-119828150D01*
X131792132Y-119807107D01*
X131806747Y-119787401D01*
X131823223Y-119769223D01*
X131841401Y-119752747D01*
X131861107Y-119738132D01*
X131882150Y-119725520D01*
X131904329Y-119715030D01*
X131927428Y-119706765D01*
X131951227Y-119700804D01*
X131975495Y-119697204D01*
X131999999Y-119696000D01*
X132650001Y-119696000D01*
X132674505Y-119697204D01*
G37*
G36*
X114774505Y-123641204D02*
G01*
X114798773Y-123644804D01*
X114822572Y-123650765D01*
X114845671Y-123659030D01*
X114867850Y-123669520D01*
X114888893Y-123682132D01*
X114908599Y-123696747D01*
X114926777Y-123713223D01*
X114943253Y-123731401D01*
X114957868Y-123751107D01*
X114970480Y-123772150D01*
X114980970Y-123794329D01*
X114989235Y-123817428D01*
X114995196Y-123841227D01*
X114998796Y-123865495D01*
X115000000Y-123889999D01*
X115000000Y-124540001D01*
X114998796Y-124564505D01*
X114995196Y-124588773D01*
X114989235Y-124612572D01*
X114980970Y-124635671D01*
X114970480Y-124657850D01*
X114957868Y-124678893D01*
X114943253Y-124698599D01*
X114926777Y-124716777D01*
X114908599Y-124733253D01*
X114888893Y-124747868D01*
X114867850Y-124760480D01*
X114845671Y-124770970D01*
X114822572Y-124779235D01*
X114798773Y-124785196D01*
X114774505Y-124788796D01*
X114750001Y-124790000D01*
X113849999Y-124790000D01*
X113825495Y-124788796D01*
X113801227Y-124785196D01*
X113777428Y-124779235D01*
X113754329Y-124770970D01*
X113732150Y-124760480D01*
X113711107Y-124747868D01*
X113691401Y-124733253D01*
X113673223Y-124716777D01*
X113656747Y-124698599D01*
X113642132Y-124678893D01*
X113629520Y-124657850D01*
X113619030Y-124635671D01*
X113610765Y-124612572D01*
X113604804Y-124588773D01*
X113601204Y-124564505D01*
X113600000Y-124540001D01*
X113600000Y-123889999D01*
X113601204Y-123865495D01*
X113604804Y-123841227D01*
X113610765Y-123817428D01*
X113619030Y-123794329D01*
X113629520Y-123772150D01*
X113642132Y-123751107D01*
X113656747Y-123731401D01*
X113673223Y-123713223D01*
X113691401Y-123696747D01*
X113711107Y-123682132D01*
X113732150Y-123669520D01*
X113754329Y-123659030D01*
X113777428Y-123650765D01*
X113801227Y-123644804D01*
X113825495Y-123641204D01*
X113849999Y-123640000D01*
X114750001Y-123640000D01*
X114774505Y-123641204D01*
G37*
G36*
X114774505Y-121591204D02*
G01*
X114798773Y-121594804D01*
X114822572Y-121600765D01*
X114845671Y-121609030D01*
X114867850Y-121619520D01*
X114888893Y-121632132D01*
X114908599Y-121646747D01*
X114926777Y-121663223D01*
X114943253Y-121681401D01*
X114957868Y-121701107D01*
X114970480Y-121722150D01*
X114980970Y-121744329D01*
X114989235Y-121767428D01*
X114995196Y-121791227D01*
X114998796Y-121815495D01*
X115000000Y-121839999D01*
X115000000Y-122490001D01*
X114998796Y-122514505D01*
X114995196Y-122538773D01*
X114989235Y-122562572D01*
X114980970Y-122585671D01*
X114970480Y-122607850D01*
X114957868Y-122628893D01*
X114943253Y-122648599D01*
X114926777Y-122666777D01*
X114908599Y-122683253D01*
X114888893Y-122697868D01*
X114867850Y-122710480D01*
X114845671Y-122720970D01*
X114822572Y-122729235D01*
X114798773Y-122735196D01*
X114774505Y-122738796D01*
X114750001Y-122740000D01*
X113849999Y-122740000D01*
X113825495Y-122738796D01*
X113801227Y-122735196D01*
X113777428Y-122729235D01*
X113754329Y-122720970D01*
X113732150Y-122710480D01*
X113711107Y-122697868D01*
X113691401Y-122683253D01*
X113673223Y-122666777D01*
X113656747Y-122648599D01*
X113642132Y-122628893D01*
X113629520Y-122607850D01*
X113619030Y-122585671D01*
X113610765Y-122562572D01*
X113604804Y-122538773D01*
X113601204Y-122514505D01*
X113600000Y-122490001D01*
X113600000Y-121839999D01*
X113601204Y-121815495D01*
X113604804Y-121791227D01*
X113610765Y-121767428D01*
X113619030Y-121744329D01*
X113629520Y-121722150D01*
X113642132Y-121701107D01*
X113656747Y-121681401D01*
X113673223Y-121663223D01*
X113691401Y-121646747D01*
X113711107Y-121632132D01*
X113732150Y-121619520D01*
X113754329Y-121609030D01*
X113777428Y-121600765D01*
X113801227Y-121594804D01*
X113825495Y-121591204D01*
X113849999Y-121590000D01*
X114750001Y-121590000D01*
X114774505Y-121591204D01*
G37*
G36*
X114774505Y-125909204D02*
G01*
X114798773Y-125912804D01*
X114822572Y-125918765D01*
X114845671Y-125927030D01*
X114867850Y-125937520D01*
X114888893Y-125950132D01*
X114908599Y-125964747D01*
X114926777Y-125981223D01*
X114943253Y-125999401D01*
X114957868Y-126019107D01*
X114970480Y-126040150D01*
X114980970Y-126062329D01*
X114989235Y-126085428D01*
X114995196Y-126109227D01*
X114998796Y-126133495D01*
X115000000Y-126157999D01*
X115000000Y-126808001D01*
X114998796Y-126832505D01*
X114995196Y-126856773D01*
X114989235Y-126880572D01*
X114980970Y-126903671D01*
X114970480Y-126925850D01*
X114957868Y-126946893D01*
X114943253Y-126966599D01*
X114926777Y-126984777D01*
X114908599Y-127001253D01*
X114888893Y-127015868D01*
X114867850Y-127028480D01*
X114845671Y-127038970D01*
X114822572Y-127047235D01*
X114798773Y-127053196D01*
X114774505Y-127056796D01*
X114750001Y-127058000D01*
X113849999Y-127058000D01*
X113825495Y-127056796D01*
X113801227Y-127053196D01*
X113777428Y-127047235D01*
X113754329Y-127038970D01*
X113732150Y-127028480D01*
X113711107Y-127015868D01*
X113691401Y-127001253D01*
X113673223Y-126984777D01*
X113656747Y-126966599D01*
X113642132Y-126946893D01*
X113629520Y-126925850D01*
X113619030Y-126903671D01*
X113610765Y-126880572D01*
X113604804Y-126856773D01*
X113601204Y-126832505D01*
X113600000Y-126808001D01*
X113600000Y-126157999D01*
X113601204Y-126133495D01*
X113604804Y-126109227D01*
X113610765Y-126085428D01*
X113619030Y-126062329D01*
X113629520Y-126040150D01*
X113642132Y-126019107D01*
X113656747Y-125999401D01*
X113673223Y-125981223D01*
X113691401Y-125964747D01*
X113711107Y-125950132D01*
X113732150Y-125937520D01*
X113754329Y-125927030D01*
X113777428Y-125918765D01*
X113801227Y-125912804D01*
X113825495Y-125909204D01*
X113849999Y-125908000D01*
X114750001Y-125908000D01*
X114774505Y-125909204D01*
G37*
G36*
X114774505Y-127959204D02*
G01*
X114798773Y-127962804D01*
X114822572Y-127968765D01*
X114845671Y-127977030D01*
X114867850Y-127987520D01*
X114888893Y-128000132D01*
X114908599Y-128014747D01*
X114926777Y-128031223D01*
X114943253Y-128049401D01*
X114957868Y-128069107D01*
X114970480Y-128090150D01*
X114980970Y-128112329D01*
X114989235Y-128135428D01*
X114995196Y-128159227D01*
X114998796Y-128183495D01*
X115000000Y-128207999D01*
X115000000Y-128858001D01*
X114998796Y-128882505D01*
X114995196Y-128906773D01*
X114989235Y-128930572D01*
X114980970Y-128953671D01*
X114970480Y-128975850D01*
X114957868Y-128996893D01*
X114943253Y-129016599D01*
X114926777Y-129034777D01*
X114908599Y-129051253D01*
X114888893Y-129065868D01*
X114867850Y-129078480D01*
X114845671Y-129088970D01*
X114822572Y-129097235D01*
X114798773Y-129103196D01*
X114774505Y-129106796D01*
X114750001Y-129108000D01*
X113849999Y-129108000D01*
X113825495Y-129106796D01*
X113801227Y-129103196D01*
X113777428Y-129097235D01*
X113754329Y-129088970D01*
X113732150Y-129078480D01*
X113711107Y-129065868D01*
X113691401Y-129051253D01*
X113673223Y-129034777D01*
X113656747Y-129016599D01*
X113642132Y-128996893D01*
X113629520Y-128975850D01*
X113619030Y-128953671D01*
X113610765Y-128930572D01*
X113604804Y-128906773D01*
X113601204Y-128882505D01*
X113600000Y-128858001D01*
X113600000Y-128207999D01*
X113601204Y-128183495D01*
X113604804Y-128159227D01*
X113610765Y-128135428D01*
X113619030Y-128112329D01*
X113629520Y-128090150D01*
X113642132Y-128069107D01*
X113656747Y-128049401D01*
X113673223Y-128031223D01*
X113691401Y-128014747D01*
X113711107Y-128000132D01*
X113732150Y-127987520D01*
X113754329Y-127977030D01*
X113777428Y-127968765D01*
X113801227Y-127962804D01*
X113825495Y-127959204D01*
X113849999Y-127958000D01*
X114750001Y-127958000D01*
X114774505Y-127959204D01*
G37*
G36*
X127252642Y-98678674D02*
G01*
X127276303Y-98682184D01*
X127299507Y-98687996D01*
X127322029Y-98696054D01*
X127343653Y-98706282D01*
X127364170Y-98718579D01*
X127383383Y-98732829D01*
X127401107Y-98748893D01*
X127417171Y-98766617D01*
X127431421Y-98785830D01*
X127443718Y-98806347D01*
X127453946Y-98827971D01*
X127462004Y-98850493D01*
X127467816Y-98873697D01*
X127471326Y-98897358D01*
X127472500Y-98921250D01*
X127472500Y-99833750D01*
X127471326Y-99857642D01*
X127467816Y-99881303D01*
X127462004Y-99904507D01*
X127453946Y-99927029D01*
X127443718Y-99948653D01*
X127431421Y-99969170D01*
X127417171Y-99988383D01*
X127401107Y-100006107D01*
X127383383Y-100022171D01*
X127364170Y-100036421D01*
X127343653Y-100048718D01*
X127322029Y-100058946D01*
X127299507Y-100067004D01*
X127276303Y-100072816D01*
X127252642Y-100076326D01*
X127228750Y-100077500D01*
X126741250Y-100077500D01*
X126717358Y-100076326D01*
X126693697Y-100072816D01*
X126670493Y-100067004D01*
X126647971Y-100058946D01*
X126626347Y-100048718D01*
X126605830Y-100036421D01*
X126586617Y-100022171D01*
X126568893Y-100006107D01*
X126552829Y-99988383D01*
X126538579Y-99969170D01*
X126526282Y-99948653D01*
X126516054Y-99927029D01*
X126507996Y-99904507D01*
X126502184Y-99881303D01*
X126498674Y-99857642D01*
X126497500Y-99833750D01*
X126497500Y-98921250D01*
X126498674Y-98897358D01*
X126502184Y-98873697D01*
X126507996Y-98850493D01*
X126516054Y-98827971D01*
X126526282Y-98806347D01*
X126538579Y-98785830D01*
X126552829Y-98766617D01*
X126568893Y-98748893D01*
X126586617Y-98732829D01*
X126605830Y-98718579D01*
X126626347Y-98706282D01*
X126647971Y-98696054D01*
X126670493Y-98687996D01*
X126693697Y-98682184D01*
X126717358Y-98678674D01*
X126741250Y-98677500D01*
X127228750Y-98677500D01*
X127252642Y-98678674D01*
G37*
G36*
X125377642Y-98678674D02*
G01*
X125401303Y-98682184D01*
X125424507Y-98687996D01*
X125447029Y-98696054D01*
X125468653Y-98706282D01*
X125489170Y-98718579D01*
X125508383Y-98732829D01*
X125526107Y-98748893D01*
X125542171Y-98766617D01*
X125556421Y-98785830D01*
X125568718Y-98806347D01*
X125578946Y-98827971D01*
X125587004Y-98850493D01*
X125592816Y-98873697D01*
X125596326Y-98897358D01*
X125597500Y-98921250D01*
X125597500Y-99833750D01*
X125596326Y-99857642D01*
X125592816Y-99881303D01*
X125587004Y-99904507D01*
X125578946Y-99927029D01*
X125568718Y-99948653D01*
X125556421Y-99969170D01*
X125542171Y-99988383D01*
X125526107Y-100006107D01*
X125508383Y-100022171D01*
X125489170Y-100036421D01*
X125468653Y-100048718D01*
X125447029Y-100058946D01*
X125424507Y-100067004D01*
X125401303Y-100072816D01*
X125377642Y-100076326D01*
X125353750Y-100077500D01*
X124866250Y-100077500D01*
X124842358Y-100076326D01*
X124818697Y-100072816D01*
X124795493Y-100067004D01*
X124772971Y-100058946D01*
X124751347Y-100048718D01*
X124730830Y-100036421D01*
X124711617Y-100022171D01*
X124693893Y-100006107D01*
X124677829Y-99988383D01*
X124663579Y-99969170D01*
X124651282Y-99948653D01*
X124641054Y-99927029D01*
X124632996Y-99904507D01*
X124627184Y-99881303D01*
X124623674Y-99857642D01*
X124622500Y-99833750D01*
X124622500Y-98921250D01*
X124623674Y-98897358D01*
X124627184Y-98873697D01*
X124632996Y-98850493D01*
X124641054Y-98827971D01*
X124651282Y-98806347D01*
X124663579Y-98785830D01*
X124677829Y-98766617D01*
X124693893Y-98748893D01*
X124711617Y-98732829D01*
X124730830Y-98718579D01*
X124751347Y-98706282D01*
X124772971Y-98696054D01*
X124795493Y-98687996D01*
X124818697Y-98682184D01*
X124842358Y-98678674D01*
X124866250Y-98677500D01*
X125353750Y-98677500D01*
X125377642Y-98678674D01*
G37*
G36*
X125377642Y-101726674D02*
G01*
X125401303Y-101730184D01*
X125424507Y-101735996D01*
X125447029Y-101744054D01*
X125468653Y-101754282D01*
X125489170Y-101766579D01*
X125508383Y-101780829D01*
X125526107Y-101796893D01*
X125542171Y-101814617D01*
X125556421Y-101833830D01*
X125568718Y-101854347D01*
X125578946Y-101875971D01*
X125587004Y-101898493D01*
X125592816Y-101921697D01*
X125596326Y-101945358D01*
X125597500Y-101969250D01*
X125597500Y-102881750D01*
X125596326Y-102905642D01*
X125592816Y-102929303D01*
X125587004Y-102952507D01*
X125578946Y-102975029D01*
X125568718Y-102996653D01*
X125556421Y-103017170D01*
X125542171Y-103036383D01*
X125526107Y-103054107D01*
X125508383Y-103070171D01*
X125489170Y-103084421D01*
X125468653Y-103096718D01*
X125447029Y-103106946D01*
X125424507Y-103115004D01*
X125401303Y-103120816D01*
X125377642Y-103124326D01*
X125353750Y-103125500D01*
X124866250Y-103125500D01*
X124842358Y-103124326D01*
X124818697Y-103120816D01*
X124795493Y-103115004D01*
X124772971Y-103106946D01*
X124751347Y-103096718D01*
X124730830Y-103084421D01*
X124711617Y-103070171D01*
X124693893Y-103054107D01*
X124677829Y-103036383D01*
X124663579Y-103017170D01*
X124651282Y-102996653D01*
X124641054Y-102975029D01*
X124632996Y-102952507D01*
X124627184Y-102929303D01*
X124623674Y-102905642D01*
X124622500Y-102881750D01*
X124622500Y-101969250D01*
X124623674Y-101945358D01*
X124627184Y-101921697D01*
X124632996Y-101898493D01*
X124641054Y-101875971D01*
X124651282Y-101854347D01*
X124663579Y-101833830D01*
X124677829Y-101814617D01*
X124693893Y-101796893D01*
X124711617Y-101780829D01*
X124730830Y-101766579D01*
X124751347Y-101754282D01*
X124772971Y-101744054D01*
X124795493Y-101735996D01*
X124818697Y-101730184D01*
X124842358Y-101726674D01*
X124866250Y-101725500D01*
X125353750Y-101725500D01*
X125377642Y-101726674D01*
G37*
G36*
X127252642Y-101726674D02*
G01*
X127276303Y-101730184D01*
X127299507Y-101735996D01*
X127322029Y-101744054D01*
X127343653Y-101754282D01*
X127364170Y-101766579D01*
X127383383Y-101780829D01*
X127401107Y-101796893D01*
X127417171Y-101814617D01*
X127431421Y-101833830D01*
X127443718Y-101854347D01*
X127453946Y-101875971D01*
X127462004Y-101898493D01*
X127467816Y-101921697D01*
X127471326Y-101945358D01*
X127472500Y-101969250D01*
X127472500Y-102881750D01*
X127471326Y-102905642D01*
X127467816Y-102929303D01*
X127462004Y-102952507D01*
X127453946Y-102975029D01*
X127443718Y-102996653D01*
X127431421Y-103017170D01*
X127417171Y-103036383D01*
X127401107Y-103054107D01*
X127383383Y-103070171D01*
X127364170Y-103084421D01*
X127343653Y-103096718D01*
X127322029Y-103106946D01*
X127299507Y-103115004D01*
X127276303Y-103120816D01*
X127252642Y-103124326D01*
X127228750Y-103125500D01*
X126741250Y-103125500D01*
X126717358Y-103124326D01*
X126693697Y-103120816D01*
X126670493Y-103115004D01*
X126647971Y-103106946D01*
X126626347Y-103096718D01*
X126605830Y-103084421D01*
X126586617Y-103070171D01*
X126568893Y-103054107D01*
X126552829Y-103036383D01*
X126538579Y-103017170D01*
X126526282Y-102996653D01*
X126516054Y-102975029D01*
X126507996Y-102952507D01*
X126502184Y-102929303D01*
X126498674Y-102905642D01*
X126497500Y-102881750D01*
X126497500Y-101969250D01*
X126498674Y-101945358D01*
X126502184Y-101921697D01*
X126507996Y-101898493D01*
X126516054Y-101875971D01*
X126526282Y-101854347D01*
X126538579Y-101833830D01*
X126552829Y-101814617D01*
X126568893Y-101796893D01*
X126586617Y-101780829D01*
X126605830Y-101766579D01*
X126626347Y-101754282D01*
X126647971Y-101744054D01*
X126670493Y-101735996D01*
X126693697Y-101730184D01*
X126717358Y-101726674D01*
X126741250Y-101725500D01*
X127228750Y-101725500D01*
X127252642Y-101726674D01*
G37*
D14*
X130429000Y-102918000D03*
X133479000Y-99568000D03*
X133479000Y-102918000D03*
X130429000Y-99568000D03*
D15*
X129674000Y-107543000D03*
X131954000Y-107543000D03*
X134234000Y-107543000D03*
D14*
X118617000Y-102918000D03*
X121667000Y-99568000D03*
X121667000Y-102918000D03*
X118617000Y-99568000D03*
D15*
X117862000Y-107543000D03*
X120142000Y-107543000D03*
X122422000Y-107543000D03*
M02*
