G04 #@! TF.GenerationSoftware,KiCad,Pcbnew,5.1.5+dfsg1-2build2*
G04 #@! TF.CreationDate,2020-10-04T22:15:50+02:00*
G04 #@! TF.ProjectId,transistor_board,7472616e-7369-4737-946f-725f626f6172,rev?*
G04 #@! TF.SameCoordinates,Original*
G04 #@! TF.FileFunction,Soldermask,Bot*
G04 #@! TF.FilePolarity,Negative*
%FSLAX46Y46*%
G04 Gerber Fmt 4.6, Leading zero omitted, Abs format (unit mm)*
G04 Created by KiCad (PCBNEW 5.1.5+dfsg1-2build2) date 2020-10-04 22:15:50*
%MOMM*%
%LPD*%
G04 APERTURE LIST*
%ADD10C,0.100000*%
G04 APERTURE END LIST*
D10*
G36*
X138061000Y-134886000D02*
G01*
X136259000Y-134886000D01*
X136259000Y-133084000D01*
X138061000Y-133084000D01*
X138061000Y-134886000D01*
G37*
G36*
X134733512Y-133088927D02*
G01*
X134882812Y-133118624D01*
X135046784Y-133186544D01*
X135194354Y-133285147D01*
X135319853Y-133410646D01*
X135418456Y-133558216D01*
X135486376Y-133722188D01*
X135521000Y-133896259D01*
X135521000Y-134073741D01*
X135486376Y-134247812D01*
X135418456Y-134411784D01*
X135319853Y-134559354D01*
X135194354Y-134684853D01*
X135046784Y-134783456D01*
X134882812Y-134851376D01*
X134733512Y-134881073D01*
X134708742Y-134886000D01*
X134531258Y-134886000D01*
X134506488Y-134881073D01*
X134357188Y-134851376D01*
X134193216Y-134783456D01*
X134045646Y-134684853D01*
X133920147Y-134559354D01*
X133821544Y-134411784D01*
X133753624Y-134247812D01*
X133719000Y-134073741D01*
X133719000Y-133896259D01*
X133753624Y-133722188D01*
X133821544Y-133558216D01*
X133920147Y-133410646D01*
X134045646Y-133285147D01*
X134193216Y-133186544D01*
X134357188Y-133118624D01*
X134506488Y-133088927D01*
X134531258Y-133084000D01*
X134708742Y-133084000D01*
X134733512Y-133088927D01*
G37*
G36*
X114413512Y-133088927D02*
G01*
X114562812Y-133118624D01*
X114726784Y-133186544D01*
X114874354Y-133285147D01*
X114999853Y-133410646D01*
X115098456Y-133558216D01*
X115166376Y-133722188D01*
X115201000Y-133896259D01*
X115201000Y-134073741D01*
X115166376Y-134247812D01*
X115098456Y-134411784D01*
X114999853Y-134559354D01*
X114874354Y-134684853D01*
X114726784Y-134783456D01*
X114562812Y-134851376D01*
X114413512Y-134881073D01*
X114388742Y-134886000D01*
X114211258Y-134886000D01*
X114186488Y-134881073D01*
X114037188Y-134851376D01*
X113873216Y-134783456D01*
X113725646Y-134684853D01*
X113600147Y-134559354D01*
X113501544Y-134411784D01*
X113433624Y-134247812D01*
X113399000Y-134073741D01*
X113399000Y-133896259D01*
X113433624Y-133722188D01*
X113501544Y-133558216D01*
X113600147Y-133410646D01*
X113725646Y-133285147D01*
X113873216Y-133186544D01*
X114037188Y-133118624D01*
X114186488Y-133088927D01*
X114211258Y-133084000D01*
X114388742Y-133084000D01*
X114413512Y-133088927D01*
G37*
G36*
X116953512Y-133088927D02*
G01*
X117102812Y-133118624D01*
X117266784Y-133186544D01*
X117414354Y-133285147D01*
X117539853Y-133410646D01*
X117638456Y-133558216D01*
X117706376Y-133722188D01*
X117741000Y-133896259D01*
X117741000Y-134073741D01*
X117706376Y-134247812D01*
X117638456Y-134411784D01*
X117539853Y-134559354D01*
X117414354Y-134684853D01*
X117266784Y-134783456D01*
X117102812Y-134851376D01*
X116953512Y-134881073D01*
X116928742Y-134886000D01*
X116751258Y-134886000D01*
X116726488Y-134881073D01*
X116577188Y-134851376D01*
X116413216Y-134783456D01*
X116265646Y-134684853D01*
X116140147Y-134559354D01*
X116041544Y-134411784D01*
X115973624Y-134247812D01*
X115939000Y-134073741D01*
X115939000Y-133896259D01*
X115973624Y-133722188D01*
X116041544Y-133558216D01*
X116140147Y-133410646D01*
X116265646Y-133285147D01*
X116413216Y-133186544D01*
X116577188Y-133118624D01*
X116726488Y-133088927D01*
X116751258Y-133084000D01*
X116928742Y-133084000D01*
X116953512Y-133088927D01*
G37*
G36*
X119493512Y-133088927D02*
G01*
X119642812Y-133118624D01*
X119806784Y-133186544D01*
X119954354Y-133285147D01*
X120079853Y-133410646D01*
X120178456Y-133558216D01*
X120246376Y-133722188D01*
X120281000Y-133896259D01*
X120281000Y-134073741D01*
X120246376Y-134247812D01*
X120178456Y-134411784D01*
X120079853Y-134559354D01*
X119954354Y-134684853D01*
X119806784Y-134783456D01*
X119642812Y-134851376D01*
X119493512Y-134881073D01*
X119468742Y-134886000D01*
X119291258Y-134886000D01*
X119266488Y-134881073D01*
X119117188Y-134851376D01*
X118953216Y-134783456D01*
X118805646Y-134684853D01*
X118680147Y-134559354D01*
X118581544Y-134411784D01*
X118513624Y-134247812D01*
X118479000Y-134073741D01*
X118479000Y-133896259D01*
X118513624Y-133722188D01*
X118581544Y-133558216D01*
X118680147Y-133410646D01*
X118805646Y-133285147D01*
X118953216Y-133186544D01*
X119117188Y-133118624D01*
X119266488Y-133088927D01*
X119291258Y-133084000D01*
X119468742Y-133084000D01*
X119493512Y-133088927D01*
G37*
G36*
X122033512Y-133088927D02*
G01*
X122182812Y-133118624D01*
X122346784Y-133186544D01*
X122494354Y-133285147D01*
X122619853Y-133410646D01*
X122718456Y-133558216D01*
X122786376Y-133722188D01*
X122821000Y-133896259D01*
X122821000Y-134073741D01*
X122786376Y-134247812D01*
X122718456Y-134411784D01*
X122619853Y-134559354D01*
X122494354Y-134684853D01*
X122346784Y-134783456D01*
X122182812Y-134851376D01*
X122033512Y-134881073D01*
X122008742Y-134886000D01*
X121831258Y-134886000D01*
X121806488Y-134881073D01*
X121657188Y-134851376D01*
X121493216Y-134783456D01*
X121345646Y-134684853D01*
X121220147Y-134559354D01*
X121121544Y-134411784D01*
X121053624Y-134247812D01*
X121019000Y-134073741D01*
X121019000Y-133896259D01*
X121053624Y-133722188D01*
X121121544Y-133558216D01*
X121220147Y-133410646D01*
X121345646Y-133285147D01*
X121493216Y-133186544D01*
X121657188Y-133118624D01*
X121806488Y-133088927D01*
X121831258Y-133084000D01*
X122008742Y-133084000D01*
X122033512Y-133088927D01*
G37*
G36*
X127113512Y-133088927D02*
G01*
X127262812Y-133118624D01*
X127426784Y-133186544D01*
X127574354Y-133285147D01*
X127699853Y-133410646D01*
X127798456Y-133558216D01*
X127866376Y-133722188D01*
X127901000Y-133896259D01*
X127901000Y-134073741D01*
X127866376Y-134247812D01*
X127798456Y-134411784D01*
X127699853Y-134559354D01*
X127574354Y-134684853D01*
X127426784Y-134783456D01*
X127262812Y-134851376D01*
X127113512Y-134881073D01*
X127088742Y-134886000D01*
X126911258Y-134886000D01*
X126886488Y-134881073D01*
X126737188Y-134851376D01*
X126573216Y-134783456D01*
X126425646Y-134684853D01*
X126300147Y-134559354D01*
X126201544Y-134411784D01*
X126133624Y-134247812D01*
X126099000Y-134073741D01*
X126099000Y-133896259D01*
X126133624Y-133722188D01*
X126201544Y-133558216D01*
X126300147Y-133410646D01*
X126425646Y-133285147D01*
X126573216Y-133186544D01*
X126737188Y-133118624D01*
X126886488Y-133088927D01*
X126911258Y-133084000D01*
X127088742Y-133084000D01*
X127113512Y-133088927D01*
G37*
G36*
X129653512Y-133088927D02*
G01*
X129802812Y-133118624D01*
X129966784Y-133186544D01*
X130114354Y-133285147D01*
X130239853Y-133410646D01*
X130338456Y-133558216D01*
X130406376Y-133722188D01*
X130441000Y-133896259D01*
X130441000Y-134073741D01*
X130406376Y-134247812D01*
X130338456Y-134411784D01*
X130239853Y-134559354D01*
X130114354Y-134684853D01*
X129966784Y-134783456D01*
X129802812Y-134851376D01*
X129653512Y-134881073D01*
X129628742Y-134886000D01*
X129451258Y-134886000D01*
X129426488Y-134881073D01*
X129277188Y-134851376D01*
X129113216Y-134783456D01*
X128965646Y-134684853D01*
X128840147Y-134559354D01*
X128741544Y-134411784D01*
X128673624Y-134247812D01*
X128639000Y-134073741D01*
X128639000Y-133896259D01*
X128673624Y-133722188D01*
X128741544Y-133558216D01*
X128840147Y-133410646D01*
X128965646Y-133285147D01*
X129113216Y-133186544D01*
X129277188Y-133118624D01*
X129426488Y-133088927D01*
X129451258Y-133084000D01*
X129628742Y-133084000D01*
X129653512Y-133088927D01*
G37*
G36*
X132193512Y-133088927D02*
G01*
X132342812Y-133118624D01*
X132506784Y-133186544D01*
X132654354Y-133285147D01*
X132779853Y-133410646D01*
X132878456Y-133558216D01*
X132946376Y-133722188D01*
X132981000Y-133896259D01*
X132981000Y-134073741D01*
X132946376Y-134247812D01*
X132878456Y-134411784D01*
X132779853Y-134559354D01*
X132654354Y-134684853D01*
X132506784Y-134783456D01*
X132342812Y-134851376D01*
X132193512Y-134881073D01*
X132168742Y-134886000D01*
X131991258Y-134886000D01*
X131966488Y-134881073D01*
X131817188Y-134851376D01*
X131653216Y-134783456D01*
X131505646Y-134684853D01*
X131380147Y-134559354D01*
X131281544Y-134411784D01*
X131213624Y-134247812D01*
X131179000Y-134073741D01*
X131179000Y-133896259D01*
X131213624Y-133722188D01*
X131281544Y-133558216D01*
X131380147Y-133410646D01*
X131505646Y-133285147D01*
X131653216Y-133186544D01*
X131817188Y-133118624D01*
X131966488Y-133088927D01*
X131991258Y-133084000D01*
X132168742Y-133084000D01*
X132193512Y-133088927D01*
G37*
G36*
X124573512Y-133088927D02*
G01*
X124722812Y-133118624D01*
X124886784Y-133186544D01*
X125034354Y-133285147D01*
X125159853Y-133410646D01*
X125258456Y-133558216D01*
X125326376Y-133722188D01*
X125361000Y-133896259D01*
X125361000Y-134073741D01*
X125326376Y-134247812D01*
X125258456Y-134411784D01*
X125159853Y-134559354D01*
X125034354Y-134684853D01*
X124886784Y-134783456D01*
X124722812Y-134851376D01*
X124573512Y-134881073D01*
X124548742Y-134886000D01*
X124371258Y-134886000D01*
X124346488Y-134881073D01*
X124197188Y-134851376D01*
X124033216Y-134783456D01*
X123885646Y-134684853D01*
X123760147Y-134559354D01*
X123661544Y-134411784D01*
X123593624Y-134247812D01*
X123559000Y-134073741D01*
X123559000Y-133896259D01*
X123593624Y-133722188D01*
X123661544Y-133558216D01*
X123760147Y-133410646D01*
X123885646Y-133285147D01*
X124033216Y-133186544D01*
X124197188Y-133118624D01*
X124346488Y-133088927D01*
X124371258Y-133084000D01*
X124548742Y-133084000D01*
X124573512Y-133088927D01*
G37*
G36*
X136827798Y-128670247D02*
G01*
X136863367Y-128681037D01*
X136896139Y-128698554D01*
X136924869Y-128722131D01*
X136948446Y-128750861D01*
X136965963Y-128783633D01*
X136976753Y-128819202D01*
X136981000Y-128862325D01*
X136981000Y-129921675D01*
X136976753Y-129964798D01*
X136965963Y-130000367D01*
X136948446Y-130033139D01*
X136924869Y-130061869D01*
X136896139Y-130085446D01*
X136863367Y-130102963D01*
X136827798Y-130113753D01*
X136784675Y-130118000D01*
X133725325Y-130118000D01*
X133682202Y-130113753D01*
X133646633Y-130102963D01*
X133613861Y-130085446D01*
X133585131Y-130061869D01*
X133561554Y-130033139D01*
X133544037Y-130000367D01*
X133533247Y-129964798D01*
X133529000Y-129921675D01*
X133529000Y-128862325D01*
X133533247Y-128819202D01*
X133544037Y-128783633D01*
X133561554Y-128750861D01*
X133585131Y-128722131D01*
X133613861Y-128698554D01*
X133646633Y-128681037D01*
X133682202Y-128670247D01*
X133725325Y-128666000D01*
X136784675Y-128666000D01*
X136827798Y-128670247D01*
G37*
G36*
X114888674Y-127911465D02*
G01*
X114926367Y-127922899D01*
X114961103Y-127941466D01*
X114991548Y-127966452D01*
X115016534Y-127996897D01*
X115035101Y-128031633D01*
X115046535Y-128069326D01*
X115051000Y-128114661D01*
X115051000Y-128951339D01*
X115046535Y-128996674D01*
X115035101Y-129034367D01*
X115016534Y-129069103D01*
X114991548Y-129099548D01*
X114961103Y-129124534D01*
X114926367Y-129143101D01*
X114888674Y-129154535D01*
X114843339Y-129159000D01*
X113756661Y-129159000D01*
X113711326Y-129154535D01*
X113673633Y-129143101D01*
X113638897Y-129124534D01*
X113608452Y-129099548D01*
X113583466Y-129069103D01*
X113564899Y-129034367D01*
X113553465Y-128996674D01*
X113549000Y-128951339D01*
X113549000Y-128114661D01*
X113553465Y-128069326D01*
X113564899Y-128031633D01*
X113583466Y-127996897D01*
X113608452Y-127966452D01*
X113638897Y-127941466D01*
X113673633Y-127922899D01*
X113711326Y-127911465D01*
X113756661Y-127907000D01*
X114843339Y-127907000D01*
X114888674Y-127911465D01*
G37*
G36*
X122116720Y-125328520D02*
G01*
X122305881Y-125385901D01*
X122480212Y-125479083D01*
X122633015Y-125604485D01*
X122758417Y-125757288D01*
X122802182Y-125839167D01*
X122851598Y-125931617D01*
X122851599Y-125931620D01*
X122908980Y-126120781D01*
X122923500Y-126268207D01*
X122923500Y-126461794D01*
X122908980Y-126609220D01*
X122851599Y-126798381D01*
X122758417Y-126972712D01*
X122633015Y-127125515D01*
X122480212Y-127250917D01*
X122398333Y-127294682D01*
X122305883Y-127344098D01*
X122305880Y-127344099D01*
X122116719Y-127401480D01*
X121920000Y-127420855D01*
X121723280Y-127401480D01*
X121534119Y-127344099D01*
X121359788Y-127250917D01*
X121206985Y-127125515D01*
X121081583Y-126972712D01*
X121008951Y-126836827D01*
X120988402Y-126798383D01*
X120988401Y-126798380D01*
X120931020Y-126609219D01*
X120916500Y-126461793D01*
X120916500Y-126268206D01*
X120931020Y-126120780D01*
X120988401Y-125931619D01*
X121081583Y-125757288D01*
X121206985Y-125604485D01*
X121359788Y-125479083D01*
X121534120Y-125385901D01*
X121723281Y-125328520D01*
X121920000Y-125309145D01*
X122116720Y-125328520D01*
G37*
G36*
X124656720Y-125328520D02*
G01*
X124845881Y-125385901D01*
X125020212Y-125479083D01*
X125173015Y-125604485D01*
X125298417Y-125757288D01*
X125342182Y-125839167D01*
X125391598Y-125931617D01*
X125391599Y-125931620D01*
X125448980Y-126120781D01*
X125463500Y-126268207D01*
X125463500Y-126461794D01*
X125448980Y-126609220D01*
X125391599Y-126798381D01*
X125298417Y-126972712D01*
X125173015Y-127125515D01*
X125020212Y-127250917D01*
X124938333Y-127294682D01*
X124845883Y-127344098D01*
X124845880Y-127344099D01*
X124656719Y-127401480D01*
X124460000Y-127420855D01*
X124263280Y-127401480D01*
X124074119Y-127344099D01*
X123899788Y-127250917D01*
X123746985Y-127125515D01*
X123621583Y-126972712D01*
X123548951Y-126836827D01*
X123528402Y-126798383D01*
X123528401Y-126798380D01*
X123471020Y-126609219D01*
X123456500Y-126461793D01*
X123456500Y-126268206D01*
X123471020Y-126120780D01*
X123528401Y-125931619D01*
X123621583Y-125757288D01*
X123746985Y-125604485D01*
X123899788Y-125479083D01*
X124074120Y-125385901D01*
X124263281Y-125328520D01*
X124460000Y-125309145D01*
X124656720Y-125328520D01*
G37*
G36*
X128003500Y-127416000D02*
G01*
X125996500Y-127416000D01*
X125996500Y-125314000D01*
X128003500Y-125314000D01*
X128003500Y-127416000D01*
G37*
G36*
X114888674Y-125861465D02*
G01*
X114926367Y-125872899D01*
X114961103Y-125891466D01*
X114991548Y-125916452D01*
X115016534Y-125946897D01*
X115035101Y-125981633D01*
X115046535Y-126019326D01*
X115051000Y-126064661D01*
X115051000Y-126901339D01*
X115046535Y-126946674D01*
X115035101Y-126984367D01*
X115016534Y-127019103D01*
X114991548Y-127049548D01*
X114961103Y-127074534D01*
X114926367Y-127093101D01*
X114888674Y-127104535D01*
X114843339Y-127109000D01*
X113756661Y-127109000D01*
X113711326Y-127104535D01*
X113673633Y-127093101D01*
X113638897Y-127074534D01*
X113608452Y-127049548D01*
X113583466Y-127019103D01*
X113564899Y-126984367D01*
X113553465Y-126946674D01*
X113549000Y-126901339D01*
X113549000Y-126064661D01*
X113553465Y-126019326D01*
X113564899Y-125981633D01*
X113583466Y-125946897D01*
X113608452Y-125916452D01*
X113638897Y-125891466D01*
X113673633Y-125872899D01*
X113711326Y-125861465D01*
X113756661Y-125857000D01*
X114843339Y-125857000D01*
X114888674Y-125861465D01*
G37*
G36*
X114888674Y-123593465D02*
G01*
X114926367Y-123604899D01*
X114961103Y-123623466D01*
X114991548Y-123648452D01*
X115016534Y-123678897D01*
X115035101Y-123713633D01*
X115046535Y-123751326D01*
X115051000Y-123796661D01*
X115051000Y-124633339D01*
X115046535Y-124678674D01*
X115035101Y-124716367D01*
X115016534Y-124751103D01*
X114991548Y-124781548D01*
X114961103Y-124806534D01*
X114926367Y-124825101D01*
X114888674Y-124836535D01*
X114843339Y-124841000D01*
X113756661Y-124841000D01*
X113711326Y-124836535D01*
X113673633Y-124825101D01*
X113638897Y-124806534D01*
X113608452Y-124781548D01*
X113583466Y-124751103D01*
X113564899Y-124716367D01*
X113553465Y-124678674D01*
X113549000Y-124633339D01*
X113549000Y-123796661D01*
X113553465Y-123751326D01*
X113564899Y-123713633D01*
X113583466Y-123678897D01*
X113608452Y-123648452D01*
X113638897Y-123623466D01*
X113673633Y-123604899D01*
X113711326Y-123593465D01*
X113756661Y-123589000D01*
X114843339Y-123589000D01*
X114888674Y-123593465D01*
G37*
G36*
X136827798Y-122870247D02*
G01*
X136863367Y-122881037D01*
X136896139Y-122898554D01*
X136924869Y-122922131D01*
X136948446Y-122950861D01*
X136965963Y-122983633D01*
X136976753Y-123019202D01*
X136981000Y-123062325D01*
X136981000Y-124121675D01*
X136976753Y-124164798D01*
X136965963Y-124200367D01*
X136948446Y-124233139D01*
X136924869Y-124261869D01*
X136896139Y-124285446D01*
X136863367Y-124302963D01*
X136827798Y-124313753D01*
X136784675Y-124318000D01*
X133725325Y-124318000D01*
X133682202Y-124313753D01*
X133646633Y-124302963D01*
X133613861Y-124285446D01*
X133585131Y-124261869D01*
X133561554Y-124233139D01*
X133544037Y-124200367D01*
X133533247Y-124164798D01*
X133529000Y-124121675D01*
X133529000Y-123062325D01*
X133533247Y-123019202D01*
X133544037Y-122983633D01*
X133561554Y-122950861D01*
X133585131Y-122922131D01*
X133613861Y-122898554D01*
X133646633Y-122881037D01*
X133682202Y-122870247D01*
X133725325Y-122866000D01*
X136784675Y-122866000D01*
X136827798Y-122870247D01*
G37*
G36*
X119536000Y-122896000D02*
G01*
X117934000Y-122896000D01*
X117934000Y-120794000D01*
X119536000Y-120794000D01*
X119536000Y-122896000D01*
G37*
G36*
X124636000Y-122896000D02*
G01*
X123034000Y-122896000D01*
X123034000Y-120794000D01*
X124636000Y-120794000D01*
X124636000Y-122896000D01*
G37*
G36*
X114888674Y-121543465D02*
G01*
X114926367Y-121554899D01*
X114961103Y-121573466D01*
X114991548Y-121598452D01*
X115016534Y-121628897D01*
X115035101Y-121663633D01*
X115046535Y-121701326D01*
X115051000Y-121746661D01*
X115051000Y-122583339D01*
X115046535Y-122628674D01*
X115035101Y-122666367D01*
X115016534Y-122701103D01*
X114991548Y-122731548D01*
X114961103Y-122756534D01*
X114926367Y-122775101D01*
X114888674Y-122786535D01*
X114843339Y-122791000D01*
X113756661Y-122791000D01*
X113711326Y-122786535D01*
X113673633Y-122775101D01*
X113638897Y-122756534D01*
X113608452Y-122731548D01*
X113583466Y-122701103D01*
X113564899Y-122666367D01*
X113553465Y-122628674D01*
X113549000Y-122583339D01*
X113549000Y-121746661D01*
X113553465Y-121701326D01*
X113564899Y-121663633D01*
X113583466Y-121628897D01*
X113608452Y-121598452D01*
X113638897Y-121573466D01*
X113673633Y-121554899D01*
X113711326Y-121543465D01*
X113756661Y-121539000D01*
X114843339Y-121539000D01*
X114888674Y-121543465D01*
G37*
G36*
X132788674Y-119649465D02*
G01*
X132826367Y-119660899D01*
X132861103Y-119679466D01*
X132891548Y-119704452D01*
X132916534Y-119734897D01*
X132935101Y-119769633D01*
X132946535Y-119807326D01*
X132951000Y-119852661D01*
X132951000Y-120939339D01*
X132946535Y-120984674D01*
X132935101Y-121022367D01*
X132916534Y-121057103D01*
X132891548Y-121087548D01*
X132861103Y-121112534D01*
X132826367Y-121131101D01*
X132788674Y-121142535D01*
X132743339Y-121147000D01*
X131906661Y-121147000D01*
X131861326Y-121142535D01*
X131823633Y-121131101D01*
X131788897Y-121112534D01*
X131758452Y-121087548D01*
X131733466Y-121057103D01*
X131714899Y-121022367D01*
X131703465Y-120984674D01*
X131699000Y-120939339D01*
X131699000Y-119852661D01*
X131703465Y-119807326D01*
X131714899Y-119769633D01*
X131733466Y-119734897D01*
X131758452Y-119704452D01*
X131788897Y-119679466D01*
X131823633Y-119660899D01*
X131861326Y-119649465D01*
X131906661Y-119645000D01*
X132743339Y-119645000D01*
X132788674Y-119649465D01*
G37*
G36*
X134838674Y-119649465D02*
G01*
X134876367Y-119660899D01*
X134911103Y-119679466D01*
X134941548Y-119704452D01*
X134966534Y-119734897D01*
X134985101Y-119769633D01*
X134996535Y-119807326D01*
X135001000Y-119852661D01*
X135001000Y-120939339D01*
X134996535Y-120984674D01*
X134985101Y-121022367D01*
X134966534Y-121057103D01*
X134941548Y-121087548D01*
X134911103Y-121112534D01*
X134876367Y-121131101D01*
X134838674Y-121142535D01*
X134793339Y-121147000D01*
X133956661Y-121147000D01*
X133911326Y-121142535D01*
X133873633Y-121131101D01*
X133838897Y-121112534D01*
X133808452Y-121087548D01*
X133783466Y-121057103D01*
X133764899Y-121022367D01*
X133753465Y-120984674D01*
X133749000Y-120939339D01*
X133749000Y-119852661D01*
X133753465Y-119807326D01*
X133764899Y-119769633D01*
X133783466Y-119734897D01*
X133808452Y-119704452D01*
X133838897Y-119679466D01*
X133873633Y-119660899D01*
X133911326Y-119649465D01*
X133956661Y-119645000D01*
X134793339Y-119645000D01*
X134838674Y-119649465D01*
G37*
G36*
X137273512Y-118356927D02*
G01*
X137422812Y-118386624D01*
X137586784Y-118454544D01*
X137734354Y-118553147D01*
X137859853Y-118678646D01*
X137958456Y-118826216D01*
X138026376Y-118990188D01*
X138061000Y-119164259D01*
X138061000Y-119341741D01*
X138026376Y-119515812D01*
X137958456Y-119679784D01*
X137859853Y-119827354D01*
X137734354Y-119952853D01*
X137586784Y-120051456D01*
X137422812Y-120119376D01*
X137273512Y-120149073D01*
X137248742Y-120154000D01*
X137071258Y-120154000D01*
X137046488Y-120149073D01*
X136897188Y-120119376D01*
X136733216Y-120051456D01*
X136585646Y-119952853D01*
X136460147Y-119827354D01*
X136361544Y-119679784D01*
X136293624Y-119515812D01*
X136259000Y-119341741D01*
X136259000Y-119164259D01*
X136293624Y-118990188D01*
X136361544Y-118826216D01*
X136460147Y-118678646D01*
X136585646Y-118553147D01*
X136733216Y-118454544D01*
X136897188Y-118386624D01*
X137046488Y-118356927D01*
X137071258Y-118352000D01*
X137248742Y-118352000D01*
X137273512Y-118356927D01*
G37*
G36*
X114413512Y-118356927D02*
G01*
X114562812Y-118386624D01*
X114726784Y-118454544D01*
X114874354Y-118553147D01*
X114999853Y-118678646D01*
X115098456Y-118826216D01*
X115166376Y-118990188D01*
X115201000Y-119164259D01*
X115201000Y-119341741D01*
X115166376Y-119515812D01*
X115098456Y-119679784D01*
X114999853Y-119827354D01*
X114874354Y-119952853D01*
X114726784Y-120051456D01*
X114562812Y-120119376D01*
X114413512Y-120149073D01*
X114388742Y-120154000D01*
X114211258Y-120154000D01*
X114186488Y-120149073D01*
X114037188Y-120119376D01*
X113873216Y-120051456D01*
X113725646Y-119952853D01*
X113600147Y-119827354D01*
X113501544Y-119679784D01*
X113433624Y-119515812D01*
X113399000Y-119341741D01*
X113399000Y-119164259D01*
X113433624Y-118990188D01*
X113501544Y-118826216D01*
X113600147Y-118678646D01*
X113725646Y-118553147D01*
X113873216Y-118454544D01*
X114037188Y-118386624D01*
X114186488Y-118356927D01*
X114211258Y-118352000D01*
X114388742Y-118352000D01*
X114413512Y-118356927D01*
G37*
G36*
X134724000Y-117987000D02*
G01*
X133722000Y-117987000D01*
X133722000Y-117085000D01*
X134724000Y-117085000D01*
X134724000Y-117987000D01*
G37*
G36*
X137273512Y-115816927D02*
G01*
X137422812Y-115846624D01*
X137586784Y-115914544D01*
X137734354Y-116013147D01*
X137859853Y-116138646D01*
X137958456Y-116286216D01*
X138026376Y-116450188D01*
X138061000Y-116624259D01*
X138061000Y-116801741D01*
X138026376Y-116975812D01*
X137958456Y-117139784D01*
X137859853Y-117287354D01*
X137734354Y-117412853D01*
X137586784Y-117511456D01*
X137422812Y-117579376D01*
X137273512Y-117609073D01*
X137248742Y-117614000D01*
X137071258Y-117614000D01*
X137046488Y-117609073D01*
X136897188Y-117579376D01*
X136733216Y-117511456D01*
X136585646Y-117412853D01*
X136460147Y-117287354D01*
X136361544Y-117139784D01*
X136293624Y-116975812D01*
X136259000Y-116801741D01*
X136259000Y-116624259D01*
X136293624Y-116450188D01*
X136361544Y-116286216D01*
X136460147Y-116138646D01*
X136585646Y-116013147D01*
X136733216Y-115914544D01*
X136897188Y-115846624D01*
X137046488Y-115816927D01*
X137071258Y-115812000D01*
X137248742Y-115812000D01*
X137273512Y-115816927D01*
G37*
G36*
X114413512Y-115816927D02*
G01*
X114562812Y-115846624D01*
X114726784Y-115914544D01*
X114874354Y-116013147D01*
X114999853Y-116138646D01*
X115098456Y-116286216D01*
X115166376Y-116450188D01*
X115201000Y-116624259D01*
X115201000Y-116801741D01*
X115166376Y-116975812D01*
X115098456Y-117139784D01*
X114999853Y-117287354D01*
X114874354Y-117412853D01*
X114726784Y-117511456D01*
X114562812Y-117579376D01*
X114413512Y-117609073D01*
X114388742Y-117614000D01*
X114211258Y-117614000D01*
X114186488Y-117609073D01*
X114037188Y-117579376D01*
X113873216Y-117511456D01*
X113725646Y-117412853D01*
X113600147Y-117287354D01*
X113501544Y-117139784D01*
X113433624Y-116975812D01*
X113399000Y-116801741D01*
X113399000Y-116624259D01*
X113433624Y-116450188D01*
X113501544Y-116286216D01*
X113600147Y-116138646D01*
X113725646Y-116013147D01*
X113873216Y-115914544D01*
X114037188Y-115846624D01*
X114186488Y-115816927D01*
X114211258Y-115812000D01*
X114388742Y-115812000D01*
X114413512Y-115816927D01*
G37*
G36*
X132724000Y-117037000D02*
G01*
X131722000Y-117037000D01*
X131722000Y-116135000D01*
X132724000Y-116135000D01*
X132724000Y-117037000D01*
G37*
G36*
X134724000Y-116087000D02*
G01*
X133722000Y-116087000D01*
X133722000Y-115185000D01*
X134724000Y-115185000D01*
X134724000Y-116087000D01*
G37*
G36*
X137273512Y-113276927D02*
G01*
X137422812Y-113306624D01*
X137586784Y-113374544D01*
X137734354Y-113473147D01*
X137859853Y-113598646D01*
X137958456Y-113746216D01*
X138026376Y-113910188D01*
X138061000Y-114084259D01*
X138061000Y-114261741D01*
X138026376Y-114435812D01*
X137958456Y-114599784D01*
X137859853Y-114747354D01*
X137734354Y-114872853D01*
X137586784Y-114971456D01*
X137422812Y-115039376D01*
X137273512Y-115069073D01*
X137248742Y-115074000D01*
X137071258Y-115074000D01*
X137046488Y-115069073D01*
X136897188Y-115039376D01*
X136733216Y-114971456D01*
X136585646Y-114872853D01*
X136460147Y-114747354D01*
X136361544Y-114599784D01*
X136293624Y-114435812D01*
X136259000Y-114261741D01*
X136259000Y-114084259D01*
X136293624Y-113910188D01*
X136361544Y-113746216D01*
X136460147Y-113598646D01*
X136585646Y-113473147D01*
X136733216Y-113374544D01*
X136897188Y-113306624D01*
X137046488Y-113276927D01*
X137071258Y-113272000D01*
X137248742Y-113272000D01*
X137273512Y-113276927D01*
G37*
G36*
X119536000Y-114156000D02*
G01*
X117934000Y-114156000D01*
X117934000Y-112054000D01*
X119536000Y-112054000D01*
X119536000Y-114156000D01*
G37*
G36*
X124636000Y-114156000D02*
G01*
X123034000Y-114156000D01*
X123034000Y-112054000D01*
X124636000Y-112054000D01*
X124636000Y-114156000D01*
G37*
G36*
X134724000Y-113161000D02*
G01*
X133722000Y-113161000D01*
X133722000Y-112259000D01*
X134724000Y-112259000D01*
X134724000Y-113161000D01*
G37*
G36*
X137273512Y-110736927D02*
G01*
X137422812Y-110766624D01*
X137586784Y-110834544D01*
X137734354Y-110933147D01*
X137859853Y-111058646D01*
X137958456Y-111206216D01*
X138026376Y-111370188D01*
X138061000Y-111544259D01*
X138061000Y-111721741D01*
X138026376Y-111895812D01*
X137958456Y-112059784D01*
X137859853Y-112207354D01*
X137734354Y-112332853D01*
X137586784Y-112431456D01*
X137422812Y-112499376D01*
X137273512Y-112529073D01*
X137248742Y-112534000D01*
X137071258Y-112534000D01*
X137046488Y-112529073D01*
X136897188Y-112499376D01*
X136733216Y-112431456D01*
X136585646Y-112332853D01*
X136460147Y-112207354D01*
X136361544Y-112059784D01*
X136293624Y-111895812D01*
X136259000Y-111721741D01*
X136259000Y-111544259D01*
X136293624Y-111370188D01*
X136361544Y-111206216D01*
X136460147Y-111058646D01*
X136585646Y-110933147D01*
X136733216Y-110834544D01*
X136897188Y-110766624D01*
X137046488Y-110736927D01*
X137071258Y-110732000D01*
X137248742Y-110732000D01*
X137273512Y-110736927D01*
G37*
G36*
X132724000Y-112211000D02*
G01*
X131722000Y-112211000D01*
X131722000Y-111309000D01*
X132724000Y-111309000D01*
X132724000Y-112211000D01*
G37*
G36*
X134724000Y-111261000D02*
G01*
X133722000Y-111261000D01*
X133722000Y-110359000D01*
X134724000Y-110359000D01*
X134724000Y-111261000D01*
G37*
G36*
X137273512Y-108196927D02*
G01*
X137422812Y-108226624D01*
X137586784Y-108294544D01*
X137734354Y-108393147D01*
X137859853Y-108518646D01*
X137958456Y-108666216D01*
X138026376Y-108830188D01*
X138061000Y-109004259D01*
X138061000Y-109181741D01*
X138026376Y-109355812D01*
X137958456Y-109519784D01*
X137859853Y-109667354D01*
X137734354Y-109792853D01*
X137586784Y-109891456D01*
X137422812Y-109959376D01*
X137273512Y-109989073D01*
X137248742Y-109994000D01*
X137071258Y-109994000D01*
X137046488Y-109989073D01*
X136897188Y-109959376D01*
X136733216Y-109891456D01*
X136585646Y-109792853D01*
X136460147Y-109667354D01*
X136361544Y-109519784D01*
X136293624Y-109355812D01*
X136259000Y-109181741D01*
X136259000Y-109004259D01*
X136293624Y-108830188D01*
X136361544Y-108666216D01*
X136460147Y-108518646D01*
X136585646Y-108393147D01*
X136733216Y-108294544D01*
X136897188Y-108226624D01*
X137046488Y-108196927D01*
X137071258Y-108192000D01*
X137248742Y-108192000D01*
X137273512Y-108196927D01*
G37*
G36*
X123073000Y-108694000D02*
G01*
X121771000Y-108694000D01*
X121771000Y-106392000D01*
X123073000Y-106392000D01*
X123073000Y-108694000D01*
G37*
G36*
X120793000Y-108694000D02*
G01*
X119491000Y-108694000D01*
X119491000Y-106392000D01*
X120793000Y-106392000D01*
X120793000Y-108694000D01*
G37*
G36*
X130325000Y-108694000D02*
G01*
X129023000Y-108694000D01*
X129023000Y-106392000D01*
X130325000Y-106392000D01*
X130325000Y-108694000D01*
G37*
G36*
X132605000Y-108694000D02*
G01*
X131303000Y-108694000D01*
X131303000Y-106392000D01*
X132605000Y-106392000D01*
X132605000Y-108694000D01*
G37*
G36*
X134885000Y-108694000D02*
G01*
X133583000Y-108694000D01*
X133583000Y-106392000D01*
X134885000Y-106392000D01*
X134885000Y-108694000D01*
G37*
G36*
X118513000Y-108694000D02*
G01*
X117211000Y-108694000D01*
X117211000Y-106392000D01*
X118513000Y-106392000D01*
X118513000Y-108694000D01*
G37*
G36*
X126470000Y-108570000D02*
G01*
X125730000Y-108570000D01*
X125730000Y-107130000D01*
X126470000Y-107130000D01*
X126470000Y-108570000D01*
G37*
G36*
X137273512Y-105656927D02*
G01*
X137422812Y-105686624D01*
X137586784Y-105754544D01*
X137734354Y-105853147D01*
X137859853Y-105978646D01*
X137958456Y-106126216D01*
X138026376Y-106290188D01*
X138061000Y-106464259D01*
X138061000Y-106641741D01*
X138026376Y-106815812D01*
X137958456Y-106979784D01*
X137859853Y-107127354D01*
X137734354Y-107252853D01*
X137586784Y-107351456D01*
X137422812Y-107419376D01*
X137273512Y-107449073D01*
X137248742Y-107454000D01*
X137071258Y-107454000D01*
X137046488Y-107449073D01*
X136897188Y-107419376D01*
X136733216Y-107351456D01*
X136585646Y-107252853D01*
X136460147Y-107127354D01*
X136361544Y-106979784D01*
X136293624Y-106815812D01*
X136259000Y-106641741D01*
X136259000Y-106464259D01*
X136293624Y-106290188D01*
X136361544Y-106126216D01*
X136460147Y-105978646D01*
X136585646Y-105853147D01*
X136733216Y-105754544D01*
X136897188Y-105686624D01*
X137046488Y-105656927D01*
X137071258Y-105652000D01*
X137248742Y-105652000D01*
X137273512Y-105656927D01*
G37*
G36*
X125520000Y-106470000D02*
G01*
X124780000Y-106470000D01*
X124780000Y-105030000D01*
X125520000Y-105030000D01*
X125520000Y-106470000D01*
G37*
G36*
X127420000Y-106470000D02*
G01*
X126680000Y-106470000D01*
X126680000Y-105030000D01*
X127420000Y-105030000D01*
X127420000Y-106470000D01*
G37*
G36*
X137266423Y-103115517D02*
G01*
X137422812Y-103146624D01*
X137586784Y-103214544D01*
X137734354Y-103313147D01*
X137859853Y-103438646D01*
X137958456Y-103586216D01*
X138026376Y-103750188D01*
X138061000Y-103924259D01*
X138061000Y-104101741D01*
X138026376Y-104275812D01*
X137958456Y-104439784D01*
X137859853Y-104587354D01*
X137734354Y-104712853D01*
X137586784Y-104811456D01*
X137422812Y-104879376D01*
X137273512Y-104909073D01*
X137248742Y-104914000D01*
X137071258Y-104914000D01*
X137046488Y-104909073D01*
X136897188Y-104879376D01*
X136733216Y-104811456D01*
X136585646Y-104712853D01*
X136460147Y-104587354D01*
X136361544Y-104439784D01*
X136293624Y-104275812D01*
X136259000Y-104101741D01*
X136259000Y-103924259D01*
X136293624Y-103750188D01*
X136361544Y-103586216D01*
X136460147Y-103438646D01*
X136585646Y-103313147D01*
X136733216Y-103214544D01*
X136897188Y-103146624D01*
X137053577Y-103115517D01*
X137071258Y-103112000D01*
X137248742Y-103112000D01*
X137266423Y-103115517D01*
G37*
G36*
X123093000Y-104494000D02*
G01*
X117191000Y-104494000D01*
X117191000Y-97992000D01*
X123093000Y-97992000D01*
X123093000Y-104494000D01*
G37*
G36*
X134905000Y-104494000D02*
G01*
X129003000Y-104494000D01*
X129003000Y-97992000D01*
X134905000Y-97992000D01*
X134905000Y-104494000D01*
G37*
G36*
X127356968Y-101679065D02*
G01*
X127395638Y-101690796D01*
X127431277Y-101709846D01*
X127462517Y-101735483D01*
X127488154Y-101766723D01*
X127507204Y-101802362D01*
X127518935Y-101841032D01*
X127523500Y-101887388D01*
X127523500Y-102963612D01*
X127518935Y-103009968D01*
X127507204Y-103048638D01*
X127488154Y-103084277D01*
X127462517Y-103115517D01*
X127431277Y-103141154D01*
X127395638Y-103160204D01*
X127356968Y-103171935D01*
X127310612Y-103176500D01*
X126659388Y-103176500D01*
X126613032Y-103171935D01*
X126574362Y-103160204D01*
X126538723Y-103141154D01*
X126507483Y-103115517D01*
X126481846Y-103084277D01*
X126462796Y-103048638D01*
X126451065Y-103009968D01*
X126446500Y-102963612D01*
X126446500Y-101887388D01*
X126451065Y-101841032D01*
X126462796Y-101802362D01*
X126481846Y-101766723D01*
X126507483Y-101735483D01*
X126538723Y-101709846D01*
X126574362Y-101690796D01*
X126613032Y-101679065D01*
X126659388Y-101674500D01*
X127310612Y-101674500D01*
X127356968Y-101679065D01*
G37*
G36*
X125481968Y-101679065D02*
G01*
X125520638Y-101690796D01*
X125556277Y-101709846D01*
X125587517Y-101735483D01*
X125613154Y-101766723D01*
X125632204Y-101802362D01*
X125643935Y-101841032D01*
X125648500Y-101887388D01*
X125648500Y-102963612D01*
X125643935Y-103009968D01*
X125632204Y-103048638D01*
X125613154Y-103084277D01*
X125587517Y-103115517D01*
X125556277Y-103141154D01*
X125520638Y-103160204D01*
X125481968Y-103171935D01*
X125435612Y-103176500D01*
X124784388Y-103176500D01*
X124738032Y-103171935D01*
X124699362Y-103160204D01*
X124663723Y-103141154D01*
X124632483Y-103115517D01*
X124606846Y-103084277D01*
X124587796Y-103048638D01*
X124576065Y-103009968D01*
X124571500Y-102963612D01*
X124571500Y-101887388D01*
X124576065Y-101841032D01*
X124587796Y-101802362D01*
X124606846Y-101766723D01*
X124632483Y-101735483D01*
X124663723Y-101709846D01*
X124699362Y-101690796D01*
X124738032Y-101679065D01*
X124784388Y-101674500D01*
X125435612Y-101674500D01*
X125481968Y-101679065D01*
G37*
G36*
X137273512Y-100576927D02*
G01*
X137422812Y-100606624D01*
X137586784Y-100674544D01*
X137734354Y-100773147D01*
X137859853Y-100898646D01*
X137958456Y-101046216D01*
X138026376Y-101210188D01*
X138061000Y-101384259D01*
X138061000Y-101561741D01*
X138026376Y-101735812D01*
X137958456Y-101899784D01*
X137859853Y-102047354D01*
X137734354Y-102172853D01*
X137586784Y-102271456D01*
X137422812Y-102339376D01*
X137273512Y-102369073D01*
X137248742Y-102374000D01*
X137071258Y-102374000D01*
X137046488Y-102369073D01*
X136897188Y-102339376D01*
X136733216Y-102271456D01*
X136585646Y-102172853D01*
X136460147Y-102047354D01*
X136361544Y-101899784D01*
X136293624Y-101735812D01*
X136259000Y-101561741D01*
X136259000Y-101384259D01*
X136293624Y-101210188D01*
X136361544Y-101046216D01*
X136460147Y-100898646D01*
X136585646Y-100773147D01*
X136733216Y-100674544D01*
X136897188Y-100606624D01*
X137046488Y-100576927D01*
X137071258Y-100572000D01*
X137248742Y-100572000D01*
X137273512Y-100576927D01*
G37*
G36*
X127356968Y-98631065D02*
G01*
X127395638Y-98642796D01*
X127431277Y-98661846D01*
X127462517Y-98687483D01*
X127488154Y-98718723D01*
X127507204Y-98754362D01*
X127518935Y-98793032D01*
X127523500Y-98839388D01*
X127523500Y-99915612D01*
X127518935Y-99961968D01*
X127507204Y-100000638D01*
X127488154Y-100036277D01*
X127462517Y-100067517D01*
X127431277Y-100093154D01*
X127395638Y-100112204D01*
X127356968Y-100123935D01*
X127310612Y-100128500D01*
X126659388Y-100128500D01*
X126613032Y-100123935D01*
X126574362Y-100112204D01*
X126538723Y-100093154D01*
X126507483Y-100067517D01*
X126481846Y-100036277D01*
X126462796Y-100000638D01*
X126451065Y-99961968D01*
X126446500Y-99915612D01*
X126446500Y-98839388D01*
X126451065Y-98793032D01*
X126462796Y-98754362D01*
X126481846Y-98718723D01*
X126507483Y-98687483D01*
X126538723Y-98661846D01*
X126574362Y-98642796D01*
X126613032Y-98631065D01*
X126659388Y-98626500D01*
X127310612Y-98626500D01*
X127356968Y-98631065D01*
G37*
G36*
X125481968Y-98631065D02*
G01*
X125520638Y-98642796D01*
X125556277Y-98661846D01*
X125587517Y-98687483D01*
X125613154Y-98718723D01*
X125632204Y-98754362D01*
X125643935Y-98793032D01*
X125648500Y-98839388D01*
X125648500Y-99915612D01*
X125643935Y-99961968D01*
X125632204Y-100000638D01*
X125613154Y-100036277D01*
X125587517Y-100067517D01*
X125556277Y-100093154D01*
X125520638Y-100112204D01*
X125481968Y-100123935D01*
X125435612Y-100128500D01*
X124784388Y-100128500D01*
X124738032Y-100123935D01*
X124699362Y-100112204D01*
X124663723Y-100093154D01*
X124632483Y-100067517D01*
X124606846Y-100036277D01*
X124587796Y-100000638D01*
X124576065Y-99961968D01*
X124571500Y-99915612D01*
X124571500Y-98839388D01*
X124576065Y-98793032D01*
X124587796Y-98754362D01*
X124606846Y-98718723D01*
X124632483Y-98687483D01*
X124663723Y-98661846D01*
X124699362Y-98642796D01*
X124738032Y-98631065D01*
X124784388Y-98626500D01*
X125435612Y-98626500D01*
X125481968Y-98631065D01*
G37*
M02*
